<svg width="669" height="516" viewBox="0 0 669 516" fill="none" xmlns="http://www.w3.org/2000/svg">
<g clip-path="url(#clip0_504_11281)">
<rect width="669" height="516" fill="#D9D9D9" fill-opacity="0.6"/>
<g clip-path="url(#clip1_504_11281)">
<path d="M270.53 191.98C269.79 194.27 274.71 203.27 275.8 206.42C277.69 211.88 279.78 217.91 281.04 223.52C282.83 231.54 283.32 239.94 284.54 248.04C285.01 251.13 286.44 268.46 289.33 268.86L334.53 253.61C331.84 232.31 329.45 212.03 320.61 192.27C316.87 183.92 311.4 176.46 307.64 168.45C306.92 166.93 305.97 165.93 306.45 163.96C309.53 162.53 313.34 158.18 316.96 160.46C318.7 164.89 322.97 170.01 325.3 174.46C330.14 183.69 334.03 193.7 339.43 202.42C341.45 203 348.79 198.87 351.13 197.7C371.14 187.76 390.1 175.68 410.44 166.36C415.95 156.25 421 144.04 427.13 134.43C427.9 133.22 428.86 132.43 429.95 131.56C433.73 131.46 437.56 131.56 441.34 131.56L425.15 169.23L476.07 223.35C500.83 213.99 526.83 208.94 552.54 202.92C557.56 189.1 561.1 174.47 566.19 160.5C566.7 159.1 567.09 156.5 569.21 156.97C572.51 158.32 575.87 160.09 578.84 161.35C577.29 172.46 572.17 182.92 569.21 193.76C568.19 197.47 565.68 203.62 566.75 207.2C567.08 208.3 568.23 208.46 568.33 208.65C574.61 219.66 585.6 230.65 593.71 240.64C597.06 244.77 609.91 263.49 613 264.7C614.97 265.47 620.98 264.77 623.51 264.7C624.09 264.68 624.68 264.72 625.26 264.7C626.42 264.66 627.6 264.76 628.76 264.7C633.29 264.46 638.67 263.27 643.22 262.96C649.53 262.53 668.39 263.12 672.79 261C678.36 258.31 686.29 238.43 689.21 232.3L700.46 240.33C702.51 243.82 687.08 263.89 688.5 271.07C689.39 275.57 696.58 286.1 698.98 291.27C715.24 326.22 726.17 362.6 734.56 400.21C738.07 407.09 742.72 404.49 748.75 403.1C759.47 400.63 769.6 396.56 779.41 391.71C784.15 389.37 788.48 387.05 792.55 383.83C792.86 383.58 793.93 383.61 794.3 382.95C795.9 385.2 797.9 384.99 799.56 389.08C799.63 389.24 800.44 391.92 800.41 392.08C800.15 393.58 779.7 404.42 776.78 405.72C773.51 407.18 755.63 412.75 755.02 413.73C753.68 415.87 760.56 434.52 761.89 438.12C763.94 443.66 766.66 449 768.03 454.77C770.16 452.58 773.16 454.03 774.15 453.89C768.2 455.85 761.81 456.67 755.76 458.27C754.7 453.42 743.19 418.82 741.17 418.12C739.96 417.7 738.26 417.9 736.95 417.98C726.27 418.64 714.5 421.45 703.64 422.35C693.85 423.16 682.31 422.28 673.02 423.48C671.15 423.72 667.46 423.96 666.33 425.33C665.05 426.89 665.32 447.92 665.51 451.73C665.65 454.56 667.06 470.28 668.36 471.22C674.45 472.02 681.67 471.93 687.87 471.39C703.65 470.02 724.11 465.7 739.99 462.64C738.41 464.55 739.82 464.51 741.14 465.43C761.8 479.92 777.88 490.58 793.77 510.9C808.96 530.32 842.98 587.02 810.09 603.25C786.75 614.77 746.42 592.65 726.59 579.82C708.43 568.07 693.16 553.96 678.67 537.96C678.21 535.49 664.31 519.73 661.67 515.98C652.63 503.16 643.53 489.14 642.76 473.14C644.9 472.05 650.12 471.91 651.52 470.51C653.39 468.64 652.49 450.77 652.4 446.86C652.4 446.57 652.4 446.28 652.4 445.98C652.28 442.15 652.23 427.19 651.38 424.67C650.43 421.84 645.13 422.35 642.77 422.34C642.49 421.03 639.63 420.98 639.27 422.34H638.39C637.89 422.25 637.21 421.57 636.64 421.46C635.17 421.18 633.04 421.59 631.38 421.46C631.1 420.61 630.38 420.65 629.63 420.58C629.34 420.55 629.04 420.6 628.75 420.58C619.75 420.01 610.24 418.98 601.28 417.83C595.57 417.1 573.33 412.47 569.74 413.7C566.66 414.75 564.41 434.99 563.93 438.98C563.45 442.97 561.36 457.5 562.32 460.3C563.51 463.76 571.02 463.02 573.56 463.5C593.26 467.27 613.78 468.5 633.12 472.26C632.76 480.18 624.96 478.18 619.79 478.63C609.33 479.55 600.88 479.98 591.08 481.89C584.77 483.12 566.51 482.18 559.07 481.93C493.73 479.72 429.97 462.89 369.49 439.4L343.2 426.71C342.05 419.3 336.58 394.56 329.23 392.07C327.79 391.58 326.3 391.6 324.81 391.68L324.83 393.83L344.07 431.09C345.46 442.94 353.91 459.41 357.16 471.87C363.49 496.14 360.42 509.46 358.98 533.14C358.4 542.58 360.42 555.8 361.74 565.39C364.69 586.78 383.02 649.54 339.01 631.91C314.6 622.13 287.23 585.42 273.64 563.27C260.24 541.44 249.68 517.89 242.48 493.27C243.17 493 243.63 493.02 243.28 492.06C240.16 480.49 237.2 468.7 235.6 456.8C229.01 407.78 232.98 364.04 274.1 331.77C274.88 331.16 289.52 322.8 287.15 320.73C285.05 320.57 283.05 320.7 280.98 321.12C276.65 322 263.13 329.82 259.21 332.63C258.01 333.49 257.71 335.96 256.09 335.59C246.3 327.36 239.3 315.09 228.46 308.46C230.22 306.2 228.83 306.4 227.9 305.2C219.66 294.63 208.5 282.56 197.2 275.34C176.66 262.23 153.6 263.06 130.87 256.71C108.14 250.36 85.12 239.44 76.06 217.36C80.53 217.56 85.05 217.1 89.53 217.47L131.61 226.89C133.13 226.52 133.51 222.86 132.87 221.85C131.53 219.75 96.94 212.25 92.01 211.48C83.76 210.2 74.64 208.15 66.43 210.35C64.35 201.06 69.99 185.89 73.9 177.1C109.24 97.7101 210.32 112.96 253.84 175.78L270.5 191.96L270.53 191.98ZM131.88 156.25C120.01 158.97 120.1 183.75 135.09 182.3C152.59 180.61 149.87 152.13 131.88 156.25ZM432.06 196.87C427.35 191.98 419.73 181.06 412.41 181.82C405.58 182.53 385.68 194.06 378.55 197.96C374.16 200.36 344.52 217.28 343.68 219.14C342.31 222.18 343.68 235.48 344.21 239.6C349.67 282.05 383.91 321.11 420.04 341.58C421.61 342.47 429.6 347.04 430.41 347.02C432.62 346.97 433.94 342.5 434.56 340.69C444.16 312.86 449.95 281.51 458.82 252.84C460.78 246.51 465.84 238.71 463.9 232.02C463.66 231.21 461.34 228.48 460.56 227.48C452.83 217.62 440.93 206.1 432.05 196.87H432.06ZM591.1 321.61C592.71 310.09 596.53 298.56 597.98 286.89C598.49 282.74 599.72 276.34 598.58 272.52C597.6 269.22 584.51 252.49 581.44 248.5C573.15 237.71 563.87 227.51 555.23 216.99C537.83 220.31 520.35 224.85 503.32 229.89C499.35 231.06 481.16 236.1 479.23 237.77C475.91 240.64 469.66 260.37 468.04 265.55C461.68 285.84 455.21 308.48 450.15 329.12C448.03 337.77 445.85 346.32 444.76 355.2C466.29 367.67 489.57 376.84 513.14 384.67C516.04 385.63 518.99 386.4 521.9 387.3C537.33 392.07 553.1 397.24 569.2 399.56C571.85 399.94 574.35 401.51 576.13 399.04C577.77 396.75 582.27 375.21 583.22 370.66C585.3 360.65 587.07 350.14 588.48 340C588.9 336.98 589.99 333.13 590.23 330.37C590.28 329.79 590.19 329.2 590.23 328.62C591.32 326.35 590.8 323.82 591.11 321.61H591.1ZM338.71 269.2C335.28 267.02 305.99 276.57 300.73 278.68C296.93 280.2 292.76 281.13 292.45 286.2C292.32 288.3 297.21 301.04 298.4 303.82C307.33 324.67 322.1 343.01 337.66 359.19C340.74 359.71 354.31 343.06 356.71 339.92C360.95 334.39 369.73 324.42 367.27 317.27C356.11 302.26 346.61 286.16 338.71 269.21V269.2ZM642.78 275.19C635.07 275.92 625.31 276.51 617.89 277.92C616.75 278.14 615.34 278.17 614.75 279.34L590.38 401.62C591.07 403.63 596.85 404.82 598.96 405.29C630.41 412.33 683.09 414.02 714.97 409.13C717.16 408.79 720.49 407.89 720.74 405.25C713.51 364.44 701.04 324.38 682.95 287.14C681.81 284.8 677.47 275.25 676.07 274.32C672.08 271.67 648.96 274.61 642.79 275.2L642.78 275.19ZM379.76 332.31C377.78 332.77 376.53 334.27 375.18 335.61C370.61 340.14 352.15 363.17 350.03 368.3C349.48 369.62 349.1 370.02 349.77 371.51C350.33 372.77 360.57 380.83 362.59 382.4C380.25 396.22 402.42 409.98 422.75 419.46C424.21 420.14 431.77 423.82 432.28 423.91C433.74 424.18 435.56 422.51 436.47 421.42C439.04 418.35 452.24 388.87 453.16 384.68C453.71 382.16 454.16 377.33 453.14 375.05C452.12 372.77 418.51 355.51 413.03 352.1C403.68 346.28 394.68 339.53 386.14 332.58C384.31 331.8 381.67 331.87 379.77 332.31H379.76ZM287.81 370.93C271.1 365.54 274.51 389.27 284.77 386.26C291.34 384.33 292.33 372.39 287.81 370.93ZM260.67 383.15C256.72 379.45 249.73 383.78 249.75 389.32C249.75 390.16 251.97 397.35 252.3 397.63C252.74 398.01 256.55 398.52 257.42 398.31C262.84 397 264.31 386.58 260.66 383.15H260.67ZM455.34 432.84C458.9 436.01 464.18 436.53 468.48 438.1C483.94 443.72 498.6 448.93 514.72 452.73C519.53 453.86 546.63 460.15 548.98 458.15L556.08 412.25C555.42 408.83 547.63 407.44 544.69 406.56C537.82 404.52 530.5 403.39 523.67 401.3C514.17 398.4 504.58 394.97 495.19 391.68C491 390.21 472.05 381.77 469.62 382.67C467.52 383.45 466.13 385.98 465.09 387.83C458.84 399.02 455.2 414.09 449.56 425.81C448.94 430.33 451.56 431.87 455.35 432.84H455.34ZM302.66 405.97C293.93 399.49 285.12 410.66 292.42 419.27C302.29 430.93 312.04 412.92 302.66 405.97ZM259.45 433.41C269.75 444.3 277.7 423.48 268.7 418.46C258.29 412.66 252.8 426.37 259.45 433.41ZM297.46 442.73C286.01 437.89 282.97 456.35 293.25 461.36C302.99 466.1 304.73 453.72 301.38 447.11C301.1 446.57 297.73 442.85 297.46 442.74V442.73ZM270.32 479.94C273.76 476.48 271.07 467.97 267.93 464.78C258.33 455.01 254.55 467.23 258.05 475.54C259.71 479.48 266.98 483.29 270.32 479.94ZM699.2 485.91C690.08 474.67 682.13 485.08 688.84 494.08C691.43 497.55 701.43 501.52 702.35 495.42C702.9 491.77 701.26 488.45 699.2 485.92V485.91ZM725.87 490.81C724.8 489.89 721.31 491.67 720.87 492.98C717.83 502.07 727.79 514.23 735.61 505.09C736.2 503.25 734.01 503.95 733.89 503.76C733.68 503.44 736.42 501.68 734.3 496.78C733.27 494.41 727.03 487.71 726.85 492.4H725.99C725.98 491.94 726.12 491.03 725.87 490.82V490.81ZM283.88 496.12C280.19 500.38 283.77 512.71 290.44 514.09C303.92 516.88 297.67 496.95 291.81 495.21C290.12 494.71 285 494.82 283.88 496.12ZM766.87 514.57C766.51 514.14 760.8 509.35 760.4 509.23C750.7 506.34 750.32 516.69 754.89 522.62C757.69 526.25 762.88 528.88 767.47 527.32C771.22 526.04 768.89 517.02 766.87 514.58V514.57ZM723.17 541.25C725.23 540.08 725.42 533.65 725.05 531.42C724.17 526.1 714.42 519.17 709.73 523.88C703.95 529.69 716.14 545.25 723.17 541.25ZM743.21 542.48C739.14 543.86 742.19 553.84 743.96 556.33C746.66 560.14 755.19 563.5 757.58 557.72C761.11 549.17 752.12 539.45 743.21 542.48Z" fill="#7DCAB0"/>
<path d="M228.49 308.47C239.32 315.1 246.33 327.37 256.12 335.6C257.73 335.97 258.03 333.51 259.24 332.64C263.16 329.83 276.68 322.01 281.01 321.13C283.08 320.71 285.08 320.58 287.18 320.74C289.55 322.81 274.91 331.17 274.13 331.78C233.01 364.06 229.04 407.8 235.63 456.81C237.23 468.71 240.19 480.5 243.31 492.07C243.66 493.04 243.2 493.01 242.51 493.28C242.16 493.42 241.36 493.06 240.84 493.32C239.67 506.83 235.42 520.74 231.13 533.57C228.44 531.81 229.83 533.1 229.28 534.77C227.34 540.64 224.92 546.27 222.99 552.14L215.36 565.97C209.18 572.63 204.2 574.6 195.62 569.5C179.54 559.94 169.79 521.4 166.31 503.78C167.88 502.9 167.16 500.61 166.95 499.21C166.18 493.84 165.26 488.6 164.58 483.18C164.38 481.6 164.95 479.9 162.81 479.26C162.75 478.1 162.85 476.92 162.81 475.76C162.6 469.99 163.02 463.12 162.81 456.89C162.75 455.21 163.7 453.38 161.06 453.86C161.04 452.11 161.04 450.35 161.06 448.6C163.68 448.86 162.32 448.34 162.47 446.79C163.21 439.55 162.57 431.78 162.81 424.95C164.54 374.95 187.77 336.49 228.5 308.46L228.49 308.47Z" fill="#4FBEA9"/>
<path d="M493 135.04C494.81 135.26 496.43 134.93 497.38 135.04C496.87 137.84 498.78 136.49 500.39 136.81C506.78 138.06 513.69 139.82 520.15 140.3C520.43 140.32 520.74 140.31 521.03 140.3L523.66 141.18C531.97 143.95 542.54 145.21 551.69 148.19C551.53 150.79 553.15 150.3 554.64 150.94C559.41 152.97 564.52 155.03 569.21 156.95C567.08 156.48 566.7 159.08 566.19 160.48C561.1 174.46 557.56 189.08 552.54 202.9C526.84 208.93 500.83 213.97 476.07 223.33L425.15 169.21L441.34 131.54C458.8 131.58 475.74 132.98 493.02 135.04H493Z" fill="#2C9F8D"/>
<path d="M578.84 161.32C597.32 169.17 616.28 176.96 633.14 186.72C666.36 205.95 711.16 244.73 732.99 276.06C741.18 287.81 748.33 300.11 756.07 312.1C756.91 313.4 757.4 314.67 759.26 314.6C759.38 314.83 759.14 315.25 759.26 315.48C762.78 322 766.42 331.56 770.03 337.1C770.38 337.63 772.68 339.15 773.27 340C776.21 345.53 779.16 351.08 782.03 356.64L792.54 383.79C788.47 387.02 784.14 389.33 779.4 391.67L773.67 393.41L772.4 391.68C772.34 395.4 751.51 402.01 750.58 401.2C750.14 400.81 751.11 399.16 749.63 399.56C749.61 401.48 748.46 402.25 746.57 402.19L748.74 403.06C742.71 404.45 738.06 407.05 734.55 400.17C726.16 362.56 715.23 326.18 698.97 291.23C696.56 286.06 689.38 275.53 688.49 271.03C687.06 263.85 702.5 243.79 700.45 240.29L689.2 232.26C686.29 238.39 678.35 258.27 672.78 260.96C668.38 263.09 649.52 262.49 643.21 262.92C638.66 263.23 633.28 264.42 628.75 264.66C629.26 261.53 626.63 263 625.25 264.66C624.67 264.68 624.08 264.64 623.5 264.66C621.16 263.2 615.5 263.17 612.99 264.66C609.89 263.45 597.04 244.73 593.7 240.6C585.59 230.61 574.6 219.61 568.32 208.61C564.97 203 571.47 198.73 569.2 193.72C572.17 182.88 577.28 172.42 578.83 161.31L578.84 161.32Z" fill="#2C9F8D"/>
<path d="M633.14 472.26C633.91 472.41 638.64 472.16 637.96 470.5C638.52 470.45 637.84 473.23 641.37 472.29C642.34 472.03 641.33 470.14 642.77 470.52C642.82 471.39 642.74 472.27 642.77 473.14C643.55 489.14 652.64 503.16 661.68 515.98C664.32 519.73 678.22 535.49 678.68 537.96C679.47 542.24 680.02 553.4 679.6 557.71C678.08 573.23 660.3 568.79 650.63 563.82C634.68 555.61 621.47 540.09 611.23 525.7L597.82 500.96L595.46 498.54C593.45 493.15 591.75 487.66 591.08 481.9C600.89 479.99 609.34 479.56 619.79 478.64C624.96 478.19 632.76 480.19 633.12 472.27L633.14 472.26Z" fill="#4FBEA9"/>
<path d="M429.94 131.54C428.85 132.41 427.9 133.2 427.12 134.41C420.99 144.02 415.94 156.23 410.43 166.34C390.09 175.66 371.13 187.75 351.12 197.68C348.77 198.85 341.44 202.98 339.42 202.4C334.02 193.68 330.13 183.67 325.29 174.44C322.96 169.99 318.69 164.87 316.95 160.44C316.9 160.31 316.92 158.5 316.46 157.8C327.56 151.42 339.95 147.28 351.99 142.92C358.72 140.48 360.35 140.02 366.35 139.48C366.63 139.45 366.4 138.77 370.78 138.59C371.33 138.57 371.21 136.84 371.63 136.85C372.43 136.89 373.56 137.95 375.07 137.69C375.32 137.65 375.78 136.63 379.14 135.9C380.03 137.63 382.19 136.51 383.52 136.35C399.51 134.37 413.53 131.96 429.95 131.52L429.94 131.54Z" fill="#2C9F8D"/>
<path d="M304.69 163.95C305.07 163.76 306.04 164.14 306.44 163.95C305.97 165.92 306.92 166.92 307.63 168.44C311.4 176.45 316.87 183.91 320.6 192.26C329.44 212.02 331.83 232.3 334.52 253.6L289.32 268.85C286.43 268.45 285 251.12 284.53 248.03C286.41 241.2 283.95 232.05 282.49 225.1C282.37 224.55 281.9 221.29 281.02 223.51C279.77 217.9 277.67 211.88 275.78 206.41C274.69 203.26 269.77 194.27 270.51 191.97C270.87 190.85 281.44 180.44 283.24 178.86C289.09 173.73 297.74 167.41 304.67 163.94L304.69 163.95Z" fill="#2C9F8D"/>
<path d="M755.77 458.24C750.35 459.67 745.75 461.51 740 462.62C724.12 465.68 703.65 470 687.88 471.37C681.67 471.91 674.45 472 668.37 471.2C667.08 470.26 665.66 454.54 665.52 451.71C665.33 447.89 665.06 426.87 666.34 425.31C667.47 423.93 671.15 423.7 673.03 423.46C682.32 422.26 693.86 423.14 703.65 422.33C714.51 421.43 726.28 418.62 736.96 417.96C738.27 417.88 739.97 417.68 741.18 418.1C743.2 418.8 754.71 453.4 755.77 458.25V458.24Z" fill="#2C9F8D"/>
<path d="M66.45 210.37C74.67 208.18 83.78 210.22 92.03 211.5C96.96 212.26 131.55 219.76 132.89 221.87C133.53 222.88 133.15 226.54 131.63 226.91L89.5499 217.49C85.0699 217.13 80.55 217.58 76.08 217.38C69.42 217.09 68.07 217.62 66.45 210.37Z" fill="#2C9F8D"/>
<path d="M343.23 426.71C343.32 427.26 343.12 427.93 343.23 428.46C343.31 428.87 343.69 429.22 344.11 429.34C344.21 429.86 344.04 430.52 344.11 431.09L324.87 393.83L324.85 391.68C326.34 391.6 327.82 391.58 329.27 392.07C336.62 394.56 342.09 419.3 343.24 426.71H343.23Z" fill="#45B68B"/>
<path d="M493 135.04C475.72 132.98 458.78 131.58 441.32 131.54C437.54 131.54 433.71 131.44 429.93 131.54C413.52 131.98 399.5 134.39 383.5 136.37C382.18 136.53 380.01 137.65 379.12 135.92C406.74 129.92 439.92 128.37 467.91 130.78C475.91 131.47 485.57 132.45 492.98 135.04H493Z" fill="#1C8263"/>
<path d="M633.14 186.72C616.28 176.96 597.31 169.17 578.84 161.32C575.87 160.06 572.5 158.29 569.21 156.94C564.52 155.02 559.41 152.96 554.64 150.93C553.15 150.3 551.53 150.78 551.69 148.18C579.79 157.32 607.94 171.47 633.15 186.72H633.14Z" fill="#1C8263"/>
<path d="M351.99 142.93C339.96 147.28 327.57 151.43 316.46 157.81C316.92 158.51 316.9 160.33 316.95 160.45C313.33 158.18 309.52 162.53 306.44 163.95C306.04 164.14 305.06 163.76 304.69 163.95C305.25 162.53 306.35 161.9 307.58 161.15C320.12 153.56 334.28 147.46 348.29 143.13C349.55 142.74 350.78 141.68 351.99 142.93Z" fill="#1C8263"/>
<path d="M166.3 503.79C164.7 495.67 163.21 487.58 162.8 479.27C164.94 479.91 164.37 481.61 164.57 483.19C165.26 488.61 166.17 493.85 166.94 499.22C167.14 500.62 167.87 502.91 166.3 503.79Z" fill="#1F9573"/>
<path d="M162.8 424.96C162.56 431.79 163.2 439.56 162.46 446.8C162.3 448.35 163.66 448.87 161.05 448.61C161.08 445.56 160.98 442.48 161.05 439.42L162.79 424.96H162.8Z" fill="#1F9573"/>
<path d="M520.15 140.3C513.68 139.83 506.78 138.06 500.39 136.81C498.78 136.5 496.88 137.84 497.38 135.04C503.64 135.79 510.1 137.1 516.25 138.51C517.71 138.84 519.28 138.77 520.15 140.3Z" fill="#1C8263"/>
<path d="M161.04 453.86C163.69 453.37 162.74 455.2 162.79 456.89C163 463.12 162.58 469.99 162.79 475.76C161.93 472.13 161.23 466.75 161.05 463.05C160.9 460 161.07 456.91 161.05 453.86H161.04Z" fill="#1F9573"/>
<path d="M595.48 498.53L597.84 500.95L611.25 525.69C605.15 517.11 599.2 508.48 595.48 498.54V498.53Z" fill="#1F9573"/>
<path d="M523.66 141.18L521.03 140.3C524.46 140.17 522.85 140.91 523.66 141.18Z" fill="#1C8263"/>
<path d="M344.1 429.34C343.69 429.22 343.31 428.88 343.22 428.46C343.63 428.58 344.01 428.92 344.1 429.34Z" fill="#7DCAB0"/>
<path d="M591.1 321.61L590.23 320.73C590.55 322.43 589.45 324.21 589.4 325.69C589.33 327.44 590.24 328.46 590.22 328.61C590.18 329.19 590.27 329.79 590.22 330.36C589.73 330.42 588.62 330.19 588.49 330.36C588.2 330.76 586.94 339.37 588.47 339.99C587.06 350.13 585.29 360.63 583.21 370.65C580.47 368.87 581.91 370.24 581.45 371.95C580.47 375.61 576.28 397.71 575.24 398.6C574.36 399.36 570.25 397.62 569.19 399.56C553.1 397.24 537.32 392.07 521.89 387.3L522.76 386.43C519.75 386.41 515.41 383.18 513.13 384.67C489.56 376.84 466.28 367.66 444.75 355.2C445.84 346.32 448.01 337.77 450.14 329.12C455.2 308.49 461.67 285.84 468.03 265.55C469.65 260.37 475.9 240.64 479.22 237.77C481.16 236.1 499.34 231.06 503.31 229.89C520.34 224.85 537.82 220.31 555.22 216.99C563.86 227.5 573.13 237.71 581.43 248.5C584.5 252.49 597.59 269.22 598.57 272.52C599.71 276.34 598.48 282.74 597.97 286.89C596.52 298.56 592.7 310.09 591.09 321.61H591.1Z" fill="#2C9F8D"/>
<path d="M676.06 274.31C677.46 275.24 681.81 284.79 682.94 287.13C701.02 324.37 713.5 364.43 720.73 405.24C720.48 407.87 717.15 408.78 714.96 409.12C683.08 414.02 630.4 412.33 598.95 405.28C596.84 404.81 591.06 403.62 590.37 401.61L614.74 279.33C615.33 278.15 616.75 278.12 617.88 277.91C625.3 276.5 635.07 275.91 642.77 275.18C643.65 276.58 646.15 276.19 647.57 276.06C653.12 275.53 659.62 274.52 665.11 274.32C668.84 274.18 672.68 275.17 676.05 274.31H676.06Z" fill="#2C9F8D"/>
<path d="M432.06 196.87C440.94 206.1 452.84 217.62 460.57 227.48C461.35 228.48 463.67 231.21 463.91 232.02C465.85 238.7 460.79 246.51 458.83 252.84C449.96 281.51 444.17 312.86 434.57 340.69C433.94 342.5 432.63 346.98 430.42 347.02C429.6 347.04 421.62 342.47 420.05 341.58C383.93 321.11 349.68 282.05 344.22 239.6C343.69 235.47 342.32 222.17 343.69 219.14C344.53 217.28 374.18 200.35 378.56 197.96C385.69 194.06 405.59 182.53 412.42 181.82C419.74 181.06 427.36 191.98 432.07 196.87H432.06Z" fill="#2C9F8D"/>
<path d="M379.76 332.31C381.67 331.87 384.31 331.8 386.13 332.58C394.68 339.53 403.67 346.28 413.02 352.1C418.5 355.51 452.06 372.67 453.13 375.05C454.2 377.43 453.7 382.16 453.15 384.68C452.24 388.87 439.03 418.35 436.46 421.42C435.55 422.5 433.73 424.17 432.27 423.91C431.75 423.82 424.19 420.14 422.74 419.46C402.41 409.98 380.24 396.21 362.58 382.4C360.57 380.82 350.33 372.77 349.76 371.51C349.09 370.02 349.47 369.62 350.02 368.3C352.15 363.17 370.6 340.14 375.17 335.61C376.52 334.27 377.77 332.77 379.75 332.31H379.76Z" fill="#2C9F8D"/>
<path d="M523.66 401.31C520.6 403.52 522.2 402.2 524.09 402.65C529.54 403.97 535 405.68 540.45 406.86C541.73 407.14 543.83 408.22 544.68 406.56C547.62 407.43 555.41 408.83 556.07 412.25L548.97 458.15C546.62 460.15 519.52 453.86 514.71 452.73C498.59 448.93 483.93 443.71 468.47 438.1L458.81 433.27C457.76 432.6 456.24 433.08 455.33 432.84C451.54 431.87 448.91 430.34 449.54 425.81C455.18 414.1 458.82 399.02 465.07 387.83C466.11 385.98 467.5 383.45 469.6 382.67C472.02 381.78 490.98 390.21 495.17 391.68C504.56 394.97 514.16 398.4 523.65 401.3L523.66 401.31Z" fill="#2C9F8D"/>
<path d="M628.76 420.58C627.71 423.42 634.87 422.82 636.64 421.46C637.21 421.57 637.89 422.25 638.39 422.34C642.18 423.02 646.15 423.65 649.86 424.65C652.7 428.63 648.13 441.73 652.4 445.99C652.4 446.28 652.4 446.57 652.4 446.87C650.39 454.3 652.06 462.83 651.52 470.52C650.12 471.92 644.9 472.06 642.76 473.15C642.72 472.28 642.8 471.39 642.76 470.53C641.32 470.15 642.33 472.04 641.36 472.3C637.83 473.24 638.51 470.46 637.95 470.51C638.63 472.17 633.9 472.42 633.13 472.27C613.79 468.51 593.27 467.28 573.57 463.51C575.83 462.58 572.49 462.32 571.82 462.2C570.5 461.97 564.32 461.13 564.03 460.79C563.68 460.38 563.87 451.6 563.98 449.98C564.2 446.63 565.07 445.17 564.87 440.4C564.81 439.09 566.83 437.31 563.94 438.98C564.42 434.99 566.67 414.76 569.75 413.7C573.34 412.47 595.58 417.1 601.29 417.83C610.25 418.98 619.76 420.01 628.76 420.58ZM567.89 446.86V447.74C568.46 447.45 568.46 447.16 567.89 446.86Z" fill="#2C9F8D"/>
<path d="M338.71 269.2C346.61 286.15 356.11 302.25 367.27 317.26C369.73 324.4 360.95 334.38 356.71 339.91C354.3 343.05 340.74 359.7 337.66 359.18C322.1 343.01 307.33 324.66 298.4 303.81C297.21 301.03 292.32 288.29 292.45 286.19C292.76 281.12 296.93 280.19 300.73 278.67C305.99 276.56 335.28 267.01 338.71 269.19V269.2Z" fill="#2C9F8D"/>
<path d="M131.88 156.25C149.88 152.13 152.6 180.61 135.09 182.3C120.1 183.75 120.01 158.97 131.88 156.25Z" fill="#2C9F8D"/>
<path d="M297.46 442.73C297.73 442.84 301.1 446.56 301.38 447.1C304.73 453.72 302.99 466.09 293.25 461.35C282.97 456.35 286.01 437.88 297.46 442.72V442.73Z" fill="#45B68B"/>
<path d="M259.45 433.41C252.8 426.37 258.29 412.66 268.7 418.46C277.7 423.48 269.74 444.3 259.45 433.41Z" fill="#45B68B"/>
<path d="M283.88 496.12C285 494.82 290.12 494.71 291.81 495.21C297.67 496.95 303.92 516.88 290.44 514.09C283.77 512.71 280.19 500.38 283.88 496.12Z" fill="#45B68B"/>
<path d="M302.66 405.97C312.04 412.93 302.29 430.93 292.42 419.27C285.13 410.66 293.93 399.49 302.66 405.97Z" fill="#45B68B"/>
<path d="M270.32 479.94C266.98 483.3 259.71 479.48 258.05 475.54C254.55 467.23 258.33 455.01 267.93 464.78C271.06 467.97 273.76 476.47 270.32 479.94Z" fill="#45B68B"/>
<path d="M287.81 370.93C292.33 372.39 291.34 384.33 284.77 386.26C274.51 389.27 271.1 365.54 287.81 370.93Z" fill="#45B68B"/>
<path d="M260.67 383.15C264.32 386.58 262.85 397 257.43 398.31C256.56 398.52 252.75 398.01 252.31 397.63C251.98 397.35 249.76 390.16 249.76 389.32C249.73 383.78 256.73 379.45 260.68 383.15H260.67Z" fill="#45B68B"/>
<path d="M563.95 438.97C566.84 437.3 564.82 439.08 564.88 440.39C565.09 445.16 564.21 446.61 563.99 449.97C563.88 451.59 563.69 460.37 564.04 460.78C564.33 461.12 570.51 461.96 571.83 462.19C572.5 462.31 575.84 462.56 573.58 463.5C571.03 463.01 563.52 463.75 562.34 460.3C561.38 457.5 563.46 443.07 563.95 438.98V438.97Z" fill="#1C8263"/>
<path d="M583.22 370.66C582.28 375.21 577.78 396.75 576.13 399.04C574.35 401.52 571.85 399.95 569.2 399.56C570.26 397.62 574.37 399.36 575.25 398.6C576.29 397.71 580.48 375.61 581.46 371.95C581.92 370.25 580.48 368.87 583.22 370.65V370.66Z" fill="#1C8263"/>
<path d="M642.78 422.33C645.14 422.35 650.44 421.83 651.39 424.66C652.24 427.18 652.29 442.14 652.41 445.97C648.14 441.71 652.71 428.61 649.87 424.63C646.16 423.63 642.19 423 638.4 422.32H639.28C640.45 422.32 641.62 422.32 642.78 422.32V422.33Z" fill="#1C8263"/>
<path d="M676.06 274.31C672.68 275.17 668.85 274.18 665.12 274.32C659.63 274.52 653.13 275.53 647.58 276.06C646.16 276.2 643.66 276.58 642.78 275.18C648.95 274.6 672.07 271.65 676.06 274.3V274.31Z" fill="#1C8263"/>
<path d="M284.54 248.03C283.31 239.92 282.83 231.52 281.04 223.51C281.91 221.29 282.39 224.55 282.51 225.1C283.96 232.05 286.43 241.21 284.55 248.03H284.54Z" fill="#1C8263"/>
<path d="M651.54 470.51C652.08 462.82 650.41 454.29 652.42 446.86C652.51 450.77 653.42 468.64 651.54 470.51Z" fill="#1C8263"/>
<path d="M544.68 406.57C543.83 408.23 541.73 407.15 540.45 406.87C535 405.69 529.54 403.98 524.09 402.66C522.19 402.2 520.6 403.52 523.66 401.32C530.49 403.4 537.82 404.53 544.68 406.58V406.57Z" fill="#1C8263"/>
<path d="M455.34 432.84C456.25 433.07 457.76 432.59 458.82 433.27L468.48 438.1C464.18 436.54 458.9 436.02 455.34 432.84Z" fill="#1C8263"/>
<path d="M590.22 330.37C589.97 333.13 588.89 336.99 588.47 340C586.95 339.38 588.21 330.78 588.49 330.37C588.62 330.19 589.73 330.42 590.22 330.37Z" fill="#1C8263"/>
<path d="M568.33 208.62C568.22 208.43 567.07 208.27 566.75 207.17C565.68 203.59 568.19 197.44 569.21 193.73C571.48 198.74 564.99 203.01 568.33 208.62Z" fill="#1C8263"/>
<path d="M623.51 264.67C620.98 264.74 614.97 265.44 613 264.67C615.51 263.18 621.17 263.21 623.51 264.67Z" fill="#1C8263"/>
<path d="M591.1 321.61C590.79 323.81 591.32 326.35 590.22 328.62C590.23 328.47 589.33 327.44 589.4 325.7C589.46 324.22 590.55 322.44 590.23 320.74L591.1 321.62V321.61Z" fill="#1C8263"/>
<path d="M631.39 421.46C633.04 421.59 635.17 421.18 636.65 421.46C634.88 422.83 627.72 423.42 628.77 420.58C629.06 420.6 629.36 420.55 629.65 420.58C629.88 421.43 630.66 421.4 631.4 421.46H631.39Z" fill="#1C8263"/>
<path d="M513.15 384.67C515.43 383.19 519.77 386.41 522.78 386.43L521.91 387.3C519 386.4 516.05 385.64 513.15 384.67Z" fill="#1C8263"/>
<path d="M625.26 264.67C626.64 263.01 629.27 261.54 628.76 264.67C627.6 264.73 626.42 264.63 625.26 264.67Z" fill="#1C8263"/>
<path d="M642.78 422.33C641.61 422.33 640.44 422.33 639.28 422.33C639.64 420.97 642.5 421.02 642.78 422.33Z" fill="#1F9573"/>
<path d="M631.39 421.46C630.65 421.4 629.87 421.44 629.64 420.58C630.39 420.65 631.12 420.6 631.39 421.46Z" fill="#1F9573"/>
<path d="M567.89 446.86C568.46 447.15 568.46 447.44 567.89 447.74V446.86Z" fill="#1C8263"/>
</g>
</g>
<defs>
<clipPath id="clip0_504_11281">
<rect width="669" height="516" fill="white"/>
</clipPath>
<clipPath id="clip1_504_11281">
<rect width="763.59" height="512" fill="white" transform="translate(66 123)"/>
</clipPath>
</defs>
</svg>
