<svg width="669" height="516" viewBox="0 0 669 516" fill="none" xmlns="http://www.w3.org/2000/svg">
<g clip-path="url(#clip0_504_11437)">
<rect width="669" height="516" fill="#D9D9D9" fill-opacity="0.6"/>
<g clip-path="url(#clip1_504_11437)">
<path d="M318.163 210.968C325.651 269.915 355.152 306.146 397.913 344.962C443.106 385.965 517.909 407.043 577.062 418.538C611.235 425.18 642.948 425.496 677.41 427.407C716.859 429.607 780.491 432.907 816.354 448.032C821.589 450.246 831.95 455.567 824.076 460.668C815.118 458.592 806.365 456.585 797.2 455.416C778.966 453.065 757.27 450.865 738.981 449.93C738.39 453.367 740.712 451.786 742.719 452.033C749.19 452.803 759.001 455.306 764.896 457.753C768.29 459.17 782.374 466.883 782.91 469.785C784.614 478.818 774.363 476.99 769.458 479.918C767.658 480.991 762.532 487.563 761.942 489.543C760.842 493.297 762.079 497.023 761.2 500.585C760.623 502.867 757.49 505.163 757.187 508.45C756.926 511.323 758.534 514.39 758.287 517.965C758.012 521.98 755.497 526.38 755.044 530.862C752.241 558.348 773.388 592.599 775.38 623.537H776.452C775.998 613.912 774.679 604.397 772.302 595.006C762.931 557.922 737.951 530.367 778.238 500.488C817.66 471.256 865.545 479.217 905.668 502.262C919.738 510.347 961.908 545.533 972.955 546.413C988.675 547.665 982.395 531.88 977.545 523.561C968.16 507.446 917.1 457.011 900.982 446.946C892.587 441.707 877.733 437.664 871.179 432.838C867.813 430.363 864.996 423.117 862.083 419.446C848.686 402.588 826.673 391.382 812.301 374.965C784.998 343.793 765.597 298.405 741.111 263.507C735.161 262.05 735.835 266.147 731.534 268.388C719.25 274.796 709.453 274.163 698.721 285.933C697.498 287.281 697.388 289.728 696.976 290.058C695.08 291.557 694.462 289.88 690.23 294.61C689.598 295.325 687.88 295.435 687.633 295.778C687.111 296.521 689.158 298.625 688.169 299.958C686.959 301.567 683.593 300.715 683.263 301.003C682.988 301.237 685.805 309.13 681.889 303.932C677.973 298.735 672.985 295.847 667.145 293.028C665.579 292.272 659.602 291.598 658.777 290.155C657.582 288.051 661.045 285.741 660.784 284.462C660.303 282.166 653.79 282.95 655.439 278.508C652.938 279.278 649.393 276.666 648.486 280.653C644.254 278.522 635.858 275.222 634.017 269.942C632.808 271.015 632.876 273.517 631.2 274.136C628.727 275.043 613.708 268.76 610.754 266.972C608.666 265.707 607.676 264.208 606.179 262.448C599.899 271.633 584.29 285.837 573.036 276.872C571.346 275.525 566.084 266.477 565.493 264.593C562.662 267.343 556.039 267.591 552.673 266.175C551.862 265.831 551.258 264.47 550.488 264.071C545.748 261.582 547.795 266.23 547.287 266.738C546.146 267.88 542.519 264.387 540.416 264.552C538.177 264.731 536.349 267.893 533.903 267.77C532.57 267.701 531.581 266.326 530.372 265.955C528.998 265.528 526.648 265.982 526.044 265.501C525.535 265.075 525.934 262.201 524.271 261.39C520.905 259.767 521.784 265.487 517.868 264.593C514.447 263.81 518.418 259.52 518.39 258.172C513.897 260.015 510.338 261.293 505.543 259.245C505.735 259.808 505.721 264.401 505.543 264.593C504.993 265.198 501.819 263.535 500.679 263.603C499.03 263.7 497.848 265.776 496.598 265.57C495.224 265.35 494.798 262.27 490.098 262.393C488.642 262.435 479.903 263.562 478.419 263.851C475.946 264.346 472.579 268.388 468.842 268.54C460.405 268.87 458.962 262.861 453.026 260.895C449.893 259.85 444.054 261.871 444.521 258.158C443.806 259.3 434.257 264.47 432.553 264.923C417.232 269.007 413.989 253.552 422.028 243.157C415.638 240.311 408.905 237.437 402.832 233.972C401.513 233.216 400.785 231.731 399.452 230.92C395.742 228.678 386.439 227.111 387.759 220.662C379.817 224.54 375.461 225.915 368.481 219.59H365.279C364.812 218.283 366.323 217.568 366.351 217.445C366.516 216.455 366.145 215.135 366.351 214.227C360.222 210.831 351.868 212.673 345.699 210.776C343.555 210.116 342.374 207.008 338.952 206.72C338.348 206.665 330.021 206.967 329.554 207.05C326.242 207.655 321.969 210.79 318.163 211.01V210.968ZM471.631 279.87C472.263 279.1 479.339 273.421 480.315 273.036C484.877 271.235 495.265 271.4 497.504 276.363C505.076 293.125 483.269 319.277 466.602 309.418C461.422 306.352 462.315 300.055 463.744 295.022C464.445 292.575 470.078 281.753 471.631 279.87ZM535.909 323.113C526.566 313.763 540.65 296.603 549.787 292.19C559.873 287.322 571.992 293.537 566.358 305.555C565.383 307.631 556.177 319.525 554.28 321.326C548.661 326.661 542.148 329.356 535.909 323.113ZM682.837 313.392C686.437 306.297 699.683 298.322 707.694 298.047C715.1 297.786 724.966 303.341 720.157 311.605C717.697 315.853 698.089 329.315 693.39 329.892C684.788 330.937 680.089 323.32 681.106 315.4C681.339 313.598 682.631 313.846 682.851 313.406L682.837 313.392ZM629.441 304.523C643.429 315.372 614.67 343.835 602.469 343.862C593.125 343.876 589.91 336.19 591.957 327.953C593.853 320.363 608.405 303.382 616.443 302.117C619.754 301.595 626.817 302.488 629.428 304.523H629.441ZM729.981 378.608C720.445 371.238 719.195 364.295 726.326 354.216C733.457 344.137 752.172 330.786 759.757 347.176C764.305 356.993 757.888 362.892 750.784 369.038C747.061 372.256 735.711 380.753 731.122 380.313C730.366 380.245 730.407 378.925 729.995 378.608H729.981ZM672.862 345.155C686.259 347.231 680.982 360.115 676.022 368.158C671.529 375.446 662.515 384.081 653.391 379.681C640.461 373.438 658.2 342.886 672.875 345.155H672.862ZM877.912 451.8C874.092 455.718 855.391 458.963 852.025 454.165C845.883 445.406 860.173 438.104 867.95 439.287C872.622 439.988 882.927 446.671 877.912 451.813V451.8Z" fill="#4BC1B7"/>
<path d="M248.567 115.598C256.729 127.423 265.193 138.313 270.497 152.05C275.526 165.057 280.528 187.965 273.19 200.257C270.263 205.152 263.242 212.646 258.199 215.258C258.048 218.503 258.886 217.513 260.92 216.372C267.996 212.453 271.665 201.027 279.607 206.678C279.758 206.197 280.363 205.482 280.679 204.533L283.138 192.53C285.694 188.157 289.322 179.866 294.543 178.23C300.479 176.36 302.128 180.636 305.316 174.531C309.369 166.776 310.523 146.151 315.223 141.6C318.012 138.905 323.728 140.706 323.343 145.01L316.019 172.922V203.997C316.019 205.303 317.984 209.593 318.163 210.968C321.969 210.748 326.242 207.613 329.554 207.008C330.021 206.926 338.348 206.623 338.952 206.678C342.374 206.967 343.556 210.075 345.699 210.735C351.869 212.632 360.223 210.79 366.351 214.186C368.756 203.97 378.951 197.053 388.267 204.575C393.819 209.057 393.296 211.051 390.974 217.403C393.997 216.207 398.394 216.977 400.922 216.358C402.159 216.056 402.077 213.54 403.341 213.251C404.344 213.017 406.171 214.31 407.573 214.2C410.321 213.98 413.261 212.302 415.996 213.278C417.136 213.691 419.527 217.885 423.745 218.462C426.246 218.806 427.964 217.678 430.066 217.61C433.611 217.5 436.016 218.957 440.234 216.331C438.668 213.718 437.706 205.221 438.338 202.1C440.248 192.695 459.265 171.891 468.361 168.921C479.834 165.181 496.103 169.787 491.074 184.156C486.87 196.16 471.164 210.638 460.584 217.39C462.013 219.15 465.297 229.38 465.888 229.82C467.152 230.768 469.529 229.297 471.357 229.641C474.283 230.191 476.853 232.473 479.56 233.23C481.689 233.835 486.691 232.625 487.241 235.155C487.433 236.062 486.169 237.932 486.251 239.362C486.499 243.79 494.757 243.253 498.068 243.102C497.587 240.668 496.818 238.922 496.969 236.186C497.656 222.972 518.885 201.632 531.801 200.23C542.12 199.116 557.455 204.025 555.669 216.565C553.484 231.813 539.881 241.59 529.136 250.596C531.801 251.627 528.6 251.778 526.992 252.741C525.728 253.497 524.436 254.515 523.777 254.886C522.884 255.395 522.362 255.587 521.633 255.958C520.438 256.563 518.995 257.87 518.418 258.103C518.432 259.451 514.474 263.741 517.896 264.525C521.826 265.432 520.946 259.698 524.299 261.321C525.975 262.132 525.563 265.006 526.071 265.432C526.676 265.927 529.026 265.46 530.4 265.886C531.623 266.271 532.612 267.646 533.931 267.701C536.377 267.825 538.191 264.662 540.444 264.483C542.546 264.318 546.188 267.811 547.314 266.67C547.823 266.161 545.775 261.513 550.516 264.002C551.285 264.401 551.876 265.762 552.701 266.106C556.067 267.522 562.69 267.275 565.521 264.525C565.205 263.507 565.534 260.62 565.521 259.162C565.521 258.406 564.147 259.478 565.521 257.017C573.449 242.772 592.287 215.451 610.521 231.8C618.683 239.101 611.469 254.68 606.206 262.366C607.718 264.126 608.693 265.625 610.782 266.89C613.736 268.677 628.741 274.961 631.228 274.053C632.904 273.435 632.836 270.932 634.045 269.86C633.811 269.186 634.141 267.632 634.045 266.642C629.813 267.068 632.932 265.006 632.973 264.497C633.77 253.483 639.857 241.315 650.451 236.461C658.379 232.831 672.395 237.038 679.031 242.511C688.773 250.541 681.807 252.493 682.219 260.221C682.48 265.143 685.929 265.35 686.259 267.302C686.589 269.255 684.019 273.627 687.564 275.786C689.199 276.79 702.198 274.287 704.438 273.338C705.949 272.706 707.131 270.905 708.615 270.025C712.119 267.948 714.853 268.237 717.038 263.438C718.975 262.957 720.184 266.945 722.218 266.573C722.63 266.491 728.635 261.692 728.813 261.307C730.366 258.062 727.357 255.23 733.609 254.872C733.554 254.528 733.678 254.143 733.609 253.8C733.54 253.456 733.691 253.057 733.609 252.727C730.188 253.373 731.96 251.283 731.465 250.582C731.191 250.183 730.668 249.895 730.394 249.51C729.377 248.066 728.209 246.718 727.178 245.22C695.369 198.717 636.106 148.461 581.556 132.703C564.284 130.352 547.136 126.145 529.617 125.21C470.546 122.075 415.378 143.25 358.835 138.052C350.288 137.268 345.754 136.952 337.414 132.69C309.067 118.211 285.309 91.9759 258.941 73.5234C248.333 66.0984 223.326 49.1034 211.33 47.2334C202.797 45.8996 193.907 49.0484 198.675 58.8109C201.258 64.1046 217.733 75.1321 223.367 81.2371C232.724 91.3571 240.68 104.2 248.512 115.543L248.567 115.598ZM572.226 159.791C578.258 160.822 591.215 168.66 592.232 175.136C594.321 188.432 571.718 201.687 559.846 198.951C554.047 197.617 550.172 192.708 549.403 186.906C547.273 170.97 554.102 156.67 572.226 159.791ZM420.97 197.04C422.042 201.687 418.497 199.858 415.089 201.343L414.539 198.112C413.152 198.318 410.733 199.171 410.252 199.185C410.843 203.172 407.504 205.221 404.811 201.921C403.616 200.45 404.138 198.662 403.835 198.112C402.832 196.338 401.074 195.445 400.648 193.272C398.628 183.042 409.167 177.721 418.043 179.096C431.481 181.186 434.738 191.966 420.97 197.053V197.04Z" fill="#3FBFB6"/>
<path d="M265.701 397.419C260.933 401.805 256.495 408.941 250.408 411.581C246.657 413.204 246.561 412.888 245.365 409.203C244.142 410.371 238.825 411.774 237.863 414.565C241.807 417.686 244.774 421.055 247.495 425.276C250.339 425.029 250.106 427.105 251.068 428.659C258.309 440.456 257.553 454.495 252.194 466.939C251.562 468.396 249.762 472.989 247.495 472.425C247.358 472.714 247.632 473.209 247.495 473.498L246.423 475.643C230.086 506.264 198.386 531.206 168.968 548.696C161.493 553.138 140.964 561.663 137.145 568.276C133.325 574.89 140.511 579.895 146.543 580.431C161.672 581.779 208.115 563.051 222.886 555.503C255.616 538.769 283.921 509.165 316.019 491.73C336.974 480.345 378.58 482.298 399.548 492.803C461.752 523.988 419.032 601.455 384.186 637.081C377.866 643.544 358.423 657.583 355.386 664.513C352.528 671.016 356.334 679.651 364.592 679.156C405.292 676.681 450.388 615.246 470.024 583.14C491.143 548.6 493.218 527.576 541.969 531.371L546.256 532.444C548.812 532.801 552.467 532.911 554.817 533.516C558.939 528.91 552.494 530.973 551.684 530.175C551.313 529.804 551.945 527.796 551.464 527.301C550.942 526.751 548.565 527.123 547.342 526.573C543.302 524.758 539.235 522.035 535.223 520.454C531.21 518.873 520.135 517.91 518.61 513.496C516.522 507.405 523.914 511.846 520.561 507.804C518.39 508.491 516.948 509.316 515.202 509.949C517.951 511.228 512.372 511.461 511.218 512.396C507.123 515.751 503.949 519.794 498.439 522.64C490.95 526.504 487.405 528.773 480.48 522.736C478.021 520.591 475.822 515.559 472.098 513.978C467.564 512.053 462.659 514.596 458.468 511.544C455.431 509.33 452.023 498.591 449.138 494.15C443.353 485.268 433.68 478.998 423.649 475.643C422.454 475.244 419.005 476.44 422.041 473.511C406.625 469.565 391.524 470.156 377.302 466.306C367.56 463.666 364.469 458.895 356.719 454.22C351.429 456.063 342.965 453.876 337.441 452.625C323.906 449.559 289.596 435.204 278.274 427.476C277.587 427.009 269.411 419.295 275.347 419.941C272.407 417.906 268.037 413.286 266.581 409.959C263.654 403.263 265.536 403.029 265.701 397.446V397.419Z" fill="#40BFB6"/>
<path d="M668.314 446.712C668.822 448.225 670.444 447.592 671.529 447.785C682.81 449.806 700.549 464.876 710.758 471.215C714.345 473.442 717.45 471.531 719.786 477.182C720.198 478.172 721.929 485.24 721.875 485.735C721.765 486.752 719.8 486.243 719.717 486.367C719.539 486.628 720.143 488.333 719.429 489.241C712.696 497.711 686.644 490.973 676.009 493.531C668.025 495.456 660.523 506.085 653.323 509.935C651.798 519.243 642.688 524.84 637.92 532.553C635.776 536.032 631.462 548.655 628.452 549.933C622.379 552.505 614.629 547.046 612.898 541.285C612.362 539.511 610.342 527.328 610.493 526.008C609.243 526.008 607.8 528.002 607.278 528.153L605.698 529.226L605.135 528.153C604.544 528.291 603.692 528.098 602.991 528.153C602.785 528.167 601.988 529.432 600.435 529.267C597.838 528.978 595.599 525.115 592.287 526.008C591.916 531.123 594.417 534.657 588 533.502V551.185C588 551.336 589.608 552.326 589.938 553.563C590.309 554.938 589.141 556.437 589.841 558.885C590.844 562.35 594.609 564.44 596.038 567.795C598.017 572.428 598.209 582.521 597.591 587.567C595.764 602.348 594.266 617.515 592.26 632.612C591.944 635.018 593.318 636.283 590.144 634.235C590.089 634.936 590.212 635.678 590.144 636.38C588.138 657.871 584.95 667.386 573.009 684.601C564.353 697.058 554.885 710.465 546.861 723.266C544.017 727.803 537.476 736.672 537.875 741.608C539.07 756.431 550.956 750.642 558.98 745.046C598.896 717.243 619.095 684.202 630.294 637.452C636.71 610.681 639.294 564.577 658.668 545.3C669.056 534.96 690.161 528.937 703.888 535.95C717.615 542.962 721.297 564.082 726.134 577.447C726.244 577.763 726.024 578.203 726.134 578.52C730.82 586.261 735.45 596.656 738.404 605.346C744.876 624.417 745.714 644.671 744.327 664.76C743.653 674.522 739.078 686.086 738.899 694.776C738.775 700.688 742.389 706.216 748.6 703.342C749.63 702.861 754.976 697.168 756.089 695.821C767.768 681.796 774.309 659.81 775.38 641.728C775.71 636.215 775.738 629.01 775.38 623.51C773.388 592.572 752.241 558.321 755.044 530.835C755.498 526.366 758.012 521.952 758.287 517.937C758.534 514.362 756.927 511.296 757.188 508.422C757.49 505.136 760.623 502.84 761.2 500.557C762.093 497.01 760.843 493.283 761.942 489.516C762.519 487.536 767.658 480.963 769.458 479.891C774.35 476.962 784.6 478.791 782.91 469.757C782.36 466.856 768.29 459.142 764.896 457.726C759.002 455.278 749.191 452.776 742.719 452.006C740.699 451.772 738.377 453.34 738.982 449.902C738.267 449.861 737.553 449.902 736.838 449.902C734.653 452.776 731.122 450.246 729.336 449.902C725.296 449.118 716.749 447.757 712.737 447.757H690.244C684.102 447.757 675.047 446.987 668.286 446.685L668.314 446.712Z" fill="#40BFB6"/>
<path d="M237.863 414.565C238.825 411.774 244.143 410.371 245.365 409.202C252.071 402.809 262.5 384.7 262.5 375.446V359.372C262.5 358.176 259.546 354.092 262.5 352.401C257.114 341.236 247.853 331.336 248.581 318.109C245.956 322.756 242.741 325.589 237.259 326.606C229.454 328.064 234.043 323.567 231.185 320.501C229.165 318.329 224.439 320.762 223.958 320.254C225.167 314.547 222.666 311.742 220.742 307.397C229.935 347.025 189.524 356.031 159.212 357.805C114.335 360.431 73.6222 355.137 29.5975 351.342C23.2356 350.792 7.44766 348.592 2.80335 352.374C-7.91429 361.091 16.1729 369.355 21.9164 371.885C68.1122 392.152 117.757 398.065 167.745 401.695C190.788 403.359 218.42 399.165 237.877 414.565H237.863Z" fill="#4BC1B7"/>
<path d="M199.307 277.409C202.838 278.812 202.962 274.508 204.171 274.219C205.573 273.889 208.651 276.832 210.506 277.464C213.157 278.372 224.48 280.97 226.403 280.475C229.399 279.705 229.165 274.797 235.706 279.568C217.376 252.04 243.359 249.263 261.057 239.033C269.631 234.069 273.602 230.247 276.914 220.608C278.302 216.538 278.508 210.02 279.621 206.707C271.679 201.055 267.996 212.468 260.933 216.4C258.886 217.528 258.062 218.518 258.213 215.287C230.924 229.408 197.26 219.838 170.754 209.044C127.018 191.238 84.587 166.997 40.3287 150.964C32.5378 148.145 12.7101 140.652 5.45512 142.893C1.20929 144.213 -0.59075 148.228 0.192462 152.532C1.60774 160.259 20.1026 172.937 27.0141 177.158C67.8098 202.045 114.514 221.694 156.148 246.169C172.403 255.725 186.034 263.659 199.334 277.423L199.307 277.409Z" fill="#4BC1B7"/>
<path d="M520.548 507.79C523.901 511.833 516.508 507.391 518.597 513.483C520.108 517.896 531.004 518.79 535.209 520.44C539.414 522.09 543.288 524.744 547.328 526.559C548.551 527.109 550.928 526.738 551.45 527.288C551.931 527.783 551.285 529.79 551.67 530.161C552.481 530.973 558.939 528.896 554.803 533.503C574.713 538.659 585.431 556.245 589.828 575.069C595.022 597.33 592.026 612.276 590.144 634.221C593.304 636.27 591.93 635.005 592.26 632.599C594.266 617.501 595.764 602.335 597.591 587.554C598.21 582.508 598.017 572.415 596.038 567.781C594.609 564.44 590.845 562.336 589.841 558.871C589.141 556.438 590.309 554.939 589.938 553.55C589.608 552.299 588 551.323 588 551.171V533.489C594.417 534.644 591.916 531.11 592.287 525.995C595.585 525.088 597.838 528.965 600.435 529.254C601.988 529.419 602.785 528.154 602.991 528.14C581.886 515.655 548.482 499.87 523.639 506.113C522.169 506.484 521.249 507.556 520.548 507.79Z" fill="#4BC1B7"/>
<path d="M235.719 279.554C229.179 274.783 229.399 279.705 226.417 280.462C224.493 280.957 213.171 278.344 210.519 277.45C208.664 276.818 205.586 273.875 204.185 274.205C202.976 274.494 202.852 278.798 199.321 277.395C207.386 285.742 216.043 296.783 220.742 307.398C222.666 311.743 225.167 314.548 223.957 320.254C224.438 320.777 229.165 318.343 231.185 320.502C234.043 323.568 229.454 328.064 237.258 326.607C242.741 325.575 245.956 322.743 248.581 318.109C249.35 316.734 250.669 316.115 250.724 315.964C251.439 313.847 249.529 308.938 254.489 308.47C258.845 308.058 274.523 314.163 279.634 315.964C279.758 313.599 278.082 313.145 276.57 312.073C268.051 305.995 258.556 301.623 250.229 294.5C245.544 290.499 239.91 282.565 235.747 279.527L235.719 279.554Z" fill="#40BFB6"/>
<path d="M733.636 254.9C727.384 255.258 730.394 258.09 728.841 261.335C728.662 261.72 722.658 266.519 722.245 266.602C720.212 266.973 719.003 262.985 717.065 263.467C714.88 268.265 712.132 267.977 708.642 270.053C707.158 270.933 705.977 272.734 704.465 273.367C702.225 274.315 689.241 276.804 687.592 275.814C684.047 273.655 686.602 269.228 686.286 267.33C685.97 265.433 682.508 265.172 682.247 260.249C678.248 261.239 676.215 265.158 672.958 267.564C670.801 269.159 656.662 278.097 655.466 278.468C653.817 282.909 660.33 282.125 660.811 284.422C661.086 285.714 657.624 288.01 658.805 290.114C659.616 291.558 665.593 292.232 667.173 292.988C672.999 295.82 678.083 298.818 681.917 303.892C685.75 308.965 683.03 301.197 683.291 300.963C683.621 300.674 686.987 301.527 688.196 299.918C689.186 298.598 687.138 296.494 687.66 295.738C687.908 295.394 689.625 295.27 690.257 294.569C694.489 289.825 695.108 291.517 697.004 290.018C697.416 289.688 697.526 287.24 698.749 285.893C709.48 274.123 719.277 274.755 731.561 268.348C735.862 266.107 735.189 262.009 741.139 263.467C739.696 261.404 738.583 259.177 736.852 257.032L733.65 258.09C733.526 257.059 733.815 255.849 733.65 254.887L733.636 254.9Z" fill="#40BFB6"/>
<path d="M358.862 137.035V138.107C415.405 143.291 470.573 122.13 529.644 125.265C547.163 126.2 564.325 130.407 581.583 132.759C541.763 121.264 505.35 121.305 464.486 126.475C429.502 130.916 394.272 141.215 358.862 137.035Z" fill="#4BC1B7"/>
<path d="M316.033 491.716C343.803 482.875 371.93 484.044 399.562 492.789C378.594 482.284 336.987 480.331 316.033 491.716Z" fill="#4BC1B7"/>
<path d="M273.19 200.257C280.527 187.979 275.526 165.057 270.497 152.05C265.193 138.327 256.729 127.424 248.567 115.599C264.726 140.665 281.269 169.196 273.19 200.244V200.257Z" fill="#4BC1B7"/>
<path d="M247.495 425.276C258.652 442.519 256.083 454.976 247.495 472.425C249.762 472.989 251.562 468.41 252.194 466.939C257.567 454.495 258.322 440.47 251.067 428.659C250.106 427.091 250.339 425.015 247.495 425.276Z" fill="#4BC1B7"/>
<path d="M337.441 132.745C345.781 137.008 350.316 137.324 358.862 138.108V137.035L337.441 132.745Z" fill="#40BFB6"/>
<path d="M246.423 475.642L247.495 473.497C247.152 474.185 246.767 474.982 246.423 475.642Z" fill="#4BC1B7"/>
<path d="M318.163 210.969C317.984 209.608 316.019 205.304 316.019 203.998V172.923L323.343 145.01C323.728 140.707 318.012 138.905 315.222 141.6C310.523 146.152 309.355 166.763 305.315 174.532C304.903 183.18 302.498 191.582 302.1 200.244C299.792 251.092 331.78 306.82 370.13 338.445C377.316 344.372 388.047 350.092 394.203 356.142C395.591 357.503 398.009 359.153 397.405 361.49C396.209 363.264 395.824 362.824 394.176 362.687C386.728 362.068 369.443 355.165 361.789 352.14C333.909 341.182 308.448 326.139 279.62 315.95C274.509 314.149 258.831 308.044 254.475 308.457C249.501 308.924 251.411 313.833 250.71 315.95C284.471 321.327 311.444 341.759 341.742 355.042C363.259 364.474 386.426 369.039 407.037 377.564C410.142 378.843 412.753 380.947 407.586 381.318C397.858 382.019 387.374 380.864 377.549 381.277C359.824 382.019 342.593 385.099 325.115 386.667C318.795 387.244 283.014 388.193 280.953 390.145C275.196 395.632 287.727 397.942 290.874 398.437C315.373 402.273 339.337 393.404 363.685 392.043C375.488 391.383 390.411 391.452 402.269 391.988C415.625 392.593 432.855 393.83 445.071 398.464C446.307 399.935 440.151 400.389 439.574 400.485C414.127 404.239 400.084 407.594 376.835 419.144C372.397 421.344 363.575 424.369 365.43 429.91C367.821 437.074 378.992 427.477 382.386 425.785C404.467 414.758 447.159 406.412 471.315 411.843C492.613 416.628 515.656 425.937 537.435 431.395C583.136 442.877 621.541 444.623 668.3 446.699C675.046 447.002 684.115 447.772 690.257 447.772H712.751C716.763 447.772 725.309 449.133 729.349 449.917C731.85 449.917 734.351 449.917 736.851 449.917C737.566 449.917 738.28 449.875 738.995 449.917C757.297 450.865 778.994 453.052 797.214 455.403C806.365 456.585 815.131 458.593 824.09 460.655C831.964 455.554 821.603 450.233 816.368 448.019C780.519 432.894 716.873 429.594 677.424 427.394C642.962 425.469 611.249 425.167 577.076 418.525C517.923 407.03 443.119 385.952 397.927 344.949C355.166 306.147 325.665 269.902 318.176 210.955L318.163 210.969Z" fill="#08958F"/>
<path d="M440.234 216.331C436.016 218.957 433.611 217.5 430.066 217.61C427.95 217.678 426.232 218.792 423.745 218.462C419.527 217.885 417.136 213.677 415.996 213.278C413.261 212.302 410.321 213.98 407.573 214.2C406.171 214.31 404.357 213.031 403.341 213.251C402.077 213.54 402.159 216.056 400.922 216.358C398.38 216.991 393.983 216.221 390.974 217.403C388.996 218.187 388.13 220.442 387.759 220.621C386.453 227.083 395.742 228.651 399.452 230.878C400.785 231.676 401.513 233.175 402.832 233.931C408.892 237.41 415.638 240.283 422.028 243.116C425.985 242.277 426.81 238.537 431.193 237.822C437.019 236.873 445.854 239.142 446.72 245.742C447.036 248.121 445.675 256.247 444.521 258.117C444.054 261.83 449.894 259.822 453.027 260.853C458.962 262.82 460.405 268.815 468.842 268.498C472.579 268.361 475.946 264.305 478.419 263.81C479.903 263.521 488.628 262.393 490.099 262.352C494.798 262.228 495.224 265.308 496.598 265.528C497.862 265.735 499.03 263.658 500.679 263.562C501.833 263.493 504.993 265.157 505.543 264.552C505.722 264.36 505.735 259.767 505.543 259.203C504.141 254.886 499.621 251.187 498.041 243.13C494.729 243.267 486.471 243.817 486.224 239.39C486.141 237.96 487.419 236.09 487.213 235.182C486.663 232.652 481.662 233.862 479.532 233.257C476.811 232.501 474.256 230.218 471.329 229.668C469.501 229.325 467.124 230.796 465.86 229.847C465.269 229.407 461.985 219.177 460.556 217.417C459.677 217.981 457.959 218.503 456.269 219.562C456.695 223.797 454.607 220.662 454.126 220.635C449.591 220.346 443.092 221.143 440.207 216.345L440.234 216.331Z" fill="#40BFB6"/>
<path d="M498.068 243.117C499.648 251.174 504.155 254.873 505.57 259.19C510.366 261.239 513.925 259.974 518.418 258.118C518.995 257.884 520.438 256.578 521.633 255.973L523.777 254.9C524.422 254.529 525.728 253.512 526.992 252.755C527.322 251.532 528.366 251.257 529.135 250.61C539.88 241.618 553.484 231.828 555.668 216.579C557.468 204.039 542.12 199.13 531.801 200.244C518.899 201.633 497.656 222.987 496.969 236.2C496.831 238.937 497.601 240.669 498.068 243.117Z" fill="#08958F"/>
<path d="M565.52 257.045V259.19C565.534 260.647 565.204 263.535 565.52 264.552C566.111 266.436 571.374 275.483 573.064 276.831C584.331 285.796 599.927 271.592 606.206 262.407C611.469 254.707 618.683 239.142 610.521 231.841C592.273 215.492 573.435 242.813 565.52 257.058V257.045Z" fill="#08958F"/>
<path d="M632.987 264.553C634.045 264.842 633.976 265.79 634.058 266.698C634.155 267.674 633.825 269.242 634.058 269.915C635.9 275.195 644.281 278.509 648.527 280.627C649.434 276.639 652.979 279.252 655.48 278.482C656.662 278.124 670.814 269.173 672.972 267.578C676.228 265.172 678.262 261.253 682.26 260.263C681.848 252.535 688.814 250.583 679.072 242.553C672.422 237.08 658.407 232.873 650.492 236.503C639.898 241.357 633.811 253.525 633.014 264.539L632.987 264.553Z" fill="#08958F"/>
<path d="M629.441 304.524C626.817 302.489 619.768 301.609 616.457 302.118C608.418 303.383 593.867 320.364 591.971 327.954C589.91 336.19 593.139 343.877 602.482 343.863C614.698 343.835 643.443 315.373 629.455 304.524H629.441Z" fill="#08958F"/>
<path d="M471.631 279.87C470.092 281.767 464.445 292.575 463.744 295.022C462.315 300.055 461.436 306.352 466.602 309.418C483.256 319.263 505.076 293.111 497.505 276.363C495.265 271.4 484.877 271.248 480.315 273.036C479.326 273.421 472.25 279.1 471.631 279.87Z" fill="#08958F"/>
<path d="M535.909 323.114C542.147 329.356 548.66 326.661 554.28 321.326C556.177 319.525 565.383 307.645 566.358 305.555C571.992 293.551 559.873 287.322 549.787 292.19C540.636 296.604 526.566 313.764 535.909 323.114Z" fill="#08958F"/>
<path d="M672.862 345.155C658.2 342.872 640.461 373.438 653.377 379.681C662.515 384.095 671.515 375.446 676.008 368.158C680.969 360.115 686.245 347.231 672.848 345.155H672.862Z" fill="#08958F"/>
<path d="M422.042 243.116C414.003 253.511 417.246 268.966 432.567 264.883C434.271 264.429 443.82 259.259 444.535 258.118C445.689 256.248 447.049 248.121 446.733 245.743C445.868 239.143 437.033 236.874 431.207 237.823C426.823 238.538 425.999 242.278 422.042 243.116Z" fill="#08958F"/>
<path d="M366.351 214.187C366.145 215.094 366.516 216.4 366.351 217.404C367.56 217.665 367.89 218.999 368.494 219.549C375.475 225.874 379.83 224.499 387.772 220.622C388.143 220.443 389.009 218.188 390.988 217.404C393.31 211.052 393.832 209.058 388.281 204.575C378.965 197.054 368.769 203.97 366.365 214.187H366.351Z" fill="#08958F"/>
<path d="M366.351 217.403C366.337 217.527 364.826 218.242 365.279 219.535H368.481C367.876 218.998 367.547 217.665 366.337 217.403H366.351Z" fill="#3FBFB6"/>
<path d="M280.692 204.548C280.376 205.496 279.785 206.211 279.62 206.693C278.521 210.006 278.315 216.538 276.913 220.594C273.602 230.233 269.631 234.055 261.057 239.019C243.359 249.249 217.376 252.027 235.706 279.554C239.869 282.593 245.503 290.527 250.188 294.528C258.529 301.65 268.01 306.023 276.529 312.1C278.054 313.187 279.717 313.627 279.593 315.992C308.421 326.167 333.882 341.209 361.761 352.182C369.429 355.193 386.701 362.095 394.148 362.728C395.811 362.865 396.182 363.305 397.377 361.532C397.982 359.194 395.563 357.544 394.175 356.183C388.02 350.133 377.288 344.413 370.102 338.487C331.752 306.862 299.764 251.133 302.072 200.285C298.83 200.876 300.011 198.649 299.929 196.586C299.723 191.155 301.152 184.583 298.225 179.908C289.981 179.096 282.712 198.305 280.651 204.575L280.692 204.548Z" fill="#96D5D2"/>
<path d="M440.234 216.331C443.12 221.13 449.619 220.332 454.153 220.621C454.62 219.741 455.788 219.865 456.297 219.548C457.987 218.49 459.704 217.967 460.584 217.403C471.164 210.638 486.87 196.173 491.074 184.17C496.103 169.815 479.834 165.208 468.361 168.935C459.265 171.891 440.248 192.708 438.338 202.113C437.706 205.235 438.668 213.732 440.234 216.345V216.331Z" fill="#08958F"/>
<path d="M572.226 159.791C554.102 156.67 547.273 170.97 549.403 186.906C550.172 192.722 554.047 197.617 559.845 198.951C571.717 201.687 594.32 188.418 592.232 175.136C591.215 168.66 578.258 160.822 572.226 159.791Z" fill="#08958F"/>
<path d="M420.97 197.04C434.724 191.952 431.481 181.172 418.043 179.082C409.166 177.707 398.627 183.042 400.647 193.259C401.073 195.431 402.832 196.325 403.835 198.099C405.965 197.576 408.521 199.212 410.266 199.171C410.733 199.171 413.165 198.305 414.553 198.099C416.765 197.782 418.702 197.865 420.983 197.026L420.97 197.04Z" fill="#08958F"/>
<path d="M305.315 174.545C302.128 180.65 300.479 176.36 294.543 178.244C289.321 179.894 285.694 188.171 283.138 192.544L280.679 204.547C282.74 198.277 290.022 179.069 298.253 179.88C301.18 184.569 299.737 191.127 299.957 196.559C300.039 198.621 298.857 200.862 302.1 200.257C302.499 191.581 304.903 183.194 305.315 174.545Z" fill="#4BC1B7"/>
<path d="M403.835 198.113C404.151 198.663 403.616 200.45 404.811 201.922C407.504 205.235 410.857 203.173 410.252 199.185C408.507 199.227 405.951 197.59 403.822 198.113H403.835Z" fill="#40BFB6"/>
<path d="M414.539 198.113L415.089 201.344C418.496 199.859 422.028 201.688 420.97 197.04C418.703 197.879 416.765 197.796 414.539 198.113Z" fill="#40BFB6"/>
<path d="M632.987 264.553C632.946 265.061 629.826 267.124 634.059 266.698C633.976 265.79 634.045 264.855 632.987 264.553Z" fill="#4BC1B7"/>
<path d="M565.521 259.19V257.045C564.146 259.506 565.521 258.434 565.521 259.19Z" fill="#4BC1B7"/>
<path d="M526.978 252.755C528.572 251.793 531.787 251.642 529.122 250.61C528.366 251.243 527.308 251.532 526.978 252.755Z" fill="#4BC1B7"/>
<path d="M521.619 255.973C522.347 255.602 522.87 255.409 523.763 254.9L521.619 255.973Z" fill="#4BC1B7"/>
<path d="M250.71 315.978C250.656 316.115 249.35 316.748 248.567 318.123C247.839 331.35 257.1 341.236 262.486 352.415C268.793 365.491 266.141 382.72 265.701 397.419C265.537 403.001 263.654 403.235 266.581 409.931C268.037 413.259 272.393 417.879 275.347 419.914C275.732 420.189 276.776 420.574 277.491 420.986C278.082 421.33 278.989 421.743 279.634 422.059C295.312 429.511 314.274 432.811 330.681 440.085C339.667 444.073 348.337 449.133 356.733 454.206C364.482 458.881 367.574 463.653 377.316 466.293C391.538 470.143 406.638 469.551 422.055 473.498C447.104 479.905 460.762 488.183 477.732 507.79C483.915 511.695 488.051 515.71 495.938 516.356C503.235 515.188 508.332 512.41 515.216 509.921C516.948 509.289 518.404 508.464 520.575 507.776C521.29 507.556 522.21 506.47 523.667 506.099C548.51 499.856 581.927 515.641 603.019 528.126C603.719 528.071 604.571 528.264 605.162 528.126C605.794 527.975 606.715 528.291 607.306 528.126C607.828 527.975 609.271 525.995 610.521 525.981C610.672 524.634 612.912 521.788 613.475 519.835C615.248 513.785 618.01 498.509 624.385 496.474C637.823 492.156 633.454 511.448 637.975 512.988C641.63 514.239 649.929 511.764 653.35 509.921C660.55 506.058 668.053 495.429 676.036 493.518C686.671 490.96 712.723 497.698 719.456 489.228C720.171 488.334 719.552 486.615 719.745 486.354C720.404 484.553 715.897 478.53 715.169 478.076C713.63 477.1 710.058 477.059 706.966 475.038C699.972 470.445 693.418 462.828 686.451 458.056C681.642 454.756 673.494 452.845 671.556 447.785C670.471 447.593 668.85 448.225 668.341 446.713C621.568 444.623 583.177 442.876 537.476 431.409C515.697 425.936 492.654 416.641 471.356 411.856C447.187 406.425 404.495 414.771 382.428 425.799C379.034 427.49 367.863 437.088 365.472 429.924C363.617 424.383 372.424 421.371 376.876 419.158C400.125 407.608 414.168 404.253 439.616 400.499C440.193 400.416 446.349 399.949 445.112 398.478C432.897 393.858 415.666 392.606 402.31 392.001C390.452 391.465 375.544 391.396 363.727 392.056C339.392 393.431 315.415 402.3 290.915 398.45C287.769 397.955 275.237 395.645 280.995 390.159C283.042 388.206 318.822 387.244 325.157 386.68C342.635 385.099 359.865 382.019 377.591 381.29C387.415 380.878 397.913 382.033 407.628 381.331C412.78 380.96 410.17 378.87 407.078 377.578C386.453 369.053 363.287 364.488 341.783 355.055C311.485 341.773 284.512 321.34 250.752 315.964L250.71 315.978Z" fill="#96D5D2"/>
<path d="M422.041 473.497C419.005 476.426 422.454 475.23 423.649 475.628C433.68 478.97 443.367 485.253 449.138 494.136C452.023 498.563 455.431 509.302 458.468 511.53C462.659 514.582 467.564 512.038 472.098 513.963C475.808 515.545 478.007 520.577 480.48 522.722C487.405 528.758 490.95 526.49 498.439 522.626C503.949 519.78 507.123 515.737 511.218 512.382C512.372 511.433 517.964 511.2 515.202 509.935C508.332 512.423 503.221 515.187 495.924 516.37C495.279 516.48 494.509 517.593 492.283 517.525C488.298 517.415 481.813 514.142 479.243 511.048C478.185 509.77 477.952 508.065 477.718 507.79C460.749 488.196 447.09 479.905 422.041 473.497Z" fill="#3FBFB6"/>
<path d="M275.333 419.913C269.397 419.267 277.573 426.981 278.26 427.448C289.582 435.176 323.893 449.531 337.427 452.597C342.951 453.848 351.415 456.048 356.705 454.192C348.31 449.132 339.639 444.058 330.653 440.071C314.247 432.797 295.285 429.497 279.607 422.045L277.463 420.972C276.749 420.56 275.718 420.175 275.32 419.9L275.333 419.913Z" fill="#3FBFB6"/>
<path d="M245.351 409.203C246.547 412.888 246.643 413.204 250.394 411.581C256.481 408.941 260.933 401.805 265.687 397.419C266.127 382.72 268.779 365.491 262.472 352.415C259.518 354.106 262.472 358.19 262.472 359.386V375.46C262.472 384.714 252.043 402.823 245.338 409.216L245.351 409.203Z" fill="#3FBFB6"/>
<path d="M610.493 526.009C610.342 527.329 612.362 539.511 612.898 541.285C614.629 547.046 622.379 552.519 628.452 549.934C631.462 548.655 635.776 536.033 637.92 532.554C642.688 524.84 651.798 519.244 653.323 509.935C649.901 511.778 641.602 514.239 637.947 513.001C633.426 511.461 637.796 492.17 624.358 496.488C617.982 498.536 615.234 513.799 613.448 519.849C612.871 521.802 610.645 524.648 610.493 525.995V526.009Z" fill="#3FBFB6"/>
<path d="M454.167 220.621C454.648 220.649 456.736 223.784 456.31 219.549C455.802 219.865 454.634 219.741 454.167 220.621Z" fill="#3FBFB6"/>
<path d="M477.718 507.79C477.952 508.065 478.185 509.77 479.243 511.049C481.813 514.129 488.298 517.415 492.283 517.525C494.509 517.594 495.279 516.48 495.924 516.37C488.037 515.71 483.901 511.709 477.718 507.804V507.79Z" fill="#40BFB6"/>
<path d="M277.477 420.986L279.621 422.059C278.975 421.743 278.082 421.33 277.477 420.986Z" fill="#40BFB6"/>
</g>
</g>
<defs>
<clipPath id="clip0_504_11437">
<rect width="669" height="516" fill="white"/>
</clipPath>
<clipPath id="clip1_504_11437">
<rect width="983" height="704" fill="white" transform="matrix(-1 0 0 1 983 47)"/>
</clipPath>
</defs>
</svg>
