<svg width="669" height="516" viewBox="0 0 669 516" fill="none" xmlns="http://www.w3.org/2000/svg">
<g clip-path="url(#clip0_504_8144)">
<rect width="669" height="516" fill="#D9D9D9" fill-opacity="0.6"/>
<g clip-path="url(#clip1_504_8144)">
<path d="M296.082 91.4786C269.242 94.7751 240.767 98.1398 215.448 106.245C211.327 107.563 198.531 115.236 209.34 115.122C219.422 115.02 228.914 111.724 239.893 112.394C287.295 115.259 309.9 146.2 322.673 188.361C335.185 229.658 340.226 277.105 329.213 319.254C339.351 322.494 349.524 325.711 359.879 328.28C442.489 348.832 532.796 344.353 612.976 315.799C642.416 305.307 702.761 277.866 705.725 241.923C706.644 230.704 689.387 214.335 681.405 207.117C647.957 176.846 598.909 151.509 556.741 133.378C541.732 126.922 526.881 121.204 511.417 115.918C494.988 110.314 478.673 105.062 461.733 101.084C438.731 95.6731 415.864 92.8768 392.861 90.6147C381.61 89.5121 372.175 88.1026 360.606 88.0003C359.697 86.5566 357.302 87.125 355.826 87.1136C334.492 86.8863 317.007 88.9324 296.105 91.49L296.082 91.4786ZM178.401 131.616C181.807 124.205 190.345 122.045 196.692 118.101C190.981 111.815 177.629 104.733 169.204 104.54C167.115 104.494 154.467 104.403 153.707 104.54C153.116 104.653 153.241 105.972 152.469 106.256C148.7 107.643 144.181 107.154 138.583 109.643C89.7965 131.377 95.0306 183.235 80.1345 225.668C54.7703 297.941 -14.5102 345.672 2.71343 429.266C5.41562 442.361 11.4217 457.559 19.7554 468.062C22.0715 470.972 32.4943 483.181 35.8777 476.372C37.3196 473.484 32.8916 461.481 32.1763 457.366C28.1231 434.302 28.827 407.907 36.048 385.786C45.9598 355.402 66.8847 330.292 84.2672 304.022L101.673 273.888C99.1293 311.002 69.1668 336.237 55.3266 368.429C39.7493 404.667 40.0785 445.271 52.6244 482.271C58.4716 499.492 70.1886 519.374 59.3231 537.379C56.0532 542.801 45.2899 549.383 52.8288 556.26C60.8899 563.615 71.2445 552.52 75.7747 546.178C99.152 513.372 75.5703 480.543 78.2611 447.249C82.1441 399.279 119.895 359.13 141.365 318.425C145.01 311.513 147.655 303.534 152.231 297.463C148.87 336.942 121.769 366.212 110.835 403.065C100.208 438.905 103.194 475.451 122.245 507.722C134.099 527.808 157.226 549.053 149.756 574.698C147.984 580.779 139.639 590.328 140.377 595.091C142.149 606.458 155.092 602.081 161.416 596.841C180.127 581.359 180.728 551.156 173.405 529.82C167.24 511.871 154.797 497.424 150.914 478.156C143.84 443.157 165.094 394.573 181.739 364.075C186.598 355.163 192.196 345.467 198.44 337.601C194.841 359.005 186.791 380.012 184.509 401.757C181.58 429.687 185.849 458.525 201.04 482.067C221.908 514.429 269.526 534.617 265.564 579.768C263.293 605.707 234.727 630.386 242.64 656.86C244.321 662.464 249.952 669.307 256.288 668.989C265.336 668.534 263.758 657.53 264.928 651.574C267.63 637.831 277.837 630.397 285.467 619.769C307.061 589.68 307.595 554.521 292.483 521.431C273.125 479.054 230.764 456.9 247.704 402.167C259.444 364.257 292.654 360.745 310.933 331.94C334.265 295.19 323.933 227.862 311.535 188.168C294.266 132.901 258.536 115.156 201.744 125.751C193.876 127.217 186.439 130.832 178.412 131.616H178.401ZM636.933 369.02C649.126 368.622 658.8 368.804 670.937 365.973C723.062 353.799 772.224 306.739 767.727 249.858C765.127 216.938 731.668 204.253 702.773 205.764C692.009 206.333 701.127 211.55 704.033 214.994C720.223 234.228 720.292 249.21 705.634 269.796C676.977 310.07 607.515 331.076 561.294 341.727C555.231 343.125 548.271 344.887 543.151 344.66C542.878 344.649 543.037 345.342 538.814 345.524C537.667 345.569 536.861 346.843 536.1 346.922C497.793 351.037 459.042 353.867 420.315 349.798C397.006 347.354 373.935 342.159 351.012 337.59C350.296 338.294 355.814 344.251 356.598 345.069C405.805 396.835 475.403 421.593 544.513 394.732C575.248 382.786 588.032 370.168 623.853 368.997C628.19 368.861 632.584 369.134 636.933 368.997V369.02ZM505.933 415.864C503.912 416.808 466.286 414.898 461.506 414.17C418.43 407.532 378.386 383.797 349.672 351.583C341.929 342.887 336.695 329.974 324.001 328.894C319.925 340.181 310.683 350.73 301.714 358.528C298.535 361.29 279.074 374.34 278.711 375.727C277.95 378.648 288.85 385.718 291.246 387.378C311.535 401.325 339.488 412.522 363.194 419.206C375.331 422.628 406.293 426.754 414.933 432.858C418.669 435.507 424.561 453.217 427.502 458.696C441.058 483.954 465.412 507.086 492.49 518.419C513.54 527.228 536.123 526.171 553.642 542.722C563.996 552.498 570.672 568.196 564.144 581.984C560.261 590.191 548.816 593.59 554.311 604.9C559.773 616.131 579.04 603.627 584.592 597.216C610.751 567.059 591.529 522.443 564.575 500.356C544.332 483.772 512.303 481.691 502.663 453.251C501.29 449.204 498.883 440.735 500.211 436.802C501.199 433.87 512.53 434.017 515.959 433.37C552.029 426.617 587.385 414.523 618.891 395.903C624.875 392.368 634.083 386.662 639.078 382.081C640.146 381.103 641.576 380.33 641.281 378.625C619.573 378.284 597.047 382.104 577.064 390.686C565.915 395.471 555.685 402.36 544.104 406.566C532.773 410.681 513.79 412.192 505.933 415.864ZM392.839 436.223C370.188 433.21 348.582 426.185 327.464 417.887C324.274 443.555 330.268 470.245 345.051 491.467C360.901 514.224 397.324 543.961 381.667 574.698C377.772 582.337 368.349 588.907 366.896 597.432C364.352 612.335 377.432 610.379 386.753 605.98C417.329 591.567 426.889 553.578 415.285 523.25C405.146 496.753 380.179 482.578 386.969 450.841C388.059 445.771 390.5 440.792 392.827 436.211L392.839 436.223Z" fill="#FFFEF4"/>
<path d="M178.401 131.616C186.428 130.832 193.876 127.217 201.733 125.751C258.513 115.156 294.254 132.901 311.523 188.168C323.922 227.862 334.254 295.201 310.922 331.94C292.642 360.745 259.421 364.257 247.693 402.167C230.753 456.888 273.114 479.054 292.472 521.431C307.595 554.532 307.05 589.68 285.455 619.769C277.826 630.397 267.619 637.82 264.916 651.574C263.747 657.53 265.325 668.534 256.276 668.989C249.941 669.307 244.298 662.475 242.629 656.86C234.715 630.386 263.281 605.707 265.552 579.768C269.515 534.606 221.897 514.418 201.029 482.067C185.849 458.525 181.58 429.687 184.498 401.757C186.769 380.012 194.83 359.005 198.429 337.601C192.184 345.456 186.587 355.163 181.728 364.075C165.083 394.562 143.829 443.157 150.902 478.156C154.797 497.424 167.24 511.871 173.394 529.82C180.717 551.168 180.115 581.359 161.404 596.841C155.08 602.07 142.137 606.446 140.366 595.091C139.628 590.328 147.973 580.779 149.744 574.698C157.204 549.065 134.087 527.808 122.234 507.722C103.194 475.462 100.197 438.905 110.824 403.065C121.757 366.212 148.859 336.942 152.219 297.463C147.632 303.545 144.998 311.513 141.354 318.425C119.873 359.13 82.1214 399.279 78.2498 447.249C75.5589 480.555 99.1406 513.383 75.7633 546.178C71.2445 552.52 60.8786 563.615 52.8174 556.26C45.2786 549.383 56.0419 542.801 59.3118 537.379C70.1773 519.374 58.4602 499.492 52.6131 482.271C40.0558 445.271 39.7379 404.667 55.3152 368.429C69.1554 336.237 99.1066 311.002 101.661 273.888L84.2559 304.022C66.8733 330.292 45.9484 355.402 36.0366 385.786C28.827 407.907 28.1117 434.313 32.165 457.366C32.8916 461.469 37.3082 473.473 35.8663 476.372C32.4829 483.192 22.0488 470.972 19.744 468.062C11.399 457.57 5.39292 442.361 2.70209 429.266C-14.5215 345.672 54.7476 297.941 80.1118 225.68C95.0079 183.246 89.7738 131.389 138.561 109.655C144.158 107.165 148.677 107.654 152.446 106.267C153.218 105.983 153.094 104.653 153.684 104.551C154.456 104.403 167.093 104.494 169.182 104.551C177.606 104.744 190.958 111.826 196.669 118.112C190.322 122.056 181.784 124.216 178.378 131.628L178.401 131.616ZM269.628 172.947C239.825 144.529 187.949 178.608 204.685 220.076C216.901 250.346 261.147 246.743 276.406 220.564C284.967 205.878 281.992 184.724 269.628 172.936V172.947Z" fill="#40ADA0"/>
<path d="M360.594 87.989C372.164 88.0913 381.599 89.5008 392.85 90.6034C396.131 89.9327 393.202 95.5936 393.179 97.2873C392.964 110.553 409.631 122.591 421.405 125.296C438.129 129.15 460.632 120.26 461.722 101.073C478.662 105.051 494.977 110.303 511.406 115.907C507.239 117.589 502.993 116.839 500.132 120.954C482.828 145.871 534.556 177.437 555.901 159.136C563.917 152.27 563.849 140.88 556.741 133.355C598.909 151.475 647.957 176.824 681.405 207.094C689.387 214.324 706.656 230.681 705.725 241.901C702.762 277.844 642.416 305.284 612.976 315.776C532.808 344.33 442.489 348.809 359.879 328.257C349.524 325.677 339.351 322.471 329.213 319.232C340.226 277.082 335.185 229.647 322.673 188.338C309.9 146.178 287.295 115.236 239.893 112.372C228.914 111.712 219.433 114.997 209.34 115.1C198.531 115.213 211.327 107.541 215.448 106.222C240.756 98.1171 269.242 94.7524 296.082 91.4559C292.302 107.597 314.487 113.77 327.033 112.406C338.909 111.121 353.044 100.277 344.029 87.9662C349.536 87.989 355.088 87.9094 360.594 87.9662V87.989ZM346.277 130.389C336.99 137.3 335.048 143.018 339.499 154.055C347.174 173.084 376.103 183.564 393.123 170.753C407.383 160.023 399.061 139.801 387.026 130.911C374.423 121.602 358.63 121.204 346.277 130.389ZM488.222 169.662C468.455 148.587 436.21 163.456 455.239 189.146C475.074 215.938 514.199 197.353 488.222 169.662ZM620.095 201.195C628.815 190.18 594.345 165.638 584.74 177.562C579.437 184.144 586.034 195.591 591.654 200.069C598.614 205.628 613.748 209.197 620.095 201.183V201.195ZM565.143 228.192C572.069 220.087 563.077 205.253 555.81 200.194C543.503 191.635 531.275 197.921 533.182 213.255C534.772 225.998 555.492 239.502 565.143 228.192ZM442.228 252.631C443.09 251.676 443.817 250.233 444.294 249.039C454.694 223.054 410.369 192.556 392.464 218.086C376.047 241.48 423.153 273.899 442.228 252.643V252.631Z" fill="#40ADA0"/>
<path d="M636.932 369.02C633.708 367.565 627.259 367.542 623.853 369.02C588.032 370.191 575.248 382.808 544.513 394.755C475.414 421.616 405.805 396.858 356.598 345.092C355.814 344.274 350.296 338.306 351.012 337.612C373.935 342.182 397.006 347.377 420.315 349.821C459.042 353.89 497.793 351.048 536.1 346.945C536.849 346.865 537.667 345.592 538.814 345.547C543.037 345.365 542.878 344.671 543.151 344.683C548.271 344.91 555.22 343.148 561.294 341.75C607.515 331.099 676.977 310.092 705.634 269.819C720.28 249.233 720.223 234.262 704.033 215.017C701.126 211.573 692.021 206.344 702.773 205.787C731.668 204.275 765.127 216.95 767.727 249.88C772.223 306.762 723.062 353.822 670.937 365.996C658.811 368.827 649.126 368.656 636.932 369.043V369.02Z" fill="#84CEC2"/>
<path d="M505.933 415.864C513.79 412.193 532.762 410.669 544.105 406.566C555.685 402.371 565.915 395.483 577.065 390.686C597.047 382.104 619.573 378.284 641.281 378.625C641.576 380.33 640.146 381.115 639.079 382.081C634.072 386.673 624.875 392.368 618.892 395.903C587.385 414.523 552.041 426.617 515.959 433.37C512.53 434.006 501.199 433.858 500.211 436.803C498.883 440.747 501.301 449.204 502.664 453.251C512.303 481.692 544.332 483.772 564.575 500.356C591.529 522.443 610.74 567.059 584.592 597.216C579.04 603.627 559.761 616.131 554.312 604.9C548.816 593.59 560.261 590.191 564.144 581.984C570.672 568.207 563.996 552.498 553.642 542.722C536.123 526.171 513.54 527.228 492.491 518.419C465.412 507.086 441.058 483.954 427.502 458.696C424.561 453.217 418.669 435.507 414.933 432.858C406.293 426.754 375.332 422.628 363.194 419.206C339.488 412.522 311.546 401.326 291.246 387.378C288.839 385.73 277.951 378.648 278.711 375.727C279.075 374.34 298.535 361.29 301.714 358.528C310.683 350.73 319.925 340.181 324.001 328.894C336.695 329.962 341.929 342.887 349.672 351.583C378.386 383.797 418.43 407.532 461.506 414.17C466.286 414.909 503.912 416.808 505.933 415.864Z" fill="#40ADA0"/>
<path d="M392.839 436.223C390.511 440.815 388.059 445.783 386.98 450.852C380.191 482.59 405.169 496.764 415.296 523.261C426.9 553.589 417.34 591.578 386.764 605.992C377.432 610.391 364.364 612.346 366.907 597.444C368.36 588.918 377.784 582.348 381.678 574.709C397.335 543.972 360.912 514.236 345.062 491.479C330.28 470.245 324.285 443.566 327.475 417.899C348.593 426.197 370.199 433.222 392.85 436.234L392.839 436.223Z" fill="#40ADA0"/>
<path d="M556.73 133.367C563.837 140.881 563.905 152.27 555.89 159.148C534.556 177.449 482.817 145.871 500.12 120.965C502.981 116.85 507.239 117.601 511.395 115.918C526.858 121.193 541.709 126.922 556.719 133.378L556.73 133.367Z" fill="#84CEC2"/>
<path d="M461.711 101.084C460.621 120.272 438.118 129.161 421.393 125.307C409.62 122.591 392.952 110.553 393.168 97.2986C393.191 95.6049 396.12 89.9441 392.839 90.6147C415.842 92.8768 438.697 95.6845 461.711 101.084Z" fill="#84CEC2"/>
<path d="M360.594 87.989C355.088 87.9436 349.547 88.0231 344.029 87.989C353.044 100.288 338.92 111.144 327.033 112.428C314.475 113.781 292.301 107.609 296.082 91.4788C316.996 88.9098 334.469 86.8751 355.814 87.1024C357.29 87.1138 359.686 86.5454 360.594 87.989Z" fill="#84CEC2"/>
<path d="M636.933 369.02C632.595 369.156 628.202 368.884 623.853 369.02C627.259 367.542 633.708 367.565 636.933 369.02Z" fill="#40ADA0"/>
<path d="M269.628 172.947C281.981 184.724 284.956 205.89 276.406 220.576C261.158 246.743 216.902 250.347 204.685 220.087C187.95 178.62 239.825 144.541 269.628 172.959V172.947ZM229.288 222.031C247.625 231.397 271.649 214.574 264.235 193.602C256.061 170.447 216.402 179.472 220.308 208.777C221.034 214.21 224.475 219.564 229.288 222.02V222.031Z" fill="#FFFEF4"/>
<path d="M346.277 130.388C358.63 121.204 374.423 121.602 387.026 130.911C399.072 139.812 407.383 160.034 393.123 170.753C376.104 183.564 347.174 173.084 339.499 154.055C335.049 143.017 336.99 137.3 346.277 130.388Z" fill="#84CEC2"/>
<path d="M442.228 252.631C423.153 273.888 376.047 241.469 392.464 218.075C410.381 192.556 454.694 223.043 444.294 249.028C443.817 250.233 443.079 251.665 442.228 252.62V252.631Z" fill="#84CEC2"/>
<path d="M488.221 169.662C514.199 197.353 475.085 215.938 455.239 189.146C436.21 163.444 468.455 148.587 488.221 169.662Z" fill="#84CEC2"/>
<path d="M565.143 228.192C555.493 239.491 534.772 225.987 533.182 213.255C531.275 197.921 543.503 191.635 555.81 200.195C563.088 205.253 572.069 220.087 565.143 228.192Z" fill="#84CEC2"/>
<path d="M620.095 201.195C613.748 209.209 598.614 205.628 591.654 200.081C586.034 195.602 579.437 184.155 584.739 177.574C594.345 165.638 628.815 190.191 620.095 201.206V201.195Z" fill="#84CEC2"/>
<path d="M229.289 222.031C224.475 219.576 221.035 214.21 220.308 208.788C216.402 179.484 256.061 170.447 264.235 193.613C271.638 214.585 247.625 231.409 229.289 222.042V222.031Z" fill="#40ADA0"/>
</g>
</g>
<defs>
<clipPath id="clip0_504_8144">
<rect width="669" height="516" fill="white"/>
</clipPath>
<clipPath id="clip1_504_8144">
<rect width="768" height="582" fill="white" transform="translate(0 87)"/>
</clipPath>
</defs>
</svg>
