<svg width="669" height="516" viewBox="0 0 669 516" fill="none" xmlns="http://www.w3.org/2000/svg">
<g clip-path="url(#clip0_504_8041)">
<rect width="669" height="516" fill="#D9D9D9" fill-opacity="0.6"/>
<g clip-path="url(#clip1_504_8041)">
<path d="M422.348 62L461.463 64.2196C473.984 66.6454 481.596 69.6655 492.468 75.2933C495.717 76.9792 499.814 78.8349 502.808 80.4602C533.898 97.3558 554.807 134.009 556.686 169.826L555.947 170.93L556.686 171.306C556.686 171.548 556.686 171.803 556.686 172.046C555.462 174.775 555.437 180.233 556.686 183.119C556.65 183.859 556.734 184.599 556.686 185.339L555.207 184.235C555.231 187.777 554.928 191.452 554.468 194.945C554.431 195.188 554.504 195.442 554.468 195.685L551.74 202.186L550.044 211.925C548.662 214.691 547.68 218.014 546.359 220.792C546.128 221.289 545.862 221.762 545.619 222.271C545.377 222.781 545.122 223.242 544.88 223.751C544.795 223.933 544.31 224.139 544.141 224.491C543.886 225.025 543.11 225.619 542.662 226.711C542.577 226.917 542.747 227.232 542.662 227.45C540.904 228.639 540.189 230.871 538.977 232.617C529.304 246.505 517.886 258.282 503.547 267.33L496.735 269.562C494.238 271.842 489.123 274.341 485.753 275.82C484.226 276.5 480.323 275.25 479.923 279.144C479.693 279.192 479.414 279.095 479.184 279.144C475.487 279.956 471.111 280.842 467.256 281.606C461.414 282.77 454.687 284.383 448.917 282.843L449.669 284.311C448.335 284.189 446.845 284.517 445.548 284.384C443.766 284.202 445.099 282.698 443.766 282.855C444.251 285.839 438.311 283.304 438.59 286.542C420.699 289.999 414.566 305.136 420.966 321.534C438.142 365.526 495.45 369.553 506.492 429.093C505.111 429.87 505.838 431.75 505.971 432.926C506.408 437.086 507.002 440.737 507.232 445.007C507.305 446.426 506.456 447.966 508.711 447.554C510.141 464.692 507.789 481.709 523.535 493.656C524.929 494.711 531.51 497.961 531.595 498.519C531.595 498.58 530.941 498.92 530.844 499.247C537.098 501.248 542.395 501.733 548.965 501.479C550.383 501.418 551.922 502.243 551.51 499.999C551.753 499.963 552.007 500.035 552.25 499.999C553.074 502.194 553.68 501.103 554.953 500.872C559.813 499.963 563.971 497.634 568.892 499.199C570.031 499.562 569.837 500.242 570.565 500.654C573.025 502.061 573.328 500.096 574.395 505.166C574.443 505.518 575.316 505.857 575.025 507.531C574.274 511.861 568.213 516.179 564.795 518.471C560.746 519.745 557.025 521.88 552.989 523.274C551.28 523.857 548.25 524.596 546.347 525.118C543.668 525.858 542.916 526.404 539.704 526.598L539.001 524.875C539.05 525.203 538.953 525.955 538.529 525.919C529.026 525.13 519.135 523.893 510.698 519.066L505.753 517.732C497.705 512.783 490.008 505.117 485.087 497.052L480.202 483.771L480.638 481.151L479.232 481.49C479.475 480.035 478.226 477.949 478.372 476.821C478.481 475.984 480.238 476.881 479.911 475.644C479.305 475.547 477.802 476.069 477.656 475.208C474.978 460.119 474.856 444.327 469.511 429.87C469.208 429.967 468.917 430.597 468.844 430.585C467.947 430.44 467.753 429.106 467.366 428.366C468.953 427.868 467.293 426.207 466.917 425.491C465.753 423.259 464.202 419.851 462.917 417.874C462.578 417.353 460.978 415.934 460.711 417.292C460.323 416.71 460.166 416.103 459.972 415.812C458.711 413.957 457.717 412.744 456.251 411.046C455.947 410.694 454.444 408.389 454.069 409.906C443.669 399.742 431.172 391.931 419.002 384.059L426.76 409.166C423.451 411.992 426.76 412.174 426.808 412.574C426.978 413.86 425.608 418.566 425.281 420.239C429.124 419.839 426.772 421.185 426.724 423.599C426.687 425.503 427.778 427.129 426.748 429.106L425.293 427.638V430.585L427.499 429.845C426.627 433.69 428.869 433.897 423.814 433.545L424.554 435.752C423.814 435.995 422.651 434.467 422.336 435.388C421.293 438.457 423.875 436.286 424.408 436.601C424.808 436.832 426.772 439.731 426.711 440.555C426.614 441.938 424.857 443.406 424.699 445.152C424.481 447.481 427.002 449.603 423.075 449.058C422.736 450.307 424.542 449.397 424.59 450.198C424.639 451.083 423.402 452.903 423.802 454.225L420.118 452.005C419.221 453.849 421.621 453.303 421.657 453.921C421.79 456.359 420.142 455.983 423.802 458.652C423.305 460.277 422.651 460.798 422.324 461.611L421.948 460.883C419.039 459.889 420.663 463.346 421.584 465.298C421.402 465.614 421.014 465.796 420.845 466.038C418.942 468.706 417.742 471.096 416.481 474.007C412.178 483.989 405.099 499.951 405.778 511.327C405.899 513.462 404.699 512.601 407.56 512.565C407.56 512.807 407.56 513.062 407.56 513.304C407.56 513.438 406.699 514.178 406.833 515.754C406.966 517.428 407.766 518.047 408.299 519.211C417.657 539.515 434.299 540.922 448.178 555.016C462.323 569.389 467.026 593.525 454.069 610.057L446.469 616.121C443.996 616.764 441.123 617.649 438.566 617.443C438.311 617.419 438.02 617.504 437.826 617.443C434.663 613.138 433.948 611.051 434.142 605.63C434.166 604.914 434.033 604.077 434.142 603.41C437.414 603.095 436.032 595.939 439.305 596.011V595.296C436.59 595.623 438.893 589.134 437.839 586.794L436.36 587.897C435.354 582.536 433.451 578.061 428.978 574.604L431.196 571.657C426.421 573.634 425.245 570.686 422.117 569.279C415.208 566.199 405.136 563.688 399.318 559.758C397.73 558.691 396.772 557.429 397.233 555.392C395.984 555.052 396.857 556.787 396.13 556.908C394.881 557.09 390.554 553.548 389.124 552.444C385.5 549.643 383.112 547.362 380.263 543.578L382.469 542.111C379.063 542.669 381.003 540.995 380.627 540.595C379.96 539.891 378.785 540.158 378.251 539.685C374.772 536.543 371.039 520.533 370.663 515.524C370.651 515.282 370.676 515.027 370.663 514.784C370.336 508.574 371.269 502.498 371.391 496.312H374.348C374.591 494.869 372.506 495.924 372.142 495.56C371.209 494.626 377.56 477.512 377.997 474.638L380.251 474.152C380.615 472.891 378.627 473.764 378.797 473.085C379.391 470.526 381.318 467.312 382.118 464.583C382.53 463.176 383.645 459.852 382.469 458.664C383.718 454.455 385.185 449.603 386.154 445.37C387.524 439.415 388.263 433.411 387.633 427.286L386.154 428.378C384.591 411.325 377.136 395.824 364.76 384.059C364.7 385.284 364.821 386.533 364.76 387.746C364.591 390.742 364.36 393.786 364.457 396.77C364.494 397.922 363.536 398.977 365.5 399.56C365.379 400.894 364.845 402.179 364.76 403.247C364.482 407.031 364.179 411.058 364.021 415.06C363.815 420.518 363.73 424.958 362.542 430.573C360.348 429.154 361.391 430.04 360.979 431.58C359.197 438.069 357.439 444.449 355.209 450.78L353.342 451.253L355.161 452.733C346.021 475.462 333.306 492.649 313.088 506.646C311.222 504.911 309.597 508.404 308.882 508.902C307.064 510.151 307.634 509.156 305.706 511.073C305.452 511.315 305.234 511.57 304.967 511.813C304.094 510.733 300.107 512.637 299.246 513.086C298.3 513.571 298.252 514.53 297.791 514.76C293.61 516.895 288.482 518.289 284.24 520.157C283.004 520.703 283.319 521.031 282.81 522.146C281.573 522.656 280.034 523.723 278.386 524.366C277.622 522.971 278.07 521.673 276.167 522.159C277.622 524.111 274.664 523.323 275.428 525.846C275.186 525.87 274.931 525.809 274.689 525.846C272.846 526.149 270.677 526.731 268.822 527.01C267.489 527.216 266.313 526.416 265.586 526.537C264.98 526.634 264.883 528.065 263.877 528.66C262.725 529.339 253.998 532.129 253.38 531.619C252.992 531.304 253.78 529.957 252.555 530.273C252.362 531.983 251.671 534.433 249.719 533.026C249.368 532.784 250.071 531.437 248.859 531.753C249.477 536.01 248.119 534.045 245.962 535.112C244.119 536.022 242.471 537.768 240.337 538.399L239.259 536.932C239.416 539.078 237.089 540.667 235.562 542.098C229.21 548.078 221.562 553.536 217.113 561.299C211.78 561.905 215.792 564.44 214.883 565.701C214.713 565.932 212.047 566.332 211.938 566.478C211.683 566.841 212.847 568.576 212.592 569.655C212.301 570.905 207.829 572.76 208.253 576.059L210.459 576.084C211.004 577.891 209.513 579.456 209.368 580.887C209.126 583.264 210.713 585.835 208.253 587.521C210.81 588.103 208.677 588.965 208.968 591.148C209.186 592.749 210.98 596.788 211.865 598.122C212.156 598.559 211.816 599.541 211.938 599.699C212.107 599.905 213.744 598.668 214.144 598.947C214.265 599.032 214.726 601.761 214.895 601.906C215.392 602.343 215.574 601.154 215.622 601.166C216.192 601.312 222.289 608.359 223.731 609.669C236.689 621.434 253.04 635.479 240.713 655.079C240.18 653.042 238.58 657.699 237.756 658.766C237.21 659.336 236.944 659.688 236.277 660.246C232.81 660.998 230.216 664.043 226.277 663.958L217.829 662.466C215.174 660.283 215.004 659.434 215.962 655.795C217.61 649.561 227.647 650.373 224.798 642.562C222.919 637.407 207.804 630.858 202.798 626.904C201.477 625.861 199.465 623.362 197.889 621.846C197.986 619.833 195.732 619.784 194.58 618.135C192.362 614.945 191.623 613.841 189.029 610.772C188.653 610.336 188.12 610.105 187.55 609.293L187.271 606.236L182.374 595.999C181.599 593.185 180.411 590.711 180.156 587.133L180.896 576.047L182.338 576.775C183.768 573.864 181.841 574.919 181.635 574.082C181.017 571.547 183.186 562.038 184.059 558.909C185.029 555.452 185.029 553.864 189.017 554.616C188.762 552.093 185.574 554.943 186.083 552.796C186.532 550.904 187.538 547.908 189.756 548.709V547.981C185.768 547.544 189.477 546.489 189.732 545.956C192.58 539.879 193.053 537.368 197.368 531.534C197.792 530.952 199.392 529.108 197.889 528.769C215.489 505.869 234.774 499.647 259.889 488.149C260.64 489.726 262.131 488.44 263.077 488.016C267.04 486.184 270.943 484.062 274.531 482.291C277.925 480.617 282.713 477.282 286.119 477.743C285.561 473.303 288.688 475.45 289.428 474.856C289.634 474.686 289.222 473.134 289.428 472.636C289.864 471.557 299.973 462.788 301.949 460.422C304.24 457.693 311.367 444.691 312.3 444.57C312.361 444.57 312.688 445.225 313.003 445.322C313.306 442.678 315.112 440.846 316.009 438.324C317.452 434.285 318.034 429.991 318.894 425.819C319.076 424.933 320.518 425.455 321.149 425.37C321.488 424.133 319.731 425.03 319.609 424.193C319.403 422.702 321.015 416.88 321.137 414.66C321.318 411.385 320.47 404.702 321.137 402.216C321.294 401.609 322.131 401.67 322.628 401.731V401.015L321.137 400.53C321.828 396.794 320.458 392.986 320.373 389.541C320.337 387.989 319.949 386.691 321.888 386.958V386.242C319.282 386.764 321.04 383.671 320.252 382.664C319.973 382.312 319.028 382.628 318.943 382.531C318.749 382.337 319.464 379.668 317.076 381.779C316.409 382.373 312.919 386.679 314.506 387.71C303.246 413.86 296.652 430.416 276.131 451.229L274.652 452.708C274.155 453.194 273.707 453.691 273.173 454.188L269.477 456.42L270.216 457.148C265.67 461.09 261.355 464.389 256.192 467.494L239.222 474.601C236.277 475.123 236.786 472.673 235.78 476.384C223.125 480.253 210.362 484.086 197.138 485.214C198.738 480.496 194.714 485.893 194.411 485.966C192.98 486.33 189.986 486.451 190.483 484.498L189.017 486.694C188.302 486.779 187.247 487.288 186.059 487.434L185.32 488.173C184.362 488.295 183.332 488.064 182.362 488.173C176.059 486.378 168.29 488.343 161.926 489.544C160.556 489.799 159.053 488.913 159.49 491.133C151.066 492.964 144.944 495.354 137.344 499.259L136.617 498.519V499.999C135.854 500.411 134.835 500.472 134.387 500.739L132.908 502.219C132.435 502.498 131.902 502.68 131.429 502.959C130.799 503.335 129.526 503.128 128.666 503.892C128.132 504.365 128.096 505.542 127.745 505.906C127.248 506.452 126.775 506.876 126.266 507.386C124.702 507.204 124.617 507.289 124.787 508.865C124.29 509.375 123.829 509.848 123.308 510.345C122.29 511.34 119.89 512.977 118.957 514.19C118.545 514.736 119.636 515.439 119.623 515.512C119.126 517.707 116.181 521.589 115.199 524.378C113.054 523.942 113.866 525.446 113.514 526.719C112.181 531.656 112.29 535.052 112.048 540.073C111.939 542.365 110.787 541.359 113.72 541.359C117.175 557.211 135.332 565.447 139.55 581.238V591.924L138.072 600.439C135.805 605.169 134.011 606.588 129.951 609.305L119.611 613.732C117.139 613.89 114.617 613.562 112.23 612.992C111.09 611.706 109.611 610.627 107.805 610.772C107.139 610.239 106.836 610.093 106.327 609.293C104.048 598.898 113.526 602.015 117.684 599.007C118.46 598.449 118.048 597.552 118.133 597.467C118.339 597.285 118.654 596.958 118.872 596.727C118.993 596.606 119.854 597.152 120.363 596.242C122.12 593.101 120.787 587.218 117.963 585.071C117.745 584.914 117.429 585.678 117.393 585.653C116.229 584.659 115.211 583.313 114.436 582.694C115.842 582.318 114.326 580.935 113.793 580.523C111.49 578.752 108.569 577.381 106.508 575.32L101.151 572.348C100.533 571.814 100.133 571.293 99.6721 570.868C98.5812 569.425 98.06 567.157 95.9873 567.181C95.757 566.926 95.4782 566.708 95.2479 566.441C94.7145 565.18 94.7024 563.821 93.0297 564.222C92.1934 563.118 92.1812 563.009 91.5509 562.002C83.551 549.158 83.6359 542.596 81.2116 529.509C80.448 525.373 81.648 519.114 82.6904 514.736L95.2479 488.889L98.9206 490.369L96.7145 488.889L98.1933 484.462C106.945 473.388 116.363 466.632 129.199 460.823L177.914 449.009C178.641 448.961 179.393 449.058 180.132 449.009C184.168 448.73 189.308 449.312 193.829 447.566L193.417 446.79C235.137 438.227 250.543 418.966 267.961 382.531C270.155 377.946 271.695 377.861 270.919 372.185C270.798 371.275 271.549 369.116 270.192 369.237C266.422 377.861 260.301 385.26 253.949 392.125C253.671 390.754 252.119 392.197 251.755 392.719C247.828 398.286 242.519 402.107 236.725 405.563C235.744 406.146 235.731 407.371 234.919 407.65C232.847 408.353 233.028 406.437 232.544 409.117C224.847 413.047 213.295 418.444 204.774 419.439C202.956 419.645 201.877 418.796 201.114 418.784C200.895 418.784 199.877 422.762 199.32 418.723H198.604C198.665 419.233 198.75 420.057 198.12 420.215C195.55 420.87 185.805 421.064 182.762 420.967C180.265 420.882 176.653 418.929 174.229 420.943C167.611 420.13 162.665 418.59 156.52 416.516L157.987 414.308C157.223 414.539 156.132 413.423 155.853 413.641C155.514 413.908 156.326 415.327 155.041 415.024C155.211 411.943 149.938 415.545 148.532 412.149L135.841 406.91C130.096 403.247 126.145 399.414 121.078 395.096L120.339 394.356C119.72 393.835 119.284 393.24 118.86 392.877L120.326 390.669C119.732 390.148 116.933 389.202 116.823 389.044C116.096 388.074 117.054 385.187 113.696 384.738L113.32 386.958C111.648 386.169 110.775 384.593 109.514 383.38C109.09 382.979 107.417 381.051 107.042 382.531C104.266 380.275 101.127 377.873 98.1812 375.884C89.357 369.917 79.0298 368.243 69.4178 373.749C69.5027 374.052 70.1451 374.356 70.133 374.416C70.0117 375.096 67.236 376.636 66.4481 377.376L62.4361 379.644C58.0361 386.145 55.6604 393.022 57.4422 400.785C57.721 402.022 57.4422 403.501 59.0664 403.962C59.1149 404.205 59.0179 404.46 59.0664 404.702C59.7815 408.135 60.1088 406.776 61.2846 408.389C66.0118 414.903 72.8844 421.731 76.0481 429.069C74.8844 429.53 75.842 431.507 76.0965 432.332C77.3935 436.468 78.642 440.555 78.2905 444.97L75.3087 457.136C73.4178 460.192 72.1087 461.502 69.4057 463.782L63.4906 467.105C58.327 468.888 52.3392 469.58 46.8605 468.985C46.1574 468.913 40.8363 467.712 40.606 467.481C40.2181 467.081 41.2484 465.395 41.2484 464.874C41.2484 464.631 38.2302 462.036 38.3878 460.847L36.9333 463.054V459.355L38.3999 460.107C36.4969 455.316 42.9696 457.56 45.0423 454.928C46.9574 454.88 49.0544 454.795 50.9453 454.928C51.2119 454.952 52.1331 456.02 53.4422 455.729C54.2543 455.547 54.1331 453.946 54.6422 453.448C54.8846 453.206 55.1392 452.951 55.3816 452.708C55.4301 452.66 56.024 452.781 56.6301 452.442C57.1391 452.151 56.2179 450.598 59.0664 451.969L57.5513 450.828C59.4422 447.384 56.7634 444.388 58.327 440.907C57.6119 440.822 56.7876 441.016 56.121 440.907C55.927 440.179 53.6119 436.577 52.9937 435.898C52.6422 435.51 51.7816 435.825 51.6968 435.74C51.4543 435.498 51.2119 435.243 50.9574 435C49.9271 433.994 49.0059 432.211 47.6362 431.325L47.2726 432.053C43.3453 428.754 40.6908 425.855 37.6727 421.707C38.7272 421.671 36.9696 418.82 36.8484 418.638C33.4788 413.678 31.5394 409.057 29.5515 403.247C28.8243 401.124 28.3031 400.942 28.0728 398.08C30.6909 398.335 28.9212 397.461 28.8606 396.188C28.7515 393.386 28.6061 390.232 28.897 387.467C29.2849 383.816 31.8909 379.268 30.2788 375.932C36.9212 354.865 56.9573 339.085 78.9935 337.532C79.7571 338.757 81.7935 338.272 83.0419 338.284C93.3085 338.418 100.86 339.534 111.308 342.505C112.181 342.748 113.914 344.058 114.423 342.699C132.108 350.001 140.75 362.991 155.756 372.245L155.017 372.973H156.496C156.678 373.082 157.041 372.876 157.235 372.973C156.835 374.902 158.193 374.465 159.259 374.974C162.787 376.648 165.89 378.14 169.781 378.88C170.023 378.928 170.277 378.843 170.52 378.88C170.629 379.996 172.629 379.996 172.738 378.88C176.459 379.304 179.211 379.68 183.077 379.62C183.077 383.125 186.12 380.687 187.295 380.517C189.029 380.275 191.065 379.802 192.338 379.644C193.308 379.523 197.974 378.989 198.265 379.05C199.32 379.256 198.811 381.318 200.047 381.087C199.368 377.752 202.411 378.54 203.574 377.873C206.192 376.357 209.962 373.786 211.865 372.233C214.095 370.414 217.586 368.51 219.247 367.066L220.725 365.587C220.98 365.356 221.21 365.077 221.465 364.847C222.919 364.277 224.471 363.719 224.422 361.887C224.653 361.633 224.944 361.414 225.162 361.147L226.628 360.044L225.901 359.68C226.435 359.013 230.616 354.003 230.325 353.773C224.847 354.937 219.695 357.776 214.119 358.612C212.641 358.831 211.307 357.97 210.144 358.176C209.61 358.261 209.732 359.522 209.15 359.668C196.568 362.773 173.635 355.811 162.411 349.334C163.15 349.37 163.405 349.128 162.799 348.582C161.393 347.345 158.241 346.168 156.508 344.895C154.775 343.621 151.902 341.292 149.866 339.728C148.023 336.635 144.29 332.936 141.708 329.212C139.854 326.531 141.284 327.926 140.86 326.544C140.787 326.313 137.538 324.47 137.308 323.475C137.041 322.978 136.811 322.505 136.569 321.995C138.399 320.976 134.726 317.241 135.09 316.828C135.332 316.561 136.847 317.435 136.557 316.088C135.769 316.04 134.787 316.452 134.302 315.615C132.908 313.214 131.744 303.729 131.405 300.576L132.86 302.043C132.484 300.66 135.126 299.654 135.09 299.472C134.241 295.736 132.775 298.283 131.405 299.824C130.751 297.41 130.278 294.499 130.593 292.013C130.775 290.606 132.084 291.006 132.048 290.642C130.993 276.657 137.344 267.318 140.981 254.765C142.253 250.374 143.599 244.116 144.666 239.252C144.726 243.364 146.12 237.42 146.144 235.565C146.144 235.079 146.169 234.57 146.144 234.085L145.405 230.398C143.611 220.537 139.95 214.836 131.381 209.718C128.496 207.996 127.054 207.462 123.417 206.965C121.987 206.771 120.678 205.982 121.042 208.25C120.557 208.214 120.06 208.25 119.563 208.25C119.126 208.25 118.387 207.256 115.829 207.826C113.563 208.323 109.939 209.56 109.236 211.21C108.399 211.501 107.417 210.846 107.757 212.69C107.527 212.944 107.224 213.175 107.017 213.429C104.799 212.859 104.727 214.545 103.672 216.025C96.5206 225.983 101.078 229.573 101.175 239.652C101.211 243.594 100.642 246.056 96.4115 245.692C90.157 245.171 84.8722 238.961 84.1571 232.921C83.9389 231.113 84.7268 230.264 84.7874 229.27C84.8116 228.93 83.5268 229.039 83.3934 228.469C83.0177 226.892 84.5934 223.29 81.9147 223.787C81.7935 218.948 82.2419 217.784 83.3934 213.442L91.5146 198.669C92.06 198.038 92.4964 197.698 92.9933 197.189C97.3448 196.873 94.9933 196.837 96.9933 194.181C98.6175 192.034 101.418 192.216 102.581 189.802C103.09 189.511 103.551 189.317 104.06 189.062L117.078 185.436L119.551 183.883C126.884 183.835 136.023 183.75 143.005 185.897C152.762 188.893 162.071 196.024 167.526 204.563C166.423 205.4 168.374 207.256 168.665 208.602C168.811 209.281 168.144 210.385 168.277 211.21C169.768 211.367 168.302 209.39 169.732 209.742C170.484 212.241 171.284 214.836 172.193 217.286C172.629 218.451 172.253 219.724 174.168 219.336C174.835 221.98 175.441 225.461 175.647 228.202C174.423 230.931 174.399 236.389 175.647 239.276C175.599 240.259 175.72 241.253 175.647 242.236L174.168 241.132C174.156 247.002 172.823 252.739 171.962 258.488C171.926 258.731 171.999 258.986 171.962 259.228C170.811 259.531 170.859 261.945 171.962 262.188C171.029 268.422 168.714 275.032 168.277 281.388C165.09 284.626 167.029 293.116 168.241 297.301C168.568 298.453 169.465 301.788 171.235 301.328C175.005 310.291 182.496 315.7 191.162 319.788C200.629 324.263 208.798 323.147 218.798 321.231C220.132 320.976 221.828 321.583 223.15 321.267C223.719 321.134 223.622 319.8 224.095 319.751C226.641 319.485 227.222 322.505 228.81 316.84C239.137 311.868 246.398 302.383 251.695 292.473C255.331 285.669 254.749 282.443 256.883 276.002C257.161 275.166 258.786 275.93 258.337 274.377L256.858 274.741C256.398 270.46 254.01 266.542 252.616 262.321C252.216 261.096 253.162 259.507 250.943 259.968C250.871 259.507 251.004 258.961 250.943 258.488C251.792 255.238 252.81 248.749 250.943 245.935C251.707 240.744 252.713 238.706 254.628 234.121L255.355 234.861V232.642C255.465 232.435 255.271 232.096 255.355 231.902C257.089 230.519 258.337 228.736 259.755 227.05C260.252 226.468 261.501 226.274 261.804 225.801C263.052 223.824 262.483 218.572 267.174 220.816L266.434 217.869C266.967 217.274 267.501 216.838 267.913 216.389L270.858 215.649V214.557L270.119 214.181C276.907 206.771 278.907 200.706 281.925 191.282C282.652 193.15 283.04 190.433 283.173 189.948C283.876 187.279 284.082 181.494 287.088 182.404C287.428 181.154 285.634 182.064 285.573 181.264C285.537 180.815 287.561 173.574 287.888 172.64C290.931 163.992 296.058 153.695 299.888 145.374C300.179 144.743 301.658 142.803 300.373 142.536C304.397 135.065 309.694 125.313 315.876 119.637C316.106 119.418 317.731 119.467 318.094 118.569L321.04 112.99C322.737 111.134 324.494 109.582 326.203 107.823C327.137 106.853 328.191 105.834 329.161 104.864C329.403 104.621 329.646 104.366 329.9 104.124C332.07 102.656 333.973 101.431 335.064 98.9568C335.573 98.4837 336.021 97.9379 336.543 97.4771C336.87 98.9446 338.336 97.2587 338.761 96.8827C339.827 95.9609 343.9 92.1888 344.845 91.7401C345.597 91.3762 346.179 91.6794 346.882 91.9341L346.142 90.0905C354.882 83.8805 363.088 79.0047 372.712 74.5777C373.573 76.1787 375.015 75.0264 376.069 74.6141C384.227 71.4848 389.488 68.6952 398.19 67.7976C398.639 67.7491 398.457 66.5726 399.015 66.4392C400.639 66.0389 402.809 67.3246 402.954 67.1912C403.148 67.0214 402.809 66.0389 402.954 65.7114C403.087 65.4204 407.984 63.698 408.857 63.4919C408.53 65.9176 409.718 64.7533 411.075 64.6077C414.178 64.2924 416.99 63.2493 419.924 62.752C420.457 62.6671 421.233 62.1698 422.142 62.0121L422.348 62ZM293.913 163.931C292.87 163.398 291.949 164.404 292.446 164.659C293.488 165.193 294.41 164.186 293.913 163.931ZM93.5267 200.112V200.852C94.0115 200.609 94.0115 200.354 93.5267 200.112ZM364.773 228.178C331.718 225.17 318.664 270.168 347.136 286.809C348.821 287.792 355.488 290.836 357.112 290.872C358.409 290.897 359.367 290.278 360.336 290.218C359.912 292.352 361.5 291.819 362.882 291.685C366.179 291.37 375.548 288.895 377.657 286.542C377.9 286.276 377.282 285.815 377.318 285.79C384.094 280.066 387.257 277.725 389.863 268.798C391.766 271.005 392.542 265.305 392.627 264.541C393.391 258.137 392.481 253.164 390.421 247.184C389.827 245.474 387.972 243.315 387.778 242.393C387.233 239.786 390.081 240.974 384.7 238.512C384.506 238.257 384.178 238.039 383.96 237.772C383.742 237.505 383.463 237.287 383.221 237.032C382.857 236.656 382.069 235.831 381.742 235.553C380.421 233.018 376.082 230.398 373.609 229.282C371.136 228.166 368.421 227.669 365.863 226.686C363.306 225.704 365.1 226.48 364.773 228.154V228.178ZM261.077 227.438V228.178C261.561 227.936 261.561 227.681 261.077 227.438ZM390.978 242.951V243.691C391.463 243.448 391.463 243.194 390.978 242.951ZM122.314 390.669V391.409C122.799 391.166 122.799 390.912 122.314 390.669ZM190.956 545.022V545.761C191.441 545.519 191.441 545.264 190.956 545.022Z" fill="#39B3A0"/>
<path d="M550.771 228.918C568.128 234.703 582.71 245.595 595.704 258.221C640.988 302.201 666.055 393.046 621.267 445.334C614.491 453.254 606.431 458.615 598.007 464.534C597.013 463.637 595.716 462.484 594.322 462.315C594.116 461.817 593.728 461.32 593.583 460.835C593.57 460.786 594.273 460.58 594.249 460.228L583.667 452.248L575.874 448.269C575.631 448.027 575.377 447.796 575.134 447.529C573.74 446.038 571.013 444 568.613 442.447C566.783 441.259 562.662 441.198 563.316 437.935C562.056 437.572 562.928 439.549 562.25 439.391C559.631 438.797 557.789 436.48 556.128 435.861C555.244 435.534 554.237 435.861 553.728 435.704C553.498 435.631 553.207 435.776 552.989 435.704C553.353 434.115 552.189 434.03 551.086 433.581C547.304 432.016 544.08 430.537 540.213 428.912C536.953 427.541 530.71 426.061 528.044 424.096C526.614 423.041 527.692 423.175 527.898 421.671C528.092 421.586 528.407 421.755 528.638 421.671C528.941 421.561 529.195 421.21 529.377 420.931C529.607 420.834 529.947 421.04 530.116 420.931H531.595L530.856 420.191C540.359 413.399 548.213 407.249 555.522 397.971C560.843 391.203 565.086 382.797 570.734 376.272C574.746 371.639 583.243 362.457 589.17 369.601C594.613 376.163 589.764 390.984 602.249 393.447C603.146 393.629 609.643 394.441 610.104 394.393C610.637 394.344 610.625 393.168 611.11 392.901C618.504 388.789 622.14 383.938 623.122 375.156C623.631 376.308 625.352 376.721 625.34 374.792C625.34 373.858 623.946 375.654 623.849 374.792C623.667 373.106 624.685 370.935 624.661 368.886C624.625 366.472 623.667 364.277 623.861 361.863L625.34 361.511C623.825 360.978 623.122 359.389 623.207 357.775C623.316 355.726 625.776 354.683 623.122 353.749L621.643 355.228C621.619 353.555 621.085 351.978 623.11 352.269V351.553C619.679 352.148 620.855 349.54 620.152 347.575C619.873 346.787 618.637 347.866 617.946 347.114C610.843 334.245 601.352 330.182 588.419 324.955C586.237 324.069 583.716 321.947 581.037 324.215C580.552 324.178 580.055 324.239 579.558 324.215L578.831 321.267C579.061 323.984 573.522 322.444 571.086 322.747C563.971 323.645 561.268 324.676 555.207 327.902C549.147 331.128 542.225 335.495 537.11 340.443C521.207 355.786 507.62 390.863 480.311 369.977C468.869 361.232 450.032 346.896 441.536 336.028L436.396 326.022L437.839 323.475L435.633 324.215C434.433 318.514 434.057 308.641 440.045 305.73C440.372 304.42 438.796 305.245 438.578 305.003C437.196 303.365 441.778 303.62 439.305 302.055C440.432 300.648 440.772 300.212 442.263 299.096L448.602 296.937C453.766 296.221 464.36 296.379 465.147 293.917C465.511 292.777 484.25 287.464 487.79 285.924C507.959 277.155 523.753 264.407 538.213 248.13L538.577 248.858C539.692 247.936 540.25 246.602 540.432 245.183C540.662 244.916 540.965 244.698 541.171 244.443C541.244 244.358 542.092 244.686 542.456 244.285C543.122 243.545 546.116 238.16 546.335 237.056C546.383 236.814 546.286 236.547 546.335 236.317C547.062 235.104 548.08 233.988 548.553 232.629C548.625 232.423 548.492 232.132 548.553 231.89C549.607 231.574 550.019 230.749 550.031 229.67C550.31 229.427 550.516 229.185 550.771 228.93V228.918Z" fill="#3AB3A1"/>
<path d="M287.27 596.727C287.282 594.641 286.107 594.144 285.052 593.04C284.943 592.931 284.143 593.064 283.573 592.3L284.301 591.888C284.955 590.25 283.004 589.668 282.834 589.341C282.337 588.358 281.84 587.364 281.355 586.381C276.713 577.066 271.561 566.162 268.616 555.926C267.161 550.868 264.98 543.518 265.864 538.375C265.901 538.132 265.828 537.878 265.864 537.635C266.652 536.386 280.264 532.068 282.846 530.988C288.191 554.81 313.209 572.202 334.252 581.845C362.239 594.665 396.093 600.329 426.784 600.414C424.796 608.504 422.081 616.121 430.517 622.149C447.632 634.375 464.65 613.598 468.856 598.195C490.893 596.921 513.426 592.907 534.383 585.848C559.643 577.333 583.255 562.22 598.637 540.097C605.195 530.661 612.976 513.001 611.316 501.455C623.461 515.245 620.019 535.937 615.207 552.238C591.025 633.975 504.396 693.116 419.148 681.557C359.354 673.455 322.494 642.708 287.295 596.727H287.27ZM291.925 582.488C297.719 589.571 309.367 578.995 299.767 573.525C293.161 569.765 288.701 578.546 291.925 582.488ZM554.286 593.913C543.328 595.162 543.935 614.654 558.347 612.058C569.595 610.033 564.771 592.712 554.286 593.913ZM329.124 601.3C321.646 603.568 321.9 621.931 333.961 619.445C345.185 617.14 340.397 597.867 329.124 601.3ZM403.669 628.99C404.724 628.056 405.996 625.182 406.142 623.69C407.378 611.088 386.7 611.015 390.033 625.739C391.087 630.421 400.13 632.119 403.669 628.99ZM495.899 641.519C505.874 632.471 491.608 618.583 482.141 628.117C472.372 637.953 486.347 650.191 495.899 641.519ZM370.494 640.464C363.318 641.665 364.227 650.713 369.73 651.962C383.875 655.176 381.051 638.705 370.494 640.464ZM436.178 655.989C428.105 657.469 429.111 669.197 440.432 669.161C453.366 669.112 450.772 653.309 436.178 655.989Z" fill="#12A191"/>
<path d="M468.844 598.207C469.184 596.982 468.505 594.932 468.844 593.537C468.99 592.955 470.311 593.064 470.323 592.615C471.268 573.9 462.723 556.119 448.517 544.318C436.311 534.178 418.02 529.545 415.899 511.23C414.13 495.984 426.796 475.062 431.39 459.937C433.79 452.041 435.354 443.866 437.196 435.837C441.026 433.727 452.214 441.004 454.069 439.827C456.117 438.53 457.45 431.907 461.862 436.431C466.275 440.955 469.39 475.268 471.996 484.632C479.038 509.957 498.359 524.827 522.71 532.48C529.947 534.748 536.468 535.039 544.116 534.688C544.25 533.851 543.377 534.008 543.377 533.96C543.462 533.087 557.607 530.248 560.346 529.145C572.771 524.135 589.219 512.589 580.589 497.1C572.904 483.31 553.959 492.928 542.286 491.848C522.626 490.029 518.274 469.531 516.82 453.448C516.65 451.508 516.941 449.482 516.82 447.541C516.638 444.558 516.117 441.671 516.08 438.675C516.153 438.627 515.813 437.256 516.504 437.183C516.71 437.159 520.383 437.875 520.686 437.996C523.971 439.294 528.832 441.938 533.062 443.854C536.528 445.419 539.971 447.372 543.401 449.021C545.159 449.87 547.813 450.84 550.043 451.981C552.274 453.121 555.28 454.503 557.425 455.668C557.922 455.935 558.455 456.153 558.904 456.408C561.255 457.718 564.419 460.022 567.025 461.575C567.825 462.048 568.904 462.387 569.983 463.054C572.358 464.534 574.94 466.596 577.364 468.221C578.952 469.289 581.328 470.32 582.528 471.181C582.77 471.35 582.976 471.714 583.267 471.921C584.455 472.782 586.201 474.48 587.692 475.608C589.182 476.736 590.758 477.476 592.116 478.567C592.782 479.101 593.752 479.513 594.334 480.047C594.419 480.132 594.201 480.944 594.552 481.284C597.534 484.171 607.413 492.964 609.097 495.548C609.497 496.166 611.194 500.618 611.316 501.454C612.976 513.013 605.194 530.661 598.637 540.097C583.267 562.22 559.643 577.333 534.383 585.847C513.426 592.918 490.905 596.921 468.856 598.195L468.844 598.207Z" fill="#7ECCBC"/>
<path d="M558.153 214.885C560.65 211.137 562.31 212.956 565.668 214.388C622.261 238.366 666.552 304.117 668.867 364.083C666.309 363.779 667.824 364.883 667.909 366.144C668.127 369.541 668.188 372.815 668.079 376.224C668.03 377.497 666.249 378.37 668.867 378.116C667.727 409.008 657.243 439.828 633.449 460.471C629.098 464.243 614.14 474.747 608.758 474.128C607.764 474.019 606.928 473.206 606.128 472.648C605.813 472.43 604.758 471.132 603.91 470.429C602.54 469.301 601.534 467.93 600.225 466.742C599.267 465.868 598.468 464.934 598.007 464.522C606.431 458.615 614.479 453.242 621.267 445.322C666.055 393.034 640.988 302.201 595.704 258.209C582.71 245.583 568.116 234.703 550.771 228.906C551.619 228.057 551.85 227.014 552.25 225.946C552.516 225.219 553.086 225.146 552.989 223.727C552.977 223.472 553.05 223.157 552.989 222.987C555.995 222.793 556.31 218.426 557.413 216.34C557.656 215.879 557.959 215.164 558.153 214.861V214.885Z" fill="#7ECCBC"/>
<path d="M256.277 467.481C233.61 481.09 214.326 483.674 189.114 486.682L190.58 484.486C190.083 486.439 193.077 486.318 194.508 485.954C194.811 485.881 198.835 480.472 197.235 485.202C210.471 484.074 223.223 480.241 235.877 476.372C236.871 472.673 236.362 475.111 239.319 474.589L256.289 467.481H256.277Z" fill="#12A191"/>
<path d="M314.579 387.71C312.991 386.691 316.482 382.373 317.149 381.779C319.524 379.68 318.821 382.336 319.015 382.531C319.1 382.628 320.046 382.312 320.324 382.664C321.112 383.671 319.355 386.764 321.961 386.242V386.958C320.021 386.691 320.409 387.976 320.446 389.541C320.543 392.986 321.912 396.794 321.209 400.53L322.7 401.015V401.731C322.203 401.67 321.379 401.609 321.209 402.216C320.555 404.702 321.403 411.385 321.209 414.66C321.088 416.892 319.476 422.701 319.682 424.193C319.791 425.03 321.549 424.121 321.221 425.37C320.591 425.455 319.149 424.945 318.967 425.819C318.106 429.991 317.525 434.285 316.082 438.324C315.173 440.858 313.379 442.69 313.076 445.322C312.761 445.225 312.434 444.558 312.373 444.57C320.846 424.666 321.161 403.756 319.015 382.531C316.228 381.815 315.537 385.502 314.591 387.697L314.579 387.71Z" fill="#12A191"/>
<path d="M141.126 254.765C137.478 267.318 131.126 276.657 132.193 290.642C132.217 291.006 130.92 290.606 130.738 292.013C130.411 294.499 130.896 297.41 131.55 299.824C132.92 298.283 134.399 295.736 135.235 299.472C135.271 299.642 132.641 300.648 133.005 302.043L131.55 300.576C131.89 303.729 133.053 313.214 134.447 315.615C134.932 316.452 135.926 316.04 136.702 316.088C136.993 317.435 135.465 316.549 135.235 316.828C134.871 317.241 138.532 320.976 136.714 321.995C127.938 303.79 128.12 289.55 134.144 270.314C135.659 265.487 138.096 258.634 141.138 254.789L141.126 254.765Z" fill="#12A191"/>
<path d="M228.968 316.804C227.38 322.468 226.798 319.448 224.253 319.715C223.78 319.764 223.877 321.098 223.307 321.231C221.986 321.547 220.289 320.94 218.956 321.195C208.956 323.111 200.799 324.227 191.32 319.751C204.12 322.068 216.992 322.553 228.968 316.792V316.804Z" fill="#12A191"/>
<path d="M178.035 449.009L129.32 460.823C143.49 454.419 162.496 449.979 178.035 449.009Z" fill="#12A191"/>
<path d="M254.058 392.137C247.064 399.693 241.743 404.484 232.652 409.129C232.58 409.542 232.907 410.087 232.531 410.476C214.289 420.47 194.944 423.478 174.338 420.943C176.75 418.917 180.374 420.882 182.871 420.967C185.901 421.064 195.659 420.87 198.229 420.215C198.859 420.057 198.774 419.233 198.713 418.735H199.429C199.986 422.762 201.004 418.784 201.222 418.784C201.986 418.784 203.065 419.645 204.883 419.439C213.404 418.456 224.956 413.047 232.652 409.117C233.137 406.437 232.956 408.353 235.028 407.65C235.84 407.371 235.865 406.146 236.834 405.563C242.628 402.107 247.937 398.286 251.864 392.719C252.228 392.197 253.78 390.754 254.058 392.125V392.137Z" fill="#12A191"/>
<path d="M211.986 372.197C210.083 373.749 206.313 376.308 203.695 377.837C202.531 378.516 199.489 377.728 200.168 381.051C198.931 381.281 199.441 379.219 198.386 379.013C198.095 378.953 193.428 379.498 192.459 379.608C191.186 379.765 189.15 380.226 187.416 380.481C186.241 380.651 183.186 383.089 183.198 379.583C193.55 379.426 202.798 376.951 211.986 372.197Z" fill="#12A191"/>
<path d="M107.175 213.405C101.805 220.149 101.006 221.895 101.248 230.786C101.442 237.845 106.145 250.241 92.751 245.923C84.5329 243.267 82.2663 231.235 82.0845 223.739C84.7632 223.254 83.1875 226.856 83.5632 228.421C83.6966 228.991 84.9814 228.882 84.9572 229.221C84.8966 230.216 84.1087 231.065 84.3269 232.872C85.042 238.912 90.3268 245.122 96.5813 245.644C100.812 245.996 101.381 243.533 101.345 239.604C101.248 229.524 96.6904 225.934 103.842 215.976C104.896 214.497 104.969 212.823 107.187 213.381L107.175 213.405Z" fill="#12A191"/>
<path d="M251.101 259.932C253.319 259.483 252.374 261.06 252.774 262.285C254.168 266.506 256.556 270.435 257.016 274.705L258.495 274.341C258.943 275.881 257.319 275.129 257.04 275.966C254.907 282.407 255.489 285.633 251.853 292.437C253.174 286.009 256.022 281.157 255.562 274.317C255.222 269.259 252.034 265.293 251.113 259.944L251.101 259.932Z" fill="#12A191"/>
<path d="M45.1754 454.916C43.1027 457.548 36.6301 455.304 38.5331 460.095L37.0664 459.343V463.042L38.5331 460.835C38.3755 462.024 41.3937 464.619 41.3937 464.862C41.3937 465.371 40.3634 467.069 40.7512 467.469C40.9815 467.7 46.3027 468.901 47.0057 468.973C52.4723 469.58 58.4602 468.876 63.6359 467.093L69.551 463.77C63.248 469.07 56.8844 471.254 48.5209 470.405C43.3573 469.883 32.4119 465.044 36.3149 458.385C36.4119 458.215 38.9088 455.716 39.0785 455.619C40.9209 454.564 43.1997 454.952 45.1997 454.904L45.1754 454.916Z" fill="#12A191"/>
<path d="M171.393 301.291C169.635 301.752 168.738 298.417 168.399 297.264C167.187 293.08 165.247 284.59 168.435 281.351C167.926 288.762 168.544 294.523 171.393 301.291Z" fill="#12A191"/>
<path d="M98.3268 375.896C89.2239 371.857 79.5391 369.443 70.2786 374.416C70.2786 374.356 69.6604 374.065 69.5635 373.749C79.1755 368.243 89.4906 369.917 98.3268 375.884V375.896Z" fill="#12A191"/>
<path d="M75.4419 457.136L78.4237 444.97C78.7752 440.555 77.5267 436.468 76.2298 432.332C75.9752 431.507 75.0177 429.53 76.1813 429.069C80.3267 438.663 81.0903 447.99 75.4419 457.136Z" fill="#12A191"/>
<path d="M300.555 142.5C301.84 142.766 300.361 144.707 300.07 145.338C296.24 153.658 291.112 163.956 288.07 172.603C287.743 173.537 285.719 180.778 285.755 181.227C285.815 182.028 287.609 181.118 287.27 182.367C284.264 181.445 284.058 187.231 283.355 189.911C283.234 190.397 282.834 193.101 282.106 191.246C287.9 173.149 291.318 159.662 300.555 142.5Z" fill="#12A191"/>
<path d="M182.459 488.161C174.52 489.107 167.49 489.386 159.574 491.121C159.138 488.913 160.641 489.799 162.011 489.532C168.374 488.331 176.144 486.366 182.447 488.161H182.459Z" fill="#12A191"/>
<path d="M66.5816 377.376C58.012 385.296 57.115 392.513 59.1999 403.962C57.5878 403.501 57.8665 402.022 57.5756 400.785C55.7938 393.022 58.1696 386.145 62.5695 379.644L66.5816 377.376Z" fill="#12A191"/>
<path d="M107.175 382.543C107.563 381.063 109.235 382.992 109.648 383.392C110.908 384.593 111.769 386.169 113.454 386.97L113.829 384.75C117.187 385.199 116.229 388.086 116.957 389.056C117.078 389.214 119.866 390.16 120.46 390.681L118.993 392.889C115.017 389.505 111.211 385.818 107.187 382.543H107.175Z" fill="#12A191"/>
<path d="M536.747 406.17C533.22 408.741 529.317 411.167 525.135 412.635C522.638 413.508 515.511 415.558 513.135 415.764C512.771 415.8 511.777 415.837 511.656 415.764C511.377 415.594 509.111 410.294 508.99 409.821C508.711 408.681 509.45 408.462 509.438 408.39L512.384 409.129C512.784 410.185 509.438 409.748 510.917 411.325C511.074 411.495 512.42 411.446 512.832 412.052C513.39 412.877 512.202 414.139 512.384 414.284C512.662 414.502 519.135 414.042 518.299 412.077C519.523 411.652 518.687 413.666 519.365 413.532C524.214 412.562 529.899 409.505 534.02 406.764C534.432 406.485 536.601 404.896 536.735 406.158L536.747 406.17Z" fill="#12A191"/>
<path d="M30.4121 375.896C32.0121 379.232 29.406 383.78 29.0303 387.431C28.7394 390.196 28.8848 393.35 28.9939 396.151C29.0424 397.425 30.8121 398.298 28.2061 398.044C27.6364 390.803 28.2424 382.81 30.4242 375.884L30.4121 375.896Z" fill="#12A191"/>
<path d="M119.72 183.859L117.248 185.412L104.229 189.038C108.981 186.625 113.902 183.908 119.732 183.871L119.72 183.859Z" fill="#12A191"/>
<path d="M175.817 242.211C175.501 246.287 174.483 251.126 173.671 255.201C173.417 256.463 173.889 257.967 172.132 258.464C172.992 252.715 174.326 246.978 174.338 241.108L175.817 242.211Z" fill="#12A191"/>
<path d="M114.557 342.663C114.048 344.021 112.302 342.711 111.442 342.469C101.006 339.497 93.4541 338.381 83.1754 338.248C81.9269 338.236 79.8906 338.721 79.127 337.496C90.8117 336.671 103.733 338.199 114.557 342.663Z" fill="#12A191"/>
<path d="M550.771 210.458C550.734 210.7 550.771 210.955 550.771 211.198C550.528 211.416 550.177 211.647 550.031 211.938L551.728 202.198L554.455 195.697C553.704 201.07 551.34 206.152 550.771 210.47V210.458Z" fill="#12A191"/>
<path d="M193.538 446.79L193.95 447.566C189.429 449.312 184.289 448.73 180.253 449.009C184.313 447.384 189.465 447.626 193.538 446.79Z" fill="#12A191"/>
<path d="M51.8179 435.716C51.9027 435.801 52.7633 435.485 53.1148 435.874C53.733 436.553 56.0481 440.155 56.2421 440.883C56.9209 441.004 57.7451 440.798 58.4481 440.883C56.8724 444.364 59.5511 447.372 57.6724 450.804L59.1875 451.944C56.339 450.562 57.2602 452.126 56.7512 452.417C56.1451 452.769 55.5512 452.648 55.5027 452.684C57.3087 448.888 57.3208 444.897 56.2421 440.871C53.7815 440.446 53.9269 437.559 51.8179 435.704V435.716Z" fill="#12A191"/>
<path d="M135.962 406.91L148.653 412.149C150.059 415.545 155.332 411.943 155.162 415.024C156.435 415.327 155.635 413.908 155.974 413.641C156.253 413.411 157.332 414.527 158.108 414.308L156.641 416.516C148.605 413.811 143.199 411.531 135.975 406.91H135.962Z" fill="#12A191"/>
<path d="M98.3266 484.462L96.8478 488.889L99.0539 490.369L95.3812 488.889L82.8237 514.736C85.4055 503.892 91.454 493.146 98.3266 484.45V484.462Z" fill="#12A191"/>
<path d="M527.898 421.683C527.704 423.187 526.613 423.053 528.044 424.108C530.71 426.073 536.953 427.553 540.213 428.924C544.08 430.549 547.304 432.029 551.086 433.593C552.189 434.054 553.34 434.127 552.989 435.716C552.261 435.449 551.522 435.267 550.771 434.976C548.298 434.03 545.849 432.987 543.389 432.016C539.389 430.452 536.843 428.62 532.322 427.589C531.886 427.492 530.977 427.723 530.844 427.589C530.734 427.48 531.074 426.498 530.747 426.243C529.413 425.236 526.189 425.418 524.953 423.526C525.716 422.568 526.831 422.168 527.886 421.683H527.898Z" fill="#12A191"/>
<path d="M251.101 258.464C250.531 254.098 250.459 250.265 251.101 245.911C252.968 248.725 251.949 255.214 251.101 258.464Z" fill="#12A191"/>
<path d="M91.6719 198.632L83.5508 213.405C85.4296 206.31 86.9689 204.066 91.6719 198.632Z" fill="#12A191"/>
<path d="M289.488 472.648C289.294 473.146 289.707 474.698 289.488 474.868C288.749 475.462 285.622 473.316 286.179 477.755C282.773 477.294 277.985 480.629 274.592 482.303C271.004 484.074 267.101 486.196 263.137 488.028C262.192 488.465 260.713 489.738 259.949 488.161C270.264 483.443 280.252 479.513 289.476 472.648H289.488Z" fill="#12A191"/>
<path d="M556.674 185.339C556.504 188.104 556.177 193.041 554.456 194.945C554.916 191.452 555.207 187.777 555.195 184.235L556.674 185.339Z" fill="#12A191"/>
<path d="M668.867 364.07C669.036 368.57 669.036 373.604 668.867 378.104C666.249 378.358 668.03 377.473 668.079 376.212C668.2 372.815 668.127 369.528 667.909 366.132C667.824 364.871 666.309 363.767 668.867 364.07Z" fill="#3AB3A1"/>
<path d="M119.72 208.238C116.242 208.881 112.727 210.045 109.381 211.198C108.363 213.587 108.254 212.289 107.902 212.677C107.563 210.846 108.545 211.489 109.381 211.198C110.084 209.548 113.708 208.323 115.975 207.814C118.533 207.244 119.272 208.226 119.708 208.238H119.72Z" fill="#12A191"/>
<path d="M174.35 219.312C172.435 219.7 172.811 218.426 172.374 217.262C171.465 214.812 170.665 212.216 169.914 209.718C168.484 209.366 169.938 211.343 168.459 211.185C168.326 210.373 168.993 209.257 168.847 208.578C168.556 207.231 166.605 205.364 167.708 204.539C170.544 208.99 173.053 214.193 174.35 219.312Z" fill="#12A191"/>
<path d="M266.604 217.844L267.343 220.792C262.652 218.548 263.222 223.787 261.973 225.777C261.67 226.25 260.422 226.444 259.925 227.026C258.519 228.712 257.258 230.495 255.525 231.877C258.761 225.461 262.288 222.659 266.591 217.844H266.604Z" fill="#12A191"/>
<path d="M175.817 239.252C174.568 236.365 174.593 230.907 175.817 228.178C176.059 231.55 175.975 235.844 175.817 239.252Z" fill="#12A191"/>
<path d="M556.674 183.131C555.425 180.245 555.45 174.787 556.674 172.058C556.783 175.624 556.844 179.59 556.674 183.131Z" fill="#12A191"/>
<path d="M321.221 112.966L318.276 118.545C317.9 119.455 316.288 119.394 316.058 119.612C316.821 117.199 319.415 114.943 321.221 112.966Z" fill="#12A191"/>
<path d="M29.6729 403.222C31.6607 409.032 33.588 413.653 36.9698 418.614C37.091 418.796 38.8485 421.646 37.794 421.683C33.9031 416.334 29.891 410.002 29.6729 403.222Z" fill="#12A191"/>
<path d="M268.083 382.543L271.04 372.197C271.816 377.873 270.276 377.946 268.083 382.543Z" fill="#12A191"/>
<path d="M137.441 323.451C137.672 324.433 140.92 326.289 140.993 326.519C141.417 327.902 139.987 326.519 141.841 329.188C144.411 332.899 148.144 336.611 149.999 339.703C152.035 341.268 154.908 343.609 156.641 344.87C158.375 346.132 161.526 347.32 162.932 348.558C163.55 349.103 163.284 349.334 162.544 349.31C159.587 347.611 158.472 346.229 156.641 344.882C153.756 342.748 152.169 343.342 149.999 339.716C143.09 334.379 141.514 331.25 137.454 323.463L137.441 323.451Z" fill="#12A191"/>
<path d="M131.538 209.718C127.951 208.056 124.872 208.481 121.199 208.238C120.836 205.982 122.145 206.758 123.575 206.952C127.199 207.462 128.641 207.983 131.538 209.706V209.718Z" fill="#12A191"/>
<path d="M102.751 189.778C101.587 192.204 98.7873 192.01 97.1631 194.157C95.1631 196.801 97.5146 196.849 93.1631 197.165C97.1509 193.053 97.8055 192.628 102.763 189.778H102.751Z" fill="#12A191"/>
<path d="M146.302 235.565C146.29 237.432 144.884 243.376 144.823 239.252C145.223 237.445 143.732 235.007 146.302 235.565Z" fill="#12A191"/>
<path d="M169.914 378.843C166.011 378.103 162.92 376.612 159.393 374.938C158.326 374.428 156.969 374.865 157.369 372.937C161.417 375.192 165.902 376.539 169.914 378.843Z" fill="#12A191"/>
<path d="M575.873 448.269L583.667 452.248L594.249 460.228C594.273 460.58 593.57 460.786 593.582 460.835H592.843C591.17 457.73 587.413 456.832 584.722 454.928C583.934 454.37 583.037 453.849 582.504 453.448C580.516 451.981 578.589 450.489 576.601 449.021C576.358 448.839 576.092 448.512 575.861 448.281L575.873 448.269Z" fill="#12A191"/>
<path d="M131.538 502.922L127.854 505.882C128.205 505.506 128.241 504.341 128.775 503.868C129.635 503.104 130.92 503.31 131.538 502.934V502.922Z" fill="#12A191"/>
<path d="M172.132 262.151C171.029 261.909 170.981 259.507 172.132 259.192C172.108 259.349 172.362 260.647 172.132 262.151Z" fill="#12A191"/>
<path d="M61.4179 408.389C60.2421 406.776 59.9149 408.122 59.1997 404.702C60.727 405.272 60.7997 407.092 61.4179 408.389Z" fill="#12A191"/>
<path d="M54.7755 453.448C54.2786 453.933 54.3998 455.547 53.5756 455.728C52.2665 456.02 51.3453 454.94 51.0786 454.928L54.7634 453.448H54.7755Z" fill="#12A191"/>
<path d="M553.729 435.716C554.238 435.873 555.244 435.534 556.128 435.874C557.789 436.492 559.631 438.809 562.25 439.403C562.928 439.561 562.056 437.584 563.316 437.948C562.662 441.21 566.795 441.271 568.613 442.459C571.001 444.012 573.74 446.05 575.134 447.542C574.334 447.457 573.619 447.202 572.916 446.802C566.504 443.102 560.492 438.869 553.729 435.728V435.716Z" fill="#12A191"/>
<path d="M146.302 234.085C146.302 233.891 145.732 231.307 145.562 230.398L146.302 234.085Z" fill="#12A191"/>
<path d="M221.586 364.81C222.313 364.143 223.889 362.566 224.543 361.851C224.604 363.682 223.04 364.228 221.586 364.81Z" fill="#12A191"/>
<path d="M119.72 515.488C119.732 515.415 118.641 514.711 119.054 514.166C119.987 512.941 122.387 511.303 123.405 510.321L119.72 515.488Z" fill="#12A191"/>
<path d="M270.301 214.145L271.028 214.521V215.613L268.083 216.352C268.87 215.479 269.658 214.824 270.301 214.133V214.145Z" fill="#12A191"/>
<path d="M255.537 232.605V234.825L254.798 234.085C255.065 233.454 255.319 233.078 255.537 232.605Z" fill="#12A191"/>
<path d="M172.871 378.843C172.762 379.959 170.762 379.959 170.653 378.843C171.344 378.953 172.156 378.759 172.871 378.843Z" fill="#12A191"/>
<path d="M126.362 507.361C125.878 507.859 125.369 508.344 124.884 508.841C124.702 507.276 124.787 507.192 126.362 507.361Z" fill="#12A191"/>
<path d="M270.301 457.135L269.562 456.408L273.258 454.176C272.265 455.11 271.549 456.044 270.301 457.135Z" fill="#12A191"/>
<path d="M137.442 499.235C137.248 499.332 137.042 499.793 136.702 499.975V498.495L137.442 499.235Z" fill="#12A191"/>
<path d="M156.629 372.937H155.15L155.89 372.197C156.181 372.379 156.387 372.791 156.629 372.937Z" fill="#12A191"/>
<path d="M556.674 171.306L555.935 170.93L556.674 169.826C556.698 170.311 556.65 170.808 556.674 171.306Z" fill="#12A191"/>
<path d="M185.417 488.161L186.156 487.421C186.156 487.421 185.974 488.088 185.417 488.161Z" fill="#12A191"/>
<path d="M219.368 367.03C219.78 366.666 220.228 366.096 220.846 365.55L219.368 367.03Z" fill="#12A191"/>
<path d="M133.017 502.194L134.496 500.715C134.363 500.787 133.89 501.673 133.017 502.194Z" fill="#12A191"/>
<path d="M225.271 361.123C225.574 360.759 225.695 360.031 226.01 359.643L226.738 360.007L225.271 361.111V361.123Z" fill="#12A191"/>
<path d="M326.397 107.787L329.355 104.827C328.385 105.785 327.342 106.816 326.397 107.787Z" fill="#12A191"/>
<path d="M274.725 452.708L276.204 451.229C275.707 451.738 275.246 452.199 274.725 452.708Z" fill="#12A191"/>
<path d="M51.0784 434.976C49.8178 434.042 48.5814 433.023 47.3936 432.017L47.7572 431.289C49.139 432.174 50.0481 433.957 51.0784 434.964V434.976Z" fill="#12A191"/>
<path d="M121.199 395.096C120.933 394.866 120.727 394.587 120.46 394.356L121.199 395.096Z" fill="#12A191"/>
<path d="M364.772 228.178C370.869 228.736 377.136 231.623 381.754 235.565C382.081 235.844 382.869 236.656 383.233 237.044L383.972 237.784C384.19 238.051 384.518 238.269 384.712 238.524C391.306 247.257 392.906 258.44 389.875 268.81C387.269 277.725 384.106 280.066 377.33 285.802C371.694 289.053 366.663 289.829 360.348 290.23C359.379 290.29 358.421 290.909 357.124 290.885C355.488 290.848 348.833 287.804 347.148 286.821C318.664 270.18 331.73 225.182 364.785 228.19L364.772 228.178ZM361.645 243.145C339.791 244.006 341.524 278.307 363.669 276.184C384.154 274.219 381.342 242.369 361.645 243.145Z" fill="#FDF9EE"/>
<path d="M423.827 458.615C420.166 455.947 421.815 456.323 421.681 453.885C421.645 453.266 419.245 453.824 420.142 451.969L423.827 454.188C423.415 452.866 424.663 451.047 424.615 450.161C424.566 449.361 422.76 450.271 423.1 449.021C427.027 449.579 424.506 447.445 424.724 445.116C424.893 443.357 426.639 441.902 426.736 440.519C426.796 439.694 424.833 436.795 424.433 436.565C423.887 436.25 421.306 438.421 422.36 435.352C422.675 434.43 423.827 435.946 424.578 435.716L423.839 433.508C428.893 433.86 426.651 433.654 427.524 429.809L425.318 430.549V427.602L426.772 429.069C427.803 427.092 426.712 425.467 426.748 423.563C426.796 421.149 429.148 419.803 425.306 420.203C425.633 418.529 427.003 413.811 426.833 412.538C426.772 412.137 423.487 411.955 426.784 409.129C430.796 425.528 428.712 442.702 423.827 458.615ZM427.148 418.735V419.475C427.633 419.233 427.633 418.978 427.148 418.735Z" fill="#12A191"/>
<path d="M479.184 279.144C466.335 285.172 451.875 283.959 438.59 286.53C438.311 283.292 444.251 285.827 443.766 282.843C445.099 282.685 443.766 284.201 445.548 284.371C446.845 284.505 448.323 284.177 449.669 284.298L448.917 282.831C454.687 284.383 461.414 282.758 467.257 281.594C471.111 280.83 475.487 279.944 479.184 279.132V279.144Z" fill="#12A191"/>
<path d="M382.494 458.615C383.669 459.816 382.554 463.139 382.142 464.534C381.342 467.263 379.415 470.489 378.821 473.036C378.663 473.728 380.639 472.842 380.276 474.104L378.021 474.589C377.585 477.464 371.233 494.59 372.166 495.511C372.53 495.875 374.615 494.808 374.373 496.263H371.415C371.294 502.449 370.348 508.513 370.688 514.736C369.003 514.214 369.257 512.831 369.173 511.449C368.142 494.335 377.657 474.892 382.494 458.603V458.615Z" fill="#12A191"/>
<path d="M407.584 512.528C404.723 512.565 405.923 513.426 405.802 511.291C405.136 499.902 412.202 483.94 416.505 473.97C417.766 471.059 418.966 468.67 420.869 466.002C417.754 478.07 409.245 490.041 407.608 502.582C407.16 505.991 407.608 509.193 407.584 512.54V512.528Z" fill="#12A191"/>
<path d="M384.7 238.524C390.081 240.986 387.233 239.798 387.778 242.405C387.972 243.327 389.839 245.486 390.421 247.196C392.481 253.176 393.391 258.149 392.627 264.553C392.542 265.305 391.766 271.018 389.863 268.81C392.894 258.452 391.281 247.269 384.7 238.524Z" fill="#12A191"/>
<path d="M362.554 430.549C360.942 438.19 358.07 445.504 355.173 452.708L353.354 451.229L355.221 450.756C357.451 444.412 359.209 438.032 360.991 431.556C361.415 430.015 360.373 429.13 362.554 430.549Z" fill="#12A191"/>
<path d="M574.395 505.142C573.328 500.072 573.025 502.037 570.564 500.63C569.837 500.217 570.031 499.538 568.892 499.174C563.971 497.61 559.813 499.938 554.952 500.848C553.68 501.091 553.074 502.17 552.25 499.975C558.14 499.053 565.704 495.778 571.377 498.932C574.577 500.715 574.031 502.267 574.395 505.142Z" fill="#12A191"/>
<path d="M370.675 515.488C371.051 520.497 374.784 536.507 378.263 539.648C378.784 540.122 379.972 539.855 380.639 540.558C381.027 540.971 379.087 542.644 382.481 542.074L380.275 543.542C374.881 536.374 370.494 527.35 369.657 518.277C369.536 516.967 368.772 516.094 370.687 515.476L370.675 515.488Z" fill="#12A191"/>
<path d="M377.318 285.791C377.318 285.791 377.9 286.264 377.657 286.543C375.56 288.896 366.178 291.37 362.881 291.685C361.5 291.819 359.912 292.352 360.336 290.218C366.651 289.817 371.681 289.041 377.318 285.791Z" fill="#12A191"/>
<path d="M551.51 499.975C551.922 502.207 550.383 501.394 548.965 501.455C542.395 501.709 537.086 501.224 530.844 499.223C530.941 498.908 531.595 498.556 531.595 498.495C538.868 500.448 544.044 500.982 551.522 499.975H551.51Z" fill="#12A191"/>
<path d="M508.699 447.529C506.444 447.942 507.305 446.402 507.22 444.982C506.989 440.713 506.396 437.062 505.959 432.902C505.838 431.713 505.099 429.833 506.48 429.069C507.608 435.134 508.177 441.38 508.699 447.529Z" fill="#12A191"/>
<path d="M386.178 445.322C386.251 439.282 386.724 434.285 386.178 428.329L387.657 427.238C388.299 433.351 387.548 439.355 386.178 445.322Z" fill="#12A191"/>
<path d="M364.773 228.178C365.112 226.504 363.306 225.728 365.864 226.71C368.421 227.693 371.088 228.166 373.609 229.306C376.13 230.446 380.421 233.042 381.742 235.577C377.136 231.635 370.87 228.748 364.761 228.19L364.773 228.178Z" fill="#12A191"/>
<path d="M304.991 511.788C301.222 515.33 288.07 519.988 282.846 522.134C283.355 521.019 283.04 520.691 284.276 520.145C288.519 518.277 293.646 516.87 297.828 514.748C298.288 514.517 298.337 513.559 299.282 513.074C300.131 512.625 304.131 510.733 305.004 511.801L304.991 511.788Z" fill="#12A191"/>
<path d="M365.512 408.389C365.16 408.474 364.821 408.777 364.773 409.129C364.518 410.973 365.524 413.762 364.033 415.036C364.191 411.033 364.494 406.995 364.773 403.222C365.876 404.047 365.718 407.031 365.512 408.389Z" fill="#12A191"/>
<path d="M503.535 267.318C498.032 270.787 485.911 277.858 479.911 279.132C480.311 275.226 484.214 276.475 485.741 275.808C489.111 274.329 494.226 271.83 496.723 269.55L503.535 267.318Z" fill="#12A191"/>
<path d="M365.512 399.523C363.548 398.941 364.506 397.874 364.469 396.734C364.372 393.75 364.615 390.706 364.772 387.71C365.888 390.766 365.827 396.127 365.512 399.523Z" fill="#12A191"/>
<path d="M460.723 417.256C460.99 415.897 462.59 417.316 462.929 417.838C464.202 419.803 465.766 423.223 466.929 425.455C467.305 426.183 468.965 427.832 467.378 428.329C465.378 424.448 463.22 420.943 460.735 417.256H460.723Z" fill="#12A191"/>
<path d="M422.348 461.563C422.033 462.363 422.469 463.746 421.608 465.25C420.687 463.297 419.063 459.84 421.972 460.835L422.348 461.563Z" fill="#12A191"/>
<path d="M408.323 519.175C407.79 518.01 406.99 517.392 406.857 515.718C406.723 514.129 407.584 513.389 407.584 513.268L408.323 519.175Z" fill="#12A191"/>
<path d="M313.112 506.621C310.761 508.247 308.579 510.248 305.73 511.048C307.658 509.132 307.076 510.127 308.906 508.877C309.621 508.38 311.246 504.887 313.112 506.621Z" fill="#12A191"/>
<path d="M468.844 430.549C468.905 430.549 469.208 429.93 469.511 429.833C474.856 444.291 474.99 460.083 477.656 475.171C477.802 476.02 479.305 475.511 479.911 475.608C480.25 476.845 478.493 475.947 478.371 476.784C478.226 477.912 479.474 479.998 479.232 481.454L480.638 481.114L480.202 483.734L485.087 497.015C472.65 476.602 475.693 452.696 468.844 430.549Z" fill="#12A191"/>
<path d="M454.081 409.869C454.444 408.353 455.959 410.67 456.262 411.009C457.729 412.707 458.723 413.92 459.984 415.776C457.523 414.284 456.081 411.834 454.081 409.869Z" fill="#12A191"/>
<path d="M293.913 163.931C294.41 164.186 293.476 165.181 292.446 164.659C291.949 164.404 292.882 163.41 293.913 163.931Z" fill="#12A191"/>
<path d="M93.5269 200.112C94.0117 200.354 94.0117 200.609 93.5269 200.852V200.112Z" fill="#12A191"/>
<path d="M383.96 237.784L383.221 237.044C383.463 237.299 383.742 237.517 383.96 237.784Z" fill="#12A191"/>
<path d="M122.314 390.669C122.799 390.912 122.799 391.166 122.314 391.409V390.669Z" fill="#12A191"/>
<path d="M261.077 227.438C261.562 227.681 261.562 227.936 261.077 228.178V227.438Z" fill="#12A191"/>
<path d="M390.979 242.951C391.463 243.194 391.463 243.448 390.979 243.691V242.951Z" fill="#12A191"/>
<path d="M439.317 302.031C441.79 303.596 437.208 303.353 438.59 304.978C438.796 305.233 440.372 304.396 440.057 305.706C434.069 308.617 434.432 318.49 435.644 324.191L437.851 323.451L436.408 325.998L441.547 336.004C432.784 324.797 429.669 314.172 439.329 302.031H439.317Z" fill="#12A191"/>
<path d="M617.946 347.09C618.637 347.842 619.873 346.775 620.152 347.551C620.855 349.516 619.679 352.123 623.109 351.529V352.245C621.085 351.954 621.619 353.53 621.643 355.204L623.122 353.724C625.776 354.671 623.315 355.701 623.206 357.751C623.122 359.364 623.825 360.953 625.34 361.487L623.861 361.839C623.667 364.252 624.637 366.448 624.661 368.861C624.685 370.911 623.667 373.082 623.849 374.768C623.946 375.641 625.328 373.846 625.34 374.768C625.352 376.697 623.631 376.284 623.122 375.132C624.103 366.399 622.225 354.792 617.958 347.066L617.946 347.09Z" fill="#12A191"/>
<path d="M579.558 324.19C570.625 323.681 563.655 324.566 555.207 327.878C561.268 324.651 563.971 323.62 571.086 322.723C573.522 322.42 579.061 323.96 578.831 321.243L579.558 324.19Z" fill="#12A191"/>
<path d="M465.16 293.917C464.372 296.379 453.79 296.209 448.614 296.937L442.275 299.096C448.566 294.414 457.523 295.154 465.16 293.929V293.917Z" fill="#12A191"/>
<path d="M588.419 324.93C585.934 324.87 583.522 324.397 581.037 324.191C583.716 321.922 586.237 324.045 588.419 324.93Z" fill="#12A191"/>
<path d="M546.347 237.044C546.129 238.136 543.135 243.533 542.468 244.273C542.104 244.674 541.244 244.346 541.183 244.431L546.347 237.044Z" fill="#12A191"/>
<path d="M538.226 248.118C538.953 247.306 539.607 246.141 540.444 245.159C540.274 246.578 539.704 247.924 538.589 248.834L538.226 248.106V248.118Z" fill="#12A191"/>
<path d="M530.844 420.203L531.583 420.931H530.104C530.347 420.785 530.553 420.409 530.844 420.203Z" fill="#12A191"/>
<path d="M528.625 421.683C528.747 421.307 529.013 421.088 529.365 420.943C529.183 421.222 528.929 421.574 528.625 421.683Z" fill="#12A191"/>
<path d="M282.846 530.988C313.149 518.326 332.955 505.772 351.052 477.755C361.548 461.502 369.488 443.951 372.542 424.654L373.985 423.356C378.009 424.072 378.857 428.354 379.112 431.907C380.518 451.787 369.354 469.119 364.409 487.409C355.039 522.037 367.1 551.717 398.239 568.782C407.294 573.743 427.063 578.522 428.263 590.444C428.687 594.665 427.705 596.691 426.784 600.414C396.106 600.329 362.239 594.665 334.252 581.845C313.21 572.202 288.192 554.81 282.846 530.988Z" fill="#7ECCBC"/>
<path d="M567.752 333.797L568.116 337.496C568.043 332.05 571.377 335.665 574.043 335.155C574.54 335.058 574.225 333.748 574.771 333.772C575.825 333.809 576.371 334.973 576.977 335.01C577.461 335.046 582.54 333.081 583.243 333.809C583.473 334.051 583.025 335.507 583.28 336.004C583.486 336.404 590.116 335.81 592.189 336.332C592.904 336.514 604.055 342.978 604.661 343.403C608.31 345.986 612.079 352.487 613.522 356.696L614.273 367.77C615.11 367.903 614.952 367.03 615 367.03C615.849 367.078 615.74 369.977 615.74 370.717C615.425 370.802 614.358 370.584 614.261 370.717C614.043 371.032 613.582 377.558 614.261 378.104C614.031 378.807 613.716 379.122 613.522 379.583L612.782 380.675L613.522 381.063C613.304 381.512 611.958 382.494 611.304 383.283C599.546 389.941 602.467 376.296 599.861 369.989C599.582 369.31 595.898 363.088 595.607 362.797C595.267 362.469 593.643 362.19 592.855 361.863C581.013 356.842 574.213 360.529 566.31 369.638C555.51 382.082 551.134 395.69 536.759 406.17C536.613 404.908 534.444 406.497 534.044 406.776C529.922 409.517 524.238 412.586 519.389 413.544C518.71 413.678 519.547 411.664 518.323 412.089C519.147 414.042 512.674 414.515 512.408 414.296C512.226 414.151 513.401 412.877 512.856 412.064C512.456 411.47 511.098 411.507 510.941 411.337C509.462 409.76 512.808 410.197 512.408 409.141L509.462 408.402C509.365 407.977 509.535 407.395 509.462 406.922C509.195 405.187 507.498 403.392 507.244 402.095C507.183 401.791 509.692 401.949 508.723 400.275C508.662 400.178 507.608 401.064 506.492 400.02C504.905 398.529 503.208 394.102 501.874 392.343C501.571 391.943 500.662 392.222 500.614 392.149C499.874 391.166 499.111 390.196 498.396 389.189C499.462 388.874 497.862 387.467 498.783 386.921C501.002 385.611 507.559 386.642 507.995 383.27C508.214 383.186 508.529 383.355 508.735 383.27L510.214 382.531C510.844 382.215 515.668 379.195 516.117 378.843L517.595 377.364C536.759 360.444 537.777 339.873 567.789 333.785L567.752 333.797ZM511.656 402.495H508.711V403.222H511.656V402.495ZM512.383 407.65C512.917 406.606 511.911 405.685 511.656 406.182C511.123 407.225 512.129 408.147 512.383 407.65Z" fill="#3AB3A1"/>
<path d="M440.056 415.776C441.426 414.721 442.032 415.085 443.414 415.703C444.638 416.249 449.972 419.924 451.123 420.943C452.226 421.913 453.717 422.398 453.268 424.145C452.941 425.418 450.226 426.874 448.905 426.85C448.808 426.85 448.081 426.134 447.123 426.085C437.79 425.528 438.675 425.443 440.056 415.776Z" fill="#3AB3A1"/>
<path d="M567.752 333.797C580.164 331.286 587.97 332.584 598.613 338.891C600.843 340.213 603.049 340.928 604.649 343.391C604.043 342.966 592.892 336.501 592.176 336.319C590.104 335.798 583.473 336.38 583.267 335.992C583.013 335.507 583.461 334.039 583.231 333.797C582.528 333.069 577.449 335.034 576.964 334.997C576.358 334.949 575.813 333.797 574.758 333.76C574.213 333.736 574.528 335.046 574.031 335.143C571.364 335.652 568.019 332.038 568.104 337.484L567.74 333.784L567.752 333.797Z" fill="#12A191"/>
<path d="M592.843 361.863C593.631 362.191 595.255 362.469 595.595 362.797C595.886 363.088 599.57 369.31 599.849 369.989C602.455 376.296 599.534 389.941 611.292 383.283C610.576 384.144 610.892 385.733 607.922 386.206C599.098 387.601 600.674 376.296 598.916 370.935C597.777 367.467 595.134 364.592 592.843 361.875V361.863Z" fill="#12A191"/>
<path d="M500.577 392.137C500.638 392.21 501.547 391.931 501.838 392.331C503.171 394.09 504.856 398.517 506.456 400.008C507.571 401.051 508.638 400.166 508.686 400.263C509.668 401.937 507.159 401.779 507.207 402.082C507.462 403.38 509.159 405.175 509.426 406.91C507.656 406.97 507.486 405.939 506.844 404.69C504.698 400.591 502.989 396.127 500.577 392.137Z" fill="#12A191"/>
<path d="M507.959 383.283C507.535 386.642 500.965 385.624 498.747 386.933C497.826 387.479 499.426 388.874 498.359 389.202C498.008 388.704 495.971 385.648 496.141 385.514C500.359 385.927 504.092 384.823 507.947 383.295L507.959 383.283Z" fill="#12A191"/>
<path d="M614.989 367.03C614.989 367.03 615.098 367.891 614.261 367.77L613.51 356.696C614.722 360.238 615.389 363.209 614.989 367.042V367.03Z" fill="#12A191"/>
<path d="M440.056 415.036C440.19 414.769 439.911 414.017 440.056 413.581C441.753 412.246 450.165 418.942 451.111 420.943C449.947 419.924 444.614 416.249 443.402 415.703C442.02 415.085 441.414 414.721 440.044 415.776V415.036H440.056Z" fill="#39B3A0"/>
<path d="M440.057 415.776C438.675 425.455 437.79 425.528 447.124 426.086C448.081 426.146 448.808 426.85 448.905 426.85C440.53 427.129 437.366 427.978 438.639 418.408C438.857 416.734 439.427 416.273 440.057 415.036V415.776Z" fill="#12A191"/>
<path d="M615.728 370.717C615.728 371.445 615.8 372.221 615.728 372.937L614.988 373.676C614.709 375.362 614.915 376.139 614.249 378.103C613.57 377.558 614.031 371.02 614.249 370.717C614.346 370.584 615.412 370.802 615.728 370.717Z" fill="#12A191"/>
<path d="M552.25 225.959L552.989 223.739C553.086 225.158 552.516 225.231 552.25 225.959Z" fill="#FFFDF3"/>
<path d="M613.509 381.063L612.77 380.675L613.509 379.583C613.352 379.935 613.667 380.748 613.509 381.063Z" fill="#12A191"/>
<path d="M510.177 382.543L508.698 383.283C509.074 383.113 509.753 382.761 510.177 382.543Z" fill="#12A191"/>
<path d="M614.988 373.676L615.728 372.937C615.667 373.47 615 373.628 614.988 373.676Z" fill="#3AB3A1"/>
<path d="M516.08 378.843C516.371 378.613 516.989 377.873 517.559 377.364L516.08 378.843Z" fill="#12A191"/>
<path d="M364.772 409.129C364.821 408.778 365.16 408.474 365.512 408.389C365.463 408.741 365.124 409.044 364.772 409.129Z" fill="#39B3A0"/>
<path d="M361.645 243.145C381.342 242.369 384.166 274.22 363.669 276.184C341.524 278.307 339.791 243.994 361.645 243.145Z" fill="#12A191"/>
<path d="M427.147 418.735C427.632 418.978 427.632 419.233 427.147 419.475V418.735Z" fill="#39B3A0"/>
<path d="M511.656 402.495H508.71V403.223H511.656V402.495Z" fill="#12A191"/>
<path d="M512.383 407.65C512.129 408.147 511.135 407.213 511.656 406.182C511.91 405.685 512.904 406.619 512.383 407.65Z" fill="#12A191"/>
</g>
</g>
<defs>
<clipPath id="clip0_504_8041">
<rect width="669" height="516" fill="white"/>
</clipPath>
<clipPath id="clip1_504_8041">
<rect width="641" height="621" fill="white" transform="translate(28 62)"/>
</clipPath>
</defs>
</svg>
