<svg width="669" height="516" viewBox="0 0 669 516" fill="none" xmlns="http://www.w3.org/2000/svg">
<g clip-path="url(#clip0_504_11319)">
<rect width="669" height="516" fill="#D9D9D9" fill-opacity="0.6"/>
<g clip-path="url(#clip1_504_11319)">
<path d="M151.51 196.89C194.39 180.13 228.59 188.63 272.46 183.42C277.23 182.85 280.54 181.9 285 181.31C335.12 174.7 383.74 170.78 434.42 169.64C455.59 169.17 479.33 173.59 499.35 167.63C524.42 160.16 543.4 142.56 567.19 132.92C585.43 125.53 612.61 117.64 632.18 117.37C634.38 117.34 637.08 117.95 636.88 120.51H637.9C637.21 117.08 642.79 118.23 645.03 119.14C646.23 119.62 646.11 121.34 647.03 121.55C648.33 121.84 650.91 121.18 651.46 121.62C651.77 121.86 652.45 128.77 652.36 129.41C652.19 130.59 648.45 138.73 648.05 139.09C641.99 144.45 634.7 151.49 630.56 159.71C629.31 162.19 629.21 164.49 628.42 166.79C628.11 167.71 626.43 167.61 626.41 168.21C626.39 169.23 627.51 170.61 627.37 172.19C626.55 181.84 624.81 193.03 632.76 200.42C633.44 201.05 634.53 200.87 634.77 201.07C635.16 201.39 635.46 201.84 635.82 202.12L636.87 203.17C637.27 203.46 637.57 203.99 637.92 204.22C635.36 210.55 638 207.44 642.14 208.89C648.83 211.23 655.63 214.13 661.19 215.93C664.22 216.91 666.92 218.99 670.34 218.87C670.95 220.21 665.93 220.01 668.26 221.99C668.82 222.46 680.56 217.95 677.68 227.22C681.94 223.63 687.73 226.61 692.5 228.4C705.07 233.1 721.45 239.52 733.53 246.2C739.24 249.36 742.71 250.12 748.8 252.85C755.25 255.74 760.58 259.72 767.63 262.78C767.78 263.21 767.27 264.26 767.75 264.73C768.33 265.29 779.85 269.75 782.46 271.26C787.49 274.18 789.65 276.76 795.88 279.52C797.17 283.04 800.45 282.91 803.55 284.9C815.09 292.28 827.62 301.85 838.17 310.97C840.99 313.4 843.28 318.16 848.17 319.27C848.53 319.61 848.86 319.97 849.22 320.32C853.07 325.58 857.89 330.13 862.26 335.02C867.25 340.61 878.42 352.1 882.24 358.39C883.66 360.73 884.38 365.2 885.01 366.1C885.64 367 887.94 366.92 888.96 367.38C889.19 368.27 890.07 371.72 890.05 372.01C890.01 372.57 886.29 372.29 888.98 376.78C890.75 377.26 889.48 374.81 890.55 374.64C894.87 373.96 898.84 386.44 901.93 389.45C903.34 394.2 905.72 397.31 907.8 401.89C904.89 403.59 900.34 409.77 896.85 409.28C895.95 409.15 897.11 406.59 894.73 407.11C893.77 407.32 894.54 409.09 893.56 409.29C891.8 409.64 888.76 407.69 888.09 408.32C887.64 408.74 888.09 410.11 887.93 410.27C887.64 410.56 886.19 409.65 885.83 410.8C885.21 412.76 886.46 412.34 887.93 412.36C887.88 413.4 887.96 414.45 887.93 415.5C881.67 416.97 886.04 420.23 887.93 418.64C888.08 418.51 887.91 416.3 887.93 415.5C888.77 415.3 890.78 415.75 891.07 415.5C891.23 415.36 890.94 411.2 893.16 413.41C895.38 415.62 891.21 415.34 891.07 415.5C890.86 415.75 891.19 417.79 891.07 418.64C888.36 419.01 888.51 420.44 887.93 420.73C887.53 420.93 886.22 420.35 885.54 420.73C884.51 421.31 884.86 422.64 884.72 422.73C883.01 423.94 880.47 418.87 879.02 417.58C877.07 416.71 877.48 419.53 876.95 419.69C873.83 420.65 874.65 417.69 873.8 417.55C871.44 417.17 872.5 418.7 871.58 419.58C870.66 420.46 869.24 420.68 869.16 420.79C868.23 422.04 871.71 424.03 871.05 425.81C870.8 426.48 866.43 428.11 866.25 428.32C865.73 428.96 866.2 430.42 865.74 430.94C865.13 431.63 861.74 430.42 862.84 432.72C863.05 433.17 866.1 436.22 866.51 436.39C868.45 437.21 867.39 434.4 869.61 434.22C870.59 434.14 873.59 435.71 874.33 436.4C873.22 435.29 875.25 433.15 876.42 434.31C877.59 435.47 875.45 437.51 874.33 436.4C874.63 436.67 874.54 438.89 875.91 439.53C878.1 440.56 876.83 436.43 879.03 437.45C879.48 439.64 887.42 444.39 885.84 445.81C885.72 445.91 882.83 445.91 882.71 445.81C882.55 445.68 882.85 441.5 880.62 443.72C878.39 445.94 882.58 445.64 882.71 445.81C883.17 446.4 881.36 450.3 885.33 448.97C885.71 448.84 885.74 446.91 886.51 446.82C888.1 446.63 895.93 448.23 896.3 447.9C898.46 445.98 892.05 445.63 894.22 443.72C895.65 442.47 898.48 445.85 899.96 445.84C900.32 445.84 900.43 442.27 905.72 444.75C905.48 442.43 901.31 441.21 900.72 440.32C900.07 439.35 900.67 438.22 900.49 437.44C899.57 437.51 898.32 437.77 897.62 437.16C897.2 436.6 897.4 435.96 897.35 435.35C892.05 434.89 895.29 433.76 893.98 432.44C893.42 431.87 891.68 432.44 891.24 432.09C890.62 431.58 891.27 429.89 891.07 429.08C890.23 429.27 888.93 429.03 887.93 429.08C887.85 429.76 887.99 430.48 887.93 431.16C885.75 431.45 885.56 431.26 885.85 429.08C886.54 429.04 887.24 429.11 887.93 429.08C888.01 428.4 887.84 427.67 887.93 426.99C892.09 426.64 890.54 426.96 891.06 429.08C893.19 428.61 895.27 426.33 897.15 427.2C897.37 427.3 900.36 430.44 900.47 430.65C901.72 433 897.57 431.96 897.34 432.21C897.23 432.33 897.28 434.57 897.34 435.35C898.18 435.42 899.9 435.04 900.37 435.43C900.8 435.79 900.35 436.87 900.48 437.44C903.56 437.19 902.01 435.02 904.12 435.29C905.89 435.52 911.62 440.06 910.97 442.15C910.86 442.51 906.04 443.95 911.29 447.62C912.57 448.51 914.71 446.9 914.07 449.45C911.83 452.44 908.38 454.5 905.84 456.96C905.28 457.5 901.54 460.62 902.58 461.49C904.8 463.34 906.02 459.42 906.23 459.38C909.44 458.76 908.8 461.36 909.37 461.52C913.86 462.74 910.65 457.17 913.55 458.35C913.98 458.53 914.11 463.91 917.22 461.5C917.38 461.37 917.08 457.19 919.31 459.41C921.54 461.63 917.36 461.34 917.22 461.5C916.46 462.4 915.87 465.9 913.54 466.72C912.07 467.34 910.96 462.66 908.86 464.65C907.96 465.5 910.63 467.52 910.68 469.11C910.82 473.52 907.8 474.32 907.79 474.66C907.77 475.6 909.29 477.77 908.86 478.24C908.55 478.57 906.19 477.94 905.72 478.24C906.83 477.13 904.8 474.99 903.63 476.15C902.46 477.31 904.6 479.35 905.72 478.24C905.57 478.34 905.54 480.43 904.23 481.46C902.92 482.49 900.65 482.28 900.49 482.42C900.98 482.04 901.95 479.66 901.53 479.29C896.72 478.08 898.94 481.93 898.4 482.42C898.16 482.64 893.81 481.8 894.21 486.07C902.91 484.86 897.52 489.74 892.13 490.79C892.98 484.72 888.17 488.34 890.04 490.79C890.21 491.01 891.91 490.58 892.13 490.79C892.36 491.03 891.91 492.7 892.13 492.87C892.97 493.51 895.72 491.76 896.74 491.81C896.99 491.82 896.85 493.1 900.49 493.93C900.24 496.74 901.32 495.54 902.58 496.02C902.8 496.6 902.51 500.27 904.67 498.11C906.83 495.95 903.16 496.24 902.58 496.02C902.42 495.6 902.79 494.61 902.35 494.17C901.75 493.58 901 494.04 900.49 493.93C900.81 490.29 902.75 491.58 903.63 490.79C900.96 493.39 908.42 493.48 905.72 490.79C907.62 492.58 911.66 492.67 914.08 491.84C914.9 495.14 911 492.87 911.97 496.55C912.06 496.88 915.91 497.25 914.09 499.15C913.57 499.69 910.04 497.75 910.96 501.24H920.36L917.23 497.6C918.67 496.62 921.34 493.89 922.94 493.88C923.45 493.88 923.46 495.31 923.93 495.59C928.05 498.03 927.68 500.1 929.06 501C930.44 501.9 932.48 500.27 931.85 502.82C926.7 506.22 930.95 507.03 930.68 508.93C930.52 510.05 928.62 510.49 928.71 512.24C928.77 513.37 930.87 512.24 931.67 512.96C932.4 513.61 931.64 515.59 931.86 515.91C931.98 516.08 936.18 515.77 933.95 518C931.72 520.23 932.03 516.04 931.86 515.91C929.21 513.86 928.95 520.2 924.96 517.02C922.5 515.06 925.59 515.11 920.35 513.82C920.03 513.2 920.41 512.07 919.32 511.19C917 509.31 915.26 512.56 920.35 513.82C920.48 514.07 920.19 514.81 920.65 515.59C921.32 516.71 926.36 519.13 925.57 520.61C921.13 524.55 921.86 525.21 916.16 522.19C915.87 521.73 914.92 517.16 913.03 519.06C911.17 520.92 915.58 521.88 916.16 522.19C917.13 523.75 917.94 525.87 919.7 527.08C920.62 527.7 922.3 527.3 922.43 527.43C923.45 528.42 920.33 530.53 920.3 532.12C920.29 532.75 922.32 532.72 922.46 533.16C923.69 537.22 919.95 535.27 919.3 535.78C919.14 535.91 919.44 540.09 917.21 537.87C914.98 535.65 919.16 535.94 919.3 535.78C919.99 534.94 915.47 529.74 914.16 530.67C913.99 530.79 914.25 532.42 913.43 532.66C912.24 533.01 907.53 530.83 907.03 530.25C906.49 529.62 906.97 528.13 906.52 527.63C905.96 527.02 901.78 527.93 903.62 525.33C903.94 524.88 907.59 524.99 906.75 522.18C904.35 523.32 903.28 520.08 902.99 520.08C900.22 520.05 899.48 520.67 896.06 519C894.66 518.32 895.67 517 894.72 516.94C891.2 516.7 895.01 520.4 894.2 521.13C893.94 521.36 889.75 519.19 889.28 518.73C884.42 513.98 888.03 513.7 879.56 509.63C874.47 507.19 868.5 499.43 863.48 495.38C823.9 463.44 756.16 440.79 705.56 445.16C703.7 445.32 701.4 447.01 700.26 446.93C699.64 446.88 698.22 443.16 697.19 442C697.01 441.8 692.71 437.92 692.33 439.55C686.69 434.72 670.21 425.65 667.23 421.77C664.04 417.61 659.53 417.69 653.63 415.49C648.46 413.56 648.22 411.9 642.12 411.31C641.77 411.28 641.42 411.35 641.07 411.31C638.05 409.61 633.21 408.07 629.84 407.37C626.07 406.59 621.45 406.41 618.06 406.08C605.15 404.8 589.22 404.08 576.27 404.53C573.35 404.63 573.92 402.88 574.13 407.13C573.44 407.17 572.73 407.09 572.04 407.13C571 405.51 567.94 405.9 566.26 406.03C558.45 406.6 550.59 407.56 542.75 408.18C521.61 409.86 494.54 407.58 475.81 410.27C468.04 411.38 470.79 409.7 468.83 409.23C458.73 406.84 444.34 406.74 433.59 404.89C426.18 403.61 419.01 400.8 411.49 399.79C410.85 403.12 414.41 408.24 416.18 411.31L421.49 423.03L423.79 425.18L429.78 436.41C429.88 436.73 429.68 437.14 429.78 437.46C430.43 439.47 431.29 441.9 431.87 443.74C431.96 444.01 432.77 444.37 432.92 444.79C431.07 450.23 434.67 456.95 435.05 463.05C435.54 470.88 435.26 476.08 436.1 483.99C436.44 487.18 435.13 489.58 435.13 491.4C435.13 491.82 437.22 492.09 438.17 494.44C439.92 498.77 437.79 503.06 438.15 503.36C438.46 503.62 440.62 502.78 441.41 503.98C441.97 504.82 441.76 506.7 442.42 507.78C448.56 517.83 455.67 525.06 461.84 534.08C463.62 536.68 469.19 547.9 467.45 550.45C467.27 550.71 462.11 552.51 461.61 552.54C459.25 552.7 457.66 550.88 455.36 550.49C428.45 545.91 409.39 537.3 387.17 521.16C385.68 520.08 382.57 517.73 380.63 518.02C380.25 517.71 379.96 517.28 379.58 516.97C378.81 513.08 375.74 512.97 373.38 511.15C372.07 510.14 370.72 508.81 369.12 507.56C364.61 500.89 362.43 500.68 357.61 496.05C357.25 495.71 356.92 495.35 356.56 495C354.67 489.96 349.83 486.37 346.76 482.26C339.92 473.11 331.2 456.57 327.27 445.84C320.1 426.27 321.67 413.77 321.02 394.11C320.97 392.58 319.28 387.92 319.95 387.28C320.48 386.77 323.42 388.27 323.08 386.23C319.95 386.67 319.5 386.14 319.94 383.08L317.85 384.13C292.97 367.65 262.53 363.09 234.96 352.49C229.22 350.28 219.48 346.76 214.59 343.58C212.1 341.96 211.96 339.22 209.07 339.16C208.88 338.29 209.34 336.6 209.07 336.02C208.12 334.62 204.37 330.05 203.17 329.86C202.22 329.7 187.95 335.77 185.04 336.58C152.42 345.7 114.81 344.6 81.45 341.26C79.83 330.28 84.08 322.66 88.48 313.29C89.03 312.13 90.43 312.18 90.8 311.18C95.48 298.27 89.6 280.23 95.07 263.54C97.57 255.93 103.05 244.5 107.75 236.52C110.56 231.76 114.93 228.2 117.02 223.06C117.35 222.69 117.74 222.38 118.07 222.01C120.51 221.41 121.65 220.26 122.25 217.83C122.6 217.48 122.94 217.13 123.3 216.78L124.35 215.73C124.71 215.4 125.03 215.02 125.4 214.68C129.71 212.67 132.88 208.96 136.76 206.45C141.04 203.68 148.61 201.61 150.51 196.9C150.82 196.79 151.26 197.02 151.56 196.9L151.51 196.89ZM244.61 305.67C244.27 305.67 243.9 305.63 243.56 305.67C238.5 306.31 240.17 307.69 238.33 309.85C238.23 309.97 236.9 309.36 236.15 310.47C234.01 313.66 235.43 317.35 235.18 319.68C235.14 320.04 229.25 322.62 236.24 324.49C236.33 325.2 237.08 328.4 237.29 328.67C237.14 330.75 241.97 334.06 243.33 334.68C252.44 338.82 261.86 327.53 261.28 318.89C260.82 312 252.63 301.14 244.61 305.66V305.67ZM887.9 369.49C886.76 368.35 884.68 370.43 885.82 371.57C886.96 372.71 889.04 370.63 887.9 369.49ZM877.44 442.71L873.26 443.22L875.88 445.83C878.14 446.34 877.42 444.78 877.43 442.71H877.44ZM880.58 447.94C879.44 446.8 877.36 448.88 878.5 450.02C879.64 451.16 881.72 449.08 880.58 447.94ZM888.93 448.99C886.38 446.78 887 451.98 886.85 452.12C886.5 452.47 881.27 449.57 882.68 452.62C884.01 455.48 888.63 452.44 891.04 453.15C890.1 452.36 889.1 449.14 888.93 448.98V448.99ZM900.46 451.07C900.23 450.85 900.7 449.16 900.46 448.98C899.18 448.06 895.73 449.37 897.33 451.06C897.61 451.35 900.08 450.77 900.46 451.06C900.62 451.19 900.31 455.38 902.55 453.15C904.79 450.92 900.61 451.21 900.46 451.06V451.07ZM914.05 462.59C912.58 461.84 911.26 463.25 911.97 463.61C913.44 464.36 914.76 462.95 914.05 462.59ZM902.54 473.04C900.78 471.47 897.83 474.38 899.41 476.17C900.4 477.29 903.66 474.04 902.54 473.04ZM893.13 478.27C892.59 474.5 891.02 475 891.04 478.27C891.73 478.34 892.44 478.24 893.13 478.27C893.36 479.91 894.21 481.82 896.26 480.36C896.35 479.68 896.18 478.95 896.26 478.27C896.95 478.23 897.66 478.31 898.34 478.27C898.63 476.09 898.44 475.9 896.26 476.19C896.19 476.87 896.34 477.6 896.26 478.27C895.23 478.32 894.15 478.32 893.12 478.27H893.13ZM899.41 505.46C899.58 505.94 899.1 507.11 899.48 507.49C899.86 507.87 901.32 507.37 901.51 507.56C901.95 507.99 900.12 510.59 904.65 509.64C904.76 507.78 901.69 507.78 901.51 507.56C900.45 506.23 903.24 506.82 899.42 505.47C898.62 503.18 897.3 499.09 894.2 499.2C894.48 502.95 896.23 504.34 899.42 505.47L899.41 505.46ZM908.82 502.32C908.97 502.46 908.69 506.62 910.91 504.41C913.13 502.2 908.95 502.49 908.82 502.32C908.14 501.42 910.62 498.12 905.69 499.19C904.9 502.11 908.09 501.64 908.82 502.32ZM892.08 513.84C890.94 512.7 888.86 514.78 890 515.92C891.14 517.06 893.22 514.98 892.08 513.84ZM919.28 528.48C918.14 527.34 916.06 529.42 917.2 530.56C918.34 531.7 920.42 529.62 919.28 528.48Z" fill="#2DB3A2"/>
<path d="M653.6 416.55C653.18 416.32 652.87 415.86 652.55 415.5C652.88 415.57 653.26 415.44 653.6 415.5V416.55Z" fill="#2DB3A2"/>
<path d="M416.15 411.32C414.38 408.25 410.82 403.13 411.46 399.8C418.98 400.81 426.15 403.62 433.56 404.9C444.31 406.75 458.7 406.85 468.8 409.24C470.76 409.7 468.01 411.39 475.78 410.28C476.87 412.02 479.75 411.32 481.52 411.34C504.3 411.63 520.39 410.93 542.73 409.23C552.42 408.49 562.3 407.76 572.02 407.14C572.71 407.1 573.42 407.18 574.11 407.14C591.08 406.18 604.46 407.42 618.04 408.19C625.55 408.61 633.52 410.35 641.05 411.33C641.39 411.37 641.75 411.3 642.1 411.33C643.96 414.02 649.32 414.78 652.56 415.51C652.87 415.87 653.19 416.32 653.61 416.56C657.47 418.7 663.01 420.09 667.21 421.79C670.19 425.67 686.68 434.75 692.31 439.57C695.52 442.32 697.78 446.51 701.72 447.94C663.05 450.23 623.64 460.99 584.96 465.59C546.28 470.19 506.53 469.5 466.93 467.77C457.01 467.34 446.86 468 437.08 465.72C436.92 460.49 434.64 449.8 432.9 444.8C432.76 444.39 431.94 444.03 431.85 443.75C431.98 441.47 431.85 438.84 429.76 437.47C429.66 437.15 429.86 436.74 429.76 436.42C426.74 426.95 420.96 419.66 416.16 411.32H416.15Z" fill="#98D4C2"/>
<path d="M209.04 339.15C211.93 339.22 212.06 341.95 214.56 343.57C219.45 346.75 229.19 350.27 234.93 352.48C262.5 363.09 292.94 367.65 317.82 384.12C318.02 404.51 319 425.05 324.1 444.79C323.47 444.65 322.65 444.92 322.01 444.79C307.71 441.9 293.4 438.24 279.12 435.38C278.78 435.31 278.41 435.45 278.07 435.38C272.09 432.2 264.63 431.7 258.2 430.15C259.29 427.91 253.24 426.57 251.14 426.2C249.43 425.9 246.54 425.24 245.64 427.01C245.31 426.93 244.9 426.03 244.59 425.96C244.44 424.39 241.6 424.39 241.45 425.96C241.12 425.88 240.73 426.04 240.4 425.96C201.99 416.93 144.54 405.11 112.79 382.03C109.43 379.59 104.43 375.65 100.24 372.62C92.51 367.03 87.72 362.99 83.5 353.79C116.04 353.54 150.26 354.85 182.04 347.21C188.28 345.71 204.45 339.05 209.02 339.15H209.04Z" fill="#98D4C2"/>
<path d="M278.08 435.38C278.42 435.45 278.79 435.31 279.13 435.38C282.03 439.59 286.01 437.89 289.87 438.76C297.69 440.53 305.52 443.04 312.06 443.96C315 444.37 319.35 444.79 319.66 448.23L310.47 497.4C306.57 506.39 308.09 522.82 309.25 534.25C309.74 539.07 310.19 537.51 310.43 538.68C312.46 548.36 317.53 560.53 301.86 557.51C291.86 555.59 284.36 546.53 275.99 542.07C275.26 541.35 274.61 540.72 273.9 539.98C269.28 535.16 264.41 529.81 260.3 525.34C259.97 524.98 259.59 524.66 259.25 524.29L248.59 505.14C237.23 480.89 240.38 454.01 241.47 428.06C253.73 430.2 265.87 432.95 278.08 435.38Z" fill="#23AA8C"/>
<path d="M209.04 336.01C209.31 336.58 208.85 338.28 209.04 339.15C204.47 339.05 188.3 345.71 182.06 347.21C150.27 354.85 116.06 353.54 83.5199 353.79C81.1599 348.65 81.1899 347.68 80.3799 342.28C94.6699 345.16 109.28 345.62 123.83 345.46C137.41 345.31 155.02 344.46 168.46 341.97C180.06 339.82 191.18 335.41 202.36 331.83C203.67 331.1 208.8 335.52 209.04 336.01Z" fill="#0D9986"/>
<path d="M634.77 201.07C634.53 200.87 633.44 201.04 632.76 200.42C624.81 193.04 626.54 181.84 627.37 172.19C627.5 170.61 626.38 169.24 626.41 168.21C626.42 167.61 628.1 167.71 628.42 166.79C629.21 164.49 629.31 162.19 630.56 159.71C634.7 151.49 641.99 144.45 648.05 139.09C648.45 138.74 652.2 130.59 652.36 129.41C652.45 128.77 651.77 121.87 651.46 121.62C650.91 121.18 648.32 121.85 647.03 121.55C646.11 121.34 646.23 119.62 645.03 119.14C642.79 118.23 637.21 117.08 637.9 120.51H636.88C637.08 117.95 634.38 117.34 632.18 117.37C612.61 117.63 585.43 125.52 567.19 132.92C543.4 142.56 524.42 160.15 499.35 167.63C479.33 173.6 455.59 169.17 434.42 169.64C383.74 170.77 335.11 174.69 285 181.31C280.54 181.9 277.24 182.85 272.46 183.42C228.6 188.62 194.39 180.12 151.51 196.89C183.21 176.97 222.54 187.12 257.66 184.32C279.1 182.61 302.93 176.56 324.76 174.01C361.95 169.66 404.35 167.82 441.73 167.55C460.06 167.42 479.55 171.42 497.16 166.5C516.42 161.12 533.63 147.93 551.06 138.82C575.47 126.05 611.75 113.9 639.51 116.32C652.53 117.45 659.19 125.4 650.91 137.21C648.35 140.86 643.49 144.19 640.5 147.72C627.86 162.72 623.11 184.17 634.76 201.08L634.77 201.07Z" fill="#0D9986"/>
<path d="M244.61 425.97C244.91 426.04 245.33 426.94 245.66 427.02C249.87 428 254.03 429.15 258.21 430.16C264.64 431.71 272.1 432.21 278.08 435.39C265.87 432.96 253.73 430.21 241.47 428.07C240.38 454.02 237.23 480.9 248.59 505.15L259.25 524.3C234.8 497.25 236.2 460.1 240.42 425.97C240.75 426.05 241.14 425.89 241.47 425.97C242.37 426.18 243.71 425.76 244.61 425.97Z" fill="#0D9986"/>
<path d="M322.01 444.79C322.27 446.94 321.88 448.98 321.53 451.09C316.95 478.97 306.25 504.37 310.79 532.89C312.67 544.66 322.91 563.98 301.07 559.35C293.52 557.75 281.72 547.71 275.98 542.07C284.35 546.53 291.85 555.59 301.85 557.51C317.52 560.53 312.46 548.36 310.42 538.68C310.17 537.51 309.72 539.07 309.24 534.25C308.09 522.82 306.56 506.39 310.46 497.4L319.65 448.23C319.34 444.79 314.99 444.37 312.05 443.96C305.51 443.04 297.68 440.53 289.86 438.76C286 437.89 282.02 439.59 279.12 435.38C293.39 438.24 307.71 441.9 322.01 444.79Z" fill="#0D9986"/>
<path d="M209.04 336.01C208.8 335.52 203.67 331.1 202.36 331.83C191.18 335.41 180.06 339.83 168.46 341.97C155.02 344.45 137.41 345.31 123.83 345.46C109.27 345.62 94.6701 345.16 80.3801 342.28C80.3301 341.94 80.4201 341.58 80.3801 341.23H81.4301C114.78 344.57 152.4 345.67 185.02 336.55C187.93 335.74 202.19 329.68 203.15 329.83C204.35 330.03 208.1 334.59 209.05 335.99L209.04 336.01Z" fill="#31B5A4"/>
<path d="M637.91 204.21C653.16 214.17 677.66 220.37 694.72 227.3C719.35 237.31 743.14 248.89 766.97 260.61C768.14 261.02 767.42 262.25 767.62 262.79C772.57 264.94 773.72 265.77 777.78 268.01C783.69 271.28 789.88 274.15 795.65 277.67C796.16 278.23 795.71 279.11 795.87 279.52C814.91 287.96 833.11 304.78 848.17 319.27C843.28 318.15 840.99 313.4 838.17 310.97C827.61 301.85 815.09 292.29 803.55 284.9C800.44 282.91 797.16 283.04 795.88 279.52C789.65 276.76 787.49 274.19 782.46 271.26C779.86 269.75 768.33 265.29 767.75 264.73C767.27 264.27 767.79 263.22 767.63 262.78C760.58 259.71 755.25 255.74 748.8 252.85C742.72 250.12 739.25 249.36 733.53 246.2C721.45 239.52 705.07 233.09 692.5 228.4C687.73 226.62 681.94 223.63 677.68 227.22C680.56 217.94 668.82 222.46 668.26 221.99C665.93 220.01 670.95 220.21 670.34 218.87C666.92 218.99 664.22 216.91 661.19 215.93C655.63 214.13 648.83 211.23 642.14 208.89C638 207.44 635.36 210.55 637.92 204.22L637.91 204.21Z" fill="#0D9986"/>
<path d="M116.99 223.04C114.9 228.18 110.53 231.74 107.72 236.5C103.02 244.48 97.5301 255.91 95.0401 263.52C89.5601 280.2 95.4501 298.25 90.7701 311.16C90.4101 312.16 89.0001 312.11 88.4501 313.27C84.0501 322.64 79.8001 330.26 81.4201 341.24H80.3801C77.7501 318.89 89.5001 317.58 90.7201 300.83C91.2101 294.04 89.1901 286.42 89.7601 278.97C91.2801 259.2 104.22 237.41 116.99 223.05V223.04Z" fill="#0D9986"/>
<path d="M317.83 384.13L319.92 383.08C319.48 386.15 319.92 386.67 323.06 386.23C323.4 388.28 320.46 386.77 319.93 387.28C319.26 387.93 320.95 392.58 321 394.11C321.65 413.76 320.09 426.26 327.25 445.84C326.56 445.6 325.8 444.92 325.16 444.79C324.83 444.72 324.45 444.86 324.11 444.79C319.01 425.05 318.03 404.51 317.83 384.12V384.13Z" fill="#23AA8C"/>
<path d="M437.07 465.71C437.7 486.36 439.04 501.85 451.09 519.69C456.85 528.22 468.88 536.75 469.55 547.91C469.78 551.71 467.68 550.11 467.4 550.44C466.9 551.02 468.18 552.61 464.58 553.33C441.86 557.87 398.04 532.29 380.58 518.02C382.52 517.73 385.62 520.08 387.12 521.16C409.34 537.31 428.41 545.91 455.31 550.49C457.61 550.88 459.2 552.7 461.56 552.54C462.05 552.51 467.22 550.7 467.4 550.45C469.14 547.91 463.57 536.68 461.79 534.08C455.62 525.06 448.51 517.83 442.37 507.78C441.71 506.71 441.92 504.82 441.36 503.98C440.57 502.79 438.41 503.62 438.1 503.36C437.75 503.06 439.87 498.77 438.12 494.44C437.17 492.09 435.08 491.82 435.08 491.4C435.08 489.58 436.39 487.18 436.05 483.99C435.22 476.08 435.5 470.88 435 463.05C434.62 456.95 431.02 450.22 432.87 444.79C434.62 449.79 436.89 460.48 437.05 465.71H437.07Z" fill="#0D9986"/>
<path d="M327.24 445.84C331.17 456.57 339.89 473.11 346.73 482.26C349.8 486.37 354.64 489.96 356.53 495C342.53 481.38 331.75 463.08 325.15 444.79C325.79 444.92 326.55 445.6 327.24 445.84Z" fill="#0D9986"/>
<path d="M357.58 496.05C362.39 500.68 364.58 500.89 369.09 507.56C370.69 508.81 372.04 510.15 373.35 511.15C375.72 512.97 378.79 513.08 379.55 516.97C375.38 513.53 372.13 512.06 369.09 507.56C368.82 507.35 367.17 506.95 365.92 506.06C363.43 504.3 358.59 499.08 357.58 496.05Z" fill="#0D9986"/>
<path d="M100.26 372.62C104.45 375.65 109.46 379.59 112.81 382.03C110 381.35 107.52 379.29 105.16 377.65C103.51 376.5 100.02 374.94 100.25 372.62H100.26Z" fill="#31B5A4"/>
<path d="M150.46 196.89C148.56 201.61 141 203.68 136.71 206.44C132.83 208.95 129.66 212.66 125.35 214.67C131.71 208.9 142.31 199.76 150.45 196.89H150.46Z" fill="#0D9986"/>
<path d="M122.22 217.81C121.62 220.25 120.47 221.39 118.04 221.99C119.58 220.29 120.73 219.3 122.22 217.81Z" fill="#0D9986"/>
<path d="M123.27 216.76C123.63 216.42 123.95 216.05 124.32 215.71L123.27 216.76Z" fill="#0D9986"/>
<path d="M636.86 203.16L635.81 202.11C636.2 202.41 636.49 202.9 636.86 203.16Z" fill="#0D9986"/>
<path d="M244.61 305.67C267.46 305.51 260.95 340.48 242.95 332.95C240.22 331.81 240.49 330.73 239 329.02C238.57 328.53 237.36 328.78 237.28 328.68C237.08 328.4 236.32 325.21 236.23 324.5C235.83 321.13 236.21 312.39 238.32 309.86C239.09 308.93 243.13 308.18 243.55 305.68C243.89 305.64 244.25 305.68 244.6 305.68L244.61 305.67Z" fill="#0D9986"/>
<path d="M542.72 408.18V409.23C520.39 410.93 504.3 411.63 481.51 411.34C479.74 411.32 476.86 412.01 475.77 410.28C494.51 407.59 521.58 409.87 542.71 408.19L542.72 408.18Z" fill="#23AA8C"/>
<path d="M618.03 406.09V408.18C604.45 407.41 591.07 406.17 574.1 407.13C573.89 402.88 573.32 404.63 576.24 404.53C589.2 404.09 605.12 404.81 618.03 406.08V406.09Z" fill="#0D9986"/>
<path d="M641.05 411.32C633.52 410.34 625.55 408.61 618.04 408.18V406.09C621.43 406.43 626.06 406.61 629.82 407.38C633.19 408.08 638.02 409.62 641.05 411.32Z" fill="#23AA8C"/>
<path d="M572.01 407.14C562.29 407.76 552.41 408.5 542.72 409.23V408.18C550.55 407.56 558.42 406.6 566.23 406.03C567.91 405.91 570.97 405.51 572.01 407.13V407.14Z" fill="#0D9986"/>
<path d="M244.61 305.67C252.63 301.14 260.81 312 261.28 318.9C261.86 327.54 252.44 338.84 243.33 334.69C241.98 334.07 237.14 330.77 237.29 328.68C237.37 328.78 238.58 328.53 239.01 329.02C240.5 330.73 240.23 331.8 242.96 332.95C260.96 340.48 267.46 305.51 244.62 305.67H244.61Z" fill="#98D4C2"/>
<path d="M238.33 309.86C236.22 312.39 235.83 321.14 236.24 324.5C229.24 322.62 235.14 320.05 235.18 319.69C235.43 317.36 234.01 313.67 236.15 310.48C236.9 309.36 238.23 309.98 238.33 309.86Z" fill="#31B5A4"/>
<path d="M642.09 411.32C648.19 411.91 648.43 413.58 653.6 415.5C653.26 415.44 652.88 415.57 652.55 415.5C649.31 414.77 643.95 414 642.09 411.32Z" fill="#23AA8C"/>
<path d="M653.6 415.51C659.5 417.71 664.01 417.63 667.2 421.79C663.01 420.09 657.46 418.7 653.6 416.56V415.51Z" fill="#23AA8C"/>
<path d="M431.84 443.75C431.26 441.92 430.4 439.48 429.75 437.47C431.85 438.84 431.97 441.46 431.84 443.75Z" fill="#0D9986"/>
<path d="M243.56 305.67C243.14 308.18 239.1 308.92 238.33 309.85C240.17 307.68 238.5 306.3 243.56 305.67Z" fill="#98D4C2"/>
<path d="M429.75 436.43L423.76 425.2L421.46 423.05L416.15 411.33C420.95 419.67 426.73 426.96 429.75 436.43Z" fill="#0D9986"/>
<path d="M245.65 427.01C246.54 425.24 249.43 425.9 251.15 426.2C253.24 426.57 259.3 427.91 258.21 430.15C254.02 429.14 249.87 427.99 245.66 427.01H245.65Z" fill="#FEFCED"/>
<path d="M244.61 425.97C243.71 425.76 242.37 426.18 241.47 425.97C241.62 424.4 244.46 424.4 244.61 425.97Z" fill="#FEFCED"/>
</g>
</g>
<defs>
<clipPath id="clip0_504_11319">
<rect width="669" height="516" fill="white"/>
</clipPath>
<clipPath id="clip1_504_11319">
<rect width="946.19" height="512" fill="white" transform="translate(80 116)"/>
</clipPath>
</defs>
</svg>
