<svg width="30" height="30" viewBox="0 0 30 30" fill="none" xmlns="http://www.w3.org/2000/svg">
<rect width="30" height="30" rx="15" fill="#EAE7E7"/>
<path d="M12.667 17.3096H13.2549C13.8019 17.1114 13.537 16.5494 13.6232 16.1338C13.6899 15.8151 14.1357 15.8431 14.1938 16.1015C14.2864 16.5085 13.9936 17.1265 14.5815 17.3096H14.786C15.318 17.1351 15.1284 16.6161 15.1672 16.1984C15.206 15.7806 15.7163 15.8366 15.7766 16.1036C15.8671 16.5085 15.5807 17.1308 16.1643 17.3117H16.3688C16.9438 17.1287 16.6746 16.5408 16.7586 16.1295C16.8232 15.8086 17.3034 15.8172 17.3422 16.1984C17.3831 16.6118 17.1893 17.1201 17.6975 17.3117H18.2854C18.4857 17.2385 18.63 17.1028 18.6623 16.8832C18.7312 16.4008 18.6041 15.7828 18.6666 15.3047C18.6709 15.2767 18.6709 15.2487 18.6924 15.2272L21.2357 13.2998C21.3476 13.2008 21.3907 13.05 21.4036 12.9057C21.4833 11.9927 21.3412 10.9676 21.4036 10.0438C21.3433 7.48333 19.6184 5.19852 17.1635 4.47711C13.5586 3.41545 9.94293 5.91131 9.57684 9.60879C9.60268 10.6618 9.46055 11.8613 9.551 12.9036C9.56176 13.0371 9.60699 13.1685 9.69312 13.274L12.2622 15.225C12.2837 15.2465 12.2837 15.2745 12.288 15.3025C12.3505 15.7806 12.2234 16.3965 12.2923 16.881C12.3246 17.1007 12.4689 17.2363 12.6692 17.3096H12.667ZM18.1131 9.73154C20.3527 9.9555 19.8381 13.401 17.6221 12.9574C15.6388 12.559 16.0674 9.52912 18.1131 9.73154ZM13.1839 9.73154C15.3546 9.95119 14.9368 13.3472 12.7123 12.9617C10.7009 12.6129 11.0886 9.51835 13.1839 9.73154ZM15.5613 12.7938C15.6237 12.8088 15.6797 12.8691 15.7185 12.9187C15.8025 13.0242 16.16 13.6702 16.1987 13.793C16.2698 14.0126 16.147 14.1698 15.9252 14.1957C15.7228 14.2172 15.2318 14.2172 15.0315 14.1957C14.8205 14.172 14.6934 14.0255 14.7494 13.8123C14.7731 13.7241 15.1823 12.9854 15.249 12.9057C15.3373 12.8024 15.4256 12.7636 15.5634 12.7959L15.5613 12.7938Z" fill="#AF52DE"/>
<path d="M21.8451 25.4819C22.1724 25.2989 22.5062 24.7734 22.3447 24.3944L22.1896 24.0283L22.5557 23.8733C22.7582 23.7871 22.9369 23.4706 22.9757 23.2596C23.0833 22.6437 22.6612 22.0515 22.0432 21.9675C21.3218 21.8684 20.8373 22.5963 20.0405 22.3465L11.515 18.9548C10.7526 18.5736 10.9228 17.6713 10.2939 17.2643C9.78358 16.9349 9.09662 17.0705 8.76284 17.5852C8.64871 17.7618 8.55826 18.1063 8.6444 18.3066L8.79945 18.6727L8.43336 18.8277C8.05435 18.9892 7.92945 19.5987 8.03712 19.9583L8.14049 20.2038C8.40536 20.6237 8.93511 20.8563 9.41964 20.6991C9.96662 20.5225 10.3306 20.1629 10.9486 20.3567L19.4978 23.7592C20.2429 24.1166 20.062 25.1223 20.7942 25.497C21.0526 25.6305 21.3196 25.6434 21.6017 25.5874C21.6771 25.5487 21.7719 25.525 21.8472 25.4841L21.8451 25.4819Z" fill="#AF52DE"/>
<path d="M22.9109 19.7796C23.0143 19.4178 22.8765 18.8105 22.4953 18.6576L22.1249 18.509L22.2735 18.1386C22.3553 17.9341 22.2584 17.583 22.1357 17.4086C21.776 16.8982 21.0589 16.7777 20.5636 17.1545C19.9844 17.5938 20.1566 18.4509 19.4137 18.8385L10.9872 22.4692C10.1797 22.7384 9.66285 21.9804 8.92852 22.1376C8.33417 22.2647 7.94439 22.8461 8.0736 23.4491C8.11667 23.6558 8.29756 23.9616 8.49998 24.0434L8.87038 24.192L8.72179 24.5624C8.56674 24.9436 8.90914 25.4625 9.24077 25.6413L9.48626 25.7403C9.97079 25.8502 10.5092 25.6391 10.7417 25.1869C11.0045 24.6744 11.0066 24.164 11.5816 23.8647L20.0317 20.2253C20.8113 19.9518 21.3949 20.7895 22.1766 20.5376C22.4544 20.4493 22.6525 20.2706 22.8119 20.0315C22.8377 19.9497 22.8894 19.8657 22.9109 19.786V19.7796Z" fill="#AF52DE"/>
</svg>
