<svg width="669" height="516" viewBox="0 0 669 516" fill="none" xmlns="http://www.w3.org/2000/svg">
<g clip-path="url(#clip0_504_11283)">
<rect width="669" height="516" fill="#D9D9D9" fill-opacity="0.6"/>
<g clip-path="url(#clip1_504_11283)">
<path d="M353.592 45.7784C354.254 43.7034 355.318 41.8877 356.862 40.3574C357.29 39.9295 361.339 36.778 361.637 36.7132C362.351 36.5576 371.511 35.9091 372.03 36.0129C372.354 36.0777 376.922 38.9827 377.376 39.3977C377.778 39.7609 377.479 40.6816 377.596 40.8113C380.853 46.8159 381.593 51.9515 382.592 58.6045C382.825 60.1477 381.554 61.9504 384.213 61.4835C384.473 63.9605 384.888 66.4635 385.044 68.9276L384.226 69.3426L385.044 69.7576C385.07 70.3023 385.018 70.8599 385.044 71.4176C385.044 71.5213 384.149 71.5084 384.175 73.4407C384.213 76.0085 385.77 79.1988 385.044 82.1816H386.692C388.002 91.6748 389.637 102.75 392.05 111.971C394.165 120.089 394.827 127.443 401.613 117.34C408.023 107.808 408.645 97.6534 412.11 87.3043C414.419 80.4309 420.543 68.8887 428.899 68.9276C428.497 71.6121 432.416 70.432 434.505 71.1582C437.826 72.3124 437.333 77.3184 438.008 79.6787C438.682 82.039 440.382 85.8777 440.395 87.6285C440.434 91.4024 437.904 96.7974 439.656 100.351C439.383 100.883 439.176 100.896 438.825 101.181C438.475 101.466 434.634 100.896 438.825 103.658C438.657 105.046 437.229 107.964 437.255 108.236C437.346 109.144 440.019 109.559 440.888 110.272C444.781 113.488 445.339 115.096 444.236 120.245C442.731 127.287 437.255 126.159 431.365 128.467C431.326 128.48 431.014 127.637 430.729 127.793C428.666 128.973 425.798 138.661 424.397 141.799C423.774 143.2 422.399 143.381 422.269 143.952C421.945 145.314 422.503 147.025 422.256 148.322C422.204 148.595 422.308 148.88 422.256 149.152C419.129 150.981 420.336 152.706 419.389 154.949C416.69 161.356 414.147 168.139 411.344 174.208C410.605 175.803 409.774 176.711 412.33 176.439C412.227 176.918 412.421 177.567 412.33 178.099C411.824 181.211 411.227 182.975 411.565 186.71C411.798 189.368 413.433 192.196 413.978 193.817C414.082 194.128 414.536 194.647 414.809 195.477C412.408 196.397 413.693 196.851 414.082 198.213C414.77 200.638 415.963 202.778 415.872 205.566L419.765 212.012C420.271 213.438 422.321 220.104 423.476 220.182C435.88 213.023 446.506 223.476 436.658 235.109C434.842 237.262 430.521 240.841 428.03 241.788C427.135 242.125 425.954 241.023 426.447 242.955L438.786 274.871C439.708 279.112 441.07 283.327 442.354 287.464C442.783 288.826 442.497 290.161 444.573 289.759C446.857 296.983 449.335 303.869 451.19 311.262C449.867 312.52 451.048 315.671 451.346 317.318C452.047 321.235 453.072 325.125 453.669 329.055C454.265 332.984 453.331 341.57 456.16 344.345C456.341 345.784 458.846 343.502 459.183 343.23C469.978 333.931 490.167 304.557 499.042 291.679C501.443 288.19 511.239 274.054 511.589 271.071C512.108 266.714 507.165 260.904 504.985 256.676L503.402 250.399C503.013 247.754 502.558 239.713 506.542 240.608L506.633 238.468C518.57 233.618 519.478 243.487 526.912 250.036C528.898 249.984 537.37 229.948 537.863 226.602L518.621 190.51C513.055 188.759 498.536 190.497 496.24 183.104C493.528 174.364 501.144 170.356 508.267 168.592C503.363 155.209 496.486 140.943 494.215 126.807C495.591 124.032 495.617 118.17 494.215 115.226C496.356 104.76 505.491 99.4949 514.846 105.772C521.554 110.272 528.573 132.345 532.673 140.878C534.542 144.769 548.425 171.562 550.073 172.289C557.546 160.863 557.313 145.91 559.584 132.591C562.243 133.058 560.985 131.255 561.205 129.712C561.906 124.81 563.242 120.491 564.177 115.252C564.397 113.994 565.254 111.88 563.723 111.089C565.215 105.435 566.084 97.7182 572.04 94.9948C573.259 94.4371 574.635 94.8262 575.517 94.489C576.399 94.1518 575.945 92.1027 578.916 92.8938C579.487 93.0495 579.37 94.3723 580.019 94.5279C584.392 95.5395 586.935 93.9573 590.581 98.7298C594.94 104.423 595.031 110.933 595.174 117.703C594.564 120.219 592.8 128.649 594.344 130.114C596.342 131.995 602.816 130.529 605.736 136.508C610.705 146.649 597.782 151.007 591.865 155.753C591.671 155.909 590.334 155.274 590.166 156.259C590.166 160.241 589.673 164.196 589.374 168.151C589.348 168.424 589.4 168.709 589.374 168.981C588.57 169.293 588.725 170.006 588.544 170.641C586.338 178.345 586.39 187.825 586.065 195.451C586.04 195.995 586.065 196.553 586.065 197.111C583.185 196.488 584.859 199.238 584.405 201.248C583.821 203.816 582.212 206.526 582.757 209.509C586.623 209.509 587.713 205.19 589.841 202.921C590.36 202.363 592.683 199.938 592.864 199.769C593.357 199.302 594.772 199.769 595.031 199.51C595.537 199.004 594.901 196.41 595.161 195.191C595.278 194.647 600.649 190.095 600.117 188.007C600.442 187.203 600.948 186.645 601.778 186.347C602.323 186.152 603.465 186.645 604.179 186.282L608.395 173.106C610.601 168.67 614.078 162.523 615.843 158.217L616.673 156.557C616.764 156.324 616.583 155.974 616.673 155.727C618.256 155.196 618.295 153.717 618.762 152.446C621.072 146.221 623.459 139.957 625.665 133.694C626.041 132.643 627.534 130.892 625.782 130.088C629.065 122.878 631.543 118.65 640.729 120.53C650.824 122.605 652.095 130.698 651.421 139.581C650.201 155.766 642.468 170.577 637.369 185.491C641.261 185.906 646.555 188.097 648.955 191.288L649.812 197.448L648.125 203.686C647.865 203.945 647.593 204.308 647.294 204.516C645.66 205.463 638.549 205.074 638.186 205.346C638.056 205.45 638.264 206.539 638.186 206.993C635.163 207.486 629.623 207.408 627.482 209.107C620.021 218.198 614.221 228.845 606.345 237.612C596.549 248.506 583.743 256.495 574.115 267.427L562.892 289.695C579.617 287.218 580.162 309.135 565.37 311.197C561.621 310.017 552.875 309.563 549.645 311.197C545.013 313.544 541.678 322.7 538.733 327.161C533.296 335.396 527.834 343.904 522.203 351.996C520.295 354.746 511.381 364.55 510.875 366.392C510.149 369.063 515.326 373.097 513.873 380.074C513.172 383.407 508.488 388.037 505.205 388.776C497.965 390.397 494.475 385.456 489.921 393.341C481.915 407.179 476.025 422.495 472.677 438.148C472.508 438.55 472.262 438.615 471.86 438.576C471.73 438.576 471.405 437.863 471.055 437.733C470.783 443.219 466.786 449.82 468.551 455.111C466.786 463.476 464.425 473.617 463.594 482.008C463.218 485.886 463.724 488.661 462.881 492.889C462.66 493.978 462.933 494.458 463.984 493.978C477.88 482.773 491.335 470.998 505.867 460.584C510.058 457.588 535.476 441.701 536.216 439.639C536.241 437.564 536.877 435.606 537.228 433.609C539.9 434.076 538.616 432.26 538.849 430.717C539.381 427.306 540.796 422.689 538.875 419.538C538.901 418.993 538.837 418.435 538.875 417.878C540.121 417.761 540.121 415.517 538.875 415.401C538.953 414.311 538.798 413.183 538.875 412.094L539.693 410.862L538.875 410.434C539.472 402.224 539.459 393.795 540.536 385.624L542.197 386.857C541.756 378.103 546.621 369.634 547.115 362.164C547.115 361.995 550.825 360.621 547.984 359.155C550.293 355.304 552.992 352.373 557.352 350.648C558.597 350.155 560.115 350.803 560.271 350.674C560.57 350.401 560.271 349.364 560.401 349.247C562.14 347.872 561.932 350.518 562.191 350.751C562.542 351.076 564.553 350.025 566.188 350.401C572.13 351.737 574.051 358.105 574.466 363.305C573.246 367.403 573.22 373.901 573.635 378.193C573.674 378.569 574.077 378.933 574.466 379.023C574.466 379.853 574.466 380.683 574.466 381.5C571.404 384.289 573.039 391.045 572.805 395.131C572.455 401.109 570.158 408.761 573.337 414.545C574.362 414.804 578.799 413.533 579.656 412.898C580.694 412.12 580.201 411.329 580.266 411.264C596.147 397.491 614.247 384.911 630.738 370.736C631.387 370.179 634.631 368.661 634.851 367.663C635.409 365.147 635.306 350.842 634.916 347.898C634.761 346.705 634.06 346.031 634.047 345.914C633.736 343.32 632.879 335.267 631.958 333.529C629.363 328.679 616.751 327.849 615.804 317.383C614.922 307.579 621.461 307.566 628.714 307.047C631.27 306.865 630.829 307.41 630.738 304.557C630.764 304.764 631.621 307.397 632.386 307.034C631.919 302.573 633.45 297.113 631.569 292.976C631.595 292.431 631.53 291.873 631.569 291.316L632.386 290.901L631.569 290.486C632.438 282.653 635.085 274.43 642.948 270.851C665.498 260.606 664.551 299.486 665.485 311.988C664.357 313.739 662.683 315.879 665.485 315.295C665.524 315.84 665.446 316.397 665.485 316.955C664.201 318.628 663.63 325.385 666.316 324.399C666.653 326.422 666.796 328.549 667.146 330.585C667.899 332.388 670.688 328.614 671.143 327.978C689.801 301.704 693.317 266.221 707.693 240.024C709.354 238.416 710.573 237.547 711.002 235.057C711.248 234.772 711.547 234.487 711.832 234.227C713.532 233.786 715.647 233.903 715.141 231.75C716.866 231.426 719.656 232.879 719.293 230.103C720.707 229.662 719.617 231.75 720.59 231.802C721.356 231.841 722.225 230.933 722.601 230.92C724.042 232.541 726.247 233.397 728.388 233.397C728.687 233.644 728.92 233.968 729.219 234.227C730.685 237.573 732.67 239.181 733.15 243.137C733.669 247.481 731.308 251.216 733.358 254.912C731.982 262.499 729.634 270.605 727.571 278.075C725.482 277.66 725.806 279.021 725.352 280.357C723.263 286.375 721.862 291.16 721.784 297.1C721.758 299.499 721.291 301.522 721.81 304.103C722.017 305.14 721.2 305.607 723.017 305.361C730.763 301.211 737.886 294.999 745.788 291.316L756.998 288.813C765.613 288.579 765.743 294.363 768.961 300.42C768.351 311.015 752.535 324.049 744.14 329.366C741.415 325.618 736.277 330.806 737.004 333.516C737.328 334.722 739.041 336.084 739.586 337.64C740.572 340.454 739.456 348.015 735.057 346.329V349.221C725.08 351.945 723.678 344.617 716.451 345.045C713.272 345.227 700.103 350.531 697.586 352.502C695.886 353.838 691.371 362.488 689.372 365.199C679.174 379.062 667.769 392.109 655.598 404.235C657.519 405.142 660.114 404.455 662.216 404.65C661.489 407.503 665.563 406.011 668.003 406.31C668.548 406.374 669.118 406.271 669.663 406.31C678.084 406.984 686.064 406.699 694.679 404.39C696.08 404.014 697.378 404.183 696.976 402.173C706.318 399.89 718.294 393.976 727.182 401.343C730.309 403.923 731.282 412.184 730.075 415.764C725.144 430.276 699.778 434.374 687.037 436.929C689.048 444.256 691.954 446.357 684.559 450.987C680.562 453.477 677.954 454.255 672.972 453.464C672.323 453.36 670.909 451.622 669.663 451.804C668.029 450.546 667.51 449.56 666.355 448.497L665.524 447.667C665.239 447.408 664.979 447.109 664.694 446.837C664.772 445.735 664.318 444.995 663.448 444.373L663.033 445.19C655.015 437.824 655.936 441.247 646.075 440.223C640.599 439.652 634.371 438.563 628.935 437.499C625.99 436.929 623.096 434.543 620.242 435.865L591.878 458.833C603.439 459.961 609.511 474.694 596.017 479.09C594.837 476.146 592.566 478.909 589.867 479.142C587.168 479.376 579.28 478.792 576.542 478.286C574.167 477.845 575.27 475.939 573.674 475.783C574.596 480.685 569.302 476.678 565.993 477.456C565.461 477.586 565.396 478.546 565.033 478.766C564.384 479.142 563.359 479.025 563.1 479.272C562.594 479.765 562.996 480.659 562.905 480.75C552.395 490.23 535.229 503.069 523.189 510.526C521.904 511.318 519.426 511.616 519.05 513.004C525.148 512.952 531.077 514.56 537.085 515.26C538.408 515.416 540.523 516.207 541.38 514.676C548.088 515.675 556.418 517.4 562.892 517.984L562.464 518.814C567.33 518.956 571.456 519.008 576.127 517.984C577.502 517.685 578.825 517.141 580.266 517.154C579.786 517.244 578.799 518.308 577.787 517.984V518.788C579.928 518.308 585.079 520.24 584.405 517.141C584.677 517.141 584.963 517.115 585.235 517.141C586.559 517.27 590.775 519.877 590.205 516.311C590.749 516.336 591.307 516.311 591.865 516.311C591.969 516.311 591.956 517.218 593.889 517.166C605.658 516.868 617.205 509.606 628.286 506.377C635.954 506.48 639.509 506.299 644.012 512.991C646.633 519.047 645.543 526.374 642.351 532.016C639.73 534.921 636.59 536.697 633.243 538.63L619.359 543.363C613.313 545.062 607.033 545.802 600.948 547.345C599.559 547.695 598.028 547.254 598.483 549.394C597.938 549.407 597.367 549.433 596.822 549.394C596.043 549.329 593.02 546.696 593.513 550.224C593.241 550.25 592.955 550.198 592.683 550.224C591.826 548.681 589.711 549.485 588.388 549.64C584.547 550.081 580.837 550.691 576.957 551.054C576.581 551.093 576.204 551.482 576.127 551.884C575.854 551.858 575.569 551.884 575.296 551.884C575.102 551.884 572.455 550.509 571.949 552.429C570.833 556.643 574.907 560.962 572.831 565.397C572.377 566.37 570.963 565.657 570.482 566.098C570.119 566.435 570.405 571.57 567.433 566.772C565.578 567.485 566.421 571.493 566.188 571.739C565.617 572.323 557.533 570.559 556.262 570.079C555.548 569.457 555.211 569.054 554.601 568.419C553.706 562.972 548.386 559.691 545.493 555.191C539.758 554.153 533.854 554.802 528.119 554.361C528.586 551.689 526.77 552.947 525.226 552.74C516.532 551.637 507.541 550.833 498.783 550.185C497.018 550.055 493.852 549.679 492.542 551.041C489.947 550.95 487.248 550.522 485.094 551.871L484.264 552.701C484.134 552.908 484.393 553.336 484.264 553.531C479.372 559.172 475.35 565.371 471.821 571.934C467.5 579.935 463.53 590.116 461.999 599.505C461.752 600.984 461.389 603.785 462.751 604.809C462.699 605.082 462.79 605.367 462.751 605.639C460.273 605.159 461.272 606.845 460.987 608.376C460.299 612.02 460.299 614.717 460.195 618.388C460.156 619.71 458.469 621.241 461.103 619.697C460.779 622.473 460.571 625.196 460.273 627.971C459.442 635.96 460.999 643.69 452.566 647.969C432.247 658.254 382.851 657.916 364.011 644.377C363.272 643.845 358.367 638.917 358.212 638.528C357.342 636.414 357.913 634.054 357.472 631.875C357.174 630.436 356.317 629.191 356.019 627.959C351.659 610.191 346.729 597.793 332.871 584.513C329.693 581.479 313.02 571.285 312.994 570.053C312.994 569.962 313.733 569.677 313.824 569.288C311.515 569.236 309.906 566.526 307.687 566.72C306.078 566.863 299.98 570.286 297.476 570.727C294.089 571.324 294.803 571.065 292.013 571.856C287.342 573.179 282.775 573.179 278.195 571.35C276.625 570.714 276.599 569.223 274.925 569.223C272.823 560.832 280.971 556.475 287.329 553.92C281.127 547.28 273.692 541.185 265.92 536.438C264.506 535.569 259.329 533.896 259.186 532.82C259.186 532.768 259.978 532.444 260.03 532.016C256.124 532.457 251.168 530.965 247.613 532.82C246.51 532.82 245.407 532.82 244.304 532.82C242.098 531.445 236.753 531.406 234.378 532.82C225.802 532.612 216.927 532.392 208.324 531.99C205.665 531.86 198.866 529.967 196.919 530.459C193.338 531.393 190.653 544.025 183.438 545.179C177.911 546.061 173.746 544.777 172.319 539.434V529.085C172.345 527.671 171.32 527.593 170.658 527.036C169.802 526.296 169.685 525.998 168.413 525.596C161.459 523.366 152.363 522.613 145.006 520.422C146.589 518.009 145.616 519.164 143.994 518.541C136.858 515.844 129.501 513.976 122.664 510.488C122.365 510.254 122.119 509.93 121.833 509.658V508.011L121.003 508.841C119.251 506.649 117.733 504.859 117.655 501.786C117.59 499.464 118.94 491.644 120.172 489.828C124.895 486.275 130.487 487.325 135.898 485.691C141.451 486.106 146.94 488.039 152.454 488.998C152.506 489.465 152.285 490.503 152.454 490.632C152.74 490.84 158.565 491.527 159.5 491.553C161.576 491.605 162.224 490.645 162.38 490.645C162.652 490.658 162.938 490.632 163.21 490.645L164.871 494.769C166.493 495.042 165.312 492.733 165.689 492.279C166.104 491.787 176.432 493.888 178.326 494.134C180.441 494.406 182.673 496.78 185.54 493.939C187.474 494.199 189.394 494.51 191.327 494.769C190.86 497.441 192.677 496.157 194.221 496.391C197.607 496.909 209.051 499.049 211.192 497.246C212.334 496.287 211.607 496.676 210.868 495.509C206.819 489.128 198.217 484.148 192.949 478.61C191.133 477.793 188.07 479.661 185.527 479.881L176.419 476.574C173.655 473.488 172.111 470.959 173.474 466.601C174.045 464.786 176.743 463.58 174.979 461.09C168.219 452.751 162.354 443.686 154.906 436.047C154.673 435.801 155.166 434.4 153.531 433.726C149.184 433.583 145.058 431.599 141.075 430.587C137.792 429.757 136.469 429.653 133.018 428.538C131.525 428.058 127.957 427.047 126.764 428.603C123.144 427.682 110.454 423.701 108.132 423.714C105.342 423.74 100.827 429.459 96.8303 430.509C91.8998 431.806 85.8275 431.249 82.4411 427.008C78.2891 421.807 85.6199 414.208 84.2057 412.029C74.7988 407.088 52.5337 393.393 53.9739 381.111C54.4799 376.754 59.2158 370.879 63.6662 370.062C75.2918 367.922 86.3465 378.634 96.1167 383.549C106.639 388.828 118.006 392.174 129.255 395.494C118.369 379.451 109.883 360.634 102.773 342.568C103.798 341.764 102.526 338.82 102.176 337.783C100.853 333.918 99.0101 330.209 98.05 326.189L96.973 316.099C99.6329 307.682 111.077 302.858 118.434 308.292C123.312 311.897 127.27 324.373 130.462 330.183C142.113 351.374 154.452 372.059 170.762 389.982C171.488 390.786 171.488 391.759 173.084 391.37C174.122 385.56 174.304 379.827 174.745 374.004C177.249 374.471 176.341 372.746 176.406 371.151C176.64 364.485 177.976 357.145 176.406 350.855C176.458 350.311 176.341 349.74 176.406 349.195C179.572 349.662 177.21 346.057 178.469 344.202C178.819 343.684 179.883 343.424 180.545 343.398C180.727 341.907 178.858 343.398 178.793 341.375C178.703 338.12 181.22 333.438 179.715 330.183C180.208 328.484 180.311 326.461 181.752 325.177C183.828 323.323 189.277 320.742 192.132 321.442C207.299 325.112 205.963 346.511 206.197 358.299C204.808 363.033 204.808 370.036 206.197 374.847C206.158 376.78 206.248 378.712 206.197 380.631C205.729 380.709 204.64 380.489 204.549 380.631C204.198 381.098 204.665 390.254 204.549 392.213C204.549 392.342 203.757 393.146 203.692 394.21C203.576 395.999 204.108 404.261 203.731 404.624C203.485 404.857 201.214 404.455 200.41 404.624C199.618 407.386 202.667 405.557 202.953 406.725C203.147 407.542 203.096 411.419 202.888 412.34C202.719 413.105 200.604 412.561 201.227 414.96C201.344 415.388 203.186 414.571 202.979 418.306C202.849 420.679 199.787 421.379 202.901 425.296H200.397C201.954 427.877 201.941 429.913 201.24 432.74C201.915 432.429 204.497 429.666 204.549 429.433C211.322 431.988 232.73 454.164 238.076 454.268C240.892 454.32 240.217 445.449 243.954 442.765C248.482 439.497 257.292 440.949 258.291 447.265C259.342 453.866 257.318 462.088 259.355 468.962C268.593 475.303 277.728 482.073 287.576 487.481C291.533 489.66 307.985 498.076 311.307 498.089C311.852 498.089 312.41 498.141 312.955 498.089C312.734 494.847 315.238 486.846 318.158 485.471C321.882 483.72 328.642 483.811 331.172 487.338C332.832 489.893 333.313 490.762 333.65 493.952C332.184 496.157 332.729 500.048 332.832 502.629C332.832 502.836 333.3 508.361 334.48 506.364C334.48 506.402 335.142 506.208 335.298 506.791C335.739 508.464 335.895 512.433 337.205 513.587C337.672 514.002 339.022 514.015 339.839 514.638C353.437 524.935 366.697 535.738 379.607 546.891C381.476 547.241 380.749 546.074 380.84 544.842C381.125 540.99 380.775 536.762 380.84 532.833C380.866 531.16 380.879 530.304 380.84 528.696C380.71 522.523 380.593 519.475 379.296 513.237C378.985 511.72 380.036 510.008 377.531 510.501C377.531 510.228 377.531 509.943 377.531 509.671C377.557 509.035 380.243 505.832 376.701 506.364C372.458 485.536 361.326 471.063 348.532 454.709C343.316 448.043 325.398 429.913 322.92 424.492C322.855 424.336 324.658 423.83 322.517 422.002C319.287 419.239 307.168 426.593 302.212 423.26L298.098 421.185C295.114 417.813 295.685 411.64 299.007 408.449L305.533 404.235C300.836 398.36 295.335 393.12 290.651 387.271C290.326 383.835 289.768 384.73 288.173 383.964C287.368 382.655 286.071 378.401 284.656 377.532C283.813 377.013 282.84 377.519 282.373 377.35C282.126 376.598 282.788 375.094 281.996 374.03C281.374 373.187 279.544 373.213 278.61 372.396C276.521 370.594 273.641 367.52 275.755 364.952C273.718 364.861 271.616 366.184 269.553 365.808C268.684 365.653 269.333 364.395 269.125 363.902C267.776 360.737 267.451 365.367 267.322 365.549C265.83 367.65 257.694 364.965 255.476 367.131C253.179 365.108 248.612 367.442 246.743 365.212C244.109 362.06 249.014 362.67 247.6 360.815C247.483 360.66 245.913 361.697 244.304 359.972C243.954 358.494 245.653 359.454 245.939 359.155C247.418 357.664 244.356 357.495 244.252 356.976C243.681 354.084 245.277 350.946 248.223 350.246C251.817 349.39 249.611 349.896 251.933 348.949C252.18 348.845 256.436 348.326 256.63 348.469C257.357 349.04 256.63 352.606 259.173 351.711C258.629 348.676 257.928 346.472 259.173 343.45C257.123 342.841 257.565 344.436 256.695 345.097C255.54 344.501 254.593 343.632 253.854 342.568C243.902 328.367 232.445 309.692 223.596 294.649C225.387 294.143 223.388 292.314 222.947 291.575C220.832 287.996 220.43 286.491 217.796 283.898C217.524 283.638 217.238 283.288 216.966 283.068L216.122 279.761C215.188 279.618 215.357 280.604 215.305 280.591C213.709 280.176 211.205 274.677 208.999 273.25C204.925 270.618 195.505 268.945 190.497 266.934C185.488 264.924 179.754 262.045 174.745 259.516C171.917 258.09 165.494 253.434 163.197 252.799C161.225 252.254 154.777 255.95 152.428 256.598C146.914 254.523 139.44 256.715 137.715 249.388C137.247 247.416 138.259 244.784 136.702 243.37C137.247 241.71 139.648 239.116 138.83 237.586C131.59 231.53 118.239 220.727 114.814 211.908C110.519 200.846 121.145 191.106 132.589 194.141C137.922 195.554 155.386 211.208 162.627 215.397C166.337 217.549 187.59 228.145 190.484 225.992C186.475 213.088 170.697 190.639 171.437 177.645C171.852 170.343 175.887 165.208 183.036 163.496C187.59 162.406 192.858 165.143 195.453 168.93L194.753 170.654C198.321 177.307 201.655 183.96 205.379 190.432C213.034 203.725 219.989 217.874 228.202 230.894C231.368 235.913 239.49 248.558 243.863 251.735C244.823 252.435 245.031 251.618 245.096 251.644C245.524 251.748 246.562 252.773 246.743 252.474C250.156 236.289 250.286 219.715 251.7 203.219C251.83 201.663 252.452 199.886 250.052 200.366C250.078 199.536 250.026 198.706 250.052 197.889C253.555 195.256 251.622 195.944 251.661 192.559C251.7 187.864 251.869 183.104 251.713 178.41C251.661 176.815 252.556 175.09 250.052 175.557C250.052 175.012 250.039 174.454 250.052 173.897L251.726 167.711L250.895 167.296L250.052 168.943C250.532 158.931 251.155 143.264 264.117 141.643L265.35 142.46L265.778 141.643C266.05 141.643 266.336 141.617 266.608 141.643C265.882 143.9 269.398 143.524 271.578 144.12C271.707 144.471 271.292 145.352 271.655 145.664C272.11 146.079 274.263 145.845 275.483 146.831C279.388 149.956 280.362 162.847 279.843 167.685L281.503 166.453C281.711 170.408 281.387 174.441 281.452 178.397C281.724 179.447 283.398 178.591 283.982 178.851C284.475 179.071 285.11 179.914 286.174 180.342C287.641 180.939 290.651 181.12 291.442 181.73C293.337 183.208 294.465 190.769 293.103 193.194C292.597 194.089 291.312 193.544 290.845 193.933C289.989 194.647 289.431 197.993 287.277 198.706C284.695 200.068 280.569 200.898 281.49 203.673C281.439 203.401 280.569 201.741 279.843 202.026C279.674 205.865 280.037 209.768 279.843 213.607C278.934 230.726 277.196 247.754 276.534 264.885C276.43 267.713 275.743 271.253 275.704 274.806C275.704 275.364 275.704 275.909 275.704 276.466C274.328 278.139 274.289 282.912 275.704 284.741C275.665 285.285 275.704 285.843 275.704 286.401C274.341 287.075 273.446 290.395 274.173 291.277C274.458 291.627 275.6 291.251 275.704 291.368C279.194 295.518 283.255 301.029 286.81 305.504C290.664 310.354 289.353 312.766 296.918 314.439C298.669 314.828 297.761 314.244 298.047 313.324C300.123 306.606 301.835 298.799 310.684 300.666C312.085 300.964 316.575 303.584 317.444 304.648C320.273 308.149 315.952 322.402 315.641 327.576C315.472 330.352 316.769 333.555 315.809 336.836C325.255 346.563 334.649 357.703 344.769 366.651C346.106 367.831 354.54 375.068 355.162 375.353C357.472 376.391 359.327 373.486 362.026 373.512C371.874 373.615 375.001 389.152 376.753 396.713L405.609 428.655C407.218 428.603 406.686 417.865 408.087 415.829V401.771C408.087 398.282 409.061 393.691 408.918 389.321C408.866 387.725 409.761 386.001 407.257 386.467C407.244 386.195 407.27 385.91 407.257 385.637C410.618 384.211 406.764 374.536 407.257 374.069C407.659 373.68 410.008 374.86 409.735 373.239C404.922 373.032 407.244 371.657 407.231 369.595C407.231 369.115 405.934 369.154 405.454 367.961C404.117 364.628 407.309 360.841 403.118 361.645C402.599 359.259 402.378 354.798 400.692 352.904C399.342 351.387 392.05 350.362 388.768 347.457C383.059 342.4 383.643 331.195 390.779 328.212C393.062 327.265 396.825 328.017 397.357 324.814C397.617 323.245 392.881 304.881 391.934 303.766C374.716 294.13 334.818 273.613 331.275 252.669C330.523 248.208 335.622 241.555 339.774 240.011C353.411 234.954 362.48 248.558 373.6 254.277C375.806 255.418 378.232 256.598 380.788 256.598C373.224 237.612 371.044 218.73 368.371 198.706C370.473 196.475 368.734 193.428 367.541 191.262C362.947 182.884 347.131 185.05 346.041 174.234C345.133 165.208 356.732 163.042 363.402 163.963L357.68 132.267C341.863 125.692 328.226 116.704 314.655 106.42C306.766 100.455 290.106 88.4715 287.096 79.3804C286.045 76.203 285.902 72.1438 286.447 68.8498L287.692 69.6538L287.264 68.0198C287.342 67.7604 287.173 67.4232 287.264 67.1898C289.807 67.7734 288.925 64.9462 289.95 64.0773C291.948 62.3784 298.267 62.0541 300.927 62.2227C302.808 62.3395 305.027 64.0384 306.299 63.0527C310.762 65.3871 316.679 71.5862 321.285 74.958C322.92 76.1512 331.833 81.3516 331.95 82.0779C331.95 82.1427 331.25 82.467 331.159 82.8171C334.052 84.101 336.336 85.2163 339.398 86.2149C339.644 86.2927 339.956 86.1501 340.228 86.2149C340.877 88.2899 342.706 87.7712 344.367 87.8749C344.64 87.8879 344.925 87.8749 345.198 87.8749C346.716 89.2366 351.945 89.6127 350.985 87.0449C351.504 87.019 352.139 86.9801 352.645 87.0449C352.736 87.0579 353.359 88.2121 354.293 87.862C354.384 87.3302 354.176 86.6688 354.293 86.2149C354.41 85.761 354.202 85.0866 354.293 84.5549C354.293 84.4771 354.877 84.6716 355.098 83.3359C355.474 81.1571 353.891 77.5388 356.758 77.9279V77.1238C354.021 77.5518 355.253 73.8298 355.124 71.6899C355.033 70.1077 355.993 68.3829 353.463 68.8368C353.437 68.2921 353.489 67.7345 353.463 67.1768C354.773 65.7891 353.541 63.9995 355.954 63.4548C353.956 63.1695 353.398 56.5165 353.398 54.3637C353.398 51.6791 356.162 47.1141 353.463 45.6746L353.592 45.7784ZM354.838 88.7827V89.6127C355.37 89.3404 355.37 89.0551 354.838 88.7827Z" fill="#41B7A5"/>
<path d="M256.773 345.175C257.642 344.514 257.201 342.905 259.251 343.528C258.006 346.55 258.706 348.754 259.251 351.789C256.708 352.684 257.435 349.105 256.708 348.547C256.527 348.404 252.258 348.936 252.011 349.027C249.676 349.973 251.895 349.468 248.3 350.324C245.355 351.024 243.759 354.162 244.33 357.054C244.434 357.573 247.483 357.742 246.017 359.233C245.731 359.531 244.032 358.572 244.382 360.05C245.991 361.762 247.561 360.738 247.678 360.893C249.092 362.748 244.174 362.138 246.821 365.29C248.69 367.52 253.257 365.199 255.553 367.209C257.772 365.056 265.908 367.728 267.4 365.627C267.529 365.445 267.854 360.828 269.203 363.98C269.411 364.46 268.762 365.718 269.631 365.886C271.681 366.262 273.796 364.939 275.833 365.03C273.718 367.598 276.599 370.672 278.688 372.474C279.622 373.291 281.452 373.265 282.074 374.108C282.866 375.172 282.204 376.676 282.451 377.428C282.905 377.597 283.891 377.091 284.734 377.61C286.149 378.479 287.446 382.733 288.25 384.042C289.846 384.808 290.417 383.913 290.729 387.349C289.457 385.754 289.263 385.702 288.25 384.042C285.318 382.642 283.528 380.709 282.464 377.428C278.908 376.131 280.297 375.016 278.325 372.837C277.585 372.02 273.796 368.571 273.018 368.259C264.558 364.81 243.059 375.561 241.917 357.962C241.502 351.53 245.433 349.118 251.025 347.159C253.646 346.238 252.997 348.093 256.825 345.175H256.773Z" fill="#28AE9A"/>
<path d="M280.777 213.672C280.323 230.83 279.466 248.713 277.468 265.78L276.638 264.95C277.299 247.819 279.038 230.791 279.946 213.672H280.777Z" fill="#28AE9A"/>
<path d="M205.47 392.329C205.328 395.779 204.64 400.746 204.64 403.495V415.907C204.64 416.892 203.498 419.642 203.459 421.691C203.42 423.74 204.796 428.823 204.64 429.55C204.588 429.783 202.006 432.545 201.331 432.857C202.032 430.03 202.045 427.993 200.488 425.426H202.992C199.878 421.496 202.927 420.796 203.07 418.422C203.278 414.687 201.435 415.504 201.318 415.077C200.696 412.677 202.81 413.222 202.979 412.457C203.187 411.549 203.239 407.671 203.044 406.841C202.772 405.674 199.709 407.503 200.501 404.74C201.292 404.572 203.563 404.974 203.822 404.74C204.199 404.377 203.667 396.116 203.784 394.327C203.861 393.263 204.64 392.446 204.64 392.329H205.47Z" fill="#28AE9A"/>
<path d="M250.156 200.444C252.557 199.964 251.934 201.741 251.804 203.297C250.377 219.78 250.26 236.367 246.848 252.552C246.666 252.863 245.628 251.826 245.2 251.722C249.417 235.291 249.728 217.394 250.169 200.444H250.156Z" fill="#18A993"/>
<path d="M407.387 386.532C409.891 386.065 408.996 387.803 409.048 389.385C409.191 393.756 408.217 398.347 408.217 401.835V415.894C406.816 417.917 407.348 428.668 405.739 428.72C405.947 414.636 408.127 400.694 407.4 386.532H407.387Z" fill="#20AC97"/>
<path d="M428.069 241.801C432.169 252.734 435.893 263.822 439.656 274.884H438.825L426.486 242.968C425.993 241.049 427.187 242.151 428.069 241.801Z" fill="#28AE9A"/>
<path d="M284.085 178.942C294.946 178.306 297.969 185.647 293.998 194.893C293.207 196.748 289.003 197.941 287.394 198.797C289.548 198.084 290.106 194.738 290.962 194.024C291.416 193.635 292.714 194.193 293.22 193.285C294.582 190.86 293.453 183.299 291.559 181.821C290.768 181.211 287.77 181.03 286.291 180.433C285.227 180.005 284.591 179.162 284.098 178.942H284.085Z" fill="#20AC97"/>
<path d="M126.868 428.72C128.061 427.163 131.629 428.175 133.122 428.655C136.573 429.77 137.896 429.874 141.179 430.704C145.162 431.715 149.288 433.7 153.635 433.842C155.27 434.517 154.777 435.93 155.01 436.164C145.604 433.933 136.223 431.106 126.881 428.72H126.868Z" fill="#28AE9A"/>
<path d="M596.044 479.168C591.204 480.75 581.265 480.18 575.738 480.024C570.833 479.894 567.888 477.262 562.944 480.828C563.035 480.75 562.633 479.842 563.139 479.35C563.385 479.103 564.423 479.22 565.072 478.844C565.436 478.636 565.5 477.664 566.032 477.534C569.341 476.756 574.635 480.763 573.714 475.861C575.309 476.017 574.207 477.923 576.581 478.364C579.319 478.87 587.182 479.466 589.906 479.22C592.631 478.974 594.863 476.224 596.056 479.168H596.044Z" fill="#20AC97"/>
<path d="M456.199 344.358C453.357 341.583 454.279 332.803 453.708 329.068C453.111 325.138 452.086 321.248 451.385 317.331C451.087 315.684 449.906 312.533 451.229 311.275C453.954 322.13 455.991 333.114 456.199 344.358Z" fill="#20AC97"/>
<path d="M403.248 361.723C407.439 360.919 404.247 364.706 405.584 368.039C406.064 369.232 407.361 369.193 407.361 369.673C407.361 371.735 405.039 373.11 409.865 373.317C410.138 374.938 407.789 373.758 407.387 374.147C406.894 374.614 410.761 384.289 407.387 385.715C406.907 378.025 404.909 369.31 403.248 361.736V361.723Z" fill="#28AE9A"/>
<path d="M548.049 359.246C550.89 360.712 547.192 362.086 547.179 362.255C546.686 369.725 541.821 378.18 542.262 386.947L540.601 385.715C541.743 376.948 543.482 366.885 548.049 359.246Z" fill="#20AC97"/>
<path d="M574.531 381.578L572.87 413.015C575.815 413.559 577.775 412.418 580.318 411.355C580.253 411.406 580.746 412.211 579.708 412.989C578.851 413.624 574.414 414.895 573.389 414.636C570.223 408.839 572.52 401.187 572.857 395.221C573.091 391.136 571.469 384.38 574.518 381.591L574.531 381.578Z" fill="#20AC97"/>
<path d="M250.156 175.635C252.66 175.168 251.752 176.906 251.817 178.488C251.972 183.182 251.817 187.929 251.765 192.637C251.739 196.021 253.659 195.334 250.156 197.967C250.208 195.723 250.104 193.557 250.156 191.353L250.973 190.938L250.156 190.523C250.26 185.569 250.052 180.589 250.156 175.635Z" fill="#18A993"/>
<path d="M185.619 494.056C182.751 496.883 180.519 494.51 178.404 494.251C176.51 494.004 166.169 491.916 165.767 492.396C165.391 492.837 166.571 495.146 164.949 494.886L163.289 490.762C170.282 491.255 178.495 493.135 185.632 494.069L185.619 494.056Z" fill="#28AE9A"/>
<path d="M586.117 195.477C586.455 187.851 586.403 178.371 588.595 170.667H589.426C588.673 178.955 587.947 187.306 586.117 195.477Z" fill="#20AC97"/>
<path d="M102.864 342.698C99.6721 334.58 94.2745 325.073 97.0771 316.229L98.1541 326.318C99.1012 330.326 100.944 334.035 102.28 337.913C102.63 338.95 103.902 341.894 102.877 342.698H102.864Z" fill="#20AC97"/>
<path d="M563.775 111.115C565.319 111.906 564.462 114.02 564.229 115.278C563.295 120.517 561.971 124.836 561.258 129.738C561.037 131.281 562.283 133.084 559.636 132.617C560.881 125.303 561.867 118.313 563.775 111.115Z" fill="#28AE9A"/>
<path d="M322.972 424.583C319.365 420.822 313.591 424.894 309.231 425.322C303.47 425.893 301.757 425.348 298.15 421.276L302.263 423.351C307.207 426.684 319.326 419.33 322.569 422.093C324.71 423.908 322.907 424.427 322.972 424.583Z" fill="#20AC97"/>
<path d="M439.656 100.364C437.904 96.8106 440.434 91.4156 440.395 87.6417C440.369 85.8909 438.644 81.9743 438.008 79.6918L439.669 78.8618C441.407 84.8793 442.692 94.6189 439.669 100.364H439.656Z" fill="#28AE9A"/>
<path d="M412.343 176.452C409.787 176.724 410.618 175.829 411.357 174.221C414.16 168.152 416.703 161.369 419.402 154.962C420.349 152.719 419.142 150.994 422.269 149.165C420.401 158.412 414.419 167.27 412.343 176.464V176.452Z" fill="#28AE9A"/>
<path d="M176.51 350.972C178.08 357.262 176.756 364.602 176.51 371.268C176.458 372.863 177.353 374.588 174.849 374.121C175.42 366.392 175.692 358.675 176.51 350.959V350.972Z" fill="#20AC97"/>
<path d="M353.592 45.7783C356.291 47.2179 353.528 51.7829 353.528 54.4674C353.528 56.6202 354.098 63.2732 356.084 63.5585C353.67 64.1032 354.903 65.8929 353.592 67.2805C353.32 60.3422 351.426 52.6388 353.592 45.7783Z" fill="#28AE9A"/>
<path d="M523.228 510.592C521.645 513.017 522.605 511.992 524.486 512.226C530.208 512.939 535.8 513.899 541.432 514.729C540.575 516.272 538.46 515.468 537.137 515.312C531.129 514.612 525.2 513.004 519.102 513.056C519.465 511.668 521.956 511.383 523.241 510.579L523.228 510.592Z" fill="#20AC97"/>
<path d="M628.312 506.467C617.245 509.697 605.697 516.946 593.916 517.257C591.982 517.309 592.008 516.401 591.892 516.401C597.899 515.143 604.023 514.326 609.901 512.485C617.167 510.215 620.735 506.377 628.299 506.48L628.312 506.467Z" fill="#20AC97"/>
<path d="M211.27 497.363C209.142 499.166 197.685 497.026 194.299 496.507C192.768 496.274 190.938 497.558 191.405 494.886C198.01 495.768 204.679 496.326 211.27 497.363Z" fill="#20AC97"/>
<path d="M353.593 68.9407C356.123 68.4868 355.163 70.2117 355.253 71.7939C355.383 73.9337 354.164 77.6428 356.888 77.2278V78.0318C354.008 77.6428 355.591 81.2611 355.227 83.4398C354.994 84.7886 354.436 84.594 354.423 84.6589C352.892 79.6011 353.826 74.1671 353.593 68.9407Z" fill="#28AE9A"/>
<path d="M419.791 212.025L415.898 205.579C415.989 202.791 414.808 200.651 414.108 198.226C413.719 196.864 412.434 196.411 414.834 195.49C416.599 200.95 417.871 206.63 419.804 212.038L419.791 212.025Z" fill="#28AE9A"/>
<path d="M179.818 330.3C181.311 333.555 178.806 338.25 178.897 341.492C178.949 343.515 180.817 342.024 180.649 343.515C179.987 343.541 178.923 343.8 178.573 344.319C177.327 346.174 179.676 349.779 176.51 349.312C177.171 343.437 178.197 335.928 179.818 330.287V330.3Z" fill="#20AC97"/>
<path d="M377.596 510.591C380.113 510.098 379.049 511.81 379.361 513.328C380.658 519.566 380.762 522.613 380.905 528.786H380.074C379.607 523.067 377.739 515.701 377.596 510.591Z" fill="#20AC97"/>
<path d="M414.004 193.83C413.459 192.209 411.824 189.394 411.591 186.723C411.253 182.988 411.85 181.224 412.356 178.112L414.017 193.83H414.004Z" fill="#28AE9A"/>
<path d="M471.925 438.641C471.834 444.334 469.771 449.703 468.616 455.189C466.838 449.898 470.848 443.297 471.12 437.811C471.471 437.94 471.795 438.641 471.925 438.654V438.641Z" fill="#20AC97"/>
<path d="M266.712 141.721C267.633 141.799 271.266 142.344 271.591 142.655C271.954 143.005 271.552 143.861 271.682 144.198C272.227 144.341 272.94 143.965 273.913 144.432C275.107 145.015 278.649 150.358 279.285 151.902C281.322 156.856 281.348 161.369 281.607 166.53L279.947 167.762C280.466 162.925 279.492 150.034 275.587 146.909C274.354 145.923 272.214 146.157 271.759 145.742C271.396 145.417 271.811 144.535 271.682 144.198C269.515 143.602 265.999 143.978 266.712 141.721Z" fill="#20AC97"/>
<path d="M506.685 238.481L506.594 240.621C502.611 239.726 503.065 247.767 503.454 250.412L505.037 256.689C504.635 255.911 503.739 255.263 503.233 253.979C501.17 248.778 501.041 240.79 506.698 238.494L506.685 238.481Z" fill="#18A993"/>
<path d="M205.47 190.523C201.746 184.051 198.412 177.398 194.844 170.745L195.544 169.021C199.359 174.584 202.992 184.155 205.47 190.523Z" fill="#20AC97"/>
<path d="M600.182 188.033C600.714 190.121 595.343 194.673 595.226 195.217C594.966 196.436 595.602 199.043 595.096 199.536C594.837 199.782 593.422 199.328 592.929 199.795C592.748 199.964 590.425 202.389 589.906 202.947C587.791 205.216 586.688 209.522 582.822 209.535C582.277 206.552 583.886 203.842 584.47 201.274H585.3C585.248 202.869 585.949 205.294 585.715 207.058C590.983 201.04 594.681 193.674 600.195 188.033H600.182Z" fill="#28AE9A"/>
<path d="M616.738 155.779C620.021 147.609 622.071 138.44 625.847 130.14C627.598 130.944 626.106 132.695 625.73 133.745C623.524 139.996 621.137 146.273 618.827 152.498C618.36 153.769 618.321 155.248 616.738 155.779Z" fill="#28AE9A"/>
<path d="M634.112 346.005C634.112 346.109 634.825 346.783 634.981 347.989C635.357 350.92 635.461 365.225 634.916 367.753C634.696 368.752 631.452 370.269 630.803 370.827C637.031 365.147 632.983 353.773 634.112 346.018V346.005Z" fill="#18A993"/>
<path d="M377.596 40.8115C383.137 46.9068 383.357 53.3523 384.213 61.4837C381.554 61.9506 382.825 60.1479 382.592 58.6046C381.592 51.9517 380.853 46.8161 377.596 40.8115Z" fill="#20AC97"/>
<path d="M152.519 256.689C143.553 259.192 133.718 252.902 136.793 243.461C138.35 244.875 137.351 247.507 137.805 249.479C139.531 256.819 147.005 254.627 152.519 256.689Z" fill="#18A993"/>
<path d="M122.729 510.591C129.579 514.08 136.936 515.947 144.059 518.645C145.681 519.254 146.654 518.113 145.071 520.525C138.571 518.593 128.048 514.689 122.729 510.604V510.591Z" fill="#20AC97"/>
<path d="M494.267 126.833C493.424 121.633 493.178 120.569 494.267 115.252C495.669 118.196 495.643 124.058 494.267 126.833Z" fill="#18A993"/>
<path d="M306.428 63.1435C305.157 64.1421 302.938 62.4432 301.057 62.3135C298.397 62.1449 292.078 62.4691 290.08 64.1681C289.055 65.037 289.937 67.8641 287.394 67.2806C288.198 65.2704 290.508 62.2227 292.947 61.6651C297.203 60.6924 302.666 61.1852 306.415 63.1435H306.428Z" fill="#18A993"/>
<path d="M331.249 487.442C328.719 483.902 321.959 483.824 318.236 485.575C315.303 486.949 312.799 494.964 313.033 498.193C312.488 498.245 311.943 498.193 311.385 498.193C311.748 489.556 317.535 480.4 327.097 483.733C330.484 484.913 329.809 485.224 331.249 487.442Z" fill="#28AE9A"/>
<path d="M538.954 419.616C540.861 422.767 539.447 427.371 538.928 430.795C538.694 432.338 539.979 434.154 537.306 433.687C538.097 429.148 538.694 424.22 538.966 419.629L538.954 419.616Z" fill="#18A993"/>
<path d="M631.634 293.08C633.515 297.217 631.984 302.676 632.451 307.138C631.686 307.501 630.842 304.868 630.803 304.661C630.687 303.96 630.777 302.949 630.803 302.184C631.841 301.782 631.647 300.614 631.634 299.707C631.595 297.191 631.504 295.712 631.634 293.093V293.08Z" fill="#18A993"/>
<path d="M162.445 490.749C162.289 490.749 161.654 491.709 159.565 491.657C158.643 491.631 152.805 490.944 152.519 490.736C152.351 490.62 152.558 489.569 152.519 489.102C155.75 489.66 159.266 489.595 162.445 490.762V490.749Z" fill="#28AE9A"/>
<path d="M608.46 173.145L604.244 186.321C603.53 186.684 602.375 186.191 601.843 186.386C603.387 181.652 606.255 177.58 608.46 173.158V173.145Z" fill="#28AE9A"/>
<path d="M385.862 78.8618C385.901 79.2379 386.303 79.601 386.692 79.6918C386.822 80.4569 386.588 81.3907 386.692 82.1688H385.044C385.784 79.199 384.214 76.0087 384.175 73.4409C384.149 71.5085 385.044 71.5344 385.044 71.4177C386.653 73.4538 385.654 76.3977 385.875 78.8618H385.862Z" fill="#20AC97"/>
<path d="M206.301 374.951C204.912 370.14 204.912 363.15 206.301 358.403C206.404 363.889 206.404 369.465 206.301 374.951Z" fill="#18A993"/>
<path d="M648.177 203.751L649.863 197.513L649.007 191.353C652.368 195.827 651.978 199.951 648.177 203.764V203.751Z" fill="#20AC97"/>
<path d="M565.435 311.275C560.673 311.936 554.653 310.795 549.709 311.275C552.94 309.641 561.685 310.095 565.435 311.275Z" fill="#18A993"/>
<path d="M594.396 130.14C592.852 128.688 594.616 120.258 595.226 117.729C595.226 117.846 595.94 118.274 595.94 118.935C595.888 122.32 594.422 126.613 594.409 130.14H594.396Z" fill="#18A993"/>
<path d="M206.3 380.748C206.287 381.293 206.313 381.851 206.3 382.408L205.483 382.823L206.3 383.238C206.287 383.783 206.326 384.341 206.3 384.898L205.47 385.728C205.392 387.92 205.561 390.151 205.47 392.342H204.64C204.756 390.371 204.289 381.215 204.64 380.761C204.743 380.632 205.833 380.839 206.287 380.761L206.3 380.748Z" fill="#18A993"/>
<path d="M431.378 128.48L422.269 148.335C422.516 147.051 421.971 145.339 422.282 143.965C422.412 143.407 423.787 143.226 424.41 141.812C425.798 138.674 428.666 128.999 430.742 127.806C431.027 127.637 431.339 128.493 431.378 128.48Z" fill="#28AE9A"/>
<path d="M334.558 506.467C333.377 508.464 332.923 502.94 332.91 502.732C332.806 500.151 332.262 496.261 333.728 494.056C334.156 498.128 333.637 502.136 334.558 506.467Z" fill="#18A993"/>
<path d="M135.963 485.782C130.552 487.416 124.96 486.366 120.237 489.919C123.416 485.237 130.942 485.406 135.963 485.782Z" fill="#20AC97"/>
<path d="M574.531 378.258H573.7C573.285 373.966 573.311 367.468 574.531 363.37C574.907 368 574.57 373.512 574.531 378.258Z" fill="#18A993"/>
<path d="M444.612 289.772C442.536 290.174 442.821 288.852 442.393 287.477C441.109 283.327 439.733 279.125 438.825 274.884H439.656C441.342 279.825 443.042 284.792 444.625 289.772H444.612Z" fill="#20AC97"/>
<path d="M281.608 203.751C281.698 204.192 281.634 204.905 281.608 205.411L280.777 206.241C280.712 208.718 280.842 211.208 280.777 213.685H279.947C280.154 209.859 279.791 205.942 279.947 202.104C280.66 201.818 281.543 203.478 281.595 203.751H281.608Z" fill="#18A993"/>
<path d="M642.39 532.107C645.582 526.478 646.659 519.151 644.051 513.082C646.529 516.765 646.983 517.737 646.542 522.601C646.166 526.686 644.92 529.305 642.403 532.107H642.39Z" fill="#20AC97"/>
<path d="M275.807 284.806C274.393 282.977 274.432 278.204 275.807 276.531C275.781 279.034 275.989 281.81 275.807 284.806Z" fill="#18A993"/>
<path d="M647.346 204.581C643.519 207.226 642.091 206.422 638.238 207.058C638.316 206.591 638.095 205.502 638.238 205.411C638.601 205.138 645.711 205.528 647.346 204.581Z" fill="#20AC97"/>
<path d="M277.468 265.78C277.131 268.634 276.716 272.511 275.808 274.884C275.847 271.331 276.521 267.778 276.638 264.963L277.468 265.793V265.78Z" fill="#18A993"/>
<path d="M428.9 68.9407C436.464 68.9796 437.852 72.6368 439.656 78.8618L437.995 79.6918C437.32 77.3185 437.813 72.3255 434.492 71.1713C432.403 70.4451 428.484 71.6252 428.887 68.9407H428.9Z" fill="#20AC97"/>
<path d="M368.488 198.784C368.164 196.371 367.152 193.998 367.658 191.34C368.851 193.505 370.59 196.553 368.488 198.784Z" fill="#20AC97"/>
<path d="M665.55 321.196L666.381 322.856C666.446 323.388 666.29 323.997 666.381 324.516C663.695 325.501 664.266 318.745 665.55 317.072C665.654 318.433 665.434 319.847 665.55 321.209V321.196Z" fill="#18A993"/>
<path d="M668.041 406.388C665.602 406.102 661.515 407.581 662.255 404.728C664.253 404.909 666.536 404.728 668.041 406.388Z" fill="#20AC97"/>
<path d="M591.904 155.779C591.788 156.558 592.073 157.569 591.904 158.256L591.074 159.086C590.477 161.706 590.425 164.922 590.075 167.62L589.413 168.178C589.712 164.222 590.205 160.267 590.205 156.285C590.373 155.287 591.697 155.935 591.904 155.779Z" fill="#18A993"/>
<path d="M185.618 479.998C180.727 480.413 179.637 480.167 176.51 476.691L185.618 479.998Z" fill="#18A993"/>
<path d="M275.808 291.419C275.717 291.303 274.562 291.679 274.277 291.329C273.55 290.447 274.445 287.14 275.808 286.452C275.795 288.099 275.808 289.759 275.808 291.419Z" fill="#18A993"/>
<path d="M351.114 87.1357C352.062 89.7036 346.846 89.3275 345.328 87.9657C347.65 87.9528 349.35 87.2265 351.114 87.1357Z" fill="#28AE9A"/>
<path d="M217.887 283.976C220.521 286.569 220.923 288.074 223.038 291.653C223.479 292.405 225.478 294.234 223.687 294.727C221.65 291.264 219.483 287.685 217.9 283.976H217.887Z" fill="#18A993"/>
<path d="M250.156 173.974C250.208 172.327 250.078 170.654 250.156 169.007L250.999 167.36L251.83 167.775L250.156 173.961V173.974Z" fill="#18A993"/>
<path d="M586.117 197.137C586.091 198.641 585.326 200.081 585.287 201.274H584.456C584.911 199.263 583.224 196.514 586.117 197.137Z" fill="#20AC97"/>
<path d="M339.528 86.3057C336.466 85.3071 334.169 84.1918 331.289 82.9079C331.379 82.5578 332.093 82.2335 332.08 82.1687L339.528 86.3057Z" fill="#28AE9A"/>
<path d="M376.766 506.467C380.308 505.936 377.622 509.139 377.597 509.775C377.363 508.659 377 507.583 376.766 506.467Z" fill="#20AC97"/>
<path d="M665.55 315.412C662.748 315.995 664.421 313.856 665.55 312.105C665.628 313.194 665.472 314.322 665.55 315.412Z" fill="#18A993"/>
<path d="M438.825 101.194C438.76 102.011 438.916 102.867 438.825 103.671C434.634 100.896 438.488 101.466 438.825 101.194Z" fill="#28AE9A"/>
<path d="M344.497 87.9527C342.836 87.849 341.007 88.3677 340.358 86.2927C341.733 86.6558 343.355 87.006 344.497 87.9527Z" fill="#28AE9A"/>
<path d="M354.423 86.3057C354.306 86.7596 354.501 87.421 354.423 87.9527C353.489 88.3029 352.866 87.1486 352.775 87.1357L354.436 86.3057H354.423Z" fill="#28AE9A"/>
<path d="M664.733 446.915C664.149 446.37 663.617 445.748 663.072 445.255L663.487 444.438C664.357 445.06 664.811 445.799 664.733 446.902V446.915Z" fill="#20AC97"/>
<path d="M630.803 302.171C630.829 301.263 630.557 300.083 631.634 299.694C631.647 300.601 631.854 301.769 630.803 302.171Z" fill="#41B7A5"/>
<path d="M538.953 417.968C539.005 417.151 538.902 416.308 538.953 415.491C540.199 415.608 540.199 417.852 538.953 417.968Z" fill="#18A993"/>
<path d="M538.954 412.171C538.993 411.627 538.915 411.069 538.954 410.511L539.771 410.939L538.954 412.171Z" fill="#18A993"/>
<path d="M217.057 283.145C216.252 282.484 215.746 281.641 215.396 280.668C215.448 280.681 215.279 279.696 216.213 279.838L217.057 283.145Z" fill="#18A993"/>
<path d="M589.426 170.668H588.596C588.777 170.032 588.622 169.319 589.426 169.008C589.387 169.552 589.478 170.123 589.426 170.668Z" fill="#18A993"/>
<path d="M666.381 322.856L665.55 321.196C665.55 321.287 666.186 321.429 666.381 322.856Z" fill="#41B7A5"/>
<path d="M615.908 158.256C616.207 157.517 616.609 156.921 616.739 156.596L615.908 158.256Z" fill="#28AE9A"/>
<path d="M121.898 509.774C121.626 509.515 121.301 509.243 121.068 508.944L121.885 508.114V509.761L121.898 509.774Z" fill="#20AC97"/>
<path d="M265.882 141.721L265.453 142.538L264.221 141.721C264.74 141.656 265.337 141.721 265.882 141.721Z" fill="#20AC97"/>
<path d="M280.777 206.228L281.607 205.398C281.568 205.968 280.777 206.163 280.777 206.228Z" fill="#41B7A5"/>
<path d="M591.087 159.086L591.917 158.256C591.762 158.918 591.1 159.022 591.087 159.086Z" fill="#41B7A5"/>
<path d="M250.156 191.34C250.156 191.067 250.156 190.782 250.156 190.51L250.973 190.925L250.156 191.34Z" fill="#41B7A5"/>
<path d="M631.634 291.42C631.66 291.147 631.608 290.862 631.634 290.59L632.451 291.005L631.634 291.42Z" fill="#18A993"/>
<path d="M386.692 79.6918C386.302 79.601 385.9 79.2379 385.861 78.8618C386.251 78.9656 386.627 79.3028 386.692 79.6918Z" fill="#41B7A5"/>
<path d="M666.381 448.562C666.095 448.303 665.836 448.004 665.55 447.732L666.381 448.562Z" fill="#20AC97"/>
<path d="M385.044 69.7577L384.227 69.3427L385.044 68.9277C385.057 69.2001 385.031 69.4854 385.044 69.7577Z" fill="#20AC97"/>
<path d="M574.531 379.088C574.141 378.997 573.739 378.634 573.7 378.258H574.531C574.531 378.531 574.531 378.816 574.531 379.088Z" fill="#20AC97"/>
<path d="M286.564 68.9406C286.668 68.3051 287.368 68.1754 287.394 68.1106L287.823 69.7447L286.577 68.9406H286.564Z" fill="#18A993"/>
<path d="M206.3 383.225L205.483 382.81L206.3 382.395C206.3 382.668 206.3 382.953 206.3 383.225Z" fill="#41B7A5"/>
<path d="M205.47 385.702L206.301 384.872C206.275 385.417 205.47 385.637 205.47 385.702Z" fill="#41B7A5"/>
<path d="M354.838 88.7827C355.37 89.0551 355.37 89.3404 354.838 89.6127V88.7827Z" fill="#28AE9A"/>
</g>
</g>
<defs>
<clipPath id="clip0_504_11283">
<rect width="669" height="516" fill="white"/>
</clipPath>
<clipPath id="clip1_504_11283">
<rect width="715" height="664" fill="white" transform="translate(54 36)"/>
</clipPath>
</defs>
</svg>
