<svg width="669" height="516" viewBox="0 0 669 516" fill="none" xmlns="http://www.w3.org/2000/svg">
<g clip-path="url(#clip0_504_11288)">
<rect width="669" height="516" fill="#D9D9D9" fill-opacity="0.6"/>
<g clip-path="url(#clip1_504_11288)">
<path d="M661.959 188.207C661.78 188.183 661.35 187.157 660.813 187.014C660.861 194.103 660.288 201.024 661.589 208.017C661.983 210.117 661.112 212.385 664.31 211.693C673.333 249.379 708.446 257.184 738.212 275.8C771.343 296.517 799.605 321.004 827.581 347.927L828.75 349.096C829.144 349.478 829.526 349.884 829.92 350.266L831.09 351.435C831.889 352.223 832.653 352.998 833.441 353.786L834.61 354.955C835.004 355.349 835.398 355.731 835.78 356.125C836.973 359.944 844.683 364.741 846.02 367.044C846.736 368.273 845.937 370.409 846.545 371.173C846.939 371.674 849.35 371.567 850.484 372.498C852.859 374.431 857.705 379.407 860.438 381.961C866.644 387.773 871.788 393.883 876.884 400.757C879.868 404.778 882.446 411.926 887.458 413.681C887.637 413.955 887.279 414.588 887.458 414.85C895.61 427.01 904.37 437.715 912.128 447.739C945.952 491.452 964.713 547.492 984.955 598.067L982.604 643.868C980.444 644.142 978.928 642.651 977.341 641.505C968.843 635.359 951.871 619.643 943.851 612.16C902.401 573.531 866.059 535.761 814.643 507.634C817.472 506.333 815.049 504.269 814.082 502.896C757.308 422.523 606.306 364.144 511.841 347.079C471.692 339.824 432.438 340.719 391.799 339.692C388.41 342.724 409.499 361.065 412.554 362.963C422.472 369.121 432.796 369.419 442.547 374.073C462.991 383.823 467.037 407.976 475.189 426.581C479.688 436.856 483.149 444.243 490.489 452.966C495.717 459.172 517.904 477.907 518.62 483.647C519.05 487.036 517.474 493.23 514.049 494.185C506.065 496.416 491.576 494.244 483.4 492.347C484.08 489.232 481.837 490.044 479.927 489.423C472.921 487.156 465.903 484.65 458.742 482.943C456.809 482.072 454.506 481.38 452.87 480.592C444.492 472.418 431.937 470.15 424.322 460.973L416.457 458.277C396.836 443.204 386.428 429.027 370.615 410.745C369.015 408.895 367.977 407.583 368.299 411.306C368.12 410.327 366.533 407.821 365.948 406.604C364.826 404.265 364.444 404.372 363.597 403.084C329.928 351.542 280.709 349.597 226.166 338.487C222.896 337.819 220.031 336.602 217.047 335.17C200.076 339.203 183.63 346.59 166.515 351.077C138.241 358.476 104.966 364.311 76.9906 353.762C81.1082 338.63 107.652 328.725 121.329 323.522C125.542 321.923 143.54 317.257 145.115 315.598C146.56 314.095 148.708 302.937 150.08 299.428C172.423 242.672 250.74 212.23 306.011 200.487C319.02 197.718 340.885 193.064 353.643 192.85C358.19 192.778 362.511 194.568 366.581 194.162C368.729 193.947 368.144 191.943 369.087 191.728C371.617 191.143 375.902 191.787 378.85 191.704C388.815 194.389 400.249 192.169 410.561 192.861C410.74 191.847 405.238 190.606 404.689 190.522C421.1 190.904 437.63 190.009 454.016 190.522L450.495 192.861C455.771 193.076 461.118 192.635 466.393 192.826C468.863 192.921 477.051 196.382 476.335 191.704C482.051 192.038 481.204 194.031 481.777 194.103C484.045 194.401 489.284 192.229 493.449 192.778C495.693 193.064 495.037 195.129 495.633 195.093C498.629 194.914 502.329 193.04 506.1 194.055C507.091 194.317 506.769 196.621 507.425 196.406C518.656 192.85 527.703 191.095 538.48 185.152C571.409 166.989 600.494 137.645 637.516 126.809C650.203 123.098 675.434 119.398 687.512 124.41C704.042 131.284 683.681 145.783 678.37 152.395C670.684 161.965 664.549 175.355 663.057 187.587C662.83 188.172 662.46 188.243 661.899 188.183L661.959 188.207ZM250.501 302.376C240.356 305.395 239.688 327.604 254.953 328.069C274.538 328.666 270.313 296.481 250.501 302.376Z" fill="#6CC7BC"/>
<path d="M814.655 507.658C730.525 461.642 640.13 453.026 547.61 438.193C523.502 434.326 499.667 427.846 475.201 426.617C467.049 408.013 463.003 383.847 442.559 374.109C432.796 369.455 422.484 369.145 412.566 362.999C409.499 361.102 388.41 342.76 391.811 339.729C432.45 340.755 471.704 339.86 511.853 347.115C606.318 364.18 757.319 422.56 814.094 502.932C815.061 504.293 817.472 506.369 814.655 507.67V507.658Z" fill="#C1E4D6"/>
<path d="M349.514 405.483C349.12 405.459 348.726 405.518 348.344 405.483C348.165 404.683 348.953 404.015 349.514 404.313C349.561 404.337 349.585 405.351 349.514 405.483Z" fill="#C1E4D6"/>
<path d="M226.19 338.535C280.732 349.645 329.94 351.591 363.621 403.132C360.351 405.053 353.655 404.6 349.526 404.301C349.347 404.289 348.201 403.191 346.685 403.072C338.259 402.416 328.174 400.817 320.154 403.12C319.378 403.048 318.578 403.191 317.802 403.12C318.96 399.17 310.964 400.924 307.228 400.769C306.834 400.757 306.44 400.793 306.058 400.769C304.948 398.883 300.198 398.848 299.017 400.769C296.188 400.53 292.715 399.933 289.624 399.599C246.443 394.886 203.561 383.716 159.783 385.458C136.486 386.389 105.802 392.881 85.3212 377.797C79.2941 373.357 78.4109 371.245 77.0145 364.371C111.328 370.816 145.438 365.815 178.641 356.173C194.431 351.591 211.438 345.445 226.19 338.535Z" fill="#C1E4D6"/>
<path d="M335.418 404.313C336.194 404.385 336.994 404.241 337.77 404.313C336.111 408.227 348.547 407.165 349.514 405.482C350.289 405.542 351.089 405.435 351.865 405.482L360.076 407.845L357.737 410.172C360.673 411.258 363.418 405.471 365.948 407.833C366.402 408.251 365.769 417.881 365.96 420.161C367.237 435.388 371.044 449.732 377.99 463.325L388.266 479.483C388.66 482.263 388.016 484.041 387.097 486.523C384.734 485.7 384.937 488.636 383.934 488.851C365.316 492.968 338.02 473.731 325.25 461.451C322.815 459.112 316.036 452.226 314.27 450.114C313.924 449.696 313.434 449.374 313.1 448.945C307.908 442.226 296.343 420.757 294.135 413.251C293.049 409.576 291.581 405.924 291.951 401.962C293.097 400.816 319.843 405.172 324.271 405.47C327.494 405.685 332.745 406.342 335.418 404.313Z" fill="#20B2A9"/>
<path d="M226.19 338.535C211.438 345.445 194.431 351.59 178.641 356.173C145.438 365.815 111.339 370.815 77.0145 364.371C75.8926 358.858 75.4391 359.574 77.0145 353.798C104.978 364.347 138.265 358.524 166.539 351.113C183.653 346.626 200.112 339.251 217.071 335.206C220.055 336.638 222.919 337.855 226.19 338.523V338.535Z" fill="#00A49F"/>
<path d="M299.005 400.781C301.32 400.972 303.719 400.65 306.046 400.781C306.44 400.805 306.834 400.769 307.216 400.781C309.854 401.986 314.902 402.881 317.79 403.132C318.566 403.203 319.366 403.06 320.142 403.132C325.178 403.609 330.358 403.86 335.407 404.301C332.733 406.33 327.482 405.674 324.259 405.459C319.843 405.16 293.097 400.805 291.939 401.95C291.557 405.912 293.037 409.564 294.123 413.239C296.343 420.746 307.896 442.214 313.088 448.933C302.681 434.911 290.615 417.619 289.6 399.611C292.703 399.945 296.176 400.554 298.993 400.781H299.005Z" fill="#00A49F"/>
<path d="M365.96 406.652C366.545 407.869 368.132 410.375 368.311 411.354C368.442 412.058 368.228 412.941 368.311 413.705L367.165 414.29L368.311 414.874C369.66 427.238 369.278 436.737 373.384 449.148C376.272 457.871 387.395 473.11 388.278 479.471L378.002 463.313C371.044 449.72 367.249 435.376 365.972 420.149C365.781 417.87 366.402 408.239 365.96 407.822C363.43 405.459 360.685 411.247 357.749 410.161L360.088 407.834L351.877 405.471C356.615 405.793 361.198 406.939 365.972 406.64L365.96 406.652Z" fill="#00A49F"/>
<path d="M314.282 450.114C316.06 452.227 322.827 459.112 325.262 461.451C338.032 473.731 365.327 492.968 383.946 488.851C384.937 488.636 384.746 485.7 387.109 486.524C385.76 490.163 383.839 491.178 379.494 491.345C362.535 492.013 344.155 478.158 331.313 468.898L314.27 450.114H314.282Z" fill="#00A49F"/>
<path d="M476.37 191.74C477.086 196.43 468.911 192.957 466.429 192.862C461.153 192.671 455.806 193.112 450.531 192.898L454.052 190.559C461.356 190.785 469.03 191.31 476.37 191.728V191.74Z" fill="#20B2A9"/>
<path d="M401.204 190.558L401.789 191.704L402.374 190.558C403.137 190.594 403.997 190.451 404.725 190.558C405.262 190.642 410.764 191.883 410.597 192.897C400.285 192.193 388.863 194.425 378.886 191.74C383.182 191.62 387.515 191.835 391.811 191.74C392.981 191.716 394.162 191.752 395.332 191.74C396.12 191.74 396.895 191.752 397.683 191.74C397.982 191.74 398.59 190.57 398.853 190.57C399.641 190.558 400.416 190.582 401.204 190.57V190.558Z" fill="#20B2A9"/>
<path d="M661.959 188.208C661.482 196.215 662.448 203.948 664.31 211.693C661.112 212.385 661.983 210.106 661.589 208.017C660.276 201.036 660.861 194.115 660.813 187.014C661.362 187.157 661.792 188.184 661.959 188.208Z" fill="#20B2A9"/>
<path d="M458.754 482.991C465.915 484.686 472.945 487.192 479.939 489.471C481.849 490.092 484.092 489.28 483.412 492.395C474.258 490.271 467.061 486.715 458.742 483.003L458.754 482.991Z" fill="#20B2A9"/>
<path d="M416.469 458.336L424.334 461.033C431.948 470.21 444.504 472.478 452.882 480.652C439.969 474.495 427.795 467.036 416.469 458.336Z" fill="#20B2A9"/>
<path d="M395.332 191.74C394.162 191.752 392.981 191.716 391.811 191.74C391.978 189.974 395.165 189.974 395.332 191.74Z" fill="#6CC7BC"/>
<path d="M368.311 414.874L367.165 414.289L368.311 413.705C368.347 414.086 368.263 414.492 368.311 414.874Z" fill="#20B2A9"/>
<path d="M401.204 190.558C401.598 190.558 401.992 190.535 402.374 190.558L401.789 191.704L401.204 190.558Z" fill="#6CC7BC"/>
<path d="M397.671 191.74L398.841 190.57C398.578 190.57 397.97 191.74 397.671 191.74Z" fill="#6CC7BC"/>
<path d="M250.501 302.376C270.313 296.481 274.538 328.666 254.953 328.069C239.688 327.604 240.356 305.395 250.501 302.376Z" fill="#134B3E"/>
<path d="M349.514 404.313C348.953 404.014 348.165 404.695 348.344 405.482C344.704 405.196 341.255 404.611 337.77 404.313C336.994 404.241 336.194 404.384 335.418 404.313C330.37 403.859 325.178 403.621 320.154 403.143C328.162 400.84 338.247 402.427 346.685 403.096C348.201 403.215 349.335 404.313 349.526 404.325L349.514 404.313Z" fill="#FEFCEF"/>
<path d="M365.96 406.652C361.186 406.95 356.603 405.805 351.865 405.483C351.089 405.435 350.289 405.542 349.514 405.483C349.585 405.351 349.561 404.337 349.514 404.313C353.643 404.611 360.339 405.065 363.609 403.144C364.456 404.432 364.838 404.325 365.96 406.664V406.652Z" fill="#FEFCEF"/>
<path d="M307.228 400.781C310.964 400.936 318.948 399.17 317.802 403.131C314.914 402.881 309.866 401.998 307.228 400.781Z" fill="#FEFCEF"/>
<path d="M306.058 400.781C303.731 400.649 301.332 400.972 299.017 400.781C300.198 398.859 304.948 398.895 306.058 400.781Z" fill="#FEFCEF"/>
<path d="M348.344 405.482C348.738 405.518 349.132 405.459 349.514 405.482C348.547 407.165 336.111 408.215 337.77 404.313C341.255 404.611 344.704 405.208 348.344 405.482Z" fill="#00A49F"/>
</g>
</g>
<defs>
<clipPath id="clip0_504_11288">
<rect width="669" height="516" fill="white"/>
</clipPath>
<clipPath id="clip1_504_11288">
<rect width="1049" height="611" fill="white" transform="translate(76 122)"/>
</clipPath>
</defs>
</svg>
