<svg width="669" height="516" viewBox="0 0 669 516" fill="none" xmlns="http://www.w3.org/2000/svg">
<g clip-path="url(#clip0_504_7718)">
<rect width="669" height="516" fill="#D9D9D9" fill-opacity="0.6"/>
<g clip-path="url(#clip1_504_7718)">
<path d="M112.134 390.755C113.282 385.43 109.456 386.834 106.198 385.767C75.5127 375.72 61.2654 376.242 81.2395 340.799C142.24 232.626 302.392 161.973 420.51 143.108C442.559 114.337 512.694 30.0512 548.504 27.058C564.108 25.747 558.068 47.8828 556.804 58.0109C549.721 56.5259 554.729 64.183 550.857 67.095C548.991 68.4988 536.737 71.2367 531.706 73.9979C515.256 83.0471 490.054 111.865 478.739 127.226C474.995 132.319 461.71 146.426 473.743 148.329C483.388 149.849 494.865 127.771 501.693 120.137C516.902 103.118 536.83 83.3024 558.81 76.063C559.1 76.5618 561.302 77.2231 562.369 79.4274C566.357 87.6413 564.432 97.3402 564.815 106.134C555.158 106.598 534.106 124.175 526.733 131.159C523.186 134.512 505.831 148.619 516.068 151.926C528.97 156.102 539.844 138.63 547.855 132.238C557.674 124.407 568.211 118.629 578.842 112.144C585.693 117.063 589.924 121.274 590.863 130.184C585.148 131.043 553.013 153.074 556.804 158.225C559.853 158.388 562.624 160.604 565.777 160.314C567.296 160.174 590.156 144.64 591.026 143.387C594.84 137.864 589.507 132.331 598.885 130.196C609.493 132.47 609.481 146.136 614.906 152.25C611.568 157.773 603.302 158.19 604.902 166.277H632.933C638.81 170.581 670.818 179.398 677.055 177.507C683.291 175.616 710.754 149.524 719.229 143.41C731.146 134.825 747.039 124.325 760.406 118.467C768.277 115.009 778.2 109.139 786.28 114.058C799.948 122.376 782.362 141.635 779.139 150.255C758.794 154.582 742.066 166.254 724.874 177.136C718.371 181.243 707.08 183.041 709.039 194.341C714.928 200.374 744.883 177.867 751.769 173.957C757.647 170.616 764.533 168.91 769.657 166.196C772.021 164.943 770.028 161.566 773.123 162.286L782.293 190.396C771.059 194.144 759.003 195.594 748.059 200.316C740.084 203.75 733.569 207.648 745.613 212.869C757.264 217.915 776.218 203.912 789.167 204.365C791.636 206.499 794.453 208.611 797.177 210.374L799.171 214.365C793.41 214.945 773.32 220.804 771.152 225.433L784.252 234.413C786.721 240.248 787.787 238.937 791.161 240.446C817.766 252.291 876.784 294.103 900.306 296.574C924.221 299.08 939.639 280.947 954.432 264.53C991.134 223.797 1047.47 133.05 1100.73 118.293C1118.98 113.246 1126.44 118.339 1121.52 137.087C1112.14 172.797 1087.61 223.101 1071.92 257.825C1053.36 298.906 1026.06 323.304 1045.18 370.07C1057.08 399.201 1072.55 430.758 1085.87 459.645C1092.14 473.242 1118.69 518.825 1117.61 529.893C1114.33 563.445 1060.55 524.487 1048.59 515.008C1008.63 483.336 980.538 439.227 945.436 403.749C923.723 381.811 910.739 378.458 879.288 384.757C893.049 375.116 906.241 364.559 921.056 356.426C926.134 347.424 901.789 345.312 896.283 344.697C853.993 339.975 810.416 340.637 768.138 336.622C668.951 327.202 587.049 298.674 486.286 319.197C451.508 326.274 418.504 339.65 384.538 348.676C380.654 328.374 371.82 304.463 361.352 286.689C356.031 277.652 333.089 242.719 320.384 251.386C312.002 257.094 331.733 268.672 334.515 272.013C356.356 298.279 364.517 323.687 370.522 356.693C336.127 367.32 341.633 406.708 330.852 434.261C314.147 476.943 274.918 495.564 230.309 493.012C203.832 491.492 144.245 462.349 120.318 447.742C105.596 438.763 61.0451 414.771 77.9819 394.213C81.9814 389.363 90.5136 391.103 96.1128 390.779C94.8492 397.925 101.874 393.064 106.152 395.848C113.745 400.791 110.824 398.749 119.75 402.194C140.258 410.095 160.44 417.729 176.276 433.855C181.724 436.64 189.109 434.69 190.094 428.147C189.051 422.23 155.826 402.218 148.917 399.085C134.299 392.438 127.923 391.567 112.145 390.779L112.134 390.755ZM201.745 283C165.147 288.94 166.944 349.094 201.386 354.535C253.123 362.726 253.819 274.531 201.745 283Z" fill="#4FBEA9"/>
<path d="M384.549 348.665C418.504 339.651 451.519 326.274 486.297 319.185C587.061 298.674 668.963 327.202 768.149 336.611C810.416 340.625 854.004 339.952 896.294 344.686C901.801 345.3 926.145 347.4 921.068 356.415C906.264 364.547 893.06 375.105 879.299 384.746C865.226 394.607 847.733 404.712 834.552 415.13C831.723 417.369 829.173 418.541 829.231 422.834C818.844 423.402 820.281 425.85 813.21 430.85C809.036 433.797 804.643 438.554 801.188 440.874C796.203 444.239 790.187 447.557 785.167 450.898C781.191 453.543 777.11 456.351 773.146 458.915C767.152 462.801 761.101 467.233 755.119 470.945C751.908 472.941 748.372 474.994 745.103 476.955C737.718 481.398 728.502 487.141 721.071 490.981C717.686 492.733 713.664 495.784 711.055 496.991C703.984 500.286 686.734 506.562 679.002 509.022C610.976 530.659 540.296 532.306 469.662 533.037C466.277 533.072 460.759 531.761 458.672 535.079C457.014 533.93 455.136 532.028 453.247 531.575C451.45 531.146 438.675 529.069 437.643 529.069H407.595C399.99 529.069 385.43 526.03 376.55 525.055C330.62 520.066 285.327 511.69 240.8 499.532C237.519 498.638 228.987 498.128 230.332 492.977C274.929 495.529 314.17 476.909 330.875 434.226C341.656 406.673 336.161 367.285 370.545 356.658C377.257 393.493 378.984 413.251 362.905 448.241C359.138 456.432 339.164 482.872 343.43 489.032C350.362 499.033 368.934 465.922 371.588 460.945C391.215 424.017 392.374 389.433 384.572 348.653L384.549 348.665ZM528.344 343.247C494.586 344.755 428.844 361.543 404.535 385.709C378.81 411.279 430.56 429.98 450.233 434.261C500.069 445.12 535.821 419.539 563.632 380.558C587.513 347.087 556.63 341.971 528.332 343.247H528.344Z" fill="#AFDDD2"/>
<path d="M556.804 58.0109C555.552 68.0695 552.851 65.8536 558.81 76.0514C536.83 83.2907 516.902 103.106 501.693 120.126C494.865 127.76 483.388 149.837 473.743 148.317C461.71 146.426 474.983 132.307 478.739 127.214C490.054 111.854 515.256 83.0355 531.706 73.9863C536.737 71.2251 548.979 68.4871 550.857 67.0833C554.729 64.183 549.721 56.5143 556.804 57.9993V58.0109Z" fill="#1CAE99"/>
<path d="M100.112 390.755C100.39 393.772 105.838 393.772 106.117 390.755C108.111 390.779 110.139 390.651 112.122 390.755C127.899 391.544 134.264 392.414 148.893 399.062C155.803 402.206 189.039 422.207 190.071 428.124C189.085 434.656 181.701 436.616 176.252 433.832C160.428 417.717 140.234 410.084 119.726 402.171C110.8 398.726 113.721 400.768 106.128 395.825C101.862 393.041 94.8254 397.902 96.089 390.755C97.4222 390.674 98.7669 390.802 100.1 390.755H100.112Z" fill="#1CAE99"/>
<path d="M564.815 106.111C571.237 105.809 574.228 108.826 578.83 112.121C568.2 118.606 557.662 124.384 547.843 132.215C539.833 138.607 528.947 156.079 516.056 151.902C505.831 148.596 523.186 134.488 526.721 131.136C534.106 124.151 555.146 106.564 564.803 106.111H564.815Z" fill="#1CAE99"/>
<path d="M590.851 130.173C592.637 129.906 597.239 129.825 598.862 130.173C589.483 132.296 594.816 137.841 591.002 143.364C590.144 144.617 567.272 160.151 565.753 160.29C562.612 160.58 559.829 158.376 556.781 158.202C552.99 153.051 585.125 131.031 590.84 130.161L590.851 130.173Z" fill="#1CAE99"/>
<path d="M632.922 166.254H604.891C603.291 158.167 611.557 157.738 614.895 152.227C615.66 153.097 630.65 164.595 632.922 166.254Z" fill="#1CAE99"/>
<path d="M106.129 390.755C105.851 393.772 100.402 393.772 100.124 390.755C102.118 390.686 104.135 390.732 106.129 390.755Z" fill="#4FBEA9"/>
<path d="M384.549 348.665C392.35 389.444 391.191 424.029 371.565 460.956C368.922 465.945 350.339 499.044 343.406 489.044C339.14 482.895 359.114 456.455 362.882 448.253C378.961 413.262 377.234 393.505 370.522 356.67C364.517 323.664 356.344 298.256 334.515 271.99C331.733 268.649 312.002 257.071 320.383 251.363C333.101 242.696 356.031 277.629 361.352 286.666C371.82 304.44 380.665 328.351 384.537 348.653L384.549 348.665Z" fill="#1CAE99"/>
<path d="M201.745 283C253.819 274.543 253.124 362.726 201.386 354.535C166.944 349.083 165.147 288.94 201.745 283ZM209.941 299.022C177.841 300.008 185.04 339.152 207.31 340.764C234.749 342.748 234.958 298.256 209.941 299.022Z" fill="#FDFAF1"/>
<path d="M528.344 343.247C556.642 341.982 587.525 347.099 563.644 380.558C535.833 419.539 500.081 445.12 450.245 434.261C430.572 429.98 378.811 411.279 404.546 385.709C428.856 361.543 494.586 344.755 528.356 343.247H528.344Z" fill="#4FBEA9"/>
<path d="M209.941 299.022C234.946 298.256 234.737 342.748 207.309 340.764C185.04 339.152 177.852 300.008 209.941 299.022Z" fill="#1CAE99"/>
</g>
</g>
<defs>
<clipPath id="clip0_504_7718">
<rect width="669" height="516" fill="white"/>
</clipPath>
<clipPath id="clip1_504_7718">
<rect width="1051" height="594" fill="white" transform="translate(72 27)"/>
</clipPath>
</defs>
</svg>
