<svg width="669" height="516" viewBox="0 0 669 516" fill="none" xmlns="http://www.w3.org/2000/svg">
<g clip-path="url(#clip0_504_11363)">
<rect width="669" height="516" fill="#D9D9D9" fill-opacity="0.6"/>
<g clip-path="url(#clip1_504_11363)">
<path d="M468.455 209.605C475.097 210.814 482.152 211.211 488.747 212.658C502.365 215.631 532.7 229.351 544.539 237.014C545.238 237.475 546.748 240.21 547.59 241.068C547.479 241.148 547.479 242.801 546.541 243.517C528.696 257.142 503.907 268.477 512.917 295.552C516.365 305.886 528.887 321.546 539.66 324.615C555.885 329.241 561.558 323.708 573.428 314.106C582.009 307.174 591.194 298.939 599.33 291.816C599.838 293.628 601.713 293.931 603.382 293.851C605.749 301.721 612.932 307.969 616.968 315.266C621.004 322.564 623.388 331.371 627.917 338.812C629.649 341.658 630.952 344.837 633.812 345.6V352.707C617.572 351.594 600.855 350.386 584.663 349.623C580.197 349.416 565.896 348.891 562.511 349.877C556.012 351.769 555.122 367.477 556.171 373.057C557.41 379.766 572.697 416.253 576.574 421.659C583.932 431.929 600.776 425.283 611.978 424.727C626.01 424.027 640.979 424.886 655.137 424.775C652.531 427.366 640.391 424.663 639.008 425.888C637.626 427.112 638.977 431.579 638.897 431.881C635.306 447.398 623.086 475.618 615.57 489.736C615.347 490.165 612.662 491.278 612.519 492.788C609.515 489.465 602.333 484.505 598.297 480.133C584.663 465.379 571.442 445.92 553.596 435.538C538.246 426.603 528.775 436.508 520.401 448.829C512.027 461.15 507.387 471.373 517.175 485.173C530.237 503.615 549.465 522.025 564.847 538.449C561.049 546.445 550.8 550.659 543.569 555.269C542.473 555.969 542.632 557.67 542.521 557.733C533.527 563.52 497.217 577.606 486.729 580.055C479.308 581.788 465.547 583.536 457.808 584.109C451.976 584.538 445.922 583.823 440.074 584.109C440.44 581.883 439.804 579.149 440.201 576.621C442.346 562.916 448.258 538.29 447.972 525.746C447.829 519.513 445.413 513.631 439.359 511.246C434.226 509.211 411.519 502.105 407.117 502.089C405.703 502.089 402.827 502.82 401.603 503.504C395.914 506.668 385.776 535.046 384.568 542.264C382.455 554.951 380.516 567.479 378.196 580.039C373.238 579.689 367.534 577.845 362.973 575.985C357.713 573.823 352.008 569.927 346.256 567.845C342.824 566.605 336.563 563.616 333.559 565.842C333.416 562.201 326.075 561.787 323.421 558.735C336.912 544.156 351.119 527.924 361.94 511.517C370.346 498.766 410.851 467.669 397.487 450.61C392.657 444.441 372.936 426.539 366.008 424.266C355.822 420.911 350.213 425.013 342.681 431.341C329.587 442.358 318.082 457.653 306.688 470.435L272.158 507.001L269.552 506.286C259.938 493.838 247.321 478.925 241.235 464.33C239.837 460.975 239.932 456.206 237.183 453.169C254.202 447.875 294.214 437.287 304.559 423.662C317.478 406.635 320.307 375.156 299.76 362.659C290.178 356.825 279.96 359.416 269.87 362.58C255.41 367.111 242.967 377.143 228.046 379.098C228.046 363.995 232.893 350.418 237.755 336.507C238.248 335.092 237.882 333.216 238.184 332.421C239.725 328.287 242.268 322.039 244.27 318.207C253.677 300.226 269.775 278.589 283.838 264.423C286.619 261.625 291.386 258.08 294.993 256.299C300.555 264.9 309.12 277.905 316.318 286.204C321.689 292.388 330.302 300.465 338.39 301.657C350.515 303.438 357.236 300.322 365.357 291.689C373.477 283.056 384.489 265.647 377.624 254.296C371.633 244.375 357.459 229.685 349.768 219.748C352.596 218.699 356.156 216.457 358.905 215.694C373.779 211.513 393.165 208.826 408.611 207.57C410.692 207.395 412.806 207.904 414.697 206.553C414.061 215.519 410.375 221.879 415.507 230.607C424.088 245.25 447.368 246.585 460.287 237.443C471.283 229.653 467.787 221.147 468.471 209.605H468.455ZM480.357 281.943C476.654 278.907 468.502 278.907 464.975 282.738C455.329 293.215 473.079 311.514 481.676 297.428C483.98 293.66 483.567 284.566 480.357 281.943ZM406.926 340.163C427.552 355.076 452.771 326.061 429.825 309.67C407.721 293.867 386.57 325.441 406.926 340.163ZM283.615 307.222C273.795 307.667 264.483 320.688 270.601 328.907C280.453 342.166 298.632 306.522 283.615 307.222ZM354.567 340.736C342.824 343.343 342.49 366.793 356.315 365.871C370.14 364.949 369.472 337.445 354.567 340.736ZM503.764 347.922C481.104 349.527 469.122 373.55 481.819 392.628C498.647 417.938 541.599 404.647 537.166 373.773C534.877 357.89 519.448 346.809 503.764 347.922ZM411.392 377.318C377.99 382.151 384.362 429.274 421.053 423.519C452.119 418.638 444.237 372.58 411.392 377.318ZM467.199 436.206C444.666 439.242 444.349 470.785 467.899 470.467C493.609 470.117 494.356 432.533 467.199 436.206ZM496.629 514.346C480.595 514.951 476.765 535.253 495.214 534.315C513.663 533.377 513.711 513.711 496.629 514.346Z" fill="#71CAC5"/>
<path d="M323.406 558.735C287.842 597.193 251.707 636.176 216.398 675.461C207.071 685.843 177.021 721.042 166.724 725.223C164.452 726.145 160.003 727.306 157.603 727.242C148.402 727.02 129.715 715.7 130.732 705.509C131.813 694.603 158.048 658.847 165.771 648.132C196.599 605.333 231.113 565.269 261.543 522.216L154.949 591.645C145.701 597.257 118.258 614.634 108.883 614.65C97.1712 614.681 88.8763 598.497 91.6095 588.147C92.6583 584.172 100.524 576.986 103.845 573.997C140.6 540.881 185.618 508.257 224.566 476.572C229.731 472.375 235.594 467.812 241.267 464.362C247.353 478.957 259.97 493.869 269.584 506.318L272.19 507.033L306.72 470.467C318.114 457.669 329.603 442.374 342.713 431.373C350.245 425.029 355.854 420.943 366.04 424.298C372.968 426.571 392.704 444.489 397.519 450.641C410.867 467.7 370.378 498.798 361.972 511.548C351.151 527.956 336.928 544.172 323.453 558.767L323.406 558.735Z" fill="#2DB0AA"/>
<path d="M238.184 332.405C237.882 333.2 238.248 335.092 237.755 336.491C232.893 350.402 228.046 363.979 228.046 379.083C242.967 377.127 255.394 367.095 269.87 362.564C279.961 359.4 290.178 356.825 299.76 362.644C320.307 375.14 317.478 406.635 304.559 423.646C294.215 437.271 254.218 447.875 237.183 453.153C169.426 474.219 100.937 493.869 31.6543 509.879C17.464 511.469 9.47102 507.59 3.67095 494.458C-2.73296 479.942 -1.28692 475.093 12.2995 468.193C60.0826 443.948 118.242 426.428 168.472 406.237C181.598 400.959 194.358 394.742 207.77 390.227C209.327 388.781 207.643 388.399 206.26 388.224C182.138 385.188 158.191 381.324 134.101 378.192C109.582 375.013 84.7606 373.264 60.305 369.814C53.4562 368.844 33.6247 366.904 29.7633 361.801C25.2822 355.871 25.9496 328.541 32.9096 324.392C37.9787 321.371 50.0397 322.071 56.1576 322.198C109.407 323.343 164.881 330.37 218.369 332.437C224.947 332.691 231.606 332.166 238.184 332.389V332.405Z" fill="#2DB0AA"/>
<path d="M612.503 492.772C655.17 540.038 695.452 591.184 736.752 639.944C742.854 647.146 765.101 668.911 766.451 676.193C769.82 694.412 746.858 707.958 730.904 704.651C728.568 704.174 724.564 701.328 722.577 699.786C704.208 685.509 687.221 664.619 670.822 648.084C635.116 612.074 599.552 575.524 564.816 538.433C549.434 522.01 530.206 503.583 517.144 485.157C507.355 471.357 511.63 461.659 520.37 448.813C529.109 435.967 538.231 426.587 553.565 435.522C571.394 445.904 584.631 465.363 598.265 480.117C602.302 484.489 609.5 489.45 612.487 492.772H612.503Z" fill="#2DB0AA"/>
<path d="M633.812 352.707C694.053 356.84 759.125 361.769 818.81 370.084C827.629 371.308 852.18 373.963 858.044 379.559C864.591 385.792 858.775 403.948 855.136 411.245C851.815 417.89 848.049 419.925 840.977 421.436C826.294 424.584 807.639 423.232 792.527 423.709C746.81 425.108 700.949 424.377 655.121 424.759C640.962 424.886 625.993 424.027 611.962 424.711C600.775 425.267 583.915 431.913 576.558 421.642C572.681 416.237 557.394 379.734 556.154 373.041C555.121 367.461 555.995 351.753 562.495 349.861C565.879 348.875 580.181 349.4 584.646 349.607C600.855 350.37 617.556 351.578 633.796 352.691L633.812 352.707Z" fill="#2DB0AA"/>
<path d="M599.314 291.816C591.178 298.954 581.993 307.174 573.412 314.106C561.542 323.708 555.853 329.241 539.645 324.615C528.871 321.546 516.349 305.886 512.901 295.552C503.891 268.477 528.68 257.142 546.526 243.517C547.463 242.801 547.479 241.148 547.574 241.068C590.098 209.891 633.94 177.586 677.512 147.283C695.563 134.724 718.637 118.316 737.61 107.951C750.767 100.765 759.316 94.58 767.405 111.973C771.791 121.401 772.045 129.429 765.673 138.062C751.403 157.379 721.974 179.112 703.779 195.901C669.058 227.936 634.734 260.735 599.314 291.816Z" fill="#2DB0AA"/>
<path d="M440.058 584.108C435.291 613.25 428.553 642.646 422.499 671.582C415.03 707.226 407.578 747.226 397.98 782.028C396.391 787.783 390.384 806.893 386.745 810.359C378.275 818.435 351.738 811.981 346.86 801.694C344.587 796.909 344.556 791.742 344.683 786.543C345.032 772.584 348.02 756.193 350.085 742.234C358.031 688.641 368.376 633.298 378.196 580.07C380.516 567.494 382.439 554.982 384.568 542.295C385.776 535.062 395.914 506.699 401.603 503.535C402.826 502.851 405.703 502.12 407.117 502.12C411.519 502.136 434.226 509.243 439.359 511.278C445.413 513.662 447.844 519.545 447.972 525.777C448.258 538.337 442.33 562.948 440.201 576.652C439.804 579.18 440.439 581.899 440.074 584.14L440.058 584.108Z" fill="#2DB0AA"/>
<path d="M349.768 219.764C357.475 229.685 371.634 244.391 377.624 254.312C384.489 265.663 373.223 283.342 365.357 291.705C357.491 300.067 350.515 303.454 338.39 301.673C330.302 300.481 321.674 292.404 316.318 286.22C309.104 277.921 300.539 264.916 294.993 256.315C279.707 232.626 267.042 206.95 252.2 182.928C240.79 164.485 228.078 146.695 216.478 128.348C207.563 114.262 190.592 91.2095 184.57 77.0599C178.325 62.3856 183.584 54.3092 195.264 45.3902C200.428 41.4474 213.618 32.7032 219.926 35.5967C222.945 36.9799 236.881 55.5334 239.63 59.508C276.417 112.863 310.01 168.492 349.784 219.764H349.768Z" fill="#2DB0AA"/>
<path d="M244.27 318.207C224.327 306.458 205.322 293.199 185.745 280.846C151.882 259.494 116.557 239.955 83.0598 218.143C73.6526 212.022 49.8326 197.316 50.4523 184.756C50.643 180.781 60.3839 162.514 63.2919 158.953C70.1566 150.558 75.3052 152.069 84.6806 155.63C111.059 165.662 146.066 188.015 171.507 201.767C174.669 203.468 178.403 204.359 181.423 206.012C215.937 224.756 249.657 245.09 283.837 264.407C269.79 278.573 253.677 300.226 244.27 318.191V318.207Z" fill="#2DB0AA"/>
<path d="M544.539 237.014C532.7 229.351 502.365 215.631 488.747 212.658C489.637 207.602 493.117 202.371 495.675 197.761C518.764 156.282 543.204 112.466 567.692 71.9088C574.604 60.4619 594.133 29.7779 605.511 24.4837C621.243 17.1704 636.307 36.6142 636.927 50.748C637.467 63.0851 615.395 105.868 608.832 119.143C594.547 148.078 578.624 177.967 562.972 206.219C557.188 216.664 551.181 227.078 544.539 236.998V237.014Z" fill="#2DB0AA"/>
<path d="M468.455 209.605C467.771 221.163 471.267 229.653 460.271 237.443C447.352 246.601 424.072 245.265 415.491 230.607C410.375 221.863 414.045 215.504 414.681 206.553C418.511 152.593 423.484 98.6023 427.854 44.6748C428.967 31.0498 424.978 7.31347 441.059 1.04948C449.831 -2.35278 471.68 2.81421 476.416 11.3199C479.737 17.2977 478.911 37.0594 478.625 44.7225C476.575 99.6516 471.649 154.708 468.439 209.605H468.455Z" fill="#2DB0AA"/>
<path d="M638.881 431.865C665.8 447.446 692.718 463.392 718.938 480.165C743.457 495.856 789.286 523.09 808.322 542.963C821.734 556.97 805.764 583.966 787.967 579.562C782.85 578.29 770.868 572.264 765.323 569.752C740.946 558.687 717.921 543.854 694.339 531.151C668.215 517.081 641.869 503.376 615.554 489.72C623.07 475.602 635.306 447.382 638.881 431.865Z" fill="#2DB0AA"/>
<path d="M633.812 345.6C630.952 344.837 629.649 341.657 627.917 338.812C623.372 331.371 621.132 322.786 616.968 315.266C612.805 307.746 605.75 301.721 603.382 293.851C642.33 280.385 680.817 264.995 720.273 252.992C737.737 247.682 776.685 234.423 792.782 242.896C815.664 254.963 788.793 270.957 777.527 277.793C733.383 304.566 682.263 323.47 635.83 346.045C634.972 346.57 634.4 345.775 633.828 345.616L633.812 345.6Z" fill="#2DB0AA"/>
<path d="M408.611 207.586C393.165 208.842 373.779 211.529 358.905 215.71C352.453 188.683 342.983 162.45 336.07 135.55C331.954 119.54 323.977 91.0504 324.788 75.3109C326.123 49.4919 348.369 60.3346 358.095 74.9453C374.255 99.2381 385.124 133.42 394.691 161.131C398.933 173.42 405.258 189.223 408.166 201.465C408.642 203.516 408.801 205.503 408.627 207.586H408.611Z" fill="#2DB0AA"/>
<path d="M503.763 347.922C519.463 346.809 534.893 357.89 537.166 373.772C541.599 404.647 498.647 417.922 481.819 392.628C469.122 373.55 481.103 349.527 503.763 347.922Z" fill="#2DB0AA"/>
<path d="M411.392 377.318C444.238 372.58 452.119 418.622 421.053 423.518C384.378 429.29 377.99 382.151 411.392 377.318Z" fill="#2DB0AA"/>
<path d="M406.926 340.163C386.57 325.441 407.721 293.867 429.825 309.67C452.771 326.077 427.552 355.076 406.926 340.163Z" fill="#2DB0AA"/>
<path d="M467.199 436.205C494.356 432.533 493.609 470.117 467.898 470.466C444.349 470.784 444.666 439.242 467.199 436.205Z" fill="#2DB0AA"/>
<path d="M496.629 514.346C513.711 513.71 514.124 533.345 495.215 534.315C476.305 535.284 480.595 514.95 496.629 514.346Z" fill="#2DB0AA"/>
<path d="M354.567 340.735C369.488 337.429 369.742 364.965 356.314 365.871C342.887 366.777 342.823 343.343 354.567 340.735Z" fill="#2DB0AA"/>
<path d="M480.357 281.943C483.551 284.566 483.964 293.66 481.676 297.428C473.079 311.514 455.329 293.215 464.975 282.738C468.502 278.906 476.654 278.906 480.357 281.943Z" fill="#2DB0AA"/>
<path d="M283.615 307.222C298.616 306.538 280.453 342.166 270.601 328.907C264.483 320.688 273.795 307.667 283.615 307.222Z" fill="#2DB0AA"/>
</g>
</g>
<defs>
<clipPath id="clip0_504_11363">
<rect width="669" height="516" fill="white"/>
</clipPath>
<clipPath id="clip1_504_11363">
<rect width="861" height="814" fill="white"/>
</clipPath>
</defs>
</svg>
