<svg width="669" height="516" viewBox="0 0 669 516" fill="none" xmlns="http://www.w3.org/2000/svg">
<g clip-path="url(#clip0_504_11438)">
<rect width="669" height="516" fill="#D9D9D9" fill-opacity="0.6"/>
<g clip-path="url(#clip1_504_11438)">
<path d="M653.55 62.1201C657.12 63.7201 662.08 62.7101 666.14 62.9101C681.43 63.6601 696.48 66.0601 711.01 70.7801C711.25 70.8601 711.56 70.7001 711.8 70.7801C711.41 72.6201 716.71 73.8201 718.88 74.7201C719.11 74.8101 719.45 74.6201 719.67 74.7201C719.25 76.6301 720.65 76.3501 721.74 76.9401C762.68 99.1801 781.13 137.05 785 183.74C785.79 193.26 787.13 204.77 782.45 213.45C776.72 224.06 761.98 222.18 752.6 217.88C749.29 216.36 735.8 204.82 733.03 201.83C716.6 184.08 710.98 155.07 690.88 139.76C690.21 139.25 687.11 136.28 686.81 136.16C686.02 135.85 680.23 134.64 679.14 134.53C675.24 134.16 670.89 134.8 666.94 134.54C666.73 135.86 668.43 135.28 669.3 135.32C642 141.76 625.31 167.27 640.33 193.81C651.75 213.97 683.58 227.54 703.08 239.68C745.12 265.86 773.48 293.22 788.94 341.55C787.43 342.33 788.39 344.18 788.7 345.33C792.3 358.62 794.65 371.35 796.03 384.85C796.1 385.52 796.68 386.66 796.82 388C795.11 392.93 796.37 398.95 796.07 404.17C795.34 416.45 792.48 430.15 788.93 441.9C788.62 442.94 787.44 444.76 788.95 445.46C781.48 467.88 771.92 484.98 756.68 502.92L752.71 506.44L749.6 510.79C749.34 511.06 749.07 511.31 748.81 511.58L747.24 513.15C746.98 513.42 746.71 513.67 746.45 513.94L738.58 521.81C717.09 541.21 693.75 555.11 666.17 564.31C665.4 562.8 663.54 563.76 662.39 564.07C620.63 575.41 595.25 575.72 553.45 564.07C552.3 563.75 550.45 562.81 549.68 564.31C513.26 552.14 481.78 528.06 456.4 499.78C437.55 478.78 420.19 449.18 395.41 435.23C395.78 433.31 394.29 433.7 393.2 433.15C385.07 429.03 380.83 426.7 371.79 425.79C370.5 425.66 369.15 425.88 367.85 425.79C369.39 423.41 368.35 424.52 366.65 424.25C359.91 423.18 355.28 423.36 348.57 424.25C347.1 424.45 345.37 423.24 345.81 425.79C345.29 425.83 344.75 425.75 344.24 425.79C326.06 427.34 309.3 437.84 295.77 448.12C286.95 454.82 278.96 461.04 268.68 465.54C219.53 487.03 145.7 487.83 109.68 444.68C103.72 437.54 102.32 427.72 102.6 418.71C104.19 418.49 105.12 419.33 106.33 420.09C131.13 435.68 136.63 457.82 172.94 452.44C178.16 451.67 190.56 449.81 189.98 443.11C185.1 442.9 180.85 445.18 175.97 446.02C143.36 451.68 130.93 430.45 107.44 414.24C106.05 413.28 103.84 413.61 104.18 411.62C106.18 405.07 109.04 398.94 113.28 393.57C114.29 392.29 116.82 391.69 116.8 389.21C116.81 388.21 110.6 387.59 109.52 387.16C108.78 386.87 108.8 385.89 108.35 385.65C105.94 384.34 102.66 384.53 104.27 380.21C108.68 379.8 113.53 380.5 117.75 381.78C118.4 381.98 118.09 383.15 119.52 383.35C123.39 383.89 123.54 380.71 121.28 378.79C119.17 377 119.58 377.22 118.13 375.7C116.17 373.63 102.75 362.81 105.76 359.68C108.42 359.68 111.01 359.44 113.66 360.06C116 360.61 116.22 362.05 117.04 362.56C118.8 363.65 121.82 362.46 121.52 366.76L124.66 365.98C124.93 366.23 125.22 366.47 125.45 366.77C127 369.03 135.84 380.69 134.37 371.71C132.87 370.12 130.96 368.16 129.65 366.47C128.65 365.18 130.52 365.49 127.81 364.41C126.92 362.26 125.1 359.4 124.52 357.81C122.79 353 124.59 350.78 129.59 352.03C130.23 352.19 133.7 354.8 133.87 355.19C134.3 356.17 133.9 357.77 134.16 358.06C134.37 358.29 136.45 357.95 137.71 358.85C141.24 361.37 144.7 368.6 148.28 370.72C149.29 372.19 151.68 375.81 153.8 376.58C154.61 376.87 155.21 377.23 156.14 377.01C156.1 376.5 156.25 375.88 156.14 375.44C155.83 374.09 152.54 370.56 151.42 369.14L143.92 356.56C142.57 352.49 138.17 346.58 139.16 342.37C139.86 339.41 141.48 337.91 144.55 338.58C147.62 339.25 156.82 350.83 159.56 353.9C160.63 355.1 162.63 356.01 164 357.72C165.73 359.87 166.79 364.55 169.51 365.19C169.6 365.41 169.42 365.74 169.51 365.98C170.17 367.8 170.12 369.59 172.45 369.78C178.04 370.25 174.43 364.27 174.23 361.66C173.71 354.82 175.83 335.61 179.56 329.99C182.45 325.63 186.47 327.51 186.82 332.14C186.97 334.15 186.03 336.02 186 338.01C185.92 343.24 185.86 348.59 186.03 353.82C186.08 355.33 185.23 356.98 187.6 356.54C187.74 359.14 187.49 361.81 187.6 364.41C204.84 360.41 221.57 351.21 235.53 340.32C267.74 315.19 277.95 300.51 319.83 287.27C320.74 288.58 323.61 287.51 324.86 287.18C367.44 275.77 384.72 275.8 427.27 287.28C428.31 287.56 430.09 288.83 430.81 287.28C462.43 298.83 488.2 320.11 510.71 344.73C532.5 368.56 546.6 394.5 574.06 413.22C572.42 415.53 573.79 414.38 574.85 415.15C594.19 429.19 628.25 437.77 651.04 428.42C652.45 427.84 653.66 427.85 653.56 425.82C661 422.61 667.24 417.92 672.45 411.65C682.44 399.63 683.37 384.49 679.31 369.77C678.76 367.78 678.29 363.63 675.6 363.64C662.19 330.26 613.54 303.78 586.65 279.82C577.54 271.7 569.24 261.86 562.26 251.87L554.56 237.14C547.06 224.22 542.08 208.8 539.55 193.9L537.86 173.15C541.33 113.08 594.68 65.5301 653.55 62.1201ZM669.08 67.0201C665.94 67.6601 660.08 72.1201 659.24 75.3101C656.39 86.2301 675.06 85.6401 680.72 78.6701C688.46 69.1601 677.65 65.2701 669.07 67.0201H669.08ZM615.58 82.8001C608.46 83.8001 596.27 91.4301 596.83 99.5001C597.75 112.71 614.62 104.06 620.44 99.4601C628.45 93.1101 629.02 80.9101 615.58 82.8001ZM735.17 113.83C741.89 107.74 738.69 98.0001 732.18 93.2901C724.75 87.9001 712.29 81.8801 705.92 92.0701C702.88 96.9301 705.18 100.76 708.24 104.64C713.88 111.8 726.25 121.91 735.17 113.84V113.83ZM658.08 97.6801C647.29 99.0301 646.1 115.14 659.33 114.58C674.55 113.93 667.35 96.5201 658.08 97.6801ZM571.48 120.56C557.72 122.89 548.15 150.72 562.2 153.89C569.94 155.64 579.43 145.15 581.53 138.47C584.41 129.3 583.82 118.47 571.48 120.56ZM622.68 123.7C608.59 125.21 610.52 148.28 625.47 136.76C632.33 131.47 633.79 122.51 622.68 123.7ZM721.06 132.32C715.68 132.94 709.72 138.58 710.26 144.28C710.62 148.07 717.13 160.69 720.79 162.14C733.62 167.21 736.86 151.49 735.37 142.06C734.64 137.45 725.53 131.8 721.06 132.32ZM757.26 138.62C743.75 141.18 758.8 166.92 768.04 155.75C773.82 148.77 764.22 137.3 757.26 138.62ZM602.94 157.53C593.57 159.66 591.95 178.35 593.01 186.02C594.8 198.97 611.36 205.17 616.38 191.42C620.5 180.14 621.4 153.33 602.95 157.52L602.94 157.53ZM562.79 175.63C556.45 177.54 554.1 190.69 562.2 193.23C574.85 197.21 576.11 171.62 562.79 175.63ZM750.95 175.63C737.49 178.21 750.09 203.43 761.67 195.82C769.27 190.83 760.81 173.74 750.95 175.63ZM625.49 234.23C630.59 239.74 639.48 239.82 645.28 235.29C657.44 225.79 636.4 204.52 624.83 214.84C620.1 219.06 621.42 229.84 625.49 234.23ZM588.73 217.46C581.48 210.59 568.46 209.16 565.6 220.92C561.33 238.5 576.71 259.91 594.93 261.24C605.77 262.03 608.9 256.64 606.77 246.26C605.88 241.91 592.18 220.72 588.73 217.46ZM664.36 246.49C660.56 247.15 657.36 250.99 656.85 254.78C655.38 265.66 675.66 283.02 686.55 275.77C691.65 272.37 693.12 269.2 690.1 263.67C686.45 257 672.23 245.11 664.36 246.49ZM715.52 264.6C700.5 267.28 716.52 286.42 724.74 288.85C735.78 292.11 739.4 281.85 733.03 273.49C728.89 268.06 722.67 263.33 715.52 264.61V264.6ZM633.64 271.66C628.5 272.84 625.99 279.49 626.97 284.3C628.06 289.67 637.75 298.79 642.77 300.77C655.93 305.97 663.09 294.86 655.45 284.15C650.89 277.76 642.06 269.73 633.64 271.66ZM368.44 287.46C348 289.89 346.91 309.78 368.45 315.34C373.68 316.69 389.21 319.4 394.28 319.42C403.87 319.47 414.5 314.14 411.53 302.95C408.36 291.01 378.67 286.24 368.44 287.45V287.46ZM315.66 300.8C306.67 302.66 301.23 315.41 314.1 316.17C331.04 317.17 333.05 297.2 315.66 300.8ZM695.84 303.95C689.51 305.11 686.75 310.77 687.37 316.76C687.74 320.29 701.35 342.99 704.31 346.27C707.27 349.55 710.25 352.26 715.26 351.72C728.22 350.32 730.95 337.11 726.27 326.67C721.59 316.23 707.82 301.75 695.84 303.94V303.95ZM444.73 310.23C443.63 310.48 441.52 311.84 440.97 312.77C436.3 320.69 447.34 329.28 454.24 331.08C465.25 333.96 468.25 325.45 461.9 317.13C458.01 312.02 451.24 308.75 444.73 310.23ZM754.88 311.04C750.28 311.88 746.74 316.96 746.41 321.49C745.78 330.25 759.56 353.71 770.45 343.91C779.24 336 770.87 318.62 762.98 312.8C760.1 310.67 758.55 310.37 754.88 311.04ZM276.31 322.06C268.57 323.33 252.71 335.32 253.83 344.1C254.07 346 256.76 349.89 258.42 350.59C266.61 354.05 286.53 342.74 289.95 334.93C293.87 325.97 283.88 320.82 276.3 322.07L276.31 322.06ZM313.79 343.4C305.87 351.45 307.89 365.77 320.95 366.76C328.23 367.31 349.41 360.56 356.31 357.19C368.52 351.22 368.73 335.78 355.44 331.49C345.33 328.23 321.51 335.56 313.79 343.4ZM403.87 341C391.55 342.13 384.48 352.98 394.57 362.42C400.02 367.52 424.66 379.52 431.98 380.11C446.61 381.28 448.56 366.23 441.35 356.58C433.69 346.31 416.36 339.86 403.87 341.01V341ZM482.48 345C467.36 345.05 467.91 359.36 473.15 369.63C476.18 375.56 487.38 388.9 493.04 392.25C501.25 397.1 516.22 397.73 516.62 385.21C517.03 372.44 496.27 344.95 482.48 345ZM225.96 363C219.82 363.76 208.12 370.67 211.13 378.2C215.48 389.1 233.25 383.11 236.95 374C240.18 366.06 233.13 362.1 225.96 362.99V363ZM743.05 366.11C741.37 366.6 739.2 370 738.23 371.52C731.58 381.88 722.1 409.81 734.36 418.55C749.54 429.37 758.44 402.8 759.05 391.56C759.57 381.97 757.39 361.91 743.05 366.11ZM248.44 398.76C252.71 403.86 260.15 402.13 265.49 400.18C274.79 396.78 295.48 384.13 287.09 372.3C279.74 361.95 262.53 373.52 255.34 379C249.07 383.78 241.51 390.48 248.44 398.76ZM707.64 374.77C697.54 377.05 699.18 401.31 710.95 394.61C718.62 390.25 719.5 372.1 707.64 374.77ZM361.34 377.17C351.53 378.6 346.85 387.42 352.06 396.27C358.19 406.67 388.74 415.13 393.27 399.66C397.95 383.66 373.5 375.4 361.34 377.17ZM776.89 384.22C768.8 386.63 770.29 405.81 780.59 404.51C790.13 403.3 788.37 380.81 776.89 384.22ZM318.83 388.94C316.35 389.3 311.91 391.84 309.99 393.52C298.47 403.56 311.48 415.98 324.57 408.89C336.42 402.47 331.46 387.12 318.83 388.94ZM171.62 397.61C166.05 398.15 163 405.44 167.62 409.13C173.37 413.72 184.88 409.38 181.48 401.57C180.28 398.81 174.28 397.35 171.62 397.61ZM459.73 397.6C451.52 398.92 450.83 409.95 452.39 416.37C453.95 422.79 469.51 441.59 475.71 445C487.67 451.57 496.43 446.48 494.48 432.53C493.64 426.48 479.81 406.48 474.8 402.62C471.1 399.77 464.36 396.86 459.72 397.6H459.73ZM415.64 402.35C402.25 405.77 414.58 431.88 426.8 425.31C437.03 419.8 430.56 398.55 415.64 402.35ZM221.19 406.26C211.6 408.47 213.47 425.13 226.7 419.62C237.41 415.16 231.96 403.78 221.19 406.26ZM532.11 408.62C528.21 409.48 526.64 414.72 526.8 418.26C527.02 423.37 531.63 430.79 535.17 434.35C542.76 442 570.1 452.36 564.22 432.05C561.38 422.25 542.71 406.28 532.11 408.62ZM273.17 417.3C269.01 417.91 257.66 421.94 254.22 424.33C244.94 430.79 248.08 444.5 260.39 444.72C268.33 444.86 285.44 434.89 286.7 426.9C288.17 417.58 280.82 416.18 273.17 417.3ZM698.21 423.6C695.41 424.07 671.67 438.32 668.26 440.87C658.89 447.86 658.13 461.66 670.67 464.16C684.92 467 700.72 458.36 709.43 447.4C718.38 436.14 713.17 421.09 698.22 423.6H698.21ZM770.56 434.7C766.23 430.22 758.97 430.63 754.03 433.77C748.6 437.22 734.19 458.67 731.87 465.14C729.38 472.12 728.44 479.68 735.46 484.36C745.93 491.34 759.78 477.67 765.17 469.31C770.41 461.19 778.54 442.95 770.56 434.7ZM448.6 445.71C441.85 446.2 441.12 455.53 442 460.61C443.04 466.7 451.87 477.55 457.76 479.48C468.68 483.05 476.38 474.49 471.6 464.07C468.79 457.95 455.75 445.19 448.6 445.71ZM597.49 446.45C580.06 448.59 581.87 463.47 595.55 470.77C604.71 475.66 627.16 477.24 633.75 467.75C645.28 451.14 607.62 445.2 597.49 446.44V446.45ZM521.1 455.86C509.66 457.97 512.2 470.86 517.51 477.98C526.75 490.37 548.37 502.04 564.02 499.57C573.57 498.06 577.26 487.77 572.35 479.82C568.41 473.44 537.15 456.95 529.38 455.89C526.86 455.55 523.59 455.41 521.11 455.87L521.1 455.86ZM702.92 488.13C693.84 490.01 682.56 502.23 692.52 509.99C696.33 512.96 697.99 512.51 702.32 511.13C719.09 505.79 718.14 484.99 702.93 488.13H702.92ZM491.2 491.28C474.81 494.07 493.9 520.47 506.84 521.76C513.8 522.46 517.4 515.19 516.4 509C515.13 501.14 499.25 489.91 491.2 491.28ZM622.69 491.34C600.42 493.32 597.86 512.36 618.16 519.01C628.95 522.55 658.32 521.43 666.85 513.46C672.51 508.17 671.91 500.39 666.08 495.49C659.26 489.76 631.9 490.52 622.69 491.34ZM552.59 517.26C543.88 518.8 540.28 528.68 544.27 536.23C551.15 549.23 583.66 559.74 596.89 553.69C606.41 549.33 606.99 537.97 600.02 530.85C594.84 525.57 571.7 519.98 563.69 518.38C560.23 517.69 556.03 516.64 552.59 517.25V517.26ZM652.59 535.4C644.7 536.27 633.9 542.05 639.5 551.2C645.14 560.4 669.46 555.24 666.75 542.06C665.36 535.3 658.25 534.78 652.58 535.41L652.59 535.4Z" fill="#26B4AD"/>
<path d="M104.14 411.6C103.8 413.6 106.01 413.26 107.4 414.22C130.89 430.43 143.32 451.66 175.93 446C180.8 445.15 185.06 442.88 189.94 443.09C190.52 449.79 178.12 451.65 172.9 452.42C136.59 457.8 131.1 435.65 106.29 420.07C105.08 419.31 104.15 418.47 102.56 418.69C102.65 415.64 102.75 414.48 103.35 411.61H104.14V411.6Z" fill="#04958C"/>
<path d="M344.21 425.77C335.32 428.05 326.43 430.73 318.2 434.79C304.42 441.57 293.41 452.74 280.39 460.73C236.45 487.69 147.11 491.93 112.06 448.76C111.07 447.54 109.94 446.28 109.65 444.66C145.67 487.8 219.5 487.01 268.65 465.52C278.93 461.02 286.92 454.8 295.74 448.1C309.27 437.82 326.03 427.32 344.21 425.77Z" fill="#219F97"/>
<path d="M430.79 287.24C430.07 288.8 428.29 287.53 427.25 287.24C384.7 275.76 367.42 275.73 324.84 287.14C323.59 287.48 320.72 288.55 319.81 287.23C359.39 274.72 391.24 272.79 430.79 287.23V287.24Z" fill="#219F97"/>
<path d="M719.67 74.7197C759.07 91.9097 781.84 136.16 785.71 177.52C787.36 195.16 790.82 224.57 764.9 222.72C743.4 221.19 724.49 192.74 714.81 176C704.34 157.88 699.53 138.51 675.89 135.43C673.69 135.14 671.49 135.43 669.3 135.33C668.43 135.29 666.73 135.87 666.94 134.55C670.89 134.81 675.25 134.16 679.14 134.54C680.23 134.64 686.02 135.86 686.81 136.17C687.1 136.28 690.21 139.26 690.88 139.77C710.99 155.09 716.6 184.09 733.03 201.84C735.79 204.83 749.29 216.37 752.6 217.89C761.98 222.19 776.73 224.07 782.45 213.46C787.13 204.78 785.79 193.27 785 183.75C781.14 137.06 762.68 99.1897 721.74 76.9497C720.65 76.3597 719.25 76.6397 719.67 74.7297V74.7197Z" fill="#219F97"/>
<path d="M574.05 413.18C596.52 428.5 627.32 437.08 653.55 425.77C653.65 427.8 652.44 427.79 651.03 428.37C628.24 437.73 594.18 429.14 574.84 415.1C573.78 414.33 572.41 415.48 574.05 413.17V413.18Z" fill="#219F97"/>
<path d="M562.24 251.82C545.55 227.94 536.12 202.78 537.84 173.11L539.53 193.86C542.06 208.76 547.04 224.17 554.54 237.1L562.24 251.83V251.82Z" fill="#219F97"/>
<path d="M187.57 332.1H186.78C186.43 327.47 182.41 325.59 179.52 329.95C175.79 335.57 173.66 354.78 174.19 361.62C174.39 364.24 178 370.21 172.41 369.74C170.08 369.55 170.14 367.76 169.47 365.94C171.08 366.07 171.66 368.84 171.93 369.02C172.03 369.09 174.07 368.31 174.15 368.22C174.55 367.75 172.76 361.59 172.63 360.02C172.14 353.75 173.73 345.2 175.21 339.01C176.42 333.95 178.3 324.27 185.48 326.71C187.57 327.42 187.4 330.38 187.57 332.09V332.1Z" fill="#219F97"/>
<path d="M711.01 70.7801C696.48 66.0601 681.43 63.6601 666.14 62.9101V62.1201C678.66 62.3401 691.26 63.3901 703.31 67.0601C705.6 67.7601 709.46 68.9001 711.01 70.7701V70.7801Z" fill="#219F97"/>
<path d="M124.6 365.95L121.46 366.73C121.75 362.43 118.74 363.63 116.98 362.53C116.16 362.02 115.95 360.58 113.6 360.03C110.96 359.41 108.37 359.65 105.7 359.65C102.69 362.78 116.1 373.6 118.07 375.67C119.52 377.2 119.11 376.97 121.22 378.76C123.48 380.68 123.34 383.86 119.46 383.32C118.03 383.12 118.34 381.95 117.69 381.75C113.47 380.47 108.62 379.77 104.21 380.18C102.6 384.51 105.88 384.31 108.29 385.62C108.74 385.86 108.72 386.84 109.46 387.13C110.54 387.56 116.76 388.19 116.74 389.18C116.76 391.66 114.23 392.26 113.22 393.54C108.98 398.9 106.13 405.04 104.12 411.59H103.33C104.65 405.22 106.61 401.32 110.17 396.05C111.22 394.5 113.38 392.59 114.65 391.13C115.16 390.55 115.41 390.7 115.13 389.56C112.06 389.85 100.58 384.6 102.11 380.92C104.43 375.29 117.1 380.89 121.43 381.67C118.02 378.42 115.17 375.05 111.98 371.62C111.23 370.81 110.98 369.44 110.14 368.57C108.3 366.68 102.52 364.63 103.44 360.99C105.67 352.16 120.96 362.58 124.58 365.94L124.6 365.95Z" fill="#219F97"/>
<path d="M127.75 364.37C127.45 364.25 126.73 364.66 126.31 364.25C126.11 364.06 123.79 359.79 123.64 359.43C122.58 356.86 121.32 352.19 124.59 350.6C128.03 348.92 133.05 352.98 135.65 355.29C140.09 359.23 144.95 365.93 148.21 370.67C148.36 370.76 148.99 370.47 149.58 370.86C151.01 371.8 153.01 376.12 156.08 375.39C156.18 375.83 156.04 376.45 156.08 376.96C155.14 377.17 154.54 376.82 153.74 376.53C151.62 375.76 149.23 372.14 148.22 370.67C144.64 368.55 141.18 361.32 137.65 358.8C136.39 357.9 134.32 358.25 134.1 358.01C133.84 357.73 134.24 356.12 133.81 355.14C133.64 354.75 130.17 352.14 129.53 351.98C124.54 350.73 122.74 352.95 124.46 357.76C125.03 359.36 126.86 362.22 127.75 364.36C130.46 365.43 128.58 365.13 129.59 366.42C130.9 368.11 132.81 370.07 134.31 371.66C135.78 380.65 126.93 368.98 125.39 366.72L130.1 369.87C130.49 369.39 128.23 365.52 127.75 364.36V364.37Z" fill="#219F97"/>
<path d="M345.79 425.77C345.35 423.23 347.08 424.43 348.55 424.23C355.26 423.34 359.89 423.16 366.63 424.23C368.33 424.5 369.38 423.39 367.83 425.77C359.44 425.21 354.23 425.18 345.79 425.77Z" fill="#219F97"/>
<path d="M187.57 336.04L186.8 336.43L187.57 336.82C187.55 337.61 187.59 338.4 187.57 339.18L186.78 339.97C186.72 344.82 187.32 348.79 187.57 353.35C186.39 353.46 186.39 355.6 187.57 355.71C187.59 355.97 187.56 356.24 187.57 356.5C185.19 356.94 186.05 355.29 186 353.78C185.83 348.56 185.88 343.2 185.97 337.97C186 335.97 186.94 334.11 186.79 332.1H187.58C187.7 333.3 187.61 334.79 187.58 336.04H187.57Z" fill="#03968D"/>
<path d="M151.37 369.1C147.53 364.24 139.58 353.01 138.34 347.11C137.63 343.75 137.73 340.15 140.58 337.86C144.51 334.72 148.65 340.09 151.32 342.95C156.52 348.51 166.7 358.59 169.47 365.16C166.75 364.52 165.69 359.84 163.96 357.69C162.58 355.98 160.59 355.07 159.52 353.87C156.78 350.8 147.6 339.22 144.51 338.55C141.42 337.88 139.82 339.38 139.12 342.34C138.13 346.55 142.52 352.46 143.88 356.53L151.38 369.11L151.37 369.1Z" fill="#219F97"/>
<path d="M371.76 425.77C380.8 426.69 385.04 429.02 393.17 433.13C394.26 433.68 395.75 433.29 395.38 435.21C387.98 431.04 379.77 428.52 371.77 425.76L371.76 425.77Z" fill="#219F97"/>
<path d="M666.14 62.1196V62.9096C662.08 62.7096 657.12 63.7196 653.55 62.1196C657.57 61.8896 662.08 62.0496 666.14 62.1196Z" fill="#03968D"/>
<path d="M187.57 355.72C186.39 355.61 186.39 353.47 187.57 353.36C187.61 354.14 187.52 354.94 187.57 355.72Z" fill="#26B4AD"/>
<path d="M186.79 339.97L187.58 339.18C187.57 339.72 186.79 339.91 186.79 339.97Z" fill="#26B4AD"/>
<path d="M187.57 336.83L186.8 336.44L187.57 336.05C187.57 336.31 187.57 336.57 187.57 336.84V336.83Z" fill="#26B4AD"/>
<path d="M521.1 455.86C523.58 455.4 526.86 455.54 529.37 455.88C537.14 456.94 568.4 473.43 572.34 479.81C577.26 487.76 573.56 498.05 564.01 499.56C548.37 502.03 526.74 490.36 517.5 477.97C512.19 470.85 509.65 457.96 521.09 455.85L521.1 455.86Z" fill="#03968D"/>
<path d="M622.69 491.34C631.91 490.52 659.26 489.76 666.08 495.49C671.91 500.39 672.51 508.17 666.85 513.46C658.32 521.43 628.95 522.55 618.16 519.01C597.86 512.36 600.42 493.32 622.69 491.34Z" fill="#03968D"/>
<path d="M482.48 345C496.27 344.95 517.04 372.44 516.62 385.21C516.21 397.73 501.25 397.11 493.04 392.25C487.38 388.91 476.18 375.57 473.15 369.63C467.91 359.35 467.36 345.05 482.48 345Z" fill="#03968D"/>
<path d="M403.87 341C416.36 339.85 433.69 346.31 441.35 356.57C448.56 366.23 446.61 381.27 431.98 380.1C424.66 379.52 400.02 367.51 394.57 362.41C384.47 352.96 391.54 342.12 403.87 340.99V341Z" fill="#04958C"/>
<path d="M313.79 343.4C321.51 335.56 345.34 328.24 355.44 331.49C368.73 335.77 368.52 351.22 356.31 357.19C349.41 360.56 328.23 367.31 320.95 366.76C307.89 365.77 305.86 351.45 313.79 343.4Z" fill="#04958C"/>
<path d="M368.44 287.46C378.67 286.25 408.37 291.02 411.53 302.96C414.5 314.15 403.86 319.48 394.28 319.43C389.22 319.4 373.68 316.7 368.45 315.35C346.91 309.78 347.99 289.89 368.44 287.47V287.46Z" fill="#04958C"/>
<path d="M698.21 423.6C713.16 421.09 718.369 436.13 709.419 447.4C700.709 458.36 684.909 466.99 670.659 464.16C658.119 461.66 658.88 447.86 668.25 440.87C671.67 438.32 695.4 424.08 698.2 423.6H698.21Z" fill="#03968D"/>
<path d="M588.73 217.46C592.17 220.72 605.87 241.91 606.77 246.26C608.9 256.65 605.76 262.04 594.93 261.24C576.71 259.91 561.33 238.5 565.6 220.92C568.46 209.15 581.48 210.59 588.73 217.46Z" fill="#03968D"/>
<path d="M459.73 397.6C464.37 396.86 471.11 399.77 474.81 402.62C479.81 406.48 493.64 426.49 494.49 432.53C496.44 446.48 487.68 451.58 475.72 445C469.52 441.6 454.04 423.1 452.4 416.37C450.76 409.64 451.53 398.91 459.74 397.6H459.73Z" fill="#03968D"/>
<path d="M597.49 446.45C607.62 445.21 645.29 451.15 633.75 467.76C627.16 477.25 604.71 475.66 595.55 470.78C581.87 463.48 580.05 448.59 597.49 446.46V446.45Z" fill="#03968D"/>
<path d="M361.34 377.17C373.5 375.4 397.94 383.66 393.27 399.66C388.75 415.13 358.2 406.68 352.06 396.27C346.85 387.42 351.53 378.6 361.34 377.17Z" fill="#03968D"/>
<path d="M248.44 398.76C241.51 390.48 249.07 383.79 255.34 379C262.53 373.52 279.75 361.95 287.09 372.3C295.49 384.12 274.79 396.77 265.49 400.18C260.15 402.13 252.71 403.86 248.44 398.76Z" fill="#04958C"/>
<path d="M602.94 157.53C621.4 153.34 620.5 180.14 616.37 191.43C611.35 205.18 594.79 198.98 593 186.03C591.94 178.35 593.56 159.67 602.93 157.54L602.94 157.53Z" fill="#03968D"/>
<path d="M532.11 408.62C542.7 406.29 561.38 422.26 564.22 432.05C570.1 452.36 542.76 442 535.17 434.35C531.63 430.79 527.02 423.37 526.8 418.26C526.65 414.72 528.21 409.48 532.11 408.62Z" fill="#03968D"/>
<path d="M273.17 417.3C280.82 416.18 288.17 417.58 286.7 426.9C285.44 434.88 268.33 444.86 260.39 444.72C248.08 444.5 244.94 430.78 254.22 424.33C257.66 421.94 269.01 417.91 273.17 417.3Z" fill="#04958C"/>
<path d="M448.6 445.71C455.75 445.19 468.79 457.95 471.6 464.07C476.38 474.49 468.68 483.05 457.76 479.48C451.87 477.55 443.04 466.7 442 460.61C441.13 455.52 441.86 446.2 448.6 445.71Z" fill="#03968D"/>
<path d="M276.31 322.06C283.9 320.82 293.89 325.97 289.96 334.92C286.54 342.73 266.62 354.05 258.43 350.58C256.77 349.88 254.08 345.99 253.84 344.09C252.72 335.32 268.58 323.32 276.32 322.05L276.31 322.06Z" fill="#04958C"/>
<path d="M664.36 246.49C672.23 245.12 686.45 257 690.1 263.67C693.13 269.2 691.65 272.37 686.55 275.77C675.66 283.02 655.38 265.66 656.85 254.78C657.36 250.98 660.56 247.15 664.36 246.49Z" fill="#03968D"/>
<path d="M571.48 120.56C583.81 118.47 584.41 129.3 581.53 138.47C579.43 145.15 569.95 155.64 562.2 153.89C548.15 150.71 557.72 122.89 571.48 120.56Z" fill="#03968D"/>
<path d="M633.64 271.66C642.06 269.73 650.89 277.76 655.45 284.15C663.09 294.86 655.93 305.97 642.77 300.77C637.75 298.79 628.06 289.67 626.97 284.3C625.99 279.49 628.51 272.84 633.64 271.66Z" fill="#04958C"/>
<path d="M491.2 491.28C499.25 489.91 515.13 501.14 516.4 509C517.4 515.19 513.8 522.46 506.84 521.76C493.9 520.47 474.81 494.07 491.2 491.28Z" fill="#03968D"/>
<path d="M625.49 234.23C621.42 229.83 620.1 219.05 624.83 214.84C636.4 204.52 657.44 225.79 645.28 235.29C639.48 239.82 630.59 239.74 625.49 234.23Z" fill="#03968D"/>
<path d="M615.58 82.8001C629.02 80.9101 628.45 93.1101 620.44 99.4601C614.62 104.07 597.76 112.72 596.83 99.5001C596.27 91.4301 608.46 83.8001 615.58 82.8001Z" fill="#04958C"/>
<path d="M318.83 388.94C331.46 387.11 336.42 402.47 324.57 408.89C311.48 415.98 298.47 403.56 309.99 393.52C311.91 391.85 316.36 389.3 318.83 388.94Z" fill="#03968D"/>
<path d="M225.96 363C233.13 362.11 240.18 366.06 236.95 374.01C233.25 383.11 215.48 389.1 211.13 378.21C208.12 370.68 219.82 363.77 225.96 363.01V363Z" fill="#04958C"/>
<path d="M415.64 402.35C430.55 398.54 437.03 419.8 426.8 425.31C414.59 431.89 402.25 405.77 415.64 402.35Z" fill="#03968D"/>
<path d="M444.73 310.23C451.24 308.75 458.01 312.02 461.9 317.13C468.25 325.45 465.25 333.96 454.24 331.08C447.35 329.28 436.3 320.68 440.97 312.77C441.52 311.84 443.63 310.49 444.73 310.23Z" fill="#04958C"/>
<path d="M669.08 67.0202C677.66 65.2702 688.46 69.1502 680.73 78.6702C675.06 85.6402 656.39 86.2302 659.25 75.3102C660.08 72.1202 665.94 67.6702 669.09 67.0202H669.08Z" fill="#04958C"/>
<path d="M315.66 300.8C333.05 297.2 331.04 317.17 314.1 316.17C301.23 315.41 306.67 302.66 315.66 300.8Z" fill="#04958C"/>
<path d="M658.08 97.6805C667.36 96.5205 674.55 113.93 659.33 114.58C646.1 115.14 647.29 99.0405 658.08 97.6805Z" fill="#04958C"/>
<path d="M562.79 175.63C576.11 171.62 574.86 197.21 562.2 193.23C554.1 190.68 556.45 177.53 562.79 175.63Z" fill="#04958C"/>
<path d="M622.68 123.7C633.79 122.51 632.33 131.47 625.47 136.76C610.51 148.29 608.59 125.21 622.68 123.7Z" fill="#04958C"/>
<path d="M221.19 406.26C231.95 403.78 237.41 415.17 226.7 419.62C213.48 425.12 211.6 408.47 221.19 406.26Z" fill="#04958C"/>
<path d="M171.62 397.61C174.28 397.35 180.27 398.81 181.48 401.57C184.88 409.38 173.37 413.72 167.62 409.13C163 405.44 166.06 398.15 171.62 397.61Z" fill="#04958C"/>
</g>
</g>
<defs>
<clipPath id="clip0_504_11438">
<rect width="669" height="516" fill="white"/>
</clipPath>
<clipPath id="clip1_504_11438">
<rect width="695.29" height="512" fill="white" transform="translate(102 62)"/>
</clipPath>
</defs>
</svg>
