<svg width="669" height="516" viewBox="0 0 669 516" fill="none" xmlns="http://www.w3.org/2000/svg">
<g clip-path="url(#clip0_504_11397)">
<rect width="669" height="516" fill="#D9D9D9" fill-opacity="0.6"/>
<g clip-path="url(#clip1_504_11397)">
<path d="M416.801 69.8438C414.396 68.988 414.974 75.5567 416.072 77.118C416.049 77.3608 416.095 77.6037 416.072 77.8466C413.818 77.0139 414.141 81.6051 415.344 82.935C415.309 83.4207 415.379 83.9065 415.344 84.3922C412.985 83.5248 413.482 89.4691 414.615 90.9378C414.581 91.4235 414.639 91.9092 414.615 92.395C412.407 91.9902 413.216 93.5052 413.159 94.9045C413.008 98.8365 412.661 104.006 413.887 107.672C413.864 108.643 413.899 109.615 413.887 110.586C411.679 110.181 412.488 111.696 412.43 113.096C412.129 121.006 412.881 131.819 413.159 140.088C413.205 141.487 412.419 143.002 414.615 142.597C414.65 143.326 414.581 144.055 414.615 144.783C413.448 146.714 413.702 150.727 413.829 153.202C413.899 154.428 414.615 155.77 414.615 156.059V166.976C414.615 167.219 415.298 168.19 415.367 169.127C415.552 171.636 414.211 177.43 416.801 176.794C419.24 210.413 423.079 264.258 436.815 294.65C439.301 300.143 439.972 299.01 442.076 294.13C449.384 277.245 452.899 241.383 451.696 223.007C450.933 211.188 447.522 199.403 445.88 187.711C447.268 186.462 447.094 184.196 445.152 184.797C445.129 184.311 445.187 183.826 445.152 183.34C445.152 183.247 445.984 183.178 445.938 181.536C445.915 180.749 445.314 175.591 445.129 175.337C445.025 175.187 444.1 175.372 443.695 175.337C443.684 174.851 443.718 174.366 443.695 173.88C443.302 165.993 442.92 157.689 442.227 149.478C442.111 148.091 443.048 146.552 440.781 146.957C440.724 145.997 440.828 145.014 440.781 144.043C441.984 143.291 441.51 141.279 441.521 140.053C441.625 131.865 441.787 123.446 441.51 115.27C441.464 113.871 442.25 112.356 440.053 112.76C440.053 112.032 440.053 111.303 440.053 110.575C441.255 109.823 440.781 107.811 440.793 106.585C440.862 101.254 440.851 95.8875 440.793 90.5562C440.781 89.3303 441.255 87.3181 440.053 86.5663C440.307 80.784 440.099 78.5983 442.967 73.4635L443.695 72.0064C444.77 70.5261 445.21 70.1907 446.609 69.0921C452.448 67.2186 456.888 66.5016 462.611 69.0921C462.877 69.2771 463.085 69.6009 463.34 69.8207L464.068 70.5492C464.288 70.8037 464.6 71.0118 464.797 71.2778L466.982 80.0092C467.005 80.7377 466.97 81.4663 466.982 82.1949C467.063 87.399 466.809 92.6609 466.982 97.8766C467.028 99.276 466.242 100.791 468.439 100.386C468.485 101.843 468.393 103.3 468.439 104.758C467.236 105.509 467.71 107.522 467.699 108.747C467.502 124.66 468.208 141.707 469.919 157.516C470.069 158.892 469.04 160.453 471.353 160.048C471.376 160.291 471.318 160.534 471.353 160.777C470.115 162.061 469.884 165.923 472.081 165.149C472.59 168.722 474.012 181.316 475.642 183.64C476.116 184.311 477.492 184.277 478.163 184.103C478.834 183.93 482.938 174.204 483.539 172.608C498.282 133.82 496.212 90.163 504.317 50.0566C505.659 43.4184 507.162 34.2707 514.943 32.3163C526.61 29.3789 531.929 37 533.177 47.6511C527.789 92.9616 524.979 139.139 509.185 182.264C500.444 206.145 488.442 224.163 482.025 249.687C468.936 301.739 459.189 357.689 453.882 411.084C451.673 410.679 452.483 412.194 452.425 413.593C452.251 417.803 452.425 422.417 452.425 426.361C452.425 427.575 452.425 428.789 452.425 430.003C451.211 432.952 451.199 438.538 452.425 441.649C452.413 442.621 452.436 443.592 452.425 444.563C450.216 444.159 451.026 445.674 450.968 447.073C450.32 463.31 450.424 481.813 450.968 498.073C451.014 499.473 450.228 500.988 452.425 500.583C452.471 503.486 452.355 506.411 452.425 509.314L451.708 509.673L452.425 510.031C452.471 511.963 452.379 513.917 452.425 515.848C451.222 516.6 451.696 518.612 451.685 519.838C451.627 524.672 451.534 529.599 451.696 534.433C451.743 535.832 450.956 537.347 453.153 536.942C453.361 539.452 454.032 551.942 455.339 552.948C456.333 553.711 457.246 551.919 457.663 551.282C461.374 545.546 465.074 532.351 468.08 525.32C474.821 509.534 493.148 473.695 492.419 458.002C491.552 439.29 485.806 420.393 485.158 400.883V370.318C485.702 347.802 487.517 323.146 491.078 300.93C492.859 289.816 495.206 271.949 510.815 275.164C521.869 277.442 521.21 292.95 520.829 301.589C519.337 335.936 512.053 370.353 514.261 404.873C514.724 412.055 516.123 419.248 517.175 426.349C518.528 426.465 519.314 426.522 520.435 425.609C521.834 424.464 526.459 415.258 527.489 413.015C531.2 404.896 534.819 394.673 537.744 386.162C541.872 374.146 547.087 361.818 545.353 349.05C541.433 320.335 532.426 293.713 530.287 263.715C528.448 237.983 528.263 198.131 532.541 172.851C534.229 162.87 538.843 155.388 550.244 157.18C561.494 158.95 560.372 181.547 560.106 189.874C558.129 188.579 558.742 189.168 558.649 190.949C558.522 193.656 558.129 197.634 559.378 200.051C559.216 202.271 558.8 204.399 558.649 206.596C558.453 209.522 557.193 215.039 557.193 217.872V244.066C557.193 247.952 557.065 252.289 557.193 256.463C557.239 257.863 556.453 259.389 558.649 258.973C558.649 259.459 558.649 259.944 558.649 260.43C558.603 267.126 558.175 270.989 559.366 278.309C559.586 279.674 558.545 281.223 560.835 280.807C561.956 288.752 563.483 296.709 566.662 304.087C567.957 305.07 569.946 300.895 570.304 300.109C577.878 283.745 579.624 255.619 581.196 237.52C581.439 234.768 581.855 231.021 582.642 228.419C582.676 229.229 582.133 230.79 583.359 230.593C582.977 227.656 584.26 223.758 582.642 221.133C582.642 220.162 582.676 219.19 582.642 218.219C583.682 217.201 583.682 208.435 583.37 208.03C583.278 207.915 582.329 208.1 581.913 208.03C579.023 170.353 568.824 133.207 569.819 95.0086C570.004 87.8963 571.149 78.0894 578.861 75.0942C596.204 68.3866 596.667 93.7018 597.916 104.353C600.078 122.88 599.962 144.112 604.229 162.072C606.033 169.682 607.501 168.838 610.103 162.373C617.214 144.702 620.867 124.892 627.735 107.244C631.482 97.5991 636.211 88.567 648.294 93.9793C658.839 98.6977 654.907 111.361 652.849 119.988C645.299 151.676 633.008 180.125 622.636 210.563C610.704 245.569 605.189 282.449 593.568 317.548C584.781 344.101 574.432 372.122 564.465 398.316C537.895 468.121 495.657 530.293 472.601 601.843C467.664 617.155 461.675 638.434 461.131 654.393C461.074 656.209 460.484 660.685 462.958 660.638C464.068 660.615 474.174 653.746 475.943 652.485C487.702 644.124 505.982 630.397 509.532 616.23C515.961 590.637 514.434 560.268 520.285 533.854C522.459 524.048 525.488 514.09 537.825 515.883C546.624 517.167 548.174 528.535 547.7 535.809C546.567 553.017 540.774 572.064 540.427 589.677C540.381 592.187 541.306 593.794 543.93 592.777C553.816 580.148 562.893 569.855 568.084 554.37C569.403 550.45 568.836 552.023 568.813 548.553C568.813 548.068 568.801 547.582 568.813 547.096C571.021 547.501 570.212 545.986 570.27 544.587C570.605 536.815 572.004 528.512 570.27 520.902C570.293 520.416 570.247 519.931 570.27 519.445C572.478 519.85 571.669 518.335 571.727 516.935C572.178 505.498 572.582 493.378 572.467 481.964C572.455 480.738 572.929 478.726 571.727 477.974C574.074 449.848 579.427 417.502 585.035 389.781C586.654 381.767 590.215 359.817 596.089 354.995C605.362 347.397 618.081 355.677 616.867 367.034C611.155 405.452 601.35 443.488 598.644 482.345C596.436 481.941 597.245 483.455 597.187 484.855C597.083 487.596 596.655 491.539 597.916 493.979C597.823 497.102 597.869 500.305 597.916 503.439C596.702 505.625 596.679 510.563 597.916 512.899C597.95 513.373 597.812 513.975 597.916 514.356L598.644 515.085C601.246 517.201 604.252 510.818 605.57 508.551C624.197 476.366 627.25 414.75 633.563 376.84C634.28 372.562 635.378 367.913 635.737 363.379C635.864 361.806 636.257 359.1 635.02 357.921C635.089 356.961 634.962 355.978 635.02 355.006C637.228 355.411 636.419 353.896 636.477 352.497C636.685 347.189 636.546 341.753 636.488 336.445C636.477 335.219 636.951 333.207 635.748 332.455C635.806 331.252 635.69 330.027 635.748 328.812C637.957 329.217 637.147 327.702 637.205 326.303C637.702 313.72 638.384 302.456 639.425 289.909C639.518 288.752 639.772 286.601 638.662 285.884C641.61 260.06 646.999 230.061 654.306 205.116C657.012 195.864 661.001 183.166 673.13 184.045C679.281 184.496 684.588 193.887 683.802 199.681C678.888 225.007 671.754 249.906 667.88 275.453C666.192 286.555 663.625 302.225 664.839 313.177C665.533 319.491 667.441 316.473 669.522 313.466C679.119 299.507 685.872 283.12 694.821 268.919C699.758 261.078 704.753 253.052 715.437 257.47C730.052 263.518 719.542 282.762 714.697 292.441C695.954 329.865 671.476 353.861 659.96 396.315C654.41 416.773 650.305 438.584 649.577 459.771C650.872 461.101 656.491 454.752 657.555 453.572C678.819 429.876 687.953 398.617 702.545 371.243C706.707 363.449 713.726 352.323 724.282 357.77C736.828 364.247 728.584 380.576 724.837 389.909C709.54 428.026 688.855 463.807 660.134 493.274C643.218 510.633 628.637 525.84 614.785 546.136C612.589 549.363 599.985 568.606 602.286 571.104C628.325 562.778 651.011 545.292 670.413 526.465C677.211 519.861 692.127 500.803 699.596 497.807C703.909 496.073 706.939 496.905 710.639 499.484C722.178 507.533 714.789 519.618 708.384 528.419C688.612 555.55 656.676 578.61 626.568 592.834C604.437 603.289 580.098 609.106 561.216 624.973C543.063 640.227 501.982 678.032 493.032 698.663C488.234 709.719 491.864 712.044 502.074 715.363C517.244 720.301 533.015 719.063 548.047 723.215C561.424 726.904 605.316 748.646 615.734 757.389C623.966 764.293 634.164 781.085 623.319 789.689C616.543 795.066 607.686 796.396 599.373 797.391C597.904 796.258 591.961 795.76 592.828 798.12C592.343 798.143 591.857 798.096 591.371 798.12C587.139 796.824 581.682 797.333 577.173 797.379C575.947 797.391 573.935 796.917 573.184 798.12C552.094 797.333 528.98 791.065 508.04 792.268C496.964 792.904 486.419 796.581 475.7 798.848C472.185 797.368 467.352 799.716 463.606 800.213C460.102 800.675 456.287 800.803 452.749 801.034C451.349 801.126 449.835 800.259 450.239 802.491C449.754 802.526 449.268 802.456 448.783 802.491C448.031 801.288 446.019 801.762 444.794 801.751C439.463 801.682 434.098 801.693 428.768 801.751C427.542 801.762 425.53 801.288 424.779 802.491C402.278 800.814 380.599 793.286 358.202 793.748C326.07 794.419 293.718 802.676 261.47 798.837C248.774 797.322 225.73 791.424 230.159 774.088C233.211 762.142 252.995 755.434 262.777 749.953C286.595 736.584 301.789 720.15 330.591 716.635C343.841 715.016 381.188 717.074 373.904 694.396C366.619 671.717 327.411 645.061 309.836 628.963C299.36 619.364 292.932 609.569 279.554 603.231C266.292 596.94 251.908 592.915 238.796 585.792C206.016 567.959 173.607 531.784 152.124 501.496C148.319 496.142 138.202 482.496 139.035 476.366C140.434 466.051 149.765 462.176 158.76 467.219C168.831 472.862 188.233 501.774 197.449 512.205C209.936 526.337 226.066 542.979 242.438 552.335C244.959 553.78 255.099 559.181 257.25 559.378C257.967 559.447 258.834 558.881 258.926 558.372C259.227 556.834 250.37 539.926 248.867 537.174C241.536 523.643 231.361 506.134 222.412 493.771C212.769 480.437 196.87 470.445 185.424 458.002C169.213 440.365 151.395 411.28 143.417 388.694C137.104 370.838 155.28 361.54 166.403 375.881C173.341 384.82 177.549 397.842 183.134 407.892C188.279 417.143 196.026 428.801 203.623 436.156C205.195 437.682 213.636 445.188 215.266 443.777C208.687 414.831 200.212 385.202 186.291 358.892C179.573 346.182 171.121 334.467 164.692 321.561C158.552 309.245 145.568 278.876 145.417 265.842C145.29 254.336 159.604 246.032 167.571 255.388C174.058 263.009 181.989 291.69 187.008 302.884C190.06 309.707 194.269 318.103 198.235 324.395C198.905 325.47 202.64 331.426 202.987 331.669C203.403 331.958 204.744 331.333 205.08 330.998C206.224 329.842 206.352 326.985 205.08 325.909V320.821C206.063 317.143 206.248 311.084 205.854 307.279C205.727 305.984 205.091 304.943 205.08 304.815C203.704 291.389 202.698 277.904 201.438 264.443C200.397 253.41 191.968 224.071 211 224.487C219.579 224.672 221.707 230.084 223.996 237.15C222.62 237.856 223.522 239.602 223.742 240.666C225.106 247.015 226.1 253.422 227.627 259.713C227.627 260.199 227.627 260.685 227.627 261.17C227.604 262.593 226.794 265.426 228.355 266.987C228.355 267.473 228.355 267.959 228.355 268.444C228.355 270.676 227.65 274.354 229.084 276.447C229.107 276.69 229.06 276.933 229.084 277.176L229.812 277.904C229.847 278.633 229.777 279.362 229.812 280.09C228.621 280.819 228.644 283.768 229.812 284.462C229.824 285.19 229.812 285.919 229.812 286.647C229.789 289.411 229.153 293.482 230.54 296.107C230.575 296.836 230.494 297.564 230.54 298.293C229.222 299.449 229.604 300.016 231.269 299.75C231.304 300.236 231.246 300.722 231.269 301.207C230.066 301.959 230.54 303.971 230.529 305.197C230.194 331.877 227.812 365.472 232.656 391.123C232.888 392.372 232.46 393.852 234.171 394.338C234.206 394.824 234.136 395.309 234.171 395.795C234.171 395.899 233.454 396.373 233.466 396.928C233.489 397.738 233.998 402.815 234.171 403.069C234.264 403.208 235.304 402.988 235.628 403.069C240.334 430.501 247.734 460.326 257.435 486.393C257.99 487.873 260.325 496.119 262.534 494.026C262.985 493.598 263.852 483.34 263.991 481.651C266.199 482.056 265.39 480.541 265.448 479.142C265.956 466.27 265.32 453.329 264.719 440.504C264.65 439.105 265.471 437.59 263.262 437.995C260.545 406.758 254.66 375.742 251.584 344.529C252.278 332.987 267.691 327.621 274.351 337.046C280.19 345.292 285.555 387.677 287.162 399.912C290.365 424.371 293.464 452.381 292.388 476.968C291.602 495.009 285.289 520.648 289.197 537.578C291.567 547.859 302.112 565.623 308.483 574.319C309.593 575.834 315.016 582.912 315.953 583.583C317.039 584.369 318.011 584.369 319.271 584.253C317.155 569.37 314.97 554.474 312.611 539.625C310.495 526.349 303.962 501.439 305.442 489.284C306.737 478.691 320.046 474.331 327.319 481.998C332.684 487.653 336.464 511.592 337.991 520.081C342.477 545.084 347.576 606.377 362.226 624.626C369.614 633.831 386.715 647.917 396.462 655.145C397.884 656.198 407.088 663.102 408.036 662.119C407.447 645.257 401.295 628.13 395.688 612.263C385.304 582.912 372.47 554.405 362.191 524.973C354.386 502.595 348.247 479.616 340.396 457.273C322.324 405.903 301.604 355.191 283.624 303.775C276.952 284.693 273.183 257.863 263.574 241.603C256.267 229.229 245.722 217.155 237.64 204.966C229.107 192.094 206.849 155.816 206.479 141.51C206.144 128.685 218.978 122.047 229.026 131.368C238.634 140.284 250.705 172.099 259.331 185.456C260.707 187.596 268.523 200.652 268.431 191.701C268.361 184.924 266.615 176.794 266.188 169.867C264.58 143.199 262.395 111.881 263.968 85.4446C264.43 77.6962 264.858 70.8846 272.582 67.1376C288.018 59.6321 291.267 75.4411 292.365 86.948C294.608 110.632 293.174 136.399 294.562 160.419C295.152 170.584 296.736 180.83 297.453 190.996C299.476 219.352 299.742 262.546 309.813 288.509C310.345 289.885 312.31 295.714 314.207 294.338C318.612 280.021 318.612 264.512 319.283 249.571C321.491 249.976 320.682 248.461 320.739 247.061C321.086 238.284 320.844 228.916 320.751 220.092C320.739 218.867 321.214 216.854 320.011 216.103C320.011 215.131 320.011 214.16 320.011 213.188V169.532C320.277 159.597 319.572 141.545 332.799 139.764C347.68 137.763 348.721 155.353 349.102 165.889V207.36C348.998 209.557 348.489 211.511 348.374 213.177C347.958 219.329 347.564 225.366 347.634 231.738C347.645 232.964 347.171 234.976 348.374 235.728C347.911 255.804 346.119 275.788 343.159 295.633C341.17 308.956 337.551 322.602 336.094 335.867C334.164 353.538 339.818 370.26 345.264 386.902C348.964 398.224 352.779 410.02 359.647 419.815C361.786 420.358 362.7 412.865 362.908 411.442C366.492 385.896 364.665 351.548 362.908 325.597C362.156 314.437 357.878 294.026 360.503 283.883C362.896 274.643 375.569 269.902 382.934 276.47C388.496 281.432 391.074 306.192 392.022 314.322C389.906 316.08 392.022 319.873 392.022 321.237V332.883C392.022 336.237 392.612 341.383 392.751 345.28C392.797 346.68 392.011 348.195 394.208 347.79C394.242 349.478 394.208 351.19 394.208 352.878C392.994 354.821 392.97 359.517 394.208 361.61C394.208 362.095 394.208 362.581 394.208 363.067C391.999 362.662 392.809 364.177 392.751 365.576C392.207 379.338 390.635 394.222 390.565 407.452C390.565 407.938 390.565 408.424 390.565 408.909C389.386 409.673 389.791 411.928 389.837 413.281C389.849 413.767 389.837 414.252 389.837 414.738C388.357 416.473 389.062 419.618 389.109 421.284C389.12 421.769 389.109 422.255 389.109 422.741C387.883 423.886 387.894 427.448 389.109 428.558C389.097 429.044 389.12 429.529 389.109 430.015C386.912 429.61 387.698 431.125 387.652 432.525C387.097 447.686 384.46 465.854 386.912 480.634C387.143 481.998 386.091 483.548 388.38 483.132C390.831 502.329 396 524.869 402.186 543.176C403.596 547.339 412.893 572.643 416.384 572.619C417.98 571.44 417.911 569.936 418.2 568.271C420.408 568.676 419.599 567.161 419.657 565.762C420.189 552.289 420.108 536.989 419.657 523.493C419.61 522.093 420.397 520.578 418.2 520.983C418.177 517.109 418.211 513.211 418.2 509.337V480.229C418.685 439.81 422.57 399.415 423.322 359.112C423.773 335.022 406.984 301.6 399.815 277.777C389.837 244.586 389.374 215.941 385.455 182.276C382.206 154.405 372.539 145.477 359.879 122.729C349.68 104.411 335.493 73.0588 336.06 52.092C336.314 42.8633 346.004 38.3646 354.236 40.3306C359.439 41.5796 361.983 48.9117 363.671 53.4566C368.735 67.0914 372.019 81.8248 378.066 95.078C379.697 98.6515 384.784 109.534 386.125 99.9698C387.79 88.0813 387.189 73.822 388.38 61.4825C389.189 53.179 390.82 33.1374 394.069 26.4299C399.284 15.64 417.113 19.8149 418.755 28.9163C420.663 39.417 417.587 58.6029 416.743 69.8553L416.801 69.8438Z" fill="#6EC8BC"/>
<path d="M234.206 394.361C232.494 393.875 232.922 392.395 232.691 391.146C227.846 365.496 230.228 331.9 230.564 305.22C230.575 303.994 230.101 301.982 231.303 301.23C232.575 324.267 230.182 346.83 231.269 369.289C231.674 377.662 233.57 386.046 234.206 394.361Z" fill="#59C3B5"/>
<path d="M558.661 259.019C556.464 259.424 557.25 257.909 557.204 256.51C557.077 252.323 557.204 247.986 557.204 244.112V217.918C557.204 215.085 558.464 209.568 558.661 206.643C558.592 224.094 558.753 241.58 558.661 259.031V259.019Z" fill="#59C3B5"/>
<path d="M471.364 160.06C469.052 160.465 470.081 158.892 469.931 157.528C468.219 141.719 467.514 124.672 467.711 108.759C467.722 107.533 467.248 105.521 468.451 104.77C469.029 123.261 469.248 141.73 471.364 160.072V160.06Z" fill="#59C3B5"/>
<path d="M389.155 430.015C388.496 448.553 386.033 464.304 388.426 483.132C386.137 483.548 387.189 481.998 386.958 480.634C384.507 465.854 387.131 447.686 387.698 432.524C387.744 431.125 386.958 429.61 389.155 430.015Z" fill="#59C3B5"/>
<path d="M452.448 444.563C452.39 449.212 451.719 454.382 451.719 458.753V492.221C451.719 494.222 452.413 497.796 452.448 500.594C450.251 500.999 451.037 499.484 450.991 498.085C450.447 481.825 450.343 463.321 450.991 447.084C451.049 445.685 450.239 444.17 452.448 444.575V444.563Z" fill="#59C3B5"/>
<path d="M394.254 363.067C393.999 376.436 393.456 390.684 391.883 403.983C391.745 405.105 391.467 406.643 390.623 407.452C390.681 394.234 392.265 379.339 392.808 365.577C392.866 364.177 392.057 362.662 394.265 363.067H394.254Z" fill="#59C3B5"/>
<path d="M638.685 285.942C639.807 286.659 639.552 288.81 639.448 289.966C638.408 302.514 637.726 313.778 637.228 326.361C637.171 327.76 637.98 329.275 635.771 328.87C635.968 324.499 636.5 318.612 636.5 314.68V303.763C636.5 298.998 638.084 291.123 638.685 285.942Z" fill="#59C3B5"/>
<path d="M571.75 478.032C572.952 478.783 572.478 480.796 572.49 482.021C572.605 493.436 572.201 505.556 571.75 516.993C571.692 518.392 572.501 519.907 570.293 519.503C570.455 515.328 571.021 509.742 571.021 506.041V485.664C571.021 484.207 571.576 480.079 571.75 478.02V478.032Z" fill="#59C3B5"/>
<path d="M263.309 438.018C265.517 437.613 264.708 439.128 264.765 440.527C265.355 453.353 266.003 466.294 265.494 479.165C265.436 480.564 266.245 482.079 264.037 481.675C264.187 479.998 264.765 476.459 264.765 475.487V455.839C264.765 450.878 263.771 443.372 263.309 438.018Z" fill="#59C3B5"/>
<path d="M394.254 347.79C392.057 348.195 392.843 346.68 392.797 345.28C392.67 341.383 392.068 336.237 392.068 332.883V321.237C392.068 319.873 389.952 316.08 392.068 314.322C392.404 317.213 393.525 322.244 393.525 324.869V335.786C393.525 339.047 394.173 343.997 394.254 347.79Z" fill="#59C3B5"/>
<path d="M440.076 112.772C442.273 112.367 441.487 113.882 441.533 115.282C441.811 123.458 441.649 131.877 441.545 140.065C441.533 141.291 442.007 143.303 440.805 144.055C440.25 133.589 440.134 123.25 440.076 112.772Z" fill="#59C3B5"/>
<path d="M416.801 176.794C414.211 177.43 415.552 171.636 415.367 169.127C415.298 168.19 414.616 167.219 414.616 166.976V156.059C414.616 155.77 413.899 154.428 413.829 153.202C413.691 150.727 413.436 146.715 414.616 144.783C415.113 155.411 416.026 166.178 416.801 176.794Z" fill="#59C3B5"/>
<path d="M413.887 110.586C413.702 121.318 414.153 131.9 414.615 142.597C412.418 143.002 413.205 141.487 413.158 140.088C412.881 131.819 412.129 121.006 412.43 113.096C412.488 111.696 411.678 110.181 413.887 110.586Z" fill="#59C3B5"/>
<path d="M440.804 146.969C443.07 146.564 442.134 148.102 442.25 149.49C442.932 157.701 443.325 166.005 443.718 173.892C442.25 164.999 441.359 155.932 440.804 146.969Z" fill="#59C3B5"/>
<path d="M320.046 213.177C320.219 198.652 319.653 184.034 320.046 169.52V213.177Z" fill="#59C3B5"/>
<path d="M349.148 207.36V165.889C349.622 178.968 349.75 194.315 349.148 207.36Z" fill="#59C3B5"/>
<path d="M320.046 216.091C321.248 216.843 320.774 218.855 320.786 220.081C320.878 228.905 321.121 238.272 320.774 247.05C320.716 248.449 321.526 249.964 319.317 249.56C319.41 247.385 319.248 245.188 319.317 243.014L320.046 242.285C320.312 233.589 319.953 224.8 320.046 216.091Z" fill="#59C3B5"/>
<path d="M227.661 259.748C226.135 253.457 225.141 247.05 223.776 240.701C223.545 239.637 222.643 237.891 224.031 237.185C226.551 244.957 227.557 251.826 227.673 259.736L227.661 259.748Z" fill="#59C3B5"/>
<path d="M560.846 280.854C558.557 281.27 559.598 279.72 559.378 278.356C558.187 271.035 558.615 267.184 558.661 260.477C559.586 267.242 559.887 274.077 560.846 280.854Z" fill="#59C3B5"/>
<path d="M468.45 100.398C466.254 100.803 467.04 99.2876 466.994 97.8883C466.82 92.6726 467.074 87.4222 466.994 82.2065C469.133 88.0352 468.242 94.3379 468.45 100.398Z" fill="#59C3B5"/>
<path d="M485.181 400.907C484.858 390.996 484.938 380.275 485.181 370.341V400.907Z" fill="#59C3B5"/>
<path d="M633.586 376.898C632.915 370.711 634.603 364.177 635.043 357.979C636.28 359.158 635.887 361.864 635.759 363.437C635.413 367.97 634.303 372.619 633.586 376.898Z" fill="#59C3B5"/>
<path d="M635.771 332.513C636.974 333.265 636.499 335.277 636.511 336.503C636.569 341.811 636.708 347.246 636.499 352.555C636.442 353.954 637.251 355.469 635.043 355.064C635.089 354.347 635.008 353.607 635.043 352.878L635.771 351.791L635.043 351.421C635.355 345.107 635.494 338.804 635.771 332.501V332.513Z" fill="#59C3B5"/>
<path d="M418.257 509.326C418.223 499.646 418.142 489.909 418.257 480.217V509.326Z" fill="#59C3B5"/>
<path d="M462.634 69.1155C456.911 66.525 452.471 67.2421 446.632 69.1155C452.217 64.7325 456.969 65.0795 462.634 69.1155Z" fill="#59C3B5"/>
<path d="M414.615 92.3952C414.315 97.4259 414.014 102.642 413.887 107.672C412.661 104.006 413.008 98.8368 413.158 94.9048C413.216 93.5054 412.407 91.9905 414.615 92.3952Z" fill="#59C3B5"/>
<path d="M440.076 110.586C440.064 102.711 439.729 94.3959 440.076 86.5781C441.278 87.3298 440.804 89.3421 440.816 90.5679C440.874 95.8993 440.885 101.265 440.816 106.597C440.804 107.822 441.278 109.835 440.076 110.586Z" fill="#59C3B5"/>
<path d="M348.42 221.908V222.637C348.42 226.985 348.524 231.391 348.42 235.74C347.217 234.988 347.691 232.976 347.68 231.75C347.61 225.378 348.004 219.341 348.42 213.188C348.42 216.091 348.42 219.017 348.42 221.92V221.908Z" fill="#59C3B5"/>
<path d="M452.448 534.791L453.176 535.52C453.211 536.005 453.141 536.491 453.176 536.977C450.979 537.382 451.765 535.867 451.719 534.467C451.557 529.633 451.65 524.707 451.708 519.873C451.719 518.647 451.245 516.635 452.448 515.883C452.609 522.116 452.078 528.616 452.448 534.803V534.791Z" fill="#59C3B5"/>
<path d="M453.905 411.095L452.448 426.372C452.448 422.429 452.275 417.815 452.448 413.605C452.506 412.206 451.697 410.691 453.905 411.095Z" fill="#59C3B5"/>
<path d="M205.103 320.867V304.862C205.115 304.989 205.751 306.041 205.878 307.325C206.271 311.13 206.086 317.19 205.103 320.867Z" fill="#59C3B5"/>
<path d="M598.667 482.403C598.39 486.324 598.066 490.094 597.939 494.049C596.678 491.597 597.106 487.665 597.21 484.924C597.268 483.525 596.459 482.01 598.667 482.415V482.403Z" fill="#59C3B5"/>
<path d="M466.993 80.0209L464.808 71.2896C466.589 73.7528 467.479 75.7767 467.618 78.957C467.641 79.5236 466.993 79.9284 466.993 80.0209Z" fill="#59C3B5"/>
<path d="M560.118 189.897C560.014 193.193 559.632 196.744 559.389 200.086C558.141 197.669 558.534 193.691 558.661 190.984C558.753 189.203 558.129 188.602 560.118 189.909V189.897Z" fill="#59C3B5"/>
<path d="M230.563 296.13C229.176 293.505 229.812 289.434 229.835 286.67C231.8 289.434 230.448 293.528 230.563 296.13Z" fill="#59C3B5"/>
<path d="M443.718 175.348C444.123 175.395 445.048 175.21 445.152 175.348C445.337 175.603 445.938 180.761 445.961 181.547C446.008 183.189 445.164 183.247 445.175 183.351C444.77 180.865 443.788 177.8 443.718 175.348Z" fill="#59C3B5"/>
<path d="M235.662 403.093C235.35 403.012 234.31 403.231 234.205 403.093C234.032 402.838 233.523 397.761 233.5 396.952C233.489 396.385 234.205 395.911 234.205 395.818C235.292 398.097 235.246 400.676 235.662 403.093Z" fill="#59C3B5"/>
<path d="M452.448 441.649C451.222 438.55 451.234 432.952 452.448 430.003C452.448 433.878 452.494 437.775 452.448 441.649Z" fill="#59C3B5"/>
<path d="M581.936 208.088C582.341 208.158 583.3 207.961 583.393 208.088C583.705 208.505 583.705 217.259 582.664 218.277C582.56 214.715 582.202 211.523 581.936 208.088Z" fill="#59C3B5"/>
<path d="M415.344 84.3922C415.17 86.6704 414.754 88.833 414.615 90.9378C413.482 89.4691 412.985 83.5248 415.344 84.3922Z" fill="#59C3B5"/>
<path d="M229.107 276.482C227.684 274.389 228.378 270.711 228.378 268.479C230.344 270.677 228.91 274.424 229.107 276.482Z" fill="#59C3B5"/>
<path d="M416.801 69.8436C416.616 72.2954 416.246 74.6661 416.072 77.1178C414.974 75.5566 414.396 68.9879 416.801 69.8436Z" fill="#59C3B5"/>
<path d="M389.154 421.284C389.108 419.607 388.403 416.473 389.883 414.738C389.883 416.612 391.004 419.353 389.154 421.284Z" fill="#59C3B5"/>
<path d="M597.939 512.957C596.702 510.621 596.725 505.683 597.939 503.497C597.985 506.573 597.696 509.95 597.939 512.957Z" fill="#59C3B5"/>
<path d="M582.665 221.18C584.295 223.805 583 227.691 583.382 230.64C582.156 230.836 582.7 229.275 582.665 228.465C582.549 226.06 582.688 223.597 582.665 221.191V221.18Z" fill="#59C3B5"/>
<path d="M394.254 361.61C393.017 359.517 393.04 354.821 394.254 352.878C394.265 355.781 394.288 358.707 394.254 361.61Z" fill="#59C3B5"/>
<path d="M228.39 267.022C226.829 265.461 227.638 262.628 227.661 261.205C229.419 262.917 228.413 265.472 228.39 267.022Z" fill="#59C3B5"/>
<path d="M416.072 77.8468C415.945 79.6624 415.471 81.2352 415.344 82.9352C414.141 81.6053 413.818 77.0025 416.072 77.8468Z" fill="#59C3B5"/>
<path d="M389.155 428.558C387.941 427.436 387.929 423.886 389.155 422.741C389.178 424.869 389.236 426.349 389.155 428.558Z" fill="#59C3B5"/>
<path d="M472.093 165.16C469.896 165.946 470.139 162.072 471.364 160.789C471.549 162.257 471.885 163.691 472.093 165.16Z" fill="#59C3B5"/>
<path d="M229.835 284.485C228.667 283.791 228.644 280.853 229.835 280.113C229.905 281.871 229.812 283.12 229.835 284.485Z" fill="#59C3B5"/>
<path d="M389.883 413.281C389.837 411.94 389.432 409.685 390.611 408.91C390.634 410.008 391.606 411.87 389.883 413.281Z" fill="#59C3B5"/>
<path d="M205.103 331.056V325.967C206.375 327.054 206.248 329.911 205.103 331.056Z" fill="#59C3B5"/>
<path d="M445.175 184.809C447.117 184.196 447.291 186.462 445.903 187.723C445.776 186.775 445.221 185.688 445.175 184.809Z" fill="#59C3B5"/>
<path d="M231.292 299.762C229.638 300.028 229.245 299.461 230.563 298.305C230.563 298.386 231.211 298.478 231.292 299.762Z" fill="#59C3B5"/>
<path d="M635.043 352.879C635.066 352.393 635.02 351.907 635.043 351.421L635.771 351.791L635.043 352.879Z" fill="#6EC8BC"/>
<path d="M442.99 73.4752C443.233 73.0473 443.244 72.6773 443.718 72.0181L442.99 73.4752Z" fill="#59C3B5"/>
<path d="M229.835 277.939L229.106 277.21C229.106 277.21 229.812 277.43 229.835 277.939Z" fill="#59C3B5"/>
<path d="M319.317 243.014C319.341 242.493 320.046 242.343 320.046 242.285L319.317 243.014Z" fill="#6EC8BC"/>
<path d="M452.448 510.054L451.731 509.696L452.448 509.337C452.448 509.58 452.448 509.823 452.448 510.066V510.054Z" fill="#59C3B5"/>
<path d="M598.667 515.143L597.939 514.414C597.939 514.414 598.505 515.015 598.667 515.143Z" fill="#59C3B5"/>
<path d="M464.091 70.5723L463.363 69.8438C463.617 70.075 463.86 70.3179 464.091 70.5723Z" fill="#59C3B5"/>
</g>
</g>
<defs>
<clipPath id="clip0_504_11397">
<rect width="669" height="516" fill="white"/>
</clipPath>
<clipPath id="clip1_504_11397">
<rect width="592" height="783" fill="white" transform="translate(139 20)"/>
</clipPath>
</defs>
</svg>
