<svg width="669" height="516" viewBox="0 0 669 516" fill="none" xmlns="http://www.w3.org/2000/svg">
<g clip-path="url(#clip0_504_11398)">
<rect width="669" height="516" fill="#D9D9D9" fill-opacity="0.6"/>
<g clip-path="url(#clip1_504_11398)">
<path d="M362.567 25.1835C392.329 24.8822 427.413 37.5987 450.492 56.0774C478.052 78.1314 496.269 108.763 524.983 129.128C553.697 149.493 584.285 154.469 614.297 168.508C685.368 201.733 753.097 272.283 718.839 356.766C705.17 390.463 672.262 411.862 659.681 445.991C637.952 504.963 685.8 551.337 676.246 609.17C668.527 655.832 633.352 689.122 591.297 706.92C562.478 754.944 537.433 794.206 478.577 806.071C404.02 821.106 328.427 792.962 297.328 721.051C272.375 663.336 281.116 586.317 226.978 544.396C156.732 523.39 60.4073 507.019 57.0916 414.901C54.6278 346.407 102.292 314.937 148.45 277.259C211.015 226.184 176.954 177.427 204.528 116.359C224.226 72.7227 269.112 39.9953 315.361 29.479C316.213 31.1422 318.349 30.1207 319.66 29.9374C333.8 27.973 348.426 25.3406 362.554 25.1966L362.567 25.1835ZM460.085 83.8021C395.737 18.9235 283.856 26.0609 230.228 100.028C194.961 148.681 214.069 188.31 196.114 237.434C173.311 299.824 96.0411 310.458 75.5441 381.047C52.793 459.388 110.903 494.997 175.329 514.563C243.202 535.163 292.427 548.05 347.129 596.689C382.343 628.002 416.562 680.086 460.426 696.98C546.371 730.1 685.342 675.581 660.756 566.253C651.91 526.926 635.567 504.046 641.543 460.462C649.341 403.625 706.415 381.099 713.413 324.772C721.277 261.544 662.551 206.854 610.287 181.945C575.649 165.431 538.757 159.839 508.025 134.93C489.638 120.026 476.545 100.408 460.072 83.8021H460.085ZM258.3 555.973V556.824C258.863 556.536 258.863 556.248 258.3 555.973ZM345.962 615.43C320.551 591.267 292.007 570.876 259.61 557.243C300.382 615.652 283.593 696.404 332.084 750.622C386.104 811.022 499.572 812.606 549.136 746.261L571.075 713.298C570.734 712.237 569.227 713.101 568.48 713.272C512.677 725.621 457.569 723.762 413.18 684.159C389.774 663.27 368.871 637.209 345.962 615.417V615.43Z" fill="#009B8A"/>
<path d="M362.567 25.1836C348.44 25.3276 333.814 27.96 319.673 29.9244C318.363 30.1077 316.226 31.1292 315.375 29.466C330.682 25.9824 346.88 24.424 362.567 25.1836Z" fill="#009B89"/>
<path d="M482.692 685.442C414.675 671.324 383.955 598.483 342.411 549.949C292.191 491.291 234.186 475.484 159.616 465.936C155.671 465.426 139.067 465.963 137.835 461.916C135.725 455.014 152.421 453.613 157.074 453.076C210.098 446.934 278.548 458.026 322.517 489.235C335.78 498.651 347.404 510.739 361.702 518.662C350.956 500.039 338.348 482.228 324.797 465.517C280.96 411.443 246.728 390.45 187.806 356.308C185.224 354.815 168.646 346.001 176.981 343.474C181.083 342.23 204.489 347.979 210.02 349.55C271.956 367.23 319.477 407.933 358.256 457.817C365.149 466.683 370.994 476.204 378.019 484.795C366.682 444.773 350.012 404.162 330.118 367.597C313.068 336.258 295.258 316.744 273.358 289.688C250.201 261.086 218.827 210.351 216.717 173.079C216.559 170.303 216.048 158.765 221.015 162.785C226.572 167.29 238.236 188.297 243.806 195.735C285.599 251.46 339.528 298.79 368.478 364.402L380.587 392.166C380.378 386.05 380.902 379.855 380.587 373.739C376.983 303.622 366.578 234.107 335.858 170.63C326.016 150.305 312.242 130.962 302.924 110.938C300.71 106.184 299.137 102.752 299.936 97.1996C301.142 97.1079 302.217 97.1079 303.344 97.6449C306.135 98.9676 324.273 118.795 327.366 122.515C397.009 206.553 410.861 309.699 426.194 413.918C426.391 415.267 426.574 419.078 427.78 419.602C429.825 408.208 431.07 396.644 433.35 385.303C446.141 321.891 465.76 272.126 458.67 204.824C456.927 188.284 449.771 166.649 449.208 151.654C448.854 142.159 455.682 149.388 458.526 153.513C483.4 189.659 490.634 270.017 486.021 312.75C481.827 351.607 471.71 389.861 469.836 429.044C471.107 429.005 471.461 426.635 471.919 425.574C491.591 381.086 506.243 341.169 534.668 300.492C544.969 285.746 575.256 248.107 590.052 240.079C593.053 238.455 599.383 235.443 598.374 241.481C596.972 249.888 574.863 277.377 568.821 286.597C522.336 357.447 504.198 431.808 500.751 516.121C500.673 517.928 500.057 519.461 499.847 521.216L501.158 520.81C517.671 453.22 552.584 390.515 611.139 351.174C623.222 343.055 649.184 329.435 663.561 328.95C667.02 328.832 670.375 329.029 668.082 332.617C666.47 335.158 635.449 353.1 629.5 357.513C587.274 388.865 568.782 428.94 557.577 479.439C553.265 498.873 550.08 519.775 549.622 539.655L558.9 518.492C567.786 502.017 588.61 482.451 606.264 475.785C608.491 474.947 617.482 472.144 618.268 475.785C618.609 477.369 601.074 497.459 598.505 501.467C580.931 528.851 581.101 564.63 581.363 596.244L574.299 617.054C562.701 647.581 535.625 675.633 502.586 681.736C497.134 682.744 492.141 682.469 486.925 683.229C485.418 683.451 483.269 683.726 482.679 685.416L482.692 685.442ZM378.438 485.659V486.511C379.002 486.223 379.002 485.934 378.438 485.659Z" fill="#17B0A0"/>
<path d="M378.438 485.659C379.002 485.947 379.002 486.235 378.438 486.51V485.659Z" fill="#5DC4B6"/>
<path d="M460.085 83.8018C476.559 100.408 489.651 120.026 508.038 134.929C538.77 159.838 575.649 165.431 610.3 181.945C662.565 206.867 721.277 261.544 713.427 324.772C706.429 381.099 649.354 403.624 641.557 460.462C635.58 504.046 651.923 526.925 660.769 566.253C685.355 675.58 546.398 730.1 460.439 696.98C416.575 680.072 382.357 627.989 347.142 596.689C292.44 548.049 243.216 535.163 175.343 514.562C110.916 495.01 52.7934 459.388 75.5576 381.047C96.0545 310.458 173.324 299.824 196.128 237.434C214.082 188.31 194.975 148.68 230.241 100.028C283.856 26.0606 395.737 18.9232 460.085 83.8018ZM581.376 596.27C581.101 564.655 580.944 528.877 598.518 501.492C601.087 497.485 618.622 477.395 618.281 475.811C617.495 472.157 608.491 474.96 606.277 475.811C588.624 482.477 567.812 502.042 558.913 518.517L549.635 539.681C550.08 519.814 553.278 498.899 557.59 479.465C568.795 428.966 587.274 388.891 629.513 357.539C635.463 353.125 666.483 335.171 668.095 332.643C670.375 329.055 667.034 328.858 663.574 328.976C649.197 329.447 623.235 343.081 611.152 351.2C552.597 390.541 517.684 453.233 501.171 520.836L499.86 521.242C500.07 519.487 500.686 517.954 500.764 516.147C504.211 431.834 522.349 357.473 568.834 286.623C574.876 277.403 596.985 249.914 598.387 241.506C599.396 235.469 593.066 238.468 590.065 240.105C575.269 248.133 544.982 285.772 534.681 300.518C506.256 341.195 491.604 381.112 471.932 425.6C471.461 426.661 471.107 429.031 469.849 429.07C471.723 389.887 481.84 351.632 486.034 312.776C490.634 270.056 483.413 189.698 458.539 153.539C455.695 149.401 448.867 142.172 449.221 151.68C449.784 166.675 456.94 188.31 458.683 204.85C465.786 272.152 446.167 321.917 433.363 385.329C431.07 396.683 429.838 408.247 427.793 419.628C426.574 419.104 426.404 415.293 426.207 413.944C410.874 309.725 397.035 206.592 327.379 122.54C324.286 118.808 306.148 98.9934 303.357 97.6707C302.217 97.1338 301.155 97.1338 299.949 97.2255C299.137 102.778 300.723 106.223 302.937 110.963C312.255 131.001 326.029 150.331 335.871 170.656C366.591 234.133 377.01 303.648 380.6 373.765C380.915 379.881 380.391 386.076 380.6 392.191L368.491 364.427C339.528 298.802 285.599 251.486 243.819 195.761C238.236 188.323 226.585 167.303 221.028 162.811C216.061 158.791 216.572 170.342 216.73 173.105C218.84 210.377 250.214 261.098 273.372 289.714C295.271 316.77 313.081 336.271 330.131 367.623C350.012 404.188 366.682 444.799 378.032 484.821C371.007 476.23 365.162 466.709 358.269 457.843C319.49 407.972 271.969 367.256 210.033 349.576C204.502 347.992 181.096 342.256 176.994 343.5C168.659 346.027 185.237 354.841 187.819 356.334C246.728 390.476 280.973 411.469 324.81 465.543C338.362 482.254 350.969 500.065 361.715 518.688C347.417 510.751 335.793 498.677 322.53 489.261C278.561 458.052 210.111 446.96 157.087 453.102C152.447 453.639 135.738 455.04 137.848 461.942C139.08 465.989 155.684 465.452 159.629 465.962C234.199 475.51 292.204 491.317 342.424 549.975C383.982 598.509 414.688 671.35 482.705 685.468C518.706 692.946 552.19 680.426 571.233 648.314C583.001 628.46 581.573 618.062 581.389 596.296L581.376 596.27Z" fill="#5DC4B6"/>
</g>
</g>
<defs>
<clipPath id="clip0_504_11398">
<rect width="669" height="516" fill="white"/>
</clipPath>
<clipPath id="clip1_504_11398">
<rect width="671" height="785" fill="white" transform="translate(57 25)"/>
</clipPath>
</defs>
</svg>
