<svg width="669" height="516" viewBox="0 0 669 516" fill="none" xmlns="http://www.w3.org/2000/svg">
<g clip-path="url(#clip0_504_11284)">
<rect width="669" height="516" fill="#D9D9D9" fill-opacity="0.6"/>
<g clip-path="url(#clip1_504_11284)">
<path d="M399.87 576.926C409.826 553.466 415.093 544.528 436.797 530.04C454.574 518.165 466.078 512.442 488.013 513.957C517.143 515.968 550.479 528.479 579.298 517.448C594.879 511.482 592.743 495.121 577.276 493.445C556.808 491.225 540.718 495.156 518.957 489.571C517.848 489.282 515.053 488.843 514.729 487.594C561.914 466.481 616.144 453.924 655.185 418.392C657.877 415.941 664.276 410.033 666.031 407.281C671.345 398.933 666.979 389.024 656.618 390.492C649.26 391.544 625.5 409.663 617.08 414.658C615.128 415.814 600.343 424.497 599.58 423.862C605.044 404.679 611.062 385.405 620.938 367.992C625.928 359.192 643.046 340.889 630.998 332.009C618.062 322.47 605.09 346.034 599.731 354.81C583.514 381.346 575.128 409.316 563.404 437.806L511.599 460.642L508.885 461.22C514.267 450.872 540.591 420.867 522.341 412.241C511.253 407.003 500.834 422.439 495.116 430.232C483.312 446.316 474.129 464.238 462.844 480.68C432.142 495.017 401.244 511.528 378.674 537.382C381.354 499.365 399.107 465.036 426.563 439.24C468.215 400.101 521.244 382.676 563.762 343.71C580.245 328.61 592.858 310.341 612.101 298.362C627.88 288.534 645.945 281.18 659.933 268.623C665.35 263.767 673.655 255.616 665.812 248.863C656.19 240.573 642.122 252.794 633.262 257.304C626.078 260.957 618.87 264.368 611.304 267.178C614.608 251.892 621.365 236.491 628.723 222.743C636.577 208.071 648.902 192.461 655.312 177.603C658.004 171.371 661.296 163.312 655.913 157.704C644.801 146.13 632.927 163.786 627.083 172.042C612.217 193.028 595.041 223.241 586.956 247.58C583.317 258.518 579.644 281.643 574.608 290.141C572.078 294.408 562.122 305.253 558.264 309.659C553.851 314.7 549.07 319.533 544.345 324.285C545.778 309.913 547.81 295.159 551.83 281.25C554.544 271.838 563.277 258.391 555.284 249.649C551.484 245.487 543.248 245.568 539.124 249.129C533.234 254.205 528.093 269.699 525.91 277.272C519.442 299.819 518.033 323.418 513.99 346.427C511.461 348.775 483.081 367.437 481.822 366.026C482.064 355.666 481.498 345.237 481.787 334.877C482.619 305.635 483.982 267.56 500.961 242.758C505.408 236.248 532.206 220.454 540.58 214.314C550.513 207.018 571.639 191.721 576.953 181.153C580.903 173.291 577.75 164.249 568.44 163.231C558.587 162.167 541.908 179.141 534.111 185.131L514.764 198.705C520.066 184.356 524.432 169.498 527.689 154.536C530.357 142.292 536.468 112.923 532.471 101.869C529.745 94.3187 519.789 93.1509 514.348 98.7241C508.134 105.107 506.297 127.503 504.161 136.857C495.671 173.915 482.688 212.661 466.309 246.909C465.859 247.846 465.131 252.147 464.276 248.505C462.22 239.694 459.483 221.772 447.828 220.997C435.122 220.142 432.489 231.3 433.725 241.729C436.231 262.842 446.742 287.967 450.75 309.624C454.216 328.332 452.702 351.827 449.434 370.605C448.925 373.495 447.747 380.202 446.754 382.572C444.744 387.382 428.053 394.678 423.768 399.118C422.983 399.442 423.017 400.17 422.197 398.991C420.626 396.713 417.531 380.248 416.918 376.444C414.839 363.586 414.273 350.833 414.481 337.813C414.62 329.061 418.108 316.619 412.298 309.3C405.83 301.16 397.294 304.548 393.494 313.139C384.242 334.044 387.106 379.716 392.061 402.055C393.02 406.402 397.317 418.08 396.936 421.248C396.485 425.052 383.733 439.402 380.569 443.737C377.404 448.073 374.678 453.427 371.559 457.381C371.097 457.971 371.582 458.722 369.884 458.306C366.604 440.824 361.152 423.283 358.403 405.72C354.58 381.242 360.47 351.006 364.132 326.239C367.493 303.484 368.729 284.048 380.984 264.022C400.886 231.519 425.189 201.318 444.617 168.076C449.029 160.526 460.21 141.945 461.25 134.198C461.897 129.388 461.539 123.757 457.3 120.704C446.211 112.715 434.499 132.07 429.555 139.817C423.283 149.657 418.258 161.196 411.051 170.319C410.589 170.909 411.074 171.672 409.387 171.244C401.221 151.195 399.211 129.388 402.168 107.997C403.15 100.909 406.188 95.1744 404.675 87.7166C402.688 77.9116 390.987 75.6106 384.865 83.3459C372.599 98.8512 373.754 136.661 376.572 155.392C378.755 169.949 383.352 183.847 387.418 197.919C380.164 211.031 370.566 222.662 362.723 235.474C362.376 236.04 362.965 236.722 361.487 236.41C345.512 217.76 328.487 199.838 313.736 180.217C313.482 154.212 328.209 125.121 325.183 99.1866C323.635 85.9012 311.819 81.3687 304.658 93.1278C296.226 106.968 298.952 132.29 289.78 147.055C280.505 132.764 274.453 116.022 269.867 99.6259C266.864 88.8844 263.179 63.1809 255.694 55.9659C246.558 47.1669 234.326 54.1969 232.535 65.5859C231.091 74.7434 235.931 91.7519 238.415 101.083C248.602 139.193 269.278 178.193 293.823 208.926C309.809 228.941 329.549 245.198 335.024 271.664C336.93 280.857 336.953 293.298 336.226 302.663C334.77 321.499 329.584 339.952 327.447 358.684L323.416 355.03L293.396 319.175C294.089 292.986 289.931 267.826 282.619 242.816C280.032 233.959 274.025 209.47 260.188 218.477C254.62 222.096 254.609 228.478 255.128 234.456C256.191 246.724 260.499 260.853 262.244 273.468C262.544 275.619 264.392 289.182 263.803 289.841C262.532 290.176 262.336 289.309 261.608 288.754C258.825 286.615 254.643 281.978 252.079 279.249C239.604 265.976 228.735 251.28 217.335 237.092C218.952 211.632 223.884 185.674 217.97 160.341C213.176 139.782 192.039 143.008 191.53 161.335C191.496 162.445 192.166 163.694 192.143 164.966C191.946 178.135 193.483 192.265 190.283 204.902C175.232 189.837 164.571 173.21 158.265 152.744C155.77 144.639 153.402 125.78 147.869 120.681C139.402 112.865 128.822 119.178 127.748 129.862C124.906 157.993 145.697 195.248 161.522 217.598C196.405 266.854 241.626 308.04 279.881 354.695C300.65 380.028 319.627 401.604 329.838 433.574C340.049 465.544 344.08 498.324 337.681 530.063C325.46 515.055 311.576 503.007 296.226 491.387C290.97 487.421 289.341 488.75 288.66 480.657C287.389 465.752 288.775 452.513 286.28 436.904C284.548 426.105 278.773 395.441 270.433 389.058C264.103 384.214 254.043 387.659 252.899 395.753C250.97 409.443 259.229 430.545 260.141 445.495C260.338 448.663 260.303 460.364 259.067 462.712C258.351 464.064 257.866 462.839 257.231 462.33C254.897 460.492 251.501 457.173 249.168 455.011C243.901 450.132 238.796 444.778 234.21 439.228C233.032 417.41 235.019 395.522 232.258 373.807C230.445 359.516 221.712 317.857 210.427 309.254C204.733 304.907 196.105 305.623 193.76 313.116C191.068 321.707 197.779 337.871 199.801 346.982C204.028 365.957 205.68 386.191 205.645 405.57C186.737 378.964 174.493 348.289 155.712 321.545C156.613 303.114 161.441 253.187 146.287 240.18C139.934 234.734 130.266 236.144 127.505 244.585C125.241 251.499 127.043 262.935 127.829 270.369C128.499 276.74 131.063 283.342 129.573 289.852C118.484 278.868 108.712 266.149 101.031 252.517C96.457 244.4 89.2494 224.894 83.7744 219.263C73.5752 208.776 59.9916 215.991 62.2324 230.571C68.0424 268.392 111.588 310.931 133.454 341.606C135.025 343.814 146.887 361.274 146.021 362.337C131.051 354.359 114.857 348.809 99.9222 340.75C92.5298 336.761 79.5699 326.69 72.1775 325.326C59.2985 322.944 52.9457 334.483 59.8299 345.005C72.6395 364.569 123.867 381.439 145.559 391.729C160.829 398.979 165.218 401.65 175.579 415.132C181.331 422.613 186.217 430.672 192.131 438.107C199.108 446.882 207.147 454.895 214.043 463.764C191.842 461.948 170.832 454.375 150.884 444.975C140.65 440.153 118.034 423.353 108.724 435.933C100.199 447.449 114.349 456.109 122.677 461.497C145.362 476.17 168.822 484.831 195.03 490.866C215.567 495.595 248.545 498.162 265.489 508.938C289.607 524.259 309.128 548.794 317.202 576.174C296.457 577.99 275.608 580.707 255.59 586.638C242.365 590.558 214.62 600.525 222.694 619.152C225.744 626.182 237.791 630.911 244.767 632.935C271.299 640.601 300.234 642.751 327.77 643.572C367.412 644.752 413.858 643.711 452.691 636.022C461.781 634.218 485.31 628.599 487.47 618.112C491.755 597.241 461.319 589.737 446.257 585.748C431.068 581.724 415.463 578.845 399.858 576.903L399.87 576.926Z" fill="#FFFCF0"/>
<path d="M317.202 576.186C309.128 548.817 289.607 524.282 265.489 508.95C248.533 498.174 215.556 495.607 195.03 490.878C168.833 484.842 145.362 476.182 122.677 461.509C114.349 456.121 100.188 447.46 108.724 435.944C118.045 423.364 140.65 440.164 150.884 444.986C170.832 454.386 191.842 461.948 214.043 463.775C207.147 454.907 199.108 446.894 192.131 438.118C186.217 430.683 181.32 422.624 175.579 415.143C165.218 401.661 160.829 398.979 145.559 391.741C123.867 381.45 72.6395 364.58 59.8299 345.017C52.9457 334.495 59.2985 322.944 72.1775 325.337C79.5815 326.713 92.5298 336.773 99.9222 340.762C114.857 348.821 131.051 354.371 146.021 362.349C146.887 361.285 135.025 343.814 133.454 341.617C111.588 310.942 68.0308 268.404 62.2324 230.583C59.9916 215.991 73.5636 208.776 83.7744 219.274C89.2494 224.905 96.457 244.423 101.031 252.528C108.712 266.149 118.496 278.879 129.573 289.864C131.051 283.354 128.499 276.74 127.829 270.381C127.043 262.946 125.241 251.511 127.505 244.596C130.266 236.156 139.945 234.745 146.287 240.191C161.441 253.199 156.624 303.126 155.712 321.556C174.505 348.289 186.748 378.964 205.645 405.581C205.68 386.202 204.028 365.968 199.801 346.994C197.768 337.883 191.068 321.73 193.76 313.127C196.105 305.635 204.721 304.918 210.427 309.265C221.712 317.868 230.445 359.528 232.258 373.819C235.019 395.522 233.032 417.421 234.21 439.239C238.796 444.789 243.901 450.143 249.168 455.022C251.501 457.184 254.897 460.503 257.231 462.341C257.866 462.839 258.351 464.076 259.067 462.723C260.303 460.376 260.338 448.674 260.141 445.506C259.229 430.568 250.959 409.454 252.899 395.764C254.043 387.671 264.103 384.225 270.433 389.07C278.773 395.464 284.548 426.128 286.28 436.915C288.775 452.525 287.389 465.764 288.66 480.668C289.353 488.762 290.982 487.432 296.226 491.398C311.588 503.018 325.472 515.066 337.681 530.074C344.08 498.335 339.61 464.18 329.838 433.585C320.066 402.991 300.65 380.051 279.881 354.706C241.626 308.051 196.405 266.866 161.522 217.609C145.697 195.271 124.906 158.005 127.748 129.873C128.822 119.201 139.402 112.876 147.869 120.693C153.402 125.792 155.77 144.662 158.265 152.755C164.583 173.221 175.232 189.848 190.283 204.914C193.471 192.276 191.946 178.147 192.143 164.977C192.166 163.705 191.496 162.456 191.53 161.346C192.039 143.02 213.165 139.805 217.97 160.352C223.884 185.685 218.952 211.643 217.335 237.104C228.735 251.291 239.604 265.975 252.079 279.261C254.643 281.989 258.813 286.626 261.608 288.765C262.348 289.332 262.532 290.187 263.803 289.852C264.392 289.193 262.532 275.642 262.244 273.479C260.499 260.876 256.179 246.735 255.128 234.468C254.609 228.478 254.62 222.107 260.188 218.488C274.025 209.481 280.032 233.97 282.619 242.827C289.931 267.837 294.089 292.997 293.396 319.186L323.416 355.041L327.447 358.695C329.584 339.964 334.759 321.499 336.226 302.675C336.953 293.309 336.919 280.868 335.024 271.676C329.549 245.198 309.809 228.941 293.823 208.938C269.278 178.204 248.602 139.216 238.415 101.094C235.92 91.7632 231.091 74.7548 232.535 65.5973C234.326 54.1967 246.558 47.1667 255.694 55.9773C263.191 63.1923 266.875 88.8957 269.867 99.6373C274.453 116.033 280.505 132.775 289.78 147.067C298.952 132.29 296.226 106.968 304.658 93.1392C311.819 81.3801 323.635 85.9126 325.183 99.1979C328.209 125.133 313.482 154.224 313.736 180.228C328.487 199.849 345.512 217.771 361.487 236.422C362.965 236.722 362.376 236.052 362.723 235.485C370.566 222.674 380.164 211.054 387.418 197.93C383.352 183.859 378.755 169.96 376.572 155.403C373.754 136.672 372.599 98.8626 384.865 83.3573C390.987 75.6104 402.688 77.9229 404.675 87.7279C406.188 95.1857 403.15 100.921 402.168 108.009C399.223 129.388 401.233 151.194 409.387 171.255C411.074 171.672 410.589 170.909 411.051 170.33C418.27 161.208 423.283 149.668 429.555 139.829C434.499 132.082 446.199 112.738 457.3 120.716C461.539 123.768 461.897 129.399 461.25 134.209C460.21 141.956 449.029 160.537 444.617 168.087C425.189 201.329 400.886 231.531 380.984 264.033C368.729 284.048 367.493 303.496 364.132 326.251C360.47 351.018 354.58 381.265 358.403 405.731C361.152 423.306 366.604 440.835 369.884 458.318C371.582 458.734 371.085 457.982 371.559 457.393C374.678 453.438 377.473 448.004 380.569 443.749C383.664 439.494 396.485 425.075 396.936 421.26C397.305 418.092 393.02 406.414 392.061 402.066C387.118 379.727 384.253 334.055 393.494 313.15C397.294 304.559 405.83 301.16 412.298 309.312C418.108 316.631 414.62 329.06 414.481 337.825C414.273 350.844 414.839 363.598 416.918 376.455C417.531 380.248 420.626 396.713 422.197 399.002C423.017 400.181 422.971 399.464 423.768 399.129C428.053 394.689 444.744 387.382 446.754 382.583C447.747 380.213 448.925 373.507 449.434 370.616C452.714 351.85 454.216 328.355 450.75 309.635C446.742 287.967 436.231 262.842 433.725 241.74C432.489 231.311 435.122 220.165 447.828 221.009C459.483 221.795 462.209 239.705 464.276 248.516C465.131 252.158 465.859 247.857 466.309 246.92C482.688 212.672 495.671 173.915 504.161 136.869C506.309 127.514 508.134 105.118 514.348 98.7354C519.777 93.1623 529.745 94.3417 532.471 101.88C536.468 112.934 530.346 142.303 527.689 154.548C524.432 169.521 520.066 184.367 514.764 198.716L534.111 185.142C541.908 179.153 558.587 162.167 568.44 163.243C577.75 164.249 580.903 173.29 576.953 181.164C571.639 191.733 550.513 207.03 540.58 214.326C532.206 220.465 505.42 236.271 500.961 242.769C483.982 267.571 482.619 305.646 481.787 334.888C481.498 345.248 482.064 355.677 481.822 366.037C483.081 367.436 511.461 348.786 513.99 346.439C518.033 323.429 519.442 299.819 525.91 277.284C528.082 269.71 533.222 254.216 539.124 249.14C543.248 245.579 551.495 245.498 555.284 249.661C563.265 258.414 554.544 271.849 551.83 281.261C547.822 295.171 545.778 309.924 544.345 324.297C549.058 319.544 553.851 314.711 558.264 309.67C562.122 305.265 572.09 294.408 574.608 290.153C579.644 281.654 583.317 258.529 586.956 247.591C595.041 223.252 612.217 193.051 627.083 172.053C632.927 163.798 644.801 146.142 655.913 157.716C661.296 163.324 658.004 171.383 655.312 177.615C648.89 192.473 636.577 208.094 628.723 222.755C621.353 236.503 614.596 251.892 611.304 267.189C618.87 264.38 626.078 260.98 633.262 257.315C642.122 252.806 656.19 240.573 665.812 248.874C673.643 255.627 665.338 263.779 659.933 268.635C645.945 281.192 627.868 288.557 612.101 298.374C592.87 310.352 580.245 328.621 563.762 343.722C521.256 382.687 468.215 400.112 426.563 439.251C399.107 465.059 381.354 499.376 378.674 537.394C401.244 511.54 432.142 495.017 462.844 480.691C474.129 464.261 483.312 446.339 495.116 430.244C500.834 422.451 511.253 407.015 522.341 412.253C540.591 420.867 514.267 450.883 508.885 461.231L511.599 460.653L563.404 437.817C575.128 409.327 583.514 381.358 599.731 354.822C605.102 346.046 618.073 322.481 630.998 332.02C643.046 340.9 625.939 359.204 620.938 368.003C611.062 385.416 605.044 404.691 599.58 423.873C600.343 424.509 615.128 415.825 617.08 414.669C625.5 409.686 649.271 391.556 656.618 390.504C666.979 389.024 671.356 398.933 666.031 407.292C664.276 410.044 657.877 415.953 655.185 418.404C616.144 453.924 561.914 466.492 514.729 487.605C515.064 488.854 517.848 489.294 518.957 489.583C540.718 495.167 556.808 491.224 577.276 493.456C592.754 495.133 594.879 511.494 579.298 517.46C550.479 528.49 517.143 515.98 488.013 513.968C466.078 512.453 454.574 518.177 436.797 530.051C415.105 544.539 409.826 553.477 399.87 576.937C397.352 582.88 395.411 589.587 392.339 595.403C390.04 599.762 387.141 602.086 382.324 603.681C368.452 608.272 349.382 606.063 335.29 603.126C333.315 602.71 325.888 599.681 324.525 598.525C320.944 595.46 318.703 581.319 317.19 576.209L317.202 576.186Z" fill="#5DC3B0"/>
</g>
</g>
<defs>
<clipPath id="clip0_504_11284">
<rect width="669" height="516" fill="white"/>
</clipPath>
<clipPath id="clip1_504_11284">
<rect width="612" height="592" fill="white" transform="translate(57 52)"/>
</clipPath>
</defs>
</svg>
