<svg width="669" height="516" viewBox="0 0 669 516" fill="none" xmlns="http://www.w3.org/2000/svg">
<g clip-path="url(#clip0_504_11431)">
<rect width="669" height="516" fill="#D9D9D9" fill-opacity="0.6"/>
<g clip-path="url(#clip1_504_11431)">
<path d="M431.696 30.0002C424.043 44.3752 442.638 57.5502 454.293 61.8752C465.135 65.9002 487.182 66.6002 492.059 53.5377C495.047 45.5252 492.521 42.6252 488.645 35.8877C516.644 40.9877 539.066 47.9627 565.227 58.4627C558.136 69.7002 572.93 82.5251 580.921 89.3876C592.338 99.1751 610.108 109.45 625.627 107.55C632.493 106.713 633.243 103.575 634.931 97.7126C660.83 116.363 677.674 128.963 699.733 152.675C700.071 156.413 696.257 157.488 695.819 161.113C694.381 173.175 715.002 202.738 726.257 207.125C732.535 209.575 734.711 209.063 737.049 202.725C758.171 233.525 775.515 265.963 796.149 296.263C803.865 307.6 824.986 329.85 828.362 341.1C830.751 349.05 830.826 361.35 828.675 369.388C824.661 384.375 798.638 434.113 787.133 443.675C768.45 459.213 733.248 446.663 711.013 444.163C645.161 436.763 576.719 440.613 510.692 442.15C384.388 445.088 219.219 434.925 128.781 335.225C115.913 321.038 101.545 294.6 79.748 294.95C75.0085 295.025 63.9788 298.813 70.9443 303.738C72.3449 304.738 97.8181 305.338 93.9414 310.663C93.0911 311.838 71.6446 320.15 67.4303 322.45C49.9229 311.775 43.1201 298 48.4848 277.5C55.3127 251.4 82.324 243.163 101.707 229.613C124.667 213.563 140.599 179.2 157.356 156.675C164.784 146.688 174 138.188 182.304 129.113C191.095 134.925 207.477 125.663 214.73 119.813C220.732 114.975 236.439 96.1252 222.558 92.8002C246.043 76.6877 267.864 66.1126 294.238 55.5002C288.11 74.3752 311.783 76.5502 324.676 73.6627C339.445 70.3502 369.295 56.9877 358.052 37.8377C383.763 32.8627 405.272 29.8877 431.696 30.0002ZM435.085 121.713C453.542 103.463 436.598 78.3502 414.376 74.3127C401.796 72.0252 387.265 71.7752 376.385 79.2376C364.843 87.1501 364.443 99.1127 368.382 111.45C376.56 137.113 417.94 138.65 435.085 121.7V121.713ZM509.066 87.2251C501.5 87.8751 494.947 89.4752 490.095 95.7377C468.286 123.9 530.637 161.15 554.923 141.888C569.629 130.225 558.849 110.8 547.482 101.238C536.34 91.8627 523.935 85.9251 509.078 87.2251H509.066ZM252.37 120.638C239.19 133.463 240.103 155.775 255.447 166.425C279.519 183.125 341.245 148.513 319.599 116.038C305.905 95.5002 267.039 106.363 252.358 120.638H252.37ZM622.926 138.213C610.183 139.9 605.706 151.113 607.682 162.75C609.796 175.163 632.418 194.863 644.085 198.988C656.528 203.4 673.21 200 674.26 184.613C675.698 163.363 643.522 135.488 622.926 138.213ZM184.017 163.713C173.237 165.763 151.616 189.525 149.965 200.338C148.752 208.3 150.453 220.45 159.694 222.875C176.414 227.263 198.961 204.963 203.688 190.238C208.415 175.513 201.749 160.338 184.017 163.713ZM467.811 166.7C441.2 169.863 433.834 198.7 450.329 217.975C475.377 247.25 523.284 230.363 509.041 191.675C502.951 175.138 485.168 164.638 467.811 166.7ZM350.949 167.663C327.727 170.713 310.095 197.075 326.139 217.463C348.448 245.813 401.546 235.613 397.319 194.4C395.231 173.988 368.644 165.325 350.949 167.663ZM568.903 196.1C562.813 197.125 556.386 203.213 554.247 208.938C541.517 242.9 592.438 282.588 614.723 254.663C626.39 240.038 619.212 225.2 608.458 213.013C597.891 201.038 585.66 193.275 568.903 196.1ZM262.475 254.4C299.053 221.313 257.51 181.413 223.521 216.938C210.928 230.088 206.639 256.75 226.785 264.763C237.114 268.875 254.559 261.563 262.475 254.4ZM695.582 234.4C655.14 240.338 693.506 305.225 725.669 291.95C739.463 286.263 738.437 267.988 732.66 256.7C725.482 242.688 712.026 231.988 695.594 234.4H695.582ZM148.664 247.125C133.245 250.363 132.32 273.725 147.902 276.888C170.336 281.438 168.885 242.863 148.664 247.125ZM416.74 254.025C393.142 257.488 379.661 292.413 401.921 307.588C413.876 315.738 428.032 316.15 439.474 307.175C465.573 286.7 449.266 249.25 416.74 254.025ZM308.719 264.8C298.652 266.4 287.135 276.4 283.671 285.875C271.479 319.188 318.473 332.2 334.03 302.85C344.859 282.425 332.542 261 308.719 264.8ZM523.759 275.613C486.169 280.725 502.701 335.55 539.766 327.925C570.692 321.563 559.112 270.813 523.759 275.613ZM195.797 287.375C173.787 290.938 173.262 327.013 199.448 326.425C225.634 325.838 222.37 283.075 195.797 287.375ZM627.816 295.225C616.961 297.063 611.321 307.6 612.472 317.95C613.797 329.863 628.629 344.55 640.446 345.913C659.379 348.088 673.41 333.663 664.206 315.3C657.616 302.163 642.772 292.688 627.816 295.225ZM745.54 318.9C743.389 319.013 740.225 320.2 738.325 321.288C716.44 333.713 743.639 366.5 762.947 356.7C780.355 347.875 766.111 317.875 745.54 318.9ZM253.734 336.438C246.681 337.638 241.016 343.263 240.253 350.425C237.727 374.013 271.579 380.025 277.093 358.8C281.07 343.5 268.052 333.988 253.734 336.425V336.438ZM352.888 340.363C349.299 341.1 342.934 347.025 341.17 350.238C329.69 371.2 358.403 389.313 374.772 374.013C382.2 367.075 381.825 352.125 373.797 345.513C368.244 340.938 359.953 338.913 352.888 340.363ZM461.909 348.238C432.871 352.5 440.124 396.288 471.237 390.925C478.24 389.725 487.582 380.988 488.57 373.9C490.971 356.563 478.928 345.738 461.909 348.238ZM576.757 356.075C560.412 358.563 547.619 378.85 564.314 390.613C578.708 400.763 606.707 393.925 604.506 373C603.343 361.95 586.786 354.538 576.769 356.063L576.757 356.075ZM689.667 359.988C685.528 360.75 681.113 364.4 678.937 367.913C664.193 391.7 705.486 404.563 713.227 383.55C719.004 367.85 704.573 357.238 689.654 359.988H689.667Z" fill="#8ECCC1"/>
<path d="M828.362 341.112C846.558 348.212 862.99 360.375 873.331 377.125C883.623 393.787 895.128 425.075 882.36 442.687C878.646 447.812 875.495 448.412 870.58 451.037C866.028 448.325 861.014 452.9 859.851 445.575C857.725 432.25 858.162 425.537 851.122 413.087C848.884 409.125 832.877 386.112 828.387 389.212C825.536 397.312 834.928 404.575 838.979 411.475C844.032 420.075 850.309 434.787 850.934 444.662C851.647 455.775 846.783 453.387 843.331 445.387C837.629 432.175 835.828 420.55 826.399 408.325C825.799 407.55 822.985 403.925 821.96 405.85C817.52 414.25 825.799 421.1 829.2 428.087C835.203 440.425 836.703 453.237 837.191 466.712C836.278 467.362 834.89 468.15 834.24 468.675C831.589 468.887 831.201 468.662 830.351 466.187C829.025 462.362 828.9 456.525 827.65 452.212C824.811 442.4 819.659 434.1 816.557 424.512C813.619 423.887 810.93 426.937 810.943 429.725C810.98 434.45 817.308 449.675 818.833 456.1C819.809 460.175 822.948 472.75 822.497 476.012C822.047 479.275 819.084 479.15 816.97 477.587C812.781 474.487 810.092 452.887 807.466 446.85C806.941 445.637 805.065 443.225 803.802 444.15C799.05 447.637 809.079 486.087 809.68 493.212C810.843 506.925 804.29 516.712 791.009 520.187C773.902 524.675 756.37 517.925 739.963 513.812C725.682 510.237 713.777 504.987 698.495 507.2C695.069 507.7 685.227 511.325 685.04 515.237C684.765 520.725 696.582 535.212 699.896 540.625C701.547 543.337 701.734 546.6 703.648 549.15C704.911 576 693.756 610.862 707.061 635.537C711.138 643.087 738.237 671.937 712.476 669.875C693.118 652.25 682.801 632.112 678.399 606.287C674.76 584.95 676.549 554.175 664.206 536.075C663.181 534.562 658.204 529.162 656.803 528.75C646.461 525.687 622.501 537.062 609.746 538.237C577.332 541.225 541.342 520.875 507.753 518.75C461.096 515.787 413.013 540.275 368.819 529.062C338.982 521.487 313.346 500.762 284.171 491C245.605 478.087 206.101 489.075 165.584 483.887C164.096 483.7 161.67 482.462 160.682 484.387C142.374 473.775 125.917 467.562 111.199 450.925C92.3658 429.625 92.0281 414.987 61.7654 403.187C45.0709 396.675 22.0612 395.4 25.2751 371.125C28.1263 349.612 49.6979 332.187 67.4053 322.462C71.6071 320.15 93.0661 311.85 93.9164 310.675C97.7931 305.337 72.3199 304.737 70.9193 303.75C63.9538 298.825 74.996 295.037 79.723 294.962C101.507 294.612 115.888 321.062 128.756 335.237C219.194 434.937 384.351 445.1 510.667 442.162C576.694 440.625 645.136 436.775 710.988 444.175C733.223 446.675 768.425 459.225 787.108 443.687C798.612 434.112 824.636 384.387 828.65 369.4C830.801 361.375 830.726 349.062 828.338 341.112H828.362Z" fill="#25AF99"/>
<path d="M712.501 669.9C701.046 668.975 682.714 648.45 677.599 638.537C668.008 619.937 667.395 596.737 660.504 577.112C656.465 565.612 649.362 555.512 644.66 544.35C621.851 551.525 600.867 558.175 576.469 557.075C533.088 555.112 494.547 545.975 449.366 546.237C447.99 544.837 436.173 544.837 435.61 545.262C435.447 545.387 435.71 546.675 435.61 547.225C415.564 547.975 397.694 550.662 377.31 548.075C331.991 542.325 295.851 517.387 251.195 510.237C224.221 505.912 200.399 507.412 174.75 494.4C169.336 491.65 165.021 486.925 160.694 484.412C161.695 482.475 164.108 483.712 165.597 483.912C206.114 489.087 245.618 478.112 284.184 491.025C313.359 500.8 338.994 521.512 368.832 529.087C413.025 540.312 461.108 515.812 507.765 518.775C541.354 520.912 577.344 541.25 609.758 538.262C622.513 537.087 646.474 525.712 656.815 528.775C658.216 529.187 663.193 534.587 664.218 536.1C676.561 554.212 674.773 584.975 678.412 606.312C682.814 632.137 693.131 652.275 712.489 669.9H712.501Z" fill="#8ECCC1"/>
<path d="M488.645 35.8875C492.534 42.625 495.06 45.525 492.059 53.5375C487.169 66.6125 465.122 65.9 454.293 61.875C442.638 57.55 424.043 44.3625 431.696 30C451.267 30.0875 469.512 32.4 488.645 35.8875Z" fill="#25AF99"/>
<path d="M634.944 97.7246C633.255 103.587 632.505 106.725 625.64 107.562C610.108 109.462 592.351 99.1871 580.933 89.3996C572.93 82.5371 558.149 69.7121 565.239 58.4746C596.302 70.9496 608.27 78.5246 634.956 97.7371L634.944 97.7246Z" fill="#25AF99"/>
<path d="M358.065 37.8496C369.295 56.9996 339.457 70.3621 324.688 73.6746C311.783 76.5621 288.123 74.3871 294.251 55.5121C316.197 46.6871 334.968 42.3371 358.065 37.8496Z" fill="#25AF99"/>
<path d="M182.316 129.125C196.309 113.838 204.976 104.875 222.57 92.8125C236.451 96.1375 220.745 114.988 214.742 119.825C207.489 125.675 191.107 134.925 182.316 129.125Z" fill="#25AF99"/>
<path d="M252.371 120.637C267.039 106.362 305.918 95.5 319.611 116.037C341.258 148.512 279.532 183.125 255.459 166.425C240.115 155.775 239.19 133.462 252.383 120.637H252.371Z" fill="#25AF99"/>
<path d="M350.949 167.662C368.657 165.337 395.23 174 397.319 194.4C401.546 235.612 348.448 245.812 326.139 217.462C310.095 197.062 327.715 170.712 350.949 167.662Z" fill="#25AF99"/>
<path d="M435.085 121.713C417.94 138.663 376.56 137.125 368.382 111.463C364.443 99.1125 364.855 87.15 376.385 79.25C387.265 71.7875 401.796 72.0375 414.376 74.325C436.598 78.35 453.542 103.475 435.085 121.725V121.713Z" fill="#25AF99"/>
<path d="M467.811 166.7C485.181 164.638 502.963 175.125 509.041 191.675C523.284 230.363 475.377 247.25 450.329 217.975C433.834 198.7 441.2 169.863 467.811 166.7Z" fill="#25AF99"/>
<path d="M568.903 196.1C585.66 193.275 597.891 201.038 608.458 213.013C619.212 225.2 626.39 240.038 614.723 254.663C592.438 282.588 541.517 242.9 554.247 208.938C556.386 203.225 562.801 197.138 568.903 196.1Z" fill="#25AF99"/>
<path d="M509.066 87.2247C523.922 85.9372 536.327 91.8747 547.47 101.237C558.837 110.8 569.616 130.225 554.91 141.887C530.625 161.15 468.274 123.9 490.083 95.7372C494.935 89.4747 501.488 87.8747 509.053 87.2247H509.066Z" fill="#25AF99"/>
<path d="M262.475 254.4C254.559 261.562 237.127 268.862 226.785 264.762C206.639 256.75 210.928 230.1 223.521 216.937C257.51 181.412 299.053 221.325 262.475 254.4Z" fill="#25AF99"/>
<path d="M416.74 254.025C449.266 249.25 465.573 286.7 439.474 307.175C428.032 316.15 413.876 315.737 401.921 307.587C379.661 292.412 393.142 257.487 416.74 254.025Z" fill="#25AF99"/>
<path d="M622.926 138.213C643.522 135.488 675.686 163.363 674.26 184.613C673.222 200 656.54 203.388 644.085 198.988C632.418 194.863 609.796 175.15 607.682 162.75C605.694 151.113 610.171 139.9 622.926 138.213Z" fill="#25AF99"/>
<path d="M695.582 234.4C712.014 231.987 725.469 242.687 732.647 256.7C738.425 267.987 739.463 286.25 725.657 291.95C693.493 305.225 655.127 240.337 695.569 234.4H695.582Z" fill="#25AF99"/>
<path d="M308.719 264.8C332.542 261.012 344.859 282.437 334.03 302.85C318.473 332.2 271.478 319.187 283.671 285.875C287.148 276.387 298.665 266.4 308.719 264.8Z" fill="#25AF99"/>
<path d="M523.76 275.612C559.112 270.8 570.692 321.55 539.766 327.925C502.701 335.562 486.169 280.725 523.76 275.612Z" fill="#25AF99"/>
<path d="M184.017 163.712C201.749 160.35 208.527 175.162 203.688 190.237C198.848 205.312 176.426 227.275 159.694 222.875C150.453 220.45 148.752 208.287 149.965 200.337C151.616 189.525 173.225 165.75 184.017 163.712Z" fill="#25AF99"/>
<path d="M627.816 295.225C642.772 292.7 657.616 302.162 664.206 315.3C673.41 333.662 659.391 348.087 640.446 345.912C628.629 344.55 613.797 329.862 612.472 317.95C611.309 307.6 616.949 297.062 627.816 295.225Z" fill="#25AF99"/>
<path d="M461.909 348.237C478.916 345.737 490.971 356.575 488.57 373.9C487.594 380.987 478.24 389.725 471.237 390.925C440.124 396.287 432.884 352.487 461.909 348.237Z" fill="#25AF99"/>
<path d="M576.757 356.075C586.773 354.55 603.33 361.962 604.493 373.012C606.707 393.937 578.708 400.762 564.302 390.625C547.607 378.862 560.4 358.575 576.744 356.087L576.757 356.075Z" fill="#25AF99"/>
<path d="M352.888 340.363C359.953 338.913 368.244 340.95 373.797 345.513C381.825 352.125 382.2 367.075 374.772 374.013C358.403 389.313 329.69 371.2 341.17 350.238C342.934 347.025 349.299 341.088 352.888 340.363Z" fill="#25AF99"/>
<path d="M195.797 287.375C222.37 283.075 225.847 325.838 199.448 326.425C173.05 327.013 173.788 290.938 195.797 287.375Z" fill="#25AF99"/>
<path d="M253.734 336.437C268.052 334 281.07 343.512 277.093 358.812C271.566 380.037 237.727 374.025 240.253 350.437C241.016 343.275 246.693 337.65 253.734 336.45V336.437Z" fill="#25AF99"/>
<path d="M689.667 359.988C704.573 357.238 719.017 367.85 713.239 383.55C705.498 404.563 664.194 391.713 678.95 367.913C681.126 364.4 685.54 360.75 689.679 359.988H689.667Z" fill="#25AF99"/>
<path d="M148.664 247.125C168.898 242.875 170.336 281.437 147.902 276.887C132.32 273.725 133.245 250.362 148.664 247.125Z" fill="#25AF99"/>
</g>
</g>
<defs>
<clipPath id="clip0_504_11431">
<rect width="669" height="516" fill="white"/>
</clipPath>
<clipPath id="clip1_504_11431">
<rect width="863" height="640" fill="white" transform="translate(25 30)"/>
</clipPath>
</defs>
</svg>
