<svg width="669" height="516" viewBox="0 0 669 516" fill="none" xmlns="http://www.w3.org/2000/svg">
<g clip-path="url(#clip0_490_496)">
<rect width="669" height="516" fill="#D9D9D9" fill-opacity="0.6"/>
<g clip-path="url(#clip1_490_496)">
<path d="M619.255 315.54C623.667 316.524 627.634 318.37 632.369 318.788C655.412 320.769 677.754 296.862 701.891 295.447C724.273 294.126 711.348 318.006 711.483 329.327C711.658 343.774 727.862 356.832 740.031 362.466C735.619 364.581 729.588 361.603 724.934 361.212L667.919 341.523C668.297 342.318 669.97 343.801 670.644 344.286C682.935 352.938 721.844 368.732 726.944 380.147C728.131 382.788 728.684 385.713 727.457 388.435C726.701 390.106 723.005 393.34 721.359 394.486C713.669 399.877 702.444 404.337 693.985 409.863C643.135 443.123 616.975 508.417 615.923 567.714C615.856 571.864 615.775 576.137 615.923 580.274C616.786 605.03 622.79 631.269 633.381 653.735C637.307 662.05 659.419 692.817 635.013 689.798C619.201 687.844 585.783 665.244 572.049 655.514C550.463 640.204 529.632 623.412 510.245 605.408C506.413 601.85 502.231 598.117 498.507 594.519C457.534 554.938 423.98 509.252 387.796 465.507C383.897 460.791 380.066 455.966 376.059 451.263C357.076 429.026 346.445 413.879 317.357 403.515C319.462 401.615 318.666 400.887 321.945 400.928C352.611 401.319 375.384 433.514 393.247 454.618C401.625 464.524 407.359 471.68 415.157 482.164C443.772 520.627 477.744 557.148 514.427 588.252C522.144 594.788 529.902 601.567 538.347 607.065L523.25 588.643C503.337 566.15 482.061 544.682 463.294 521.193C425.37 473.715 396.026 417.679 346.62 380.551C341.129 376.427 326.842 370.026 326.518 362.883C325.965 350.66 342.762 342.628 342.141 334.38C341.777 329.529 337.203 331.16 334.1 331.887C320.514 335.054 301.276 348.41 288.823 334.407C280.202 324.718 284.708 313.883 282.725 302.805C278.853 281.135 266.657 281.539 250.818 272.685C234.911 263.79 231.43 253.818 250.265 245.624C273.834 235.368 324.629 234.209 350.465 236.824C421.12 243.966 488.321 267.618 554.308 292.078C575.934 300.096 597.075 310.608 619.269 315.567L619.255 315.54ZM335.517 257.146C330.835 251.985 323.955 254.68 326.99 261.904C330.026 269.127 341.521 263.777 335.517 257.146ZM381.671 257.914C368.611 260.812 389.928 280.622 399.75 278.52C402.65 277.9 405.457 273.709 405.362 270.812C405.052 261.621 389.415 256.203 381.671 257.928V257.914ZM476.475 286.862C481.764 281.566 470.607 270.69 463.025 274.679C454.026 279.423 470.431 292.913 476.475 286.862ZM306.969 277.119C302.598 278.601 309.586 290.285 314.47 286.296C319.03 282.563 312.177 275.353 306.969 277.119ZM346.445 286.404C336.65 288.614 342.829 307.535 352.327 309.489C361.825 311.443 366.574 307.414 364.928 297.738C363.593 289.867 354.027 284.692 346.445 286.417V286.404ZM539.373 305.285C547.117 297.509 523.48 283.884 519.216 293.991C515.978 301.659 533.288 311.403 539.373 305.285ZM433.357 311.888C440.157 318.303 458.883 322.4 457.331 308.505C455.995 296.538 429.404 289.018 428.918 301.794C428.81 304.476 431.401 310.055 433.357 311.888ZM409.302 311.646C403.433 305.689 389.429 308.236 394.286 319.529C398.549 329.448 418.935 321.416 409.302 311.646ZM502.096 321.969C508.99 328.276 519.216 320.473 510.528 314.813C503.135 310.001 496.456 316.794 502.096 321.969ZM590.505 319.125C587.281 315.877 577.931 316.066 580.211 323.128C583.031 331.874 597.291 325.944 590.505 319.125ZM544.864 329.179C541.653 333.127 545.862 338.989 549.37 341.361C557.64 346.981 573.722 345.674 564.737 333.545C561.269 328.869 548.925 324.179 544.864 329.179ZM473.656 339.299C466.519 353.773 496.429 360.714 500.382 352.21C506.98 338.006 478.014 330.486 473.656 339.299ZM666.637 340.674V341.51C667.177 341.227 667.177 340.957 666.637 340.674ZM369.529 345.903C368.288 347.143 368.288 350.916 368.665 352.641C370.136 359.299 387.607 363.8 386.056 352.884C385.111 346.186 373.333 342.076 369.529 345.903ZM621.05 344.973C620.092 345.579 619.687 351.064 620.51 352.412C621.562 354.151 627.539 355.673 629.347 353.665C633.583 348.949 624.8 342.642 621.063 344.973H621.05ZM422.766 347.547C421.43 347.844 420.054 348.787 419.258 349.905C412.58 359.218 436.946 372.034 443.475 360.7C449.641 350.013 430.456 345.836 422.766 347.547ZM593.082 362.681C586.822 363.315 584.717 365.39 585.905 371.886C587.672 381.535 610.972 383.678 612.523 375.403C614.318 365.808 600.206 361.954 593.069 362.681H593.082ZM530.94 367.654C528.229 368.436 526.326 372.802 526.137 375.457C525.126 389.419 548.021 396.076 552.203 385.551C556.385 375.026 540.411 364.905 530.94 367.654ZM665.976 370.134C663.265 370.565 660.944 373.557 661.106 376.266C661.376 380.929 672.978 385.47 676.689 381.697C681.37 376.926 670.401 369.433 665.99 370.134H665.976ZM478.121 381.05C463.942 384.203 478.54 408.825 491.707 401.332C503.445 394.648 489.508 378.53 478.121 381.05ZM433.64 409.108C440.615 402.949 434.396 393.974 427.771 390.78C418.166 386.144 409.895 386.656 412.297 399.54C413.821 407.747 427.259 414.755 433.654 409.108H433.64ZM648.397 407.491C655.831 400.16 626.568 392.532 632.45 404.984C634.258 408.798 646.009 409.836 648.397 407.491ZM585.459 401.157C582.302 402.087 581.83 405.806 582.721 408.569C584.69 414.66 605.278 421.345 602.27 409.984C600.853 404.647 590.721 399.594 585.459 401.157ZM556.089 438.42C566.72 426.776 537.767 410.415 529.47 419.188C519.985 429.215 548.479 446.748 556.089 438.42ZM471.403 432.166C463.901 433.851 466.681 443.406 470.377 447.907C483.653 464.065 502.514 451.276 488.456 437.395C484.408 433.406 477.056 430.9 471.403 432.166ZM587.146 448.904C581.776 450.104 580.602 456.909 584.434 460.481C589.871 465.561 603.889 465.602 602.445 455.912C601.595 450.238 591.881 447.84 587.146 448.904ZM531.79 469.86C521.442 472.205 529.268 487.973 540.708 487.205C546.402 486.827 551.137 481.383 548.007 475.911C545.579 471.68 536.377 468.809 531.79 469.86ZM489.859 485.776C481.548 488.215 488.361 504.819 500.207 501.139C510.11 498.053 501.219 482.447 489.859 485.776ZM572.926 502.555C562.645 503.134 563.725 517.77 573.479 517.379C585.365 516.907 582.505 502.015 572.926 502.555ZM537.754 534.898C539.4 532.203 536.539 527.5 534.003 525.95C523.169 519.306 518.285 536.852 531.615 536.798C532.829 536.798 537.335 535.599 537.754 534.898ZM559.07 561.204C553.862 566.433 564.305 578.818 569.728 573.953C576.285 568.078 563.725 556.528 559.07 561.204Z" fill="#4BAFA1"/>
<path d="M219.207 235.948C236.557 184.508 256.214 133.351 288.135 89.0801C308.102 61.3993 337.5 27.034 366.561 9.08325C373.266 4.93246 393.409 -8.27457 392.883 7.66821C371.175 75.4284 395.945 146.194 446.471 193.658C490.493 235.018 554.294 278.628 607.235 307.859C609.258 308.977 611.984 310.365 613.387 312.198C554.712 283.493 481.94 256.985 418.827 239.721C352.3 221.528 286.341 218.859 219.207 235.961V235.948ZM347.524 104.416C346.512 107.503 348.685 114.443 352.557 112.422C356.779 110.225 352.111 102.624 347.524 104.416ZM314.592 123.055C304.352 124.968 301.95 143.418 316.076 142.164C325.749 141.302 330.242 120.13 314.592 123.055ZM345.271 151.921C354.176 161.975 366.547 144.267 356.739 137.542C347.565 131.248 338.809 144.631 345.271 151.921ZM294.085 165.317C297.781 168.336 302.814 164.684 300.749 159.926C297.026 151.342 287.568 159.98 294.085 165.317ZM373.779 170.883C367.815 176.327 374.251 189.629 383.506 184.359C394.879 177.891 381.901 163.457 373.779 170.883ZM326.343 169.913C316.103 171.611 315.55 190.424 325.277 191.556C343.194 193.645 338.31 167.918 326.343 169.913ZM277.693 192.567C265.078 195.019 268.802 215.423 281.727 210.854C293.113 206.825 289.106 190.356 277.693 192.567ZM369.124 204.345C366.763 204.669 362.419 206.03 361.367 208.321C356.779 218.307 386.933 229.102 384.477 210.356C383.681 204.224 374.008 203.671 369.138 204.332L369.124 204.345ZM416.897 205.113C411.204 205.989 410.853 214.291 416.897 215.665C429.714 218.576 424.776 203.9 416.897 205.113Z" fill="#4BAFA1"/>
<path d="M740.017 362.452C767.877 375.336 792.674 379.406 811.643 406.925C859.012 475.642 769.321 530.855 715.058 551.569C683.232 563.711 648.883 571.851 615.883 580.26C615.734 576.11 615.815 571.851 615.883 567.7C657.935 554.56 702.457 544.507 741.407 523.443C788.627 497.919 834.876 448.001 772.977 406.17C759.701 397.195 742.891 392.249 727.43 388.421C728.658 385.699 728.104 382.775 726.917 380.133C721.817 368.732 682.908 352.924 670.617 344.272C669.943 343.801 668.256 342.305 667.892 341.51L724.907 361.199C729.575 361.59 735.592 364.568 740.004 362.452H740.017Z" fill="#7DCCC1"/>
<path d="M376.032 451.249C380.039 455.953 383.87 460.777 387.769 465.494C335.598 469.86 281.808 464.834 231.08 452.368C193.614 443.163 129.584 426.021 101.13 400.389C100.064 399.418 99.9698 397.922 97.5953 398.475C101.994 397.68 106.608 395.753 111.019 395.119C113.461 399.445 119.613 402.895 123.877 405.321C154.691 422.841 202.532 433.838 237.502 440.94C283.305 450.252 329.216 454.713 376.045 451.249H376.032Z" fill="#45B6AC"/>
<path d="M198.241 396.804C195.084 397.235 192.643 400.146 188.379 400.78C165.43 404.135 138.744 391.157 111.019 395.133C106.608 395.766 102.007 397.693 97.5953 398.489C88.9473 400.052 81.2437 402.181 73.2703 396.817C73.4996 395.82 72.7036 392.761 73.7559 392.613C77.4391 392.101 81.1223 392.235 85.0483 391.4C100.82 388.071 114.001 383.57 130.771 384.203C148.984 384.891 166.968 392.721 184.413 393.448C190.12 393.691 197.149 389.769 198.241 396.817V396.804Z" fill="#4BAFA1"/>
<path d="M262.812 385.915C260.977 389.432 249.428 405.281 251.087 407.666C254.703 412.868 267.331 394.136 268.829 391.521C270.016 389.446 271.244 387.936 272.026 386.75L282.927 389.257C281.834 391.696 280.958 394.109 279.716 396.521C278.124 399.607 269.746 409.122 274.549 411.507C279.757 414.094 288.837 397.1 290.469 393.448L300.534 397.64C299.144 400.645 292.128 411.264 292.142 413.178C292.182 417.261 297.404 414.485 299.306 412.747C301.208 411.008 307.94 402.343 308.912 400.146C310.976 401.992 314.551 402.518 317.303 403.502C346.391 413.865 357.036 429.013 376.005 451.249C329.176 454.713 283.278 450.239 237.461 440.94C202.491 433.838 154.651 422.827 123.836 405.321C119.573 402.895 113.421 399.445 110.979 395.119C138.704 391.144 165.376 404.122 188.339 400.766C192.602 400.146 195.044 397.235 198.201 396.79C213.757 394.648 230.176 396.817 245.826 391.993C251.398 390.281 256.713 386.562 262.785 385.888L262.812 385.915Z" fill="#B8E1D5"/>
<path d="M556.089 438.419C548.493 446.735 519.985 429.215 529.47 419.188C537.767 410.415 566.72 426.776 556.089 438.419Z" fill="#7DCCC1"/>
<path d="M530.94 367.654C540.411 364.905 556.601 374.527 552.203 385.551C547.805 396.575 525.126 389.419 526.138 375.457C526.326 372.802 528.229 368.436 530.94 367.654Z" fill="#7DCCC1"/>
<path d="M433.357 311.888C431.401 310.042 428.824 304.476 428.918 301.794C429.404 289.018 455.982 296.538 457.331 308.505C458.883 322.4 440.157 318.303 433.357 311.888Z" fill="#7DCCC1"/>
<path d="M471.403 432.166C477.056 430.9 484.408 433.406 488.456 437.395C502.527 451.276 483.666 464.065 470.377 447.907C466.681 443.406 463.902 433.851 471.403 432.166Z" fill="#7DCCC1"/>
<path d="M473.656 339.299C478.014 330.486 506.98 338.006 500.382 352.21C496.429 360.714 466.519 353.773 473.656 339.299Z" fill="#7DCCC1"/>
<path d="M346.445 286.404C354.027 284.692 363.593 289.854 364.928 297.724C366.574 307.4 361.825 311.43 352.327 309.476C342.829 307.522 336.65 288.601 346.445 286.39V286.404Z" fill="#7DCCC1"/>
<path d="M433.64 409.108C427.245 414.755 413.821 407.747 412.283 399.54C409.882 386.656 418.152 386.144 427.758 390.78C434.382 393.974 440.615 402.949 433.627 409.108H433.64Z" fill="#7DCCC1"/>
<path d="M381.671 257.914C389.415 256.203 405.052 261.607 405.362 270.798C405.457 273.695 402.65 277.887 399.75 278.507C389.928 280.609 368.611 260.798 381.671 257.901V257.914Z" fill="#7DCCC1"/>
<path d="M478.121 381.05C489.508 378.516 503.445 394.648 491.707 401.332C478.54 408.825 463.942 384.203 478.121 381.05Z" fill="#7DCCC1"/>
<path d="M593.082 362.681C600.219 361.953 614.331 365.808 612.537 375.403C610.985 383.691 587.685 381.535 585.918 371.886C584.731 365.39 586.836 363.315 593.096 362.681H593.082Z" fill="#7DCCC1"/>
<path d="M422.766 347.547C430.456 345.836 449.641 350.013 443.475 360.7C436.946 372.034 412.58 359.218 419.258 349.905C420.054 348.8 421.43 347.844 422.766 347.547Z" fill="#7DCCC1"/>
<path d="M544.864 329.178C548.925 324.179 561.256 328.869 564.737 333.545C573.722 345.674 557.64 346.968 549.37 341.361C545.876 338.989 541.666 333.127 544.864 329.178Z" fill="#7DCCC1"/>
<path d="M531.79 469.86C536.378 468.823 545.592 471.68 548.007 475.911C551.137 481.383 546.402 486.827 540.708 487.205C529.268 487.959 521.442 472.205 531.79 469.86Z" fill="#7DCCC1"/>
<path d="M539.373 305.285C533.288 311.403 515.978 301.659 519.216 293.991C523.493 283.884 547.117 297.509 539.373 305.285Z" fill="#7DCCC1"/>
<path d="M587.146 448.904C591.881 447.84 601.595 450.238 602.445 455.912C603.889 465.602 589.871 465.561 584.434 460.481C580.602 456.909 581.79 450.104 587.146 448.904Z" fill="#7DCCC1"/>
<path d="M489.859 485.776C501.232 482.447 510.123 498.053 500.207 501.139C488.348 504.832 481.548 488.215 489.859 485.776Z" fill="#7DCCC1"/>
<path d="M585.459 401.157C590.721 399.607 600.867 404.661 602.27 409.984C605.278 421.331 584.677 414.66 582.721 408.569C581.83 405.806 582.302 402.087 585.459 401.157Z" fill="#7DCCC1"/>
<path d="M409.302 311.646C418.948 321.416 398.549 329.448 394.286 319.529C389.429 308.236 403.419 305.702 409.302 311.646Z" fill="#7DCCC1"/>
<path d="M369.529 345.903C373.333 342.089 385.111 346.186 386.056 352.884C387.607 363.8 370.136 359.299 368.665 352.641C368.288 350.916 368.288 347.143 369.529 345.903Z" fill="#7DCCC1"/>
<path d="M572.926 502.555C582.505 502.016 585.365 516.907 573.479 517.379C563.725 517.77 562.659 503.121 572.926 502.555Z" fill="#7DCCC1"/>
<path d="M476.476 286.862C470.431 292.927 454.026 279.423 463.025 274.679C470.607 270.69 481.764 281.552 476.476 286.862Z" fill="#7DCCC1"/>
<path d="M665.976 370.134C670.402 369.447 681.357 376.926 676.675 381.697C672.965 385.47 661.362 380.929 661.092 376.266C660.931 373.543 663.251 370.552 665.963 370.134H665.976Z" fill="#7DCCC1"/>
<path d="M648.397 407.491C646.009 409.836 634.258 408.798 632.45 404.984C626.554 392.532 655.817 400.16 648.397 407.491Z" fill="#7DCCC1"/>
<path d="M502.096 321.969C496.443 316.794 503.135 310.001 510.528 314.812C519.23 320.486 508.99 328.276 502.096 321.969Z" fill="#7DCCC1"/>
<path d="M590.505 319.125C597.291 325.944 583.031 331.874 580.211 323.128C577.931 316.066 587.281 315.877 590.505 319.125Z" fill="#7DCCC1"/>
<path d="M335.517 257.146C341.521 263.777 329.945 268.898 326.99 261.904C324.036 254.909 330.835 251.985 335.517 257.146Z" fill="#7DCCC1"/>
<path d="M621.05 344.973C624.787 342.642 633.57 348.962 629.334 353.665C627.539 355.673 621.549 354.151 620.497 352.412C619.687 351.064 620.078 345.58 621.036 344.973H621.05Z" fill="#7DCCC1"/>
<path d="M306.969 277.119C312.177 275.353 319.03 282.563 314.47 286.296C309.6 290.285 302.598 278.601 306.969 277.119Z" fill="#7DCCC1"/>
<path d="M666.637 340.674C667.177 340.957 667.177 341.227 666.637 341.51V340.674Z" fill="#45B6AC"/>
<path d="M613.387 312.185C615.397 313.168 617.677 313.788 619.255 315.54C597.062 310.581 575.921 300.069 554.294 292.051C488.321 267.591 421.12 243.939 350.452 236.797C324.616 234.182 273.821 235.341 250.251 245.597C231.417 253.791 234.898 263.777 250.804 272.658C266.643 281.512 278.853 281.108 282.711 302.778C284.695 313.869 280.189 324.691 288.81 334.38C301.262 348.396 320.501 335.027 334.087 331.86C337.19 331.133 341.763 329.488 342.128 334.353C342.748 342.601 325.952 350.62 326.505 362.856C326.828 370.012 341.116 376.4 346.607 380.524C395.999 417.652 425.356 473.688 463.281 521.166C482.047 544.655 503.323 566.123 523.237 588.616L538.334 607.038C529.888 601.54 522.131 594.761 514.413 588.225C477.717 557.121 443.759 520.6 415.143 482.137C407.345 471.666 401.625 464.51 393.233 454.591C375.371 433.474 352.597 401.292 321.931 400.901C318.666 400.86 319.462 401.588 317.344 403.488C314.605 402.504 311.016 401.979 308.952 400.133C312.258 392.734 315.577 377.546 314.821 369.541C314.578 367.007 313.688 363.827 311.03 366.603C309.438 368.274 306.335 382.707 304.986 386.535C303.92 389.567 301.883 394.728 300.547 397.599L290.483 393.408C292.344 389.217 295.488 380.578 296.257 376.144C296.85 372.789 299.077 357.951 292.695 359.999C290.348 360.754 289.241 371.967 288.391 374.985C287.002 379.891 284.991 384.567 282.927 389.217L272.026 386.71C273.254 384.837 277.598 366.522 277.814 363.544C278.07 360.013 277.032 357.102 273.672 360.296C271.608 362.25 265.294 381.077 262.798 385.874C256.727 386.548 251.411 390.254 245.839 391.979C230.189 396.804 213.77 394.634 198.215 396.777C197.122 389.729 190.093 393.65 184.386 393.408C166.941 392.68 148.957 384.85 130.744 384.163C113.974 383.529 100.793 388.017 85.0213 391.359C81.0953 392.195 77.4121 392.06 73.729 392.572C72.6901 392.72 73.4726 395.78 73.2433 396.777C55.9338 385.106 69.8299 361.387 78.4375 348.76C88.8124 333.545 99.8619 317.926 110.628 303.007C135.439 268.642 178.477 246.298 219.18 235.934C286.314 218.819 352.273 221.501 418.8 239.694C481.913 256.958 554.685 283.466 613.36 312.171L613.387 312.185ZM190.416 316.686C170.125 316.47 166.752 351.226 187.745 353.234C211.949 355.552 212.259 316.915 190.416 316.686ZM95.0859 369.986C96.3946 371.333 102.587 366.01 103.869 364.945C110.749 359.204 116.794 351.226 123.593 345.27C126.292 342.898 141.51 332.292 141.942 330.89C142.225 329.933 142.252 328.936 141.699 328.06C140.336 326.119 134.171 328.788 132.255 329.623C121.057 334.515 100.766 354.272 96.0168 365.471C95.3692 366.994 94.8161 368.261 95.0994 369.986H95.0859Z" fill="#7DCCC1"/>
<path d="M190.416 316.686C212.273 316.915 211.949 355.552 187.745 353.234C166.739 351.226 170.125 316.47 190.416 316.686ZM184.575 326.604C175.333 328.734 176.858 342.844 186.288 344.676C200.387 347.412 201.318 322.737 184.575 326.604Z" fill="#FFF9ED"/>
<path d="M95.0859 369.986C94.8026 368.261 95.3692 366.994 96.0033 365.471C100.739 354.258 121.03 334.502 132.241 329.623C134.157 328.788 140.323 326.119 141.685 328.06C142.239 328.936 142.225 329.933 141.928 330.89C141.51 332.292 126.292 342.898 123.58 345.27C116.794 351.226 110.749 359.204 103.855 364.945C102.574 366.01 96.3811 371.333 95.0724 369.986H95.0859Z" fill="#4BAFA1"/>
<path d="M290.496 393.448C288.864 397.114 279.784 414.108 274.576 411.507C269.773 409.108 278.151 399.607 279.743 396.521C280.985 394.109 281.861 391.696 282.954 389.257C285.018 384.608 287.015 379.931 288.418 375.026C289.282 371.994 290.375 360.794 292.722 360.04C299.104 357.991 296.877 372.829 296.284 376.185C295.501 380.619 292.371 389.257 290.509 393.448H290.496Z" fill="#4BAFA1"/>
<path d="M272.04 386.75C271.271 387.936 270.029 389.446 268.842 391.521C267.345 394.136 254.703 412.868 251.101 407.666C249.442 405.267 260.99 389.432 262.825 385.915C265.321 381.104 271.635 362.29 273.699 360.336C277.045 357.156 278.097 360.067 277.841 363.584C277.625 366.563 273.294 384.864 272.053 386.75H272.04Z" fill="#4BAFA1"/>
<path d="M300.561 397.64C301.883 394.769 303.92 389.607 304.999 386.575C306.348 382.748 309.451 368.301 311.043 366.643C313.688 363.867 314.592 367.034 314.835 369.581C315.577 377.573 312.258 392.761 308.966 400.173C307.981 402.37 301.303 411.008 299.36 412.774C297.417 414.539 292.236 417.288 292.196 413.205C292.169 411.291 299.198 400.672 300.588 397.666L300.561 397.64Z" fill="#4BAFA1"/>
<path d="M326.343 169.913C338.31 167.918 343.194 193.658 325.277 191.556C315.55 190.424 316.103 171.611 326.343 169.913Z" fill="#7DCCC1"/>
<path d="M369.124 204.345C373.995 203.685 383.668 204.237 384.464 210.369C386.919 229.115 356.766 218.32 361.353 208.334C362.405 206.03 366.75 204.669 369.111 204.359L369.124 204.345Z" fill="#7DCCC1"/>
<path d="M314.592 123.055C330.242 120.13 325.749 141.302 316.076 142.164C301.95 143.418 304.365 124.968 314.592 123.055Z" fill="#7DCCC1"/>
<path d="M277.693 192.567C289.093 190.356 293.113 206.825 281.727 210.854C268.802 215.423 265.078 195.019 277.693 192.567Z" fill="#7DCCC1"/>
<path d="M345.271 151.921C338.809 144.631 347.565 131.235 356.739 137.542C366.547 144.28 354.176 161.975 345.271 151.921Z" fill="#7DCCC1"/>
<path d="M373.779 170.883C381.914 163.457 394.893 177.904 383.506 184.359C374.237 189.629 367.815 176.314 373.779 170.883Z" fill="#7DCCC1"/>
<path d="M416.897 205.113C424.776 203.9 429.714 218.576 416.897 215.665C410.853 214.291 411.204 205.989 416.897 205.113Z" fill="#7DCCC1"/>
<path d="M294.085 165.317C287.568 159.98 297.026 151.355 300.749 159.926C302.814 164.684 297.768 168.336 294.085 165.317Z" fill="#7DCCC1"/>
<path d="M347.524 104.416C352.111 102.611 356.779 110.225 352.557 112.421C348.685 114.443 346.512 107.503 347.524 104.416Z" fill="#7DCCC1"/>
<path d="M184.575 326.605C201.318 322.737 200.387 347.412 186.288 344.677C176.858 342.844 175.333 328.734 184.575 326.605Z" fill="#1D8982"/>
</g>
</g>
<defs>
<clipPath id="clip0_490_496">
<rect width="669" height="516" fill="white"/>
</clipPath>
<clipPath id="clip1_490_496">
<rect width="760" height="690" fill="white" transform="translate(65)"/>
</clipPath>
</defs>
</svg>
