<svg width="669" height="516" viewBox="0 0 669 516" fill="none" xmlns="http://www.w3.org/2000/svg">
<g clip-path="url(#clip0_504_7869)">
<rect width="669" height="516" fill="#D9D9D9" fill-opacity="0.6"/>
<g clip-path="url(#clip1_504_7869)">
<path d="M487.035 177.974C480.697 151.937 452.36 140.036 452.889 110.4C453.242 90.5019 474.971 35.6174 431.583 53.5398C397.095 67.7813 346.358 125.535 323.958 156.441C321.348 160.039 311.765 176.974 310.319 178.044C306.239 181.078 281.499 187.817 274.009 191.063C238.169 206.598 206.551 231.27 175.874 255.049C144.726 279.181 108.745 306.559 79.9843 333.031C73.3644 339.123 65.3804 346.755 60.6301 354.211C57.4553 355.704 51.823 362.572 51.2351 365.959C49.1069 378.237 62.2762 384.634 70.8363 390.455C72.4002 391.526 78.1853 392.608 73.0116 394.195C62.9582 397.276 48.0956 394.654 52.3992 411.788C55.1389 422.666 64.428 429.911 71.1891 437.637C84.2173 452.514 95.7758 462.945 109.956 476.41C156.59 520.699 195.863 554.18 254.819 582.357C295.162 601.632 384.185 638.841 427.173 632.138C459.509 627.104 463.354 587.837 495.818 577.43C500.357 575.971 510.752 572.408 514.103 575.63C528.06 597.481 542.758 624.082 562.829 640.852C590.285 663.808 606.7 651.06 628.594 629.151C654.733 602.996 711.384 530.66 714.9 494.603C716.311 480.173 710.632 466.614 693.77 469.354C705.74 456.759 725.636 453.301 742.168 456.782C751.269 458.699 759.323 464.768 767.777 465.838C771.599 473.846 781.77 479.08 789.025 483.948C811.342 498.931 862.738 527.978 889.218 525.603C909.642 523.768 920.46 501.036 927.75 484.254C941.742 452.043 946.646 413.376 942.659 378.46C940.708 361.361 938.967 346.049 919.778 342.604C892.051 337.617 845.712 346.978 818.291 354.822C807.356 357.95 789.895 366.547 780.7 368.335C734.925 377.202 709.585 334.43 684.375 304.889C708.739 303.689 704.471 277.241 701.625 260.024C694.923 219.416 658.683 115.845 622.973 94.3239C615.225 89.6552 611.897 88.6908 602.808 91.1252C578.162 97.7226 524.991 155.441 512.598 178.315C511.61 180.138 510.117 181.443 510.528 183.877C508.612 183.324 506.671 182.772 504.649 182.701C504.708 182.148 504.625 181.76 504.049 181.549C498.382 180.337 492.679 179.22 487.035 178.009V177.974Z" fill="#FEFCF4"/>
<path d="M487.035 177.974C480.039 176.468 471.538 174.504 463.965 173.446C418.037 167.013 368.358 168.319 322.712 175.763C321.971 182.854 321.419 190.04 319.878 197.013C313.329 226.672 303.064 236.127 324.946 264.305C362.655 312.839 412.969 319.036 463.213 283.979C488.446 266.363 512.445 239.714 510.505 206.774C510.317 203.552 507.977 186.641 507.048 184.606C506.378 183.148 504.59 183.948 503.45 183.83C503.603 183.289 504.637 182.854 504.649 182.678C506.671 182.748 508.6 183.289 510.528 183.854C518.007 186.029 525.426 188.534 532.834 190.91C532.693 189.369 533.269 188.099 533.974 186.782C546.826 163.038 562.1 137.93 581.596 119.255C583.066 120.643 585.041 123.007 584.006 125.077L540.042 192.827C539.419 195.026 540.253 194.144 541.394 194.685C543.252 195.579 555.751 200.859 556.339 200.306C556.456 197.249 558.479 194.203 560.101 191.721C575.893 167.531 592.202 143.834 609.463 120.69C618.352 118.55 612.779 128.005 610.157 132.533C600.233 149.655 585.605 168.671 574.47 186.123C572.8 188.734 561.089 203.752 562.23 204.998C568.015 205.716 573.047 209.361 578.103 212.031C578.397 210.479 577.904 209.926 578.797 208.185C586.04 194.097 607.688 165.461 618.129 152.231C621.798 147.586 626.642 143.528 629.323 138.13C634.743 139.001 635.778 140.153 633.168 144.951L583.994 213.254C583.418 214.101 582.971 216.041 583.418 216.7C583.818 217.276 594.259 221.663 596.117 222.462L646.808 165.614L652.699 167.437C653.522 168.201 644.585 180.396 643.268 182.078C635.755 191.733 625.878 202.446 617.506 211.549C613.72 215.665 606.382 221.11 603.325 225.555C602.643 226.543 601.714 226.778 602.185 228.495C607.17 229.518 611.403 237.821 616.553 236.539C630.793 229.095 644.668 209.691 658.143 202.846C661.976 200.894 667.526 200.894 665.033 206.198C663.328 209.82 638.741 229.812 633.779 233.693C630.981 235.881 627.971 238.291 625.066 240.302C623.938 241.079 618.823 241.666 620.974 243.795C621.127 243.948 623.608 243.795 625.102 244.924C627.547 246.806 635.578 255.579 637.989 255.567C648.371 249.805 657.825 240.843 668.337 235.351C672.688 233.082 679.731 229.577 677.144 238.268C675.745 242.948 650.335 256.543 644.82 260.001C643.927 260.553 642.81 259.612 643.315 261.988L659.201 277.841C661.482 278.617 660.565 276.312 661.764 275.524C664.375 273.795 682.953 262.211 684.423 263.764C684.305 265.469 684.752 267.421 684.423 269.044C683.752 272.466 666.997 282.721 662.082 280.792C664.727 281.404 664.057 283.309 664.904 284.391C670.489 291.541 679.037 298.574 684.423 304.877C709.632 334.407 734.972 377.19 780.747 368.323C781.558 372.074 788.178 382.365 791.882 382.259C800.231 379.495 808.544 376.673 817.163 374.779C834.283 371.004 856.483 368.982 874.097 368.276C878.906 368.088 909.442 367.77 911.194 368.876C914.98 371.263 909.795 374.603 906.761 375.05C872.78 380.107 839.656 378.86 805.628 387.915C798.443 389.832 792.635 389.668 797.844 398.817C800.607 403.662 807.638 400.099 811.836 400.005C828.78 399.617 843.501 401.404 860.057 402.392C872.192 403.109 907.772 402.839 916.92 407.79C922.294 410.695 921.459 416.104 915.263 416.61C877.695 413.987 840.315 408.366 802.57 409.436C800.407 409.719 802.923 415.105 802.958 415.998C802.982 416.598 801.148 416.304 800.983 417.057C799.243 425.195 810.66 426.418 816.904 427.923C848.416 435.52 877.26 440.518 907.596 453.525C909.007 454.137 913.181 455.759 913.934 456.336C916.474 458.241 913.287 464.474 909.948 463.051L798.373 430.605L792.576 446.963L895.779 494.144C896.437 496.332 895.461 500.248 892.98 500.636C889.77 501.142 870.64 494.239 866.207 492.58C843.407 484.031 819.914 472.024 798.49 460.44C795.927 459.052 791.294 454.83 789.248 454.313C783.228 452.784 777.196 467.037 767.813 465.861C759.358 464.791 751.316 458.723 742.203 456.806C725.671 453.337 705.776 456.794 693.806 469.378C689.479 470.083 681.612 480.068 678.52 483.796C677.556 484.96 674.299 484.619 676.944 487.1C680.378 490.322 690.243 496.097 692.054 499.93C692.818 501.542 693.241 502.894 691.501 504.07C685.328 508.233 674.216 495.367 669.748 491.91L654.968 504.129C653.968 510.538 680.66 524.25 676.039 531.483C672.805 536.54 661.905 526.05 659.142 523.474C656.814 521.287 649.794 512.161 648.348 511.796C644.185 510.738 636.707 522.451 631.557 522.263L662.74 557.508C660.4 566.716 650.511 557.602 646.208 553.992C637.601 546.783 631.134 537.445 625.066 528.108L605.724 540.526L639.2 580.981C641.469 585.768 636.543 586.92 632.803 583.839C629.264 580.922 620.351 570.867 616.859 566.904C610.792 560.025 605.689 552.134 599.845 545.066C597.164 543.631 584.382 553.204 579.879 552.804C590.92 571.303 602.114 589.919 616.283 606.265C615.154 609.476 612.826 607.253 615.107 612.71C613.237 611.416 610.851 612.804 609.287 612.122C604.583 610.052 585.159 578.453 581.278 571.949C579.761 569.409 575.646 559.401 574.388 558.578C568.991 555.05 556.88 563.494 550.507 563.376C561.654 584.991 576.657 604.137 589.78 624.517C591.92 630.338 589.156 629.703 586.334 633.831C583.795 633.949 565.698 605.289 562.935 600.856C555.88 589.519 547.72 577.053 543.44 564.517L539.936 565.705L550.989 550.346C585.911 492.557 521.111 427.124 461.19 440.554C435.969 446.21 427.714 466.614 410.159 482.326C403.492 488.288 392.898 499.237 383.703 495.203C383.103 492.91 384.667 492.933 385.666 491.898C389.229 488.264 395.332 485.007 399.565 481.173C424.563 458.558 446.116 418.068 448.279 384.176C451.395 335.312 412.193 343.25 380.316 357.315C358.258 367.053 338.068 381.906 319.102 396.524C316.421 391.314 319.761 387.951 320.278 383.035C321.16 374.638 322.007 363.148 321.43 354.834C321.101 350.13 320.96 337.794 314.364 341.874C309.754 344.732 309.319 366.124 308.19 372.121C305.568 386.116 301.747 400.828 295.809 413.776C291.87 422.361 279.712 445.352 274.444 452.325C265.731 463.85 248.752 459.558 252.926 444.905C254.843 438.178 267.859 426.677 272.586 419.926C287.002 399.346 297.008 362.114 289.107 337.817C288.66 336.453 287.731 332.56 285.626 333.113C282.886 334.148 281.158 342.709 280.617 345.732C278.066 359.856 279.347 373.921 274.985 388.268C259.593 438.895 196.78 444.329 153.639 454.877C137.835 458.735 123.514 467.743 109.992 476.434C95.811 462.968 84.2526 452.537 71.2243 437.661C92.2718 432.192 131.874 418.786 120.798 389.844C116.388 378.319 92.3658 363.666 81.2072 358.95C76.3157 356.88 65.1335 352.141 60.6536 354.246C65.3922 346.79 73.3879 339.158 80.0078 333.066C108.769 306.606 144.749 279.228 175.897 255.085C206.575 231.306 238.193 206.633 274.032 191.098C281.522 187.852 306.262 181.114 310.342 178.08C311.788 176.998 321.372 160.075 323.982 156.476C346.382 125.571 397.119 67.8284 431.606 53.5752C474.994 35.6527 453.265 90.549 452.912 110.435C452.383 140.071 480.721 151.972 487.059 178.009L487.035 177.974ZM269.306 284.473C291.294 262.447 262.027 226.084 236.253 244.948C207.257 266.175 243.531 310.275 269.306 284.473Z" fill="#3AB8A2"/>
<path d="M109.968 476.386C123.49 467.696 137.812 458.699 153.615 454.83C196.757 444.281 259.57 438.836 274.961 388.221C279.324 373.874 278.042 359.808 280.594 345.685C281.134 342.662 282.863 334.101 285.603 333.066C287.707 332.513 288.636 336.418 289.083 337.77C296.973 362.078 286.978 399.299 272.563 419.879C267.836 426.629 254.819 438.143 252.903 444.858C248.728 459.511 265.708 463.803 274.42 452.278C279.688 445.304 291.858 422.313 295.785 413.729C301.723 400.781 305.545 386.057 308.167 372.074C309.296 366.077 309.731 344.685 314.34 341.827C320.937 337.746 321.078 350.083 321.407 354.787C321.983 363.101 321.136 374.591 320.255 382.988C319.737 387.903 316.398 391.267 319.079 396.476C338.057 381.859 358.234 367.006 380.293 357.268C412.17 343.203 451.372 335.265 448.256 384.128C446.092 418.021 424.539 458.511 399.541 481.126C395.308 484.96 389.194 488.229 385.643 491.851C384.632 492.886 383.068 492.851 383.679 495.156C392.874 499.189 403.468 488.241 410.135 482.278C427.702 466.567 435.945 446.163 461.167 440.506C521.099 427.076 585.888 492.498 550.965 550.299L539.912 565.658L543.416 564.47C547.696 577.006 555.857 589.472 562.912 600.808C565.675 605.242 583.771 633.901 586.311 633.784C589.133 629.656 591.896 630.279 589.756 624.47C576.622 604.09 561.63 584.944 550.483 563.329C556.856 563.447 568.967 555.003 574.364 558.531C575.623 559.354 579.738 569.362 581.255 571.902C585.135 578.405 604.572 609.993 609.263 612.075C610.815 612.757 613.202 611.369 615.084 612.663C612.802 607.206 615.131 609.429 616.259 606.218C602.091 589.872 590.885 571.255 579.856 552.757C584.359 553.157 597.14 543.584 599.821 545.018C605.677 552.086 610.78 559.977 616.836 566.857C620.328 570.82 629.252 580.887 632.78 583.792C636.507 586.861 641.446 585.72 639.176 580.934L605.7 540.479L625.043 528.06C631.11 537.398 637.577 546.735 646.184 553.944C650.488 557.555 660.365 566.669 662.717 557.461L631.533 522.216C636.684 522.404 644.162 510.691 648.324 511.749C649.771 512.114 656.779 521.24 659.119 523.427C661.87 526.014 672.782 536.504 676.015 531.436C680.636 524.191 653.945 510.479 654.944 504.082L669.725 491.863C674.193 495.32 685.304 508.186 691.478 504.023C693.218 502.847 692.795 501.494 692.03 499.883C690.219 496.049 680.342 490.275 676.921 487.053C674.275 484.572 677.532 484.913 678.496 483.748C681.601 480.02 689.467 470.036 693.782 469.33C710.644 466.59 716.323 480.15 714.912 494.579C711.396 530.648 654.745 602.984 628.606 629.127C606.712 651.024 590.297 663.772 562.841 640.828C542.781 624.058 528.072 597.457 514.115 575.607C510.752 572.384 500.369 575.948 495.83 577.406C463.377 587.814 459.521 627.081 427.185 632.114C384.185 638.805 295.174 601.608 254.831 582.333C195.875 554.156 156.59 520.675 109.968 476.386ZM428.314 363.607C425.892 361.102 397.154 369.863 392.145 371.498C385.078 373.791 375.742 377.131 368.969 380.036C362.197 382.941 326.169 401.169 323.229 404.838C322.371 405.92 322.736 408.06 322.571 408.26C322.23 408.672 318.797 405.544 319.067 408.237C323.829 408.342 320.525 415.152 326.157 412.435C357.787 394.454 391.299 380.142 426.456 370.569C428.984 369.134 428.337 366.088 428.314 363.607ZM422.435 401.204C420.789 401.216 419.225 400.487 417.578 400.663C405.42 401.957 386.372 405.932 374.014 408.578C367.805 409.907 324.57 421.161 323.159 423.501C320.266 428.288 324.488 429.428 328.685 429.146C346.017 427.982 377.894 416.704 396.555 412.317C400.752 411.329 416.873 409.401 418.907 407.625L422.435 401.216V401.204ZM407.031 445.728C407.596 445.058 407.313 440.871 406.631 439.895C405.949 438.919 401.858 438.107 400.376 437.919C385.713 436.108 362.055 439.848 346.593 440.001C343.066 440.036 323.418 436.484 322.5 440.659C321.383 445.74 326.263 446.61 330.214 447.01C348.087 448.809 381.292 448.315 399.565 447.057C400.858 446.963 406.714 446.104 407.031 445.716V445.728ZM382.374 471.812C381.88 471.224 369.734 469.436 367.253 468.731C353.307 464.814 334.635 455.747 321.713 453.137C314.34 451.655 313.141 458.346 318.209 461.381C339.291 468.201 360.339 476.163 382.492 478.738C382.198 477.092 383.079 472.635 382.374 471.8V471.812Z" fill="#80CDBE"/>
<path d="M487.035 177.974C492.679 179.185 498.394 180.302 504.049 181.513C504.626 181.737 504.708 182.113 504.649 182.666C504.626 182.842 503.603 183.289 503.45 183.818C504.59 183.936 506.378 183.136 507.048 184.594C507.977 186.629 510.317 203.54 510.505 206.762C512.433 239.691 488.446 266.351 463.213 283.967C412.981 319.036 362.655 312.839 324.946 264.293C303.064 236.116 313.329 226.66 319.878 197.001C321.419 190.016 321.971 182.83 322.712 175.751C368.358 168.318 418.025 167.001 463.965 173.434C471.549 174.493 480.039 176.456 487.035 177.962V177.974Z" fill="#80CDBE"/>
<path d="M60.6301 354.211C65.11 352.094 76.2922 356.845 81.1837 358.915C92.3424 363.631 116.365 378.284 120.774 389.809C131.85 418.75 92.2483 432.157 71.2009 437.625C64.4281 429.899 55.139 422.655 52.411 411.777C60.8888 415.846 96.4813 408.695 99.1505 400.369C99.6326 398.876 99.8795 395.677 99.1387 394.395C97.5631 391.678 64.2634 378.672 58.2549 375.932C56.938 375.332 54.7157 375.72 53.8455 375.12C51.9289 373.803 53.434 367.57 51.2469 365.959C51.8349 362.572 57.4671 355.704 60.6419 354.211H60.6301Z" fill="#80CDBE"/>
<path d="M51.2351 365.959C53.4222 367.57 51.9171 373.803 53.8337 375.12C54.7038 375.72 56.9379 375.332 58.2431 375.932C64.2516 378.672 97.5513 391.678 99.1269 394.395C99.8677 395.677 99.6208 398.864 99.1387 400.369C96.4695 408.695 60.8887 415.845 52.3992 411.776C48.0956 394.642 62.9465 397.264 73.0116 394.183C78.1735 392.596 72.4002 391.514 70.8363 390.444C62.2762 384.622 49.1069 378.225 51.2351 365.947V365.959Z" fill="#3AB8A2"/>
<path d="M269.306 284.473C243.531 310.287 207.257 266.186 236.253 244.948C262.027 226.073 291.294 262.447 269.306 284.473ZM249.481 251.039C226.717 253.638 238.099 289.448 257.876 278.335C272.034 270.385 263.121 249.487 249.481 251.039Z" fill="#FEFCF4"/>
<path d="M684.387 304.865C679.002 298.562 670.465 291.529 664.868 284.379C664.022 283.297 664.692 281.392 662.046 280.781C666.961 282.709 683.705 272.454 684.387 269.032C684.705 267.409 684.27 265.445 684.387 263.752C682.917 262.188 664.339 273.783 661.729 275.512C660.53 276.3 661.447 278.605 659.166 277.829L643.28 261.976C642.786 259.589 643.903 260.541 644.785 259.989C650.3 256.543 675.721 242.948 677.109 238.256C679.696 229.565 672.652 233.07 668.302 235.34C657.79 240.831 648.336 249.781 637.954 255.555C635.555 255.555 627.512 246.794 625.066 244.912C623.573 243.772 621.092 243.924 620.939 243.783C618.776 241.655 623.902 241.078 625.031 240.291C627.935 238.28 630.946 235.869 633.744 233.681C638.706 229.812 663.293 209.82 664.998 206.186C667.49 200.894 661.952 200.882 658.107 202.835C644.644 209.679 630.769 229.083 616.518 236.527C611.368 237.809 607.135 229.506 602.149 228.483C601.679 226.766 602.608 226.531 603.29 225.543C606.347 221.098 613.684 215.665 617.47 211.537C625.831 202.446 635.719 191.733 643.233 182.066C644.55 180.373 653.486 168.189 652.663 167.425L646.772 165.602L596.082 222.45C594.236 221.651 583.783 217.264 583.383 216.688C582.924 216.029 583.383 214.089 583.959 213.242L633.133 144.939C635.743 140.153 634.708 138.989 629.288 138.119C626.607 143.517 621.751 147.574 618.094 152.219C607.652 165.449 586.005 194.085 578.762 208.174C577.868 209.914 578.362 210.467 578.068 212.019C573.012 209.338 567.98 205.704 562.194 204.987C561.054 203.728 572.777 188.711 574.435 186.112C585.582 168.66 600.197 149.644 610.121 132.521C612.744 127.993 618.317 118.55 609.428 120.678C592.166 143.834 575.858 167.531 560.066 191.709C558.444 194.203 556.421 197.237 556.303 200.294C555.716 200.835 543.216 195.555 541.359 194.673C540.23 194.132 539.383 195.014 540.006 192.815L583.971 125.065C585.006 122.995 583.03 120.631 581.56 119.244C562.065 137.919 546.791 163.027 533.939 186.77C533.234 188.076 532.657 189.357 532.799 190.898C525.391 188.534 517.971 186.018 510.493 183.842C510.081 181.408 511.575 180.102 512.562 178.279C524.956 155.406 578.115 97.6873 602.773 91.0899C611.862 88.6556 615.201 89.6199 622.938 94.2887C658.66 115.81 694.887 219.381 701.59 259.989C704.435 277.206 708.704 303.642 684.34 304.854L684.387 304.865Z" fill="#80CDBE"/>
<path d="M428.314 363.607C428.337 366.089 428.984 369.134 426.456 370.569C391.31 380.142 357.787 394.466 326.157 412.435C320.525 415.152 323.829 408.343 319.067 408.237C318.796 405.544 322.23 408.684 322.571 408.26C322.736 408.049 322.371 405.908 323.229 404.838C326.169 401.169 362.267 382.917 368.969 380.036C375.672 377.155 385.078 373.791 392.145 371.498C397.154 369.875 425.892 361.102 428.314 363.607Z" fill="#3AB8A2"/>
<path d="M422.435 401.204L418.907 407.613C416.873 409.401 400.74 411.33 396.554 412.306C377.894 416.692 346.017 427.958 328.685 429.134C324.488 429.417 320.266 428.276 323.159 423.49C324.57 421.149 367.805 409.895 374.014 408.566C386.372 405.932 405.42 401.945 417.578 400.651C419.236 400.475 420.8 401.216 422.435 401.192V401.204Z" fill="#3AB8A2"/>
<path d="M407.031 445.728C406.714 446.104 400.858 446.975 399.565 447.069C381.292 448.315 348.087 448.809 330.214 447.022C326.263 446.622 321.383 445.752 322.5 440.671C323.418 436.496 343.066 440.048 346.593 440.013C362.044 439.86 385.702 436.12 400.376 437.931C401.846 438.107 405.938 438.907 406.631 439.907C407.325 440.906 407.596 445.069 407.031 445.74V445.728Z" fill="#3AB8A2"/>
<path d="M382.374 471.812C383.079 472.647 382.198 477.104 382.492 478.75C360.339 476.175 339.291 468.213 318.209 461.393C313.153 458.358 314.34 451.655 321.713 453.149C334.623 455.748 353.296 464.826 367.253 468.743C369.745 469.436 381.88 471.224 382.374 471.824V471.812Z" fill="#3AB8A2"/>
<path d="M249.481 251.039C263.121 249.487 272.045 270.385 257.876 278.335C238.087 289.448 226.717 253.638 249.481 251.039Z" fill="#3AB8A2"/>
</g>
</g>
<defs>
<clipPath id="clip0_504_7869">
<rect width="669" height="516" fill="white"/>
</clipPath>
<clipPath id="clip1_504_7869">
<rect width="893" height="603" fill="white" transform="translate(51 50)"/>
</clipPath>
</defs>
</svg>
