<svg width="669" height="516" viewBox="0 0 669 516" fill="none" xmlns="http://www.w3.org/2000/svg">
<g clip-path="url(#clip0_504_11282)">
<rect width="669" height="516" fill="#D9D9D9" fill-opacity="0.6"/>
<g clip-path="url(#clip1_504_11282)">
<path d="M539.454 79.9738C545.849 74.4269 553.781 58.352 543.08 53.5472C527.72 46.6544 495.063 64.5027 482.385 73.8608L471.457 82.8919C471.167 83.0177 470.752 83.5586 470.488 83.8605C468.624 83.9233 466.975 86.3258 465.628 87.7471C465.313 88.0741 464.961 88.376 464.659 88.7156C463.198 88.5647 461.788 90.4514 460.768 91.6212C460.479 91.9608 460.101 92.2501 459.799 92.5897C456.501 94.1871 454.751 96.992 452.031 99.3819C451.225 100.086 450.684 100.778 450.092 101.319C447.386 103.772 444.238 106.3 441.355 109.08C440.335 110.061 439.429 111.017 438.447 111.985C437.792 112.639 437.15 113.268 436.508 113.922C435.866 114.576 435.211 115.205 434.569 115.859C431.988 118.463 428.35 121.23 426.802 124.588C426.474 124.903 426.172 125.268 425.832 125.557C424.334 126.865 422.118 128.563 421.942 130.412C421.615 130.727 421.312 131.079 420.973 131.381C418.518 133.607 414.841 136.135 414.174 139.141C412.437 140.651 411.782 141.38 410.284 143.028C403.523 148.537 397.254 152.348 388.328 153.606C322.383 162.813 273.233 176.549 217.964 214.849C196.952 229.415 173.825 246.37 157.735 266.281C147.047 279.513 139.619 294.62 136.635 311.675C135.326 319.159 136.346 327.046 132.481 334.215C131.134 335.662 129.132 337.574 127.621 339.071C127.218 339.473 126.11 339.624 125.682 340.039C125.015 340.668 124.423 341.36 123.743 341.976L94.6362 362.919C93.5912 363.346 93.2387 364.692 92.6596 365.271C92.3323 365.598 92.0049 365.9 91.6902 366.239C84.1238 369.988 78.0682 378.302 79.1509 387.031C79.6796 391.295 81.5807 390.062 81.9836 390.49C83.2929 391.924 83.8342 392.339 84.8918 393.396C85.773 394.289 86.3899 398.125 89.4618 399.018C97.3933 401.332 120.722 394.414 129.572 391.936C141.923 388.477 154.009 383.358 166.473 380.277C205.249 370.705 247.6 380.931 286.931 385.622C290.443 408.615 300.49 433.205 316.076 450.639C316.743 451.557 318.631 452.739 319.966 454.525C320.28 454.953 320.369 456.236 321.351 457.456C323.39 459.997 325.065 460.085 326.764 461.317C330.453 466.273 335.325 471.682 341.104 474.851C350.773 480.172 356.942 478.965 356.904 466.688C356.853 451.745 350.168 435.608 348.456 420.891C347.739 414.703 348.695 407.307 348.129 401.144C355.859 413.156 363.287 427.897 375.322 436.086C375.486 436.274 375.159 436.866 375.322 437.054C375.688 437.494 376.09 437.784 376.292 438.023C376.43 438.186 377.11 437.859 377.261 438.023C377.576 438.35 377.903 438.677 378.231 438.991C381.252 441.796 383.82 443.381 386.968 445.783C407.124 461.154 434.519 475.732 460.315 477.795C468.624 478.461 489.561 479.342 479.237 466.16C478.52 465.242 477.739 464.764 477.299 464.223C477.009 463.871 476.631 463.594 476.329 463.254C475.624 462.449 474.97 461.946 474.39 461.317C472.917 459.745 471.747 458.726 470.5 457.431C469.846 456.752 469.216 456.148 468.561 455.494C467.907 454.84 467.277 454.198 466.623 453.557C462.392 449.368 458.263 445.117 453.995 440.941C451.591 436.576 447.574 432.929 444.276 429.293C443.961 428.954 443.596 428.652 443.307 428.325C439.152 421.382 434.595 414.653 430.515 407.621C427.255 401.999 424.384 394.855 420.973 389.496C425.971 389.295 431.057 389.76 436.068 389.534C510.447 386.163 588.805 382.905 659.194 410.112C722.281 434.501 779.904 476.373 810.484 537.968C810.736 539.075 811.34 540.22 811.453 540.874C811.516 541.239 812.385 541.641 812.423 541.843C813.518 547.553 813.543 550.899 811.453 556.395C807.903 557.653 807.576 560.974 805.058 564.081C780.873 593.966 746.629 647.159 750.267 686.906C751.023 695.182 754.775 698.855 761.9 693.22C762.832 692.491 763.21 691.849 763.839 691.283C764.179 690.981 764.494 690.642 764.809 690.315C765.123 689.988 765.463 689.673 765.778 689.346C769.139 685.862 771.506 682.378 774.515 678.667C775.308 677.686 777.726 677.221 777.423 674.781C778.355 673.85 779.4 672.756 780.332 671.875C782.333 669.988 784.373 667.662 786.161 666.052C786.916 665.372 787.545 664.605 788.099 664.114C790.642 661.863 795.552 659.046 798.788 656.354C799.14 656.052 799.417 655.675 799.757 655.385C809.225 650.757 819.12 645.247 827.706 639.134C834.857 634.04 840.044 628.38 846.377 622.393C846.704 622.078 847.019 621.739 847.346 621.424C848.026 620.783 848.643 620.104 849.285 619.487C849.726 619.072 850.796 618.921 851.224 618.519C857.204 618.393 861.422 623.11 867.225 625.336C894.532 635.801 922.758 629.814 950.947 641.65C957.392 644.354 973.394 655.046 979.689 651.499C980.759 650.895 980.28 649.7 980.394 649.587C980.507 649.474 981.728 649.939 982.307 648.882C984.964 644.103 978.732 627.915 975.61 623.978C974.728 622.858 973.948 623.563 973.595 623.374C969.856 614.959 968.245 613.689 961.937 606.871C960.263 605.06 958.727 603.689 957.078 602.016C956.083 601.01 955.177 600.092 954.17 599.111C953.162 598.13 952.281 597.174 951.261 596.205C946.339 591.526 941.706 587.74 936.695 583.589C936.355 583.3 936.078 582.91 935.726 582.621C926.107 574.785 917.395 567.942 906.266 562.068C893.575 555.377 874.011 550.144 863.839 541.377C860.528 538.522 858.4 534.849 855.114 532.145C855.001 531.881 855.227 531.453 855.114 531.176C854.9 530.648 854.195 530.346 854.145 530.208C854.044 529.918 854.245 529.529 854.145 529.239C853.956 528.698 853.213 528.397 853.175 528.271C853.075 527.981 853.263 527.592 853.175 527.302C852.357 524.636 852.848 520.699 850.267 519.542C850.242 519.227 850.305 518.887 850.267 518.573C843.116 458.626 809.968 386.264 776.441 336.127C774.628 333.41 772.438 330.97 770.612 328.367C763.348 318.015 756.638 308.757 748.266 299.248C747.964 298.909 747.598 298.619 747.296 298.28C746.314 296.519 744.25 293.16 743.117 291.764C740.674 288.771 736.646 284.733 733.7 281.777C733.372 281.45 733.057 281.123 732.73 280.809C730.741 278.821 728.714 275.325 726.813 273.576C725.919 272.759 724.484 272.52 723.993 272.067C723.653 271.752 723.363 271.413 723.023 271.098L717.194 265.275C716.855 264.973 716.565 264.608 716.225 264.306C713.355 258.382 707.412 255.325 702.716 251.112C671.708 223.289 639.604 201.919 600.602 185.24C579.313 176.134 557.142 170.411 535.551 162.398C535.06 161.82 534.254 160.386 533.612 159.493C519.713 140.11 529.004 127.129 527.783 108.061C527.758 107.734 527.821 107.407 527.783 107.092L539.441 80.892C539.567 80.6279 539.315 80.1876 539.441 79.9235L539.454 79.9738Z" fill="#FEFCED"/>
<path d="M558.88 277.941C562.745 279.237 566.635 281.413 570.538 282.796C583.518 287.375 596.397 292.733 609.389 297.349C609.679 297.45 610.069 297.248 610.359 297.349L664.759 329.373C665.111 329.612 665.388 330.178 665.728 330.341C666.207 331.7 667.214 332.278 668.636 332.278C668.8 332.543 669.379 333.172 669.606 333.247C670.072 334.605 671.104 335.171 672.514 335.184C673.307 336.555 674.188 336.756 674.453 337.121C675.007 337.876 675.17 339.297 675.926 340.027C677.009 341.071 677.978 340.756 678.343 341.008C685.192 345.46 694.42 352.894 700.69 358.479L701.659 359.447C707.375 364.592 712.335 370.742 718.177 375.95C719.108 377.258 720.09 378.579 721.085 379.836C741.669 405.458 757.57 425.671 775.485 453.594C776.479 455.142 776.177 456.928 779.375 457.481C779.4 457.796 779.375 458.135 779.375 458.45C779.375 458.55 778.242 458.689 778.431 459.355C793.765 482.524 804.466 511.177 810.459 538.031C779.891 476.436 722.268 434.564 659.169 410.175C588.78 382.968 510.422 386.213 436.043 389.597C431.032 389.823 425.946 389.358 420.948 389.559C418.933 386.402 416.554 383.673 414.149 380.83C411.417 377.61 408.811 374.654 405.412 372.101C404.304 371.271 403.649 370.868 402.504 370.164C402.265 370.025 402.051 369.459 401.534 369.195C400.338 367.044 397.468 365.975 395.265 365.271C383.481 361.447 366.724 360.29 354.537 362.529C343.849 364.491 341.154 366.881 343.244 377.937C345.661 390.691 352.296 405.043 360.731 414.816C360.731 415.118 360.668 415.508 360.731 415.785C361.059 417.281 362.783 419.218 363.639 420.64C366.56 425.445 371.609 431.847 375.298 436.161C363.262 427.973 355.834 413.244 348.104 401.219C346.883 387.974 341.822 392.716 332.568 391.509C321.817 390.113 312.74 388.025 301.484 387.622C300.842 387.597 300.188 387.622 299.546 387.622C299.306 386.666 298.412 386.729 297.607 386.654C294.082 386.327 290.418 386.1 286.918 385.685C247.588 380.981 205.236 370.755 166.46 380.34C153.997 383.421 141.911 388.54 129.56 391.999C120.722 394.477 97.3935 401.395 89.4494 399.081C86.3776 398.188 85.7607 394.352 84.8794 393.458C91.4764 395.094 100.83 391.597 107.201 389.069C133.299 378.73 157.61 363.246 182.638 350.894C186.264 349.108 190.393 348.58 193.981 346.706C198.199 344.492 207.503 337.775 204.305 332.354L179.088 338.14C173.334 334.278 183.016 328.153 184.917 324.556L185.886 322.618C186.201 322.291 186.528 321.952 186.856 321.65L187.825 320.681C191.564 317.122 195.051 313.889 198.514 310.003C199.848 309.084 201.107 308.066 202.404 307.097C205.35 304.858 208.925 302.066 212.123 300.305L213.092 299.336C213.344 299.211 213.797 299.462 214.062 299.336C241.532 286.18 292.571 277.538 323.818 269.249C325.279 268.86 326.223 268.432 326.727 268.281C327.57 268.029 329.106 268.734 329.635 267.312C329.962 267.3 330.29 267.338 330.604 267.312C346.329 266.105 362.683 261.841 378.697 260.533C437.415 255.715 502.68 259.225 558.867 277.991L558.88 277.941ZM240.966 323.26C243.068 320.329 242.678 311.386 240.324 308.481C236.371 303.6 223.479 307.16 219.891 311.411C212.324 320.367 221.804 331.511 230.819 330.165C232.052 329.977 233.261 329.285 234.382 328.757C235.502 328.228 240.45 323.977 240.966 323.26Z" fill="#9DD6C2"/>
<path d="M471.457 82.8918C481.151 78.7914 490.48 69.3578 500.338 64.4775C510.196 59.5972 531.17 51.5723 541.657 54.8049C542.438 55.0439 542.224 56.3268 543.105 56.6665C544.024 57.0186 545.988 56.4652 546.253 56.7042C546.706 57.0941 545.27 67.4208 545.044 68.6031C544.477 71.4709 540.927 76.6908 539.441 79.9989C539.316 80.263 539.567 80.7033 539.441 80.9674C537.138 80.8542 536.924 82.3384 536.005 83.8478C531.913 90.5142 527.078 99.9729 527.783 107.18C527.821 107.495 527.758 107.834 527.783 108.149C526.587 110.513 524.51 116.098 524.183 118.463C523.314 124.714 523.755 148.449 527.066 153.505L533.612 159.581C534.255 160.474 535.06 161.908 535.551 162.486C539.744 167.429 544.377 168.499 550.117 170.247C548.745 170.599 548.707 175.127 549.639 175.115C551.93 175.014 552.711 172.171 553.026 170.247C554.398 170.662 555.518 172.058 555.934 172.184C554.436 175.278 557.923 176.372 557.91 176.611C557.86 177.517 556.513 179.504 556.903 179.932C557.168 180.221 563.802 182.838 564.205 182.825C565.477 182.775 568.486 179.857 569.543 180.913C572.049 183.429 565.716 184.976 565.653 185.278C565.414 186.536 565.867 188.183 567.126 188.661C569.845 189.693 569.921 184.8 571.482 186.737C573.169 188.837 567.756 192.334 569.556 195.466C572.565 196.17 571.482 192.347 574.101 191.718C575.498 191.378 578.721 193.114 579.25 192.561C579.691 192.095 578.948 183.655 579.25 181.882H584.11C581.315 184.926 581.655 186.938 586.048 186.737C586.804 185.24 583.606 183.228 584.11 182.875C587.156 180.712 588.529 187.668 589.548 187.781C590.493 187.881 593.602 186.749 592.847 184.812C593.275 184.988 594.206 184.674 594.786 184.812C595.075 185.165 595.402 185.492 595.755 185.781C597.291 187.014 597.732 186.41 598.663 186.749C599.431 188.548 596.07 191.579 596.737 192.535C597.014 192.95 600.476 192.913 599.633 195.466C593.892 198.346 593.174 198.523 590.392 192.586C586.942 192.322 590.442 197.202 591.235 198.057C592.507 199.403 596.586 201.189 597.19 202.296C598.978 205.541 597.278 211.302 603.561 214.371C605.751 215.44 614.186 215.981 613.217 220.182C612.474 223.39 605.953 219.578 604.568 220.811C604.266 221.075 601.823 228.119 601.999 228.484C602.49 229.477 604.152 231.012 605.499 229.98C607.312 228.597 606.947 219.528 610.321 222.673C610.598 222.937 610.044 225.314 610.321 225.578C612.084 227.289 614.425 221.905 616.138 223.641C616.44 223.943 615.936 227.415 616.138 228.496C627.833 224.157 621.727 236.005 622.936 237.225C624.862 238.282 630.767 231.389 631.673 235.792C632.378 239.225 620.015 238.596 623.44 243.074C630.389 241.2 627.418 242.093 629.017 244.697C629.319 245.2 633.549 246.999 631.673 248.873C630.93 249.615 627.141 247.464 624.95 248.382C622.458 249.426 619.109 254.684 619.071 257.124C619.071 257.728 623.062 267.803 623.427 268.268C626.159 271.803 630.087 268.407 629.734 272.155C624.585 269.878 622.093 279.123 619.058 277.551C615.546 275.74 613.595 270.671 614.451 266.935C614.828 265.312 617.56 264.709 617.145 261.979C617.082 261.526 615.181 261.526 615.093 260.885C614.879 259.262 616.692 256.709 616.125 254.684L599.62 253.703C600.514 258.457 598.663 256.935 595.73 259.048C594.798 261.992 598.034 261.979 598.411 262.621C601.471 267.841 590.228 262.809 593.149 268.004C593.3 268.281 594.861 267.929 594.836 269.69C594.773 274.532 588.881 274.972 591.827 269.249C581.655 269.815 588.39 275.538 587.937 277.45C587.773 278.117 580.421 280.633 582.108 285.739C581.164 285.375 580.169 285.148 579.2 284.771C580.018 281.136 576.971 280.23 577.261 283.802C575.309 283.085 571.47 280.884 570.462 282.834C566.56 281.45 562.669 279.274 558.804 277.979C544.326 271.69 527.809 267.866 512.197 264.86C454.058 253.652 393.112 253.803 335.048 265.501C333.412 265.828 331.7 265.866 330.541 267.3C330.214 267.325 329.887 267.287 329.572 267.3C328.275 267.363 326.966 267.237 325.669 267.325L326.651 268.281C326.148 268.432 325.203 268.859 323.743 269.249C322.912 267.463 320.57 268.834 319.274 269.136C298.778 273.991 278.017 278.796 257.685 284.28C246.468 287.299 228.628 291.274 218.569 295.663C216.592 296.519 214.88 297.16 213.974 299.324C213.709 299.449 213.256 299.198 213.004 299.324C212.463 299.6 212.224 300.192 212.035 300.292C208.837 302.053 205.274 304.845 202.316 307.084L201.837 306.128C200.352 307.11 199.546 308.745 198.438 309.99C194.976 313.877 191.501 317.097 187.75 320.669C187.422 320.983 187.107 321.335 186.78 321.637C186.453 321.939 186.113 322.279 185.811 322.606C185.143 323.31 182.638 323.952 184.841 324.543C182.94 328.14 173.259 334.278 179.012 338.127C158.793 358.944 128.465 370.352 102.039 382.05C100.755 382.616 99.8989 383.886 98.6148 384.452C96.462 385.408 82.6133 391.031 81.8706 390.528C79.5037 386.566 82.1349 374.465 85.2194 372.013C88.4927 369.409 89.0844 368.994 91.5772 366.264C91.8919 365.925 92.2193 365.623 92.5466 365.296C96.7515 364.629 100.151 360.038 103.588 357.913C106.672 356.013 111.091 353.322 114.364 350.73C117.839 347.988 121.163 344.24 123.643 342.001C124.323 341.385 124.927 340.693 125.582 340.064L126.06 341.02L127.521 339.096C129.019 337.599 131.021 335.687 132.38 334.241C139.443 326.668 137.038 320.669 138.562 311.55C140.903 297.563 148.243 280.695 156.867 269.098C157.27 268.558 159.649 266.759 157.635 266.293C173.725 246.382 196.839 229.427 217.864 214.862C218.33 216.811 221.565 213.906 222.245 213.465C261.588 188.385 302.895 170.813 348.973 160.989C361.638 158.285 394.119 156.059 402.781 150.663C405.211 149.141 408.371 145.028 410.171 143.053C411.669 141.418 412.324 140.676 414.061 139.166C414.439 138.827 416.025 138.701 417.498 137.28C418.971 135.858 420.432 133.393 420.86 131.393C421.199 131.091 421.502 130.739 421.829 130.425C422.723 129.582 426.034 129.532 425.719 125.569C426.059 125.268 426.361 124.915 426.689 124.601C426.777 124.513 428.036 124.664 429.055 123.607C430.956 121.658 432.694 118.098 434.456 115.859C435.111 115.205 435.753 114.564 436.395 113.922L438.334 111.985C439.316 111.017 440.222 110.048 441.242 109.08C444.314 107.734 449.287 104.614 449.979 101.319C450.584 100.778 451.125 100.086 451.918 99.3818C456.186 98.8032 457.521 94.9543 459.686 92.5896C459.988 92.25 460.366 91.9607 460.655 91.6211C464.772 91.8349 464.155 89.1432 464.546 88.7155C464.848 88.3759 465.2 88.074 465.515 87.747C466.95 87.3445 469.116 86.5395 470.148 85.571C470.677 85.0679 470.249 84.0113 470.362 83.8729C470.626 83.5711 471.042 83.0302 471.331 82.9044L471.457 82.8918ZM589.964 215.843C589.775 215.629 585.406 217.44 584.651 217.792C583.656 218.245 582.7 216.987 583.178 219.717C586.338 218.509 587.207 219.943 589.964 220.685V215.843ZM599.67 215.843C594.156 216.95 594.798 221.528 600.652 220.685L599.67 215.843ZM585.104 225.54C586.099 224.559 583.203 221.641 582.196 222.635C581.189 223.629 584.097 226.534 585.104 225.54ZM597.732 226.521C597.089 225.93 594.332 226.735 593.867 227.981C592.582 231.351 599.708 228.345 597.732 226.521ZM622.017 231.364C620.959 230.307 619.021 232.232 620.091 233.289C621.161 234.345 623.087 232.421 622.017 231.364ZM614.249 233.301C602.528 233.88 609.39 237.188 609.402 237.766C609.415 238.659 608.105 239.879 608.823 241.1C609.012 241.414 614.589 244.735 614.979 244.823C617.208 245.376 620.557 242.118 619.99 239.804C617.799 235.439 612.852 239.565 614.249 233.301ZM603.573 239.137C601.723 240.861 607.463 243.477 607.438 240.584C607.438 239.59 604.228 238.534 603.573 239.137ZM598.701 244.961H596.775V247.867H598.701V244.961ZM588.982 260.47C590.958 258.633 583.833 255.627 585.117 259.011C585.595 260.256 588.34 261.074 588.982 260.47ZM622.017 272.13C620.959 271.073 619.021 272.998 620.091 274.054C621.161 275.111 623.087 273.186 622.017 272.13Z" fill="#2C9F8D"/>
<path d="M598.701 186.724C612.31 191.73 633.914 202.007 645.95 209.44C649.853 211.855 647.448 216.723 653.428 213.868C659.962 220.66 674.78 226.974 680.168 233.892C680.836 234.748 681.176 236.094 681.289 237.188L682.724 235.263C685.154 236.194 686.149 238.924 687.559 240.144C696.95 248.257 706.909 255.942 716.238 264.382C716.578 264.684 716.867 265.048 717.207 265.35C719.071 267.061 720.909 269.224 723.036 271.174C723.376 271.488 723.678 271.841 724.006 272.142C725.491 276.067 729.835 278.029 732.743 280.872C733.07 281.186 733.385 281.513 733.712 281.84C735.45 286.406 740.07 290.557 743.394 294.23C744.753 295.726 746.68 297.613 747.309 298.33C747.611 298.67 747.976 298.959 748.278 299.299C749.412 303.512 753.478 306.368 756.046 309.726C760.276 315.26 764.028 321.348 768.12 326.983C768.309 327.247 770.159 330.04 770.625 328.404C772.451 331.008 774.641 333.461 776.454 336.165C774.024 338.014 778.62 340.731 779.287 341.8C804.579 382.666 831.156 439.343 842.663 485.945C845.345 496.825 846.075 508.448 850.28 518.611C850.318 518.925 850.255 519.265 850.28 519.579C850.582 522.799 850.078 525.026 853.188 527.34C853.276 527.642 853.087 528.019 853.188 528.309L854.158 529.277C854.258 529.566 854.057 529.956 854.158 530.246L855.127 531.214C855.24 531.503 855.014 531.918 855.127 532.183C855.706 533.466 855.983 535.906 856.096 536.069C855.165 536.862 848.694 538.245 848.379 537.994C848.165 537.83 848.014 535.604 847.271 534.723C845.974 533.189 843.419 532.635 843.419 530.749C843.419 529.063 845.911 528.296 845.42 526.372H841.53C840.133 526.61 847.007 511.592 842.525 515.693C842.348 515.856 842.285 517.667 841.127 518.636C839.629 519.894 833.234 520.435 835.751 523.39C835.953 523.629 842.16 524.397 839.591 527.327C839.214 527.755 835.94 525.931 834.744 526.359C835.6 533.013 833.951 530.359 830.3 532.095C827.782 533.289 826.548 535.73 829.419 537.025C830.401 537.465 834.48 530.849 833.762 538.975C829.444 536.409 827.971 541.541 824.962 544.258C822.772 546.245 820.065 544.585 821.147 549.641C824.534 548.836 825.642 545.541 829.885 546.735C830.854 552.458 827.644 550.559 825.088 552.131C821.941 554.069 820.959 559.829 814.349 556.446C813.946 560.949 815.104 561.942 819.196 560.332L817.27 566.144C819.221 565.98 821.626 566.571 823.464 566.005C825.063 565.515 824.559 562.119 827.946 563.251C829.897 565.188 819.662 571.98 820.329 575.237C820.556 576.344 822.406 577.25 823.137 578.294C823.804 579.263 823.791 580.822 824.358 581.401C826.561 583.652 833.724 583.376 831.836 588.47C829.003 589.338 829.708 584.747 827.48 585.577C819.863 588.382 831.106 593.79 832.667 595.903C834.102 597.853 834.971 600.608 834.744 603.035C832.931 603.601 832.34 601.438 831.181 601.236C830.288 601.086 828.235 603.148 825.516 603.161C822.419 603.174 820.241 600.419 817.862 601.148C814.462 602.205 818.617 607.526 816.779 609.802C816.124 612.091 808.583 612.255 809.502 614.167C811.592 618.494 819.788 613.286 820.178 613.701C820.077 615.928 820.631 618.406 821.89 620.242C824.056 623.412 828.059 622.028 826.989 627.286C830.325 628.367 830.287 625.047 831.055 624.594C835.512 621.965 832.163 628.984 835.726 630.191C835.386 630.481 835.122 630.858 834.757 631.16H830.879L831.849 634.065C830.804 634.518 830.136 634.883 828.94 635.034C830.124 630.682 827.178 631.349 825.566 629.21C824.509 627.801 824.131 625.386 822.683 624.305C820.581 622.72 814.953 620.972 812.435 622.418C814.261 617.135 808.407 617.588 808.684 620.783C809.112 625.688 815.583 627.651 816.779 630.204C817.648 632.065 816.867 637.26 820.216 635.512V629.21C823.577 628.606 821.777 633.235 824.093 634.594C824.257 634.694 827.744 635.034 827.971 635.021C827.77 636.971 827.518 637.499 826.133 638.832C820.531 644.216 805.989 647.964 800.148 653.8C799.669 654.278 799.921 655.297 799.795 655.398C799.455 655.687 799.178 656.065 798.826 656.366C796.635 653.587 797.668 657.939 794.483 657.436C792.38 657.096 790.655 655.41 789.598 655.41C788.175 655.41 785.708 658.14 783.328 657.385C784.587 662.379 781.427 661.561 780.369 665.096C784.574 665.309 786.299 661.913 788.641 659.285L788.137 664.127C787.571 664.63 786.954 665.385 786.199 666.064C783.026 665.737 780.055 668.567 780.369 671.888C779.438 672.768 778.393 673.863 777.461 674.793C776.605 675.649 775.447 676.781 774.553 677.699C771.368 680.969 767.44 685.107 765.816 689.346C765.501 689.673 765.174 689.988 764.847 690.315H763.877C759.949 689.812 757.985 686.566 755.14 691.283C754.649 690.793 752.697 690.705 752.408 690.176C751.854 689.208 752.106 678.479 752.244 676.252C752.458 672.617 753.629 668.668 754.183 665.083C760.453 674.517 763.6 664.228 754.183 662.177C757.179 646.166 765.048 631.135 772.64 616.569L784.222 614.494C783.227 608.821 788.943 613.815 790.126 612.683C790.441 612.381 788.754 605.916 790.126 603.966C787.332 603.626 785.947 605.287 785.267 602.507C784.587 599.727 783.441 601.325 781.377 601.048C785.103 594.658 787.017 591.514 791.096 585.526C791.889 593.941 795.276 582.91 795.893 582.067C797.705 579.602 800.954 581.049 802.376 575.917C803.232 572.822 802.062 574.005 799.846 573.879C801.973 569.791 805.058 565.93 807.941 561.641C809.401 559.49 809.943 560.509 811.504 556.408C811.907 556.27 812.863 556.748 813.304 556.295C813.707 555.892 815.432 549.377 815.482 548.169C815.583 545.541 814.664 542.346 814.122 539.717C809.086 515.227 798.033 492.599 786.362 470.21C784.612 466.864 784.386 459.494 779.45 458.399C779.45 458.085 779.476 457.745 779.45 457.431C779.262 454.714 778.544 452.802 775.56 453.544C757.658 425.621 741.744 405.408 721.16 379.786L722.117 379.308C721.135 377.824 719.499 377.019 718.252 375.912C712.411 370.717 707.45 364.554 701.735 359.409C701.395 359.108 701.105 358.743 700.765 358.441C694.496 352.869 685.28 345.435 678.419 340.97C678.784 338.027 677.499 336.769 674.528 337.083C674.264 336.719 673.383 336.505 672.59 335.146C672.426 334.857 672.917 333.649 672.514 333.297C671.96 332.819 670.323 333.436 669.681 333.197C669.455 333.121 668.876 332.492 668.712 332.228C666.647 328.819 668.045 331.423 665.804 330.291C665.464 330.115 665.187 329.562 664.834 329.323C647.41 317.474 630.842 304.393 610.434 297.299C610.145 297.198 609.755 297.399 609.465 297.299C610.032 294.745 608.13 295.437 606.632 294.846C598.6 291.626 590.354 288.733 582.271 285.664C580.584 280.557 587.937 278.042 588.1 277.375C588.554 275.45 581.818 269.74 591.991 269.174C589.045 274.91 594.937 274.457 594.999 269.614C595.025 267.853 593.464 268.205 593.312 267.929C590.392 262.734 601.622 267.778 598.575 262.545C598.197 261.904 594.962 261.916 595.893 258.973C598.827 256.86 600.665 258.382 599.784 253.627L616.289 254.609C616.855 256.634 615.042 259.187 615.256 260.81C615.344 261.451 617.233 261.438 617.308 261.904C617.724 264.646 614.992 265.25 614.614 266.86C613.745 270.583 615.697 275.664 619.222 277.476C622.256 279.048 624.749 269.79 629.898 272.08C630.25 268.331 626.323 271.727 623.591 268.193C623.225 267.715 619.222 257.64 619.235 257.049C619.272 254.609 622.621 249.351 625.114 248.307C627.305 247.389 631.094 249.54 631.837 248.797C633.713 246.923 629.483 245.112 629.18 244.621C627.582 242.03 630.553 241.125 623.603 242.999C620.191 238.521 632.542 239.163 631.837 235.716C630.93 231.314 625.026 238.207 623.1 237.15C621.891 235.93 627.997 224.081 616.301 228.421C616.087 227.339 616.591 223.868 616.301 223.566C614.589 221.843 612.247 227.213 610.485 225.503C610.195 225.226 610.762 222.861 610.485 222.597C607.111 219.453 607.476 228.534 605.663 229.905C604.316 230.924 602.667 229.389 602.163 228.408C601.987 228.044 604.429 221.012 604.731 220.736C606.129 219.516 612.638 223.314 613.38 220.107C614.362 215.906 605.915 215.365 603.724 214.296C597.442 211.227 599.129 205.466 597.354 202.221C596.749 201.114 592.67 199.328 591.399 197.982C590.593 197.139 587.106 192.246 590.555 192.51C593.338 198.46 594.055 198.284 599.796 195.391C600.652 192.837 597.19 192.875 596.901 192.46C596.233 191.491 599.595 188.46 598.827 186.674L598.701 186.724ZM798.801 476.889C792.733 479.128 797.504 480.876 798.801 479.807C799.027 479.619 798.65 477.656 798.801 476.889C801.281 475.971 803.937 475.77 806.569 475.921C807.626 479.518 802.464 477.141 801.722 477.858C800.916 480.839 804.378 482.864 804.655 485.203C804.907 487.354 802.338 491.48 806.229 492.197C808.004 492.524 809.854 489.606 810.22 494.096C810.396 496.171 809.288 498.096 809.477 500.171L805.599 500.649C808.243 502.234 807.953 504.322 808.898 506.649C809.036 506.989 810.283 506.926 810.396 507.592C811.139 512.058 807.274 514.812 816.275 513.781C818.932 515.844 807.891 517.202 810.459 519.592C811.416 520.485 813.077 518.057 813.984 517.919C815.104 517.743 816.54 518.85 817.635 518.548C818.894 518.208 818.818 515.957 819.876 515.693C821.5 515.29 824.899 516.309 825.881 515.592C825.34 513.542 830.476 510.586 828.915 508.938C828.072 508.033 826.271 510.448 825.39 510.611C823.905 510.913 821.135 509.316 819.209 509.894C818.403 507.366 822.066 507.467 822.192 506.423C822.419 504.523 820.203 503.253 820.203 500.838C820.203 497.391 821.815 492.738 823.074 489.53C818.68 490.587 821.789 495.102 815.318 493.404C814.5 490.838 818.013 490.813 818.214 490.474C819.309 488.687 814.576 486.235 813.871 484.65C812.31 481.166 815.507 478.965 809.477 479.807C813.82 469.556 800.374 469.443 798.801 476.902V476.889ZM825.894 495.417C825.617 495.178 825.025 495.354 824.534 495.316C821.286 495.077 824.144 497.63 824.773 499.014C825.743 501.152 823.59 502.813 827.933 502.108C828.235 501.819 826.158 495.643 825.894 495.417ZM807.639 581.791C807.878 581.514 810.899 581.728 811.944 579.791C814.097 575.791 808.898 575.263 806.795 577.086C805.473 578.231 806.707 581.753 802.678 580.734C801.973 583.577 807.047 583.728 806.556 586.042C806.002 588.583 800.135 589.275 799.871 589.564C799.644 589.816 799.518 596.029 799.758 596.256C800.022 596.507 806.581 597.073 806.934 596.998C808.281 596.721 810.396 593.488 814.047 593.589C816.124 593.639 820.417 598.281 821.122 592.394C817.975 592.797 817.773 588.08 817.081 587.652C815.482 586.658 812.448 589.363 813.354 584.596L809.011 586.545C807.689 586.281 806.921 582.621 807.626 581.778L807.639 581.791ZM825.994 597.224C825.478 596.721 820.43 598.482 822.117 600.13C822.633 600.633 827.681 598.872 825.994 597.224ZM800.752 614.683C802.099 610.381 799.065 608.167 798.146 605.312C797.894 604.532 799.002 603.023 798.398 602.054C797.705 600.947 794.294 600.771 793.954 601.111C793.387 601.677 794.722 605.186 794.734 606.444C794.747 607.702 793.375 611.148 793.966 611.764C794.269 612.079 796.572 611.5 796.862 611.777C797.479 612.368 795.49 616.217 795.88 616.62C796.371 617.123 799.846 615.45 798.788 618.557C797.428 619.148 793.337 617.248 792.984 617.588C792.72 617.852 790.819 623.839 791.083 624.745C791.574 626.43 793.425 626.493 794.898 626.317V621.462C797.617 620.544 803.522 623.802 805.171 621.5C806.216 620.041 803.673 614.142 804.617 611.764L800.74 614.67L800.752 614.683ZM795.88 629.248C793.589 628.531 793.211 631.009 792.972 633.122H795.88V629.248ZM813.354 631.185C812.763 630.632 810.786 631.801 810.459 632.657C809.364 635.499 814.311 635.235 812.385 637.009C810.459 638.782 806.757 632.493 805.989 632.242C800.903 630.581 803.937 640.103 802.691 642.832C807.639 644.468 807.022 639.336 808.193 638.921C809.238 638.556 814.878 638.468 815.306 637.977C815.192 636.958 813.606 631.437 813.354 631.198V631.185ZM794.911 638.946C787.986 638.204 789.17 643.788 794.911 643.801V638.946ZM791.99 645.75C791.7 645.461 784.6 647.285 783.907 647.675C782.573 648.417 783.404 649.411 783.24 650.593C785.556 652.052 794.797 648.593 791.977 645.75H791.99ZM781.326 654.48C778.04 654.203 773.722 654.09 773.559 658.354L781.326 657.385V654.48ZM763.839 661.272L766.244 667.083L768.686 662.744L763.839 661.272ZM772.564 670.982C770.159 670.731 767.453 670.907 767.717 673.888C770.122 674.139 772.828 673.963 772.564 670.982ZM767.717 683.585C770.285 680.994 761.976 676.969 763.839 682.126C764.305 683.409 767.15 684.151 767.717 683.585Z" fill="#30A18F"/>
<path d="M424.838 401.194C430.415 410.98 436.37 420.602 443.294 428.363C443.597 428.69 443.949 428.991 444.264 429.331C444.264 431.356 445.246 432.174 446.354 433.557C448.532 436.274 451.792 438.828 453.983 440.966C458.251 445.142 462.38 449.393 466.61 453.582L468.549 455.519C469.204 456.173 469.833 456.777 470.488 457.456C469.77 460.776 471.583 460.789 474.378 461.342C474.97 461.971 475.612 462.474 476.317 463.279L477.286 464.248C477.74 464.789 478.52 465.279 479.225 466.185C480.107 472.914 482.901 475.191 474.844 475.883C447.525 478.197 414.464 464.261 393.213 448.739L386.943 445.808C383.783 443.406 381.227 441.821 378.206 439.016L377.237 438.048C377.085 437.884 376.393 438.211 376.267 438.048L375.298 437.079C375.134 436.891 375.461 436.299 375.298 436.111C371.622 431.784 366.56 425.382 363.64 420.589L364.332 420.149C363.967 417.571 363.338 416.313 360.719 415.747C360.656 415.457 360.719 415.08 360.719 414.778C360.744 412.69 360.87 410.665 363.627 410.892C363.652 412.577 364.156 414.388 365.012 415.835C365.868 417.281 369.229 421.746 370.501 420.011C372.05 417.885 371.093 414.753 376.255 415.759C377.299 421.52 371.093 420.577 370.438 424.489C374.756 423.13 374.844 427.042 375.335 427.382C376.758 428.388 378.181 425.231 379.805 424.79C380.988 424.476 384.249 425.356 385.974 424.489C387.044 422.023 384.199 422.627 383.544 421.621C380.359 416.74 387.875 419.973 389.448 417.747C390.544 416.212 387.132 411.533 391.324 409.948C392.269 409.596 395.58 414.2 398.299 414.552C399.848 414.753 401.472 413.445 402.466 412.351C402.428 408.15 397.254 411.583 396.65 410.917C396.423 410.665 396.436 405.269 395.68 404.125C398.173 403.672 398.765 407.08 401.006 407.068C402.718 407.055 403.436 404.64 405.374 405.093C405.828 405.621 404.078 411.118 408.119 408.753C408.887 408.301 408.849 404.955 412.173 406.074V410.929C414.577 411.86 416.365 409.47 417.763 409.194C419.513 408.841 421.401 410.565 422.899 409.558C424.397 408.552 424.989 403.156 424.8 401.219L424.838 401.194Z" fill="#35A390"/>
<path d="M297.594 387.61C297.922 387.61 299.218 387.61 299.533 387.61C300.175 387.61 300.83 387.584 301.472 387.61C304.531 390.565 308.975 389.094 312.626 389.559C319.248 390.402 325.921 391.597 332.556 392.465C336.685 392.993 340.903 393.471 345.082 393.534C346.329 394.603 345.964 412.992 346.278 416.112C347.789 430.929 355.872 455.167 354.927 468.613C354.499 474.763 353.064 477.103 346.857 475.694C340.424 474.235 332.002 465.179 326.727 461.355C325.065 459.116 323.881 454.865 319.928 454.563C318.606 452.777 316.718 451.595 316.038 450.676C311.015 443.846 304.468 432.136 300.628 423.847C295.378 412.514 290.682 399.974 288.832 387.597C291.74 387.534 294.673 387.66 297.582 387.597L297.594 387.61Z" fill="#35A390"/>
<path d="M179.088 338.115L204.305 332.329C207.503 337.75 198.199 344.467 193.981 346.68C190.393 348.554 186.264 349.083 182.638 350.869C157.61 363.233 133.312 378.704 107.201 389.043C100.818 391.572 91.4763 395.068 84.8793 393.433C83.8092 392.364 83.2805 391.949 81.9711 390.528C81.5683 390.087 79.6672 391.333 79.1385 387.069C78.0558 378.327 84.124 370.013 91.6778 366.277C89.185 368.994 88.5933 369.422 85.32 372.025C82.2229 374.478 79.6043 386.591 81.9711 390.54C82.7139 391.043 96.5625 385.421 98.7154 384.465C99.9995 383.899 100.856 382.629 102.14 382.063C128.553 370.377 158.894 358.957 179.113 338.14L179.088 338.115Z" fill="#1A907E"/>
<path d="M410.272 143.053C408.459 145.028 405.311 149.154 402.881 150.663C394.22 156.059 361.738 158.285 349.073 160.99C302.983 170.813 261.676 188.372 222.346 213.465C221.653 213.906 218.43 216.811 217.965 214.862C273.233 176.561 322.383 162.826 388.328 153.619C397.254 152.374 403.524 148.55 410.284 143.041L410.272 143.053Z" fill="#1A907E"/>
<path d="M535.564 162.461C557.143 170.473 579.313 176.196 600.615 185.303C639.617 201.982 671.721 223.352 702.729 251.175C707.425 255.388 713.368 258.445 716.238 264.369C706.909 255.942 696.951 248.244 687.559 240.131C686.149 238.911 685.154 236.182 682.724 235.251L681.289 237.175C681.176 236.081 680.849 234.748 680.169 233.88C674.78 226.962 659.962 220.648 653.428 213.855C647.448 216.711 649.865 211.843 645.95 209.428C633.927 201.994 612.31 191.73 598.701 186.712C597.769 186.372 597.316 186.976 595.793 185.743C595.642 185.316 595.252 184.875 594.823 184.775C594.232 184.636 593.3 184.951 592.885 184.775C579.225 178.926 569.795 176.423 555.972 172.159C555.544 172.033 554.436 170.637 553.064 170.222C552.296 169.995 550.911 170.448 550.155 170.222C544.414 168.474 539.769 167.392 535.589 162.461H535.564Z" fill="#1A907E"/>
<path d="M348.104 401.194C348.67 407.357 347.701 414.766 348.431 420.942C350.143 435.658 356.841 451.796 356.879 466.739C356.916 479.015 350.748 480.21 341.079 474.902C335.3 471.732 330.428 466.323 326.739 461.368C325.039 460.135 323.378 460.06 321.326 457.506C320.344 456.274 320.255 455.003 319.941 454.575C323.894 454.877 325.077 459.129 326.739 461.368C332.002 465.191 340.437 474.235 346.87 475.707C353.077 477.115 354.512 474.789 354.94 468.625C355.884 455.179 347.802 430.929 346.291 416.124C345.976 413.005 346.341 394.616 345.095 393.546C340.915 393.484 336.697 393.006 332.568 392.477V391.509C341.834 392.704 346.895 387.974 348.104 401.219V401.194Z" fill="#1A907E"/>
<path d="M386.956 445.834L393.225 448.764C414.477 464.273 447.524 478.222 474.857 475.908C482.914 475.229 480.119 472.94 479.238 466.21C489.561 479.392 468.625 478.499 460.315 477.845C434.507 475.782 407.124 461.204 386.968 445.834H386.956Z" fill="#1A907E"/>
<path d="M157.723 266.293C159.737 266.759 157.345 268.558 156.955 269.098C148.331 280.695 140.991 297.563 138.65 311.55C137.126 320.656 139.531 326.656 132.468 334.24C136.333 327.071 135.301 319.184 136.623 311.7C139.607 294.657 147.034 279.538 157.723 266.306V266.293Z" fill="#1A907E"/>
<path d="M297.594 386.628V387.597C294.686 387.672 291.753 387.534 288.844 387.597C290.695 399.974 295.391 412.514 300.641 423.847C304.481 432.136 311.027 443.846 316.051 450.676C300.477 433.243 290.418 408.653 286.906 385.66C290.405 386.075 294.069 386.301 297.594 386.628Z" fill="#1A907E"/>
<path d="M539.454 79.9738C540.939 76.6657 544.49 71.4458 545.056 68.578C545.283 67.4082 546.718 57.069 546.265 56.6791C545.988 56.4401 544.036 57.0061 543.117 56.6414C542.236 56.3018 542.45 55.0188 541.67 54.7798C531.195 51.5472 510.233 59.5721 500.35 64.4524C490.468 69.3327 481.164 78.7663 471.47 82.8668L482.398 73.8357C495.075 64.4775 527.733 46.6418 543.092 53.522C553.793 58.3268 545.862 74.4017 539.466 79.9486L539.454 79.9738Z" fill="#1A907E"/>
<path d="M533.625 159.555L527.078 153.48C523.755 148.424 523.327 124.689 524.195 118.438C524.523 116.073 526.6 110.488 527.796 108.124C529.017 127.192 519.726 140.173 533.625 159.555Z" fill="#1A907E"/>
<path d="M539.454 80.9422L527.796 107.142C527.078 99.9352 531.925 90.4764 536.017 83.81C536.936 82.3132 537.15 80.829 539.454 80.9296V80.9422Z" fill="#1A907E"/>
<path d="M420.948 389.546C424.359 394.905 427.23 402.049 430.491 407.672C434.57 414.703 439.127 421.432 443.282 428.375C436.357 420.614 430.415 410.992 424.825 401.206C422.358 396.88 419.928 392.351 417.712 388.377C416.365 385.974 414.98 383.459 414.137 380.83C416.541 383.672 418.921 386.402 420.935 389.559L420.948 389.546Z" fill="#1A907E"/>
<path d="M414.149 139.166C414.816 136.16 418.492 133.632 420.947 131.406C420.507 133.393 419.009 135.909 417.586 137.292C416.163 138.676 414.539 138.839 414.149 139.179V139.166Z" fill="#1A907E"/>
<path d="M123.719 341.989C121.251 344.228 117.915 347.976 114.44 350.718C111.167 353.309 106.748 355.988 103.663 357.9C100.226 360.026 96.8396 364.617 92.6221 365.283C93.2012 364.705 93.5411 363.372 94.5986 362.931L123.706 341.989H123.719Z" fill="#1A907E"/>
<path d="M450.093 101.319C449.388 104.627 444.427 107.734 441.355 109.08C444.251 106.3 447.386 103.759 450.093 101.319Z" fill="#1A907E"/>
<path d="M474.378 461.355C471.596 460.802 469.783 460.789 470.488 457.469C471.734 458.764 472.905 459.783 474.378 461.355Z" fill="#1A907E"/>
<path d="M421.93 130.437C422.093 128.588 424.322 126.89 425.82 125.582C426.147 129.532 422.824 129.594 421.93 130.437Z" fill="#1A907E"/>
<path d="M444.264 429.331C447.55 432.954 451.578 436.614 453.983 440.978C451.792 438.84 448.532 436.287 446.354 433.57C445.246 432.186 444.264 431.369 444.264 429.344V429.331Z" fill="#1A907E"/>
<path d="M426.776 124.613C428.325 121.255 431.963 118.488 434.544 115.884C432.782 118.111 431.044 121.683 429.143 123.632C428.123 124.676 426.877 124.538 426.776 124.626V124.613Z" fill="#1A907E"/>
<path d="M459.799 92.5896C457.634 94.9543 456.299 98.8032 452.031 99.3818C454.763 96.9919 456.501 94.187 459.799 92.5896Z" fill="#1A907E"/>
<path d="M470.488 83.8605C470.362 83.9988 470.802 85.068 470.274 85.5585C469.241 86.5396 467.063 87.3446 465.641 87.7345C466.988 86.3258 468.637 83.9234 470.5 83.8479L470.488 83.8605Z" fill="#1A907E"/>
<path d="M464.659 88.7029C464.268 89.1305 464.885 91.8222 460.769 91.6084C461.776 90.4386 463.198 88.5519 464.659 88.7029Z" fill="#1A907E"/>
<path d="M477.286 464.273L476.317 463.305C476.619 463.644 476.997 463.921 477.286 464.273Z" fill="#1A907E"/>
<path d="M468.549 455.532L466.61 453.594C467.265 454.249 467.895 454.877 468.549 455.532Z" fill="#1A907E"/>
<path d="M378.218 439.041C377.879 438.727 377.564 438.4 377.249 438.073L378.218 439.041Z" fill="#9DD6C2"/>
<path d="M376.267 438.073C376.065 437.821 375.662 437.532 375.297 437.104L376.267 438.073Z" fill="#9DD6C2"/>
<path d="M436.496 113.935C437.15 113.281 437.78 112.639 438.434 111.998L436.496 113.935Z" fill="#1A907E"/>
<path d="M125.67 340.052C126.098 339.636 127.206 339.486 127.609 339.083L126.148 341.007L125.67 340.052Z" fill="#1A907E"/>
<path d="M343.244 377.899C345.321 375.698 343.471 368.353 345.397 366.466C346.089 365.787 357.483 363.636 359.384 363.46C371.344 362.365 391.525 364.126 401.509 369.158C402.025 369.422 402.252 369.988 402.478 370.126C402.982 371.484 403.939 372.088 405.387 372.063C408.786 374.616 411.405 377.572 414.124 380.792C414.967 383.421 416.352 385.937 417.699 388.339C419.915 392.314 422.345 396.855 424.812 401.169C425.001 403.106 424.397 408.515 422.911 409.508C421.426 410.502 419.537 408.791 417.775 409.143C416.365 409.42 414.59 411.823 412.198 410.879V406.024C408.861 404.917 408.887 408.263 408.131 408.703C404.103 411.08 405.852 405.571 405.387 405.043C403.448 404.578 402.73 407.005 401.018 407.018C398.777 407.03 398.173 403.634 395.693 404.074C396.448 405.219 396.435 410.615 396.662 410.867C397.266 411.533 402.441 408.112 402.478 412.301C401.484 413.395 399.847 414.703 398.311 414.502C395.592 414.15 392.268 409.546 391.337 409.898C387.144 411.496 390.556 416.162 389.461 417.697C387.887 419.91 380.371 416.69 383.556 421.571C384.211 422.577 387.056 421.973 385.986 424.438C384.261 425.306 381.001 424.426 379.817 424.74C378.18 425.18 376.77 428.338 375.348 427.331C374.869 426.992 374.769 423.08 370.45 424.438C371.105 420.527 377.312 421.47 376.267 415.709C371.105 414.703 372.062 417.835 370.513 419.961C369.254 421.696 365.906 417.281 365.024 415.785C364.143 414.288 363.665 412.527 363.639 410.841C360.882 410.615 360.756 412.628 360.731 414.728C352.296 404.955 345.674 390.616 343.244 377.849V377.899Z" fill="#30A18F"/>
<path d="M240.966 323.26C240.45 323.977 235.477 328.253 234.381 328.757C233.286 329.26 232.052 329.977 230.819 330.165C221.804 331.511 212.324 320.367 219.891 311.411C223.491 307.16 236.371 303.6 240.324 308.481C242.678 311.386 243.068 320.329 240.966 323.26Z" fill="#1A907E"/>
<path d="M558.88 277.941C502.692 259.174 437.427 255.665 378.709 260.482C362.695 261.803 346.341 266.055 330.617 267.262C331.775 265.828 333.487 265.79 335.124 265.463C393.2 253.766 454.134 253.615 512.273 264.822C527.871 267.828 544.402 271.664 558.88 277.941Z" fill="#1A907E"/>
<path d="M323.818 269.212C292.571 277.488 241.532 286.142 214.062 299.299C214.968 297.135 216.68 296.494 218.657 295.638C228.716 291.249 246.556 287.274 257.773 284.255C278.105 278.771 298.866 273.954 319.362 269.111C320.658 268.809 323 267.426 323.831 269.224L323.818 269.212Z" fill="#1A907E"/>
<path d="M401.522 369.17C391.538 364.139 371.344 362.39 359.397 363.472C357.483 363.648 346.102 365.799 345.41 366.478C343.471 368.365 345.322 375.698 343.257 377.912C341.154 366.856 343.849 364.466 354.55 362.504C366.737 360.265 383.493 361.422 395.277 365.246C397.468 365.963 400.351 367.019 401.547 369.17H401.522Z" fill="#1A907E"/>
<path d="M332.556 391.484V392.452C325.921 391.597 319.248 390.389 312.626 389.547C308.975 389.081 304.531 390.553 301.472 387.597C312.727 387.999 321.804 390.087 332.556 391.484Z" fill="#2C9F8D"/>
<path d="M577.336 283.765C578.004 284.016 578.608 284.469 579.275 284.733C580.245 285.11 581.239 285.349 582.183 285.702C590.279 288.783 598.512 291.664 606.544 294.884C608.043 295.487 609.944 294.783 609.377 297.336C596.372 292.72 583.505 287.362 570.525 282.783C571.533 280.834 575.372 283.035 577.324 283.752L577.336 283.765Z" fill="#1A907E"/>
<path d="M610.359 297.349C630.767 304.443 647.322 317.524 664.759 329.373L610.359 297.349Z" fill="#1A907E"/>
<path d="M360.731 415.747C363.35 416.313 363.98 417.583 364.345 420.149L363.652 420.589C362.796 419.168 361.071 417.231 360.744 415.734L360.731 415.747Z" fill="#30A18F"/>
<path d="M665.728 330.354C667.982 331.486 666.584 328.882 668.636 332.291C667.214 332.291 666.194 331.7 665.728 330.354Z" fill="#1A907E"/>
<path d="M329.648 267.275C329.119 268.696 327.583 267.992 326.739 268.243L325.757 267.287C327.054 267.212 328.363 267.325 329.66 267.262L329.648 267.275Z" fill="#1A907E"/>
<path d="M299.533 387.61C299.218 387.61 297.922 387.61 297.594 387.61V386.641C298.413 386.717 299.294 386.641 299.533 387.61Z" fill="#2C9F8D"/>
<path d="M405.412 372.075C403.964 372.101 402.995 371.484 402.504 370.138C403.662 370.843 404.317 371.245 405.412 372.075Z" fill="#1A907E"/>
<path d="M212.11 300.267C212.299 300.166 212.538 299.575 213.08 299.299L212.11 300.267Z" fill="#1A907E"/>
<path d="M202.404 307.059C201.12 308.04 199.848 309.059 198.514 309.965C199.622 308.72 200.427 307.072 201.913 306.103L202.391 307.059H202.404Z" fill="#1A907E"/>
<path d="M186.855 321.612C187.195 321.31 187.498 320.958 187.825 320.644L186.855 321.612Z" fill="#1A907E"/>
<path d="M184.917 324.53C182.714 323.939 185.219 323.298 185.886 322.593L184.917 324.53Z" fill="#1A907E"/>
<path d="M592.872 184.787C593.627 186.724 590.518 187.869 589.573 187.756C588.554 187.643 587.181 180.687 584.135 182.85C583.631 183.215 586.829 185.215 586.073 186.712C581.68 186.913 581.34 184.901 584.135 181.869H579.275C578.973 183.618 579.716 192.07 579.275 192.536C578.746 193.102 575.523 191.366 574.126 191.693C571.507 192.322 572.577 196.145 569.581 195.441C567.793 192.309 573.194 188.812 571.507 186.712C569.946 184.775 569.871 189.668 567.151 188.636C565.892 188.158 565.439 186.511 565.678 185.253C565.741 184.938 572.074 183.404 569.568 180.888C568.511 179.832 565.502 182.75 564.23 182.8C563.84 182.813 557.193 180.196 556.928 179.907C556.538 179.479 557.898 177.479 557.936 176.586C557.936 176.347 554.461 175.253 555.959 172.159C569.77 176.423 579.212 178.926 592.872 184.775V184.787Z" fill="#30A18F"/>
<path d="M614.249 233.301C612.852 239.565 617.799 235.439 619.99 239.804C620.569 242.118 617.208 245.376 614.979 244.823C614.589 244.722 609.012 241.401 608.823 241.099C608.105 239.892 609.415 238.672 609.402 237.766C609.402 237.188 602.541 233.892 614.249 233.301Z" fill="#30A18F"/>
<path d="M589.964 215.843V220.685C587.194 219.943 586.338 218.497 583.178 219.717C582.699 216.987 583.669 218.258 584.651 217.792C585.406 217.44 589.775 215.629 589.964 215.843Z" fill="#30A18F"/>
<path d="M599.67 215.843L600.652 220.685C594.811 221.528 594.156 216.949 599.67 215.843Z" fill="#30A18F"/>
<path d="M553.051 170.222C552.724 172.146 551.956 174.989 549.664 175.09C548.72 175.102 548.77 170.574 550.143 170.222C550.911 170.448 552.283 169.995 553.051 170.222Z" fill="#30A18F"/>
<path d="M588.982 260.47C588.34 261.061 585.583 260.256 585.117 259.011C583.833 255.64 590.958 258.646 588.982 260.47Z" fill="#30A18F"/>
<path d="M597.731 226.521C599.708 228.358 592.582 231.364 593.866 227.981C594.345 226.735 597.089 225.918 597.731 226.521Z" fill="#30A18F"/>
<path d="M603.573 239.137C604.215 238.534 607.426 239.59 607.438 240.584C607.463 243.477 601.722 240.848 603.573 239.137Z" fill="#30A18F"/>
<path d="M585.104 225.54C584.097 226.534 581.214 223.616 582.196 222.635C583.178 221.654 586.086 224.559 585.104 225.54Z" fill="#30A18F"/>
<path d="M598.701 244.961H596.774V247.866H598.701V244.961Z" fill="#30A18F"/>
<path d="M577.336 283.765C577.059 280.192 580.106 281.111 579.275 284.733C578.608 284.469 578.003 284.004 577.336 283.765Z" fill="#30A18F"/>
<path d="M622.017 272.13C623.074 273.186 621.148 275.123 620.091 274.054C619.033 272.985 620.959 271.061 622.017 272.13Z" fill="#30A18F"/>
<path d="M622.017 231.364C623.074 232.421 621.148 234.358 620.091 233.289C619.033 232.219 620.959 230.295 622.017 231.364Z" fill="#30A18F"/>
<path d="M595.793 185.756C595.44 185.467 595.113 185.14 594.823 184.787C595.251 184.888 595.642 185.328 595.793 185.756Z" fill="#30A18F"/>
</g>
</g>
<defs>
<clipPath id="clip0_504_11282">
<rect width="669" height="516" fill="white"/>
</clipPath>
<clipPath id="clip1_504_11282">
<rect width="904" height="644" fill="white" transform="translate(79 52)"/>
</clipPath>
</defs>
</svg>
