<svg width="669" height="516" viewBox="0 0 669 516" fill="none" xmlns="http://www.w3.org/2000/svg">
<g clip-path="url(#clip0_504_7269)">
<rect width="669" height="516" fill="#D9D9D9" fill-opacity="0.6"/>
<g clip-path="url(#clip1_504_7269)">
<path d="M44.27 294.69C52.38 325.33 106.4 346.73 132.68 357.65C136.86 359.39 135.78 363.24 146.08 363.01C145.52 367.54 145.9 366.28 149 367.41C153.57 369.07 156.96 370.79 161.25 372.62C221.6 398.44 285.85 409.26 351.03 415.25C355.29 445.44 373.36 475.42 396.56 494.97C403.9 501.16 424.26 515.9 433.1 507.74C438.17 503.06 432.73 472.52 432.84 464.36C434.45 448.8 438.49 433.99 443.46 419.28C448 419.03 452.25 417.47 456.86 417.94C490.5 450.45 559.5 520.4 608.96 515.79C634.01 513.46 603.27 481.57 596.95 471.41C584.2 450.88 580.6 436.58 572.05 415.26C570.81 410.4 574.7 410.59 578.22 410.07C637.31 401.27 693.99 395.86 752.89 383.11C753.02 386.09 758.25 389.33 760.48 390.93C777.75 403.25 812.29 418.49 833.61 414.94C856.57 411.11 834.15 391.38 828.99 381.35C826.55 376.61 825.85 370.34 822.54 365.7C830.6 363.65 838.93 362.31 846.94 359.96L889.52 346.95C899.82 351.75 908.39 359.7 918.96 365.06C932.46 371.91 954.08 381.17 968.99 376.19C976.14 373.8 964.16 356.96 962.55 352.28C954.81 329.87 973.65 319.54 992.37 313.84C1008.3 308.99 1024.13 307.36 1036.92 319.43C1070.17 350.8 1096.24 387.8 1136.11 413.14C1151.74 423.08 1188.64 443.91 1177.9 406.18C1169.58 376.93 1131.06 329.44 1136.61 300C1140.2 280.96 1166.8 259.78 1179.56 245.16C1194.87 227.61 1216.69 203.6 1228.17 183.93C1233.64 174.56 1237.31 157.06 1251.72 158.12C1258.09 158.59 1264.75 166.17 1269.81 157.25C1272.64 152.26 1274.05 136.25 1276.27 128.89C1280.94 113.42 1289.93 97.93 1293.68 82C1297.41 66.09 1294.84 62.17 1278.41 68.07C1235.96 83.32 1184.29 127.06 1146.63 153.3C1113.86 176.12 1070.85 210.55 1037.28 228.81C1014.87 241 984.14 235.83 964.1 220.8C953.47 212.83 951.49 205.29 952.5 192.24C952.91 186.93 958.87 168.79 951.6 166.33C941.33 162.86 921.81 175.34 913.22 181.09C900.58 189.54 890.85 204.1 874.14 200.91C825.78 186.44 772.69 178.66 724.77 164.1C700.83 156.83 672.69 141.31 664.11 116.25C657.67 97.45 659.51 72.74 660.48 52.93C661.39 34.32 673.16 -1.08999 641.64 4.63001C611.79 10.05 572.33 51.19 552.61 73.66C537.85 90.48 508.64 134.93 491.25 143.58C481.52 148.41 475.16 146.07 465.57 147.37C347.52 163.39 239.93 190.7 130.04 236.48C110.76 244.51 59 265.84 46.98 280.68C42.12 286.69 42.36 287.51 44.26 294.71L44.27 294.69Z" fill="#FFFDF5"/>
<path d="M44.27 294.69C42.37 287.49 42.12 286.67 46.99 280.66C59.01 265.82 110.76 244.49 130.05 236.46C239.94 190.68 347.52 163.37 465.58 147.35C475.17 146.05 481.54 148.39 491.26 143.56C508.65 134.92 537.86 90.47 552.62 73.64C572.34 51.17 611.8 10.03 641.65 4.60999C673.17 -1.11001 661.39 34.3 660.49 52.91C659.53 72.72 657.69 97.43 664.12 116.23C672.7 141.29 700.84 156.81 724.78 164.08C772.7 178.64 825.79 186.43 874.15 200.89C890.86 204.08 900.59 189.52 913.23 181.07C921.83 175.32 941.34 162.84 951.61 166.31C958.88 168.77 952.92 186.91 952.51 192.22C951.5 205.27 953.48 212.81 964.11 220.78C984.15 235.81 1014.88 240.98 1037.29 228.79C1070.86 210.53 1113.87 176.1 1146.64 153.28C1184.3 127.05 1235.97 83.3 1278.42 68.05C1294.84 62.15 1297.42 66.07 1293.69 81.98C1289.95 97.92 1280.95 113.4 1276.28 128.87C1274.06 136.23 1272.65 152.24 1269.82 157.23C1264.76 166.15 1258.1 158.57 1251.73 158.1C1237.32 157.04 1233.64 174.54 1228.18 183.91C1216.7 203.59 1194.88 227.59 1179.57 245.14C1166.82 259.76 1140.21 280.94 1136.62 299.98C1131.07 329.43 1169.59 376.91 1177.91 406.16C1188.65 443.89 1151.75 423.06 1136.12 413.12C1096.25 387.78 1070.18 350.78 1036.93 319.41C1024.14 307.34 1008.3 308.97 992.38 313.82C973.65 319.52 954.81 329.85 962.56 352.26C964.18 356.94 976.15 373.78 969 376.17C954.09 381.15 932.47 371.89 918.97 365.04C908.4 359.68 899.83 351.72 889.53 346.93C868.75 337.26 835.66 336.91 812.45 337.5C738.17 339.38 660.8 348.27 586.18 352.35C575.69 352.92 561.55 350.98 551.58 353.92C540.26 357.26 555.11 371.85 556.97 376.1C560.92 385.15 562.45 399.65 566.59 408.04C567.96 410.82 570.6 411.59 572.07 415.26C580.62 436.58 584.21 450.88 596.97 471.41C603.29 481.58 634.03 513.46 608.98 515.79C559.51 520.4 490.52 450.45 456.88 417.94C440.25 401.87 422.46 379.33 405.52 364.82C403.95 363.47 388.7 354.04 387.61 353.87C384.71 353.4 378.74 356.53 373.21 356.33C362.02 355.94 342.82 351.21 330.68 349.23C264.52 338.43 196.89 325.97 131.09 313.06C102.07 307.37 73.17 300.99 44.3 294.7L44.27 294.69ZM183.97 265.59C172.61 280.56 191.13 309.76 211.1 302.78C235.52 294.25 216.86 245.99 191.14 260.05C190.47 260.42 184.24 265.23 183.97 265.59Z" fill="#3EB19D"/>
<path d="M44.27 294.69C73.14 300.98 102.05 307.36 131.06 313.05C196.86 325.96 264.5 338.42 330.65 349.22C342.79 351.2 361.99 355.92 373.18 356.32C378.7 356.51 384.67 353.38 387.58 353.86C388.67 354.04 403.92 363.47 405.49 364.81C422.43 379.32 440.22 401.86 456.85 417.93C452.25 417.46 448 419.02 443.45 419.27C414.39 420.84 380.17 417.93 351.02 415.25C285.84 409.26 221.59 398.44 161.24 372.62C156.95 370.79 153.56 369.07 148.99 367.41C145.89 366.28 145.52 367.55 146.07 363.01C160 362.7 172.96 359.82 188.25 360.34C192.92 360.5 213.18 364.45 215.59 361.55C216.69 358.72 215.26 357.14 214.38 354.97C214.1 354.28 215.17 352.6 213.57 352.21C210.54 351.47 208.5 353.58 207.69 353.63C206.37 353.71 205 353.65 203.67 353.63C204.42 349.58 201.62 351.04 199.04 350.95C193.52 350.76 185.9 349.95 180.9 352.29C166.55 352.31 152.6 351.78 138.44 354.7C136.18 355.17 133.5 354.79 132.68 357.65C106.4 346.73 52.37 325.33 44.27 294.69Z" fill="#CFE9DC"/>
<path d="M889.53 346.94L846.95 359.95C838.94 362.3 830.61 363.63 822.55 365.69C799.45 371.58 776.19 378.06 752.89 383.1C693.99 395.84 637.31 401.26 578.22 410.06C574.7 410.58 570.81 410.39 572.05 415.25C570.58 411.58 567.94 410.81 566.57 408.03C562.44 399.64 560.91 385.14 556.95 376.09C555.09 371.84 540.24 357.25 551.56 353.91C561.53 350.97 575.68 352.92 586.16 352.34C660.78 348.26 738.15 339.38 812.43 337.49C835.64 336.9 868.73 337.25 889.51 346.92L889.53 346.94Z" fill="#CFE9DC"/>
<path d="M443.46 419.27C438.49 433.98 434.45 448.79 432.84 464.35C432.74 472.51 438.17 503.05 433.1 507.73C424.26 515.9 403.91 501.15 396.56 494.96C373.36 475.41 355.29 445.43 351.03 415.24C380.18 417.92 414.4 420.83 443.46 419.26V419.27Z" fill="#3EB19D"/>
<path d="M180.9 352.29C188.89 352.28 196.21 353.53 203.67 353.63C205 353.65 206.37 353.71 207.69 353.63C208.83 355.8 212.24 354.89 214.39 354.97C215.27 357.14 216.7 358.72 215.6 361.55C213.19 364.45 192.92 360.5 188.26 360.34C172.97 359.81 160.01 362.69 146.08 363.01C135.79 363.24 136.87 359.39 132.68 357.65C133.5 354.79 136.18 355.17 138.44 354.7C152.6 351.78 166.55 352.31 180.9 352.29Z" fill="#3EB19D"/>
<path d="M183.97 265.59C184.24 265.23 190.47 260.42 191.14 260.05C216.86 245.99 235.52 294.25 211.1 302.78C191.12 309.76 172.6 280.56 183.97 265.59ZM203.37 268.24C201.67 267.24 198.97 268.11 196.98 267.91C203.48 275.03 195.4 280.65 188.96 274.59C183.17 292.05 214.48 299.22 214.47 281.96C214.47 274.99 209.57 273.87 205.14 271.06C204.17 270.44 203.92 268.56 203.37 268.24Z" fill="#FFFDF5"/>
<path d="M180.9 352.29C185.91 349.95 193.53 350.76 199.04 350.95C201.62 351.04 204.42 349.58 203.67 353.63C196.21 353.53 188.88 352.28 180.9 352.29Z" fill="#FFFDF5"/>
<path d="M207.69 353.63C208.5 353.58 210.55 351.47 213.57 352.21C215.18 352.6 214.1 354.28 214.38 354.97C212.23 354.89 208.83 355.8 207.68 353.63H207.69Z" fill="#FFFDF5"/>
<path d="M203.37 268.24C203.92 268.56 204.17 270.45 205.14 271.06C209.56 273.87 214.46 274.99 214.47 281.96C214.48 299.23 183.17 292.05 188.96 274.59C195.4 280.65 203.49 275.03 196.98 267.91C198.97 268.11 201.67 267.24 203.37 268.24Z" fill="#3EB19D"/>
</g>
</g>
<defs>
<clipPath id="clip0_504_7269">
<rect width="669" height="516" fill="white"/>
</clipPath>
<clipPath id="clip1_504_7269">
<rect width="1252.19" height="512" fill="white" transform="translate(43 4)"/>
</clipPath>
</defs>
</svg>
