<svg width="2303" height="516" viewBox="0 0 2303 516" fill="none" xmlns="http://www.w3.org/2000/svg">
<g clip-path="url(#clip0_452_1214)">
<rect width="2303" height="516" fill="#B6DFDB"/>
<g clip-path="url(#clip1_452_1214)">
<path d="M1246.06 475.108C1266.68 480.308 1284.96 500.43 1291.27 520.414C1292.32 523.732 1292.05 532.897 1296.94 529.096C1287.68 537.817 1279.67 551.414 1270.62 561.016C1250.72 582.125 1223.92 597.73 1195.8 604.765C1188.08 606.701 1178.99 608.358 1171.11 607.181C1186.54 603.401 1212.44 591.313 1224.98 581.745C1229.85 578.04 1228.56 570.415 1222.42 571.579C1216.98 572.61 1210.84 580.083 1205.89 583.472C1195.52 590.566 1169.34 606.107 1156.65 602.41C1154.37 601.745 1153.83 599.433 1151.45 601.751C1145.98 591.425 1153.55 575.676 1158.47 566.358C1170.75 543.083 1182.63 517.834 1204.07 501.671C1217.39 491.628 1233.52 486.086 1246.07 475.111L1246.06 475.108ZM1196.38 534.792C1189.1 541.013 1192.23 554.346 1201.28 557.09C1216.41 561.671 1226.6 540.062 1210.76 532.51C1205.51 529.995 1200.8 531.04 1196.39 534.801L1196.38 534.792ZM1158.47 593.237C1158.51 595.062 1162.01 599.064 1164.05 599.093C1168.13 599.151 1169.69 590.261 1165.28 588.558C1163.32 587.797 1158.43 591.427 1158.46 593.229L1158.47 593.237Z" fill="#80C9B3"/>
<path d="M1284.97 430.246C1288.72 429.019 1291.69 431.073 1294.83 432.811C1308.8 440.526 1320.6 453.122 1330.52 465.487C1334.34 470.24 1338.91 475.472 1340.79 481.272C1330.94 494.676 1323.3 505.724 1310.89 517.427C1306.51 521.563 1301.11 525.149 1296.93 529.092C1292.05 532.889 1292.31 523.737 1291.25 520.41C1284.94 500.426 1266.67 480.305 1246.05 475.104C1259.91 462.966 1274.29 445.815 1284.96 430.237L1284.97 430.246Z" fill="#3FA190"/>
<path d="M1670.26 389.162C1644.19 399.149 1616.24 396.694 1589 398.095C1589.72 389.901 1585.28 374.716 1580.71 367.951C1582.31 365.184 1585.61 365.006 1588.13 363.557C1601.78 355.743 1621.8 339.922 1629.8 326.353C1632.51 321.752 1633.86 316.451 1636.9 312.02C1655.63 334.248 1668.36 360.27 1670.24 389.158L1670.26 389.162Z" fill="#3FA190"/>
<path d="M1319.6 381.953C1334.58 391.996 1350.44 401.392 1361.12 416.529C1364.92 421.905 1367.76 429.052 1371.63 434.174C1372.36 435.139 1373.09 435.583 1374.22 435.948C1362.65 450.563 1351.81 466.304 1340.8 481.267C1338.9 475.464 1334.34 470.24 1330.53 465.482C1320.61 453.109 1308.8 440.512 1294.84 432.806C1291.7 431.068 1288.73 429.013 1284.97 430.241C1297.31 412.222 1305.36 399.144 1319.61 381.948L1319.6 381.953Z" fill="#80C9B3"/>
<path d="M1402.78 306.195C1403.01 307.388 1403.31 308.305 1404.06 309.305C1407.08 313.365 1412.79 317.823 1416.37 321.823C1426.27 332.883 1432.32 343.446 1438.88 356.687C1441.14 361.261 1441.45 366.013 1446.28 369.077C1430.78 379.359 1418.65 388.861 1405.3 401.736C1401.55 399.962 1401.46 396.532 1399.71 393.538C1390.57 377.928 1377.63 361.639 1362.65 351.293C1359.5 349.12 1355.71 346.908 1352.01 346.196C1368.39 330.841 1384.01 318.518 1402.79 306.19L1402.78 306.195Z" fill="#80C9B3"/>
<path d="M1517.75 263.698C1519.69 269.461 1521.73 275.159 1522.94 281.135C1526.34 297.885 1524.08 316.885 1521.82 333.681L1519.09 343.507C1506.99 343.792 1496.12 346.054 1484.45 349.25C1482.75 349.227 1482.71 349.135 1482.08 347.522C1478.77 339.135 1477.56 328.692 1474.98 319.979C1471.79 309.226 1464.93 293.645 1458.49 284.462C1456.93 282.238 1455.06 280.873 1453.06 279.144C1476.12 269.549 1492.81 265.172 1517.73 263.685L1517.75 263.698Z" fill="#80C9B3"/>
<path d="M1589 398.095C1616.24 396.694 1644.19 399.149 1670.26 389.162C1672.22 419.124 1664.3 436.111 1648.87 460.894C1646.04 457.546 1640.11 457.044 1635.98 455.507C1621.71 450.223 1607.58 442.991 1595.05 434.317C1590.57 431.21 1586.48 427.007 1582.2 424.112C1581.25 423.475 1580.47 423.343 1579.38 423.238C1583.53 417.524 1588.43 404.712 1589.01 398.089L1589 398.095Z" fill="#80C9B3"/>
<path d="M1555.81 442.534C1561.23 458.695 1570.89 475.264 1582.47 487.84C1584.72 490.28 1597.23 503.019 1599.02 503.737C1599.98 504.119 1601.42 503.517 1602.38 504.321C1581.02 516.402 1561.61 522.664 1538.45 529.782C1538.23 525.214 1534.98 523.058 1533.21 519.852C1528.79 511.879 1524.08 502.953 1521.11 494.314C1517.3 483.213 1515.39 471.611 1513.99 460.026C1528.52 455.687 1542.61 450.189 1555.81 442.534Z" fill="#80C9B3"/>
<path d="M1583.8 274.299L1582.53 285.902C1577.62 308.251 1568.73 330.048 1553.62 347.557C1544.18 344.008 1529.23 343.272 1519.11 343.519L1521.84 333.693C1524.09 316.903 1526.36 297.898 1522.96 281.147C1521.74 275.162 1519.71 269.473 1517.77 263.71C1540.18 262.379 1562.78 265.746 1583.81 274.303L1583.8 274.299Z" fill="#3FA190"/>
<path d="M1398.9 504.831C1400.87 503.573 1402.95 502.416 1404.95 501.219C1405.32 501.002 1405.69 500.779 1406.06 500.561C1407.19 501.134 1407.86 502.123 1408.41 503.22C1418.38 523.126 1421.78 532.789 1437.27 550.04C1441.35 554.596 1446.54 557.741 1449 563.761C1437.59 570.466 1424.9 579.605 1415.52 588.97C1413.92 589.538 1412.13 590.193 1410.54 589.232C1396.67 578.79 1382.96 565.846 1371.64 552.624C1367.09 547.318 1363.09 541.831 1359.8 535.632C1372.21 522.795 1383.82 514.48 1398.89 504.836L1398.9 504.831Z" fill="#3FA190"/>
<path d="M1583.8 274.299C1603.17 282.178 1623.4 295.987 1636.92 312.024C1633.87 316.454 1632.53 321.755 1629.81 326.356C1621.81 339.925 1601.78 355.743 1588.15 363.561C1585.62 365.01 1582.32 365.187 1580.72 367.955C1575.21 359.778 1562.83 351.011 1553.62 347.557C1568.73 330.048 1577.63 308.255 1582.53 285.902L1583.8 274.299Z" fill="#80C9B3"/>
<path d="M1462.84 475.624C1461.5 482.911 1464.65 491.369 1466.94 498.399C1471.36 511.994 1478.66 528.354 1487.03 539.973C1488.58 542.129 1489.81 543.102 1492.36 543.856C1477.58 549.342 1462.66 555.742 1449 563.761C1446.55 557.745 1441.37 554.599 1437.27 550.04C1421.79 532.784 1418.38 523.126 1408.41 503.22C1407.85 502.114 1407.18 501.126 1406.06 500.561C1423.92 490.088 1443.27 482.57 1462.84 475.633L1462.84 475.624Z" fill="#80C9B3"/>
<path d="M1579.37 423.243C1580.46 423.348 1581.24 423.471 1582.19 424.117C1586.48 427.007 1590.56 431.215 1595.04 434.323C1607.58 442.996 1621.7 450.228 1635.97 455.512C1640.11 457.044 1646.04 457.554 1648.86 460.899C1635.14 482.962 1625.33 491.347 1602.37 504.317C1601.41 503.514 1599.97 504.116 1599.01 503.734C1597.2 503.02 1584.71 490.285 1582.46 487.837C1570.88 475.26 1561.21 458.691 1555.79 442.531C1564.24 437.63 1573.57 431.225 1579.37 423.235L1579.37 423.243Z" fill="#3FA190"/>
<path d="M1453.08 279.157C1455.07 280.876 1456.95 282.237 1458.51 284.474C1464.94 293.662 1471.79 309.234 1475 319.991C1477.59 328.713 1478.79 339.148 1482.1 347.534C1482.73 349.147 1482.77 349.239 1484.47 349.262C1471.92 354.786 1459.17 360.04 1447.6 367.531L1447.38 368.405C1447.03 368.64 1446.64 368.828 1446.28 369.063C1441.45 366 1441.15 361.248 1438.89 356.673C1432.34 343.436 1426.27 332.87 1416.37 321.809C1412.8 317.817 1407.09 313.351 1404.06 309.291C1403.31 308.291 1403.02 307.369 1402.78 306.181C1419.72 295.061 1434.38 286.935 1453.09 279.151L1453.08 279.157Z" fill="#3FA190"/>
<path d="M1513.99 460.026C1515.39 471.616 1517.3 483.213 1521.11 494.314C1524.07 502.945 1528.78 511.876 1533.21 519.852C1534.99 523.052 1538.23 525.214 1538.45 529.782C1523.09 534.514 1507.46 538.245 1492.36 543.856C1489.81 543.102 1488.58 542.128 1487.03 539.973C1478.66 528.354 1471.36 511.994 1466.94 498.399C1464.64 491.36 1461.5 482.911 1462.84 475.624C1480.15 469.482 1496.53 465.232 1513.99 460.026Z" fill="#3FA190"/>
<path d="M1352 346.201C1355.7 346.914 1359.49 349.125 1362.64 351.298C1377.62 361.644 1390.55 377.924 1399.7 393.543C1401.45 396.537 1401.55 399.962 1405.3 401.741C1394.2 412.463 1383.78 423.881 1374.22 435.962C1373.1 435.592 1372.36 435.153 1371.63 434.187C1367.76 429.075 1364.92 421.919 1361.12 416.543C1350.44 401.406 1334.58 392.018 1319.6 381.967C1330.45 368.875 1339.23 358.181 1351.99 346.206L1352 346.201Z" fill="#3FA190"/>
<path d="M1404.95 501.219C1402.94 502.421 1400.87 503.573 1398.9 504.831C1399.64 503.152 1403 501.116 1404.95 501.219Z" fill="#62BEA5"/>
<path d="M1447.38 368.41L1447.6 367.537C1447.6 367.537 1447.73 368.184 1447.38 368.41Z" fill="#62BEA5"/>
</g>
<g clip-path="url(#clip2_452_1214)">
<path d="M2256.97 352.887C2217.87 342.087 2178.33 337.191 2140.11 322.605C2121.99 315.684 2102.84 304.182 2093.07 286.059C2066.05 235.888 2101.04 137.399 2103.81 81.1873C2106.51 26.4545 2063.96 6.86178 2024.25 43.3385C1976.75 86.9911 1941.98 199.651 1872.91 213.747C1827.81 222.949 1782.6 196.701 1744.13 178.421C1742.56 177.68 1733.43 174.883 1733.12 174.255C1735.95 168.126 1737.36 162.921 1736 156.152C1732.3 137.882 1714.91 150.244 1713.25 162.715C1697.33 154.149 1679.44 146.338 1661.95 141.422C1603.53 125.001 1583.46 165.75 1611.27 213.196C1638.42 259.496 1692.35 296.302 1722.37 343.963C1755.2 396.065 1716.8 440.401 1680.94 477.776C1678.01 480.832 1659.09 499.911 1657.19 500.339C1655.87 500.634 1651.44 497.048 1649.52 496.267C1625.03 486.335 1619.98 500.37 1627.17 521.461C1627.95 523.756 1630.58 526.254 1629.17 528.368L1599.2 557.046C1580.64 544.083 1561.26 563.339 1578.86 579.349C1563.1 597.762 1537.4 627.977 1556.58 652.032C1581.06 682.727 1640.21 657.044 1669.85 646.04C1720.09 627.407 1807.53 580.22 1859.58 592.771C1928.33 609.357 1966.69 715.703 2003.5 769.733C2019.86 793.746 2056.64 847.781 2090.75 834.83C2121.33 823.211 2115.35 774.643 2110.62 749.051C2134 734.203 2135.16 714.893 2103.97 711.069L2095.73 672.53C2100.31 669.134 2105.32 665.76 2108.04 660.446C2113.22 650.289 2112.29 638.916 2100.37 634.758C2098.08 633.96 2090.43 633.837 2089.28 632.449C2088.54 631.529 2086.63 619.921 2086.22 617.563C2075.67 556.952 2084.65 513.245 2146.7 490.563C2201.23 470.623 2310.19 470.588 2349.01 432.541C2374.22 407.816 2359.66 381.74 2331.66 369.769C2316.98 363.497 2300.64 360.096 2285.13 356.771C2291.8 331.916 2261.42 329.727 2256.94 352.877L2256.97 352.887Z" fill="#3FA190"/>
<path d="M1945.14 353.497C1991.3 363.203 1975.27 421.262 1937.66 420.665C1889.85 419.917 1905.03 345.066 1945.14 353.497Z" fill="#80C9B3"/>
<path d="M1984.9 247.987C2025.31 255.511 2005.86 311.959 1974.75 309.713C1933.22 306.719 1941.68 239.952 1984.9 247.987Z" fill="#80C9B3"/>
<path d="M1865.41 428.198C1900.15 438.489 1891.32 489.928 1852.14 482.256C1812.37 474.477 1824.64 416.102 1865.41 428.198Z" fill="#80C9B3"/>
<path d="M1788.12 467.585C1802.41 470.398 1808.76 482.525 1808.55 496.233C1808.15 522.752 1776.22 530.394 1758.69 510.797C1740.87 490.879 1766.16 463.264 1788.12 467.585Z" fill="#80C9B3"/>
<path d="M1956.52 464.125C1962.35 461.534 1970.27 463.982 1975.7 466.626C1995.5 476.241 1994.48 511.166 1973.16 517.501C1947.27 525.208 1923.84 499.592 1941 476.619C1943.13 473.78 1953.35 465.53 1956.52 464.125Z" fill="#80C9B3"/>
<path d="M1823.74 265.447C1856.43 273.918 1845.36 326.84 1812.31 320.244C1775.82 312.965 1788.56 256.334 1823.74 265.447Z" fill="#80C9B3"/>
<path d="M2097.68 369.417C2124.22 377.405 2128.06 415.25 2100.05 423.042C2052.2 436.358 2060.55 358.228 2097.68 369.417Z" fill="#80C9B3"/>
<path d="M2014.79 171.501C2024.72 173.603 2034.32 182.499 2035.5 192.912C2038.67 220.457 2001.93 234.394 1986.53 210.583C1974.12 191.366 1993.11 166.912 2014.78 171.496L2014.79 171.501Z" fill="#80C9B3"/>
<path d="M1716 514.454C1743.52 522.046 1735.66 563.808 1709.61 563.621C1672.88 563.356 1681.92 505.049 1716 514.454Z" fill="#80C9B3"/>
<path d="M2177.91 377.591C2202.44 385.02 2196.89 417.449 2170.78 419.585C2138.82 422.197 2141.98 366.718 2177.91 377.591Z" fill="#80C9B3"/>
<path d="M1761.82 231.885C1781.28 235.545 1784.32 268.62 1761.03 273.714C1726.9 281.194 1723.17 241.989 1751.76 233.177C1754.49 232.333 1759.03 231.364 1761.82 231.885Z" fill="#80C9B3"/>
<path d="M2042.11 149.759C2036.04 152.424 2028.14 151.725 2022.15 149.035C2000.25 139.206 2017.67 102.767 2042.68 114.096C2057.51 120.815 2056.8 143.317 2042.11 149.759Z" fill="#80C9B3"/>
<path d="M2033.02 422.519C2055.78 429.884 2045.89 470.413 2019.07 457.403C2002.94 449.575 2008.5 414.587 2033.02 422.519Z" fill="#80C9B3"/>
<path d="M1845.93 362.511C1858.9 366.206 1863.2 377.3 1856.8 389.088C1853.25 395.639 1841.71 397.944 1834.88 396.499C1808.05 390.823 1823.91 356.241 1845.93 362.511Z" fill="#80C9B3"/>
<path d="M1701.6 199.018C1714.75 201.487 1718.33 211.689 1715.3 223.88C1711.36 239.69 1696.18 239.25 1685.28 230.117C1676.6 222.834 1681.6 209.571 1688.38 202.473C1691.92 198.758 1696.69 198.103 1701.6 199.032L1701.6 199.018Z" fill="#80C9B3"/>
<path d="M2013.88 344.532C2024.52 346.624 2033.25 355.254 2030.11 366.728C2024.93 385.631 1989.73 377.19 1993.06 361.508C1995.55 349.812 2001.2 342.062 2013.87 344.547L2013.88 344.532Z" fill="#80C9B3"/>
<path d="M2254.94 419.585C2254.44 419.809 2245.11 420.968 2243.91 421.003C2226.15 421.469 2223.13 404.952 2232.6 392.218C2243.7 377.314 2266.82 390.455 2261.45 409.338C2260.76 411.732 2257.01 418.674 2254.93 419.58L2254.94 419.585Z" fill="#80C9B3"/>
<path d="M1898.18 513.648C1907.99 516.422 1916.51 528.103 1913.4 538.302C1906.35 561.397 1870.56 544.111 1881.15 522.477C1884.41 515.811 1890.71 511.545 1898.17 513.662L1898.18 513.648Z" fill="#80C9B3"/>
<path d="M1902.99 300.99C1915.23 302.52 1926.76 325.342 1913.79 333.052C1895.93 343.658 1872.93 322.321 1890.61 306.13C1893.42 303.556 1899.13 300.514 1902.99 300.99Z" fill="#80C9B3"/>
<path d="M2036.07 498.836C2039.39 497.384 2046.49 499.585 2049.47 501.406C2062.64 509.445 2051.8 548.622 2032.89 535.125C2022.34 527.601 2024.84 503.746 2036.07 498.85L2036.07 498.836Z" fill="#80C9B3"/>
<path d="M2068.77 326.045C2073.01 326.875 2078.77 331.687 2080.97 335.338C2091.86 353.255 2064.44 363.673 2051.26 349.945C2042 340.311 2057.19 323.776 2068.77 326.045Z" fill="#80C9B3"/>
<path d="M1783.98 404.249C1801.39 407.349 1800.39 432.903 1785.05 436.78C1776.8 438.862 1767.94 431.975 1766.72 423.766C1765.02 412.212 1771.48 402.045 1783.98 404.263L1783.98 404.249Z" fill="#80C9B3"/>
<path d="M1880.9 248.686C1894.56 252.283 1897.63 270.213 1885.9 277.741C1881.94 280.288 1872.11 277.457 1868.19 275.141C1851.04 264.937 1863.46 244.102 1880.9 248.686Z" fill="#80C9B3"/>
<path d="M2317.41 392.801C2324.56 394.177 2329.45 397.713 2330.44 405.21C2332.92 424.174 2300.2 428.743 2298.44 411.704C2297.13 399 2304.39 390.294 2317.41 392.801Z" fill="#80C9B3"/>
<path d="M1936.69 216.268C1941.27 217.337 1943.62 220.326 1945.03 224.592C1951.15 243.036 1918.32 258.308 1914.3 238.281C1911.91 226.428 1925.49 213.651 1936.71 216.273L1936.69 216.268Z" fill="#80C9B3"/>
<path d="M1649.42 165.039C1658.17 167.118 1664.56 173.258 1661.49 182.713C1657.17 196.032 1645.13 201.112 1635.35 189.318C1625.04 176.904 1633.03 161.144 1649.42 165.039Z" fill="#80C9B3"/>
<path d="M1779.86 340.918C1794.64 342.839 1800.24 355.833 1793.47 368.619C1788.62 377.768 1771.2 369.434 1767.92 359.969C1765.11 351.887 1770.76 339.747 1779.87 340.937L1779.86 340.918Z" fill="#80C9B3"/>
<path d="M2086.92 457.05C2099.98 458.684 2101.43 470.678 2094.74 480.179C2091.09 485.35 2086.99 486.895 2080.86 486.612C2055.02 485.436 2073.69 455.39 2086.92 457.035L2086.92 457.05Z" fill="#80C9B3"/>
<path d="M2047.21 266.335C2063.15 269.316 2057.33 301.492 2041.65 298.475C2026.86 295.634 2028.9 262.911 2047.21 266.335Z" fill="#80C9B3"/>
<path d="M2060.11 50.8456C2077.55 55.8897 2077.5 83.1748 2060.15 86.7303C2040.4 90.7815 2028.01 63.3879 2046.97 52.6663C2050.56 50.6288 2056.15 49.6998 2060.13 50.8504L2060.11 50.8456Z" fill="#80C9B3"/>
</g>
<g clip-path="url(#clip3_452_1214)">
<path d="M269.98 743.677C279.558 719.777 284.632 710.683 305.513 695.915C322.624 683.819 333.696 677.988 354.81 679.534C382.844 681.579 414.931 694.332 442.663 683.088C457.66 677.01 455.609 660.345 440.711 658.636C421.013 656.373 405.53 660.383 384.585 654.693C383.514 654.402 380.829 653.954 380.512 652.685C425.925 631.182 478.118 618.385 515.695 582.196C518.288 579.694 524.448 573.684 526.132 570.877C531.248 562.373 527.048 552.278 517.069 553.779C509.994 554.847 487.125 573.311 479.013 578.395C477.139 579.568 462.903 588.423 462.177 587.773C467.427 568.234 473.227 548.605 482.734 530.865C487.541 521.898 504.003 503.262 492.41 494.213C479.958 484.499 467.477 508.496 462.311 517.433C446.701 544.461 438.632 572.952 427.342 601.966L377.481 625.224L374.874 625.814C380.054 615.271 405.389 584.704 387.827 575.931C377.157 570.601 367.136 586.325 361.632 594.261C350.271 610.65 341.434 628.905 330.567 645.637C301.017 660.233 271.284 677.062 249.564 703.396C252.143 664.668 269.226 629.711 295.654 603.422C335.74 563.552 386.777 545.805 427.694 506.114C443.551 490.734 455.7 472.12 474.214 459.92C489.394 449.915 506.787 442.419 520.247 429.629C525.455 424.679 533.447 416.377 525.907 409.5C516.646 401.056 503.108 413.51 494.581 418.101C487.667 421.827 480.726 425.292 473.453 428.159C476.631 412.584 483.136 396.905 490.219 382.905C497.78 367.965 509.634 352.055 515.815 336.921C518.401 330.574 521.572 322.369 516.385 316.65C505.688 304.86 494.264 322.847 488.64 331.254C474.334 352.63 457.808 383.398 450.02 408.194C446.518 419.341 442.98 442.897 438.138 451.543C435.707 455.881 426.122 466.939 422.409 471.426C418.166 476.555 413.557 481.475 409.018 486.321C410.393 471.687 412.359 456.657 416.221 442.486C418.835 432.9 427.236 419.207 419.547 410.299C415.89 406.058 407.961 406.14 403.994 409.769C398.321 414.943 393.373 430.72 391.28 438.44C385.05 461.399 383.697 485.447 379.8 508.884C377.369 511.273 350.053 530.283 348.841 528.849C349.073 518.299 348.524 507.675 348.806 497.125C349.602 467.334 350.92 428.562 367.256 403.296C371.54 396.666 397.327 380.576 405.382 374.319C414.945 366.89 435.27 351.308 440.386 340.542C444.192 332.53 441.148 323.317 432.19 322.294C422.712 321.204 406.658 338.496 399.159 344.603L380.54 358.431C385.642 343.812 389.843 328.685 392.979 313.439C395.544 300.963 401.428 271.053 397.588 259.794C394.966 252.103 385.374 250.916 380.152 256.583C374.169 263.079 372.407 285.896 370.342 295.423C362.174 333.165 349.672 372.639 333.907 407.522C333.477 408.477 332.773 412.86 331.955 409.149C329.975 400.167 327.346 381.927 316.127 381.128C303.9 380.262 301.362 391.626 302.553 402.243C304.964 423.746 315.084 449.333 318.946 471.403C322.279 490.465 320.827 514.394 317.677 533.508C317.191 536.45 316.049 543.289 315.098 545.7C313.167 550.598 297.099 558.035 292.976 562.559C292.215 562.895 292.257 563.627 291.468 562.425C289.953 560.103 286.979 543.326 286.387 539.466C284.385 526.37 283.843 513.386 284.04 500.119C284.174 491.196 287.528 478.534 281.94 471.082C275.717 462.787 267.507 466.244 263.842 474.995C254.941 496.289 257.697 542.803 262.461 565.561C263.391 569.988 267.514 581.89 267.154 585.115C266.725 588.99 254.455 603.601 251.411 608.022C248.422 612.352 245.737 617.892 242.735 621.916C242.291 622.514 242.756 623.29 241.128 622.865C237.971 605.057 232.728 587.198 230.078 569.294C226.392 544.364 232.065 513.558 235.589 488.329C238.824 465.154 240.015 445.353 251.812 424.963C270.967 391.857 294.35 361.096 313.054 327.237C317.304 319.546 328.065 300.619 329.066 292.735C329.686 287.837 329.341 282.103 325.26 278.99C314.583 270.859 303.315 290.562 298.558 298.454C292.518 308.481 287.691 320.226 280.749 329.521C280.305 330.119 280.77 330.895 279.149 330.47C271.291 310.042 269.36 287.83 272.193 266.05C273.138 258.831 276.055 252.992 274.604 245.391C272.694 235.409 261.432 233.057 255.54 240.941C243.736 256.733 244.849 295.251 247.563 314.32C249.67 329.148 254.096 343.304 258 357.639C251.016 370.997 241.777 382.846 234.229 395.889C233.891 396.472 234.462 397.159 233.038 396.845C217.661 377.851 201.275 359.596 187.082 339.608C186.842 313.125 201.008 283.492 198.104 257.069C196.617 243.54 185.243 238.911 178.35 250.894C170.239 264.99 172.853 290.779 164.037 305.823C155.115 291.272 149.287 274.219 144.875 257.517C141.986 246.578 138.441 220.394 131.231 213.047C122.436 204.08 110.667 211.248 108.94 222.851C107.552 232.183 112.203 249.505 114.607 259.01C124.416 297.834 144.311 337.555 167.934 368.854C183.319 389.237 202.325 405.797 207.59 432.758C209.422 442.121 209.443 454.798 208.746 464.34C207.343 483.521 202.361 502.329 200.303 521.405L196.42 517.687L167.525 481.169C168.188 454.5 164.192 428.86 157.152 403.393C154.657 394.374 148.878 369.429 135.558 378.605C130.202 382.293 130.188 388.789 130.689 394.881C131.703 407.38 135.861 421.775 137.539 434.617C137.828 436.812 139.604 450.617 139.047 451.289C137.828 451.625 137.637 450.752 136.933 450.177C134.248 447.997 130.231 443.27 127.764 440.493C115.755 426.971 105.297 412.009 94.3241 397.562C95.8816 371.624 100.632 345.186 94.9373 319.382C90.3212 298.447 69.9824 301.724 69.4962 320.39C69.468 321.518 70.1022 322.787 70.0811 324.086C69.8908 337.503 71.3637 351.89 68.291 364.762C53.8087 349.412 43.5477 332.486 37.4728 311.632C35.0696 303.382 32.7863 284.164 27.4655 278.967C19.3187 271.008 9.13523 277.444 8.09926 288.315C5.36487 316.963 25.3795 354.922 40.6089 377.679C74.1827 427.845 117.707 469.798 154.516 517.321C174.509 543.132 192.769 565.105 202.593 597.658C212.001 628.823 216.3 663.608 210.141 695.945C198.386 680.661 185.024 668.379 170.239 656.552C165.186 652.506 163.621 653.872 162.952 645.622C161.725 630.443 163.064 616.959 160.661 601.055C158.998 590.058 153.438 558.826 145.411 552.316C139.322 547.38 129.639 550.889 128.539 559.132C126.679 573.072 134.628 594.575 135.509 609.799C135.692 613.024 135.664 624.94 134.473 627.329C133.782 628.711 133.317 627.456 132.704 626.941C130.463 625.075 127.193 621.692 124.952 619.49C119.878 614.517 114.966 609.059 110.554 603.415C109.42 581.188 111.337 558.893 108.673 536.786C106.925 522.226 98.5173 479.795 87.6573 471.03C82.1744 466.603 73.8796 467.327 71.6174 474.957C69.024 483.715 75.4864 500.164 77.4386 509.452C81.5049 528.782 83.0976 549.389 83.0624 569.13C64.8731 542.027 53.0828 510.781 34.9992 483.551C35.866 464.781 40.5102 413.92 25.9221 400.675C19.812 395.128 10.5095 396.561 7.84555 405.17C5.66791 412.211 7.40157 423.865 8.15564 431.436C8.804 437.925 11.2635 444.652 9.83997 451.289C-0.829788 440.105 -10.2381 427.143 -17.6378 413.263C-22.0424 404.998 -28.9771 385.123 -34.2485 379.389C-44.0655 368.705 -57.1314 376.051 -54.9749 390.909C-49.3863 429.435 -7.47548 472.762 13.5751 504.009C15.0832 506.256 26.5071 524.048 25.6684 525.131C11.2635 517 -4.31825 511.348 -18.6949 503.143C-25.8128 499.081 -38.2796 488.822 -45.3975 487.426C-57.7939 484.999 -63.911 496.759 -57.2794 507.473C-44.9465 527.408 4.35005 544.58 25.2315 555.071C39.9323 562.455 44.1537 565.173 54.1258 578.91C59.658 586.534 64.3727 594.747 70.06 602.31C76.7761 611.247 84.5142 619.408 91.1528 628.442C69.7921 626.59 49.5661 618.885 30.369 609.306C20.5238 604.393 -1.23854 587.28 -10.2099 600.092C-18.4201 611.822 -4.79042 620.647 3.22246 626.127C25.0553 641.067 47.6351 649.893 72.8578 656.037C92.6187 660.853 124.36 663.474 140.675 674.442C163.882 690.054 182.67 715.043 190.444 742.922C170.471 744.767 150.407 747.537 131.154 753.577C118.419 757.571 91.7236 767.726 99.4899 786.697C102.422 793.865 114.022 798.681 120.738 800.734C146.278 808.544 174.115 810.739 200.627 811.575C238.782 812.777 283.483 811.717 320.856 803.885C329.601 802.056 352.252 796.321 354.331 785.645C358.46 764.381 329.157 756.75 314.661 752.681C300.045 748.582 285.027 745.648 270.002 743.677H269.98Z" fill="#FFFCF0"/>
<path d="M190.422 742.93C182.649 715.05 163.86 690.061 140.653 674.449C124.339 663.473 92.5971 660.86 72.8362 656.044C47.6206 649.9 25.0337 641.074 3.20088 626.134C-4.81201 620.647 -18.4417 611.829 -10.2315 600.099C-1.26012 587.28 20.5022 604.4 30.3474 609.313C49.5445 618.885 69.7706 626.597 91.1312 628.449C84.4996 619.415 76.7616 611.254 70.0384 602.317C64.3511 594.746 59.6364 586.533 54.1042 578.918C44.1321 565.18 39.9108 562.462 25.2099 555.078C4.32847 544.595 -44.9681 527.415 -57.301 507.48C-63.9326 496.766 -57.8084 484.999 -45.4191 487.433C-38.2942 488.829 -25.8273 499.088 -18.7165 503.15C-4.33983 511.355 11.242 517.007 25.6468 525.138C26.4855 524.055 15.0687 506.263 13.5535 504.016C-7.49706 472.769 -49.4079 429.435 -54.9965 390.916C-57.153 376.059 -44.0871 368.704 -34.2701 379.396C-29.0057 385.13 -22.064 405.005 -17.6594 413.271C-10.2667 427.143 -0.851373 440.104 9.81838 451.296C11.242 444.659 8.78946 437.932 8.13405 431.443C7.37294 423.873 5.63928 412.225 7.82397 405.177C10.4879 396.576 19.7904 395.135 25.9005 400.682C40.4886 413.928 35.8444 464.788 34.9776 483.558C53.0612 510.788 64.8444 542.034 83.0408 569.137C83.069 549.403 81.4763 528.789 77.417 509.459C75.4649 500.178 69.0094 483.722 71.5958 474.964C73.851 467.334 82.1458 466.61 87.6357 471.037C98.4957 479.803 106.896 522.234 108.651 536.793C111.308 558.9 109.391 581.202 110.533 603.422C114.944 609.074 119.856 614.524 124.931 619.497C127.172 621.699 130.442 625.082 132.683 626.948C133.296 627.463 133.768 628.718 134.452 627.337C135.643 624.947 135.678 613.024 135.488 609.806C134.607 594.582 126.657 573.079 128.518 559.139C129.617 550.897 139.3 547.387 145.389 552.323C153.416 558.833 158.976 590.065 160.64 601.063C163.043 616.966 161.704 630.45 162.93 645.629C163.6 653.872 165.164 652.513 170.217 656.56C185.003 668.394 198.364 680.668 210.119 695.952C216.272 663.623 211.98 628.837 202.572 597.665C192.748 565.105 174.481 543.132 154.494 517.328C117.679 469.805 74.154 427.852 40.5873 377.686C25.3579 354.929 5.34329 316.97 8.07767 288.322C9.11364 277.444 19.2971 271.015 27.4439 278.974C32.7647 284.171 35.048 303.382 37.4512 311.639C43.5261 332.493 53.7871 349.419 68.2695 364.769C71.3421 351.89 69.8692 337.51 70.0595 324.093C70.0806 322.794 69.4393 321.525 69.4746 320.397C69.9679 301.732 90.2996 298.454 94.9157 319.389C100.61 345.193 95.86 371.631 94.3025 397.569C105.275 412.016 115.734 426.979 127.742 440.5C130.209 443.278 134.226 447.996 136.911 450.184C137.616 450.759 137.806 451.632 139.025 451.296C139.589 450.624 137.806 436.819 137.517 434.624C135.84 421.782 131.689 407.387 130.667 394.889C130.174 388.796 130.181 382.3 135.537 378.612C148.856 369.436 154.635 394.388 157.13 403.4C164.17 428.868 168.166 454.507 167.504 481.176L196.398 517.694L200.281 521.412C202.339 502.336 207.322 483.528 208.724 464.347C209.422 454.805 209.394 442.135 207.568 432.765C202.304 405.797 183.297 389.237 167.913 368.861C144.29 337.562 124.395 297.842 114.585 259.017C112.182 249.512 107.538 232.191 108.919 222.858C110.645 211.248 122.415 204.087 131.21 213.054C138.419 220.401 141.964 246.586 144.853 257.524C149.265 274.226 155.093 291.279 164.015 305.831C172.839 290.779 170.217 264.99 178.329 250.901C185.228 238.918 196.595 243.539 198.082 257.076C200.993 283.491 186.821 313.133 187.06 339.616C201.254 359.603 217.639 377.85 233.016 396.852C234.44 397.166 233.876 396.479 234.207 395.896C241.755 382.853 250.987 371.004 257.978 357.647C254.067 343.311 249.648 329.155 247.541 314.327C244.828 295.251 243.721 256.732 255.519 240.949C261.41 233.064 272.672 235.416 274.582 245.398C276.041 252.999 273.116 258.83 272.172 266.058C269.332 287.837 271.27 310.049 279.127 330.477C280.755 330.902 280.283 330.126 280.727 329.529C287.669 320.233 292.503 308.489 298.536 298.461C303.293 290.57 314.562 270.866 325.239 278.997C329.319 282.103 329.664 287.837 329.044 292.742C328.043 300.627 317.275 319.554 313.032 327.244C294.329 361.104 270.945 391.865 251.791 424.97C239.993 445.361 238.802 465.161 235.568 488.337C232.044 513.565 226.371 544.371 230.056 569.301C232.699 587.198 237.943 605.057 241.107 622.872C242.735 623.297 242.27 622.528 242.714 621.923C245.716 617.899 248.401 612.359 251.389 608.029C254.433 603.616 266.703 589.005 267.133 585.122C267.492 581.897 263.37 569.995 262.439 565.568C257.675 542.811 254.92 496.296 263.821 475.002C267.478 466.251 275.695 462.794 281.918 471.089C287.507 478.541 284.159 491.211 284.018 500.126C283.814 513.393 284.357 526.377 286.365 539.473C286.957 543.341 289.931 560.11 291.446 562.432C292.236 563.634 292.193 562.902 292.954 562.566C297.077 558.042 313.145 550.605 315.076 545.708C316.028 543.296 317.169 536.464 317.656 533.515C320.806 514.394 322.258 490.472 318.924 471.41C315.062 449.34 304.942 423.753 302.532 402.25C301.341 391.633 303.878 380.27 316.105 381.136C327.325 381.934 329.946 400.175 331.934 409.157C332.751 412.867 333.449 408.485 333.886 407.529C349.651 372.646 362.146 333.172 370.321 295.43C372.386 285.903 374.14 263.086 380.131 256.59C385.36 250.916 394.944 252.111 397.566 259.801C401.407 271.06 395.522 300.97 392.957 313.446C389.821 328.7 385.621 343.827 380.518 358.438L399.138 344.611C406.643 338.503 422.697 321.211 432.169 322.301C441.126 323.332 444.17 332.538 440.365 340.549C435.248 351.323 414.924 366.897 405.36 374.326C397.305 380.583 371.519 396.673 367.234 403.303C350.898 428.569 349.58 467.341 348.784 497.132C348.502 507.689 349.052 518.306 348.819 528.856C350.038 530.29 377.347 511.28 379.778 508.891C383.676 485.455 385.029 461.406 391.259 438.447C393.352 430.727 398.299 414.95 403.972 409.776C407.947 406.155 415.875 406.073 419.526 410.306C427.214 419.221 418.814 432.907 416.199 442.494C412.337 456.657 410.378 471.694 408.997 486.328C413.535 481.49 418.144 476.562 422.387 471.433C426.101 466.946 435.685 455.888 438.117 451.55C442.958 442.897 446.503 419.341 449.999 408.201C457.786 383.405 474.312 352.644 488.618 331.261C494.242 322.854 505.666 304.867 516.364 316.657C521.551 322.368 518.379 330.581 515.793 336.928C509.62 352.062 497.759 367.965 490.197 382.913C483.107 396.912 476.602 412.591 473.431 428.166C480.704 425.306 487.653 421.842 494.559 418.109C503.08 413.509 516.625 401.063 525.885 409.507C533.426 416.384 525.434 424.686 520.226 429.637C506.765 442.426 489.372 449.923 474.192 459.927C455.679 472.127 443.529 490.733 427.672 506.121C386.755 545.812 335.718 563.559 295.632 603.429C269.205 629.711 252.122 664.675 249.543 703.403C271.263 677.069 300.996 660.248 330.545 645.644C341.405 628.904 350.243 610.649 361.61 594.268C367.114 586.332 377.143 570.608 387.805 575.939C405.374 584.719 380.032 615.286 374.852 625.821L377.46 625.231L427.32 601.974C438.61 572.952 446.672 544.468 462.289 517.44C467.455 508.496 479.936 484.506 492.389 494.22C503.982 503.269 487.519 521.905 482.713 530.872C473.206 548.612 467.413 568.241 462.155 587.78C462.888 588.422 477.117 579.575 478.992 578.402C487.096 573.318 509.972 554.854 517.047 553.786C527.027 552.285 531.227 562.38 526.11 570.884C524.426 573.691 518.267 579.702 515.673 582.203C478.097 618.384 425.904 631.189 380.49 652.692C380.807 653.969 383.492 654.409 384.564 654.7C405.501 660.39 420.992 656.38 440.689 658.643C455.58 660.352 457.631 677.017 442.641 683.095C414.903 694.332 382.816 681.587 354.788 679.541C333.674 677.995 322.603 683.826 305.492 695.922C284.61 710.683 279.536 719.784 269.959 743.684C267.535 749.739 265.667 756.563 262.714 762.491C260.501 766.934 257.71 769.301 253.073 770.928C239.718 775.61 221.367 773.355 207.815 770.361C205.919 769.943 198.759 766.852 197.455 765.672C194.009 762.551 191.853 748.149 190.401 742.937L190.422 742.93Z" fill="#6DC3B4"/>
</g>
<g clip-path="url(#clip4_452_1214)">
<path d="M312.55 602.787C333.755 533.318 401.736 516.87 447.812 476.422C463.243 462.88 477.186 446.665 492.743 433.212C533.504 397.955 579.477 375.517 631.327 371.037C634.202 347.282 659.085 268.84 677.678 259.015C694.484 250.133 687.634 294.505 696.019 292.388C698.093 291.872 710.534 271.074 713.65 267.123C718.691 260.732 746.06 229.245 752.005 231.078C756.691 232.524 756.691 266.762 758.432 274.456C759.841 280.692 760.162 284.9 766.417 283.351C771.905 281.995 789.008 258.615 795.378 252.741C800.419 248.093 809.492 241.432 815.357 238.269H824.958V261.727C824.419 268.53 820.891 291.433 827.593 294.028C835.348 297.023 852.762 279.078 860.185 274.366L877.793 268.956C880.932 281.608 871.538 303.93 876.201 314.064C878.205 318.415 878.79 317.899 882.628 316.943C891.105 314.839 912.975 296.597 918.302 298.056C932.633 301.993 909.481 339.743 912.207 344.752C914.12 347.824 915.186 345.978 917.362 345.139C923.285 342.828 942.085 325.671 946.77 332.849C953.735 343.525 929.804 378.835 933.859 393.462C955.271 382.527 1002.89 346.985 1026.05 357.249C1032.73 360.205 1034.99 368.894 1037.94 370.908C1040.88 372.922 1047.06 371.295 1051.18 372.225C1063.27 374.936 1065.01 389.576 1070.86 398.768C1076.17 407.108 1085.16 412.711 1089.87 422.458C1106.79 457.47 1074.32 499.286 1045.95 510.802C1047.73 523.222 1060.93 526.54 1070.38 524.771C1099.28 519.4 1156.92 445.167 1182.03 421.412C1198.15 406.165 1221.64 391.629 1233.6 421.09C1247.35 454.979 1224.59 484.091 1232.94 508.453C1235.15 514.895 1239.52 519.646 1241.74 527.392C1252.03 563.179 1230.61 573.765 1231.58 600.102C1232.06 613.076 1243.38 633.126 1245.69 649.251C1249.7 677.214 1245.87 725.008 1211.91 723.562C1162.93 721.47 1124.82 651.833 1069.87 661.335C1064.92 662.187 1045.22 667.816 1046.54 675.084C1047.6 680.919 1068.31 689.363 1073.69 693.3C1088.08 703.783 1103.01 725.847 1091.48 745.251C1089.08 749.304 1082 753.319 1081.34 755.605C1080.45 758.716 1082.12 762.292 1081.81 765.442C1078.62 798.337 1044.28 813.946 1018.71 801.281C1015.13 825.887 990.143 819.678 974.631 813.946C950.677 805.089 927.054 788.293 906.113 772.762C877.266 785.608 847.377 794.787 816.915 801.294C815.323 797.808 811.336 799.938 808.896 800.338C798.139 802.068 787.531 804.586 776.888 806.703C774.459 807.181 771.309 809.427 767.941 810.15C759.715 811.932 748.557 811.725 740.057 812.125C756.473 826.585 768.445 847.125 763.393 871.783C756.336 906.15 703.729 888.308 684.025 878.871C684.414 891.923 676.04 893.02 666.302 890.709C652.463 887.417 622.391 857.117 612.734 844.62C608.999 839.792 597.337 819.355 594.794 817.922C586.213 813.093 570.724 813.532 561.525 812.099C491.803 801.216 441.465 785.556 380.29 745.651C358.432 731.385 299.994 689.143 295.183 660.986C294.003 654.066 298.849 653.911 299.731 647.908C301.953 652.814 301.507 650.387 304.084 650.322C347.571 649.354 381.527 672.838 416.182 699.833C432.266 712.356 460.574 742.901 474.963 750.892C481.974 754.791 485.102 752.338 480.76 744.36C473.795 731.553 428.474 694.152 415.529 684.328C382.421 659.204 340.789 633.036 299.731 644.293C299.192 639.284 295.607 633.926 295.32 628.504C294.793 618.447 303.179 603.549 312.539 604.594C364.412 610.352 438.372 661.025 477.495 699.303C481.573 703.293 490.097 715.661 494.267 716.5C500.201 717.7 494.438 704.661 492.743 701.963C475.788 674.955 402.366 625.548 374.207 613.58C355.087 605.447 332.862 598.359 312.527 602.787H312.55ZM700.785 305.802C693.201 315.536 674.035 355.403 676.029 367.267C676.876 372.289 680.256 373.167 684.094 370.946C687.576 368.932 691.54 349.864 693.9 344.093C697.199 336.012 715.586 308.642 708.174 302.226C704.772 299.282 702.664 303.413 700.797 305.802H700.785ZM771.011 303.801C764.16 317.266 753.277 331.157 747.789 345.294C745.338 351.607 738.166 374.82 751.318 367.332C754.801 365.356 763.576 340.259 766.474 333.881C769.797 326.587 782.261 311.65 777.759 303.155C776.338 300.483 772.821 303.194 771 303.801H771.011ZM845.647 314.258C845.212 313.6 840.824 312.063 839.404 313.044C838.281 313.819 824.522 333.016 822.712 335.882C817.637 343.913 802.446 371.321 811.497 378.886C822.094 387.73 823.148 364.917 825.794 357.404C828.612 349.399 849.061 319.461 845.647 314.258ZM890.612 337.535C881.665 335.611 881.791 343.9 877.816 349.257C873.268 355.377 846.002 385.509 855.293 392.661C863.427 398.91 869.201 381.236 873.302 374.845C880.955 362.929 891.437 353.363 890.612 337.522V337.535ZM919.447 364.582C908.438 360.915 886.981 389.937 889.249 399.362C893.328 416.3 910.099 383.973 913.043 379.919C916.709 374.871 921.762 376.046 919.447 364.569V364.582ZM1007.51 380.836C1006.43 379.648 987.073 388.001 984.014 389.524C975.8 393.617 949.268 410.426 945.911 418.753C943.058 425.828 945.796 431.392 952.59 428.255C957.287 426.086 970.553 411.859 977.232 407.134C980.703 404.681 1013.74 387.652 1007.51 380.823V380.836ZM1044.34 402.512C1041.35 401.582 1039.58 400.756 1036.32 401.389C1027.4 403.106 986.374 427.635 979.523 435.007C977.369 437.331 974.872 438.931 975.502 443.037C976.854 445.528 978.618 445.942 981.058 445.942C986.66 445.954 1009.1 428.164 1016.05 423.839C1020.33 421.18 1049.15 410.077 1044.33 402.512H1044.34ZM804.291 465.462C805.78 466.637 809.893 465.436 811.508 464.003C818.37 457.896 810.397 433.922 805.505 427.119C804.165 425.26 790.349 409.987 789.295 409.29C779.477 402.77 763.003 406.54 771.973 419.799C775.88 425.569 792.617 426.292 799.101 443.36C800.774 447.762 802.572 464.093 804.291 465.462ZM634.947 441.578C636.436 443.269 643.551 447.943 645.555 448.562C665.145 454.514 670.209 431.831 686.087 433.574C697.177 434.787 702.469 454.811 712.837 459.368C718.393 461.821 741.214 464.661 743.196 457.302C742.932 442.572 729.414 447.788 721.315 444.392C711.21 440.158 705.7 424.575 695.252 419.631C673.531 409.328 664.481 436.233 649.668 433.148C641.741 431.495 638.395 410.387 627.157 407.947C616.09 405.533 595.802 411.936 599.158 427.764C608.953 430.023 616.4 420.663 626.034 425.35C629.082 426.835 631.602 437.821 634.936 441.591L634.947 441.578ZM874.379 451.493C875.788 452.874 872.844 458.155 880.222 458.606C884.724 458.89 888.058 457.393 888.974 452.061C893.522 425.595 865.707 419.992 863.439 439.629C861.697 454.798 872.134 449.272 874.379 451.48V451.493ZM1051.93 433.445C1038.98 441.875 1022.14 446.819 1010.21 456.941C1005.33 461.085 996.89 471.142 1008.29 471.194C1014.05 471.22 1021.01 462.673 1026.71 459.304C1032.18 456.076 1053.19 447.607 1055.6 444.947C1058.95 441.281 1057.86 431.689 1051.93 433.445ZM1204.36 449.544C1201.48 444.96 1193.9 451.196 1191.14 453.326C1181.07 461.059 1137.19 504.179 1133.25 514.404C1132.11 517.361 1132.26 520.291 1132.43 523.377C1135.39 523.867 1137.16 523.351 1139.7 521.673C1149.63 515.114 1173.93 482.516 1186.11 471.103C1190.42 467.075 1208.93 456.812 1204.36 449.531V449.544ZM953.461 503.095C949.966 498.576 953.861 482.232 944.284 469.244C931.03 451.286 907.923 456.696 917.695 470.342C921.235 475.299 932.439 469.102 937.411 484.207C942.325 499.131 933.263 511.474 953.094 518.871C961.675 522.073 968.651 518.961 974.62 528.889C977.335 533.421 976.945 540.56 982.788 541.503C996.295 543.659 990.635 524.048 985.114 517.064C976.315 505.922 955.305 505.496 953.449 503.108L953.461 503.095ZM551.936 460.233C545.258 459.174 535.13 460.233 527.913 460.233C525.106 460.233 521.097 470.458 527.111 473.763C532.278 476.603 542.875 473.272 549.68 475.441C552.051 476.203 563.381 493.309 567.723 481.419C571.733 470.445 560.345 461.576 551.936 460.233ZM1023.54 494.51C1027.2 498.021 1060.69 481.78 1064.47 476.59C1067.95 471.801 1067.83 467.192 1061.62 467.786C1054.23 468.483 1034.49 480.941 1028.47 486.557C1026.26 488.623 1023.08 490.688 1023.54 494.51ZM918.222 571.687C924.614 578.077 933.218 572.1 929.414 559.964C923.205 540.121 912.379 542.91 899.101 536.377C885.125 529.509 890.2 512.958 885.022 499.919C879.26 485.421 852.372 470.174 851.226 494.587C859.177 499.88 866.314 495.646 871.733 505.871C879.924 521.311 871.962 540.057 890.624 549.558C899.938 554.297 908.713 552.567 915.312 563.243C916.801 565.657 916.835 570.318 918.222 571.699V571.687ZM754.915 522.15C776.682 513.965 779.569 548.448 794.519 555.007C802.206 558.376 824.098 557.253 826.413 547.454C829.311 535.164 805.425 543.917 799.342 540.56C795.286 538.314 787.989 520.73 784.22 516.095C777.255 507.536 760.586 502.488 750.837 505.729C744.215 507.936 739.61 522.486 735.268 526.075C725.003 534.544 713.146 522.073 706.433 513.526C698.471 503.379 697.28 489.074 682.455 492.741C683.727 519.362 721.589 562.482 744.169 537.914C746.289 535.616 753.437 522.731 754.927 522.163L754.915 522.15ZM507.899 519.775C512.081 514.727 499.8 505.199 496.18 503.224C461.983 484.427 421.532 508.027 409.446 546.886C408.151 551.043 404.909 572.603 412.596 563.062C415.116 559.925 418.519 546.383 421.692 540.831C434.214 518.897 454.193 503.727 478.136 507.304C483.544 508.117 506.662 521.247 507.888 519.775H507.899ZM1210.45 506.697C1213.52 503.831 1212.14 497.711 1208.15 496.562C1203.47 495.207 1159.31 525.546 1152.74 530.942C1147.35 535.37 1133.32 544.691 1144.36 550.475C1161.35 538.03 1178.64 524.926 1196.46 513.436C1199.74 511.319 1209.24 507.846 1210.47 506.697H1210.45ZM633.824 500.074C631.843 500.797 631.499 502.436 631.167 504.489C629.127 516.947 644.948 523.157 651.295 530.529C662.327 543.362 658.627 559.254 663.152 574.914C667.345 589.425 681.86 598.101 678.916 612.341C677.403 619.648 661.113 638.38 657.218 647.443C653.082 657.087 651.501 670.862 647.503 681.616C638.247 706.533 609.973 745.999 587.943 757.051C582.077 759.994 558.249 767.108 555.9 769.651C551.661 774.247 555.259 780.005 560.345 781.115C570.404 783.31 598.23 769.07 607.052 762.331C623.251 749.976 648.763 710.393 656.45 689.879C660.758 678.389 662.694 664.239 667.391 653.485C673.749 638.935 693.121 621.636 693.499 605.317C693.831 591.026 681.528 583.628 677.323 571.557C672.111 556.595 676.613 541.051 667.757 526.385C663.736 519.723 640.687 497.556 633.813 500.048L633.824 500.074ZM448.66 525.197C412.023 551.366 438.212 610.249 477.541 589.322C500.338 577.186 493.522 542.032 475.891 527.004C467.631 519.968 457.767 518.703 448.671 525.197H448.66ZM1074.54 627.794C1076.1 626.71 1076.65 617.169 1076.44 614.522C1074.89 594.241 1049.59 599.25 1045.53 589.709C1039.94 576.541 1046.11 562.946 1044.23 549.675C1042.35 536.403 1023.85 515.321 1014.07 530.051C1012.63 536.558 1027.65 542.109 1029.59 551.74C1032.69 567.258 1025.3 585.087 1034.97 599.818C1042.12 610.714 1057.2 609.655 1061.95 616.33C1064.49 619.893 1062.84 625.574 1065.04 627.278C1066.47 628.388 1073.18 628.749 1074.54 627.794ZM1093.53 539.992C1080.45 544.33 1092.26 557.808 1093.27 563.05C1093.85 566.084 1092.21 568.769 1093.03 572.138C1094.62 578.658 1099.74 580.685 1105.3 578.568C1119.96 572.965 1111.36 534.092 1093.55 539.992H1093.53ZM1223.69 539.643C1219.24 539.359 1215.09 541.102 1210.9 542.355C1196.78 546.576 1166.92 555.484 1154.84 562.185C1151.58 563.992 1145.21 570.241 1148.43 573.907C1150.23 575.947 1174.52 569.014 1178.88 567.62C1188.37 564.586 1208.37 557.305 1216.55 552.321C1221.64 549.223 1224.59 547.002 1223.7 539.643H1223.69ZM566.738 549.12C556.187 536.429 536.448 553.302 556.118 563.785C569.922 571.144 572.248 555.742 566.738 549.12ZM371.549 584.455C375.433 581.731 375.478 569.195 369.063 567C352.051 561.165 359.91 592.627 371.549 584.455ZM601.026 568.782C590.211 576.463 619.527 606.97 628.154 594.847C637.41 581.86 608.06 563.773 601.026 568.782ZM563.576 622.204C576.556 607.564 538.636 581.692 531.041 595.557C525.908 604.93 542.875 611.863 546.22 614.652C549.783 617.621 555.121 631.732 563.576 622.204ZM1215.6 599.276C1213.83 596.861 1167.04 592.278 1160.51 591.891C1151.96 591.387 1141.97 590.871 1149.54 602.813C1160.05 601.883 1208.23 612.069 1214.17 607.396C1215.85 606.066 1216.37 600.321 1215.59 599.263L1215.6 599.276ZM869.797 597.378C867.597 609.552 875.548 608.79 881.092 614.432C894.244 627.794 884.667 655.125 888.791 674.335C890.819 683.772 896.673 689.827 899.479 698.374C901.232 703.693 898.196 713.672 907.121 710.768C908.919 710.187 913.765 704.661 914.315 702.583C918.806 685.49 904.703 676.31 902.206 662.845C900.293 652.504 904.302 642.834 903.443 632.558C901.92 614.096 888.149 592.562 869.797 597.378ZM993.545 643.803C996.925 648.437 1008.09 650.387 1009.16 641.479C1009.7 637.051 1000.02 613.98 997.016 610.12C990.464 601.664 966.864 596.087 965.81 609.203C964.813 621.494 981.768 613.89 987.496 622.656C990.704 627.562 990.429 639.529 993.545 643.816V643.803ZM687.645 741.313C718.095 755.14 782.513 785.776 811.302 759.749C821.395 750.621 817.523 744.373 822.575 736.368C825.382 731.927 833.538 728.235 837.044 723.807C844.685 714.15 842.863 696.321 844.559 683.553C845.235 678.466 848.74 672.037 848.855 666.692C849.118 655.099 838.991 648.721 835.807 638.406C834.478 634.107 834.97 629.911 833.802 626.232C821.807 588.599 782.765 605.382 758.478 615.413C749.382 619.17 695.573 645.726 693.854 652.698C692.319 658.959 698.093 659.424 702.114 658.417C707.51 657.074 727.191 642.963 734.718 639.155C750.906 630.957 787.886 612.857 804.554 614.083C824.087 615.516 821.441 635.217 826.103 649.354C828.75 657.384 835.176 662.548 834.523 672.089C834.294 675.394 828.543 708.044 827.799 709.774C824.419 717.662 814.006 721.625 810.5 728.183C808.255 732.392 808.358 737.427 806.559 741.791C797.784 763.131 753.288 753.281 736.883 748.078C726.997 744.941 697.028 729.939 689.627 730.895C684.22 731.592 685.216 737.311 687.634 741.339L687.645 741.313ZM489.993 615.865C484.678 616.291 476.762 618.499 475.834 625.457C474.035 639.103 489.077 633.19 495.057 636.211C496.237 636.805 508.529 650.955 509.308 652.646C512.539 659.695 509.194 668.616 519.905 667.945C531.132 667.235 527.191 651.562 523.044 644.396C519.057 637.515 510.878 633.32 506.994 628.194C500.991 620.28 504.119 614.742 490.005 615.865H489.993ZM1212.31 656.739C1213.33 654.905 1212.65 650.49 1210.88 648.799C1207.48 645.571 1185.94 638.858 1179.37 635.579C1174.06 632.932 1149.61 616.937 1147.66 617.092C1142.22 617.53 1142.62 623.869 1145.99 628.104C1149.36 632.338 1163.48 639.465 1168.67 642.228C1175.69 645.959 1197.8 657.242 1204.09 658.43C1205.98 658.778 1211.65 657.939 1212.31 656.739ZM939.805 653.821C943.963 659.695 941.019 675.742 954.766 670.591C968.388 665.492 956.714 638.845 945.716 633.655C937.307 629.679 934.501 630.247 932.92 640.64C931.178 652.091 936.414 649.044 939.805 653.821ZM587.508 664.653C594.095 673.483 579.878 690.86 590.715 694.514C603.271 698.761 605.356 672.889 603.225 664.084C600.671 653.511 586.534 642.37 576.762 644.293C576.395 648.967 577.357 655.435 579.924 659.192C581.906 662.096 585.972 662.587 587.508 664.653ZM1204.33 684.147C1203.75 683.217 1189.51 677.692 1185.78 675.278C1174.04 667.674 1157.28 651.42 1145.85 646.281C1142.33 644.693 1139.54 643.648 1135.61 644.306C1134.24 650.348 1139.31 655.138 1143.25 658.662C1152.46 666.899 1177.79 684.792 1188.39 690.395C1191.3 691.932 1197.21 695.366 1200.14 694.565C1203.37 693.687 1205.99 686.858 1204.31 684.16L1204.33 684.147ZM789.742 660.547C786.385 656.622 710.225 673.341 707.201 678.505C705.803 680.894 706.582 684.792 706.467 687.594L785.32 670.888C788.871 670.849 791.116 662.135 789.742 660.534V660.547ZM1024.45 694.927C1012.61 705.41 1050.45 720.76 1056.46 721.767C1066.14 723.394 1074.36 718.23 1064 711.478C1054.46 705.255 1035.06 702.195 1024.45 694.927ZM735.291 702.04C726.768 702.118 718.187 701.976 709.664 702.04C709.767 704.932 708.862 710.251 711.176 712.084C713.857 714.202 736.872 712.498 742.566 712.795C750.676 713.221 779.328 718.062 784.529 712.42C792.147 704.158 776.728 700.478 771.206 700.414C770.106 700.414 773.233 702.492 767.322 702.027C758.02 698.994 744.467 699.006 735.291 702.027V702.04ZM552.326 709.515C540.732 711.194 547.881 738.279 557.962 736.046C572.454 732.844 563.358 707.914 552.326 709.515ZM996.318 720.102C994.909 721.651 997.085 727.125 998.586 729.255C1002.33 734.561 1040.79 754.843 1046.75 754.546C1052.7 754.249 1053.78 750.234 1049.87 745.431C1047.18 742.113 1025.67 733.709 1019.73 730.688C1015.63 728.597 1000.13 715.893 996.318 720.102ZM1037.51 776.493C1022.04 768.166 1006.97 758.716 991.999 749.304C985.973 745.522 982.169 737.879 973.898 739.932C973.898 742.449 973.509 745.238 974.23 747.665C975.754 752.79 1004.54 771.51 1010.68 775.151C1017.87 779.411 1045.52 797.666 1037.51 776.48V776.493ZM943.471 761.595L945.052 771.536C958.238 777.875 972.512 792.695 985.549 798.105C991.231 800.467 994.313 798.866 993.179 791.404C992.228 785.104 983.384 784.42 979.214 781.761C973.875 778.352 947.194 757.438 943.471 761.595ZM727.065 832.188C726.504 831.155 710.099 824.868 706.994 823.254C698.517 818.851 690.773 811.105 680.863 812.125C676.407 816.992 694.828 828.198 697.864 829.941C702 832.317 722.907 842.58 725.794 840.218C727.466 838.849 728.039 833.969 727.077 832.188H727.065ZM675.88 869.705C676.705 869.02 678.4 862.617 676.074 861.804C658.524 853.735 626.309 820.439 609.182 817.883C599.983 816.502 601.427 822.273 607.292 827.333C619.115 837.532 640.629 850.998 654.148 859.351C657.917 861.674 672.935 872.132 675.868 869.705H675.88ZM652.028 822.957C651.776 826.249 651.639 828.315 653.643 831.052C656.107 834.408 687.084 854.535 692.571 857.556C696.718 859.841 710.5 867.032 714.074 867.729C720.501 868.969 723.823 864.024 718.279 859.273C711.462 853.425 697.096 848.506 689.031 843.51C683.487 840.076 656.45 817.999 652.04 822.957H652.028Z" fill="#67C1AF"/>
<path d="M876.213 314.064C871.55 303.929 880.944 281.608 877.805 268.956L860.197 274.365C864.298 271.77 876.35 262.488 880.314 268.84C884.278 275.191 876.155 305.156 876.213 314.064Z" fill="#34B196"/>
<path d="M633.825 500.073C640.699 497.582 663.748 519.749 667.769 526.41C676.625 541.063 672.111 556.607 677.335 571.583C681.539 583.654 693.843 591.051 693.511 605.343C693.133 621.661 673.761 638.961 667.403 653.511C662.706 664.265 660.77 678.414 656.462 689.904C648.764 710.419 623.251 749.988 607.063 762.356C598.242 769.095 570.416 783.322 560.357 781.14C555.271 780.03 551.685 774.272 555.912 769.676C558.261 767.133 582.089 760.019 587.955 757.076C609.985 746.025 638.258 706.558 647.515 681.642C651.513 670.888 653.083 657.113 657.23 647.469C661.125 638.406 677.415 619.673 678.927 612.366C681.872 598.126 667.357 589.45 663.164 574.939C658.639 559.279 662.339 543.387 651.307 530.554C644.96 523.183 629.139 516.96 631.179 504.515C631.511 502.462 631.854 500.822 633.836 500.099L633.825 500.073Z" fill="#18967F"/>
<path d="M754.916 522.15C753.438 522.705 746.278 535.589 744.158 537.9C721.579 562.468 683.728 519.361 682.445 492.728C697.28 489.074 698.46 503.379 706.422 513.513C713.135 522.06 725.004 534.531 735.257 526.062C739.599 522.473 744.204 507.923 750.826 505.715C760.575 502.475 777.232 507.523 784.209 516.082C787.978 520.717 795.275 538.313 799.331 540.547C805.414 543.916 829.3 535.15 826.402 547.441C824.087 557.253 802.195 558.376 794.508 554.993C779.569 548.435 776.682 513.952 754.904 522.137L754.916 522.15Z" fill="#18967F"/>
<path d="M634.948 441.578C631.614 437.821 629.094 426.821 626.046 425.337C616.412 420.65 608.965 430.01 599.17 427.751C595.814 411.936 616.102 405.532 627.169 407.934C638.419 410.374 641.753 431.482 649.68 433.134C664.493 436.22 673.532 409.328 695.264 419.617C705.7 424.562 711.211 440.145 721.326 444.379C729.426 447.774 742.944 442.546 743.208 457.289C741.226 464.648 718.417 461.795 712.849 459.355C702.481 454.798 697.188 434.774 686.099 433.56C670.221 431.817 665.157 454.501 645.567 448.549C643.563 447.942 636.448 443.256 634.959 441.565L634.948 441.578Z" fill="#18967F"/>
<path d="M1074.54 627.794C1073.18 628.749 1066.48 628.388 1065.04 627.277C1062.84 625.573 1064.49 619.906 1061.95 616.329C1057.2 609.655 1042.12 610.714 1034.97 599.817C1025.3 585.087 1032.7 567.258 1029.59 551.74C1027.66 542.109 1012.63 536.545 1014.08 530.051C1023.85 515.32 1042.42 536.906 1044.23 549.674C1046.04 562.442 1039.94 576.54 1045.53 589.709C1049.59 599.249 1074.88 594.24 1076.44 614.522C1076.65 617.182 1076.09 626.709 1074.54 627.794Z" fill="#18967F"/>
<path d="M918.222 571.686C916.836 570.305 916.801 565.644 915.312 563.23C908.713 552.54 899.938 554.283 890.624 549.545C871.962 540.056 879.936 521.298 871.733 505.857C866.314 495.632 859.177 499.867 851.227 494.574C852.361 470.174 879.26 485.408 885.022 499.906C890.2 512.945 885.137 529.509 899.102 536.364C913.067 543.219 923.205 540.095 929.415 559.951C933.207 572.099 924.614 578.064 918.222 571.673V571.686Z" fill="#18967F"/>
<path d="M953.461 503.094C955.305 505.483 976.316 505.922 985.125 517.05C990.636 524.035 996.307 543.645 982.8 541.489C976.957 540.56 977.347 533.407 974.632 528.876C968.663 518.935 961.686 522.059 953.106 518.858C933.275 511.46 942.337 499.118 937.422 484.194C932.45 469.102 921.246 475.286 917.706 470.328C907.934 456.682 931.041 451.26 944.296 469.231C953.873 482.219 949.99 498.563 953.472 503.082L953.461 503.094Z" fill="#18967F"/>
<path d="M507.9 519.774C506.674 521.259 483.556 508.117 478.148 507.303C454.194 503.714 434.226 518.897 421.704 540.831C418.531 546.382 415.14 559.938 412.608 563.062C404.921 572.603 408.163 551.03 409.458 546.886C421.532 508.013 461.984 484.413 496.192 503.224C499.8 505.212 512.093 514.727 507.911 519.774H507.9Z" fill="#18967F"/>
<path d="M1204.36 449.543C1208.93 456.824 1190.42 467.075 1186.11 471.116C1173.93 482.529 1149.65 515.114 1139.7 521.685C1137.15 523.363 1135.39 523.88 1132.43 523.389C1132.26 520.291 1132.12 517.373 1133.25 514.417C1137.19 504.192 1181.06 461.072 1191.14 453.339C1193.9 451.221 1201.49 444.973 1204.36 449.556V449.543Z" fill="#18967F"/>
<path d="M804.291 465.461C802.561 464.093 800.774 447.749 799.102 443.359C792.618 426.292 775.88 425.582 771.974 419.798C763.004 406.539 779.477 402.77 789.295 409.289C790.349 409.986 804.165 425.246 805.506 427.118C810.397 433.922 818.371 457.896 811.509 464.002C809.905 465.436 805.781 466.649 804.291 465.461Z" fill="#18967F"/>
<path d="M1210.46 506.696C1209.23 507.845 1199.73 511.305 1196.44 513.436C1178.63 524.926 1161.34 538.029 1144.35 550.475C1133.31 544.691 1147.34 535.37 1152.73 530.942C1159.3 525.545 1203.46 495.206 1208.14 496.562C1212.14 497.724 1213.51 503.843 1210.44 506.696H1210.46Z" fill="#18967F"/>
<path d="M845.648 314.258C849.062 319.46 828.613 349.399 825.794 357.403C823.148 364.904 822.094 387.729 811.497 378.886C802.447 371.333 817.638 343.925 822.713 335.882C824.523 333.029 838.293 313.819 839.404 313.044C840.825 312.05 845.212 313.586 845.648 314.258Z" fill="#18967F"/>
<path d="M1044.34 402.511C1049.16 410.077 1020.34 421.18 1016.06 423.839C1009.11 428.164 986.672 445.954 981.07 445.941C978.618 445.941 976.854 445.528 975.514 443.036C974.872 438.944 977.37 437.343 979.535 435.006C986.374 427.635 1027.41 403.105 1036.33 401.388C1039.6 400.756 1041.36 401.595 1044.35 402.511H1044.34Z" fill="#18967F"/>
<path d="M700.786 305.801C702.642 303.413 704.761 299.295 708.164 302.225C715.576 308.642 697.189 335.998 693.889 344.093C691.529 349.864 687.565 368.945 684.083 370.946C680.257 373.154 676.866 372.289 676.018 367.267C674.024 355.402 693.19 315.536 700.774 305.801H700.786Z" fill="#18967F"/>
<path d="M1007.51 380.835C1013.74 387.665 980.704 404.693 977.232 407.146C970.553 411.858 957.287 426.098 952.59 428.267C945.797 431.404 943.059 425.84 945.911 418.765C949.268 410.425 975.8 393.616 984.014 389.537C987.073 388.013 1006.43 379.66 1007.51 380.848V380.835Z" fill="#18967F"/>
<path d="M771.012 303.8C772.833 303.194 776.361 300.47 777.771 303.155C782.273 311.65 769.809 326.587 766.486 333.881C763.576 340.259 754.801 365.356 751.33 367.331C738.178 374.819 745.35 351.607 747.801 345.294C753.289 331.157 764.172 317.279 771.023 303.8H771.012Z" fill="#18967F"/>
<path d="M890.613 337.535C891.438 353.375 880.955 362.929 873.303 374.858C869.201 381.248 863.428 398.922 855.294 392.674C845.991 385.522 873.268 355.389 877.816 349.27C881.792 343.912 881.666 335.611 890.613 337.548V337.535Z" fill="#18967F"/>
<path d="M551.937 460.233C560.346 461.562 571.733 470.445 567.723 481.418C563.381 493.309 552.051 476.203 549.68 475.441C542.875 473.272 532.278 476.616 527.112 473.763C521.097 470.445 525.107 460.233 527.913 460.233C535.131 460.233 545.258 459.174 551.937 460.233Z" fill="#18967F"/>
<path d="M1051.93 433.444C1057.86 431.688 1058.94 441.281 1055.6 444.947C1053.19 447.607 1032.18 456.076 1026.71 459.303C1020.99 462.673 1014.05 471.219 1008.29 471.193C996.891 471.142 1005.33 461.085 1010.21 456.941C1022.14 446.819 1038.98 441.875 1051.93 433.444Z" fill="#18967F"/>
<path d="M874.38 451.493C872.134 449.298 861.698 454.81 863.439 439.641C865.696 419.992 893.523 425.608 888.975 452.074C888.058 457.405 884.713 458.903 880.222 458.619C872.845 458.154 875.789 452.887 874.38 451.506V451.493Z" fill="#18967F"/>
<path d="M919.448 364.581C921.762 376.059 916.71 374.884 913.044 379.932C910.1 383.985 893.328 416.312 889.25 399.374C886.981 389.95 908.439 360.915 919.448 364.594V364.581Z" fill="#18967F"/>
<path d="M1023.54 494.509C1023.08 490.688 1026.26 488.635 1028.48 486.557C1034.48 480.941 1054.23 468.495 1061.62 467.785C1067.84 467.191 1067.96 471.787 1064.47 476.59C1060.7 481.78 1027.2 498.021 1023.54 494.509Z" fill="#18967F"/>
</g>
</g>
<defs>
<clipPath id="clip0_452_1214">
<rect width="2303" height="516" fill="white"/>
</clipPath>
<clipPath id="clip1_452_1214">
<rect width="567.597" height="517.689" fill="white" transform="translate(1087.17 494.104) rotate(-30.8286)"/>
</clipPath>
<clipPath id="clip2_452_1214">
<rect width="801.152" height="767.498" fill="white" transform="translate(1691.34 -104.653) rotate(18.8276)"/>
</clipPath>
<clipPath id="clip3_452_1214">
<rect width="589" height="603" fill="white" transform="translate(-60 209)"/>
</clipPath>
<clipPath id="clip4_452_1214">
<rect width="952" height="661" fill="white" transform="translate(295 231)"/>
</clipPath>
</defs>
</svg>
