<svg width="669" height="516" viewBox="0 0 669 516" fill="none" xmlns="http://www.w3.org/2000/svg">
<g clip-path="url(#clip0_504_11434)">
<rect width="669" height="516" fill="#D9D9D9" fill-opacity="0.6"/>
<g clip-path="url(#clip1_504_11434)">
<path d="M499.202 114.719C499.189 115.469 500.181 120.829 500.462 121.418C501.628 123.883 512.066 125.103 514.491 124.634C518.605 123.83 517.828 121.472 518.458 118.913C518.752 117.72 519.114 115.938 519.288 114.732L553.618 117.238C553.618 117.519 553.618 117.801 553.618 118.069C553.779 125.196 552.157 129.913 561.577 129.792C567.955 129.712 568.907 124.084 569.523 118.913C580.002 120.199 590.158 122.758 600.503 124.768C599.31 129.377 597.3 134.254 598.828 138.997C599.538 141.194 605.38 142.842 607.444 142.226C610.365 141.355 610.593 136.88 611.383 135.647C611.611 135.299 615.979 130.784 616.408 129.792C626.217 131.025 635.449 136.17 644.882 138.997C643.569 141.824 640.715 153.708 639.027 155.745C638.45 156.442 635.918 155.142 636.454 160.367C636.923 165.057 645.405 169.05 649.358 166.678C650.336 166.089 650.269 164.722 650.751 164.119C655.253 158.532 658.081 152.489 662.476 147.371C672.726 151.283 682.522 156.576 691.781 162.444C689.047 166.129 680.873 176.03 681.128 180.318C681.316 183.52 682.816 187.807 686.394 188.357C694.729 189.656 700.41 178.04 704.336 172.252C704.859 171.475 705.971 171.743 706.011 171.662C716.597 177.826 726.78 184.766 736.16 192.591C733.828 194.922 726.847 200.63 726.271 203.242C725.427 207.088 727.973 214.658 732.354 215.234C740.716 216.346 742.056 210.196 747.04 205.976C748.903 204.408 751.811 203.658 752.065 203.47C761.163 212.286 771.829 219.414 779.695 229.423C776.868 231.741 767.046 242.151 765.652 245.099C763.897 248.824 764.339 252.696 767.542 255.389C776.426 262.852 785.082 245.005 793.095 243.652L818.219 276.304C809.978 280.391 804.404 281.529 805.65 291.806C806.722 300.689 813.462 294.62 818.192 293.427C821.26 292.664 825.83 292.878 828.282 292.208L845.862 328.21C845.728 328.263 845.514 329.375 844.455 329.697C843.061 330.139 840.864 329.322 839.993 330.715C837.407 330.755 834.767 331.117 832.288 331.8C831.256 332.082 824.503 334.694 824.222 335.029C823.739 335.579 824.021 340.617 824.275 341.836C825.093 345.775 830.399 350.813 834.539 350.853C840.489 348.937 846.519 347.343 852.562 345.802C855.523 357.834 859.53 369.651 861.767 381.803V382.634C861.74 383.183 861.794 383.746 861.767 384.309C861.66 384.309 860.829 385.153 859.744 385.18C852.656 385.367 834.754 382.085 835.826 393.018C836.951 404.487 853.433 401.941 861.392 401.888C862.585 401.888 863.884 402.732 864.286 402.718C863.469 405.358 865.961 409.632 865.961 411.508V430.761C865.961 433.119 866.819 437.059 866.792 440.395C865.533 440.515 865.533 442.793 866.792 442.9V444.575C855.979 442.994 844.991 442.538 834.137 441.225C832.436 447.777 828.536 454.463 837.233 457.799C844.267 460.506 857.171 461.524 865.104 462.998C864.313 477.026 860.843 490.666 856.729 504.024C853.902 502.724 839.846 496.682 837.809 496.494C830.801 495.824 819.773 501.8 826.151 509.062L849.507 519.03C850.538 519.566 849.828 521.295 850.029 521.603C845.205 535.738 838.398 548.587 830.613 561.262C829.943 562.361 830.332 563.942 828.255 563.473C827.974 563.299 826.178 563.768 824.985 563.017C818.781 559.105 803.359 545.76 796.927 554.348C792.907 559.694 796.351 565.014 801.174 568.363C808.732 573.615 810.809 572.852 816.53 581.065L791.406 608.693C786.06 607.058 777.645 595.106 771.293 599.046C770.958 599.247 767.126 605.062 766.912 605.557C764.205 611.694 772.151 614.963 775.555 618.272C776.68 619.371 777.002 621.086 777.162 621.247C767.542 629.286 756.822 634.752 746.183 641.345C745.66 640.634 743.811 639.696 742.86 638.397C740.073 634.618 738.491 628.71 733.842 627.316C732.797 627.008 726.834 626.084 726.258 626.419C726.003 626.566 723.203 630.894 723.082 631.269C721.903 634.98 728.455 644.453 730.639 648.138C731.148 649.008 730.934 650.281 731.108 650.563L692.598 664.792C692.544 664.698 691.379 664.618 690.923 663.961C690.601 663.492 690.039 661.871 689.248 660.611C687.359 657.61 685.295 653.765 683.393 650.563C687.654 647.414 692.464 644.828 696.738 641.72C714.962 628.415 734.043 610.113 748.662 592.963C751.248 589.921 754.718 585.486 756.246 581.909C756.541 582.097 757.854 581.842 758.685 582.378C762.034 584.508 772.352 591.851 775.702 590.98C775.957 590.913 780.244 588.702 780.392 588.488C781.169 587.255 780.539 580.717 779.601 579.082C777.792 575.947 770.074 572.678 767.676 570.252C766.671 569.248 767.26 567.827 767.126 567.693C773.612 553.799 783.179 541.071 786.381 525.837C791.647 528.155 810.233 536.676 812.176 527.739C813.904 519.807 807.78 519.981 803.144 517.878C799.687 516.31 795.158 514.421 791.996 512.478C790.951 511.835 790.843 510.107 790.575 509.933C792.827 504.694 792.465 499.214 793.215 493.721C795.654 475.78 798.28 459.032 797.315 439.979C797.007 433.843 795.011 427.438 795.6 421.181C803.265 418.14 816.195 421.128 823.445 419.306C832.972 416.907 830.627 405.84 821.917 404.487C815.391 403.482 798.548 404.581 791.406 405.264C791.085 401.526 790.227 397.145 789.343 393.514C787.494 385.997 782.027 374.233 781.357 367.588C781.276 366.784 781.276 365.926 781.397 365.122L810.675 357.981C812.993 353.801 810.393 346.78 806.119 344.917C801.576 342.948 791.822 347.142 786.703 348.24C782.362 349.165 777.993 348.977 773.813 350.009L757.907 319.032C756.956 313.324 765.304 312.453 769.645 310.256C772.754 308.688 785.055 302.324 786.448 300.247C788.003 297.902 786.475 297.058 786.542 295.169C786.609 293.28 787.534 286.996 785.43 285.656C781.343 283.057 765.907 294.191 761.579 296.308C757.251 298.425 750.564 299.497 747.027 301.44C739.202 289.863 730.412 279.051 721.072 268.788C724.087 266.872 732.73 259.275 736.522 256.193C740.555 252.924 749.439 246.787 749.586 241.522C749.68 238.252 745.004 232.96 741.801 233.764C739.121 234.434 729.5 243.036 726.365 245.193C721.313 248.676 713.796 252.361 709.347 256.22L683.393 234.447C683.567 234.246 683.58 233.067 684.196 232.357C690.24 225.551 696.296 218.758 702.473 212.085C704.751 208.052 695.197 199.129 692.571 199.585C691.419 199.786 690.132 200.589 689.194 201.326C683.66 205.694 677.416 216.239 671.574 221.384C670.073 222.71 668.519 222.844 667.474 223.554C659.126 218.249 652.038 210.692 642.35 207.65C642.604 207.329 642.604 205.721 643.288 204.85C646.584 200.603 655.87 190.701 657.062 185.905C657.384 184.592 655.87 178.495 654.945 177.893C652.359 176.178 645.552 178.683 643.582 180.84C641.854 182.729 639.603 192.122 638.973 192.577C629.727 188.879 624.073 184.833 613.876 188.812C607.35 191.358 609.95 191.653 612.509 195.11C614.492 197.776 604.375 199.464 602.459 200.027C601.682 200.255 599.739 199.625 600.476 201.353C601.615 204.06 606.426 205.56 607.538 206.847C608.328 207.758 608.1 209.151 609.695 210.558C610.405 211.188 615.162 213.506 615.966 213.465C617.319 213.412 618.485 211.375 620.08 211.831C621.768 212.313 622.652 221.692 628.093 220.191L653.217 243.639C650.939 248.194 643.328 260.588 652.855 262.021C657.773 262.758 661.256 259.784 664.097 256.193C681.048 275.473 696.403 297.567 707.632 320.666C700.758 323.386 681.249 332.765 676.612 337.789C673.463 341.219 674.79 348.91 679.574 349.205C685.469 349.553 699.82 339.933 705.783 336.811C707.699 335.807 713.97 334.319 714.332 334.065C718.138 339.089 721.568 345.695 724.141 351.469C737.379 381.133 744.293 414.08 747.831 446.25C743.61 445.205 735.383 443.986 730.398 443.168C726.673 442.552 705.086 439.551 703.438 440.743C702.956 441.091 701.12 446.143 701.107 446.839C701.08 448.246 706.292 452.44 707.699 453.324C714.546 457.612 738.679 463.239 747.831 465.517C748.461 494.551 744.709 523.746 734.431 550.918C731.751 549.136 724.02 542.745 721.394 542.518C717.856 542.223 710.272 549.096 713.434 553.076L727.169 562.615C727.986 563.191 727.665 564.263 727.732 564.317C724.971 575.893 716.744 586.143 711.826 596.969C711.719 596.848 710.084 596.688 709.28 595.79C705.582 591.677 693.777 578.171 689.677 576C686.541 574.339 680.284 573.843 676.666 571.847C675.259 575.196 679.225 577.769 679.212 578.131C679.091 580.006 676.304 580.462 678.327 583.785C686.032 591.757 694.246 599.273 702.272 606.978C703.197 607.862 703.277 609.322 703.465 609.51C696.202 620.483 687.386 630.197 678.341 639.656C677.979 639.161 670.449 632.756 669.135 631.698C667.42 630.318 660.881 625.977 659.086 627.946C658.965 628.08 659.206 630.385 658.858 631.47C655.789 640.889 658.577 641.867 662.878 649.732C663.32 650.536 663.065 651.889 663.266 652.237C656.138 656.592 648.862 662.661 641.492 666.467C640.648 666.895 639.08 666.922 637.955 667.364C637.271 667.632 637.526 669.012 636.065 669.066C631.081 669.267 615.336 661.094 618.391 673.219C619.155 676.221 620.589 675.819 621.366 677.172C621.862 678.029 621.835 679.637 622.224 680.696L592.919 684.876C592.892 684.755 591.539 684.246 591.244 683.201C589.301 676.261 587.974 668.195 587.063 661.429L609.668 632.957C609.842 633.091 611.491 632.863 612.616 633.748C615.886 636.307 624.381 645.592 628.535 641.358C635.382 634.351 621.513 625.039 617.212 621.247L633.962 589.426C638.678 591.784 653.002 598.979 655.562 590.511C658.121 582.043 647.375 580.408 642.189 577.407C641.05 576.751 640.286 575.464 639.817 575.196C644.775 560.74 649.773 546.055 651.542 530.821C658.215 533.206 676.894 540.36 674.12 526.239C672.914 520.102 660.868 519.713 657.156 517.436C656.258 516.886 656.58 515.225 655.722 514.903C657.518 497.124 661.431 479.264 659.072 461.323C663.333 461.336 662.221 459.849 662.998 459.662C666.429 458.885 668.894 460.948 670.851 455.937C674.241 447.295 665.906 444.32 659.072 442.9C657.451 423.714 654.463 404.634 649.867 385.97C654.356 384.362 659.3 382.848 663.95 381.214C674.294 377.569 673.249 365.832 663.695 365.806C659.715 365.806 648.58 368.927 644.011 370.066L628.937 327.365C639.817 315.548 651.837 313.94 656.942 296.348C657.987 292.731 659.22 290.359 654.892 288.43C643.676 283.419 643.355 295.249 638.584 299.751C634.149 303.958 625.64 307.281 620.562 309.773L603.813 278.796C604.349 277.791 604.215 275.54 605.488 273.356C609.548 266.389 632.648 249.293 625.131 240.316C622.197 236.805 617.279 237.703 613.902 239.914C608.033 243.746 600.878 258.216 594.152 263.723C592.838 264.808 591.498 264.406 591.257 264.567C587.773 254.143 578.474 245.581 572.833 236.095C575.54 232.411 578.568 228.244 581.556 224.305C583.311 222 594.714 205.976 594.5 204.823C594.446 204.555 591.472 200.656 591.244 200.522C585 196.717 580.377 206.029 576.169 208.052C570.247 210.893 559.728 212.943 552.935 214.966C551.782 215.314 550.549 215.167 549.37 215.167C548.874 218.048 557.423 224.854 557.611 225.685C557.799 226.515 556.7 229.463 556.861 231.486C557.437 239.056 564.699 236.35 566.95 239.445C567.218 239.807 567.259 241.281 567.915 242.218C574.387 251.477 581.074 260.748 585.375 271.266C585 271.521 581.476 278.903 581.382 279.412C579.734 287.398 587.8 292.503 594.594 288.845L607.993 318.991C607.913 319.045 608.275 320.104 607.43 320.706C603.826 323.266 593.374 327.513 592.919 332.055C592.101 340.228 603.089 340.952 608.837 338.687C611.598 337.602 612.764 333.663 614.68 337.414C617.105 342.157 619.53 351.255 620.977 356.654C622.585 362.603 623.885 368.994 624.729 375.091C623.148 375.506 613.621 378.199 613.192 378.628C612.924 378.896 610.821 385.073 610.687 385.756C608.918 394.666 623.001 394.894 628.923 393.514C629.701 401.486 631.416 409.431 632.26 417.39C632.796 422.387 632.313 427.546 633.104 432.865V440.395C627.932 439.979 618.673 437.903 614.278 438.747C609.199 439.711 609.762 446.518 612.295 449.894C615.537 454.235 628.267 455.039 633.935 456.299L631.429 506.529C623.966 504.091 616.649 500.406 608.529 500.634C606.359 505.056 604.027 508.097 607.27 512.693C609.655 516.069 624.113 520.625 628.91 522.447L620.535 562.629C619.021 561.57 611.571 556.626 610.191 556.867C609.052 557.055 603.491 563.513 603.129 564.947C601.829 570.065 610.459 572.584 614.184 575.317C615.417 576.215 615.403 577.635 615.524 577.715L602.968 609.537C598.962 607.192 592.932 602.703 590.199 608.907C587.693 614.601 592.785 616.49 595.92 619.545C596.805 620.403 596.952 621.97 597.099 622.104L580.35 652.251C580.069 652.237 578.595 653.068 577.456 653.095C574.535 653.149 567.111 652.881 565.423 655.761C564.498 657.342 567.205 662.715 567.031 665.247C566.883 667.431 565.61 668.208 564.445 669.843C560.331 675.578 554.395 680.789 550.214 686.578L572.819 685.747C572.953 686.202 572.685 686.953 572.819 687.422L520.065 689.927C518.967 680.736 514.022 679.543 505.5 680.803C499.564 681.674 500.422 684.541 500.81 689.927C500.033 689.807 498.988 690.101 498.305 689.927L497.474 689.097C490.251 688.226 481.448 689.123 474.025 689.097C468.531 658.441 463.399 627.598 460.759 596.46C451.594 488.214 457.865 360.594 474.105 253.393C475.753 242.513 478.192 231.593 479.934 220.714C479.746 219.696 462.206 218.034 459.58 217.525C455.989 216.828 451.835 213.184 447.587 215.998C439.883 225.98 432.03 235.693 425.103 246.265C379.142 316.392 355.224 408.037 360.946 491.965C364.872 549.485 383.203 632.703 426.282 673.621C429.297 676.475 439.079 685.399 442.335 686.042C443.701 686.31 445.041 685.894 446.381 685.747C446.154 686.98 446.73 687.596 444.706 687.422L416.232 685.747C416.822 681.861 418.912 672.469 413.177 671.772C412.012 671.625 410.819 672.482 409.332 672.215C408.246 672.027 407.188 670.955 405.727 670.714C396.146 669.186 400.595 677.333 396.977 683.228C387.866 681.955 378.499 679.811 369.347 678.204C371.518 672.777 373.434 667.029 375.9 661.737C377.186 658.963 380.121 656.431 380.884 653.323C382.265 647.669 381.997 643.515 376.851 640.152C371.344 636.561 365.582 638.209 363.907 644.721C362.098 651.715 361.227 659.687 356.698 665.998C355.733 667.351 354.367 667.217 354.3 667.337C332.351 653.202 311.368 633.037 295.69 612.082C293.948 609.751 290.223 604.177 288.16 601.203C277.011 585.165 265.555 566.019 259.458 547.435C256.094 537.172 254.084 526.239 251.324 515.801C252.088 515.399 259.069 510.388 259.284 509.946C259.927 508.62 259.98 505.953 259.686 504.506C259.605 504.078 256.657 498.799 256.389 498.598C255.558 498.021 249.18 497.928 247.988 498.209L245.79 470.863C247.05 467.821 245.536 465.209 245.482 462.623C245.201 446.612 246.755 430.172 248.832 414.496C251.391 414.348 256.537 411.749 257.073 408.855C258.078 403.361 252.879 402.129 251.338 398.592C257.769 372.197 267.98 347.195 280.642 323.239C284.247 324.23 287.945 319.139 288.146 316.084C288.2 315.24 287.597 311.703 287.342 310.684L307.736 280.846C312.332 276.827 315.481 270.69 319.153 266.309C323.132 261.552 327.621 256.381 331.708 252.08C345.912 237.14 362.661 222.817 378.593 209.379C379.933 208.253 383.738 206.096 385.038 204.931C390.425 200.08 380.978 198.205 378.941 194.292C373.046 195.297 364.51 200.67 358.856 200.951C352.29 201.286 337.711 189.254 341.758 208.535C320.921 217.927 302.497 229.986 285.654 245.367C285.212 245.139 282.867 245.528 281.446 244.979C278.163 243.706 273.366 239.338 269.655 237.489C267.042 236.189 260.288 232.866 257.729 233.751C255.585 234.488 252.879 239.86 253.013 242.352C253.053 243.103 256.161 248.047 256.59 248.462C260.288 252.066 268.261 255.684 272.857 258.203C273.246 258.417 273.031 259.556 273.098 259.596L263.049 268.386C248.497 284.812 235.995 302.873 224.525 321.551C219.5 318.375 214.033 316.821 209.196 313.846C204.975 311.261 198.744 302.351 194.537 309.559C188.695 319.581 205.712 329.482 212.358 334.132C213.645 335.029 214.73 337.066 215.32 337.455C212.747 346.833 207.762 355.449 204.426 364.653C201.397 372.987 198.597 382.379 196.909 391.035C189.378 392.549 178.524 387.524 175.161 396.528C172.95 402.45 178.203 405.653 183.308 406.724C186.122 407.327 189.298 408.091 191.884 408.614L189.378 424.102V450.899C189.378 451.194 188.574 452.293 188.507 453.378C188.306 456.58 188.708 459.836 188.534 463.038C184.702 463.909 180.508 464.03 176.796 465.115C174.263 465.852 168.475 468.371 168.354 470.983C167.832 482.854 181.338 479.625 188.534 478.111C190.463 512.237 201.183 545.666 219.514 574.393C219.339 574.647 219.715 576.148 219.058 576.831C215.293 580.824 207.4 583.289 208.807 590.511C209.799 595.575 212.546 595.884 217.048 594.946C218.629 594.611 229.108 589.332 229.55 588.622C237.938 599.072 247.264 608.518 256.751 617.964C257.743 618.956 259.927 621.059 261.374 621.274C261.28 621.354 261.481 622.305 261.092 622.64C259.605 623.9 256.228 625.856 255.666 627.732C255.29 628.991 255.826 633.922 256.51 634.498C256.979 634.9 263.076 636.481 264.228 636.32C265.689 636.133 271.691 632.461 273.098 631.309C283.175 640.474 294.739 648.097 306.597 654.756C304.989 658.119 303.73 663.532 299.898 664.805L272.268 656.431C272.562 655.828 273.782 650.388 273.594 649.705C272.509 645.793 268.516 645.029 267.176 642.269C262.647 643.77 259.471 646.208 257.193 649.732L227.888 634.659C229.63 632.408 235.7 625.427 236.464 623.565C239.345 616.45 232.846 612.9 226.803 614.735C226.133 614.936 216.124 622.104 215.333 622.935C214.583 620.617 211.822 621.099 210.563 620.175C210.013 619.773 209.799 618.514 209.075 617.937C201.639 612.056 194.966 605.624 188.547 598.67C188.628 598.59 188.467 597.103 189.03 596.259C192.822 590.685 203.072 584.683 202.845 578.171C202.711 574.647 198.865 570.346 195.234 571.378C191.602 572.41 180.548 581.48 176.823 584.428C169.52 575.92 162.445 566.072 157.568 555.956C157.849 555.782 157.956 554.134 158.599 553.665C160.542 552.258 168.703 549.605 171.704 547.89C180.32 542.96 185.519 540.293 178.39 530.539C177.037 528.69 171.289 526.453 170.163 527.538C169.962 527.739 170.565 529.2 169.614 530.07C165.688 533.634 153.494 537.815 148.375 540.052L134.976 503.22C139.197 499 168.676 496.641 154.995 486.177C146.312 479.532 139.451 485.936 129.951 485.641C128.223 472.31 126.467 458.938 125.77 445.459V441.279C130.541 441.038 146.071 440.247 149.193 438.305C149.394 438.171 152.583 435.116 152.61 434.875C152.744 433.401 151.457 431.297 151.645 429.127C151.913 426.192 155.504 424.786 150.372 422.133C146.272 420.016 144.235 421.985 140.47 422.052C135.311 422.146 130.099 421.824 124.94 422.012L128.29 380.986C133.877 381.803 144.289 383.585 149.434 383.291C158.961 382.768 164.844 370.267 155.571 366.69C150.814 364.854 137.455 363.434 131.639 362.563L142.52 327.392C144.61 328.196 148.697 328.571 151.551 329.657C157.487 331.921 159.189 336.262 165.902 331.934C170.002 329.295 176.153 324.003 172.294 318.965L150.05 308.969L172.655 269.618C176.059 271.802 188.869 278.81 192.152 277.845C197.713 276.224 196.292 267.448 194.242 263.522C192.514 260.213 187.971 258.632 185.439 256.809C184.996 256.488 185.305 255.429 185.224 255.376L208.673 227.748C209.022 228.016 210.576 228.016 211.474 228.686C217.651 233.349 228.679 244.429 236.705 242.808C239.774 242.192 243.928 234.407 242.413 231.326C241.703 229.865 231.024 221.786 228.759 219.816C226.857 218.141 225.141 214.859 224.579 214.363L252.209 189.241C253.187 190.259 255.183 190.581 255.558 190.916C255.813 191.144 255.759 193.274 257.233 193.421C258.868 197.575 266.278 207.262 270.03 209.499C271.276 210.236 274.653 211.777 275.953 211.63C276.408 211.576 282.8 207.838 283.014 207.476C283.697 206.311 283.255 201.688 282.733 200.147C281.969 197.856 272.093 186.267 269.789 183.359C269.28 182.716 269.065 181.925 268.114 181.684C267.859 180.988 267.457 180.478 267.283 180.009C267.136 179.621 267.377 178.844 267.283 178.335L294.082 161.587C294.591 161.479 295.409 161.747 295.757 161.587C295.811 165.057 302.376 165.807 304.775 165.231C309.733 164.039 310.188 161.131 309.987 156.562C309.947 155.758 310.135 154.727 309.987 154.057L334.267 144.008C337.188 151.243 341.811 160.622 345.992 167.455C346.729 168.648 346.314 169.84 348.082 171.635C353.214 176.847 361.334 172.051 362.594 165.914C362.862 164.628 361.924 164.266 361.897 164.092C361.79 162.953 362.098 161.868 361.669 160.582C359.405 153.708 354.099 144.383 351.003 137.295L379.477 128.921C380.161 131.226 381.608 134.24 381.983 135.62C382.09 135.982 381.139 137.59 381.514 138.983C382.921 144.249 384.81 150.118 391.564 149.019C396.548 148.202 399.041 137.563 395.383 133.946C395.49 133.182 395.356 132.244 395.383 131.44C395.53 127.367 394.364 127.916 393.708 124.741C403.436 124.54 414.33 119.489 423.857 119.717C428.64 119.837 425.264 121.311 426.496 125.022C427.515 128.077 437.859 126.59 440.07 125.464C443.969 123.481 442.911 120.695 443.112 117.198L465.717 115.523C465.77 117.184 465.569 118.899 465.717 120.547C466.668 131.628 468.303 126.644 477.442 127.246C477.468 124.192 477.388 121.097 477.442 118.028C477.455 116.916 477.442 115.791 477.442 114.679H499.216L499.202 114.719ZM550.898 144.236C548.553 141.77 543.943 142.668 541.666 144.812C536.44 149.742 538.182 181.497 536.065 189.616C537.123 195.538 543.756 196.128 546.798 191.211C550.402 185.382 551.715 162.471 551.983 154.539C552.064 152.114 552.412 145.843 550.898 144.249V144.236ZM432.808 145.951C428.091 142.467 420.895 146.942 422.155 152.77L429.672 190.541C432.982 197.173 441.826 195.444 441.491 186.293C441.209 178.375 437.524 159.282 435.34 151.377C434.965 150.01 433.839 146.701 432.821 145.951H432.808ZM466.802 198.205C467.097 198.62 470.742 200.723 471.358 200.831C475.458 201.608 480.175 196.074 480.028 192.189C477.83 184.096 475.003 173.699 474.855 165.378C474.802 162.136 476.557 159.429 475.552 155.531C473.435 147.358 462.22 144.504 459.808 153.601C461.469 163.677 463.305 173.779 464.766 183.895C465.261 187.325 464.819 195.418 466.789 198.205H466.802ZM400.957 155.196C392.998 146.5 382.573 159.108 389.889 167.509C396.361 174.945 405.392 168.983 403.744 160.381C403.69 160.086 401.144 155.41 400.957 155.196ZM583.137 175.642C585.04 177.558 590.882 175.682 592.932 174.53C600.034 170.523 595.625 151.203 584.196 160.769C580.524 163.838 580.149 172.64 583.151 175.642H583.137ZM504.495 161.051C499.256 165.499 502.445 176.178 502.633 182.126C502.713 184.565 501.346 186.722 501.748 189.589C502.432 194.507 506.666 195.712 510.954 194.694C514.156 193.93 514.223 193.247 514.719 190.112C515.282 186.535 514.719 167.375 514.062 163.918C513.111 158.894 508.033 158.049 504.482 161.051H504.495ZM301.01 197.36C307.147 205.333 321.658 196.034 313.672 186.789C306.972 179.045 294.364 188.732 301.01 197.36ZM399.309 213.666C394.043 215.314 393.574 226.314 400.448 228.954C417.063 235.332 412.882 209.432 399.309 213.666ZM520.762 252.656C524.193 248.918 521.312 239.619 516.354 238.654C505.5 236.524 500.824 249.467 508.944 253.594C511.289 254.786 518.926 254.679 520.776 252.656H520.762ZM365.877 258.886C357.395 260.963 358.105 279.479 371.156 275.112C380.067 272.124 372.845 257.184 365.877 258.886ZM223.52 269.792C210.884 271.842 218.281 295.035 231.68 285.522C240.35 279.372 230.903 268.6 223.52 269.792ZM542.51 271.521C532.969 275.286 495.303 272.03 489.515 277.939C485.897 281.637 487.478 286.728 492.208 288.751C499.939 292.047 516.796 287.907 525.573 287.224C530.825 286.808 542.068 288.644 545.672 285.562C546.342 284.986 550.228 279.922 550.255 279.292C550.322 276.827 544.828 271.655 542.496 271.548L542.51 271.521ZM357.167 308.648C353.777 305.901 352.692 306.089 349.583 304.092C345.416 301.413 330.422 288.684 330.864 300.126C331.051 305.057 331.708 308.353 335.634 311.341C339.185 314.047 350.575 320.787 354.769 320.773C356.993 320.773 361.468 318.389 361.911 316.057C362.715 311.864 359.793 310.765 357.167 308.634V308.648ZM529.11 314.235C527.985 313.324 522.169 312.493 520.668 312.6C511.677 313.257 511.557 333.998 526.042 329.523C531.857 327.727 533.813 318.067 529.11 314.235ZM306.41 346.003C298.759 347.945 299.857 355.985 306.41 358.972L347.278 369.182C352.571 370.495 360.303 362.912 356.042 358.745C355.412 358.128 345.925 354.35 344.263 353.787C337.43 351.469 326.362 348.294 319.354 346.887C315.481 346.11 310.269 345.025 306.41 346.003ZM506.572 358.611C502.485 358.825 493.963 358.812 490.908 360.527C484.369 364.198 486.057 371.688 492.985 373.389L552.305 370.013C561.443 368.914 560.264 361.786 553.189 358.383C537.672 358.704 522.062 357.78 506.559 358.611H506.572ZM709.977 386.131C708.972 386.439 708.369 387.779 707.646 388.034C705.127 388.931 699.954 388.931 699.325 392.254C698.239 397.922 701.79 401.914 707.351 402.692C721.152 404.621 720.791 382.795 709.977 386.131ZM323.99 397.922C323.32 397.225 318.121 395.309 316.982 395.229C309.398 394.679 307.562 405.907 314.208 410.637C324.579 418.006 327.393 401.499 323.977 397.935L323.99 397.922ZM537.471 410.865C544.077 402.625 527.02 390.298 520.601 400.266C516.461 406.711 524.193 416.693 531.254 415.125C532.192 414.911 536.935 411.534 537.471 410.865ZM491.967 450.993C495.156 454.195 508.77 452.976 513.888 453.003C515.885 453.003 517.734 452.051 519.717 452.065C531.844 452.145 545.216 454.476 557.41 452.989C559.983 452.681 566.79 449.666 566.937 446.759C567.285 440.489 564.23 437.3 558.093 437.125C545.685 436.764 532.098 437.688 519.744 437.862C514.156 437.943 496.831 436.911 493.307 439.966C489.97 442.847 488.523 447.549 491.953 451.006L491.967 450.993ZM279.182 462.851C279.45 463.306 285.533 467.768 286.846 467.151C298.236 464.967 309.398 461.712 320.667 459.059C325.223 457.987 340.485 458.054 337.51 449.358C337.202 448.461 332.324 445.044 331.159 444.776C324.137 443.168 301.934 447.978 294.029 450.001C290.759 450.832 283.925 452.936 281.46 455.012C279.637 456.553 277.962 460.774 279.182 462.851ZM524.97 477.415C522.518 477.991 517.613 483.524 517.573 486.003C517.533 488.241 519.449 491.939 520.99 493.573C528.132 501.13 540.433 493.734 537.351 483.899C535.997 479.599 529.217 476.41 524.97 477.415ZM323.106 512.987C327.849 507.909 324.821 498.209 317.103 498.142C304.561 498.035 307.951 515.895 316.151 515.707C317.813 515.667 321.967 514.207 323.106 512.987ZM706.976 503.314C706.48 503.823 705.823 510.656 706.065 511.942C706.734 515.681 710.929 518.601 714.64 518.092C715.9 517.918 721.863 514.287 722.372 513.242C724.074 509.812 720.523 501.532 715.766 501.585C714.975 501.585 707.297 502.992 706.976 503.314ZM492.315 522.634C486.044 523.626 483.27 532.563 489.581 536.689C493.776 539.436 494.982 537.225 498.8 537.44C513.5 538.257 527.877 537.828 542.349 537.52C548.004 537.399 557.008 538.016 562.261 536.515C566.991 535.162 566.803 525.984 561.028 523.867C555.923 521.991 553.631 523.371 549.075 523.344C532.701 523.224 516.555 523.478 500.462 523.371C497.554 523.358 495.37 522.165 492.328 522.648L492.315 522.634ZM343.165 551.28C339.105 549.619 336.492 550.316 332.566 552.165C324.633 555.916 315.642 561.476 308.205 566.353C306.102 567.733 303.73 566.729 302.604 571.606C301.05 578.412 306.571 581.4 312.681 579.993C321.551 577.956 335.393 565.844 344.639 562.562C345.577 561.731 347.694 556.827 347.533 555.729C347.506 555.514 346.126 551.87 345.952 551.763C345.751 551.642 344.545 552.593 343.982 552.58C343.379 552.58 343.459 551.401 343.165 551.28ZM517.868 561.208C514.732 566.099 518.337 576.402 524.688 576.027C534.684 575.438 535.314 560.713 528.078 559.319C525.76 558.877 519.235 559.078 517.868 561.208ZM344.049 598.831C338.341 600.519 337.416 611.881 342.669 614.936C357.382 623.525 361.803 593.579 344.049 598.831ZM491.94 610.943C492.221 611.345 495.075 613.248 495.678 613.476C501.038 615.552 510.485 613.529 516.367 613.65C518.364 613.69 520.199 614.588 522.196 614.588C528.186 614.588 548.539 615.566 552.425 612.096C554.891 609.885 554.127 604.298 551.045 602.476C545.27 599.072 525.626 601.029 518.042 601.149C511.651 601.243 504.509 600.372 497.916 601.149C493.28 601.699 488.992 606.857 491.926 610.957L491.94 610.943ZM519.302 636.333C517.211 635.757 517.426 638.089 516.582 638.611C515.63 639.201 514.196 638.718 512.535 640.018C507.818 643.729 507.416 650.281 511.771 654.328C520.186 662.139 532.085 651.701 523.402 641.867C521.513 639.723 518.404 640.795 519.302 636.333Z" fill="#08958F"/>
<path d="M446.448 685.72C445.108 685.854 443.755 686.283 442.402 686.015C439.132 685.372 429.364 676.449 426.349 673.595C383.269 632.676 364.939 549.458 361.013 491.939C355.291 408.011 379.223 316.366 425.17 246.238C432.097 235.68 439.949 225.966 447.654 215.971C451.902 213.157 456.056 216.788 459.647 217.498C462.286 218.021 479.813 219.682 480.001 220.687C478.259 231.567 475.82 242.487 474.172 253.366C457.932 360.567 451.661 488.174 460.826 596.433C463.466 627.571 468.584 658.414 474.091 689.07C473.529 689.07 472.979 689.07 472.417 689.07C472.336 688.601 472.564 687.502 472.417 687.395C472.095 687.154 464.31 686.538 465.717 689.07H464.886C465.583 688.132 461.871 677.976 458.628 677.333C455.788 676.77 450.079 677.963 447.869 679.798C446.488 680.937 446.756 684.086 446.462 685.72H446.448ZM440.807 253.085C437.792 256.3 439.909 266.912 445.215 267.93C459.499 270.677 460.464 250.66 446.864 251.129C445.296 251.182 441.812 252.026 440.807 253.098V253.085ZM433.879 327.379C433.973 327.272 433.772 325.731 434.348 324.94C435.072 323.922 436.573 323.681 437.256 322.783C443.902 314.115 437.765 306.772 427.662 308.166C421.364 309.037 419.716 317.692 422.329 322.623C422.798 323.507 423.857 323.681 424.406 324.338C424.888 324.927 424.379 326.012 425.237 326.535C429.458 329.094 429.819 325.744 430.114 325.664C432.66 324.941 432.312 328.96 433.879 327.352V327.379ZM416.929 363.582C407.697 365.243 408.929 378.172 415.415 379.767C431.762 383.786 433.652 360.58 416.929 363.582ZM398.96 441.025C399.818 441.882 405.419 444.468 406.786 444.562C412.722 444.991 420.56 439.082 418.644 432.637C418.39 431.793 414.959 427.452 414.062 427.171C410.484 426.072 399.938 427.09 397.54 430.426C395.329 433.508 396.481 438.546 398.96 441.011V441.025ZM414.37 490.076C406.678 481.675 391.55 497.191 400.448 504.413C411.06 513.001 421.726 498.129 414.37 490.076ZM406.263 541.741C407.858 544.836 405.191 546.323 405.58 549.445C405.888 551.91 408.085 556.05 410.162 557.497C411.784 558.623 417.452 560.257 419.153 559.936C419.703 559.829 425.625 554.094 425.92 553.424C427.608 549.74 423.696 541.084 420.493 539.637C415.911 537.56 410.537 540.508 406.263 541.741ZM433.062 591.114C427.059 591.395 423.656 586.063 418.363 591.074C414.035 595.16 413.03 605.598 418.349 608.746C420.225 609.858 428.064 610.166 429.511 608.478C429.793 608.157 432.727 601.283 432.861 600.546C433.491 597.049 432.151 594.289 433.075 591.114H433.062ZM429.94 653.671C432.057 655.815 437.028 655.895 439.815 655.212C449.49 652.867 446.998 635.798 435.554 638.41C428.56 640.005 424.728 648.406 429.94 653.671Z" fill="#5DC3B0"/>
<path d="M662.476 147.372C658.081 152.49 655.253 158.519 650.751 164.12C644.775 163.517 640.996 161.641 639.026 155.746C640.715 153.709 643.569 141.825 644.882 138.998C650.041 127.944 662.878 103.009 670.033 93.5902C670.502 92.9739 673.919 89.3295 674.2 89.1955C678.233 87.3197 681.65 88.8874 681.811 93.3624C682.119 101.79 667.822 133.745 663.494 142.963C662.918 144.196 662.61 147.197 662.462 147.372H662.476Z" fill="#5DC3B0"/>
<path d="M351.003 137.323C354.099 144.41 359.405 153.722 361.67 160.609C362.085 161.895 361.777 162.967 361.897 164.119C357.422 164.481 358.132 168.286 353.75 168.916C350.28 169.412 349.047 168.956 345.992 167.469C341.811 160.649 337.189 151.257 334.267 144.022C331.494 137.175 323.213 112.321 323.588 106.131C324.111 97.6765 331.815 99.0432 336.13 104.898C341.155 111.705 347.225 128.667 351.003 137.323Z" fill="#5DC3B0"/>
<path d="M392.864 123.937C392.864 124.031 392.073 124.5 392.18 125.746C392.301 127.26 393.319 132.284 395.383 131.467C395.356 132.284 395.49 133.209 395.383 133.972C395.316 134.455 393.735 140.216 393.534 140.497C392.77 141.583 387.41 141.971 386.137 141.127C384.167 139.814 386.057 134.495 381.983 135.661C381.608 134.281 380.147 131.266 379.477 128.961C374.319 111.557 369.146 94.1121 364.457 76.5065C365.073 64.9571 375.029 64.448 379.638 74.7915C384.502 85.7113 391.282 111.959 392.877 123.937H392.864Z" fill="#5DC3B0"/>
<path d="M519.302 114.719C519.127 115.925 518.766 117.707 518.471 118.9C516.943 118.364 517.962 115.068 517.64 114.706C517.104 114.116 502.284 114.438 501.721 113.875C501.159 113.312 502.767 107.498 500.891 106.332C502.298 91.4462 502.767 76.3863 504.254 61.5543C504.87 55.4312 506.706 46.1059 515.108 49.844C518.256 51.2375 519.074 60.7504 519.302 64.0598C520.173 76.6945 521.03 102.955 519.302 114.706V114.719Z" fill="#5DC3B0"/>
<path d="M252.195 189.241C245.696 182.502 228.13 159.631 224.11 151.605C222.06 147.518 219.005 141.181 223.748 137.778C229.711 133.504 234.709 140.122 238.394 144.021C248.457 154.673 257.059 167.696 267.27 178.362C267.363 178.871 267.122 179.648 267.27 180.036C264.804 179.393 265.166 180.639 264.215 181.577C262.687 183.091 254.607 189.589 255.545 190.929C255.599 190.996 256.657 190.742 256.992 191.13C257.635 191.854 257.032 192.979 257.22 193.448C255.759 193.301 255.8 191.157 255.545 190.943C255.17 190.608 253.173 190.286 252.195 189.268V189.241Z" fill="#5DC3B0"/>
<path d="M309.974 154.071C310.121 154.741 309.934 155.786 309.974 156.576C305.378 157.085 300.045 159.644 295.744 161.601C295.395 161.761 294.578 161.493 294.069 161.601C290.866 154.888 288.025 147.867 284.756 141.195C280.656 132.821 267.779 111.946 267.605 104.108C267.497 99.7265 269.588 97.6096 274.21 98.9628C277.266 99.8605 293.64 125.786 296.427 130.355C299.214 134.924 309.156 150.279 309.974 154.057V154.071Z" fill="#5DC3B0"/>
<path d="M204.466 223.569C193.813 215.034 178.069 202.225 169.707 191.761C163.946 184.552 167.296 175.589 175.965 178.818C179.476 180.117 192.085 190.126 196.024 193.087C202.121 197.683 207.682 203.029 213.685 207.665C211.769 208.388 214.435 210.009 214.368 211.282C214.274 213.252 211.501 216.548 210.563 218.357C208.982 221.411 210.509 224.493 204.466 223.569Z" fill="#5DC3B0"/>
<path d="M176.005 251.196C176.166 251.557 176.461 251.919 176.836 252.026C177.091 252.107 177.412 251.959 177.667 252.026C180.548 258.042 174.585 255.135 174.33 255.376C172.495 257.011 176.849 256.756 175.992 258.297C175.014 260.052 172.374 259.235 171.918 259.663C170.404 261.111 174.103 265.318 166.786 264.581C163.329 264.232 149.997 256.93 146.097 254.706C138.969 250.66 132.417 245.166 124.993 241.482C118.856 232.264 125.516 226.663 135.391 230.241C147.129 234.501 165.111 244.537 175.992 251.182L176.005 251.196Z" fill="#5DC3B0"/>
<path d="M616.435 129.792C616.006 130.797 611.638 135.312 611.41 135.647L600.529 133.129L598.854 138.997C597.327 134.241 599.337 129.377 600.529 124.768C604.161 110.713 608.582 89.7444 614.385 77.0561C618.27 68.5481 625.988 71.5627 625.68 79.9367C625.292 90.5751 619.289 117.399 616.1 128.091C615.845 128.948 616.475 129.712 616.448 129.792H616.435Z" fill="#5DC3B0"/>
<path d="M443.112 113.889C442.04 119.181 440.472 116.676 436.09 117.346C431.709 118.015 430.275 117.962 426.362 118.082V114.733C428.118 112.911 426.872 109.507 427.193 107.203C426.242 107.056 426.429 108.047 426.362 108.034C423.79 107.806 423.83 73.6666 424.232 70.1161C424.553 67.2488 424.513 61.4339 427.783 60.4424C433.545 58.7006 435.849 67.021 436.854 71.1611C439.44 81.8129 442.254 102.755 443.112 113.889Z" fill="#5DC3B0"/>
<path d="M131.626 362.55C137.428 363.421 150.787 364.841 155.558 366.677C164.83 370.254 158.948 382.755 149.421 383.278C144.275 383.559 133.864 381.79 128.276 380.973C127.928 380.919 126.561 379.7 125.181 379.486C118.36 378.401 110.696 378.561 103.996 375.949C104.09 375.949 104.546 375.198 105.216 375.225C107.855 375.305 111.058 376.632 114.046 375.949L115.828 366.007C118.776 364.413 122.93 367.843 122.421 362.55C114.676 362.537 106.998 361.157 99.3867 360.004C97.819 359.763 95.9966 361.063 96.4656 358.356C108.123 359.294 120.062 360.822 131.639 362.537L131.626 362.55Z" fill="#20B8AF"/>
<path d="M130.782 321.524C122.742 318.469 96.3584 311.395 92.4859 304.991C86.9519 295.839 95.0184 294.419 102.509 295.813C114.716 298.077 126.333 303.557 138.621 305.607C139.639 305.794 139.009 306.84 139.157 307.295C139.25 307.576 139.036 307.965 139.572 308.112L139.987 307.295C140.537 307.335 141.113 307.241 141.662 307.295C140.778 310.256 146.513 308.112 145.843 311.047C145.468 312.681 139.183 311.596 140.818 316.5L137.482 315.656C136.356 316.808 143.98 321.404 137.08 322.395C132.765 323.011 133.69 319.595 130.782 321.511V321.524Z" fill="#5DC3B0"/>
<path d="M569.537 118.913C563.909 118.216 559.407 117.198 553.631 118.082C553.631 117.801 553.631 117.52 553.631 117.252C553.698 102.486 557.866 88.2037 558.83 73.4654C561.162 68.843 566.843 62.251 571.6 67.8783C574.91 71.7772 571.64 89.3828 571.225 95.0637C570.649 102.795 570.461 111.262 569.537 118.913Z" fill="#5DC3B0"/>
<path d="M124.926 421.986C130.072 421.785 135.284 422.12 140.456 422.026C144.222 421.959 146.258 419.99 150.359 422.107C155.491 424.76 151.9 426.166 151.632 429.101C151.431 431.271 152.73 433.375 152.596 434.849C152.57 435.09 149.394 438.158 149.179 438.279C146.071 440.208 130.541 441.012 125.757 441.253C121.429 441.467 116.19 441.146 111.527 441.253C111.835 438.882 113.872 438.52 114.113 435.827C114.394 432.852 111.996 429.007 112.411 427.52C112.826 426.032 115.64 426.93 114.877 424.505C110.187 424.277 105.698 425.858 100.968 425.389C99.36 425.229 98.5024 424.559 98.1272 424.492C107.172 423.755 115.908 422.321 124.926 421.986Z" fill="#20B8AF"/>
<path d="M98.1271 424.505C98.5023 424.558 99.3599 425.242 100.968 425.403C105.698 425.871 110.187 424.29 114.877 424.518C115.64 426.93 112.813 426.072 112.411 427.533C112.009 428.993 114.394 432.865 114.113 435.84C113.858 438.533 111.835 438.895 111.527 441.266C100.807 441.521 82.8517 443.048 72.9628 440.891C71.5826 440.583 68.2328 439.9 67.5628 438.761C66.3434 436.711 67.2948 430.963 68.8089 429.087C70.3231 427.211 82.9053 425.001 86.081 424.585C89.8998 424.089 94.5763 423.942 98.1405 424.505H98.1271Z" fill="#5DC3B0"/>
<path d="M129.951 485.615C139.451 485.909 146.312 479.505 154.995 486.15C168.676 496.615 139.197 498.973 134.976 503.193L104.827 507.374C105.055 507.213 105.028 506.369 106.247 505.9C108.257 505.136 116.967 504.413 117.382 504.011C117.57 503.823 117.53 499.522 117.262 498.705C116.618 496.802 109.986 495.462 117.396 493.962L116.551 490.626C108.458 492.475 99.6279 495.771 91.5479 497.164C89.7792 497.472 89.0556 496.467 88.9216 496.481L129.951 485.601V485.615Z" fill="#20B8AF"/>
<path d="M224.565 214.351C225.115 214.846 226.83 218.129 228.746 219.804C231.01 221.787 241.676 229.866 242.4 231.313C243.914 234.395 239.774 242.179 236.692 242.795C228.652 244.417 217.638 233.336 211.46 228.674C210.576 228.004 209.008 228.004 208.66 227.736C207.628 226.945 206.007 224.775 204.479 223.555C210.509 224.493 208.995 221.398 210.576 218.343C211.514 216.535 214.274 213.239 214.382 211.269C214.449 209.996 211.782 208.375 213.698 207.651C216.525 209.835 222.059 212.059 224.579 214.351H224.565Z" fill="#20B8AF"/>
<path d="M96.4522 358.357C95.9832 361.063 97.819 359.763 99.3733 360.005C106.984 361.157 114.662 362.537 122.407 362.55C122.903 367.843 118.762 364.413 115.815 366.007L114.032 375.949C111.058 376.632 107.842 375.306 105.202 375.225C104.532 375.198 104.077 375.949 103.983 375.949C103.433 375.922 102.857 375.989 102.308 375.949C103.246 373.966 98.8641 373.738 96.7738 373.497C95.206 373.309 95.5812 373.497 95.608 375.118C90.61 374.22 76.3797 370.496 74.1018 366.088C67.9782 354.243 90.7172 357.915 96.4388 358.37L96.4522 358.357Z" fill="#5DC3B0"/>
<path d="M150.05 308.957L172.294 318.952C176.153 323.99 170.002 329.282 165.902 331.922C159.189 336.249 157.474 331.922 151.551 329.644C148.684 328.545 144.61 328.183 142.52 327.379C139.438 326.187 134.721 323.012 130.795 321.524C133.703 319.608 132.778 323.025 137.093 322.409C144.007 321.417 136.383 316.821 137.495 315.669L140.831 316.513C139.197 311.596 145.481 312.695 145.856 311.06C146.526 308.113 140.791 310.27 141.676 307.309C144.543 307.59 147.183 308.742 150.05 308.983V308.957Z" fill="#20B8AF"/>
<path d="M88.9218 496.507C89.0558 496.494 89.7793 497.499 91.5481 497.191C99.628 495.797 108.458 492.501 116.552 490.652L117.396 493.989C109.986 495.489 116.605 496.829 117.262 498.732C117.53 499.536 117.57 503.85 117.382 504.037C116.98 504.426 108.271 505.163 106.247 505.927C105.028 506.382 105.055 507.24 104.827 507.4C101.785 509.584 92.8344 511.031 88.4126 511.5C84.2319 511.929 77.7063 511.956 76.5406 506.811C74.8656 499.402 82.9858 497.392 88.9218 496.521V496.507Z" fill="#5DC3B0"/>
<path d="M477.442 92.1161C476.048 93.8043 476.008 98.6411 477.442 100.49C477.455 101.602 477.442 102.728 477.442 103.84C476.048 106.077 476.021 111.477 477.442 113.889C477.442 114.17 477.442 114.451 477.442 114.719C477.442 115.831 477.455 116.957 477.442 118.069C475.07 118.364 469.187 113.728 467.392 115.55C467.044 115.898 468.29 120.065 465.717 120.574C465.57 118.926 465.771 117.211 465.717 115.55C465.409 106.117 465.047 93.3622 465.677 84.1172C466.012 79.267 466.441 68.1597 473.891 71.7907C478.527 74.0416 477.321 87.4803 477.428 92.1161H477.442Z" fill="#5DC3B0"/>
<path d="M185.211 255.376C185.291 255.43 184.983 256.488 185.425 256.81C187.971 258.632 192.513 260.2 194.229 263.523C196.279 267.448 197.686 276.211 192.138 277.845C188.855 278.81 176.045 271.789 172.642 269.619C170.712 268.386 168.073 266.524 166.786 264.594C174.103 265.318 170.404 261.124 171.918 259.677C172.374 259.235 175.014 260.052 175.992 258.311C176.849 256.77 172.495 257.024 174.33 255.39C174.598 255.148 180.561 258.056 177.667 252.04C180.856 252.871 182.491 253.46 185.197 255.39L185.211 255.376Z" fill="#20B8AF"/>
<path d="M500.877 106.346C502.753 107.511 501.145 113.326 501.708 113.889C502.271 114.452 517.077 114.13 517.627 114.72C517.962 115.081 516.93 118.378 518.457 118.913C517.828 121.473 518.605 123.831 514.491 124.635C512.079 125.104 501.641 123.884 500.462 121.419C500.18 120.829 499.189 115.47 499.202 114.72C499.242 113.045 500.649 108.744 500.877 106.346Z" fill="#17B2AA"/>
<path d="M443.112 117.238C442.911 120.722 443.969 123.522 440.07 125.505C437.859 126.631 427.528 128.118 426.496 125.063C425.25 121.352 428.627 119.878 423.856 119.757C424.379 119.101 425.598 118.109 426.362 118.082C430.275 117.962 431.749 118.002 436.09 117.345C440.432 116.689 442.026 119.181 443.112 113.889C443.246 115.697 443.205 115.523 443.112 117.238Z" fill="#17B2AA"/>
<path d="M393.708 124.768C394.364 127.944 395.53 127.394 395.383 131.467C393.319 132.285 392.301 127.26 392.18 125.746C392.086 124.5 392.877 124.031 392.863 123.938C393.024 124.259 393.667 124.594 393.694 124.768H393.708Z" fill="#17B2AA"/>
<path d="M95.6215 375.104C95.5947 373.483 95.2329 373.295 96.7873 373.483C98.8776 373.737 103.259 373.952 102.321 375.935C100.392 375.774 97.4974 375.426 95.6215 375.104Z" fill="#20B8AF"/>
<path d="M477.441 113.889C476.021 111.49 476.048 106.077 477.441 103.84C477.441 107.176 477.468 110.552 477.441 113.889Z" fill="#20B8AF"/>
<path d="M477.441 100.49C476.007 98.6413 476.048 93.8044 477.441 92.1162C477.508 94.9031 477.401 97.7034 477.441 100.49Z" fill="#20B8AF"/>
<path d="M426.362 114.719V108.02C426.362 108.02 426.242 107.042 427.193 107.189C426.872 109.507 428.118 112.91 426.362 114.719Z" fill="#17B2AA"/>
<path d="M125.77 445.433C125.744 444.99 123.787 443.396 125.77 442.083V445.433Z" fill="#20B8AF"/>
<path d="M139.156 307.295H139.987L139.572 308.112C139.023 307.965 139.25 307.576 139.156 307.295Z" fill="#20B8AF"/>
<path d="M176.836 252.027C176.448 251.906 176.153 251.558 176.005 251.196C176.34 251.397 176.582 251.746 176.836 252.027Z" fill="#20B8AF"/>
<path d="M683.419 234.447L709.374 256.22C705.3 259.744 701.053 265.867 697.649 270.449C697.596 270.529 696.537 270.275 696.256 270.704C694.527 273.303 692.33 276.452 693.16 279.48C694.299 283.606 696.162 284.826 700.436 283.66C701.401 283.392 701.736 282.199 701.83 282.159C702.741 281.824 703.867 282.441 705.622 281.369C707.203 280.404 708.101 277.992 709.454 276.8C713.327 273.383 717.105 271.293 721.085 268.761C730.438 279.024 739.215 289.837 747.04 301.413C740.099 305.205 751.85 319.621 757.92 318.992L773.826 349.969C770.369 350.826 757.425 355.583 755.013 357.525C754.463 357.968 750.604 361.558 750.497 361.84C750.216 362.577 751.073 363.287 751.1 363.783C751.113 364.104 748.099 364.747 749.693 369.504C751.77 375.68 774 367.28 779.105 366.489C780.86 366.221 779.896 365.23 781.37 367.547C782.04 374.193 787.507 385.97 789.356 393.473C790.254 397.104 791.098 401.486 791.419 405.224C790.012 405.358 787.024 406.537 785.028 406.792C779.842 407.435 771.561 406.242 768.104 410.784C765.679 413.973 766.777 418.247 769.618 420.739C773.705 424.33 789.718 419.976 795.6 421.128C795.01 427.385 796.994 433.789 797.315 439.926C798.28 458.978 795.653 475.726 793.215 493.667C792.464 499.147 792.84 504.64 790.575 509.879C787.399 507.883 778.422 502.765 775.125 502.309C768.345 501.358 764.151 503.81 764.098 511.005C764.057 517.114 773.196 518.883 777.926 521.268C780.994 522.822 782.83 524.215 786.394 525.783C783.179 541.017 773.625 553.746 767.139 567.64C766.59 567.023 754.597 562.87 751.904 561.517C745.218 558.167 740.555 554.925 734.485 550.892C744.749 523.72 748.514 494.524 747.884 465.49C756.5 467.634 778.877 475.941 778.114 460.854C777.966 458.027 776.64 458.777 775.769 457.639C775.313 457.036 775.822 455.87 774.965 455.401C773.611 454.664 770.543 454.879 768.801 454.182C761.94 451.408 754.959 447.965 747.884 446.223C744.347 414.053 737.432 381.107 724.194 351.443C721.621 345.668 718.204 339.062 714.385 334.038C714.493 333.958 714.439 332.323 715.712 331.64C720.201 329.201 733.426 323.962 733.694 318.576C734.15 309.412 721.929 316.861 718.003 317.853C714.827 318.657 710.982 319.34 707.686 320.653C696.457 297.554 681.101 275.46 664.15 256.18C670.153 248.636 677.108 241.522 683.406 234.407L683.419 234.447Z" fill="#5DC3B0"/>
<path d="M248.845 414.456C246.768 430.132 245.227 446.572 245.495 462.583C245.536 465.183 247.063 467.782 245.804 470.823L248.001 498.17C245.629 498.732 237.482 504.279 234.2 505.713C225.852 509.344 216.901 510.992 209.464 515.293C207.776 516.271 204.895 514.971 205.538 519.42C206.181 523.868 210.697 524.98 214.717 524.752C226.24 524.082 241.315 521.014 251.364 515.762C254.125 526.199 256.135 537.132 259.498 547.395C265.608 565.979 277.065 585.125 288.2 601.163C279.128 605.906 272.254 613.356 264.71 619.975C263.625 620.926 261.695 621.02 261.414 621.261C259.967 621.047 257.783 618.943 256.791 617.952C247.318 608.506 237.992 599.06 229.59 588.609C229.791 588.301 229.134 586.599 230.139 586.05L256.027 570.24C262.272 557.9 251.552 556.56 241.931 560.325C238.179 561.799 221.336 571.781 219.554 574.366C201.223 545.64 190.504 512.211 188.574 478.085C190.463 477.683 193.21 476.196 195.086 475.808C206.891 473.289 218.388 471.721 229.657 466.723C229.925 465.236 229.469 459.22 228.585 458.189C227.701 457.157 225.503 457.599 224.418 457.063C223.279 456.5 223.574 455.067 220.72 454.933C214.02 454.638 213.028 457.505 208.419 458.966C202.791 460.748 194.644 461.632 188.587 462.999C188.748 459.81 188.36 456.541 188.561 453.338C188.628 452.253 189.432 451.154 189.432 450.86V424.063L191.937 408.574C208.178 411.843 222.85 412.058 239.238 412.768C242.132 412.889 246.206 414.577 248.885 414.429L248.845 414.456Z" fill="#5DC3B0"/>
<path d="M273.125 259.57C273.473 259.798 276.716 260.079 278.15 260.83C282.17 262.907 298.088 271.883 301.224 272.098C305.177 272.366 306.544 270.155 307.884 267.073C308.366 265.975 308.138 263.992 308.286 263.751C308.366 263.63 310.604 264.112 309.96 262.076C310.778 262.679 314.543 263.871 315.963 264.689C316.928 265.251 316.942 267.033 319.179 266.27C315.508 270.651 312.346 276.787 307.763 280.807L287.369 310.645C285.828 304.334 286.23 306.746 282.317 306.076C277.011 305.165 272.04 302.097 266.774 301.44C262.379 300.891 255.933 302.941 256.59 308.434C257.327 314.624 267.055 315.348 271.758 317.465C274.157 318.537 279.811 322.972 280.669 323.213C268.006 347.169 257.796 372.171 251.364 398.566C233.168 396.623 214.917 394.479 196.935 391.036C198.624 382.367 201.424 372.975 204.452 364.654C207.789 355.45 212.787 346.834 215.346 337.455C220.076 340.617 235.66 347.92 241.315 349.594C251.485 352.596 254.969 347.973 251.123 338.514L230.193 326.616C228.826 322.985 227.526 323.414 224.565 321.538C236.022 302.861 248.537 284.8 263.089 268.373L273.138 259.584L273.125 259.57Z" fill="#5DC3B0"/>
<path d="M341.784 208.495C344.397 207.732 344.076 209.608 345.335 210.425C348.27 212.327 354.836 216.937 358.118 216.923C358.587 216.923 364.818 215.289 365.1 215.061C365.971 214.337 365.368 210.532 365.234 209.34C367.887 208.67 370.888 210.023 373.193 210.01C375.002 210.01 377.28 208.174 378.633 209.326C362.688 222.765 345.952 237.088 331.748 252.027C331.561 251.705 331.011 251.437 330.917 251.196C329.631 247.914 324.62 246.373 320.868 246.172C320.318 246.145 319.756 246.185 319.193 246.172C317.169 246.105 314.865 247.19 312.493 246.172V249.522C311.944 249.575 311.3 249.414 310.818 249.522C308.527 250.004 307.723 248.986 307.468 252.871C307.428 253.474 307.334 255.068 307.468 255.377C306.168 256.395 304.721 255.859 303.287 255.377C298.665 253.809 290.786 249.495 286.283 247.016C285.506 246.587 285.788 245.368 285.707 245.328C302.551 229.933 320.975 217.874 341.811 208.495H341.784Z" fill="#5DC3B0"/>
<path d="M659.126 461.337C661.484 479.291 657.572 497.138 655.776 514.917C647.911 512.05 639.63 509.21 631.496 506.543L634.002 456.312C641.372 457.947 651.863 461.31 659.126 461.337Z" fill="#5DC3B0"/>
<path d="M196.935 391.008C214.918 394.452 233.154 396.595 251.364 398.538C252.905 402.089 258.104 403.321 257.099 408.801C256.563 411.695 251.418 414.295 248.859 414.442C246.299 414.589 242.119 412.915 239.211 412.781C222.823 412.057 208.151 411.856 191.911 408.587C189.324 408.064 186.162 407.287 183.335 406.698C178.23 405.612 172.964 402.41 175.188 396.502C178.551 387.498 189.418 392.522 196.935 391.008Z" fill="#17B2AA"/>
<path d="M649.92 385.984C654.516 404.648 657.518 423.728 659.126 442.914C650.684 441.159 641.693 441.092 633.171 440.409V438.734C635.462 437.073 633.372 434.192 633.171 432.879C632.38 427.546 632.863 422.401 632.327 417.404C631.469 409.445 629.754 401.5 628.99 393.528C633.64 392.442 644.48 387.941 649.92 385.998V385.984Z" fill="#5DC3B0"/>
<path d="M628.99 327.38L614.76 337.428C612.844 333.677 611.678 337.616 608.918 338.701C603.169 340.966 592.182 340.242 592.999 332.069C593.455 327.527 603.893 323.293 607.511 320.721C608.355 320.131 607.993 319.059 608.074 319.006C610.445 317.344 619.919 310.149 620.629 309.801C625.708 307.309 634.216 303.973 638.651 299.779C643.422 295.264 643.743 283.433 654.959 288.457C659.287 290.387 658.054 292.758 657.009 296.376C651.904 313.968 639.884 315.576 629.004 327.393L628.99 327.38Z" fill="#17B2AA"/>
<path d="M683.419 234.448C677.121 241.563 670.167 248.664 664.164 256.221C661.31 259.798 657.839 262.786 652.922 262.049C643.381 260.615 650.992 248.222 653.284 243.666C656.339 237.583 662.127 227.226 667.514 223.569C668.559 222.859 670.113 222.711 671.614 221.398C677.456 216.253 683.701 205.709 689.235 201.341C690.159 200.604 691.459 199.8 692.611 199.599C695.238 199.143 704.791 208.053 702.514 212.1C696.323 218.772 690.28 225.565 684.237 232.371C683.607 233.068 683.607 234.261 683.433 234.462L683.419 234.448Z" fill="#17B2AA"/>
<path d="M642.39 207.651C641.452 208.816 638.504 212.715 637.968 213.265C635.409 215.837 631.282 218.289 628.16 220.205C622.719 221.706 621.835 212.327 620.147 211.844C618.552 211.389 617.386 213.425 616.033 213.479C615.216 213.506 610.472 211.188 609.762 210.572C608.168 209.165 608.395 207.771 607.605 206.86C606.493 205.574 601.682 204.06 600.543 201.367C599.82 199.638 601.749 200.268 602.526 200.04C604.443 199.478 614.559 197.789 612.576 195.123C610.003 191.666 607.417 191.385 613.943 188.826C624.14 184.847 629.808 188.893 639.04 192.591C639.657 192.135 641.921 182.743 643.65 180.854C645.619 178.697 652.413 176.191 655.012 177.906C655.937 178.522 657.451 184.605 657.13 185.918C655.937 190.715 646.651 200.603 643.355 204.864C642.685 205.735 642.685 207.329 642.417 207.664L642.39 207.651Z" fill="#17B2AA"/>
<path d="M491.966 450.993C488.536 447.55 489.983 442.834 493.32 439.953C496.857 436.898 514.169 437.93 519.757 437.849C532.111 437.675 545.699 436.751 558.107 437.113C564.244 437.287 567.299 440.475 566.95 446.746C566.789 449.653 559.983 452.668 557.423 452.976C545.23 454.463 531.857 452.132 519.73 452.052C517.747 452.052 515.898 453.003 513.901 452.99C508.783 452.963 495.156 454.182 491.98 450.98L491.966 450.993Z" fill="#17B2AA"/>
<path d="M631.496 506.557C639.643 509.223 647.911 512.063 655.776 514.931C656.62 515.239 656.312 516.914 657.21 517.463C660.922 519.727 672.968 520.129 674.174 526.266C676.947 540.388 658.255 533.246 651.595 530.848C644.105 528.168 636.441 525.314 628.99 522.474C624.193 520.652 609.735 516.096 607.35 512.72C604.107 508.138 606.439 505.096 608.61 500.661C616.73 500.447 624.046 504.131 631.51 506.557H631.496Z" fill="#17B2AA"/>
<path d="M224.565 321.524C227.527 323.4 228.826 322.971 230.193 326.602L251.123 338.5C254.969 347.96 251.485 352.582 241.315 349.581C235.673 347.906 220.076 340.617 215.346 337.442C214.77 337.053 213.685 335.017 212.385 334.119C205.739 329.483 188.721 319.582 194.564 309.546C198.771 302.338 205.002 311.234 209.223 313.834C214.06 316.795 219.514 318.349 224.552 321.538L224.565 321.524Z" fill="#17B2AA"/>
<path d="M649.92 385.984C644.48 387.94 633.64 392.428 628.99 393.514C623.081 394.894 608.985 394.679 610.753 385.756C610.887 385.059 612.991 378.896 613.259 378.628C613.688 378.199 623.215 375.52 624.796 375.091C631.081 373.429 637.847 371.607 644.051 370.066C648.621 368.928 659.756 365.806 663.735 365.806C673.289 365.832 674.334 377.556 663.99 381.214C659.354 382.848 654.396 384.363 649.907 385.97L649.92 385.984Z" fill="#17B2AA"/>
<path d="M633.171 440.409C641.693 441.092 650.697 441.172 659.126 442.914C665.959 444.334 674.294 447.309 670.904 455.951C668.948 460.962 666.482 458.899 663.052 459.676C662.275 459.85 663.4 461.35 659.126 461.337C651.863 461.31 641.385 457.961 634.002 456.313C628.334 455.053 615.604 454.249 612.361 449.908C609.829 446.532 609.279 439.725 614.344 438.761C618.739 437.93 627.985 439.993 633.171 440.409Z" fill="#17B2AA"/>
<path d="M603.866 278.824C603.545 279.426 595.25 288.551 594.661 288.872C587.867 292.53 579.801 287.412 581.449 279.44C581.556 278.931 585.067 271.535 585.442 271.294C585.683 271.133 587.023 271.629 587.733 271.119C588.443 270.61 589.783 265.653 591.311 264.594C591.552 264.434 592.879 264.836 594.205 263.75C600.932 258.23 608.087 243.773 613.956 239.941C617.333 237.731 622.251 236.846 625.185 240.343C632.702 249.32 609.601 266.417 605.541 273.384C604.268 275.568 604.389 277.819 603.866 278.824Z" fill="#17B2AA"/>
<path d="M285.694 245.327C285.774 245.367 285.493 246.587 286.27 247.015C290.786 249.494 298.665 253.808 303.274 255.376C303.957 258.779 308.728 259.355 308.299 263.75C308.152 263.991 308.379 265.974 307.897 267.073C306.557 270.154 305.177 272.365 301.237 272.097C298.102 271.883 282.183 262.906 278.163 260.829C276.73 260.092 273.487 259.797 273.139 259.57C273.072 259.53 273.286 258.391 272.897 258.176C268.301 255.671 260.329 252.04 256.63 248.436C256.202 248.02 253.106 243.063 253.053 242.326C252.919 239.847 255.625 234.461 257.769 233.724C260.329 232.853 267.082 236.163 269.695 237.462C273.393 239.311 278.19 243.679 281.486 244.952C282.907 245.501 285.252 245.113 285.694 245.341V245.327Z" fill="#17B2AA"/>
<path d="M506.572 358.611C522.075 357.78 537.686 358.705 553.202 358.383C560.264 361.786 561.443 368.914 552.318 370.013L492.998 373.389C486.071 371.674 484.382 364.198 490.921 360.527C493.99 358.812 502.498 358.825 506.585 358.611H506.572Z" fill="#17B2AA"/>
<path d="M542.51 271.521C544.828 271.628 550.335 276.8 550.268 279.265C550.255 279.908 546.369 284.96 545.685 285.536C542.081 288.617 530.839 286.795 525.586 287.197C516.809 287.88 499.953 292.034 492.221 288.725C487.478 286.701 485.91 281.61 489.528 277.912C495.317 272.003 532.983 275.259 542.523 271.494L542.51 271.521Z" fill="#17B2AA"/>
<path d="M188.561 463.012C194.604 461.645 202.751 460.761 208.392 458.979C213.015 457.518 213.993 454.651 220.693 454.946C223.56 455.066 223.252 456.514 224.391 457.076C225.53 457.639 227.687 457.197 228.558 458.202C229.429 459.207 229.898 465.236 229.63 466.737C218.361 471.734 206.864 473.302 195.059 475.821C193.183 476.223 190.437 477.71 188.547 478.098C181.352 479.612 167.845 482.841 168.368 470.97C168.488 468.358 174.277 465.839 176.809 465.102C180.507 464.017 184.715 463.883 188.547 463.025L188.561 463.012Z" fill="#20B8AF"/>
<path d="M572.886 236.122C572.685 236.39 567.955 239.124 567.031 239.472C564.78 236.377 557.517 239.083 556.941 231.513C556.78 229.49 557.865 226.516 557.691 225.712C557.517 224.908 548.955 218.075 549.45 215.194C550.616 215.194 551.862 215.328 553.015 214.993C559.808 212.97 570.314 210.92 576.249 208.079C580.444 206.056 585.08 196.744 591.324 200.549C591.552 200.683 594.54 204.582 594.58 204.85C594.781 206.003 583.378 222.041 581.636 224.332C578.648 228.271 575.62 232.438 572.913 236.122H572.886Z" fill="#17B2AA"/>
<path d="M279.182 462.851C277.962 460.774 279.624 456.554 281.46 455.013C283.939 452.923 290.759 450.832 294.028 450.002C301.921 447.979 324.137 443.168 331.159 444.776C332.311 445.044 337.202 448.461 337.51 449.359C340.485 458.054 325.223 457.987 320.667 459.059C309.398 461.712 298.249 464.981 286.846 467.152C285.547 467.768 279.45 463.306 279.182 462.851Z" fill="#17B2AA"/>
<path d="M628.99 327.379L644.065 370.08C637.861 371.621 631.094 373.443 624.809 375.104C623.965 369.008 622.665 362.617 621.058 356.668C619.597 351.268 617.185 342.184 614.76 337.428L628.99 327.379Z" fill="#5DC3B0"/>
<path d="M251.364 515.762C241.328 521.014 226.24 524.082 214.717 524.752C210.683 524.993 206.194 524.002 205.538 519.42C204.881 514.837 207.776 516.271 209.464 515.293C216.914 510.992 225.852 509.357 234.199 505.713C237.482 504.279 245.629 498.732 248.001 498.17C249.194 497.888 255.572 497.982 256.403 498.558C256.684 498.746 259.618 504.038 259.699 504.467C259.994 505.901 259.94 508.58 259.297 509.907C259.082 510.349 252.115 515.36 251.337 515.762H251.364Z" fill="#17B2AA"/>
<path d="M306.41 346.004C310.269 345.026 315.481 346.111 319.354 346.888C326.362 348.295 337.43 351.47 344.263 353.788C345.925 354.351 355.412 358.143 356.042 358.746C360.303 362.912 352.571 370.496 347.278 369.183L306.41 358.973C299.844 355.985 298.745 347.946 306.41 346.004Z" fill="#17B2AA"/>
<path d="M642.39 207.651C652.078 210.706 659.166 218.25 667.514 223.555C662.114 227.2 656.326 237.557 653.284 243.653L628.16 220.206C631.282 218.29 635.409 215.838 637.968 213.265C638.517 212.716 641.465 208.817 642.39 207.651Z" fill="#5DC3B0"/>
<path d="M466.802 198.205C464.819 195.418 465.274 187.326 464.779 183.896C463.318 173.78 461.482 163.691 459.821 153.602C462.233 144.491 473.448 147.345 475.565 155.531C476.57 159.43 474.815 162.137 474.869 165.379C475.016 173.699 477.843 184.097 480.041 192.189C480.202 196.075 475.471 201.608 471.371 200.831C470.755 200.711 467.11 198.62 466.815 198.205H466.802Z" fill="#17B2AA"/>
<path d="M550.898 144.236C552.412 145.831 552.064 152.101 551.983 154.526C551.729 162.458 550.402 185.369 546.797 191.198C543.756 196.128 537.123 195.525 536.064 189.603C538.182 181.484 536.44 149.743 541.665 144.799C543.943 142.655 548.553 141.757 550.898 144.223V144.236Z" fill="#20B8AF"/>
<path d="M432.808 145.951C433.826 146.702 434.952 150.011 435.327 151.378C437.511 159.283 441.196 178.376 441.477 186.294C441.812 195.445 432.969 197.174 429.659 190.541L422.142 152.771C420.882 146.943 428.078 142.481 432.794 145.951H432.808Z" fill="#20B8AF"/>
<path d="M341.784 208.495C337.738 189.215 352.316 201.247 358.882 200.912C364.537 200.631 373.072 195.244 378.968 194.253C380.991 198.152 390.438 200.041 385.065 204.891C383.765 206.057 379.96 208.214 378.62 209.34C377.266 208.187 375.002 210.009 373.179 210.023C370.875 210.023 367.873 208.683 365.22 209.353C365.341 210.545 365.957 214.351 365.086 215.074C364.805 215.302 358.574 216.936 358.105 216.936C354.822 216.95 348.27 212.341 345.322 210.438C344.062 209.621 344.384 207.745 341.771 208.509L341.784 208.495Z" fill="#17B2AA"/>
<path d="M620.616 309.8C619.892 310.149 610.432 317.357 608.06 319.005L594.661 288.858C595.264 288.537 603.558 279.412 603.866 278.81L620.616 309.787V309.8Z" fill="#5DC3B0"/>
<path d="M267.27 180.024C267.457 180.493 267.846 181.002 268.1 181.699C268.449 182.65 267.203 183.789 269.775 183.373C272.08 186.267 281.942 197.857 282.719 200.162C283.242 201.702 283.684 206.325 283.001 207.491C282.8 207.839 276.408 211.59 275.939 211.644C274.639 211.791 271.263 210.251 270.016 209.514C266.265 207.276 258.841 197.576 257.22 193.436C257.046 192.98 257.635 191.855 256.992 191.118C256.657 190.729 255.585 190.984 255.545 190.917C254.607 189.59 262.687 183.079 264.214 181.565C265.166 180.627 264.804 179.381 267.27 180.024Z" fill="#20B8AF"/>
<path d="M357.167 308.648C359.807 310.779 362.715 311.877 361.911 316.071C361.469 318.389 356.993 320.774 354.769 320.787C350.575 320.814 339.185 314.075 335.634 311.355C331.708 308.367 331.052 305.071 330.864 300.14C330.422 288.685 345.416 301.427 349.583 304.106C352.679 306.089 353.777 305.915 357.167 308.662V308.648Z" fill="#17B2AA"/>
<path d="M280.669 323.199C279.812 322.972 274.157 318.537 271.758 317.451C267.042 315.348 257.327 314.611 256.59 308.421C255.934 302.928 262.379 300.878 266.774 301.427C272.04 302.083 277.011 305.152 282.317 306.063C286.23 306.733 285.841 304.321 287.369 310.632C287.624 311.65 288.226 315.187 288.173 316.031C287.985 319.099 284.274 324.177 280.669 323.186V323.199Z" fill="#17B2AA"/>
<path d="M504.495 161.051C508.046 158.036 513.125 158.894 514.076 163.918C514.733 167.375 515.295 186.535 514.733 190.112C514.237 193.261 514.17 193.944 510.967 194.694C506.679 195.713 502.445 194.507 501.762 189.59C501.36 186.709 502.713 184.565 502.646 182.127C502.459 176.178 499.269 165.499 504.509 161.051H504.495Z" fill="#20B8AF"/>
<path d="M524.969 477.415C529.217 476.41 535.997 479.599 537.351 483.9C540.432 493.721 528.132 501.13 520.99 493.573C519.449 491.939 517.533 488.254 517.573 486.003C517.613 483.524 522.517 477.991 524.969 477.415Z" fill="#17B2AA"/>
<path d="M572.887 236.123C578.528 245.596 587.827 254.171 591.311 264.595C589.783 265.653 588.457 270.611 587.733 271.12C587.01 271.629 585.683 271.12 585.442 271.294C581.141 260.776 574.454 251.504 567.982 242.246C567.339 241.322 567.286 239.848 567.018 239.473C567.956 239.124 572.686 236.391 572.873 236.123H572.887Z" fill="#5DC3B0"/>
<path d="M320.854 246.171C320.559 249.494 324.218 248.168 324.928 248.851C325.289 249.199 324.753 250.66 325.544 251.263C326.763 252.214 329.564 252.254 330.917 251.196C331.011 251.437 331.574 251.718 331.748 252.026C327.661 256.327 323.172 261.512 319.193 266.256C316.955 267.019 316.955 265.237 315.977 264.675C314.556 263.857 310.791 262.665 309.974 262.062C309.84 261.968 309.96 260.883 309.478 260.414C308.687 259.637 306.356 259.489 307.562 257.935C307.723 257.734 309.13 258.136 309.156 257.453C309.223 255.805 307.615 255.724 307.455 255.363C307.321 255.041 307.414 253.46 307.455 252.857C309.438 252.75 310.711 251.464 310.805 249.507C311.287 249.4 311.93 249.561 312.48 249.507C313.35 249.427 314.275 248.905 315.387 248.824C317.987 248.663 318.255 251.356 319.166 246.158C319.729 246.171 320.291 246.131 320.841 246.158L320.854 246.171Z" fill="#20B8AF"/>
<path d="M537.471 410.865C536.935 411.535 532.192 414.925 531.254 415.126C524.192 416.693 516.461 406.698 520.601 400.267C527.02 390.312 544.077 402.625 537.471 410.865Z" fill="#17B2AA"/>
<path d="M223.52 269.792C230.917 268.587 240.35 279.359 231.68 285.522C218.281 295.035 210.884 271.842 223.52 269.792Z" fill="#17B2AA"/>
<path d="M529.11 314.236C533.813 318.068 531.857 327.728 526.042 329.523C511.557 333.998 511.677 313.258 520.669 312.601C522.169 312.494 527.998 313.325 529.11 314.236Z" fill="#17B2AA"/>
<path d="M400.957 155.196C401.158 155.41 403.69 160.1 403.744 160.381C405.392 168.983 396.361 174.932 389.889 167.509C382.572 159.108 392.997 146.501 400.957 155.196Z" fill="#17B2AA"/>
<path d="M323.106 512.988C321.967 514.207 317.799 515.667 316.151 515.707C307.951 515.895 304.561 498.035 317.102 498.142C324.821 498.209 327.849 507.91 323.106 512.988Z" fill="#17B2AA"/>
<path d="M520.762 252.656C518.913 254.679 511.289 254.787 508.93 253.594C500.81 249.468 505.487 236.525 516.34 238.655C521.298 239.633 524.179 248.918 520.749 252.656H520.762Z" fill="#17B2AA"/>
<path d="M583.137 175.642C580.136 172.64 580.511 163.838 584.182 160.769C595.612 151.216 600.02 170.523 592.919 174.53C590.869 175.682 585.04 177.558 583.124 175.642H583.137Z" fill="#17B2AA"/>
<path d="M301.01 197.361C294.363 188.733 306.972 179.045 313.672 186.79C321.658 196.035 307.16 205.333 301.01 197.361Z" fill="#17B2AA"/>
<path d="M399.309 213.667C412.896 209.433 417.077 235.332 400.448 228.954C393.56 226.315 394.043 215.315 399.309 213.667Z" fill="#17B2AA"/>
<path d="M323.99 397.922C327.393 401.486 324.579 417.993 314.222 410.624C307.575 405.908 309.411 394.666 316.995 395.216C318.134 395.296 323.333 397.212 324.003 397.909L323.99 397.922Z" fill="#17B2AA"/>
<path d="M365.877 258.887C372.844 257.172 380.053 272.124 371.156 275.112C358.105 279.48 357.395 260.977 365.877 258.887Z" fill="#17B2AA"/>
<path d="M569.537 118.913C568.92 124.084 567.969 129.712 561.591 129.792C552.171 129.913 553.792 125.21 553.631 118.069C559.407 117.184 563.922 118.216 569.537 118.899V118.913Z" fill="#20B8AF"/>
<path d="M395.382 133.973C399.04 137.604 396.548 148.243 391.563 149.047C384.81 150.145 382.921 144.277 381.514 139.011C381.139 137.604 382.077 136.01 381.983 135.648C386.056 134.482 384.167 139.815 386.137 141.115C387.41 141.959 392.769 141.57 393.533 140.485C393.734 140.204 395.302 134.456 395.382 133.96V133.973Z" fill="#17B2AA"/>
<path d="M477.441 118.069C477.388 121.124 477.482 124.219 477.441 127.287C468.303 126.671 466.668 131.668 465.717 120.588C468.29 120.079 467.043 115.912 467.392 115.563C469.187 113.741 475.07 118.377 477.441 118.082V118.069ZM476.182 119.744V120.574C476.731 120.293 476.731 120.012 476.182 119.744Z" fill="#20B8AF"/>
<path d="M309.974 156.59C310.175 161.159 309.719 164.08 304.762 165.259C302.363 165.835 295.797 165.084 295.744 161.614C300.045 159.658 305.391 157.099 309.974 156.59Z" fill="#20B8AF"/>
<path d="M611.41 135.648C610.619 136.867 610.391 141.342 607.47 142.226C605.407 142.843 599.565 141.208 598.854 138.997L600.529 133.129L611.41 135.648Z" fill="#20B8AF"/>
<path d="M361.884 164.119C361.897 164.293 362.835 164.655 362.581 165.941C361.321 172.064 353.201 176.874 348.069 171.662C346.3 169.867 346.702 168.675 345.979 167.482C349.034 168.969 350.266 169.425 353.737 168.929C358.119 168.299 357.408 164.494 361.884 164.133V164.119Z" fill="#17B2AA"/>
<path d="M639.04 155.745C641.01 161.64 644.788 163.516 650.764 164.119C650.282 164.722 650.349 166.102 649.371 166.678C645.418 169.063 636.936 165.057 636.467 160.368C635.931 155.142 638.464 156.442 639.04 155.745Z" fill="#20B8AF"/>
<path d="M633.171 438.734V432.879C633.372 434.192 635.462 437.073 633.171 438.734Z" fill="#17B2AA"/>
<path d="M269.775 183.373C267.216 183.788 268.449 182.65 268.1 181.698C269.052 181.939 269.266 182.73 269.775 183.373Z" fill="#5DC3B0"/>
<path d="M398.96 441.025C396.481 438.559 395.342 433.508 397.54 430.44C399.938 427.09 410.484 426.085 414.061 427.184C414.959 427.465 418.389 431.806 418.644 432.651C420.56 439.109 412.721 445.017 406.785 444.575C405.419 444.481 399.818 441.895 398.96 441.038V441.025Z" fill="#20B8AF"/>
<path d="M433.879 327.38C432.312 328.988 432.66 324.968 430.114 325.691C429.819 325.772 429.457 329.121 425.237 326.562C424.366 326.04 424.888 324.941 424.406 324.365C423.87 323.709 422.798 323.534 422.329 322.65C419.716 317.719 421.364 309.064 427.662 308.193C437.765 306.8 443.902 314.142 437.256 322.811C436.573 323.695 435.072 323.95 434.348 324.968C433.786 325.758 433.986 327.299 433.879 327.406V327.38Z" fill="#20B8AF"/>
<path d="M414.37 490.076C421.74 498.129 411.06 513.001 400.448 504.413C391.537 497.191 406.678 481.676 414.37 490.076Z" fill="#20B8AF"/>
<path d="M416.929 363.582C433.652 360.567 431.776 383.786 415.415 379.767C408.93 378.172 407.683 365.256 416.929 363.582Z" fill="#20B8AF"/>
<path d="M440.807 253.085C441.799 252.026 445.296 251.169 446.864 251.115C460.478 250.66 459.513 270.663 445.216 267.917C439.909 266.898 437.792 256.287 440.807 253.071V253.085Z" fill="#20B8AF"/>
<path d="M307.455 255.376C307.616 255.738 309.224 255.832 309.157 257.466C309.13 258.136 307.709 257.747 307.562 257.948C306.356 259.503 308.688 259.65 309.478 260.427C309.961 260.896 309.84 261.981 309.974 262.075C310.617 264.112 308.379 263.629 308.299 263.75C308.728 259.369 303.958 258.779 303.274 255.376C304.708 255.858 306.155 256.394 307.455 255.376Z" fill="#5DC3B0"/>
<path d="M320.854 246.172C324.606 246.373 329.618 247.914 330.904 251.196C329.551 252.255 326.764 252.215 325.531 251.263C324.754 250.66 325.276 249.2 324.915 248.852C324.218 248.168 320.56 249.495 320.841 246.172H320.854Z" fill="#5DC3B0"/>
<path d="M319.18 246.171C318.255 251.37 318 248.69 315.401 248.837C314.275 248.904 313.351 249.44 312.493 249.521V246.171C314.865 247.176 317.17 246.104 319.193 246.171H319.18Z" fill="#5DC3B0"/>
<path d="M310.805 249.521C310.711 251.478 309.438 252.764 307.455 252.871C307.709 248.986 308.513 250.004 310.805 249.521Z" fill="#5DC3B0"/>
<path d="M476.182 119.744C476.731 120.026 476.731 120.307 476.182 120.575V119.744Z" fill="#5DC3B0"/>
</g>
</g>
<defs>
<clipPath id="clip0_504_11434">
<rect width="669" height="516" fill="white"/>
</clipPath>
<clipPath id="clip1_504_11434">
<rect width="850" height="686" fill="white" transform="translate(67 49)"/>
</clipPath>
</defs>
</svg>
