<svg width="669" height="516" viewBox="0 0 669 516" fill="none" xmlns="http://www.w3.org/2000/svg">
<g clip-path="url(#clip0_504_11322)">
<rect width="669" height="516" fill="#D9D9D9" fill-opacity="0.6"/>
<g clip-path="url(#clip1_504_11322)">
<path d="M215.88 484.35C189.57 471.31 170.14 441.9 168.5 411.91C166.58 376.91 181.18 350.38 202.79 324.49C218.61 305.53 256.7 273.79 249.04 246.16C243.4 225.8 221.87 235.87 206.77 236.7C186.62 237.81 149.62 234.55 133.96 220.66C113.13 202.19 144.32 187.07 158.8 179.99C196.34 161.64 238.46 151.87 275.12 177.83C320.16 209.71 316.04 266.41 289.46 309.19C273.15 335.44 223.51 380.32 237.84 413.23C249.55 440.13 287.35 424.03 303.64 410.77C385.24 344.35 402.26 196.42 515.81 166.99C572.81 152.21 637.92 172.35 665.66 226.5C696.38 286.46 667.08 345.65 621.59 387.13C574.91 429.7 475.83 474.39 458.79 537.53C447.46 579.51 479.84 600.9 515.46 578.18C561.24 548.98 581.42 480.37 635.38 453.37C703.97 419.05 793.04 473.23 767.27 553.22C751.15 603.27 702.17 605.78 676.63 643.22C671.88 650.19 664.14 668.63 658.67 672.6C650.05 678.86 651 662.62 651.52 657.44C655.55 617.34 684.27 601.97 709.71 577.97C733.1 555.91 742.53 529.8 720.63 502.57C720.41 502.3 720.48 501.28 719.58 500.35C718 498.72 717.12 499.71 716.99 499.65C716.5 499.42 716.02 499.17 715.53 498.92C715.25 493.1 707.54 490.8 703.02 488.65C672.44 474.08 647.84 496.5 629.6 518.97C584.68 574.31 555.97 652.94 470.4 648.27C463.89 647.91 459.03 646.74 453.47 644.66C449.14 643.04 444.6 641.68 440.2 640.23C400.87 617.14 384.49 578.96 392.36 533.75C402.21 477.18 451.07 431.02 494.89 398.1C531.86 370.33 603.6 331.28 607.73 280.4C611.21 237.56 573.96 221.68 536.8 226.59C502.2 231.17 474.14 265.95 456.65 293.57C412.76 362.9 369.2 470.29 279.98 489.1C254.82 494.41 241.13 491.41 217.31 485.07C217.08 485.01 216.8 485.14 216.58 485.07C216.36 484.83 216.14 484.48 215.85 484.34L215.88 484.35Z" fill="#24AAA2"/>
<path d="M607.75 280.41C605.72 278.4 606.64 275.38 606.12 272.94C601.5 251.02 579.92 239.02 558.69 238.92L558.21 237.45H557.5C557.66 240.12 551.63 238.65 549.12 238.91C516.12 242.34 495.02 271.15 478.96 296.94C437.19 364.02 400.8 454.83 324.66 489.35C289.3 505.38 253.43 505.3 219.25 487.14C218.23 486.6 216.95 486.85 217.33 485.09C241.15 491.43 254.83 494.43 280 489.12C369.22 470.31 412.78 362.91 456.67 293.59C474.15 265.97 502.21 231.18 536.82 226.61C573.98 221.7 611.23 237.58 607.75 280.42V280.41Z" fill="#9ED7CB"/>
<path d="M440.22 640.23C444.61 641.68 449.16 643.04 453.49 644.66C459.05 646.74 463.92 647.91 470.42 648.27C555.99 652.95 584.7 574.31 629.62 518.97C647.86 496.5 672.45 474.08 703.04 488.65C707.56 490.8 715.28 493.1 715.55 498.92C692.62 487.22 678.66 490.11 659.12 506.95C613.5 546.28 591.36 623.61 530.53 646.4C500.02 657.83 469.29 657.29 440.22 640.22V640.23Z" fill="#9ED7CB"/>
<path d="M216.61 485.08C216.28 484.98 216.02 484.67 215.88 484.35C216.17 484.49 216.39 484.84 216.61 485.08Z" fill="#9ED7CB"/>
<path d="M181.27 202.33C185.241 202.33 188.46 199.111 188.46 195.14C188.46 191.169 185.241 187.95 181.27 187.95C177.299 187.95 174.08 191.169 174.08 195.14C174.08 199.111 177.299 202.33 181.27 202.33Z" fill="#255A4B"/>
<path d="M182.18 236.25C190.06 234.14 196.95 228.89 201.09 221.85C202.73 219.07 198.41 216.55 196.77 219.33C193.27 225.28 187.51 229.64 180.84 231.43C177.73 232.26 179.05 237.09 182.17 236.25H182.18Z" fill="#255A4B"/>
</g>
</g>
<defs>
<clipPath id="clip0_504_11322">
<rect width="669" height="516" fill="white"/>
</clipPath>
<clipPath id="clip1_504_11322">
<rect width="644.84" height="512" fill="white" transform="translate(127 162)"/>
</clipPath>
</defs>
</svg>
