<svg width="669" height="516" viewBox="0 0 669 516" fill="none" xmlns="http://www.w3.org/2000/svg">
<g clip-path="url(#clip0_504_11286)">
<rect width="669" height="516" fill="#D9D9D9" fill-opacity="0.6"/>
<g clip-path="url(#clip1_504_11286)">
<path d="M495.143 364.955C502.539 376.843 507.372 393.524 514.694 406.331C520.312 416.148 524.458 406.699 526.015 400.081C528.873 387.996 531.547 367.492 530.897 355.223C530.517 348.017 523.758 326.924 536.686 326.924C545.064 326.924 549.725 337.918 551.466 344.757C555.858 362.001 553.49 379.588 552.607 396.771C552.386 401.147 550.559 409.726 552.031 413.256C554.545 419.286 560.776 411.797 563.021 409.126C570.858 399.799 577.31 388.021 584.915 378.228C590.434 371.132 606.527 351.375 614.168 348.495C622.215 345.455 627.391 351.35 624.987 359.317C623.355 364.722 610.391 379.735 606.318 385.667C597.634 398.352 588.533 411.834 585.209 427.032C586.105 427.056 586.89 427.645 587.81 427.583C591.465 427.314 613.886 410.743 619.639 407.508C632.444 400.313 654.167 390.386 668.947 394.21C678.661 396.722 676.883 407.998 668.297 411.895C648.794 420.757 634.002 422.62 616.646 437.878C613.114 440.991 598.137 455.123 610.354 454.105C637.878 451.826 656.877 439.606 686.082 453.113C695.931 457.672 710.233 470.418 693.331 476.546C685.444 475.308 678.87 471.938 670.786 470.712C652.13 467.881 628.176 471.975 611.617 480.958C626.446 486.756 641.692 492.577 653.909 503.093C661.845 509.932 675.178 524.149 671.67 535.535C670.124 540.56 664.911 541.295 660.336 540.131C657.012 539.285 643.925 525.62 639.938 522.494C627.636 512.824 611.973 506.169 596.457 503.877C598.701 508.473 602.467 512.358 605.251 516.807C610.685 525.485 616.425 536.601 619.013 546.504C621.111 554.495 626.422 578.909 611.396 575.833C603.828 574.276 601.412 557.706 598.787 551.198C595.451 542.925 590.042 534.444 584.4 527.544C583.161 526.036 581.799 523.499 579.776 523.242C579.26 520.202 569.656 511.439 567.35 513.167C568.491 518.413 569.669 523.842 570.343 529.174C571.19 535.768 572.232 543.538 572.011 549.629C571.668 559.005 569.117 577.83 556.839 578.382C556.042 578.419 553 577.916 552.595 577.561C552.386 577.389 549.946 573.259 549.835 572.94C547.799 567.217 549.688 562.608 549.479 557.767C549.075 548.158 547.517 534.603 544.414 525.583C543.874 524.014 539.115 513.596 538.539 513.216C537.152 512.297 535.251 514.687 534.491 515.68C524.654 528.537 524.813 544.8 518.791 558.919C516.301 564.753 512.928 570.097 505.703 569.545C493.413 568.589 499.865 542.839 501.41 535.351C503.385 525.791 506.955 516.415 507.506 506.488C507.445 502.639 499.975 504.747 497.988 505.569C490.837 508.498 478.707 522.874 474.782 529.713C471.139 536.074 467.913 547.938 458.309 547.276C453.329 546.933 451.232 542.815 450.815 538.415C449.367 523.279 459.401 507.003 468.723 495.727C470.489 493.594 475.653 489.783 475.714 487.197C471.053 484.304 465.717 486.756 460.934 487.552C446.51 489.979 434.072 494.036 422.175 502.75C419.562 504.662 416.238 508.755 414.337 510.054C412.791 511.121 406.793 513.143 404.855 512.996C396.429 512.371 396.588 504.392 398.772 497.994C399.569 495.653 405.653 486.106 407.345 484.451C410.436 481.436 421.475 475.051 425.695 472.906C434.477 468.457 443.971 465.712 453.157 462.329C444.645 457.623 434.6 453.296 425.216 450.674C412.607 447.144 402.292 446.519 389.487 445.636C384.654 445.305 377.442 445.6 374.375 441.727C370.818 437.229 372.56 430.905 377.062 427.792C380.3 425.549 387.573 423.624 391.523 423.232C415.502 420.83 437.911 429.851 460.149 437.094C450.349 420.242 436.121 402.556 419.402 392.077C412.19 387.555 392.553 382.996 399.41 371.365C405.174 361.584 422.064 368.411 429.607 372.566C451.011 384.356 462.075 403.635 479.565 417.705C479.982 418.048 480.252 419.261 481.111 419.654C484.055 421.002 487.195 418.33 487.992 415.572C486.9 410.633 486.41 405.485 485.011 400.632C480.988 386.66 473.359 371.561 465.141 359.574C460.934 353.446 449.478 342.906 451.158 335.405C453.44 325.22 463.914 329.767 469.728 334.033C475.689 338.396 490.911 358.202 495.106 364.942L495.143 364.955ZM563.941 450.637C551.92 440.918 533.375 436.971 518.239 439.643C509.579 441.175 496.97 445.477 495.192 455.417C490.764 480.174 531.265 493.692 550.473 491.254C574.931 488.153 584.449 467.232 563.941 450.649V450.637Z" fill="#5DC3B0"/>
<path d="M228.01 288.146C223.705 293.906 221.08 297.534 218.32 304.459C215.131 312.45 211.549 339.401 197.751 328.088C189.398 321.237 195.972 298.208 199.455 289.506C202.583 281.699 207.489 274.836 210.924 267.212C190.649 268.07 173.219 282.545 160.463 297.093C158.218 299.654 157.433 302.816 153.999 304.606C148.406 307.523 142.077 304.949 141.083 298.588C138.52 282.14 156.305 268.266 167.957 259.589L193.826 246.267C174.017 238.582 151.129 240.886 131.798 249.061C126.168 251.439 116.663 259.834 111.082 253.29C102.214 242.872 121.679 230.873 129.627 227.49C150.712 218.544 174.654 220.382 196.941 222.196C197.824 221.411 192.734 216.73 191.912 215.97C182.296 207.047 167.687 200.257 155.017 196.973C147.695 195.073 130.057 193.664 124.782 190.71C117.46 186.616 119.631 177.584 127.272 174.691C143.169 168.674 166.351 176.309 181.143 183.283C188.392 186.702 202.546 196.948 208.569 198.554C210.409 199.044 212.163 198.995 214.039 198.922C214.088 197.549 214.125 196.188 213.855 194.828C211.93 185.391 194.169 164.102 186.454 157.802C180.297 152.777 159.887 144.627 167.43 134.099C174.127 124.76 194.267 136.587 201.087 141.612C214.076 151.196 219.007 161.271 228.464 173.233C235.087 181.616 245.537 192.708 243.33 172.35C241.49 155.4 231.53 134.92 230.34 119.355C230.205 117.529 230.107 114.747 231.174 113.215C232.168 111.781 236.4 110.298 238.043 110.825C247.034 113.693 255.657 135.337 258.649 143.843C260.833 150.032 270.768 193.823 279.219 168.208C285.572 148.917 281.93 127.959 286.431 109.452C288.136 102.417 293.852 98.1766 299.874 104.207C313.219 117.541 301.15 151.294 300.978 168.294C300.954 171.162 301.849 176.689 305.394 177.02C307.957 177.253 313.047 169.813 314.532 167.803C321.805 157.864 341.173 120.985 351.292 118.399C357.351 116.855 361.84 119.355 362.184 125.777C362.466 131.035 353.033 143.058 350.09 148.23C347.391 152.961 344.509 157.851 342.031 162.68C339.357 167.914 329.054 189.313 329.704 193.835C330.256 197.72 334.426 194.142 336.328 192.671C349.268 182.707 359.338 170.904 375.038 163.845C383.145 160.205 406.082 155.02 402.574 170.414C401.115 176.812 385.255 183.32 379.515 186.935C369.715 193.1 354.162 203.799 347.207 212.844C343.613 217.526 345.956 217.906 351.095 217.502C365.385 216.411 375.308 210.295 392.173 212.158C402.304 213.286 422.714 221.546 418.704 234.624C415.698 244.404 400.71 235.886 394.393 234.783C380.938 232.405 361.73 235.445 349.403 241.438C348.213 242.014 346.95 242.467 346.054 243.521C359.792 249.208 373.014 255.778 382.532 267.592C387.181 273.365 393.056 285.315 387.561 291.982C380.619 300.402 370.536 284.739 366.268 280.731C357.657 272.642 345.858 269.063 335.175 264.859C328.87 262.371 322.075 258.118 315.341 258.008C311.306 257.947 312.594 260.999 313.391 263.732C317.622 278.304 335.052 303.625 327.055 318.443C320.382 330.797 312.189 319.595 308.938 311.628C303.897 299.274 301.236 289.077 293.226 277.667C289.522 272.397 281.476 261.428 277.33 271.857C273.417 281.724 271.921 295.794 272.24 306.407C272.473 314.386 275.944 324.902 270.706 331.974C262.906 342.526 253.019 327.77 250.873 319.987C249.487 314.925 248.187 303.723 248.26 298.527C248.322 294.482 250.615 287.68 250.554 284.69C250.554 284.101 249.475 284.224 248.96 284.248C248.616 282.974 250.309 283.893 250.53 282.986C251.265 279.934 251.278 273.438 247.058 273.365C238.288 273.206 232.609 281.969 227.998 288.146H228.01ZM302.266 235.861C310.165 225.824 307.675 213.065 296.268 207.133C280.163 198.738 255.24 203.174 241.281 214.107C228.255 224.316 227.519 240.935 243.918 247.811C260.207 254.638 290.822 250.422 302.266 235.861Z" fill="#5DC3B0"/>
<path d="M517.662 241.585C512.437 243.877 508.304 247.983 504.44 252.039C499.644 257.089 492.861 268.328 488.335 271.857C481.442 277.25 474.218 271.036 474.463 263.045C474.941 247.431 497.878 227.87 508.341 217.539C493.536 215.296 479.688 217.71 466.245 223.961C461.498 226.167 447.086 236.364 443.553 236.143C440.168 235.935 437.384 231.707 437.065 228.544C435.519 213.188 459.229 200.772 471.666 197.561C479.369 195.576 487.428 195.576 495.143 193.86C480.264 182.866 460.468 174.765 441.934 172.534C436.967 171.934 426.97 174.029 424.824 167.129C422.653 160.156 427.633 155.989 433.631 154.126C456.04 147.152 481.319 161.614 501.349 170.193C503.496 167.914 486.459 146.613 483.895 143.806C480.743 140.35 476.315 135.999 472.795 132.947C467.103 127.996 450.103 117.566 446.976 112.418C443.026 105.922 448.631 100.554 455.169 100.334C472.844 99.7331 503.814 138.046 517.294 149.223C521.06 152.348 529.842 159.175 530.161 149.64C530.517 139.173 518.656 111.854 512.523 102.76C508.905 97.4045 495.192 84.4988 505.568 78.5914C516.767 72.2183 533.755 94.1566 538.465 102.454C544.328 112.774 546.756 123.939 551.221 134.712C553.809 140.963 558.838 156.479 566.443 145.62C571.926 137.788 575.863 107.479 575.139 97.6128C574.599 90.1612 566.026 68.6885 580.941 70.0612C594.273 71.2868 596.555 97.7844 596.077 107.724C595.476 120.262 591.44 132.996 590.655 144.983C589.846 157.288 592.998 158.856 601.142 150.032C612.746 137.457 630.85 103.937 645.605 98.2379C653.014 95.37 658.251 101.596 656.288 108.925C655.197 112.982 642.355 126.991 638.933 131.93C633.891 139.222 623.122 156.013 622.521 164.482C622.35 166.835 622.521 167.926 625.183 167.926C629.157 167.926 648.5 152.9 653.602 149.689C663.415 143.524 677.14 135.043 688.841 134.467C693.919 134.222 699.672 134.835 702.076 139.921C707.264 150.878 692.362 152.875 685.628 156.087C673.546 161.835 652.597 173.723 645.016 184.57C643.262 187.082 642.048 188.479 642.674 191.911C663.182 186.727 685.333 179.9 706.32 186.898C714.918 189.766 732.384 199.338 725.344 210.504C724.277 212.183 721.75 214.07 719.751 214.254C716.157 214.585 704.186 207.93 698.777 206.851C684.34 203.959 662.078 205.724 650.45 215.578C658.533 219.426 667.303 222.024 675.3 226.424C686.818 232.773 702.702 247.492 705.216 260.937C706.565 268.156 703.499 277.458 694.471 274.787C690.694 273.659 681.298 259.172 678.011 255.545C668.088 244.6 648.659 237.295 634.124 236.156L642.195 248.644C645.213 255.287 648.782 261.685 650.818 268.744C653.014 276.368 657.294 301.002 647.359 304.103C635.081 307.939 633.83 285.425 631.377 278.084C627.697 267.078 620.191 256.66 610.832 250.115C609.115 248.914 605.999 246.279 604.859 245.605C603.326 244.71 600.934 244.661 599.18 244.686C599.793 247.431 598.481 250.299 598.481 252.75C598.481 260.901 599.768 269.382 599.217 277.691C598.665 286.001 595.377 308.834 583.075 303.846C573.606 300.01 578.892 279.91 578.12 271.551C577.752 267.58 572.747 243.999 570.331 242.492C563.278 238.067 553.073 260.067 551.221 264.663C548.204 272.152 545.628 289.126 540.55 293.575C533.951 299.336 526.935 292.632 526.199 285.425C525.414 277.63 526.727 268.512 528.922 261.011C530.738 254.834 536.551 245.875 537.508 240.85C540.047 227.576 522.213 236.584 517.638 241.597L517.662 241.585ZM538.085 204.118C547.505 217.159 574.428 225.799 589.931 223.385C601.743 221.546 616.303 212.771 612.034 198.885C604.957 175.905 552.902 164.899 538.232 184.141C534.38 189.202 534.417 199.032 538.085 204.118Z" fill="#5DC3B0"/>
<path d="M277.71 399.872C279.955 394.725 288.222 379.478 291.484 375.225C294.036 371.879 299.665 367.014 304.13 367.602C314.948 369.011 310.57 382.775 308.141 389.553C303.259 403.181 298.414 412.018 294.796 427.044C293.802 431.174 289.865 442.156 292.061 445.685C293.692 448.308 300.463 440.538 301.812 439.055C302.401 438.417 302.401 437.302 302.56 437.118C313.685 424.948 326.564 411.025 341.454 402.654C345.968 400.117 353.745 396.391 357.719 401.796C366.66 413.918 349.206 422.509 342.154 428.968C331.568 438.65 325.485 447.389 317.316 458.848C316.641 459.792 311.526 464.695 312.655 465.834C314.777 465.271 316.985 464.744 319.082 464.082C319.99 463.8 320.333 462.758 320.419 462.734C334.659 458.628 364.894 452.058 376.362 463.861C382.667 470.345 377.282 477.355 369.53 478.826C359.657 480.701 350.016 481.571 339.835 483.679C337.002 484.267 333.936 484.133 330.685 485.015C326.098 486.253 321.609 488.275 317.316 490.273C319.72 492.638 323.326 493.153 326.098 494.685C335.15 499.661 354.861 513.253 358.087 523.242C359.546 527.764 359.203 535.204 353.855 536.883C345.245 539.579 335.591 526.392 328.281 522.776L322.749 520.165C317.635 514.663 301.935 509.919 294.367 510.826C293.52 510.924 291.852 511.084 291.681 512.04C291.447 513.339 302.707 532.005 304.253 535.155C308.423 543.66 323.461 574.779 305.185 576.004C300.377 576.323 295.287 568.761 293.091 564.925C286.958 554.201 284.456 544.874 275.404 535.265C259.115 517.996 255.203 529.823 255.938 547.729C256.343 557.498 261.029 572.045 260.354 580.416C259.765 587.856 256.392 593.53 248.003 591.349C239.257 589.069 233.627 562.792 232.683 554.666C231.959 549.531 232.781 541.614 231.873 536.858C230.745 530.951 222.883 535.841 220.221 538.354C216.431 541.945 214.284 546.798 211.709 551.186C209.145 555.537 206.925 558.417 205.134 563.638C202.375 571.678 201.074 589.621 195.052 594.682C191.532 597.648 185.877 596.643 182.958 593.273C175.623 584.804 181.13 559.581 184.737 549.47C187.496 541.724 191.998 534.591 195.383 527.139C179.634 530.044 161.714 537.716 150.724 549.629C145.548 555.242 140.764 566.481 131.381 565.133C127.407 564.557 124.88 559.863 124.684 556.211C124.034 544.065 143.266 525.497 152.723 519.05C159.874 514.185 168.926 511.574 175.746 507.162C176.506 506.672 177.132 507.248 176.752 505.421C159.285 501.034 142.371 498.313 124.721 503.485C118.625 505.274 101.784 515.079 99.2574 504.098C96.0315 490.052 122.562 481.522 132.951 479.892C150.062 477.22 163.21 481.179 179.475 482.135C180.591 482.196 185.239 482.858 184.503 480.995C182.455 475.774 166.277 463.273 160.966 460.282C148.602 453.333 137.183 452.193 124.88 447.45C113.682 443.136 117.962 432.669 128.425 431.125C140.126 429.397 153.508 434.63 164.081 439.324C174.36 443.884 186.944 453.37 196.377 456.716C197.898 457.255 199.21 457.5 200.829 457.304C202.276 455.858 196.193 444.729 195.015 442.548C190.072 433.331 181.731 420.867 174.814 413.072C171.894 409.787 163.91 403.635 162.462 400.583C159.42 394.124 164.829 387.775 171.6 388.278C189.569 389.602 210.642 426.921 222.159 439.471C223.263 440.673 228.071 446.127 229.543 444.889C230.818 440.195 229.96 435.415 229.445 430.635C227.838 415.462 221.705 395.362 221.754 380.912C221.779 374.527 224.882 362.687 233.468 364.489C240.962 366.058 243.894 379.944 244.998 386.39C247.684 402.139 247.696 418.158 255.043 433C259.667 442.352 262.12 442.327 266.205 433C270.817 422.448 273.221 410.179 277.71 399.884V399.872ZM256.576 465.295C245.488 465.736 227.703 471.717 219.816 479.769C208.029 491.817 211.623 509.037 228.623 512.934C245.623 516.832 266.193 508.032 276.545 495.322C291.325 477.183 275.576 464.523 256.576 465.283V465.295Z" fill="#5DC3B0"/>
<path d="M335.175 264.859C336.769 270.203 339.173 275.203 340.817 280.559C349.489 308.846 348.507 333.064 352.346 361.376C355.486 384.564 365.851 407.63 377.098 427.816C372.597 430.929 370.855 437.253 374.412 441.751C377.479 445.624 384.691 445.33 389.524 445.661C397.104 457.794 402.734 470.945 407.382 484.464C405.69 486.118 399.606 495.678 398.809 498.007C396.625 504.404 396.466 512.395 404.892 513.008C406.83 513.155 412.828 511.133 414.374 510.067C416.68 524.051 418.826 538.182 419.807 552.362C420.789 566.543 421.206 580.833 421.365 594.646C421.439 600.725 423.046 618.41 417.784 621.719C411.197 625.874 391.756 625.911 390.37 615.91C389.56 610.039 389.511 603.237 388.751 596.974C387.696 588.334 386.85 581.274 384.642 572.756C376.35 540.609 358.982 510.447 339.823 483.692C350.004 481.584 359.657 480.701 369.518 478.838C377.27 477.367 382.655 470.357 376.35 463.873C364.882 452.071 334.635 458.64 320.407 462.746L317.304 458.861C325.472 447.389 331.556 438.663 342.141 428.98C349.194 422.521 366.66 413.93 357.707 401.809C353.72 396.416 345.956 400.13 341.442 402.667C326.552 411.038 313.673 424.96 302.548 437.131L294.784 427.044C298.402 412.018 303.247 403.181 308.129 389.553C310.557 382.787 314.936 369.011 304.118 367.602C299.653 367.026 294.023 371.892 291.472 375.225C288.222 379.478 279.955 394.725 277.698 399.872C251.952 367.075 230.88 330.822 227.998 288.134C232.609 281.957 238.301 273.193 247.058 273.353C251.278 273.426 251.265 279.934 250.53 282.974C250.309 283.881 248.628 282.974 248.96 284.236C249.475 284.212 250.542 284.089 250.554 284.677C250.615 287.68 248.322 294.47 248.26 298.515C248.187 303.711 249.475 314.913 250.873 319.975C253.007 327.758 262.906 342.514 270.706 331.961C275.932 324.89 272.473 314.374 272.24 306.395C271.933 295.781 273.417 281.711 277.33 271.845C281.463 261.415 289.522 272.397 293.226 277.655C301.248 289.065 303.897 299.25 308.938 311.616C312.189 319.57 320.382 330.773 327.055 318.431C335.052 303.625 317.622 278.304 313.391 263.72C312.594 260.974 311.306 257.922 315.341 257.996C322.075 258.106 328.858 262.371 335.175 264.847V264.859Z" fill="#47A492"/>
<path d="M460.983 487.564C465.767 486.768 471.102 484.317 475.763 487.209C475.702 489.795 470.538 493.607 468.772 495.739C459.438 507.015 449.417 523.291 450.864 538.427C451.281 542.827 453.378 546.945 458.358 547.288C467.962 547.95 471.188 536.086 474.831 529.725C478.744 522.886 490.887 508.51 498.038 505.581C500.012 504.772 507.494 502.664 507.556 506.5C507.004 516.44 503.434 525.803 501.46 535.363C499.914 542.839 493.463 568.602 505.753 569.558C512.977 570.121 516.35 564.778 518.84 558.932C524.863 544.825 524.703 528.549 534.54 515.692C535.301 514.699 537.202 512.309 538.588 513.229C539.164 513.609 543.923 524.026 544.463 525.595C547.566 534.616 549.112 548.171 549.529 557.779C549.737 562.621 547.836 567.229 549.884 572.953C549.995 573.271 552.436 577.401 552.644 577.573C543.923 588.8 532.516 597.71 521.465 606.559C520.435 607.38 519.134 607.649 519.245 609.39C516.08 609.561 499.693 623.031 496.725 626.083C488.667 634.38 487.575 641.868 481.835 650.006C473.42 661.944 448.828 660.706 437.176 654.541C424.26 647.702 430.417 635.262 431.472 623.742C432.453 612.993 432.49 604.304 432.257 593.874C432.257 593.616 432.257 593.359 432.257 593.102C433.545 592.121 433.545 588.653 432.257 587.672C431.95 569.827 432.49 551.345 437.311 534.138C442.033 517.236 450.803 501.72 460.995 487.577L460.983 487.564Z" fill="#47A492"/>
<path d="M322.749 520.153C327.054 524.786 334.083 538.415 337.431 544.665C341.908 552.987 345.772 562.535 350.568 571.114C355.732 580.331 362.747 589.045 367.789 597.747C367.997 598.102 367.813 599.573 368.39 600.602C373.946 610.432 382.409 625.359 382.458 636.843C382.507 650.239 363.655 656.11 352.653 655.154C337.026 653.794 330.661 638.241 318.603 630.985C308.521 624.918 295.066 623.141 283.916 619.477C251.609 608.863 220.38 585.466 211.696 551.198C214.272 546.81 216.419 541.957 220.209 538.366C222.87 535.841 230.733 530.963 231.861 536.871C232.769 541.626 231.947 549.543 232.671 554.679C233.615 562.792 239.245 589.081 247.99 591.361C256.38 593.543 259.753 587.868 260.342 580.429C261.016 572.058 256.331 557.522 255.926 547.742C255.19 529.836 259.103 518.008 275.392 535.277C284.456 544.886 286.946 554.213 293.079 564.937C295.274 568.761 300.364 576.335 305.173 576.016C323.448 574.791 308.411 543.673 304.24 535.167C302.695 532.005 291.435 513.339 291.668 512.052C291.84 511.096 293.508 510.937 294.354 510.839C301.922 509.932 317.622 514.687 322.737 520.178L322.749 520.153Z" fill="#47A492"/>
<path d="M517.662 241.585C522.237 236.572 540.072 227.564 537.533 240.837C536.564 245.862 530.762 254.821 528.947 260.998C526.751 268.499 525.439 277.618 526.224 285.413C526.947 292.619 533.976 299.323 540.574 293.563C545.665 289.114 548.228 272.139 551.246 264.651C553.098 260.067 563.303 238.055 570.355 242.48C572.772 243.999 577.788 267.58 578.144 271.539C578.917 279.897 573.63 299.997 583.099 303.833C595.414 308.822 598.714 285.658 599.241 277.679C599.768 269.7 598.505 260.876 598.505 252.738C598.505 250.274 599.817 247.419 599.204 244.673C600.958 244.649 603.35 244.698 604.883 245.593C606.024 246.267 609.127 248.902 610.856 250.103C612.279 273.304 606.858 296.173 599.008 317.805C590.655 340.859 577.58 363.876 563.339 383.817C560.126 388.315 556.63 393.033 552.607 396.759C553.49 379.564 555.857 361.989 551.466 344.744C549.725 337.918 545.064 326.912 536.686 326.912C523.758 326.912 530.504 348.004 530.897 355.211C531.547 367.479 528.873 387.971 526.015 400.068C524.457 406.699 520.312 416.136 514.694 406.319C507.371 393.511 502.539 376.831 495.143 364.942C499.669 354.929 502.355 342.673 504.256 331.753C507.715 311.8 507.641 291.381 510.794 271.551C512.4 261.452 514.51 251.292 517.675 241.56L517.662 241.585Z" fill="#47A492"/>
<path d="M572.024 549.641C572.244 543.55 571.202 535.78 570.356 529.186C569.681 523.854 568.503 518.425 567.363 513.179C569.669 511.451 579.273 520.227 579.788 523.254C581.064 530.84 575.36 542.839 572.024 549.641Z" fill="#5DC1AB"/>
<path d="M479.614 417.729C482.239 412.373 484.03 406.552 485.048 400.656C486.446 405.51 486.937 410.67 488.029 415.597C487.231 418.354 484.091 421.026 481.148 419.678C480.289 419.286 480.031 418.06 479.602 417.729H479.614Z" fill="#5DC1AB"/>
<path d="M563.941 450.637C584.449 467.219 574.918 488.153 550.473 491.241C531.265 493.68 490.752 480.162 495.192 455.405C496.97 445.465 509.579 441.163 518.239 439.631C533.375 436.959 551.933 440.906 563.941 450.625V450.637Z" fill="#FDF9EE"/>
<path d="M302.266 235.861C290.822 250.422 260.207 254.638 243.918 247.811C227.519 240.935 228.255 224.316 241.281 214.107C255.239 203.174 280.163 198.738 296.268 207.133C307.663 213.077 310.153 225.824 302.266 235.861Z" fill="#FDF9EE"/>
<path d="M538.085 204.118C534.417 199.032 534.368 189.203 538.232 184.141C552.902 164.899 604.957 175.905 612.034 198.885C616.315 212.771 601.743 221.546 589.931 223.385C574.44 225.799 547.505 217.171 538.085 204.118Z" fill="#FDF9EE"/>
<path d="M256.576 465.295C275.588 464.535 291.325 477.196 276.545 495.335C266.192 508.044 244.801 516.66 228.623 512.947C211.623 509.049 208.041 491.83 219.816 479.782C227.691 471.73 245.488 465.749 256.576 465.307V465.295Z" fill="#FDF9EE"/>
<path d="M164.609 253.106L163.395 254.331V251.88C163.763 252.309 164.229 252.665 164.609 253.106Z" fill="#34BB9F"/>
<path d="M151.117 239.624H148.664L149.89 238.398C150.332 238.754 150.675 239.256 151.117 239.624Z" fill="#34BB9F"/>
<path d="M156.023 244.526L154.796 243.301C155.226 243.693 155.606 244.122 156.023 244.526Z" fill="#34BB9F"/>
</g>
</g>
<defs>
<clipPath id="clip0_504_11286">
<rect width="669" height="516" fill="white"/>
</clipPath>
<clipPath id="clip1_504_11286">
<rect width="628" height="640" fill="white" transform="translate(99 70)"/>
</clipPath>
</defs>
</svg>
