<svg width="669" height="516" viewBox="0 0 669 516" fill="none" xmlns="http://www.w3.org/2000/svg">
<g clip-path="url(#clip0_504_7813)">
<rect width="669" height="516" fill="#D9D9D9" fill-opacity="0.6"/>
<g clip-path="url(#clip1_504_7813)">
<path d="M87.6208 274.911C87.2925 274.594 84.9946 274.801 83.5064 273.15C56.3798 243.028 109.779 204.101 132.978 190.331C160.367 174.067 190.929 164.869 219.599 151.251C269.726 127.43 304.163 97.8655 362.202 90.0233C554.626 64.0139 684.7 296.906 867.364 336.948C978.748 361.372 1039.81 327.673 1143.98 311.07C1307.46 285.017 1430.53 325.125 1532.36 455.095C1554.06 482.8 1596.89 540.123 1599.7 574.576C1602.88 613.492 1579.24 601.603 1554.33 591.059C1507.47 571.23 1465.28 537.465 1416.52 521.628C1283.16 478.326 1148.48 572.006 1025.77 612.344C792.462 689.048 514.609 640.475 327.131 481.247C288.898 448.773 266.247 419.406 214.653 405.176C175.861 394.48 121.061 384.636 91.6038 354.109C72.159 333.962 68.3181 304.026 105.249 307.373C132.627 309.856 163.135 322.062 192.943 325.836C194.179 329.894 197.44 328.997 200.515 329.314C234.108 332.683 273.885 330.451 304.261 347.864C310.455 351.419 321.244 364.314 324.899 364.642C329.418 365.047 331.683 358.944 329.713 354.744C322.71 339.803 276.478 325.595 260.502 320.29C241.352 313.936 220.168 309.55 201.511 302.845C188.839 298.284 177.82 290.77 165.74 285.958C141.327 276.256 113.533 272.275 87.6208 274.889V274.911ZM477.886 129.333C465.981 114.742 448.779 138.936 431.698 135.633C425.647 134.462 416.619 119.62 408.237 116.612C388.278 109.437 377.904 128.315 385.947 145.673C395.314 165.886 413.883 155.025 429.663 164.803C448.878 176.725 446.93 212.665 475.906 208.761C479.506 208.28 480.184 207.908 482.701 205.381C494.399 193.601 478.182 184.687 476.726 173.728C475.019 160.898 487.122 140.653 477.886 129.333ZM321.638 122.497C314.547 124.29 308.102 134.309 308.365 141.561C309.01 159.465 342.998 157.759 345.81 143.278C349.443 124.619 339.102 118.078 321.638 122.497ZM535.532 161.762C529.076 157.781 515.868 157.705 513.088 166.137C510.572 173.783 515.365 179.897 515.824 187.4C516.645 200.689 506.184 209.745 519.227 219.622C522.455 222.061 526.799 222.925 530.17 225.659C541.638 235 546.157 245.03 554.845 255.333C574.629 278.815 602.215 286.537 617.962 317.906C622.328 326.59 629.145 353.464 633.85 358.058C636.17 360.322 640.854 361.306 644.038 361.536C658.548 362.575 664.271 353.89 663.647 340.251C662.662 318.748 644.541 312.601 648.382 284.383C649.969 272.756 662.695 248.814 643.184 243.378C628.335 239.233 621.179 255.344 611.352 257.564C601.023 259.894 586.075 256.011 581.567 245.598C575.548 231.708 591.59 229.301 594.818 218.965C597.97 208.881 594.195 196.369 582.595 195.636C573.743 195.078 563.873 204.058 558.763 204.878C558.139 204.976 546.89 202.198 546.474 201.717C545.697 200.82 546.551 182.948 545.555 178.005C544.559 173.061 539.635 164.289 535.51 161.751L535.532 161.762ZM226.536 219.206C194.037 223.745 198.534 275.02 232.774 269.705C262.132 265.155 256.749 214.984 226.536 219.206ZM116.017 229.389C104.056 232.878 110.753 254.217 121.641 241.836C127.495 235.175 126.117 226.447 116.017 229.389ZM95.5869 232.758C82.1276 236.892 94.0987 259.434 104.571 234.989C102.426 231.905 98.9025 231.73 95.5869 232.758ZM508.438 260.145C508.077 259.686 499.377 253.998 498.699 253.758C464.427 241.814 477.208 315.795 504.52 300.187C514.817 294.303 514.631 268.086 508.438 260.145ZM849.965 356.887C847.481 354.372 834.679 351.047 830.904 351.222C824.207 351.539 812.312 359.742 805.003 361.131C783.26 365.255 785.733 344.265 777.088 332.092C762.677 311.825 736.721 334.597 725.406 326.011C716.784 319.47 726.14 281.834 701.989 283.464C680.553 284.919 681.811 314.8 687.688 329.74C694.395 346.781 716.16 349.472 730.353 358.419C761.812 378.27 736.294 390.564 742.05 416.344C744.578 427.664 756.396 433.439 766.671 428.069C782.833 419.625 779.605 393.911 791.653 388.508C807.476 381.409 824.141 410.667 845.917 391.811C855.677 383.367 859.474 366.501 849.965 356.876V356.887ZM334.419 403.547C339.518 407.758 366.743 402.814 373.987 400.67C405.83 391.22 428.415 369.083 435.145 336.139C436.753 328.253 439.697 301.719 433.536 296.83C418.928 285.247 422.911 314.822 422.134 321.439C420.985 331.228 414.277 347.426 409.058 355.914C393.41 381.387 363.953 390.564 335.787 394.742C332.088 396.087 331.661 401.272 334.43 403.558L334.419 403.547ZM561.028 314.559C538.169 293.428 516.207 317.37 526.986 346.037C529.502 352.742 539.887 362.476 537.654 368.919C536.013 373.644 509.335 374.89 512.662 390.826C515.058 402.3 546.54 403.415 556.443 409.989C566.379 416.595 570.778 442.681 581.217 444.672C607.052 449.615 608.573 415.578 599.731 398.997C596.175 392.325 587.957 388.3 583.733 382.711C569.738 364.183 581.151 333.131 561.05 314.548L561.028 314.559ZM1324 343.281C1308.13 328.559 1284.68 358.408 1271.01 356.483C1256.45 354.437 1264.97 326.055 1241.95 329.172C1225.51 331.392 1229.54 357.281 1235.73 367.825C1252.16 395.781 1300.55 390.312 1320.43 369.422C1326.75 362.783 1331.85 350.576 1324 343.292V343.281ZM1110.88 346.759C1095.9 360.431 1104.25 393.233 1125 398.68C1141.64 403.044 1175.85 397.969 1190.09 387.731C1206.62 375.853 1212.31 334.083 1184.3 339.486C1170.17 342.209 1176.83 369.345 1162.01 370.045C1150.79 370.581 1142.2 347.109 1132.37 343.773C1126.3 341.706 1115.69 342.373 1110.88 346.77V346.759ZM1368.04 363.865C1354.99 364.292 1341.56 367.004 1345.54 383.706C1350.91 406.226 1384.78 394.567 1399.09 401.512C1405.87 404.805 1414.92 421.572 1422.08 427.773C1449.9 451.88 1472.77 416.234 1447.38 402.486C1443.98 400.637 1439.9 400.823 1437.04 399.237C1423.52 391.745 1414.37 371.598 1399.62 367.015C1393.37 365.069 1374.77 363.625 1368.05 363.855L1368.04 363.865ZM923.018 373.862C913.859 364.587 894.709 367.694 890.573 381.737C883.833 404.64 913.815 419.986 932.757 420.992C954.303 422.14 973.627 406.817 993.247 411.487C1008.96 415.217 1014.34 452.328 1040.79 443.95C1057.39 438.689 1045.41 418.914 1049.56 410.339C1053.62 401.983 1068.84 397.301 1069.51 387.753C1070.62 371.839 1050.01 360.551 1036.03 366.195C1031.59 367.989 1025.93 375.908 1021.08 376.794C1009.64 378.894 993.893 368.656 976.034 372.451C959.807 375.897 953.996 397.815 937.342 392.653C926.355 389.251 927.92 378.85 923.007 373.862H923.018ZM394.318 440.406C405.326 453.028 423.042 444.584 435.342 438.219C445.704 432.859 480.502 413.347 485.907 405.548C492.09 396.634 498.119 371.062 482.526 370.045C465.926 368.962 460.433 390.203 451.909 400.43C441.951 412.373 426.818 420.478 412.165 425.225C403.587 428.003 391.769 424.722 391.593 437.147C391.55 439.914 393.432 439.356 394.34 440.406H394.318ZM671.514 397.695C669.227 395.234 662.717 392.97 659.303 392.948C634.857 392.828 631.716 428.08 642.396 444.65C649.443 455.598 668.013 460.881 670.256 474.531C674.294 499.053 640.514 516.115 651.566 545.865C658.219 563.792 690.139 566.844 696.234 547.856C698.116 541.994 696.682 537.444 697.93 532.565C704.528 506.72 734.992 482.603 715.996 454.297C708.117 442.561 686.648 440.264 682.413 433.526C677.828 426.253 679.962 406.784 671.536 397.695H671.514ZM1298.47 447.647C1300.17 445.94 1302.34 439.63 1302.46 437.059C1303.86 406.467 1240.53 409.519 1223.37 426.056C1222.36 427.03 1214 437.912 1213.9 438.689C1211.66 456.648 1225.5 474.247 1243.46 463.112C1248.72 459.853 1257.04 447.975 1261.08 446.772C1273.34 443.097 1288.31 457.797 1298.48 447.636L1298.47 447.647ZM861.871 424.722C848.018 427.5 846.146 444.322 853.029 454.855C863.206 470.386 901.745 459.394 890.256 439.706C884.544 429.917 873.645 422.359 861.871 424.722ZM1005.61 510.373C1014.16 519.32 1024.01 516.4 1034.01 518.5C1056.71 523.29 1075.79 540.55 1098.51 520.315C1112.75 507.65 1115.83 475.559 1122.96 470.036C1125.45 468.1 1134.2 466.908 1137.59 467.465C1152.07 469.828 1169.22 501.372 1179.15 473.569C1189.5 444.551 1160.18 427.828 1134.99 426.078C1100.56 423.683 1100.79 448.642 1087.95 470.714C1065.8 508.82 1036.19 465.694 1010.2 481.301C999.845 487.514 997.164 501.525 1005.61 510.373ZM1335.15 431.667C1327.52 442.572 1336.38 458.158 1345.66 465.103C1358.41 474.651 1398.77 479.311 1412.63 470.911C1424.73 463.583 1420.77 447.286 1407.71 443.819C1398.93 441.489 1390.22 447.012 1380.39 443.972C1373.26 441.762 1365.98 428.08 1354.06 426.165C1347.92 425.181 1338.9 426.308 1335.16 431.667H1335.15ZM529.94 534.042C550.993 547.222 558.839 524.964 569.541 523.258C578.864 521.77 585.714 537.28 600.53 530.301C617.918 522.098 616.692 502.837 606.494 489.023C593.976 472.081 580.593 480.437 564.168 480.383C531.669 480.262 517.093 438.897 485.065 445.481C468.399 448.905 452.959 465.212 466.462 481.247C478.346 495.367 519.807 487.044 523.878 505.364C525.738 513.753 521.109 528.508 529.94 534.042ZM878.777 506.37C867.211 492.217 847.755 497.456 832.556 495.695C818.582 494.076 825.235 485.994 821.931 475.745C817.455 461.833 799.958 458.212 787.111 460.411C753.419 466.186 745.585 518.62 789.267 510.942C792.036 532.15 782.275 539.598 764.712 546.697C758.223 549.322 752.522 547.812 746.777 554.244C738.056 564.011 742.028 574.828 754.853 576.775C772.788 579.509 789.792 573.45 803.197 561.769C814.391 552.012 823.244 528.803 841.977 533.834C858.708 538.33 851.125 560.533 870.012 561.933C898.397 564.044 889.939 520.02 878.788 506.381L878.777 506.37ZM941.675 462.073C931.4 464.469 917.087 493.934 915.402 503.701C912.863 518.369 922.558 542.912 934.54 551.695C947.223 560.992 980.849 565.717 977.523 542.814C975.575 529.437 956.765 528.519 954.795 516.159C953.186 506.009 961.962 493.464 962.586 482.876C963.407 469.095 956.491 458.628 941.675 462.073ZM1548.18 549.519C1553.72 542.945 1551.94 534.348 1548.37 527.392C1545.16 521.103 1512.26 483.303 1506.08 477.965C1493.96 467.487 1475.8 464.819 1460.25 467.564C1432.37 472.486 1445.18 498.758 1468.75 503.395C1474 504.423 1478.59 503.494 1483.17 504.259C1502.29 507.442 1508.14 535.737 1522.08 547.725C1528.68 553.401 1541.92 556.934 1548.18 549.519Z" fill="#7BCBBD"/>
<path d="M87.621 274.911C113.533 272.297 141.327 276.278 165.74 285.98C177.82 290.781 188.839 298.306 201.511 302.867C220.179 309.583 241.364 313.958 260.502 320.313C276.478 325.617 322.71 339.814 329.714 354.766C331.683 358.977 329.418 365.08 324.899 364.664C321.233 364.336 310.455 351.441 304.261 347.886C273.885 330.473 234.109 332.694 200.515 329.336C197.44 329.03 194.179 329.916 192.943 325.858C195.668 326.208 204.575 330.55 206.523 325.88C192.483 320.334 177.689 314.658 164.23 307.855C147.444 299.367 142.695 291.208 121.959 287.27C102.722 283.617 102.973 289.567 87.5991 274.911H87.621Z" fill="#1CAE99"/>
<path d="M535.532 161.763C539.646 164.3 544.603 173.181 545.577 178.016C546.551 182.85 545.719 200.831 546.496 201.728C546.912 202.209 558.161 204.988 558.785 204.889C563.895 204.069 573.765 195.078 582.618 195.647C594.217 196.38 597.992 208.892 594.84 218.977C591.612 229.313 575.571 231.73 581.589 245.609C586.097 256.011 601.045 259.905 611.375 257.575C621.704 255.245 628.357 239.244 643.206 243.389C662.706 248.836 649.98 272.767 648.404 284.394C644.563 312.613 662.684 318.759 663.669 340.263C664.293 353.902 658.57 362.586 644.06 361.547C640.876 361.317 636.192 360.333 633.872 358.069C629.167 353.475 622.35 326.602 617.984 317.917C602.227 286.549 574.651 278.827 554.867 255.344C546.179 245.041 541.66 235.011 530.192 225.67C526.822 222.925 522.477 222.072 519.249 219.633C506.206 209.756 516.656 200.7 515.846 187.411C515.387 179.908 510.583 173.783 513.111 166.149C515.89 157.716 529.098 157.792 535.554 161.774L535.532 161.763Z" fill="#32B7A1"/>
<path d="M671.515 397.695C679.94 406.784 677.807 426.253 682.392 433.527C686.626 440.264 708.096 442.55 715.974 454.297C734.97 482.603 704.507 506.731 697.908 532.566C696.661 537.444 698.094 541.994 696.212 547.856C690.128 566.844 658.209 563.792 651.545 545.866C640.493 516.105 674.272 499.053 670.234 474.531C667.991 460.881 649.422 455.599 642.375 444.65C631.706 428.08 634.835 392.828 659.281 392.949C662.706 392.97 669.217 395.234 671.493 397.695H671.515Z" fill="#32B7A1"/>
<path d="M529.94 534.042C521.099 528.508 525.738 513.753 523.878 505.364C519.807 487.044 478.335 495.356 466.463 481.247C452.959 465.201 468.399 448.905 485.065 445.481C517.094 438.897 531.669 480.262 564.168 480.383C580.582 480.448 593.976 472.081 606.494 489.023C616.693 502.837 617.929 522.098 600.531 530.301C585.725 537.28 578.864 521.781 569.541 523.258C558.839 524.964 550.994 547.211 529.94 534.042Z" fill="#32B7A1"/>
<path d="M561.028 314.559C581.129 333.142 569.716 364.194 583.712 382.722C587.936 388.311 596.154 392.336 599.71 399.008C608.562 415.589 607.041 449.627 581.195 444.683C570.756 442.692 566.357 416.606 556.421 410C546.529 403.427 515.036 402.3 512.64 390.838C509.314 374.902 535.991 373.655 537.633 368.93C539.865 362.488 529.481 352.753 526.964 346.048C516.196 317.381 538.158 293.439 561.006 314.57L561.028 314.559Z" fill="#32B7A1"/>
<path d="M477.887 129.333C487.122 140.653 475.02 160.898 476.727 173.728C478.182 184.677 494.41 193.602 482.701 205.381C480.185 207.908 479.506 208.28 475.906 208.761C446.93 212.677 448.889 176.725 429.663 164.803C413.884 155.014 395.314 165.886 385.947 145.673C377.905 128.316 388.267 109.438 408.237 116.613C416.608 119.62 425.647 134.463 431.698 135.633C448.779 138.936 465.981 114.742 477.887 129.333Z" fill="#32B7A1"/>
<path d="M394.318 440.406C393.41 439.356 391.528 439.925 391.572 437.147C391.747 424.733 403.565 428.003 412.144 425.225C426.807 420.478 441.929 412.362 451.887 400.43C460.411 390.203 465.904 368.962 482.504 370.045C498.097 371.062 492.068 396.634 485.886 405.548C480.48 413.347 445.683 432.848 435.32 438.219C423.021 444.584 405.316 453.028 394.297 440.406H394.318Z" fill="#32B7A1"/>
<path d="M334.419 403.547C331.65 401.261 332.077 396.077 335.776 394.731C363.953 390.553 393.399 381.377 409.047 355.903C414.267 347.416 420.974 331.217 422.123 321.428C422.9 314.811 418.917 285.236 433.526 296.819C439.686 301.708 436.743 328.242 435.134 336.128C428.404 369.072 405.819 391.209 373.976 400.659C366.732 402.814 339.507 407.747 334.408 403.536L334.419 403.547Z" fill="#1CAE99"/>
<path d="M508.438 260.145C514.632 268.086 514.818 294.303 504.521 300.187C477.197 315.806 464.416 241.814 498.699 253.758C499.389 253.998 508.088 259.686 508.438 260.145Z" fill="#32B7A1"/>
<path d="M226.537 219.206C256.749 214.984 262.133 265.155 232.774 269.705C198.535 275.02 194.037 223.745 226.537 219.206ZM224.775 231.095C208.591 234.617 212.191 266.117 233.846 258.877C246.693 254.578 245.401 226.6 224.775 231.095Z" fill="#FDFAF1"/>
<path d="M321.638 122.497C339.102 118.078 349.443 124.619 345.81 143.278C342.998 157.759 309.01 159.466 308.365 141.561C308.102 134.309 314.547 124.291 321.638 122.497Z" fill="#32B7A1"/>
<path d="M116.017 229.389C126.117 226.447 127.485 235.175 121.641 241.836C110.764 254.217 104.068 232.878 116.017 229.389Z" fill="#1CAE99"/>
<path d="M95.5871 232.758C98.9027 231.741 102.426 231.916 104.571 234.989C94.099 259.434 82.1278 236.881 95.5871 232.758Z" fill="#1CAE99"/>
<path d="M224.775 231.095C245.401 226.6 246.693 254.578 233.846 258.877C212.191 266.117 208.602 234.628 224.775 231.095Z" fill="#1CAE99"/>
</g>
</g>
<defs>
<clipPath id="clip0_504_7813">
<rect width="669" height="516" fill="white"/>
</clipPath>
<clipPath id="clip1_504_7813">
<rect width="1524" height="560" fill="white" transform="translate(76 88)"/>
</clipPath>
</defs>
</svg>
