<svg width="669" height="516" viewBox="0 0 669 516" fill="none" xmlns="http://www.w3.org/2000/svg">
<g clip-path="url(#clip0_504_11285)">
<rect width="669" height="516" fill="#D9D9D9" fill-opacity="0.6"/>
<g clip-path="url(#clip1_504_11285)">
<path d="M407.861 34C411.881 35.3181 414.834 35.1638 418.356 37.7525C422.139 43.0725 420.064 49.6275 418.332 55.375C418.036 56.3606 416.909 58.1063 418.356 58.7713C416.53 64.5188 413.423 71.715 412.367 77.5337C411.312 78.1631 411.158 80.1344 412.367 80.5381C412.296 81.0131 412.427 81.5594 412.367 82.0344C409.984 81.1438 410.411 86.5944 411.62 88.0312C411.549 89.5275 411.656 91.0356 411.62 92.5319C409.391 91.8788 409.237 95.37 411.62 94.7881C411.62 95.2869 411.62 95.7856 411.62 96.2844C409.391 95.6313 409.237 99.1225 411.62 98.5406C411.62 99.2887 411.62 100.037 411.62 100.797C410.375 102.317 410.339 106.639 411.62 108.302C411.62 108.551 411.62 108.801 411.62 109.05C411.715 112.28 411.727 114.465 412.355 117.707C412.664 119.346 411.644 120.248 413.873 118.799C419.601 149.116 435.492 180.395 437.105 210.344C435.847 215.711 435.847 222.979 437.105 228.346C435.99 250.944 425.412 276.297 420.621 298.884C418.498 298.444 419.21 299.929 418.901 301.247C418.048 304.881 416.174 310.497 417.621 313.894C416.909 318.335 416.684 322.943 416.126 327.396C413.755 326.612 414.585 331.196 414.632 333.392C414.632 333.891 414.632 334.39 414.632 334.889C412.687 342.548 413.043 350.659 413.126 358.532C413.138 359.803 412.652 361.869 413.885 362.653C413.873 363.401 413.897 364.149 413.885 364.909C411.466 364.517 412.011 366.369 413.885 367.165C413.861 367.913 413.909 368.661 413.885 369.421C411.62 369.006 412.438 370.573 412.391 372.01C412.308 374.005 412.32 376.083 412.391 378.078C412.438 379.527 411.632 381.094 413.885 380.667C413.861 381.664 413.909 382.674 413.885 383.671C411.62 383.256 412.438 384.823 412.391 386.26C412.237 390.321 411.881 395.641 413.138 399.429C413.126 399.679 413.15 399.928 413.138 400.177C410.719 399.762 411.857 401.401 411.679 402.802C409.687 418.441 408.122 438.914 408.644 454.613C408.691 456.061 407.885 457.629 410.138 457.201C410.162 458.199 410.102 459.208 410.138 460.206C407.778 470.383 411.17 481.177 412.403 491.342L410.138 493.218C410.932 493.349 412.569 492.897 413.067 493.301C414.004 494.049 414.3 504.036 414.644 504.488C414.739 504.606 417.478 504.559 417.573 504.44C417.822 504.108 419.352 497.671 419.672 496.389C421.487 489.003 423.692 479.313 424.392 471.831C424.511 470.62 424.843 468.482 423.645 467.722C424.629 459.291 424.914 450.67 425.139 442.215C427.404 442.631 426.586 441.063 426.633 439.626C426.811 435.149 426.693 430.566 426.645 426.077C426.633 424.806 427.119 422.74 425.886 421.956C425.91 420.959 425.851 419.949 425.886 418.952C428.151 419.368 427.333 417.812 427.392 416.363C427.772 406.186 429.171 396.187 430.179 386.082C430.298 384.882 431.045 382.959 429.645 382.187C435.421 346.289 453.126 311.151 461.865 274.884C464.439 264.221 465.826 253.723 466.36 242.62C466.467 240.376 466.894 236.766 465.613 235.115C465.625 234.616 465.613 234.118 465.613 233.619C466.858 232.835 466.36 230.769 466.372 229.498C466.633 208.753 464.012 191.273 461.842 170.954C461.688 169.541 462.755 167.914 460.371 168.342C459.968 163.105 459.766 157.844 459.624 152.584L462.624 103.813C462.897 102.554 463.016 101.319 463.372 100.061C466.336 100.298 465.221 100.179 465.648 98.2437C466.407 94.7525 467.973 89.7887 470.629 87.2831C472.028 85.965 474.863 86.0006 475.242 85.6444C475.788 85.1219 474.412 83.5663 477.412 82.9844C482.82 81.9512 488.014 87.1763 488.808 92.235C489.911 99.3006 488.441 108.088 488.856 115.071C488.903 115.807 488.891 116.591 488.856 117.327H488.109L487.362 116.579C487.385 120.64 485.31 125.414 487.362 129.332C487.314 130.33 487.409 131.339 487.362 132.337H486.615L485.867 131.589C485.832 133.085 485.891 134.593 485.867 136.089C485.867 136.588 485.867 137.087 485.867 137.586C485.832 140.329 485.844 143.096 485.867 145.839C485.867 146.338 485.867 146.836 485.867 147.335C485.867 148.083 485.867 148.831 485.867 149.591C485.939 160.54 487.03 168.579 488.132 179.243C488.275 180.656 487.231 182.271 489.615 181.856C489.662 182.354 489.567 182.865 489.615 183.352C488.275 188.268 490.03 194.099 490.362 199.514C490.457 200.951 489.556 202.518 491.856 202.102C491.856 202.601 491.856 203.1 491.856 203.599C491.951 228.168 493.03 254.281 488.619 278.767C487.623 284.289 486.069 289.787 484.848 295.262C484.61 296.354 483.685 298.171 485.108 298.884C479.606 318.632 471.495 338.166 464.878 357.416C463.087 362.629 461.261 367.533 460.004 373.162C459.589 375.026 458.225 378.327 459.636 379.919C458.142 386.854 456.909 393.907 455.889 400.926C453.647 400.486 454.537 402.006 454.288 403.407C453.339 408.621 451.952 415.342 453.647 420.436C453.339 423.678 453.126 426.944 452.9 430.186L452.153 430.934C452.082 431.931 452.201 432.941 452.153 433.938C450.908 436.717 450.884 442.262 452.153 445.196C451.952 449.708 451.596 454.209 451.406 458.698L450.671 459.077L451.406 459.457C451.228 463.542 451.797 468.34 451.394 472.579C450.92 477.567 449.414 482.911 448.762 487.957C448.655 488.753 447.718 490.38 449.141 490.214C455.604 472.746 463.241 455.741 470.131 438.451C471.767 438.712 472.953 435.114 473.499 433.938C478.539 422.989 483.851 408.383 487.385 396.829C487.694 395.843 488.808 394.098 487.362 393.444C490.03 385.595 492.496 377.378 494.856 369.433C496.92 362.451 498.616 357.404 499.351 349.923C499.398 349.436 499.303 348.913 499.351 348.426C501.011 344.412 502.102 337.608 500.845 333.416C502.007 322.705 502.612 311.851 503.845 301.152C506.264 301.568 505.126 299.929 505.304 298.527C505.932 293.635 507.059 287.899 506.087 283.149C509.134 260.361 514.198 240.114 521.052 218.229C527.764 196.794 537.583 175.942 539.801 153.344L541.307 154.472C541.224 144.307 541.734 134.166 540.56 124.084C539.979 119.061 538.627 112.898 537.666 107.803C537.405 106.414 538.307 104.882 536.065 105.321C536.03 105.072 536.089 104.823 536.065 104.573C537.322 100.488 537.322 94.3487 536.065 90.3112C536.457 88.8981 536.777 87.8294 537.56 86.5587L538.307 85.8106C539.564 84.0888 540.323 83.3169 542.054 82.0581C543.358 82.1888 544.663 81.9394 545.054 80.5619C545.41 80.455 545.813 79.885 546.548 79.8138C550.818 81.4763 554.102 81.4762 556.308 86.2025L559.285 88.0669C562.605 93.6244 563.838 100.5 565.273 106.829C563.957 107.566 564.514 109.572 564.704 110.76C565.404 115.023 568.499 126.019 567.526 129.606C567.349 130.271 566.163 130.057 566.092 130.152C564.953 131.755 567.455 131.636 567.894 132.313C569.151 134.237 567.918 159.163 567.432 163.414C566.993 167.285 564.17 171.798 566.009 175.871C562.119 192.246 554.778 207.458 549.323 223.311C539.623 251.479 533.812 276.428 532.294 306.424L531.535 304.928H530.8C530.824 306.792 530.67 308.692 530.812 310.557C530.907 311.756 531.535 311.602 531.535 311.673C531.559 312.172 531.512 312.671 531.535 313.169C531.12 313.241 530.124 313.039 530.041 313.169C529.804 313.49 530.006 319.867 530.065 321.066C530.124 322.266 530.788 322.111 530.788 322.182C530.848 323.916 530.824 325.698 530.788 327.431L529.282 326.303C530.195 332.561 526.555 339.484 528.535 345.434C519.854 405.403 488.536 450.373 473.855 506.399C473.748 506.803 473.641 507.622 474.21 507.504C479.487 501.483 485.405 495.356 489.876 488.682C500.501 472.841 506.264 451.014 513.949 433.249C527.408 402.137 545.481 376.618 561.633 347.441C572.946 326.992 577.855 309.761 582.48 286.914C583.773 280.501 584.793 273.982 585.481 267.403C586.038 262.107 586.595 256.597 587.01 251.301C587.117 249.911 587.437 247.358 586.228 246.396C588.872 222.219 590.354 204.24 598.964 181.119C601.988 181.369 600.79 181.179 601.229 179.291C603.008 171.524 609.222 161.11 613.206 154.104C613.515 153.997 614.297 154.365 614.606 154.021C615.068 153.51 615.139 149.971 616.942 149.223L616.206 148.855C622.99 138.654 637.611 119.251 651.628 126.518C662.799 132.301 651.889 147.561 647.241 154.044C629.37 178.922 623.82 187.472 617.712 218.632C615.258 218.074 615.59 223.941 615.459 226.138C615.447 226.387 615.471 226.636 615.459 226.886C614.499 227.907 614.202 229.747 614.048 231.101C612.412 245.47 611.582 259.756 610.965 274.16C610.965 274.409 610.965 274.659 610.965 274.908C609.708 276.096 609.72 279.753 610.965 280.905C610.929 281.404 611.012 281.914 610.965 282.401C608.593 281.974 609.696 283.577 609.447 284.978C608.866 288.374 607.538 293.362 608.712 296.663C600.328 344.306 574.298 381.629 551.019 422.716C546.086 431.432 541.093 440.921 536.895 450.207C536.397 451.299 534.69 454.007 536.03 454.981L517.791 496.294L518.799 496.626C531.132 480.12 541.817 461.678 555.122 445.956C583.18 412.789 623.749 388.504 640.529 346.894C659.028 301.021 647.976 243.059 685.141 205.855C685.236 205.76 686.327 205.819 687.038 205.154C688.07 204.193 693.086 197.994 693.573 197.804C694.652 197.388 695.695 197.816 696.585 197.578C697.237 197.4 697.083 196.236 697.64 196.106C700.546 195.417 705.491 197.554 708.36 198.35C719.199 209.821 703.878 222.706 697.854 232.467C692.671 240.863 689.742 250.386 687.382 259.874C685.378 259.447 685.9 260.872 685.532 262.119C683.754 268.163 683.516 273.97 682.876 280.133C682.852 280.383 682.9 280.632 682.876 280.881C680.848 286.985 680.54 293.979 679.876 300.392C679.852 300.641 679.9 300.891 679.876 301.14L671.634 345.41C671.48 345.731 670.97 345.956 670.887 346.158C669.903 348.474 668.397 351.454 667.234 354.126C666.819 355.088 665.61 356.715 667.14 357.404C651.96 393.1 632.69 407.635 606.447 433.19L604.953 434.686C602.948 436.634 600.968 438.712 598.964 440.683L598.217 441.431C597.482 442.168 596.699 442.939 595.964 443.688H594.469L595.217 444.436C580.642 459.315 566.341 476.878 554.375 493.954C553.948 494.56 552.371 495.415 553.616 496.199C559.546 490.095 566.092 484.015 572.721 478.552C617.001 442.096 674.278 421.861 698.221 364.861C706.416 345.362 706.57 323.524 715.108 304.109L717.764 301.888L722.603 292.103C723.172 291.486 723.421 291.189 724.097 290.607C728.817 288.837 730.951 286.949 736.394 287.674C741.316 288.327 741.47 290.357 744.328 293.611C744.506 294.134 745.526 294.561 745.786 296.247C746.913 303.301 743.604 310.414 741.328 316.874C739.098 316.708 739.549 318.204 738.968 319.392C733.56 330.697 733.026 342.275 729.528 354.209C726.836 363.412 722.081 376.843 717.788 385.215C717.409 385.951 715.737 387.638 717.349 388.148C690.134 443.308 643.055 459.315 597.529 494.382C592.311 498.408 587.307 502.576 582.848 507.444C582.409 508.454 584.816 507.385 585.481 507.444C593.485 508.109 603.031 504.867 611.439 503.799C623.5 502.267 635.773 502.552 647.691 499.548C648.948 499.227 650.348 499.643 649.921 497.695C650.17 497.671 650.419 497.719 650.668 497.695C650.763 497.695 651.308 498.514 652.411 498.431C654.142 498.313 656.87 497.457 656.656 495.439C674.587 489.074 677.172 482.364 690.371 471.796C701.269 463.068 719.448 465.336 713.638 482.341C711.693 488.029 707.696 492.482 703.866 496.947L703.131 496.211L701.613 499.203C701.376 499.464 701.103 499.702 700.866 499.951L700.119 500.699C699.051 501.78 698.269 502.635 697.118 503.704L696.371 504.452C696.11 504.689 695.885 504.974 695.624 505.2H694.13L694.877 505.948C655.044 539.649 602.688 520.923 562.771 546.608C551.778 553.686 545.208 561.986 536.03 570.477C515.787 589.192 505.138 592.303 477.851 595.878C436.523 601.293 386.041 600.307 344.678 594.393C319.217 590.748 306.101 586.591 287.258 568.981C272.494 555.17 261.453 542.333 244.033 530.85C200.95 502.457 150.646 495.035 111.927 458.674L111.18 457.926C109.069 455.919 107.195 454.043 105.191 451.929L104.444 451.181C104.207 450.919 103.934 450.694 103.697 450.432L102.95 449.684C96.2736 442.298 81.2486 427.205 92.8227 417.408C100.555 410.865 110.48 418.477 116.445 423.785C121.936 428.666 126.276 435.221 131.494 440.22C143.602 451.846 157.619 457.379 172.632 463.934C172.525 465.894 173.711 465.846 175.027 466.416C189.673 472.758 203.417 477.84 217.019 485.499C218.703 486.449 223.921 485.523 224.383 489.442C224.893 489.561 225.012 488.694 225.083 488.694C225.332 488.694 225.581 488.694 225.83 488.694C226.921 490.962 229.72 490.938 231.558 491.971C232.115 492.28 234.7 495.949 236.325 493.943C238.151 494.988 240.345 496.306 242.314 496.935C243.286 495.89 238.744 490.831 237.843 489.786C196.266 442.073 147.373 423.31 123.169 357.76C116.433 339.532 115.473 319.819 104.753 303.42C99.7838 295.82 90.0715 287.697 86.1226 280.81C82.1736 273.922 83.5255 263.876 92.2535 262.261C100.092 260.813 105.523 265.04 111.192 269.588L110.445 270.336H111.939C112.959 271.203 113.445 271.904 114.192 272.592L114.939 273.341C116.623 274.968 117.809 276.001 119.434 277.841V279.338L120.181 278.589C140.163 301.971 139.297 315.746 147.527 343.118C153.16 361.857 164.319 380.406 177.126 394.893L178.62 396.389C179.427 397.268 180.672 398.432 181.621 399.394L183.874 401.65C203.014 420.638 225.545 437.489 245.314 456.429L244.567 457.177H246.061C247.863 458.923 249.535 460.693 251.302 462.438L253.556 464.694C253.805 464.944 254.054 465.193 254.303 465.443C255.524 466.689 256.864 467.948 258.05 469.195C259.236 470.442 260.564 471.641 261.797 472.948L262.544 473.696C269.138 480.678 275.304 487.851 281.269 495.451C278.411 486.806 273.407 478.078 268.557 470.299C251.184 442.464 226.826 420.246 209.346 392.661L207.544 387.305C200.595 376.38 195.329 361.453 193.61 348.391C193.456 347.203 192.863 343.368 192.863 342.762V331.504C192.863 330.091 191.297 326.6 192.104 324.379L190.61 325.128C186.044 287.567 151.689 258.319 141.159 220.081C142.582 219.369 141.621 217.54 141.432 216.447C140.329 210.332 138.68 203.729 138.17 197.566C137.85 193.707 139.036 188.969 137.423 185.561C137.423 185.311 137.411 185.062 137.423 184.812C139.748 185.228 138.811 183.649 138.918 182.212C139.131 179.231 139.238 176.334 139.914 173.424L144.171 152.56C146.353 147.121 148.772 139.224 155.413 138.298L165.908 141.303C166.157 141.552 166.453 141.777 166.655 142.051C167.319 143.677 166.714 146.373 168.908 145.803C170.924 152.821 169.074 163.438 167.414 170.562C165.351 170.064 165.813 171.691 165.92 173.567C165.932 173.816 165.92 174.066 165.92 174.315C164.58 178.673 162.611 184.967 164.426 189.325C164.212 191.486 164.568 193.873 164.426 196.082C164.354 197.163 161.923 201.141 165.173 200.582C168.659 227.384 186.661 248.51 199.646 271.12C198.247 271.452 199.587 273.554 199.966 274.207C203.785 280.644 206.488 287.709 210.485 294.419C211.184 295.594 211.374 296.722 213.141 296.639C222.913 320.342 218.134 344.531 228 367.676C239.811 395.38 264.608 414.855 281.945 438.961C295.417 457.688 305.437 479.669 319.229 497.671C320.996 499.975 324.613 502.35 324.791 505.236C326.166 505.414 325.443 503.656 325.194 502.956C324.008 499.738 320.972 495.783 319.407 492.233C309.208 469.076 304.655 441.099 297.053 416.696C298.215 414.867 296.543 411.233 295.927 409.191C292.452 397.541 286.333 380.809 280.558 371.381C279.906 370.324 280.344 369.754 278.317 369.421C278.257 369.196 278.364 368.922 278.317 368.673C278.15 367.901 278.554 365.966 278.317 365.669C278.174 365.491 277.036 365.847 276.822 365.669C274.569 363.876 267.786 350.338 265.438 346.681C250.769 323.762 234.771 302.434 227.36 275.632C228.842 274.861 227.834 273.139 227.573 272.046C225.486 263.318 224.905 257.915 224.407 248.949C224.324 247.548 224.573 246.135 222.865 245.612C222.842 245.114 222.889 244.615 222.865 244.116C224.288 242.929 225.545 240.684 222.865 241.112C222.865 240.613 222.865 240.114 222.865 239.616C224.087 238.856 224.075 235.828 222.865 235.115C222.865 234.616 222.865 234.118 222.865 233.619C225.071 234.581 225.32 229.118 222.865 229.866C222.877 229.368 222.842 228.869 222.865 228.37C225.13 228.786 224.312 227.23 224.371 225.781C224.751 215.403 226.269 205.843 227.277 195.631C227.395 194.396 227.893 192.377 226.613 191.605C227.715 183.079 229.352 174.624 230.36 166.097C232.376 166.703 232.364 162.262 232.518 161.122C234.119 148.962 233.728 133.738 230.716 121.804C230.396 120.545 230.811 119.144 228.866 119.571C226.731 110.534 219.296 94.9187 219.841 86.9031C220.209 81.5119 223.897 76.3463 229.423 75.4794C245.337 72.9619 253.354 101.212 255.844 112.826C254.575 112.981 254.86 114.655 255.844 115.082C255.88 115.284 256.556 115.605 256.591 115.831L255.844 116.211C255.678 117.968 255.56 118.324 257.338 118.087C257.374 118.586 257.279 119.096 257.338 119.583C257.338 119.666 256.639 120.117 256.686 120.676C257.469 128.311 257.848 136.149 259.58 143.594C259.58 144.343 259.592 145.091 259.58 145.851C257.315 145.435 258.133 147.003 258.086 148.439C257.908 153.094 258.311 158.984 258.086 163.105C258.074 163.354 258.097 163.604 258.086 163.853C255.678 163.426 256.817 165.064 256.615 166.466C255.88 171.358 255.548 175.526 255.085 180.359C255.062 180.609 255.109 180.858 255.085 181.107C252.121 190.714 251.279 201.069 250.591 211.116C250.283 215.557 250.567 217.801 250.591 221.625C250.591 222.124 250.591 222.622 250.591 223.121C248.326 222.706 249.144 224.273 249.097 225.71C248.705 235.638 248.978 245.886 250.698 255.659C250.923 256.929 251.018 258.236 252.097 259.138C252.133 259.387 252.061 259.649 252.097 259.886L252.844 262.142C252.88 262.392 252.797 262.653 252.844 262.891C253.318 265.503 253.342 265.717 254.338 268.139C267.039 298.979 284.293 319.807 299.686 348.414C321.292 388.552 332.214 431.124 344.263 474.847C345.318 476.094 344.879 474.194 345.01 473.731C345.33 472.52 345.852 472.603 345.698 470.501C345.14 462.462 342.994 452.582 341.915 444.198C341.772 443.07 341.784 438.617 339.756 439.222C339.733 438.973 339.78 438.724 339.756 438.474C341.452 435.126 340.195 430.447 339.721 426.849C339.531 425.448 340.681 423.797 338.262 424.224C334.598 387.685 332.819 361.334 321.032 325.935C322.478 325.27 321.352 323.536 321.055 322.551C318.375 313.68 314.509 303.741 310.892 295.179C310.24 293.635 310.987 293.136 309.054 294.431C296.081 258.2 289.535 233.072 288.823 193.885C290.08 189.527 290.08 183.174 288.823 178.875C289.772 147.014 299.615 99.075 316.158 71.5606C320.889 63.6875 328.823 57.3106 337.539 64.4356C348.722 73.5675 334.977 95.845 330.969 106.663C322.502 129.499 318.197 151.574 316.549 175.883C314.284 175.467 315.102 177.034 315.055 178.471C314.818 185.466 315.233 192.508 315.055 199.514L316.561 194.633C316.502 213.835 320 233.322 325.016 251.823C334.515 286.842 352.327 317.575 360.023 353.711C358.683 354.459 359.3 356.43 359.466 357.629C362.146 376.641 364.814 395.534 366.759 414.487C366.854 415.389 367.34 416.791 367.506 418.239C366.154 421.576 366.723 426.457 366.759 430.245C366.759 431.1 365.929 432.145 366.154 433.439C366.367 434.651 367.79 435.85 367.565 437.311C367.494 437.762 366.023 437.714 365.988 438.166C365.881 439.84 367.767 443.877 368.087 445.801C370.328 459.434 371.087 468.269 375.949 481.45C376.827 483.837 382.626 498.728 383.634 499.262C385.187 500.094 385.567 495.831 385.567 495.142C385.567 490.914 385.638 486.592 385.543 482.376C385.495 480.037 383.847 475.691 383.966 474.171C384.001 473.696 385.472 473.767 385.46 473.434C385.424 472.271 384.096 469.646 383.966 467.402C383.325 456.097 384.464 443.699 384.736 432.489C384.831 428.488 385.294 423.298 383.989 419.736C384.013 419.237 383.966 418.738 383.989 418.239C385.899 416.434 385.258 413.727 385.484 411.483C386.124 405.248 387.108 398.111 385.484 391.972C385.495 391.473 385.472 390.974 385.484 390.476C387.749 390.891 386.93 389.324 386.978 387.887C387.274 380.429 387.227 372.034 386.978 364.552C386.93 363.104 387.737 361.536 385.484 361.964C385.46 361.216 385.507 360.456 385.484 359.707C387.215 356.846 385.934 352.666 385.46 349.566C385.246 348.165 386.409 346.526 383.989 346.942C383.966 346.443 384.013 345.944 383.989 345.446C383.586 335.257 382.72 332.039 379.495 322.182C371.348 297.328 361.517 272.937 354.022 247.904C355.576 246.088 353.548 244.199 353.311 242.216C353.204 241.242 354.07 239.996 353.916 239.307C353.726 238.464 352.149 238.559 351.781 237.573C348.864 229.842 345.876 200.784 348.058 192.911C348.235 192.282 349.386 192.413 349.504 191.866C349.789 190.548 349.196 188.945 349.635 187.591C349.919 186.724 351.224 186.653 351.757 185.798C352.22 185.062 351.971 183.399 352.682 182.794C353.797 181.832 358.885 182.437 358.505 179.635C362.3 179.231 366.225 179.789 368.241 183.388C365.585 184.848 367.103 184.919 368.988 185.644C374.728 200.511 372.581 218.241 378.167 233.892C378.594 235.091 378.44 236.302 380.23 235.922C384.404 250.41 390.535 264.09 396.346 277.948C400.568 264.434 404.754 250.659 407.209 236.671C409.343 237.229 408.964 233.631 409.201 232.289C410.422 225.377 411.11 217.659 410.173 210.783C409.984 209.382 411.134 207.731 408.715 208.159C405.987 184.183 393.559 160.528 388.247 136.742C381.784 107.815 380.195 66.4306 398.362 41.3506C401.113 37.5625 402.797 34.6769 407.956 34.0831L407.861 34ZM244.519 498.455L243.025 496.959C242.812 498.526 242.954 498.669 244.519 498.455Z" fill="#55C1AA"/>
<path d="M368.158 430.174C369.237 440.719 369.368 451.252 371.502 461.714C373.993 473.886 379.104 485.286 383.147 496.947C385.116 495.676 383.23 491.651 383.147 489.81C382.329 470.584 382.471 451.632 383.147 432.418H384.642C384.369 443.628 383.23 456.038 383.871 467.331C384.001 469.563 385.318 472.199 385.365 473.363C385.365 473.696 383.906 473.636 383.871 474.099C383.752 475.619 385.401 479.966 385.448 482.305C385.531 486.521 385.448 490.843 385.472 495.071C385.472 495.759 385.092 500.023 383.539 499.191C382.531 498.645 376.732 483.766 375.854 481.379C370.992 468.186 370.245 459.351 367.992 445.73C367.672 443.806 365.786 439.769 365.893 438.094C365.929 437.643 367.399 437.691 367.47 437.239C367.707 435.779 366.273 434.579 366.059 433.368C365.834 432.062 366.676 431.029 366.664 430.174H368.158Z" fill="#42BDA3"/>
<path d="M410.114 460.194C410.648 474.717 413.055 488.801 416.115 502.956L420.372 486.592C421.57 480.334 422.862 474.016 423.598 467.687C424.795 468.447 424.463 470.584 424.345 471.796C423.645 479.289 421.451 488.967 419.625 496.353C419.305 497.636 417.787 504.084 417.526 504.404C417.431 504.523 414.692 504.571 414.597 504.452C414.253 504.001 413.957 494.014 413.02 493.266C412.533 492.874 410.897 493.313 410.091 493.182L412.356 491.306C411.122 481.141 407.731 470.359 410.091 460.17L410.114 460.194Z" fill="#3DBCA2"/>
<path d="M649.897 497.707C650.312 499.654 648.925 499.25 647.668 499.559C635.75 502.575 623.476 502.279 611.416 503.81C603.008 504.879 593.462 508.121 585.457 507.456C592.809 505.912 600.233 504.119 607.68 503.074C621.579 501.139 636.034 499.262 649.897 497.695V497.707Z" fill="#3DBCA2"/>
<path d="M366.652 414.416C364.707 395.451 362.039 376.558 359.359 357.558C359.193 356.359 358.565 354.399 359.917 353.639C363.913 372.426 365.81 391.259 367.352 410.414C367.471 411.863 367.53 413.169 366.664 414.416H366.652Z" fill="#3DBCA2"/>
<path d="M413.115 400.166C411.834 419.166 409.735 437.738 410.114 457.189C407.849 457.605 408.668 456.038 408.62 454.601C408.098 438.902 409.664 418.429 411.656 402.79C411.834 401.389 410.707 399.738 413.115 400.166Z" fill="#3DBCA2"/>
<path d="M487.291 393.409C488.738 394.074 487.611 395.808 487.314 396.793C483.769 408.359 478.468 422.966 473.428 433.903C472.882 435.078 471.697 438.676 470.06 438.415C476.001 423.5 482.132 408.609 487.291 393.397V393.409Z" fill="#42BDA3"/>
<path d="M278.233 369.397C280.273 369.73 279.822 370.3 280.475 371.357C286.25 380.786 292.357 397.517 295.844 409.167C296.448 411.209 298.132 414.843 296.97 416.672C294.622 409.119 292.084 401.389 289.286 393.979C286.428 386.391 280.19 376.154 278.233 369.409V369.397Z" fill="#42BDA3"/>
<path d="M193.563 348.391C195.282 361.453 200.547 376.392 207.496 387.305L209.299 392.661C199.539 377.247 195.401 366.607 192.815 348.391H193.563Z" fill="#3DBCA2"/>
<path d="M429.598 382.151C430.997 382.935 430.25 384.847 430.132 386.046C429.124 396.14 427.724 406.151 427.345 416.328C427.297 417.776 428.104 419.332 425.839 418.916C426.301 407.089 427.701 393.836 429.586 382.151H429.598Z" fill="#34BB9F"/>
<path d="M339.686 439.187C341.702 438.581 341.69 443.034 341.844 444.163C342.923 452.546 345.069 462.438 345.627 470.466C345.769 472.579 345.259 472.484 344.939 473.696C342.84 462.272 341.026 450.729 339.697 439.175L339.686 439.187Z" fill="#3DBCA2"/>
<path d="M320.949 325.876C317.403 315.224 312.731 304.904 308.959 294.359C310.904 293.065 310.145 293.576 310.798 295.108C314.414 303.669 318.292 313.609 320.96 322.479C321.257 323.465 322.384 325.199 320.937 325.864L320.949 325.876Z" fill="#3DBCA2"/>
<path d="M385.389 361.892C387.654 361.477 386.835 363.044 386.883 364.481C387.132 371.962 387.179 380.346 386.883 387.816C386.824 389.264 387.654 390.832 385.389 390.404C385.626 381.13 385.673 371.155 385.389 361.892Z" fill="#3DBCA2"/>
<path d="M413.862 362.652C412.617 361.869 413.115 359.802 413.103 358.532C413.02 350.647 412.664 342.548 414.609 334.889C414.609 336.527 414.609 338.285 414.609 339.769V354.031C414.609 356.074 413.921 359.826 413.862 362.664V362.652Z" fill="#3DBCA2"/>
<path d="M383.895 345.386L379.4 322.123C382.638 331.979 383.492 335.186 383.895 345.386Z" fill="#3DBCA2"/>
<path d="M193.563 348.39H192.816C192.246 344.365 191.772 340.434 191.321 336.385L192.068 335.269L191.321 334.889C190.977 331.742 190.966 328.345 190.574 325.139L192.068 324.391C191.262 326.612 192.827 330.115 192.827 331.516V342.774C192.827 343.379 193.42 347.215 193.574 348.402L193.563 348.39Z" fill="#34BB9F"/>
<path d="M459.565 379.907C458.154 378.316 459.517 375.003 459.932 373.15C461.189 367.521 463.016 362.617 464.806 357.404C463.858 365.063 461.189 372.414 459.565 379.919V379.907Z" fill="#3DBCA2"/>
<path d="M455.818 400.914C454.893 407.362 454.193 413.941 453.565 420.424C451.869 415.33 453.268 408.609 454.205 403.396C454.454 401.994 453.577 400.474 455.806 400.914H455.818Z" fill="#34BB9F"/>
<path d="M385.389 411.423H383.895C384.12 405.201 385.211 398.135 385.389 391.913C387.013 398.052 386.029 405.189 385.389 411.423Z" fill="#3DBCA2"/>
<path d="M494.785 369.398C495.153 364.006 496.445 358.389 497.631 353.117C497.916 351.858 497.643 350.35 499.28 349.887C498.544 357.368 496.849 362.415 494.785 369.398Z" fill="#3DBCA2"/>
<path d="M530.753 327.384C530.634 332.751 529.294 339.9 528.5 345.386C526.519 339.437 530.148 332.514 529.247 326.256L530.753 327.384Z" fill="#34BB9F"/>
<path d="M425.85 421.921C427.096 422.704 426.598 424.771 426.609 426.041C426.657 430.53 426.775 435.114 426.598 439.591C426.538 441.039 427.368 442.607 425.103 442.179C425.151 440.434 425.103 438.676 425.103 436.931L425.839 436.551L425.103 436.171C425.103 435.422 425.092 434.674 425.103 433.914C426.36 433.095 425.827 430.827 425.85 429.414C425.886 426.92 425.791 424.402 425.85 421.909V421.921Z" fill="#34BB9F"/>
<path d="M413.862 383.659C413.719 388.979 413.47 394.121 413.114 399.418C411.857 395.641 412.201 390.309 412.367 386.248C412.427 384.799 411.597 383.232 413.862 383.659Z" fill="#3DBCA2"/>
<path d="M499.28 348.391C499.766 343.736 500.24 338.356 500.774 333.381C502.019 337.572 500.94 344.365 499.28 348.391Z" fill="#3DBCA2"/>
<path d="M535.994 454.945C534.642 453.971 536.362 451.264 536.86 450.171C541.058 440.885 546.05 431.385 550.984 422.681C546.904 433.713 540.963 444.234 535.994 454.945Z" fill="#3DBCA2"/>
<path d="M383.895 346.894C386.314 346.467 385.152 348.118 385.365 349.519C385.839 352.618 387.12 356.798 385.389 359.66C385.258 355.824 384.072 350.979 383.895 346.906V346.894Z" fill="#3DBCA2"/>
<path d="M338.179 424.177C340.598 423.761 339.46 425.4 339.638 426.801C340.112 430.399 341.369 435.078 339.673 438.427C339.14 433.689 338.654 428.915 338.179 424.165V424.177Z" fill="#3DBCA2"/>
<path d="M225.035 488.706C224.964 488.706 224.846 489.573 224.336 489.454C223.873 485.535 218.667 486.461 216.971 485.511C203.358 477.852 189.613 472.781 174.98 466.428C173.663 465.858 172.478 465.906 172.584 463.946C189.281 471.226 206.56 477.543 222.569 486.295C223.636 486.877 224.549 487.542 225.035 488.706Z" fill="#42BDA3"/>
<path d="M384.642 432.43H383.147C383.302 428.155 383.74 423.892 383.895 419.676C385.199 423.239 384.737 428.44 384.642 432.43Z" fill="#34BB9F"/>
<path d="M413.861 369.398C413.755 373.138 413.956 376.914 413.861 380.655C411.596 381.071 412.415 379.503 412.367 378.066C412.296 376.071 412.284 373.993 412.367 371.998C412.427 370.549 411.596 368.982 413.861 369.409V369.398Z" fill="#3DBCA2"/>
<path d="M667.128 357.392C665.598 356.691 666.796 355.064 667.223 354.114C668.397 351.443 669.891 348.462 670.875 346.146C670.97 350.255 668.657 353.806 667.128 357.404V357.392Z" fill="#3DBCA2"/>
<path d="M531.5 313.122C531.619 316.138 531.713 319.214 530.753 322.123C530.753 322.052 530.089 322.206 530.029 321.007C529.97 319.807 529.769 313.431 530.006 313.11C530.101 312.991 531.085 313.181 531.5 313.11V313.122Z" fill="#3DBCA2"/>
<path d="M367.399 424.177V424.925C367.47 425.661 367.328 426.433 367.399 427.181L368.146 428.678C368.194 429.164 368.099 429.687 368.146 430.174H366.652C366.616 426.386 366.047 421.505 367.399 418.168C367.612 420.08 367.209 422.241 367.399 424.165V424.177Z" fill="#34BB9F"/>
<path d="M452.07 445.184C450.801 442.251 450.825 436.705 452.07 433.926C451.88 437.655 452.236 441.455 452.07 445.184Z" fill="#34BB9F"/>
<path d="M650.644 497.707C652.613 496.923 654.64 496.163 656.633 495.451C656.846 497.469 654.119 498.324 652.387 498.443C651.284 498.514 650.739 497.695 650.644 497.707Z" fill="#3DBCA2"/>
<path d="M385.389 411.423C385.163 413.667 385.804 416.375 383.895 418.18C383.978 415.936 383.812 413.667 383.895 411.423H385.389Z" fill="#34BB9F"/>
<path d="M236.278 493.954C234.653 495.961 232.068 492.292 231.51 491.983C229.672 490.95 226.886 490.962 225.783 488.706C229.447 488.884 233.147 492.161 236.278 493.954Z" fill="#42BDA3"/>
<path d="M416.114 327.384C415.877 329.272 415.723 331.837 414.62 333.381C414.585 331.172 413.755 326.588 416.114 327.384Z" fill="#3DBCA2"/>
<path d="M276.739 365.645C276.953 365.811 278.091 365.455 278.233 365.645C278.471 365.942 278.079 367.877 278.233 368.649L276.739 365.645Z" fill="#42BDA3"/>
<path d="M425.103 433.926C425.127 432.513 424.593 430.245 425.85 429.426C425.827 430.839 426.36 433.107 425.103 433.926Z" fill="#55C1AA"/>
<path d="M413.861 364.897C413.85 365.645 413.885 366.393 413.861 367.153C411.988 366.358 411.442 364.517 413.861 364.897Z" fill="#3DBCA2"/>
<path d="M191.321 336.385C191.262 335.898 191.381 335.376 191.321 334.889L192.068 335.269L191.321 336.385Z" fill="#55C1AA"/>
<path d="M368.158 428.677L367.411 427.181C367.411 427.264 368.028 427.371 368.158 428.677Z" fill="#42BDA3"/>
<path d="M595.94 443.688C595.691 443.937 595.442 444.186 595.193 444.436L594.446 443.688H595.94Z" fill="#34BB9F"/>
<path d="M246.014 457.189H244.52L245.267 456.441C245.528 456.691 245.765 456.952 246.014 457.189Z" fill="#34BB9F"/>
<path d="M253.508 464.694L251.255 462.438C252.014 463.198 252.749 463.923 253.508 464.694Z" fill="#34BB9F"/>
<path d="M258.003 469.195C256.817 467.948 255.477 466.689 254.255 465.442L258.003 469.195Z" fill="#34BB9F"/>
<path d="M183.826 401.662L181.573 399.406C182.297 400.142 183.091 400.926 183.826 401.662Z" fill="#34BB9F"/>
<path d="M451.323 459.446L450.588 459.066L451.323 458.686C451.323 458.935 451.323 459.184 451.323 459.434V459.446Z" fill="#34BB9F"/>
<path d="M111.892 458.686C111.631 458.448 111.394 458.175 111.145 457.938L111.892 458.686Z" fill="#34BB9F"/>
<path d="M105.144 451.941C104.907 451.679 104.634 451.454 104.397 451.192L105.144 451.941Z" fill="#34BB9F"/>
<path d="M262.497 473.696L261.75 472.948C261.987 473.209 262.26 473.446 262.497 473.696Z" fill="#34BB9F"/>
<path d="M103.65 450.432C103.413 450.171 103.14 449.946 102.903 449.684L103.65 450.432Z" fill="#34BB9F"/>
<path d="M598.193 441.431L598.94 440.683C598.691 440.932 598.442 441.182 598.193 441.431Z" fill="#34BB9F"/>
<path d="M425.104 436.931C425.104 436.681 425.104 436.432 425.104 436.183L425.839 436.563L425.104 436.943V436.931Z" fill="#55C1AA"/>
<path d="M604.929 434.686L606.423 433.19C605.925 433.677 605.439 434.187 604.929 434.686Z" fill="#34BB9F"/>
<path d="M452.07 430.934L452.817 430.186C452.782 430.756 452.07 430.886 452.07 430.934Z" fill="#34BB9F"/>
<path d="M367.399 424.925V424.177C367.447 424.628 367.399 424.889 367.399 424.925Z" fill="#42BDA3"/>
<path d="M178.573 396.413L177.079 394.917C177.435 395.321 178.052 395.843 178.573 396.413Z" fill="#34BB9F"/>
<path d="M244.519 498.455C242.954 498.669 242.812 498.526 243.025 496.959L244.519 498.455Z" fill="#FEFDEE"/>
</g>
</g>
<defs>
<clipPath id="clip0_504_11285">
<rect width="669" height="516" fill="white"/>
</clipPath>
<clipPath id="clip1_504_11285">
<rect width="662" height="608" fill="white" transform="translate(84 34)"/>
</clipPath>
</defs>
</svg>
