<svg width="669" height="516" viewBox="0 0 669 516" fill="none" xmlns="http://www.w3.org/2000/svg">
<g clip-path="url(#clip0_504_11325)">
<rect width="669" height="516" fill="#D9D9D9" fill-opacity="0.6"/>
<g clip-path="url(#clip1_504_11325)">
<path d="M205.31 415C209.83 409.77 213.62 404.45 219.24 400.24C227.57 394 237.91 390.7 246.94 385.7C255.96 380.7 271.61 370.34 277.71 362.25C290.45 345.34 282.31 325.8 285.66 307.15C290.23 281.74 310.56 267.33 334.54 262.08C353.28 257.99 372.83 262.26 388.29 246.65C397.45 237.39 391.14 221.25 395.42 210.09C398.89 201.04 411.05 189.56 420.15 186.27C434.19 181.2 443.82 184.3 457.8 184.88C469.04 185.35 481.46 185.37 492.46 184.87C492.83 184.85 492.74 183.73 493.25 183.6C494.78 183.22 497.36 183.65 499.13 182.96L492.52 171.61C489.46 163.27 486.79 153.8 487.12 144.79C487.29 140.2 488.91 129.38 495.82 132.38C500 134.19 501.73 148.13 503.22 152.72C504.21 155.75 510.13 169.42 512.06 170.99C512.75 171.56 514.48 172.01 514.89 171.63C515.36 171.18 511.69 160.98 511.3 159.15C508.83 147.69 509.59 120.84 520.17 113.25C525.47 109.44 530.06 110.27 529.33 117.65C528.17 129.41 521.43 139.6 526.57 152.71C527.14 154.16 529.76 159.85 530.03 155.57C530.99 140.71 532.96 125.31 546.22 116.26C549.35 114.12 559.45 108.2 560.33 115.16C561.13 121.45 557.03 123.42 554.51 128.33C553.05 131.17 551.47 135.72 550.51 138.84C548.68 144.78 546.74 151.63 547.68 157.76C549.13 158.11 548.72 157.49 549.12 156.96C554.22 150.38 562.51 129.54 568.27 126.3C570.44 125.08 572.61 126.87 573.82 128.77C580.16 138.8 564.99 155.96 564.71 166.57C566.89 168.71 575.43 156.69 576.32 155.17C583.87 142.31 582.37 130.72 586.46 118.02C589.28 109.26 596.37 112.56 598.45 119.9C600.76 128.05 598.79 137.09 596.87 145.13C599.99 141.31 602.01 136.63 604.8 132.58C606.93 129.49 615.09 118.36 618.14 117.54C625.11 115.67 623.95 123.94 623.28 128.35C620.95 143.73 607.51 157.01 598.76 169.08C599.57 169.79 610.57 162.23 611.95 161.15C617.11 157.11 623.82 147.77 630.13 146.5C633.75 145.77 635.52 149.05 635.29 152.28C634.5 163.6 615.89 180.63 606.25 185.71L592.46 191.77C603.71 192.32 614.6 186.83 623.02 179.78C625.29 177.87 635 165.39 636.58 173.83C637.58 179.12 633.18 187.02 629.67 190.85C619.29 202.18 603.8 206.94 589.3 210.38C604.97 224.03 630.76 211.39 647.74 220.04C680.05 236.49 673.27 287.93 639.88 298.16C632.71 300.36 627.02 298.39 621.27 299.61C620.41 299.79 610.17 309.64 608.15 311.2C593.49 322.55 574.61 327.56 566.49 345.2C548.32 384.63 560.23 417.83 519.87 446.76C495.52 464.22 476.43 461.09 462.45 492.75C451.15 518.34 451.78 540.04 428.84 561.29C408.2 580.41 387.04 572.16 364.4 581.34C350.21 587.09 343.02 603.28 327.73 609.61C321.4 612.23 310.17 613.99 303.33 613.63C294.21 613.15 282.61 605.6 273.73 607.32C272.65 607.53 265.34 612.84 263.33 613.94C230.14 632.11 190.01 622.74 173.54 587.68C169.47 579.02 167.56 569.76 161.43 561.96C154.45 553.08 143.85 549.71 137.33 540.03C123.46 519.45 134.08 491.65 152.77 478.16C159.21 473.51 167.04 470.82 173.15 465.76C178.5 461.33 181.95 455.35 185.75 449.67C185.8 449.78 186.67 450.11 186.92 450.68C187.23 453.83 193.25 461.41 192.6 463.72C192.47 464.18 187.53 470.16 186.71 471.12C172.57 487.45 146.64 506.88 158.93 531.67C165.14 544.19 176.75 544.92 186.39 553.39C197.21 562.91 201.66 576.37 216.51 580.65C231.36 584.93 249.93 582.93 262.88 573.77C288.81 555.43 293.95 521.22 329.62 511.88C350.13 506.51 362.41 511.81 382.93 498.98C399.82 488.42 398.58 457.44 405.52 440.86C411.53 426.5 420.78 413.29 434.4 405.42C456.11 392.87 489.72 387.14 504.32 365.63C526.18 333.43 509.61 289.75 552.58 269.5C574.69 259.08 598 265.69 620.05 259.42C631.34 256.21 640.64 245.41 633.94 233.83C626.66 221.26 602.48 227.32 591.17 215.44C589.08 213.25 589.34 210.09 586.97 209.59C583.1 209.85 573.55 209.22 570.79 211.41C566.45 214.86 573 220.85 564.51 224.05C558.67 226.25 552.71 225.26 547.07 222.98C535.75 218.4 533.9 209.02 519.18 212.77C478.41 223.14 475.48 263.68 454.34 292.32C441.06 310.32 419.05 324.57 405.54 342.51C391.6 361.02 383.38 382.88 370.53 401.92C354.11 426.23 334.77 450.11 308.1 463.86C306.01 464.94 291.18 471.78 290.2 471.6C289.53 471.47 288.25 470.08 288.04 469.39C287.08 466.16 292.16 448.8 292.87 443.59C293.4 439.69 293.16 435.41 293.58 431.69C294.18 426.38 306.56 415.4 310.58 410.71C320.63 398.97 330.28 386.97 336.99 372.96C344.88 356.49 349.7 341.46 361.41 326.76C380.25 303.11 410.84 289.77 429.48 265.58C437.14 255.64 441.32 244.33 448.18 233.82C456.09 221.69 468.09 207.05 480.02 198.82C486.57 194.31 494.07 191.66 500.71 187.36L501.03 184.21C492.39 185.03 485.01 189.81 476.44 192.1C461.46 196.1 444.56 194.87 432 205.04C423.02 212.3 416.72 221.27 412.01 231.71C407.03 242.77 405.89 254.39 396.03 262.39C370.97 282.73 331.9 276.17 312.62 306.98C302.56 323.05 304.71 337.29 297.91 353.43C284.15 386.06 248.11 393.96 226.43 418.77C224.81 420.63 217.99 430.75 217.3 431.09C216.13 431.67 215.43 431.58 214.46 430.75C213.99 430.35 208.98 422.84 208.34 421.74C207.09 419.58 206.33 417.24 205.31 415ZM613.18 295.27C612.93 294.87 605.5 292.23 604.3 291.86C582.54 285.22 555.48 285.35 544.73 308.95C538.34 322.97 541.65 336.85 540.74 351.62C538.81 383.09 519.05 413.03 486.2 416.88C472.49 418.49 464.23 419.51 451.42 425.61C426.23 437.61 431.22 472.22 423.94 493.97C417.41 513.49 398.56 533.75 377.12 535.42C362.71 536.55 353.58 535.42 339.1 540.28C317.91 547.41 309.66 568.14 297.25 584.81C296.26 586.14 289.67 593.22 290.43 594.06C301.11 597.09 312.52 597.87 323.21 594.37C336.23 590.1 344.71 577.71 356.51 571.55C380.4 559.08 405 564.6 424.09 540.77C438.98 522.18 438.26 499.99 449.85 480.78C464.11 457.14 495.02 448.19 516.1 432.27C541.56 413.04 540.38 382.6 551.01 354.94C563.54 322.32 581.97 322.52 606.28 303.65C607.9 302.4 614.5 297.4 613.18 295.27Z" fill="#7FCECA"/>
<path d="M205.31 415C206.33 417.24 207.1 419.58 208.34 421.74C208.98 422.84 213.99 430.35 214.46 430.75C215.43 431.58 216.13 431.67 217.3 431.09C217.99 430.75 224.8 420.63 226.43 418.77C248.11 393.96 284.15 386.06 297.91 353.43C304.72 337.29 302.57 323.05 312.62 306.98C331.9 276.17 370.97 282.73 396.03 262.39C405.89 254.39 407.03 242.77 412.01 231.71C416.72 221.27 423.02 212.3 432 205.04C444.57 194.87 461.46 196.1 476.44 192.1C485.01 189.81 492.39 185.03 501.03 184.21L500.71 187.36C494.07 191.66 486.56 194.31 480.02 198.82C468.09 207.04 456.09 221.69 448.18 233.82C441.32 244.33 437.14 255.65 429.48 265.58C410.84 289.77 380.26 303.1 361.41 326.76C349.7 341.46 344.88 356.49 336.99 372.96C330.28 386.97 320.63 398.98 310.58 410.71C306.56 415.4 294.18 426.38 293.58 431.69C293.16 435.41 293.4 439.68 292.87 443.59C292.16 448.8 287.08 466.16 288.04 469.39C288.25 470.08 289.53 471.47 290.2 471.6C291.18 471.79 306.01 464.94 308.1 463.86C334.77 450.11 354.11 426.23 370.53 401.92C383.39 382.88 391.61 361.03 405.54 342.51C419.05 324.57 441.06 310.32 454.34 292.32C475.47 263.67 478.41 223.14 519.18 212.77C533.9 209.02 535.75 218.4 547.07 222.98C552.71 225.26 558.67 226.26 564.51 224.05C573 220.85 566.45 214.86 570.79 211.41C573.55 209.22 583.09 209.85 586.97 209.59C589.34 210.09 589.08 213.25 591.17 215.44C602.48 227.32 626.67 221.26 633.94 233.83C640.64 245.41 631.339 256.21 620.049 259.42C597.99 265.69 574.689 259.08 552.579 269.5C509.599 289.75 526.18 333.43 504.32 365.63C489.72 387.13 456.1 392.87 434.4 405.42C420.78 413.29 411.54 426.49 405.52 440.86C398.58 457.44 399.82 488.42 382.93 498.98C362.41 511.81 350.13 506.51 329.62 511.88C293.95 521.22 288.81 555.43 262.88 573.77C249.93 582.92 231.72 585.03 216.51 580.65C201.3 576.27 197.22 562.91 186.39 553.39C176.75 544.92 165.14 544.19 158.93 531.67C146.64 506.88 172.56 487.45 186.71 471.12C187.54 470.17 192.47 464.18 192.6 463.72C193.25 461.41 187.24 453.84 186.92 450.68C186.67 450.1 185.8 449.78 185.75 449.67C177.4 429.65 169.98 403.32 175.46 381.68C178.97 367.8 192.22 363.27 196.16 379.04C199.51 392.42 199.22 401.66 205.29 414.99L205.31 415ZM278.29 413.87C274.18 414.66 270.63 421.6 268.66 425.08C262.46 436.03 251.85 456.22 250.78 468.37C249.56 482.37 249.1 507.57 270.29 501.75C282.8 498.31 279.76 480.28 280.34 470.82C281.3 455.23 289.28 438.58 287.93 423.5C287.47 418.36 284.22 412.74 278.29 413.88V413.87ZM245.66 455.35C244.9 454.58 237.82 461.05 236.83 461.96C226.71 471.26 203.04 499.89 201.6 513.11C200.93 519.23 203.01 525.67 208.94 528.33C221.27 533.86 228.9 519.13 235.88 511.46C239 508.03 244.29 505 245.81 500.58C246.92 497.34 244.65 492.9 244.37 489.11C244.02 484.4 244.1 477.44 244.4 472.7C244.77 466.89 247.01 461.13 245.65 455.35H245.66Z" fill="#00A39B"/>
<path d="M613.18 295.27C614.5 297.4 607.89 302.4 606.28 303.65C581.97 322.52 563.53 322.32 551.01 354.94C540.39 382.6 541.57 413.04 516.1 432.27C495.03 448.19 464.12 457.14 449.85 480.78C438.26 499.99 438.97 522.18 424.09 540.77C405 564.6 380.4 559.09 356.51 571.55C344.71 577.71 336.23 590.1 323.21 594.37C312.53 597.88 301.12 597.09 290.43 594.06C289.67 593.21 296.26 586.14 297.25 584.81C309.66 568.14 317.91 547.41 339.1 540.28C353.58 535.41 362.7 536.55 377.12 535.42C398.56 533.74 417.41 513.49 423.94 493.97C431.22 472.22 426.23 437.61 451.42 425.61C464.23 419.51 472.49 418.49 486.2 416.88C519.05 413.03 538.81 383.09 540.74 351.62C541.64 336.85 538.34 322.97 544.73 308.95C555.48 285.36 582.54 285.22 604.3 291.86C605.49 292.22 612.93 294.86 613.18 295.27Z" fill="#00A39B"/>
<path d="M278.29 413.87C284.23 412.73 287.47 418.35 287.93 423.49C289.28 438.57 281.3 455.23 280.34 470.81C279.76 480.27 282.8 498.31 270.29 501.74C249.1 507.56 249.56 482.36 250.78 468.36C251.84 456.21 262.46 436.02 268.66 425.07C270.63 421.6 274.18 414.66 278.29 413.86V413.87Z" fill="#7FCECA"/>
<path d="M245.66 455.35C247.02 461.12 244.78 466.89 244.41 472.7C244.11 477.45 244.03 484.41 244.38 489.11C244.66 492.9 246.93 497.33 245.82 500.58C244.3 505 239.01 508.03 235.89 511.46C228.91 519.13 221.28 533.86 208.95 528.33C203.02 525.67 200.94 519.23 201.61 513.11C203.06 499.89 226.72 471.26 236.84 461.96C237.84 461.05 244.91 454.58 245.67 455.35H245.66Z" fill="#7FCECA"/>
</g>
</g>
<defs>
<clipPath id="clip0_504_11325">
<rect width="669" height="516" fill="white"/>
</clipPath>
<clipPath id="clip1_504_11325">
<rect width="537.75" height="512" fill="white" transform="translate(131 111)"/>
</clipPath>
</defs>
</svg>
