<svg width="669" height="516" viewBox="0 0 669 516" fill="none" xmlns="http://www.w3.org/2000/svg">
<g clip-path="url(#clip0_504_11324)">
<rect width="669" height="516" fill="#D9D9D9" fill-opacity="0.6"/>
<g clip-path="url(#clip1_504_11324)">
<path d="M309.921 314.151C302.378 332.048 287.159 344.864 278.104 361.848C278.253 361.897 279.017 363.574 280.347 364.039C290.864 367.741 301.647 370.746 312.912 370.796C313.261 372.456 312.464 372.821 311.284 373.635C297.892 382.848 266.656 381.338 251.27 378.748C251.935 399.666 241.069 417.745 233.376 436.372C257.667 441.419 278.718 441.12 303.192 437.069C311.201 435.741 318.96 433.184 326.852 431.408C327.533 432.006 322.15 438.613 321.419 439.41C320.14 440.805 315.388 445.171 313.926 446.3C314.042 448.823 317.332 450.334 318.894 452.027C329.943 463.98 341.856 478.972 349.266 493.963C350.662 496.802 351.808 499.906 352.722 502.928C370.733 489.812 397.267 462.287 415.361 455.231C412.769 448.508 416.491 440.556 420.794 435.343C427.241 427.507 434.717 428.636 430.447 440.024C427.805 447.113 423.369 452.691 416.341 455.231C416.358 469.957 410.194 484.699 402.418 496.968C429.417 501.882 456.383 523.879 466.053 549.628C481.19 533.989 500.796 504.588 505.83 483.056C497.257 479.47 491.724 466.587 495.396 458.22C499.317 449.288 506.063 458.203 507.325 464.163C508.588 470.123 507.874 476.282 506.81 482.059C508.721 482.441 510.898 483.72 512.277 485.048C518.358 490.974 530.005 518.367 534.657 527.764L594.322 501.931C593.275 499.458 591.182 492.269 590.451 489.397C589.603 486.027 589.121 482.557 589.354 479.071C583.622 476.747 576.876 470.372 574.55 464.561C572.024 458.286 575.663 455.48 580.897 459.199C587.709 464.047 589.171 471.318 590.351 479.071C603.344 484.898 612.615 492.817 626.622 497.964C643.685 504.239 659.104 506.115 676.849 508.871C677.115 488.567 679.159 467.018 689.776 449.255C683.694 448.574 671.283 445.436 664.903 443.793C647.424 439.294 628.715 432.686 615.19 420.434C611.07 420.219 601.217 418.11 601.167 412.997C601.117 407.884 608.395 409.926 611.585 411.619C614.443 413.146 615.838 416.682 617.184 419.438C624.212 420.102 631.639 423.423 638.568 424.402C666.913 428.387 699.878 419.903 725.564 408.515C722.092 397.176 718.138 387.248 711.458 377.403C706.956 370.779 701.041 365.5 696.721 358.843C696.422 358.942 696.023 358.743 695.724 358.843C694.295 359.341 691.454 361.997 690.756 359.839C658.772 370.065 609.674 382.201 587.526 348.234C567.555 317.604 609.109 292.785 626.09 272.88C689.942 198.056 634.73 103.926 615.656 23.0594C610.588 8.03499 594.505 -7.27165 578.454 3.73519C559.663 16.618 531.301 66.6551 517.145 87.5399C501.743 110.267 486.44 127.417 475.79 153.514C463.628 183.331 461.484 214.044 453.609 244.607C449.305 261.259 432.856 281.861 420.794 294.279C395.506 320.377 343.118 324.378 309.905 314.135L309.921 314.151ZM512.36 293.698C518.624 301.119 519.62 309.602 515.633 318.501C503.72 345.047 462.116 327.615 474.112 299.857C480.774 284.418 501.41 280.716 512.376 293.698H512.36ZM316.883 371.775C319.658 367.791 327.882 364.969 332.535 364.072C335.16 363.574 345.976 362.014 346.375 365.301C346.84 369.185 339.214 372.937 336.04 373.535C329.56 374.747 323.097 373.369 316.883 371.775ZM328.813 430.395C326.62 428.32 340.626 414.441 342.769 413.063C346.907 410.407 359.351 406.323 355.131 415.487C353.187 419.704 331.239 432.703 328.796 430.395H328.813Z" fill="#67C3B0"/>
<path d="M402.401 496.968C393.279 511.378 375.368 534.587 362.624 545.644C377.246 550.209 386.932 562.727 398.413 571.974L414.33 591.348C436.262 576.556 447.594 568.653 466.037 549.611C456.367 523.862 429.384 501.882 402.401 496.951V496.968Z" fill="#048D87"/>
<path d="M265.177 471.136L273.883 487.771L288.039 533.74C318.794 526.419 327.533 521.256 352.672 502.944C351.758 499.923 350.628 496.802 349.216 493.979C341.806 478.988 329.909 464.014 318.844 452.044C317.282 450.351 313.992 448.823 313.876 446.316C300.185 456.991 281.892 466.653 265.16 471.152L265.177 471.136Z" fill="#048D87"/>
<path d="M206.509 356.884C193.366 369.933 177.233 380.159 166.732 395.632C174.774 405.111 180.739 412.848 191.671 419.887C204.964 428.437 217.94 433.168 233.342 436.355C241.035 417.728 251.901 399.649 251.237 378.731C238.875 376.64 215.664 365.633 206.492 356.867L206.509 356.884Z" fill="#048D87"/>
<path d="M534.64 527.764C536.933 532.379 538.711 538.571 541.22 543.535C546.238 553.479 554.063 563.955 558.5 573.468C560.776 574.812 563.335 574.646 565.843 574.364C578.687 572.87 597.595 564.835 609.574 559.423C612.947 557.896 617.5 556.086 620.158 553.596C612.598 534.305 601.4 518.849 594.305 501.932L534.64 527.764Z" fill="#048D87"/>
<path d="M228.391 475.104C231.764 495.689 237.031 518.334 230.385 538.688C254.875 540.281 264.147 539.418 288.056 533.724L273.9 487.754L265.193 471.119C252.4 474.556 241.7 475.668 228.408 475.087L228.391 475.104Z" fill="#67C3B0"/>
<path d="M134.914 343.968C146.728 364.869 150.101 376.009 166.732 395.632C177.233 380.159 193.366 369.933 206.509 356.884C198.284 349.031 184.012 326.619 176.685 316.144L134.914 343.968Z" fill="#67C3B0"/>
<path d="M186.621 530.752C204.166 536.214 211.892 537.492 230.368 538.704C237.014 518.351 231.747 495.689 228.374 475.12C218.023 474.672 205.761 473.526 195.56 471.152C191.09 491.074 184.544 509.884 186.604 530.769L186.621 530.752Z" fill="#048D87"/>
<path d="M198.55 224.735C195.576 252.36 199.015 273.76 211.477 298.546C211.925 299.426 213.421 299.16 213.471 299.26C219.153 297.434 222.958 292.088 228.075 288.519C236.566 282.592 247.232 277.694 256.221 272.432C248.611 260.794 245.322 246.251 243.295 232.688C228.175 234.215 212.872 236.556 198.55 241.619V224.735Z" fill="#048D87"/>
<path d="M275.113 296.271C271.64 299.592 267.935 302.646 264.662 306.199C260.109 311.13 243.76 331.168 242.049 336.348C241.434 338.207 241.584 339.203 242.315 340.979C257.65 355.008 259.162 354.726 278.104 361.848C287.159 344.864 302.378 332.048 309.921 314.151C297.443 310.3 288.239 304.473 278.004 296.819C277.107 296.139 275.246 296.388 275.113 296.271Z" fill="#048D87"/>
<path d="M141.876 273.428C139.45 278.607 133.751 281.762 129.913 285.829C123.45 292.702 116.172 301.285 113.032 310.2C119.196 318.484 129.847 335.02 134.914 343.984L176.685 316.16C162.977 296.554 160.286 289.946 141.876 273.444V273.428Z" fill="#048D87"/>
<path d="M99.1256 461.191C102.249 465.524 104.725 471.235 106.386 476.282C108.197 481.744 110.54 490.128 111.803 495.723C112.866 500.438 111.171 512.706 118.017 510.88C118.997 510.814 120.011 510.897 121.008 510.88H122.005C122.669 510.88 123.334 510.847 123.998 510.88L127.969 511.876C132.671 512.44 137.274 512.739 141.893 513.868L142.89 514.864C143.455 515.014 144.335 514.698 144.884 514.864C152.776 497.632 153.125 478.324 157.81 460.212C136.659 456.576 119.911 455.331 99.1422 461.208L99.1256 461.191Z" fill="#048D87"/>
<path d="M157.793 460.212C153.108 478.308 152.759 497.632 144.867 514.864C158.923 519.164 171.8 526.153 186.637 530.769C184.577 509.884 191.123 491.091 195.593 471.152C183.165 468.247 170.487 462.403 157.81 460.229L157.793 460.212Z" fill="#67C3B0"/>
<path d="M48.4165 487.023C50.3605 486.891 51.7561 487.538 53.3346 488.551C59.2495 492.353 74.6517 506.148 77.4597 512.142C78.5064 514.399 78.9052 517.338 79.2375 519.811C88.1266 515.312 108.297 511.577 118.017 510.863C111.172 512.706 112.866 500.421 111.803 495.706C110.54 490.128 108.198 481.728 106.387 476.266C104.708 471.219 102.233 465.508 99.1257 461.175C77.0775 467.417 65.3473 470.754 48.4165 487.007V487.023Z" fill="#67C3B0"/>
<path d="M213.471 299.26C223.44 319.381 225.002 325.158 242.315 340.996C241.6 339.22 241.434 338.224 242.049 336.364C243.76 331.185 260.109 311.146 264.662 306.216C267.935 302.68 271.657 299.608 275.113 296.288C274.98 296.155 275.196 294.113 274.166 292.802C269.098 286.327 260.724 279.338 256.221 272.448C247.233 277.711 236.566 282.608 228.075 288.535C222.958 292.104 219.153 297.45 213.471 299.276V299.26Z" fill="#67C3B0"/>
<path d="M48.4163 487.023C33.4627 501.367 27.0493 515.379 22.5632 535.699C34.6922 534.653 45.7579 540.431 57.3718 542.655C60.8111 534.62 71.4282 523.763 79.2539 519.811C78.9216 517.338 78.5228 514.399 77.4761 512.141C74.6847 506.148 59.2659 492.352 53.3509 488.551C51.7559 487.521 50.3769 486.874 48.4329 487.023H48.4163Z" fill="#048D87"/>
<path d="M198.55 224.735V241.619C212.872 236.556 228.175 234.198 243.295 232.688C241.018 217.431 241.882 213.695 244.292 198.903C236.399 194.554 227.926 191.25 218.92 189.972C214.916 189.407 209.516 191.482 206.509 187.963C203.917 200.298 199.946 211.72 198.55 224.719V224.735Z" fill="#67C3B0"/>
<path d="M212.474 148.235C212.474 148.899 212.474 149.563 212.474 150.227L211.477 151.223C211.012 164.322 209.184 175.246 206.509 187.979C209.533 191.499 214.916 189.424 218.92 189.988C227.926 191.25 236.4 194.57 244.292 198.92C246.867 183.115 251.021 166.845 251.253 151.223C238.41 147.588 225.782 145.745 212.474 148.235Z" fill="#048D87"/>
<path d="M4.65199 297.268C-3.45617 320.709 -0.980509 342.606 12.1953 363.757C14.8537 368.023 30.6214 388.593 35.9881 379.744C39.2612 374.349 26.1851 355.854 23.8092 349.181C19.0573 335.883 20.1539 318.816 26.5341 306.216C20.1373 302.099 12.2949 298.064 4.65199 297.268Z" fill="#67C3B0"/>
<path d="M107.067 250.567C105.472 251.331 105.273 252.161 104.741 253.705C100.521 266.057 98.2448 279.77 90.1532 290.312C97.846 294.578 107.765 303.111 113.016 310.184C116.139 301.269 123.433 292.702 129.896 285.813C133.718 281.745 139.434 278.591 141.859 273.411C127.753 260.777 125.826 257.357 107.051 250.567H107.067Z" fill="#67C3B0"/>
<path d="M56.3582 248.575C56.6074 248.542 59.6479 249.605 61.2762 248.592C65.2638 259.731 64.4663 271.917 67.2909 283.339C75.4987 283.754 82.9589 286.311 90.1532 290.295C98.2448 279.753 100.521 266.04 104.741 253.688C105.256 252.161 105.456 251.331 107.067 250.551C105.007 249.804 103.429 248.11 99.9561 247.214C86.0161 243.645 69.8828 243.396 56.3582 248.559V248.575Z" fill="#048D87"/>
<path d="M210.48 122.403C211.427 129.658 212.574 141.346 212.474 148.235C225.783 145.729 238.41 147.571 251.254 151.224C251.453 138.374 250.755 130.654 248.263 118.436C235.137 117.523 222.908 117.257 210.48 122.403Z" fill="#67C3B0"/>
<path d="M56.3583 248.575C49.2803 249.455 34.5593 256.859 29.0431 261.524C26.6173 263.566 25.2548 266.787 24.5404 267.451L34.4596 277.91L41.4379 288.319C48.3166 284.003 59.3158 282.957 67.291 283.355C64.4665 271.934 65.264 259.748 61.2764 248.608C59.6481 249.604 56.6075 248.559 56.3583 248.592V248.575Z" fill="#67C3B0"/>
<path d="M205.512 100.539C207.971 106.582 209.633 115.862 210.48 122.403C222.908 117.257 235.137 117.522 248.263 118.436C245.239 103.561 243.527 99.2109 235.336 86.6436C225.949 88.8682 216.412 91.375 208.353 96.9365C206.924 97.9326 205.396 98.3809 205.512 100.556V100.539Z" fill="#048D87"/>
<path d="M203.518 56.8271C201.624 58.5371 202.903 61.708 202.305 64.0654C201.258 68.166 196.074 76.583 191.588 77.6953C195.327 82.1943 203.352 95.2432 205.512 100.539C205.412 98.3643 206.924 97.916 208.353 96.9199C216.411 91.3584 225.948 88.8516 235.336 86.627C225.384 71.3535 219.153 65.8916 203.518 56.8271Z" fill="#67C3B0"/>
<path d="M24.5404 267.468C24.125 267.866 21.4334 268.265 20.3202 269.427C12.8766 277.263 8.12468 287.19 4.65213 297.268C12.2785 298.064 20.1208 302.082 26.5342 306.216C27.7637 303.792 39.8595 289.332 41.4546 288.336L34.4762 277.927L24.557 267.468H24.5404Z" fill="#048D87"/>
<path d="M150.832 46.8994C154.337 51.7138 153.673 59.2011 153.822 64.7793C165.469 63.1025 171.767 64.5967 182.666 68.747C181.187 62.3056 183.048 53.706 188.631 49.8711C188.398 49.7715 187.169 47.8457 184.959 47.0986C170.321 42.1513 165.021 44.0107 150.848 46.8828L150.832 46.8994Z" fill="#67C3B0"/>
<path d="M136.908 69.7432C135.895 63.1523 127.969 61.4922 124.979 55.8311C118.316 59.1514 113.63 60.6621 107.549 65.7422C96.6 74.9062 87.0796 90.8438 110.59 82.6924C119.296 79.6709 128.252 73.3789 136.908 69.7432Z" fill="#67C3B0"/>
<path d="M124.978 55.8311C127.969 61.4922 135.895 63.1523 136.908 69.7432C143.238 67.0703 146.977 65.7588 153.806 64.7793C153.656 59.2012 154.321 51.7139 150.815 46.8994C138.104 49.4727 136.277 50.2197 124.962 55.8477L124.978 55.8311Z" fill="#048D87"/>
<path d="M188.614 49.8711C183.032 53.7061 181.171 62.3057 182.649 68.7471C183.065 70.54 189.811 75.5371 191.605 77.6953C196.091 76.583 201.292 68.166 202.322 64.0654C202.92 61.7246 201.641 58.5371 203.535 56.8271C196.889 52.959 195.559 52.6104 188.614 49.8711Z" fill="#048D87"/>
<path d="M505.813 483.055C505.88 482.79 506.744 482.375 506.81 482.059C507.873 476.282 508.588 470.09 507.325 464.163C506.062 458.236 499.317 449.288 495.396 458.22C491.724 466.587 497.256 479.47 505.83 483.055H505.813Z" fill="#048D87"/>
<path d="M416.308 455.232C423.319 452.675 427.755 447.113 430.414 440.025C434.667 428.619 427.207 427.507 420.76 435.343C416.457 440.572 412.735 448.525 415.327 455.232C415.61 455.115 416.025 455.331 416.324 455.232H416.308Z" fill="#048D87"/>
<path d="M589.337 479.088C589.62 479.204 590.052 478.972 590.334 479.088C589.154 471.335 587.692 464.063 580.88 459.216C575.646 455.497 572.008 458.286 574.533 464.578C576.859 470.389 583.605 476.764 589.337 479.088Z" fill="#048D87"/>
<path d="M615.19 420.468C615.622 420.484 616.752 419.438 617.184 419.472C615.855 416.716 614.443 413.163 611.585 411.652C608.395 409.959 601.117 407.734 601.167 413.03C601.217 418.326 611.07 420.269 615.19 420.468Z" fill="#048D87"/>
<path d="M123.982 510.88C124.181 510.88 126.241 511.66 127.953 511.876L123.982 510.88Z" fill="#67C3B0"/>
<path d="M142.873 514.848L141.876 513.852C141.876 513.852 142.109 514.632 142.873 514.848Z" fill="#67C3B0"/>
<path d="M211.477 151.224L212.474 150.228C212.474 150.228 211.51 150.51 211.477 151.224Z" fill="#67C3B0"/>
<path d="M512.36 293.698C501.394 280.716 480.774 284.418 474.095 299.858C462.099 327.615 503.703 345.047 515.616 318.501C519.604 309.603 518.623 301.119 512.343 293.698H512.36ZM497.107 297.484C511.446 299.841 507.757 321.772 493.468 320.095C479.179 318.418 481.821 294.96 497.107 297.484Z" fill="#FDF7E8"/>
<path d="M328.813 430.395C331.255 432.703 353.204 419.704 355.148 415.487C359.351 406.323 346.907 410.407 342.786 413.063C340.643 414.441 326.62 428.32 328.829 430.395H328.813Z" fill="#048D87"/>
<path d="M316.883 371.776C323.08 373.369 329.544 374.747 336.04 373.535C339.214 372.938 346.857 369.186 346.375 365.301C345.976 362.014 335.16 363.574 332.534 364.073C327.899 364.969 319.658 367.791 316.883 371.776Z" fill="#048D87"/>
<path d="M497.107 297.484C481.821 294.96 478.747 318.368 493.468 320.095C508.189 321.821 511.446 299.841 497.107 297.484Z" fill="#048D87"/>
</g>
</g>
<defs>
<clipPath id="clip0_504_11324">
<rect width="669" height="516" fill="white"/>
</clipPath>
<clipPath id="clip1_504_11324">
<rect width="859" height="850" fill="white" transform="matrix(-1 0 0 1 859 0)"/>
</clipPath>
</defs>
</svg>
