<svg width="669" height="516" viewBox="0 0 669 516" fill="none" xmlns="http://www.w3.org/2000/svg">
<g clip-path="url(#clip0_504_11432)">
<rect width="669" height="516" fill="#D9D9D9" fill-opacity="0.6"/>
<g clip-path="url(#clip1_504_11432)">
<path d="M141.966 120.035L147.127 129.008C167.922 155.846 237.577 169.211 269.984 170.62C316.771 172.656 385.715 163.339 412.559 120.355L413.506 120.887C409.423 139.947 400.108 157.763 394.663 176.574C392.497 176.136 392.841 177.557 392.367 178.942C381.419 210.325 381.253 259.204 386.189 291.712C386.414 293.156 386.627 294.648 387.81 295.654C387.846 296.222 387.799 296.802 387.81 297.371C387.81 297.465 387.077 297.844 387.136 299.194C387.219 301.502 388.094 305.847 389.527 307.646C389.55 307.93 389.491 308.226 389.527 308.498C390.9 320.597 393.385 332.968 396.652 344.688C397.054 346.132 396.865 347.47 398.948 347.055C398.96 347.339 398.924 347.635 398.948 347.908C399.516 353.898 398.912 353.329 401.516 359.9C402.522 362.445 403.813 364.777 404.085 367.606C376.933 366.174 339.058 367.571 315.931 383.529C300.343 394.278 295.963 411.005 308.143 426.726C305.562 426.276 306.391 427.945 306.533 429.603C308.001 446.117 308.794 464.608 305.338 480.897C301.858 497.281 292.78 513.144 287.56 529.079C267.995 588.743 276.197 650.171 308.32 703.727C314.132 713.422 321.529 721.685 327.849 730.883C324.997 730.789 319.458 732.458 316.274 732.588C281.642 734.044 250.916 716.121 225.054 694.895C184.611 661.713 150.417 606.796 137.681 556.105C140.439 553.027 137.433 549.57 136.912 547.025C132.758 526.888 130.805 503.52 131.16 483.005C131.231 478.873 133.089 474.007 132.616 469.959C132.414 468.23 130.391 468.964 130.828 467.011C131.657 454.309 133.255 442.719 135.113 430.171C138.818 430.775 136.013 426.833 135.965 425.885C135.953 425.601 135.965 425.317 135.965 425.033C138.131 425.507 137.764 423.944 138.108 422.5C141.41 408.318 143.635 393.769 147.103 379.622C149.257 370.814 152.689 362.019 154.441 353.105C154.702 351.79 155.542 349.6 153.956 348.784C154.311 347.363 154.465 345.871 154.808 344.498C156.95 345.126 157.471 340.734 157.814 339.36C158.726 335.691 158.016 332.234 158.24 330.79C158.288 330.506 158.193 330.21 158.24 329.937C160.773 330.458 159.744 328.671 160.182 327.215C166.076 307.622 169.556 283.958 170.23 263.975C170.349 260.566 170.183 257.109 170.23 253.7C172.822 254.173 171.875 252.386 171.947 250.74C172.728 230.852 171.793 209.247 165.946 190.295H165.093C165.058 189.738 165.058 189.134 165.093 188.578C165.839 177.498 153.352 147.168 148.215 135.638C147.553 134.146 147.659 132.773 145.387 132.891C143.978 128.689 142.7 124.427 141.966 120.035Z" fill="#3ABEB3"/>
<path d="M492.322 232.273C493.73 236.192 493.091 239.85 494.724 244.017C504.738 269.552 556.472 288.907 581.399 294.4C627.24 304.51 684.715 303.03 724.874 276.809L733.881 266.545C726.543 290.671 718.057 305.966 714.174 332.519C713.796 335.135 711.926 339.397 714.174 341.942C714.174 344.499 714.115 347.092 714.174 349.649C712.671 352.241 713.204 356.574 713.322 359.545C713.381 361.191 712.446 362.978 715.039 362.505C716.814 385.033 721.951 406.933 724.46 429.331C723.122 431.071 722.542 438.068 725.312 437.038C725.348 437.606 725.288 438.186 725.312 438.754C723.868 440.352 723.868 444.863 725.312 446.461C725.312 447.313 725.383 448.189 725.312 449.03C725.3 449.184 723.702 450.533 724.413 451.978L726.164 466.171C726.164 466.74 726.164 467.32 726.164 467.888C723.572 467.414 724.519 469.202 724.448 470.848C723.904 484.639 722.448 495.329 720.388 508.824C720.175 510.186 719.489 512.435 721.016 513.299C710.198 567.695 685.449 615.699 648.201 656.375C647.467 654.067 646.804 657.89 645.633 658.944C644.212 660.459 642.768 661.773 641.348 663.229L640.496 664.082C638.472 666.118 636.59 668.083 634.495 670.084L633.643 670.936C627.547 676.701 621.606 683.082 614.8 688.066C601.615 697.726 581.281 708.936 565.775 714.003C541.157 722.041 514.538 721.733 489.73 714.63C489.872 714.453 489.682 712.523 490.392 711.47C519.923 667.799 526.516 610.786 518.621 559.349C512.277 518.011 501.932 499.496 510.679 454.984C511.413 451.279 515.248 443.549 511.993 441.311C532.374 417.777 503.294 395.439 483.729 385.625C487.422 375.231 492.428 363.807 494.866 353.07C498.334 353.484 495.813 351.306 495.719 350.501C495.659 349.968 495.683 349.329 495.719 348.784C497.825 349.199 497.612 347.849 498.015 346.417C499.684 340.592 499.613 336.934 499.991 331.655C500.027 331.086 499.932 330.506 499.991 329.938C502.548 330.435 501.53 328.707 501.826 327.109C504.88 310.263 504.856 292.08 501.98 275.222C501.719 273.695 502.299 272.038 499.991 272.547C497.565 259.347 490.901 245.911 492.286 232.273H492.322Z" fill="#3ABEB3"/>
<path d="M272.173 65.2129C273.061 66.6335 275.428 66.0652 276.872 66.0889C284.009 66.1718 291.182 66.1599 298.307 66.0889C299.751 66.0771 302.118 66.6335 303.006 65.2129C332.525 66.0889 370.258 71.0136 396.391 85.3259C413.08 94.4649 417.566 101.97 413.506 120.9L412.559 120.367C385.715 163.351 316.771 172.668 269.984 170.632C237.565 169.223 167.91 155.858 147.127 129.02L141.966 120.047C139.327 104.48 146.984 96.9983 159.696 89.3627C189.925 71.2148 237.316 66.1008 272.173 65.2129ZM260.006 80.0224C238.808 81.0878 184.422 88.463 169.354 103.296C160.454 112.056 167.875 119.621 175.781 125.197C221.835 157.621 344.55 159.658 387.408 120.911C397.303 111.962 397.113 105.036 385.502 97.9217C357.061 80.5196 293.075 78.3532 260.006 80.0106V80.0224Z" fill="#7FCDC5"/>
<path d="M733.881 266.545L724.874 276.809C684.715 303.03 627.251 304.51 581.399 294.4C556.473 288.895 504.738 269.54 494.724 244.017C493.091 239.85 493.73 236.204 492.322 232.273C493.695 218.742 508.691 210.231 520.006 205.555C569.457 185.158 675.223 193.776 718.755 226.414C733.952 237.814 739.456 248.255 733.893 266.533L733.881 266.545ZM575.233 211.107C553.372 212.243 487.374 220.968 528.362 253.191C566.865 283.462 644.13 289.144 689.295 273.79C706.896 267.8 727.833 256.305 705.534 238.773C678.702 217.677 608.716 209.355 575.221 211.107H575.233Z" fill="#7FCDC5"/>
<path d="M404.085 367.642C430.148 369.015 460.235 373.834 483.753 385.636C503.317 395.462 532.398 417.789 512.017 441.323C492.712 463.614 441.534 468.657 413.944 467.023C384.757 465.283 326.784 450.817 308.143 426.762C295.964 411.053 300.343 394.314 315.931 383.564C339.07 367.607 376.933 366.21 404.085 367.642ZM384.236 384.985C369.713 385.08 330.217 388.193 323.423 403.062C318.428 413.989 330.039 421.991 338.419 426.916C373.951 447.846 436.302 454.238 475.16 440.873C490.274 435.676 507.484 425.353 489.315 410.508C468.094 393.165 411.317 384.796 384.248 384.985H384.236Z" fill="#7FCDC5"/>
<path d="M394.663 176.587C382.129 219.843 385.538 252.493 387.81 295.678C386.627 294.66 386.402 293.18 386.189 291.736C381.253 259.217 381.419 210.349 392.367 178.966C392.853 177.581 392.497 176.16 394.663 176.598V176.587Z" fill="#3ABEB3"/>
<path d="M130.829 467.035C130.379 468.988 132.415 468.255 132.616 469.983C133.089 474.032 131.231 478.897 131.16 483.029C130.805 503.544 132.758 526.913 136.912 547.049C137.433 549.594 140.439 553.051 137.682 556.129C130.178 526.261 128.84 497.554 130.829 467.035Z" fill="#3ABEB3"/>
<path d="M170.23 263.976C169.556 283.97 166.076 307.623 160.182 327.215C159.744 328.671 160.773 330.459 158.24 329.938C159.602 321.403 162.501 312.311 163.969 303.539C166.171 290.363 167.721 277.01 170.23 263.964V263.976Z" fill="#3ABEB3"/>
<path d="M165.946 190.295C171.781 209.236 172.728 230.852 171.947 250.74C171.876 252.386 172.822 254.174 170.23 253.7C170.396 242.655 171.154 231.788 170.23 220.719C169.437 211.26 166.431 201.091 165.958 192.011C165.934 191.443 165.981 190.863 165.958 190.295H165.946Z" fill="#24A29C"/>
<path d="M500.027 272.546C502.323 272.037 501.755 273.694 502.015 275.221C504.891 292.079 504.927 310.262 501.861 327.108C501.566 328.706 502.583 330.446 500.027 329.937C502.11 308.64 504.016 294.186 500.027 272.534V272.546Z" fill="#24A29C"/>
<path d="M147.103 379.646C143.635 393.793 141.41 408.342 138.108 422.524C137.776 423.968 138.131 425.531 135.965 425.058C136.001 413.871 143.422 391.485 146.239 379.646H147.091H147.103Z" fill="#24A29C"/>
<path d="M398.948 347.079C396.853 347.494 397.042 346.156 396.652 344.712C393.397 332.992 390.911 320.621 389.527 308.522C391.03 309.375 390.947 310.914 391.278 312.346C393.196 320.526 398.593 340 398.948 347.079Z" fill="#3ABEB3"/>
<path d="M165.094 188.579C161.105 169.128 151.601 151.336 145.387 132.892C147.659 132.774 147.553 134.147 148.216 135.638C153.352 147.169 165.839 177.498 165.094 188.579Z" fill="#3ABEB3"/>
<path d="M147.103 379.646H146.251C148.713 369.323 151.388 359.083 153.956 348.808C155.542 349.636 154.702 351.826 154.441 353.129C152.689 362.043 149.269 370.838 147.103 379.646Z" fill="#3ABEB3"/>
<path d="M500.027 331.666C499.648 336.958 499.719 340.604 498.05 346.428C497.636 347.861 497.849 349.222 495.754 348.796C496.038 344.333 499.175 336.472 500.039 331.666H500.027Z" fill="#24A29C"/>
<path d="M303.006 65.2128C302.118 66.6333 299.751 66.0651 298.307 66.0888C291.17 66.1598 283.997 66.1717 276.872 66.0888C275.428 66.0651 273.061 66.6333 272.173 65.2128C282.21 64.9523 292.981 64.9168 303.006 65.2128Z" fill="#4AC0B6"/>
<path d="M158.241 330.802C158.016 332.246 158.726 335.703 157.814 339.373C157.471 340.746 156.962 345.15 154.808 344.51C155.944 339.953 157.104 335.359 158.229 330.802H158.241Z" fill="#3ABEB3"/>
<path d="M401.516 359.935C398.912 353.365 399.516 353.933 398.948 347.943L401.516 359.935Z" fill="#3ABEB3"/>
<path d="M389.527 307.67C388.094 305.871 387.219 301.526 387.136 299.218C387.088 297.856 387.822 297.489 387.81 297.395C388.414 297.868 388.805 298.507 388.982 299.253C389.633 301.893 389.278 305.338 389.515 307.682L389.527 307.67Z" fill="#3ABEB3"/>
<path d="M135.965 425.909C136.013 426.856 138.806 430.798 135.113 430.195C135.326 428.738 135.48 427.306 135.965 425.909Z" fill="#24A29C"/>
<path d="M495.742 350.513C495.825 351.318 498.358 353.496 494.89 353.082C495.08 352.229 494.523 350.986 495.742 350.513Z" fill="#24A29C"/>
<path d="M165.946 192.011C165.117 191.751 165.141 191.029 165.094 190.295H165.946C165.969 190.863 165.922 191.443 165.946 192.011Z" fill="#3ABEB3"/>
<path d="M308.143 426.762C326.784 450.817 384.757 465.283 413.944 467.024C441.534 468.669 492.712 463.626 512.017 441.323C515.272 443.572 511.425 451.291 510.703 454.996C501.956 499.496 512.289 518.022 518.645 559.361C526.539 610.798 519.947 667.81 490.416 711.481C489.706 712.535 489.895 714.453 489.753 714.642C474.722 733.358 448.683 755.401 424.833 762.373C389.089 772.826 361.973 758.964 335.152 736.886C333.093 735.193 330.323 730.99 327.85 730.908C321.529 721.721 314.132 713.446 308.32 703.751C276.198 650.195 268.007 588.767 287.56 529.103C292.792 513.157 301.858 497.306 305.338 480.922C308.806 464.632 308.013 446.141 306.533 429.627C306.391 427.97 305.562 426.3 308.143 426.75V426.762Z" fill="#4AC0B6"/>
<path d="M260.006 80.0222C293.076 78.3649 357.061 80.5313 385.502 97.9333C397.114 105.036 397.303 111.973 387.408 120.923C344.55 159.657 221.835 157.633 175.781 125.208C167.875 119.644 160.454 112.068 169.355 103.308C184.422 88.4746 238.808 81.0995 260.006 80.034V80.0222Z" fill="#24A29C"/>
<path d="M575.233 211.107C608.728 209.355 678.714 217.677 705.546 238.772C727.845 256.305 706.907 267.8 689.307 273.79C644.141 289.156 566.864 283.461 528.374 253.191C487.386 220.956 553.371 212.243 575.244 211.107H575.233Z" fill="#24A29C"/>
<path d="M384.236 384.985C411.305 384.795 468.082 393.165 489.304 410.508C507.472 425.353 490.262 435.664 475.148 440.872C436.29 454.25 373.939 447.845 338.407 426.915C330.027 421.979 318.428 413.988 323.411 403.061C330.205 388.205 369.701 385.091 384.224 384.985H384.236Z" fill="#24A29C"/>
</g>
</g>
<defs>
<clipPath id="clip0_504_11432">
<rect width="669" height="516" fill="white"/>
</clipPath>
<clipPath id="clip1_504_11432">
<rect width="606" height="751" fill="white" transform="translate(130 65)"/>
</clipPath>
</defs>
</svg>
