<svg width="669" height="516" viewBox="0 0 669 516" fill="none" xmlns="http://www.w3.org/2000/svg">
<g clip-path="url(#clip0_504_11393)">
<rect width="669" height="516" fill="#D9D9D9" fill-opacity="0.6"/>
<g clip-path="url(#clip1_504_11393)">
<path d="M215.883 423.437C190.616 382.353 143.901 340.114 91.5231 355.086C79.44 358.534 67.0385 368.719 54.9686 362.288C39.8746 354.224 57.1306 339.849 66.1233 335.101C132.667 299.944 190.735 334.04 232.489 387.153L242.158 396.41C233.974 375.549 219.769 355.073 204.702 338.483C159.234 288.353 103.752 277.943 83.4191 203.333C79.9838 190.707 73.7101 162.102 95.0247 164.701C108.408 166.332 113.713 193.93 117.785 204.513C137.309 255.252 169.46 261.087 207.765 291.417C232.913 311.323 254.785 335.698 270.874 363.481C274.296 369.383 277.015 376.013 280.41 381.782C280.994 382.777 280.278 383.732 282.334 383.294C278.089 358.667 271.391 335.154 260.846 312.49C241.574 271.087 210.538 236.368 193.693 193.492C181.079 161.373 173.373 121.68 179.819 87.3323C181.477 78.4868 188.401 61.4853 200.086 70.4767C208.296 76.8025 206.572 109.161 207.407 119.532C213.031 189.235 256.894 230.559 290.849 286.351C309.298 316.654 308.582 333.231 314.007 366.704C314.193 367.857 314.047 369.091 315.546 369.396C319.114 351.983 319.525 332.714 318.676 314.917C314.962 236.394 264.971 171.664 269.985 91.7485C270.993 75.5957 277.413 39.5238 291.658 30.0019C297.189 26.3019 305.558 28.994 306.871 35.5321C308.914 45.6242 302.919 60.6232 301.088 71.1133C298.661 84.9983 298.104 97.7295 299.324 111.813C303.29 157.421 328.968 191.755 342.007 234.418C354.156 274.15 356.106 314.134 356.093 355.498C358.533 349.079 360.178 342.17 361.531 335.446C367.3 306.88 369.157 273.752 367.287 244.669C365.788 221.501 361.239 198.373 360.31 175.178C358.573 131.772 366.345 68.1957 393.231 32.7073C398.828 25.3205 418.246 7.6692 421.19 26.2754C422.636 35.3729 410.792 51.3135 406.799 60.1856C377.964 124.226 404.133 181.782 407.489 246.181C408.855 272.333 406.202 301.363 400.897 326.932C398.854 336.799 396.082 346.533 393.549 356.267C395.605 356.691 394.875 355.75 395.472 354.742C438.446 281.709 432.65 188.891 472.215 114.771C483.543 93.5521 504.433 61.6179 527.445 52.5866C531.796 50.8759 533.255 49.7354 537.764 51.8307C547.5 56.3397 543.534 64.2702 538.971 71.0602C528.639 86.3908 517.285 98.4722 507.762 115.54C468.369 186.172 479.245 270.145 441.59 341.334L426.018 367.075C427.464 367.407 427.849 366.253 428.724 365.537C432.345 362.54 436.072 357.964 439.136 354.317C469.616 317.967 496.886 280.304 519.62 238.622C540.072 201.131 555.909 163.295 585.527 131.507C595.713 120.566 622.784 96.8277 637.387 95.3159C645.505 94.4672 653.954 95.6209 651.221 106.058C648.94 114.758 622.121 137.143 614.494 145.021C573.828 186.941 558.973 253.17 528.321 303.697C508.319 336.666 490.652 352.779 463.475 378.666C462.785 379.329 459.204 382.498 460.026 383.321C480.253 372.539 500.295 358.786 518.638 345.008C567.979 307.941 597.039 254.815 647.481 220.493C660.453 211.661 685.614 197.259 701.411 198.731C712.433 199.752 722.076 208.796 711.438 218.013C700.801 227.23 681.993 234.736 669.578 243.343C639.165 264.429 621.763 290.144 599.374 318.351C579.067 343.933 548.017 371.677 519.248 387.299C512.577 390.92 504.924 393.346 498.61 396.781C497.748 397.245 496.514 397.643 496.329 398.744C514.155 396.834 531.398 387.22 547.062 378.798C580.314 360.908 607.518 341.162 647.322 339.239C673.663 337.979 721.319 351.439 735.352 375.629C746.746 395.269 729.57 398.744 714.131 391.437C703.613 386.464 696.424 379.541 684.367 376.398C628.156 361.77 571.162 412.709 524.62 436.726C523.519 437.296 522.193 437.057 522.591 438.9C521.689 438.649 520.429 438.901 519.567 439.325C446.166 486.245 312.614 504.718 240.726 447.706C235.301 443.396 218.933 428.357 215.923 423.451L215.883 423.437ZM348.585 393.532C337.192 394.633 306.473 403.717 319.419 419.936C331.515 435.094 373.574 433.808 390.299 428.291C403.775 423.835 417.171 411.966 399.969 401.197C386.678 392.882 363.905 392.073 348.599 393.545L348.585 393.532Z" fill="#76CBC4"/>
<path d="M215.883 423.438C218.894 428.331 235.248 443.383 240.686 447.693C312.588 504.705 446.126 486.232 519.527 439.312C520.389 438.901 521.649 438.635 522.551 438.887C523.174 439.06 529.939 444.471 531.053 445.439C580.102 487.969 617.306 578.639 569.292 634.299C514.036 698.366 377.314 702.981 299.789 692.889C211.705 681.418 110.212 635.015 138.078 527.542C148.703 486.537 178.002 443.383 215.883 423.438Z" fill="#07A79E"/>
<path d="M348.585 393.532C363.892 392.06 386.678 392.869 399.955 401.184C417.158 411.953 403.762 423.835 390.286 428.278C373.561 433.808 331.502 435.081 319.405 419.923C306.46 403.717 337.192 394.62 348.572 393.519L348.585 393.532Z" fill="#07A79E"/>
</g>
</g>
<defs>
<clipPath id="clip0_504_11393">
<rect width="669" height="516" fill="white"/>
</clipPath>
<clipPath id="clip1_504_11393">
<rect width="690" height="679" fill="white" transform="translate(49 18)"/>
</clipPath>
</defs>
</svg>
