<svg width="693" height="516" viewBox="0 0 693 516" fill="none" xmlns="http://www.w3.org/2000/svg">
<g clip-path="url(#clip0_452_493)">
<rect width="693" height="516" fill="#B6DFDB"/>
<g clip-path="url(#clip1_452_493)">
<path d="M278.601 403.065C286.909 411.362 300.477 419.208 309.237 429.362C329.838 453.254 344.116 498.988 350.795 529.708C355.038 549.241 359.119 569.856 358.845 589.809C358.216 590.181 356.829 592.602 354.651 593.926C350.892 596.218 342.858 596.735 346.697 600.98C399.597 577.089 447.414 539.814 501.653 518.828C598.159 481.488 628.424 527.981 600.563 619.674C583.059 677.289 554.133 713.014 510.042 752.291C476.566 782.107 439.429 771.049 401.775 755.116C399.823 754.293 395.531 750.289 394.321 754.163C387.658 750.886 373.01 742.621 382.367 755.842L403.646 759.765C444.51 785.74 492.941 842.773 465.58 893.641C437.896 945.105 372.848 899.888 348.536 868.135C340.309 857.383 337.034 841.934 327.128 832.603L335.953 858.303C342.261 893.512 327.951 938.39 296.476 890.331C268.76 848.004 263 780.671 271.115 731.74C256.305 732.887 241.737 728.302 227.782 723.733C178.384 707.526 151.2 682.81 109.319 657.369C97.4775 650.169 61.2754 637.335 57.1616 625.244C55.758 621.143 57.9682 621.063 58.3231 619.69C71.31 621.66 84.6357 624.566 97.1548 628.456C102.721 630.184 118.224 639.127 122.322 638.126C127.049 636.964 129.275 630.297 125.516 626.212C119.354 619.513 90.3952 610.683 80.7155 610.36C69.3418 600.867 44.4973 590.116 62.0498 573.004C60.9205 578.913 65.0021 576.071 68.3093 576.927C97.8808 584.579 116.014 593.732 141.052 610.683C145.36 613.604 157.524 628.876 160.718 616.51C163.477 605.823 124.742 584.079 115.95 579.768C105.867 574.828 95.6222 570.938 84.7487 567.935C81.5382 567.047 77.7148 569.114 78.8441 563.674C124.564 517.843 165.3 486.977 216.957 447.878C268.695 496.082 336.646 572.956 284.102 644.874C271.68 661.873 258.693 667.087 243.996 679.453C241.221 681.793 236.397 686.62 241.156 689.784C253.562 698.066 289.942 664.811 298.17 655.206C357.054 586.419 315.287 515.373 263.678 460.018C255.514 451.252 245.625 440.872 239.349 431.057C240.737 430.008 242.463 426.392 244.899 424.503C255.127 416.609 266.098 406.891 278.536 403.049L278.601 403.065ZM207.164 481.94C175.609 487.768 177.625 540.04 208.729 544.867C254.53 551.97 254.579 473.175 207.164 481.94ZM362.911 603.192C358.587 610.247 364.524 614.815 372.397 613.717C390.804 611.118 446.43 582.222 468.532 573.505C502.024 560.283 536.032 548.224 570.298 537.134C576.348 534.906 579.639 527.287 573.508 523.428C570.185 521.346 526.917 536.02 519.463 538.571C474.727 553.826 434.589 572.601 391.853 592.053C387.433 594.071 363.717 601.901 362.911 603.224V603.192ZM216.231 660.032C212.44 663.648 199.146 668.072 204.728 675.869C210.956 684.538 230.509 666.021 234.606 660.678C251.836 638.158 256.579 605.791 247.367 579.042C245.319 573.101 243.56 566.143 235.639 570.179C227.718 574.215 237.333 602.062 237.139 611.296C236.752 628.359 228.524 648.296 216.231 660.032ZM573.121 579.171C519.705 584.046 441.768 601.723 389.046 615.364C384.303 616.591 373.736 618.754 370.17 620.74C361.862 625.341 368.573 634.429 376.365 632.75C405.227 626.196 433.976 618.641 462.982 612.781C497.797 605.759 542.695 601.901 575.444 592.699C591.9 588.082 592.981 577.363 573.121 579.171ZM362.572 636.528C361.975 637.125 362.669 642.372 363.508 644.002C366.089 649.071 392.046 650.798 399 651.444C409.083 652.38 422.296 653.042 432.524 653.414C475.889 654.947 519.722 653.091 562.957 651.17C567.2 649.798 567.152 644.067 564.216 641.129C558.037 634.962 544.502 640.16 537.193 640.322C500.782 641.08 461.305 641.565 425.022 640.305C415.471 639.966 365.734 633.444 362.588 636.528H362.572ZM355.409 653.591C346.697 659.128 365.411 669.46 369.461 671.672C403.775 690.333 453.964 701.714 492.586 707.219C498.959 708.123 540.017 717.195 529.74 701.779C485.326 689.671 437.283 687.896 394.353 669.169C386.755 665.86 362.62 648.99 355.409 653.591ZM369.283 695.208C364.379 691.592 348.214 676.66 344.455 676.079C337.405 674.981 333.839 680.131 336.969 686.523C338.163 688.945 361.588 706.154 365.734 709.027C389.691 725.638 431.394 749.175 459.595 755.18C466.806 756.714 478.002 760.75 481.939 753.033C483.052 746.431 455.255 741.523 449.334 739.279C423.151 729.351 391.708 711.755 369.267 695.192L369.283 695.208ZM327.128 877.449C329.967 874.672 317.642 848.763 315.9 842.935C311.35 827.712 307.43 804.482 306.543 788.629C305.688 773.309 315.722 741.475 291.668 742.976C291.12 780.816 292.475 826.291 309.011 861.031C312.641 868.667 317.335 880.694 327.144 877.449H327.128ZM427.716 892.204C436.767 886.764 406.259 869.313 401.758 865.326C360.346 828.713 357.909 789.356 330.548 749.837C327.628 745.624 323.466 740.91 318.255 745.301C313.044 749.692 324.111 770.016 326.789 775.989C339.486 804.288 354.893 834.799 375.591 857.884C383.044 866.197 416.52 898.936 427.7 892.204H427.716ZM376.736 790.453C389.74 806.177 401.516 819.737 417.682 832.587C424.086 837.672 444.397 852.734 450.851 855.446C460.433 859.482 461.821 851.539 457.901 844.63C431.185 827.631 407.486 807.032 386.9 783.076C381.367 776.651 366.315 753.211 361.781 750.321C354.312 745.543 349.972 750.16 352.134 757.925C354.102 765.06 371.138 783.673 376.736 790.437V790.453Z" fill="#6BC2AF"/>
<path d="M601.499 395.59C629.409 377.575 653.785 354.005 683.066 338.072C700.877 328.37 714.558 317.925 729.238 337.814C751.679 368.211 767.344 453.399 749.34 486.557C739.225 505.187 710.847 513.436 691.1 515.147C696.053 518.327 701.764 533.486 704.168 535.665C687.874 570.018 680.679 610.263 673.258 647.634C672.693 650.492 670.87 655.254 674.306 657.062C670.273 658.709 665.707 663.842 661.255 665.456C715.058 690.64 707.717 742.363 676.968 783.915C648.768 822.013 607.904 838.835 573.573 796.168C557.972 776.78 555.246 754.389 543.663 733.645C567.959 715.839 593.4 669.202 603.048 640.854L610.856 627.181C606.274 657.675 600.692 674.836 592.19 703.748C591.335 706.67 588.044 708.236 588.818 713.612C589.415 717.793 599.224 733.064 602.225 737.617C612.679 753.534 626.634 768.644 637.798 784.19C642.234 787.79 649.204 786.434 647.929 779.799L602.37 716.889C598.208 715.517 596.82 710.351 595.933 709.35C599.16 704.588 613.566 702.57 614.599 701.875C629.909 717.357 642.234 737.891 657.528 753.227C665.062 760.782 670.37 755.971 667.805 746.737L622.068 696.274C622.81 695.644 633.942 682.358 634.248 681.422L653.898 572.181C664.61 545.464 684.405 525.43 677.258 494.758C676.887 493.144 678.243 490.916 678.065 490.835L729.206 471.98C734.111 469.462 731.465 465.248 730.206 461.035L670.596 483.377C666.724 477.582 661.884 471.415 655.657 468.429L724.592 428.151C734.159 423.082 730.142 411.072 720.301 416.318L651.898 456.257C647.461 461.1 652.011 464.28 651.93 466.556C650.768 497.664 646.558 518.763 631.425 545.948C629.392 549.597 624.714 559.525 620.197 559.928C620.132 554.456 617.39 539.507 615.47 533.841C614.082 529.724 604.257 513.936 601.531 511.369C611.985 480.181 627.618 453.641 618.325 419.854C622.31 420.548 624.698 419.272 627.957 417.368C639.524 410.571 653.898 396.091 665.175 387.373C677.694 377.704 691.068 368.97 703.926 359.801C704.039 350.777 702.006 348.646 693.504 352.23C682.566 356.847 645.896 385.598 635.103 394.638C628.57 400.11 618.229 408.892 614.599 416.141C608.226 409.651 605.597 401.063 601.531 395.59H601.499ZM714.816 379.06C695.456 392.459 672.967 405.292 654.721 419.918C651.704 422.34 638.83 432.817 637.894 434.851C633.99 443.342 639.346 445.554 646.897 441.97C669.741 431.138 693.456 402.774 717.284 391.006C722.559 387.567 722.963 377.736 714.816 379.06ZM656.286 691.899C650.139 686.41 649.817 678.339 636.975 681.357C631.925 685.813 666.433 716.647 670.483 719.714C675.726 723.669 680.808 723.362 679.969 715.969C679.227 709.398 661.642 696.677 656.286 691.899ZM570.734 728.044C567.233 729.012 568.201 732.967 568.685 735.566C571.04 748.223 599.853 794.489 611.356 799.493C616.841 801.883 618.471 800.559 622.004 796.216C601.838 778.41 589.851 754.067 577.316 730.772C575.832 728.754 573.186 727.366 570.75 728.044H570.734Z" fill="#6BC2AF"/>
<path d="M495.119 249.914C487.069 280.344 478.309 321.461 480.18 352.633C481.003 366.307 500.911 390.328 497.136 409.587L470.855 524.462C463.741 527.997 452.367 532.436 446.592 535.665C442.155 528.627 446.398 521.427 446.672 514.259C447.672 487.623 448.979 449.041 441.558 423.97C435.17 402.387 414.116 364.676 390.595 361.964L396.354 357.412C396.66 326.481 394.725 295.728 394.337 264.846C394.337 264.637 396.225 264.378 396.209 261.117H420.473C421.118 273.467 422.828 290.514 424.441 302.912C426.797 320.944 431.152 338.766 435.428 356.379C437.283 354.748 446.35 355.022 446.592 354.522C447.156 353.376 446.35 347.693 447.043 344.675C454.497 312.598 460.256 280.231 467.129 248.058C476.905 245.668 485.407 250.059 495.119 249.93V249.914Z" fill="#6BC2AF"/>
<path d="M558.569 270.464C547.97 289.949 531.692 322.607 524.077 343.335C515.93 365.516 527.481 363.078 539.952 349.889C555.246 333.713 571.572 309.934 584.705 292.871C592.545 293.355 599.805 300.604 605.242 305.947C604.79 306.48 604.774 308.982 603.451 310.613C587.576 329.968 572.331 349.873 556.714 369.422C565.91 372.086 572.282 371.198 580.51 366.177C591.932 359.204 622.81 326.756 635.103 315.278C640.734 319.766 647.026 323.414 650.042 330.227C630.699 348.226 611.792 371.101 592.174 389.989C591.626 390.521 587.431 389.989 586.786 392.894C595.788 427.215 585.527 465.668 569.766 496.453C552.649 494.112 528.143 500.15 511.897 505.784C511.332 501.893 512.123 498.762 513.349 495.113C523.126 465.991 540.823 435.981 537.79 404.211C535.741 382.805 521.383 356.96 497.797 354.361C493.086 353.844 488.214 352.682 487.617 352.617C502.766 322.219 517.156 291.45 532.418 261.101C541.759 261.925 550.6 265.654 558.553 270.432L558.569 270.464Z" fill="#6BC2AF"/>
<path d="M304.736 298.473C311.673 312.905 338.034 361.383 349.537 367.582C384.787 386.599 400.613 409.199 406.889 449.331C412.438 484.846 412.261 524.3 409.26 559.961C402.533 564.029 393.95 568 388.723 571.164C387.142 552.858 384.819 534.551 380.705 516.616C372.51 480.972 358.264 431.961 334.533 404.066C331.355 400.337 315.738 384.548 312.189 384.403C314.319 380.561 312.125 375.573 310.673 371.908C302.961 352.52 289.49 330.404 280.472 309.692C287.587 305.753 296.234 298.909 304.736 298.489V298.473Z" fill="#6BC2AF"/>
<path d="M353.263 262.99C357.603 283.024 365.298 307.594 372.397 326.949C374.946 333.923 383.044 356.249 386.707 360.818C388.271 362.771 388.82 361.77 390.578 361.98C414.1 364.692 435.153 402.403 441.542 423.986C448.963 449.057 447.656 487.639 446.656 514.275C446.382 521.443 442.139 528.643 446.575 535.681C435.315 541.977 421.392 552.632 409.244 559.961C412.261 524.3 412.438 484.862 406.873 449.331C400.597 409.199 384.754 386.615 349.52 367.582L355.167 361.221C345.584 334.488 338.002 307.255 330.855 279.795L328.983 276.066C328.709 274.984 329.258 273.419 328.983 272.337C336.501 268.947 348.198 269.802 353.247 263.006L353.263 262.99Z" fill="#2CAB90"/>
<path d="M312.189 384.387C315.738 384.532 331.355 400.32 334.533 404.049C358.264 431.945 372.51 480.956 380.705 516.6C384.819 534.535 387.142 552.841 388.723 571.148C379.786 576.588 369.186 583.788 358.861 589.825C359.136 569.856 355.054 549.241 350.811 529.724C344.132 499.004 329.854 453.27 309.253 429.378C300.493 419.224 286.925 411.378 278.617 403.081C264.597 389.085 250.287 367.517 239.414 350.793L259.951 335.844C264.775 343.012 300.428 385.63 305.784 386.308C308.559 386.663 311.334 384.371 312.221 384.403L312.189 384.387Z" fill="#2CAB90"/>
<path d="M239.398 431.073C245.673 440.888 255.563 451.268 263.726 460.034C315.335 515.373 357.087 586.419 298.218 655.222C289.99 664.827 253.611 698.082 241.205 689.8C236.462 686.636 241.269 681.81 244.044 679.469C258.741 667.103 271.728 661.889 284.15 644.89C336.679 572.972 268.727 496.098 217.005 447.894C224.427 442.277 231.993 436.707 239.398 431.089V431.073Z" fill="#2CAB90"/>
<path d="M487.65 352.633C488.246 352.698 493.119 353.86 497.829 354.377C521.416 356.96 535.774 382.821 537.823 404.227C540.856 435.997 523.158 466.007 513.381 495.129C512.155 498.778 511.365 501.91 511.929 505.8C498.652 510.417 483.584 518.15 470.871 524.478L497.152 409.603C500.943 390.36 481.019 366.323 480.196 352.649C481.293 356.798 486.456 352.52 487.666 352.649L487.65 352.633Z" fill="#2CAB90"/>
<path d="M569.766 496.453C575.848 497.293 596.998 507.188 601.499 511.402C604.241 513.969 614.066 529.757 615.438 533.873C617.341 539.539 620.1 554.504 620.164 559.961C620.374 578.073 613.679 608.245 610.84 627.197L603.031 640.87C593.384 669.218 567.943 715.856 543.647 733.661C543.146 734.033 539.952 733.355 538.226 734.695C530.047 740.991 519.98 750.757 510.058 752.339C554.133 713.063 583.059 677.338 600.579 619.723C628.441 528.045 598.175 481.537 501.669 518.876C447.447 539.862 399.629 577.137 346.713 601.029C342.89 596.767 350.924 596.25 354.667 593.974C356.845 592.651 358.248 590.229 358.861 589.858C369.186 583.82 379.786 576.62 388.723 571.18C393.934 568 402.517 564.045 409.26 559.977C421.408 552.648 435.331 541.993 446.592 535.697C452.383 532.469 463.741 528.029 470.855 524.494C483.568 518.166 498.636 510.433 511.913 505.816C528.159 500.182 552.665 494.129 569.782 496.485L569.766 496.453Z" fill="#A0D6C8"/>
<path d="M592.174 389.989C594.239 392.394 599.934 393.476 601.499 395.59C605.564 401.063 608.194 409.635 614.566 416.141C615.841 417.432 616.405 413.009 618.293 419.87C627.586 453.658 611.953 480.197 601.499 511.386C597.014 507.172 575.848 497.276 569.766 496.437C585.511 465.668 595.788 427.199 586.786 392.878C587.431 389.973 591.625 390.505 592.174 389.973V389.989Z" fill="#43B398"/>
<path d="M342.067 177.076C332.339 180.853 320.836 177.011 312.205 184.55C309.398 160.497 304.429 135.41 313.189 111.76C320.852 91.0971 333.791 107.337 337.808 120.639C343.519 139.559 340.696 158.221 342.067 177.076Z" fill="#6BC2AF"/>
<path d="M627.634 164C618.487 160.739 610.759 153.281 603.37 147.195C614.889 132.94 625.392 116.7 641.67 106.143C664.514 91.307 674.839 98.3938 660.868 123.48C652.204 139.026 637.249 151.021 627.65 164H627.634Z" fill="#6BC2AF"/>
<path d="M539.904 121.043L511.913 111.712C519.722 96.2629 535.37 61.9425 551.664 55.2592C556.972 53.0798 559.553 53.3058 561.506 59.3434C564.361 68.1415 549.922 102.397 545.857 112.971C544.308 116.991 540.097 120.575 539.92 121.043H539.904Z" fill="#6BC2AF"/>
<path d="M539.904 121.043C533.806 136.605 527.159 153.7 521.238 169.602C513.978 162.499 493.135 164.839 493.248 152.796C499.072 137.46 504.621 126.128 511.913 111.712L539.904 121.043Z" fill="#2CAB90"/>
<path d="M687.358 218.16L666.82 197.61C675.274 190.329 711.428 155.912 722.817 162.983C729.093 166.873 725.189 175.123 722.85 179.917C715.219 195.495 698.521 206.779 687.358 218.16Z" fill="#6BC2AF"/>
<path d="M480.18 192.024C486.31 194.204 492.344 196.771 498.442 199.047C503.831 201.049 507.396 196.593 508.187 206.973C503.734 220.727 498.797 236.047 495.119 249.93C485.407 250.059 476.905 245.668 467.129 248.058C471.323 228.395 474.517 211.542 480.196 192.024H480.18Z" fill="#2CAB90"/>
<path d="M603.37 147.195C610.759 153.297 618.487 160.755 627.634 164C618.777 175.962 605.629 193.316 597.772 205.084C594.788 195.221 578.122 197.19 573.508 188.279C584.204 171.894 591.222 162.224 603.37 147.195Z" fill="#2CAB90"/>
<path d="M429.781 122.915C429.668 124.142 429.894 125.418 429.781 126.644L427.91 130.374C426.603 144.031 425.441 157.801 424.183 171.458C412.793 169.472 404.162 167.503 392.45 169.585C393.611 152.377 394.612 136.25 398.048 119.154C409.357 117.976 419.037 120.171 429.781 122.883V122.915Z" fill="#2CAB90"/>
<path d="M668.692 283.54C682.163 271.82 694.585 258.938 711.057 250.285C736.74 236.79 741.048 248.736 724.027 267.93C713.493 279.811 696.473 288.771 685.486 298.473C676.742 299.086 673.742 289.045 668.692 283.524V283.54Z" fill="#6BC2AF"/>
<path d="M287.925 255.516C278.536 253.885 270.486 263.926 261.79 261.117C260.274 256.484 256.612 251.157 254.853 244.716C250.384 228.347 242.624 202.953 257.337 190.249C272.26 197.707 272.712 218.548 278.052 232.705C280.94 240.373 284.941 247.928 287.925 255.516Z" fill="#6BC2AF"/>
<path d="M687.358 218.16C676.145 229.574 663.287 241.778 651.898 253.643L629.505 234.965C643.105 219.597 650.914 211.348 666.837 197.61L687.374 218.16H687.358Z" fill="#2CAB90"/>
<path d="M259.935 335.828L239.398 350.777C228.847 334.553 211.972 312.921 215.263 292.064C217.877 275.485 229.331 286.382 235.623 293.856C246.045 306.222 251.385 323.14 259.919 335.844L259.935 335.828Z" fill="#6BC2AF"/>
<path d="M347.665 227.507C337.663 226.749 329.016 227.766 319.675 231.236C316.755 215.513 314.077 200.5 312.205 184.55C320.836 177.027 332.339 180.853 342.067 177.076C343.293 194.107 345.132 210.654 347.665 227.507Z" fill="#2CAB90"/>
<path d="M554.843 218.16L580.978 233.109C574.202 244.102 564.393 259.778 558.585 270.464C550.648 265.686 541.791 261.941 532.45 261.134C540.097 245.911 546.244 233.141 554.843 218.176V218.16Z" fill="#2CAB90"/>
<path d="M424.183 171.474C422.957 184.808 420.94 199.273 420.456 212.559C410.68 207.587 401.742 215.594 392.482 210.702C392.369 211.929 392.563 213.204 392.466 214.431C391.74 223.149 392.401 233.496 392.466 242.44C389.368 240.503 390.611 235.353 390.562 232.189C390.304 210.88 391.046 190.765 392.466 169.602C404.178 167.519 412.793 169.489 424.199 171.474H424.183Z" fill="#6BC2AF"/>
<path d="M287.925 255.516C293.507 269.689 298.121 284.735 304.72 298.473C296.218 298.893 287.57 305.737 280.456 309.676C272.68 291.822 267.904 279.714 261.79 261.117C270.486 263.926 278.536 253.869 287.925 255.516Z" fill="#2CAB90"/>
<path d="M429.781 122.915C419.037 120.187 409.357 118.008 398.048 119.186C400.016 109.371 410.857 66.8984 423.247 66.8177C437.315 66.7208 430.555 113.762 429.781 122.915Z" fill="#6BC2AF"/>
<path d="M420.456 212.559C419.892 227.862 419.666 245.894 420.456 261.117H396.193C396.112 247.88 394.37 235.272 394.644 221.098C394.708 218.225 397.29 215.836 392.45 214.431C392.547 213.204 392.353 211.929 392.466 210.702C401.726 215.61 410.68 207.587 420.44 212.559H420.456Z" fill="#2CAB90"/>
<path d="M493.248 152.796C493.135 164.839 513.978 162.499 521.238 169.602C516.753 181.644 512.123 194.753 508.171 206.957C507.38 196.577 503.831 201.032 498.426 199.031C492.328 196.771 486.294 194.188 480.164 192.008C484.004 178.803 488.359 165.63 493.232 152.78L493.248 152.796Z" fill="#6BC2AF"/>
<path d="M347.665 227.507C349.343 238.646 350.94 252.239 353.263 262.99C348.214 269.802 336.517 268.931 328.999 272.321C325.563 258.405 322.304 245.41 319.675 231.236C329.016 227.766 337.663 226.732 347.665 227.507Z" fill="#6BC2AF"/>
<path d="M573.508 188.279C578.122 197.19 594.804 195.221 597.772 205.084C592.61 212.833 586.318 224.424 580.978 233.093L554.843 218.144C560.892 207.619 567.055 198.143 573.508 188.263V188.279Z" fill="#6BC2AF"/>
<path d="M685.486 298.473C673.871 308.74 661.029 319.976 650.026 330.226C647.009 323.43 640.734 319.782 635.087 315.278C646.8 304.349 656.221 294.372 668.676 283.524C673.725 289.029 676.726 299.086 685.47 298.473H685.486Z" fill="#2CAB90"/>
<path d="M651.898 253.643C644.541 261.311 636.555 269.98 629.505 277.923L607.113 261.117C614.954 251.205 621.374 244.167 629.505 234.965L651.898 253.643Z" fill="#6BC2AF"/>
<path d="M629.505 277.923C621.633 286.785 612.663 296.971 605.242 305.931C599.805 300.588 592.545 293.355 584.705 292.855C592.077 283.266 598.821 271.562 607.097 261.101L629.489 277.906L629.505 277.923Z" fill="#2CAB90"/>
<path d="M396.193 261.117C396.209 264.378 394.321 264.637 394.321 264.846C390.901 258.728 392.498 249.688 392.45 242.44C392.385 233.496 391.724 223.132 392.45 214.431C397.29 215.836 394.692 218.241 394.644 221.098C394.353 235.272 396.112 247.896 396.193 261.117Z" fill="#1FA087"/>
<path d="M330.855 279.795C330.806 279.585 329.661 278.73 328.983 276.066L330.855 279.795Z" fill="#6BC2AF"/>
<path d="M427.926 130.39L429.797 126.661C429.507 129.922 427.958 130.196 427.926 130.39Z" fill="#6BC2AF"/>
<path d="M207.164 481.94C254.579 473.175 254.514 551.986 208.729 544.867C177.625 540.04 175.625 487.768 207.164 481.94ZM207.116 493.112C194.807 496.776 191.064 525.963 207.568 531.097C239.285 540.96 240.221 483.264 207.116 493.112Z" fill="#FCF9EE"/>
<path d="M655.624 468.429C661.852 471.399 666.691 477.582 670.563 483.377C671.918 485.411 671.822 489.592 672.854 490.512C674.193 491.691 677.194 490.464 678.017 490.851C678.194 490.932 676.839 493.16 677.21 494.774C684.373 525.446 664.562 545.48 653.85 572.197L634.2 681.438C633.893 682.358 622.762 695.644 622.02 696.29C621.616 696.629 615.002 701.601 614.55 701.892C613.518 702.57 599.111 704.604 595.885 709.366C595.191 708.591 591.755 711.755 592.158 703.764C600.66 674.836 606.242 657.692 610.824 627.197C613.679 608.245 620.374 578.073 620.148 559.961C624.665 559.541 629.344 549.629 631.377 545.981C646.509 518.779 650.72 497.68 651.882 466.588C653.14 467.185 654.366 467.863 655.608 468.461L655.624 468.429Z" fill="#2CAB90"/>
<path d="M614.566 416.141C618.196 408.909 628.537 400.11 635.071 394.638C645.864 385.598 682.534 356.847 693.472 352.23C701.974 348.646 704.007 350.777 703.894 359.801C691.036 368.97 677.646 377.704 665.143 387.373C653.85 396.091 639.492 410.587 627.924 417.368C624.666 419.289 622.278 420.548 618.293 419.854C616.406 412.977 615.825 417.416 614.566 416.125V416.141Z" fill="#1FA087"/>
<path d="M714.816 379.06C722.963 377.736 722.559 387.567 717.284 391.006C693.472 402.774 669.741 431.138 646.897 441.97C639.346 445.554 633.99 443.342 637.894 434.851C638.83 432.817 651.704 422.34 654.721 419.918C672.967 405.292 695.456 392.459 714.816 379.06Z" fill="#1FA087"/>
<path d="M655.624 468.429C654.366 467.831 653.14 467.153 651.898 466.556C651.978 464.28 647.429 461.1 651.865 456.257L720.269 416.318C730.11 411.072 734.127 423.082 724.56 428.151L655.624 468.429Z" fill="#1FA087"/>
<path d="M670.563 483.377L730.174 461.035C731.432 465.248 734.078 469.462 729.174 471.98L678.033 490.835C677.194 490.448 674.209 491.675 672.87 490.496C671.822 489.576 671.935 485.395 670.58 483.361L670.563 483.377Z" fill="#1FA087"/>
<path d="M207.116 493.112C240.221 483.248 239.285 540.96 207.568 531.097C191.064 525.963 194.807 496.776 207.116 493.112Z" fill="#1FA087"/>
</g>
</g>
<defs>
<clipPath id="clip0_452_493">
<rect width="693" height="516" fill="white"/>
</clipPath>
<clipPath id="clip1_452_493">
<rect width="826" height="863" fill="white" transform="translate(56 54)"/>
</clipPath>
</defs>
</svg>
