<svg width="669" height="516" viewBox="0 0 669 516" fill="none" xmlns="http://www.w3.org/2000/svg">
<g clip-path="url(#clip0_504_11469)">
<rect width="669" height="516" fill="#D9D9D9" fill-opacity="0.6"/>
<g clip-path="url(#clip1_504_11469)">
<path d="M737.178 2.38923C749.693 18.4426 757.994 37.2864 760.364 57.5463C761.647 68.4702 762.094 82.7227 755.364 91.7615C748.678 76.8093 741.214 61.3328 729.482 49.6958C711.493 31.8643 686.512 25.6096 664.381 14.4769C634.137 -0.725292 607.961 -18.0731 583.304 -41.5429C527.322 -94.8492 514.057 -166.394 426.143 -182.727C361.371 -194.759 363.268 -131.158 319.802 -100.57C245.256 -48.1262 188.859 -126.085 111.946 -123.488C105.254 -123.26 72.7991 -117.089 88.3946 -134.621C106.307 -154.751 150.654 -153.411 174.941 -148.615C209.521 -141.783 254.143 -116.936 287.116 -142.972C303.337 -155.781 316.945 -214.009 328.376 -236.091C377.12 -330.187 479.28 -323.218 559.154 -276.157C612.347 -244.812 620.788 -213.832 653.816 -166.476C688.93 -116.129 738.338 -106.333 782.851 -71.1163C873.172 0.37313 924.422 131.381 801.007 199.487C723.247 242.409 641.786 215.633 572.235 170.531C520.509 136.99 488.3 81.6355 424.563 70.9903C410.7 68.6678 390.959 68.7651 378.444 75.8306C365.929 82.8961 358.846 103.008 365.125 116.155C387.481 162.933 477.269 175.403 522.805 189.028C568.5 202.692 624.804 225.45 663.685 253.133C745.418 311.307 816.828 446.413 730.765 530.431C662.755 596.823 558.66 580.132 475.871 559.476C425.695 546.962 380.592 521.639 331.849 505.357C276.22 486.774 228.505 486.522 177.518 450.345C145.952 427.945 131.639 398.479 107.283 370.01C86.4602 345.65 33.654 299.278 33.7431 266.896C33.7875 250.925 43.5817 242.634 56.6143 255.591C71.2982 270.193 78.9336 289.173 97.1308 302.388C104.661 307.867 110.677 308.453 117.601 316.314C131.425 331.995 134.083 346.477 142.647 362.974C145.725 368.893 149.941 374.064 156.386 368.787C147.389 354.798 142.748 338.412 134.777 323.838C118.25 293.664 87.3996 268.968 72.3545 239.813C65.6803 226.869 65.916 217.056 80.9428 210.651C110.848 197.914 147.484 223.354 176.219 231.491C188.062 234.849 201.722 234.973 213.149 238.372C273.727 256.386 315.961 313.843 372.879 340.296C391.005 348.72 408.949 351.729 427.659 357.419C486.25 375.258 539.89 406.043 597.478 428.041C601.76 435.532 604.773 440.301 602.466 449.262C600.629 456.345 595.344 459.709 592.505 465.079C589.388 471.002 596.077 489.309 598.951 495.429C602.392 502.798 606.893 504.745 606.196 514.051C604.798 532.782 582.366 535.589 578.784 549.967C577.573 554.828 580.428 565.527 584.762 567.767C586.299 568.56 601.225 569.411 604.021 569.401C624.355 569.27 672.047 560.231 687.711 547.99C693.684 543.326 705.301 527.961 695.65 521.833C694.098 520.857 682.338 520.576 679.264 519.969C666.331 517.407 653.791 508.199 657.11 493.481C658.925 485.415 664.093 482.237 663.48 472.574C661.986 448.924 641.16 443.003 622.825 436.318C629.887 437.458 637.029 437.781 644.179 438.023C644.792 439.569 651.74 439.953 653.244 439.807C654.551 439.684 655.373 438.859 655.918 438.777C656.688 438.655 657.56 438.701 658.074 438.599C661.772 440.708 669.186 438.794 672.557 441.121C679.447 445.895 682.314 454.341 693.001 458.036C702.612 461.35 713.397 451.152 723.28 457.6C731.897 463.225 729.498 470.361 732.589 477.501C738.963 492.258 745.284 495.556 752.913 479.659C759.844 465.203 763.325 429.244 759.317 413.835C757.659 407.475 754.802 401.287 746.881 404.103C734.695 408.456 736.738 428.147 721.253 422.838C704.655 417.151 716.155 400.898 708.029 390.869C704.891 387 693.092 385.074 688.729 386.42C678.699 389.52 674.122 399.61 666.12 404.471C658.118 409.333 647.794 409.676 639.342 416.135C634.587 419.772 635.193 423.989 630.718 427.015C627.241 426.249 616.36 425.645 614.322 423.775C611.196 420.935 610.54 416.192 608.491 413.197C563.723 348.223 506.191 343.497 438.218 319.942C371.594 296.872 314.147 274.789 266.08 219.954C200.941 145.638 191.628 42.0684 272.56 -24.4037C334.519 -75.3018 438.446 -69.6555 505.06 -31.5372C569.287 5.21071 650.683 116.772 727.774 111.343C736.179 110.745 739.901 107.966 748.308 109.171C755.561 110.214 758.383 99.8271 763.505 95.8141C766.746 93.0965 765.98 101.563 766.521 103.21C773.118 123.607 800.149 113.594 804.53 130.752C805.947 136.338 801.258 152.654 815.696 148.028C843.05 139.238 845.56 105.883 830.323 85.2862C827.226 81.1047 812.814 66.2232 808.763 64.3866C797.872 59.4717 781.543 62.2162 773.148 70.7889C772.02 69.1528 771.421 67.2522 770.969 65.3396C769.688 59.8826 769.383 52.5276 767.727 46.9911C774.255 46.1144 779.025 42.0274 783.943 37.9648C788.862 33.9023 795.64 24.9111 800.712 22.521C811.746 17.314 817.031 30.2772 827.351 28.5359C836.726 26.9461 847.012 16.9373 841.718 7.08719C832.145 -3.71236 824.128 -15.9941 814.958 -27.077C813.209 -29.199 803.807 -39.9686 802.399 -40.3602C801.315 -40.6608 791.021 -38.7819 789.596 -38.2228C781.778 -35.1427 781.31 -31.1749 776.218 -27.0833C770.766 -22.6973 764.525 -21.8222 761.551 -14.5279C758.856 -7.941 763.176 0.274931 761.64 7.25196C761.184 9.31298 758.538 16.4845 755.783 14.0334C752.256 10.8806 746.076 -2.2295 742.727 -7.23644C736.398 -16.7068 726.321 -25.4928 726.557 -37.8002C726.859 -54.1378 748.299 -54.596 757.018 -64.0563C761.807 -69.2486 752.446 -80.2349 747.936 -83.1742C739.896 -88.4197 722.27 -96.9364 713.07 -101.343C702.705 -106.309 693.66 -108.911 687.383 -95.811C684.174 -89.1228 688.401 -85.5127 689.996 -79.7284C693.36 -67.4971 687.07 -61.585 677.559 -55.0394C654.743 -71.9726 633.963 -86.4395 611.955 -105.455C609.989 -110.65 609.829 -126.861 613.509 -130.689C620.807 -138.288 651.02 -139.529 650.895 -151.041C650.841 -155.613 646.457 -158.188 644.239 -161.713C633.625 -178.615 625.136 -195.368 612.921 -211.528C607.42 -218.815 599.009 -225.332 591.13 -217.552C582.006 -208.537 592.613 -197.521 586.975 -191.199C580.301 -183.71 566.73 -184.099 560.278 -175.613C549.798 -187.685 537.077 -198.107 524.71 -208.168L523.381 -208.493C523.011 -208.786 522.781 -209.702 522.376 -210.147C536.663 -216.6 527.584 -229.273 526.769 -240.309C525.901 -252.003 537.562 -250.051 542.736 -258.873C550.999 -272.968 523.276 -282.756 513.43 -286.963C493.586 -295.436 448.338 -309.755 443.349 -276.122C440.659 -257.968 463.285 -258.495 471.252 -249.329C474.886 -245.147 476.91 -239.604 477.421 -234.121L474.397 -220.465C465.877 -221.447 435.505 -220.532 428.862 -216.497L414.848 -207.983C412.199 -206.374 406.758 -205.256 402.716 -202.877C399.579 -201.029 390.612 -196.272 396.55 -193.414C397.853 -192.786 399.013 -194.162 399.948 -194.423C406.995 -196.402 406.873 -200.203 412.134 -202.881C427.844 -210.909 447.589 -210.242 464.348 -210.983C458.929 -198.712 453.062 -186.169 467.81 -177.746C470.397 -176.267 483.803 -171.537 486.844 -170.89C504.384 -167.156 495.431 -188.021 499.957 -197.025C504.483 -206.03 511.157 -200.76 517.534 -197.401C527.456 -192.185 540.667 -180.987 547.458 -173.408C553.275 -166.927 559.011 -159.917 551.986 -151.332C545.67 -143.601 521.85 -148.355 526.024 -134.505C528.739 -125.487 542.016 -108.054 547.745 -99.6973C550.078 -96.2989 551.847 -92.2507 554.269 -89.0215C561.354 -79.5694 577.292 -63.9454 589.105 -74.8822C598.45 -83.5333 581.317 -103.841 597.58 -106.853C609.839 -90.7782 629.276 -72.08 646.475 -61.328C655.42 -55.7304 666.789 -52.4295 674.48 -45.2642C672.964 -44.2857 671.948 -42.4212 669.679 -41.1967C660.749 -36.3472 637.796 -34.4325 645.053 -17.7174C650.012 -6.30192 671.54 5.19679 682.741 11.381C685.032 12.6564 700.519 20.496 701.566 20.5127C710.788 20.7235 711.54 8.06457 716.288 3.18464C723.79 -4.5198 729.267 -2.70513 737.239 2.33264L737.178 2.38923ZM751.746 125.252C744.951 117.542 725.657 124.217 716.271 123.895C707.94 123.603 693.222 117.694 686.227 120.486C670.328 126.844 683.307 137.819 687.121 147.033C687.745 148.534 688.422 152.018 688.628 153.715C690.221 167.137 682.229 167.215 674.746 174.888C665.554 184.329 666.447 191.863 674.811 201.652C687.961 217.013 738.427 216.265 755.412 207.904C759.753 205.766 770.541 200.152 769.863 194.616C768.724 185.35 760.582 189.855 754.984 189.515C746.717 189.012 732.494 183.128 730.176 174.387C728.987 169.871 742.705 164.186 746.36 161.485C757.894 152.963 761.673 136.508 751.729 125.224L751.746 125.252ZM622.006 78.7264C621.375 78.0353 618.545 77.7977 616.921 76.5777C611.095 72.2312 605.164 64.4572 599.387 59.2752C593.611 54.0932 581.633 43.7568 575.286 40.1303C569.441 36.7934 563.425 40.8507 560.039 45.8244C548.964 62.0497 566.651 75.5943 560.896 86.7453C551.892 104.168 510.664 94.6988 531.018 123.718C540.34 137.011 577.223 164.373 592.531 170.748C598.025 173.032 604.122 172.11 606.29 165.92C610.194 154.723 592.01 140.425 602.11 131.91C610.09 125.182 615.043 129.291 623.268 128.208C632.614 126.981 636.66 119.017 634.269 110.282C632.263 102.905 627.417 98.2131 624.561 91.7749C623.339 89.006 622.589 79.37 622.006 78.7264ZM399.685 -255.524C389.801 -267.056 365.284 -257.419 354.916 -250.641C331.897 -235.601 331.657 -222.447 326.192 -198.694C323.866 -188.532 313.157 -169.114 333.505 -171.307C355.348 -173.66 359.875 -205.592 378.134 -216.243C381.644 -218.299 385.492 -219.197 389.423 -221.854C399.047 -228.372 408.569 -245.131 399.679 -255.502L399.685 -255.524ZM718.556 321.505C712.746 313.427 693.368 289.551 686.269 284.118C684.518 282.783 671.967 276.556 669.962 276.162C663.912 274.983 657.882 277.437 654.123 282.177C645.918 292.514 659.437 313.157 640.625 321.574C631.527 325.642 620.722 316.225 610.636 324.194C602.989 330.24 603.296 341.45 600.752 349.864C597.501 360.588 588.393 372.03 599.246 381.841C606.227 388.153 612.053 383.405 618.851 382.057C628.756 380.107 641.646 383.577 651.869 379.055C676.753 368.063 674.821 341.954 701.793 338.442C707.907 337.644 718.224 341.046 722.358 337.46C727.172 333.289 721.31 325.281 718.575 321.474L718.556 321.505ZM496.264 -18.5387C497.596 -23.9904 486.748 -29.8139 482.64 -31.8076C473.165 -36.4125 438.827 -47.8998 429.325 -46.329C418.435 -44.548 408.625 -32.967 414.259 -22.0192C417.79 -15.1657 425.095 -14.1935 425.44 -5.28918C425.845 4.97867 414.002 12.5185 412.083 21.9921C408.118 41.5529 438.268 40.6194 445.101 52.8148C447.362 56.8519 447.653 62.2581 451.031 65.9235C452.38 67.3868 462.086 71.5827 464.26 72.1613C474.728 74.8962 483.732 62.4618 492.927 58.238C500.846 54.5977 510.763 58.0696 512.358 44.7452C514.99 22.6748 483.422 21.0542 474.147 9.13379C471.012 5.10993 474.711 4.28251 474.781 3.16569C474.931 0.886996 473.248 -2.38837 474.317 -5.93478C477.002 -14.7798 494.652 -12.0337 496.225 -18.4767L496.264 -18.5387ZM594.317 232.114C593.418 230.665 590.175 228.107 588.642 226.909C580.123 220.246 532.041 200.82 521.466 200.183C512.957 199.693 507.922 202.521 503.044 209.494C493.351 223.384 508.622 237.341 501.449 247.704C492.939 259.972 472.25 258.382 461.66 268.173C452.566 276.575 467.977 288.836 472.093 295.928C476.809 304.038 474.658 314.362 481.196 321.998C482.832 323.901 492.723 327.485 495.754 328.464C501.287 330.245 521.436 336.251 526.05 336.613C528.441 336.791 530.078 336.833 532.08 335.233C539.555 329.253 544.539 317.591 554.237 313.216C563.934 308.84 585.474 318.241 586.026 299.947C586.712 277.044 559.508 283.805 553.913 268.248C552.617 264.661 552.41 258.13 555.352 255.267C563.719 247.153 589.444 249.579 594.477 236.737C595.135 235.071 595.333 233.723 594.331 232.106L594.317 232.114ZM303.346 -112.656C306.562 -122.649 298.343 -127.997 289.286 -125.315C284.151 -123.788 280.58 -120.065 275.635 -118.288C268.301 -115.675 257.207 -119.756 250.501 -115.951C246.03 -113.426 235.088 -100.045 241.371 -95.8612C245.98 -92.7903 261.72 -94.3898 267.268 -95.458C277.763 -97.4787 299.909 -101.954 303.355 -112.642L303.346 -112.656ZM375.156 3.11733C366.376 -7.26194 343.133 -1.18074 337.328 -17.6844C333.848 -27.581 344.545 -32.8705 343.878 -38.5474C343.385 -42.7377 340.101 -44.6375 336.161 -44.239C326.579 -43.2724 296.334 -28.5053 288.034 -22.7143C281.181 -17.9185 257.708 1.42626 254.412 7.68741C250.674 14.7356 254.674 15.4138 261.023 16.2957C268.355 17.3099 274.861 14.566 282.699 16.6349C289.906 18.5497 298.807 24.3276 301.935 31.2143C306.447 41.1362 301.462 55.0051 312.58 60.9902C327.049 68.7959 339.634 54.0134 351.348 60.3467C356.284 63.008 362.43 72.0519 369.153 66.6634C375.875 61.2748 370.98 49.111 372.121 41.3571C373.832 29.8037 382.802 25.5249 379.261 12.2118C378.331 8.69048 377.593 5.99202 375.179 3.12281L375.156 3.11733ZM430.173 177.308C428.352 175.574 422.282 174.235 419.415 172.485C416.548 170.735 414.4 167.799 411.121 166.223C408.064 164.76 405.456 165.424 403.092 164.596C396.879 162.423 389.199 157.361 384.139 153.106C381.198 150.633 372.388 140.426 369.676 140.385C362.187 140.31 365.288 160.164 359.322 165.976C355.966 169.262 343.022 177.011 338.466 179.145C334.422 181.046 329.094 180.867 325.369 183.61C323.448 185.026 319.486 193.822 319.894 196.356C321.515 206.384 337.662 209.372 338.441 222.655C338.892 230.535 328.782 235.622 325.049 242.552C319.86 252.17 322.269 255.503 330.264 261.62C341.526 270.243 371.401 288.279 385.377 280.46C388.267 278.838 389.745 275.619 392.534 273.924C401.966 268.195 411.468 272.341 419.933 262.21C426.985 253.763 425.647 245.75 418.197 237.844C414.663 234.081 408.21 233.723 404.754 229.644C392.419 215.055 414.688 208.414 423.416 201.999C430.776 196.587 438.507 185.31 430.159 177.316L430.173 177.308ZM549.122 417.607C546.425 414.621 534.506 411.866 529.986 409.604C525.965 407.596 522.41 402.061 516.597 404.02C497.808 410.389 516.453 440.101 505.039 450.085C497.553 456.648 478.363 444.514 472.433 461.029C467.038 476.087 486.757 488.839 472.985 506.089C464.494 516.715 457.336 513.869 447.741 519.045C441.225 522.563 437.453 530.629 443.534 536.47C445.315 538.17 470.919 546.176 475.265 547.393C479.611 548.609 504.466 554.499 506.734 553.716C508.185 553.199 508.872 551.707 510.095 551.29C512.436 550.501 518.215 551.422 522.336 550.089C531.948 546.994 544.262 537.325 544.086 526.266C544 520.313 539.399 515.549 538.184 509.38C534.582 491.135 559.82 486.854 560.685 476.275C561.294 468.941 552.188 464.342 548.682 459.297C541.025 448.273 552.352 440.547 552.406 429.329C552.428 425.229 551.996 420.791 549.108 417.615L549.122 417.607ZM331.885 102.715C327.829 99.0394 314.891 104.808 309.51 105.141C299.994 105.742 289.668 99.5446 284.739 91.6216C281.55 86.4985 280.834 77.5513 272.865 77.0017C253.667 75.6562 250.496 96.8072 236.481 99.508C232.736 100.229 226.221 97.7787 224.449 102.884C221.241 112.162 228.841 136.958 232.491 146.251C236.692 156.957 244.956 178.107 257.6 179.75C282.263 182.955 272.113 152.13 282.795 143.09C295.422 132.387 299.548 145.306 310.849 145.655C322.151 146.003 328.72 134.741 331.932 125.595C333.933 119.889 336.893 107.232 331.885 102.715ZM443.508 375.707C442.146 374.097 439.467 372.214 437.63 371.085C432.427 367.857 391.334 355.389 384.786 354.685C370.118 353.121 384.85 366.695 387.041 371.408C393.714 385.677 375.352 391.517 369.061 400.711C364.201 407.808 362.593 419.183 364.192 427.594C366.002 437.143 376.487 450.803 366.549 458.414C361.351 462.397 358.307 459.123 353.055 458.688C338.667 457.49 322.345 462.206 325.379 479.895C325.774 482.187 326.247 485.43 327.784 487.202C330.362 490.183 342.77 494.31 347.313 496.577C355.764 500.825 378.232 514.439 387.014 512.25C394.959 510.263 408.848 495.513 411.166 487.486C413.739 478.613 406.411 467.025 414.355 458.784C425.112 447.625 434.778 457.946 446.204 448.299C466.3 431.352 428.912 418.571 438.606 404.336C441.672 399.845 446.159 400.726 447.842 395.348C449.783 389.162 447.66 380.647 443.491 375.679L443.508 375.707ZM296.646 359.517C300.256 348.786 311.554 354.528 318.219 351.477C325.905 347.959 327.429 334.14 323.948 327.179C321.904 323.087 319.229 322.064 316.898 319.048C315.647 317.43 315.743 315.472 314.168 313.512C307.905 305.729 292.982 299.829 285.342 293.285C279.372 288.163 267.799 270.251 260.657 285.086C253.853 299.215 272.107 313.566 257.27 326.379C251.885 331.031 240.425 333.043 244.027 342.098C248.644 353.741 261.776 356.756 263.336 371.388C264.098 378.484 258.724 387.198 252.513 390.491C243.178 395.433 230.824 390.256 223.837 398.242C216.407 406.728 237.014 435.881 210.627 438.27C205.441 438.735 190.386 434.45 188.943 434.885C186.329 435.667 185.081 439.898 186.565 442.182C187.878 444.185 202.2 452.886 205.255 454.503C221.993 463.329 241.029 467.44 259.486 462.386C268.696 459.86 276.034 456.938 278.117 446.597C279.998 437.281 272.344 427.81 278.434 419.295C287.372 406.785 298.41 417.596 308.072 412.877C311.34 411.276 316.831 404.429 318.063 400.899C324.488 382.357 289.916 379.453 296.631 359.526L296.646 359.517ZM191.42 278.338C176.828 261.55 147.601 272.245 148.506 294.201C149.662 321.779 185.182 326.812 195.188 302.794C198.13 295.73 196.404 284.078 191.42 278.338ZM104.998 236.194C105.13 228.516 88.8414 229.433 90.9531 238.088C92.4174 244.067 104.962 238.346 104.998 236.194Z" fill="#24A29C"/>
<path d="M622.797 436.336C641.133 443.021 661.964 448.918 663.452 472.592C664.065 482.254 658.883 485.44 657.083 493.499C653.778 508.208 666.303 517.425 679.236 519.986C682.311 520.593 694.07 520.874 695.622 521.85C705.273 527.978 693.67 543.335 687.684 548.008C672.011 560.234 624.327 569.287 603.993 569.419C601.206 569.442 586.271 568.577 584.734 567.784C580.4 565.544 577.546 554.845 578.756 549.985C582.339 535.606 604.775 532.777 606.169 514.068C606.852 504.77 602.364 502.815 598.923 495.447C596.063 489.318 589.36 471.019 592.477 465.097C595.302 459.735 600.601 456.362 602.438 449.28C604.759 440.31 601.732 435.549 597.45 428.058C606.186 431.385 614.113 433.189 622.806 436.35L622.797 436.336Z" fill="#6FC8BF"/>
<path d="M677.481 -55.0112C687.006 -61.5653 693.281 -67.4688 689.918 -79.7002C688.323 -85.4845 684.096 -89.0946 687.304 -95.7827C693.582 -108.883 702.626 -106.28 712.991 -101.315C722.192 -96.9082 739.817 -88.3914 747.858 -83.1459C752.368 -80.2067 761.72 -69.2344 756.94 -64.0281C748.22 -54.5678 726.78 -54.1096 726.479 -37.772C726.243 -25.4646 736.32 -16.6785 742.648 -7.20815C745.997 -2.2012 752.177 10.9089 755.704 14.0617C758.446 16.5213 761.106 9.34123 761.561 7.28021C763.112 0.294669 758.801 -7.90721 761.472 -14.4996C764.447 -21.7939 770.702 -22.6776 776.139 -27.0551C781.232 -31.1467 781.691 -35.1284 789.517 -38.1945C790.943 -38.7536 801.236 -40.6325 802.321 -40.3319C803.729 -39.9403 813.13 -29.1708 814.88 -27.0487C824.035 -15.9572 832.053 -3.67556 841.64 7.11548C846.933 16.9656 836.656 26.9884 827.272 28.5642C816.953 30.3055 811.668 17.3423 800.633 22.5492C795.576 24.9308 788.803 33.8995 783.865 37.9931C778.927 42.0867 774.177 46.1426 767.649 47.0194C754.042 1.75628 732.402 -14.2216 696.684 -40.3922C690.175 -45.168 683.792 -50.3074 677.435 -55.0222L677.481 -55.0112Z" fill="#6FC8BF"/>
<path d="M658.032 438.625C660.263 438.191 665.524 437.029 667.387 436.242C668.332 435.84 670.325 435.11 668.67 433.87C667.351 432.868 645.576 430.786 641.52 430.046C637.829 429.371 634.131 427.8 630.668 427.026C635.128 424.009 634.537 419.783 639.292 416.146C647.735 409.674 658.376 409.157 666.07 404.483C673.764 399.809 678.64 389.518 688.679 386.431C693.042 385.085 704.841 387.012 707.978 390.881C716.104 400.909 704.605 417.162 721.203 422.85C736.688 428.159 734.658 408.459 746.831 404.115C754.743 401.285 757.6 407.472 759.267 413.847C763.274 429.255 759.808 465.206 752.862 479.67C745.233 495.567 738.922 492.284 732.538 477.513C729.448 470.373 731.869 463.242 723.23 457.611C713.346 451.164 702.562 461.361 692.951 458.048C682.264 454.352 679.406 445.92 672.506 441.133C669.136 438.806 661.722 440.719 658.024 438.611L658.032 438.625Z" fill="#6FC8BF"/>
<path d="M737.178 2.38966C729.206 -2.64811 723.729 -4.46279 716.226 3.24166C711.478 8.12159 710.727 20.7805 701.504 20.5697C700.458 20.5529 684.971 12.7134 682.68 11.438C671.456 5.24825 649.95 -6.24495 644.991 -17.6604C637.734 -34.3755 660.679 -36.3043 669.618 -41.1397C671.886 -42.3643 672.902 -44.2287 674.419 -45.2072C675.055 -45.6129 675.649 -45.993 676.421 -45.6373C686.398 -39.1313 698.886 -34.6499 708.327 -27.4154C716.582 -21.0913 730.712 -5.88479 737.195 2.41767L737.178 2.38966Z" fill="#6FC8BF"/>
<path d="M655.89 438.794C655.345 438.876 654.514 439.687 653.216 439.824C651.712 439.97 644.756 439.572 644.151 438.04C647.965 438.16 652.187 437.341 655.899 438.808L655.89 438.794Z" fill="#6FC8BF"/>
<path d="M594.317 232.114C595.31 233.718 595.112 235.066 594.464 236.745C589.43 249.588 563.697 247.148 555.338 255.276C552.396 258.138 552.612 264.684 553.9 268.257C559.508 283.805 586.721 277.058 586.012 299.956C585.46 318.25 563.856 308.869 554.223 313.224C544.59 317.58 539.542 329.261 532.066 335.242C530.064 336.842 528.427 336.8 526.036 336.622C521.422 336.259 501.273 330.254 495.74 328.473C492.709 327.494 482.805 323.918 481.183 322.006C474.645 314.371 476.795 304.047 472.08 295.937C467.963 288.845 452.552 276.584 461.646 268.182C472.236 258.391 492.926 259.981 501.435 247.713C508.622 237.341 493.337 223.392 503.031 209.503C507.908 202.53 512.935 199.688 521.453 200.192C532.033 200.806 580.115 220.232 588.628 226.918C590.161 228.116 593.404 230.674 594.303 232.123L594.317 232.114Z" fill="#6FC8BF"/>
<path d="M296.646 359.517C289.93 379.444 324.502 382.348 318.077 400.89C316.854 404.434 311.362 411.281 308.087 412.869C298.425 417.587 287.386 406.776 278.448 419.286C272.358 427.801 280.012 437.272 278.131 446.588C276.048 456.929 268.719 459.866 259.5 462.377C241.057 467.422 222.022 463.311 205.269 454.495C202.214 452.877 187.878 444.185 186.579 442.173C185.096 439.889 186.343 435.659 188.957 434.876C190.4 434.441 205.463 438.74 210.641 438.261C237.028 435.872 216.421 406.719 223.852 398.233C230.838 390.248 243.206 395.416 252.527 390.483C258.724 387.198 264.103 378.462 263.35 371.379C261.79 356.747 248.658 353.732 244.041 342.09C240.453 333.026 251.899 331.023 257.284 326.37C272.121 313.557 253.876 299.22 260.671 285.077C267.814 270.243 279.372 288.163 285.356 293.276C292.988 299.806 307.897 305.714 314.183 313.503C315.757 315.463 315.661 317.421 316.913 319.04C319.244 322.055 321.918 323.078 323.963 327.17C327.443 334.131 325.919 347.95 318.233 351.468C311.568 354.519 300.271 348.777 296.66 359.508L296.646 359.517Z" fill="#6FC8BF"/>
<path d="M443.508 375.707C447.686 380.69 449.8 389.191 447.86 395.377C446.177 400.755 441.681 399.86 438.623 404.365C428.907 418.594 466.317 431.381 446.222 448.328C434.787 457.961 425.129 447.654 414.372 458.813C406.428 467.054 413.747 478.628 411.184 487.514C408.857 495.528 394.976 510.292 387.031 512.279C378.25 514.467 355.781 500.853 347.33 496.606C342.801 494.33 330.379 490.211 327.801 487.23C326.264 485.459 325.791 482.216 325.396 479.924C322.363 462.235 338.67 457.527 353.072 458.717C358.325 459.152 361.369 462.425 366.566 458.443C376.491 450.84 366.019 437.172 364.209 427.623C362.61 419.212 364.218 407.836 369.078 400.74C375.377 391.56 393.731 385.705 387.058 371.436C384.853 366.733 370.113 353.144 384.804 354.714C391.365 355.409 432.458 367.877 437.647 371.113C439.493 372.256 442.186 374.131 443.525 375.735L443.508 375.707Z" fill="#6FC8BF"/>
<path d="M430.173 177.308C438.535 185.294 430.79 196.579 423.43 201.991C414.711 208.42 392.419 215.056 404.768 229.636C408.224 233.715 414.664 234.081 418.211 237.836C425.647 245.751 426.999 253.755 419.948 262.202C411.482 272.333 401.98 268.187 392.548 273.917C389.759 275.611 388.281 278.83 385.391 280.452C371.41 288.293 341.526 270.243 330.278 261.613C322.283 255.495 319.874 252.162 325.064 242.544C328.797 235.614 338.906 230.527 338.455 222.647C337.685 209.378 321.515 206.385 319.908 196.348C319.5 193.814 323.476 185.01 325.383 183.602C329.108 180.859 334.436 181.038 338.48 179.137C343.036 177.003 355.98 169.254 359.336 165.968C365.294 160.142 362.179 140.297 369.691 140.377C372.393 140.404 381.226 150.617 384.153 153.098C389.199 157.362 396.879 162.424 403.106 164.589C405.47 165.416 408.07 164.738 411.135 166.215C414.428 167.783 416.545 170.699 419.429 172.477C422.313 174.255 428.358 175.552 430.187 177.3L430.173 177.308Z" fill="#6FC8BF"/>
<path d="M549.122 417.607C552.019 420.797 552.451 425.235 552.42 429.321C552.367 440.539 541.054 448.256 548.696 459.289C552.202 464.334 561.308 468.933 560.699 476.267C559.835 486.846 534.596 491.127 538.198 509.372C539.413 515.541 544.014 520.305 544.101 526.258C544.268 537.303 531.962 546.986 522.35 550.081C518.229 551.414 512.442 550.479 510.11 551.282C508.886 551.699 508.199 553.191 506.748 553.708C504.489 554.505 479.625 548.601 475.279 547.384C470.933 546.168 445.324 538.185 443.548 536.462C437.467 530.621 441.239 522.555 447.755 519.037C457.35 513.861 464.508 516.707 472.999 506.08C486.785 488.822 467.052 476.079 472.448 461.021C478.355 444.501 497.567 456.639 505.054 450.077C516.444 440.087 497.822 410.381 516.611 404.012C522.416 402.039 525.979 407.588 530 409.596C534.512 411.844 546.431 414.599 549.136 417.598L549.122 417.607Z" fill="#6FC8BF"/>
<path d="M622.006 78.7264C622.589 79.37 623.339 89.006 624.561 91.7749C627.403 98.2217 632.257 102.928 634.269 110.282C636.646 119.026 632.623 126.995 623.268 128.208C615.043 129.291 610.09 125.182 602.11 131.91C592.01 140.425 610.208 154.714 606.29 165.92C604.122 172.11 598.011 173.041 592.532 170.748C577.224 164.373 540.326 137.019 531.018 123.718C510.664 94.6988 551.884 104.154 560.897 86.7453C566.673 75.5998 548.978 62.0412 560.039 45.8244C563.426 40.8507 569.441 36.7934 575.286 40.1303C581.642 43.7708 593.603 54.0792 599.388 59.2752C605.173 64.4712 611.11 72.2227 616.921 76.5777C618.545 77.7977 621.367 78.0213 622.006 78.7264Z" fill="#6FC8BF"/>
<path d="M375.156 3.11788C377.585 5.97858 378.309 8.68553 379.239 12.2069C382.78 25.52 373.81 29.7988 372.099 41.3522C370.958 49.106 375.811 61.2954 369.131 66.6584C362.45 72.0214 356.27 63.0171 351.326 60.3418C339.62 54.0225 327.036 68.805 312.558 60.9852C301.453 54.9916 306.439 41.1227 301.913 31.2093C298.785 24.3227 289.883 18.5447 282.676 16.6299C274.853 14.5526 268.332 17.305 261.001 16.2907C254.652 15.4089 250.661 14.7446 254.39 7.68244C257.708 1.42679 281.173 -17.9319 288.011 -22.7193C296.303 -28.5242 326.549 -43.2914 336.139 -44.244C340.079 -44.6425 343.363 -42.7426 343.856 -38.5524C344.522 -32.8755 333.84 -27.5945 337.305 -17.6894C343.096 -1.1772 366.353 -7.26688 375.134 3.11239L375.156 3.11788Z" fill="#6FC8BF"/>
<path d="M496.265 -18.5386C494.686 -12.0731 477.041 -14.8417 474.356 -5.9967C473.288 -2.45029 474.956 0.833594 474.82 3.10377C474.75 4.22059 471.06 5.06205 474.186 9.07189C483.462 20.9923 515.037 22.6269 512.397 44.6833C510.803 58.0077 500.885 54.5358 492.966 58.1761C483.771 62.4 474.762 74.8568 464.299 72.0994C462.125 71.5208 452.414 67.3475 451.07 65.8616C447.706 62.1877 447.393 56.776 445.14 52.7529C438.293 40.566 408.157 41.491 412.122 21.9302C414.036 12.4792 425.87 4.92528 425.479 -5.35108C425.134 -14.2554 417.829 -15.2276 414.298 -22.0811C408.664 -33.0289 418.469 -44.5874 429.364 -46.3909C438.875 -47.9477 473.191 -36.4659 482.679 -31.8695C486.787 -29.8758 497.635 -24.0523 496.304 -18.6006L496.265 -18.5386Z" fill="#6FC8BF"/>
<path d="M718.556 321.505C721.291 325.312 727.153 333.32 722.339 337.492C718.205 341.077 707.888 337.675 701.773 338.474C674.801 341.985 676.733 368.094 651.85 379.086C641.627 383.608 628.737 380.138 618.832 382.088C612.039 383.414 606.199 388.17 599.227 381.873C588.374 372.062 597.496 360.611 600.733 349.896C603.276 341.482 602.956 330.28 610.617 324.225C620.703 316.256 631.508 325.674 640.606 321.605C659.418 313.189 645.899 292.546 654.104 282.208C657.877 277.46 663.907 275.006 669.943 276.193C671.961 276.578 684.504 282.792 686.249 284.149C693.349 289.582 712.713 313.467 718.536 321.536L718.556 321.505Z" fill="#6FC8BF"/>
<path d="M751.746 125.252C761.69 136.536 757.911 152.991 746.377 161.514C742.722 164.214 729.005 169.899 730.194 174.415C732.511 183.156 746.734 189.04 755.002 189.543C760.6 189.883 768.741 185.379 769.881 194.644C770.558 200.18 759.77 205.794 755.429 207.932C738.444 216.293 687.978 217.041 674.828 201.68C666.451 191.9 665.557 184.365 674.763 174.917C682.252 167.221 690.238 167.165 688.645 153.743C688.445 152.023 687.762 148.562 687.138 147.061C683.316 137.833 670.345 126.872 686.244 120.514C693.253 117.714 707.957 123.631 716.288 123.923C725.674 124.245 744.968 117.57 751.763 125.28L751.746 125.252Z" fill="#6FC8BF"/>
<path d="M331.885 102.716C336.879 107.241 333.928 119.912 331.932 125.595C328.72 134.741 321.782 145.997 310.849 145.655C299.917 145.313 295.422 132.388 282.795 143.09C272.114 152.131 282.263 182.956 257.6 179.75C244.956 178.107 236.707 156.949 232.491 146.252C228.832 136.944 221.232 112.149 224.449 102.885C226.221 97.7792 232.736 100.229 236.481 99.5085C250.496 96.8077 253.667 75.6567 272.865 77.0023C280.835 77.5518 281.542 86.485 284.739 91.6222C289.676 99.5591 299.994 105.743 309.51 105.142C314.882 104.795 327.829 99.04 331.885 102.716Z" fill="#6FC8BF"/>
<path d="M191.42 278.338C196.404 284.078 198.13 295.731 195.188 302.794C185.191 326.826 149.671 321.793 148.507 294.201C147.587 272.254 176.806 261.545 191.42 278.338ZM182.907 286.81C175.061 274.654 155.764 285.935 160.258 297.058C168.548 317.558 192.278 301.32 182.907 286.81Z" fill="#F8F2DF"/>
<path d="M104.998 236.195C104.962 238.346 92.4177 244.068 90.9534 238.089C88.8417 229.433 105.13 228.517 104.998 236.195Z" fill="#F8F2DF"/>
<path d="M182.907 286.81C192.287 301.334 168.548 317.558 160.258 297.058C155.756 285.921 175.061 274.654 182.907 286.81Z" fill="#24A29C"/>
</g>
</g>
<defs>
<clipPath id="clip0_504_11469">
<rect width="669" height="516" fill="white"/>
</clipPath>
<clipPath id="clip1_504_11469">
<rect width="907.466" height="839.548" fill="white" transform="translate(581.521 -436) rotate(58.7212)"/>
</clipPath>
</defs>
</svg>
