<svg width="669" height="516" viewBox="0 0 669 516" fill="none" xmlns="http://www.w3.org/2000/svg">
<g clip-path="url(#clip0_504_11357)">
<rect width="669" height="516" fill="#D9D9D9" fill-opacity="0.6"/>
<g clip-path="url(#clip1_504_11357)">
<path d="M250.432 264.027C246.25 264.571 246.148 269.675 246.557 273.035C246.731 274.423 248.936 277.871 247.29 278.218C247.368 277.358 246.975 276.869 246.321 276.38C235.139 267.979 216.53 253.164 204.993 246.83C202.04 245.205 198.394 242.413 196.165 246.388C201.623 257.637 212.553 264.05 221.302 272.301C226.972 277.65 232.587 283.093 238.241 288.465C239.273 289.443 243.825 293.726 244.124 294.412C244.541 295.383 243.943 295.895 242.958 295.58L190.062 255.484C181.62 252.959 184.298 258.844 187.818 263.254C202.143 281.215 228.476 300.621 245.723 317.265C252.149 323.465 258.937 329.208 262.63 337.404C267.387 347.958 269.663 359.72 274.829 370.14C258.48 363.112 244.723 351.074 229.414 342.279C225.074 339.786 220.475 336.339 215.38 336.56C209.836 336.804 197.465 345.631 192.378 349.055C153.814 374.984 124.44 405.59 100.477 445.529C97.807 449.97 84.2936 468.886 97.3188 465.234C123.952 424.617 159.649 391.115 198.095 361.881C201.41 359.357 212.278 350.412 215.467 350.033C219.719 349.536 229.752 355.294 233.91 357.487C244.73 363.198 254.944 370.243 265.654 376.175C270.891 379.078 286.42 384.86 288.61 389.467C289.098 390.484 289.074 391.525 289.011 392.606C282.554 389.467 275.955 386.627 269.592 383.274C258.354 377.35 244.14 366.654 233.107 362.236C229.319 360.722 226.539 360.485 222.68 362.047C216.711 364.461 197.922 381.16 191.779 386.311C159.815 413.124 133.599 442.87 110.659 477.831C108.95 481.523 113.21 484.016 116.219 481.791C121.314 475.638 125.81 468.76 131.11 462.796C143.852 448.479 160.437 432.781 174.415 419.403C187.66 406.718 208.025 385.996 222.476 376.041C228.335 372.01 231.335 375.11 237.21 377.839C256.559 386.848 274.821 398.443 294.784 406.939C299.446 408.919 305.242 409.503 308.699 413.108C303.517 413.471 298.768 412.871 293.713 411.956C277.474 409.03 250.455 394.144 235.525 402.522C227.965 406.758 211.805 424.222 205.143 431.251C185.471 451.989 166.311 475.623 154.223 501.725C152.381 505.693 145.648 520.483 146.632 523.781C147.167 525.571 148.703 526.171 150.451 525.619C153.27 524.719 156.428 515.798 158.169 512.777C174.659 484.126 197.323 457.495 220.113 433.625C224.145 429.405 236.863 415.561 241.076 413.605C251.983 408.54 272.08 418.527 283.349 421.58C292.248 423.986 301.296 425.918 310.605 424.877C316.487 424.222 320.834 420.31 326.827 423.394C326.811 424.514 324.583 424.948 323.653 425.327C315.306 428.711 300.501 431.393 291.429 432.497C281.373 433.72 270.395 432.663 260.472 434.611C257.11 435.274 255.44 436.781 253.196 439.155C236.525 456.707 213.766 499.374 205.545 522.369C201.969 532.363 195.031 554.285 194.606 564.295C194.425 568.531 199.024 570.125 201.19 566.914C212.695 532.198 228.571 497.939 247.754 466.843C250.408 462.544 257.173 450.861 260.646 448.203C262.575 446.72 265.875 445.915 268.253 445.568C288.011 442.634 305.675 444.764 325.252 437.191C328.473 435.944 338.994 429.673 340.545 429.736C342.805 429.823 346.325 432.032 348.885 432.087C350.357 434.012 329.646 444.543 327.906 445.379C320.48 448.937 298.217 456.249 293.768 460.879C292.272 462.441 290.846 465.352 290.043 467.403C280.861 490.973 275.86 535.172 277.411 560.248C278.073 570.921 280.766 593.853 284.515 603.445C286.625 608.848 291.303 608.556 291.476 602.869C291.736 594.507 288.657 582.651 288.216 573.706C287.027 549.505 289.649 523.56 294.004 499.769C295.303 492.685 297.39 480.056 300.446 473.879C303.501 467.703 314.81 464.91 320.818 461.944C335.3 454.782 351.751 447.461 361.162 433.783L378.022 435.621C375.408 437.483 372.588 439.037 370.139 441.135C364.895 445.639 348.389 461.353 344.947 466.385C343.223 468.902 342.333 473.99 342.908 477.066C357.335 519.426 374.667 558.458 404.025 592.575C406.766 595.762 417.917 608.572 420.775 609.779C423.87 611.089 425.618 606.924 423.878 604.242C402.671 576.396 384.306 547.769 369.462 515.971C366.47 509.558 354.334 484 353.673 478.944C353.405 476.916 353.2 474.368 354.342 472.657C361.115 467.648 387.378 436.607 393.394 436.039C399.411 435.471 409.609 441.805 415.011 444.306C411.727 446.602 408.065 448.258 404.852 450.68C402.718 452.289 389.023 463.987 395.048 465.936C398.08 466.914 410.499 456.659 414.216 454.545C418.287 452.234 423.083 449.883 427.611 448.645L416.184 459.673C413.719 462.528 406.561 473.453 406.506 476.798C406.459 479.575 410.042 479.985 412.302 478.66C414.444 477.398 419.295 469.399 421.783 466.867C425.02 463.577 429.69 460.816 433.131 457.724C434.911 456.131 441.195 448.747 442.195 448.597C446.755 449.299 451.307 449.717 455.819 450.751C457.646 451.169 461.182 451.721 462.253 453.362C453.905 455.91 439.683 467.947 438.762 476.845C438.455 479.811 441.187 480.995 443.794 479.441C446.905 477.587 452.496 470.069 455.945 467.159C462.111 461.952 469.065 458.119 477.207 457.314L461.843 472.286C459.953 475.283 453.315 482.888 455.882 486.161C457.622 488.378 459.819 486.745 461.489 485.333C465.371 482.044 470.301 475.489 474.435 471.489C477.42 468.602 481.562 466.354 484.326 463.254C486.169 461.187 488.626 455.468 490.618 454.545C492.611 453.622 501.439 455.476 504.392 455.728C506.605 455.918 508.865 455.626 511.078 455.744L493.745 467.955C490.666 470.424 480.074 482.927 480.334 486.067C480.468 487.755 482.019 489.025 483.736 488.765C486.256 488.386 493.548 479.693 496.115 477.421C502.541 471.726 510.07 464.39 518.96 463.632C512.353 471.497 500.021 480.9 498.682 491.841C498.21 495.754 499.242 498.925 503.266 495.635C505.959 493.434 509.518 486.516 512.251 483.345C518.811 475.749 528.056 470.124 533.891 461.66L560.69 471.529L548.87 476.632C541.987 480.103 527.946 490.681 525.103 497.789C523.89 500.818 522.331 507.61 527.647 505.922C529.623 505.291 538.569 495.88 541.428 493.632C550.799 486.264 561.926 480.813 573.699 478.644C574.196 479.701 572.195 480.679 571.51 481.176C563.706 486.848 554.358 489.79 548.098 497.954C545.231 501.686 537.356 517.147 547.751 513.376C556.532 500.494 569.093 493.971 581.11 485.262C582.433 484.3 585.567 480.206 586.732 480.513L625.942 506.742C625.391 508.714 624.43 510.457 624.068 512.516C621.382 527.67 621.311 544.204 623.138 559.255C624.225 568.184 627.8 591.612 638.455 593.608C654.071 596.527 644.243 578.865 642.346 570.787C639.637 559.255 637.983 546.846 637.101 535.022C637.03 534.091 636.447 530.707 637.873 530.699C640.471 542.855 643.338 555.089 646.937 566.977C649.197 574.439 653.355 590.082 659.119 595.004C663.277 598.562 670.499 599.745 672.995 593.821L656.788 526.747C657.891 526.557 657.859 528.072 658.158 528.9C660.568 535.519 662.23 542.571 664.64 549.236C667.671 557.606 676.562 583.156 683.272 587.368C700.148 597.955 693.32 570.961 691.359 563.491C687.382 548.321 679.665 531.243 671.585 517.825C667.467 510.986 661.505 504.478 657.702 497.812C654.308 491.865 651.748 483.953 648.543 477.8C631.462 445.063 594.316 409.116 562.69 390.255C552.421 384.134 541.247 381.91 530.222 377.816C524.969 375.867 519.724 372.404 513.873 370.527C493.028 363.814 457.071 360.998 435.061 361.85C431.218 361.999 419.87 364.169 417.145 363.475C416.704 363.364 412.578 358.647 410.546 357.29C375.447 333.822 338.828 314.693 301.115 295.73C293.618 291.959 285.901 289.104 278.782 284.576C274.986 282.162 274.041 281.01 270.907 278.265C268.859 276.474 267.3 274.565 265.394 272.743C263.489 270.921 260.543 269.864 259.882 267.221C259.661 267.245 259.299 267.277 259.094 267.221C256.377 266.527 255.322 263.427 250.432 264.066V264.027ZM245.707 296.377C246.494 295.572 248.865 297.915 248.061 298.735C247.258 299.556 244.904 297.197 245.707 296.377ZM298.698 298.909C306.336 300.644 310.439 312.295 303.785 317.872C286.649 332.253 276.648 293.892 298.698 298.909ZM249.644 300.321C250.936 299.698 253.464 302.585 252.786 303.468C252.156 302.798 249.298 300.494 249.644 300.321ZM316.015 313.873C346.026 330.699 374.959 349.276 403.931 367.829C409.585 371.45 417.98 379.299 424.075 379.993C428.28 380.466 433.139 379.654 437.455 379.993C471.498 382.683 504.486 388.899 537.104 398.499C563.241 406.19 582.976 425.871 604.813 441.111L636.699 478.604C638.353 482.107 634.652 484.458 631.588 482.919C604.404 457.827 572.865 437.664 537.829 425.382C513.858 416.981 485.641 415.64 460.544 411.294C443.203 408.288 426.138 403.76 408.774 400.834C385.81 384.189 365.493 364.279 344.152 345.663C333.505 336.378 321.929 327.922 311.998 317.896C311.179 314.378 312.542 313.116 316.007 313.873H316.015ZM656.001 525.919C655.607 522.637 657.166 522.637 656.772 525.919H656.001Z" fill="#39BEB6"/>
<path d="M259.094 267.182C258.165 266.093 257.622 265.155 257.48 263.672C256.897 257.456 257.85 250.317 257.512 243.919C255.409 204.667 245.266 160.848 231.351 124.191C194.071 26.0207 110.541 -50.3618 16.7973 -93.9999C14.4112 -94.2208 14.3482 -89.4326 15.75 -88.1862C25.0109 -84.0528 34.201 -79.4381 43.0604 -74.5237C129.606 -26.5076 200.725 47.8082 232.091 143.162C243.132 176.727 250.133 212.114 251.999 247.453C250.621 247.24 250.645 245.868 250.219 244.905C246.888 237.356 244.329 229.413 240.887 221.911C210.585 155.791 160.374 102.348 93.4681 72.9798C64.3858 60.2165 31.8385 51.0976 0.00791337 49.449V54.182C43.1706 58.5521 85.3489 72.1515 122.479 94.4123C184.786 131.756 229.532 194.823 250.44 264.019C255.33 263.38 256.385 266.48 259.102 267.174L259.094 267.182Z" fill="#16948C"/>
<path d="M265.394 272.704C265.009 270.826 266.143 270.298 266.962 269.146C362.43 134.469 523.504 -4.80712 694.982 -16.7895C698.179 -17.0103 711.567 -16.1742 713.15 -18.3119C717.37 -24.023 704.692 -22.2876 702.881 -22.2797C546.869 -21.412 382.621 111.695 290.279 228.616C281.585 239.62 272.757 254.355 263.796 264.405C262.607 265.738 261.772 267.008 259.874 267.19C260.536 269.832 263.489 270.897 265.387 272.711L265.394 272.704Z" fill="#16948C"/>
<path d="M270.907 278.226C274.041 280.971 274.986 282.122 278.782 284.536C279.034 281.886 281.688 280.797 283.578 279.48C294.264 271.978 309.833 263.837 321.567 257.582C418.641 205.85 548.027 170.25 657.733 194.057C671.845 197.118 685.666 201.567 698.935 207.215C701.691 206.726 702.762 203.602 700.534 201.662C699.786 201.015 688.517 196.66 686.54 195.966C623.391 173.698 537.065 179.069 472.648 194.357C403.23 210.828 335.356 239.967 275.592 278.628L270.915 278.233L270.907 278.226Z" fill="#16948C"/>
<path d="M316.015 313.873C312.55 313.116 311.187 314.386 312.006 317.896C321.929 327.914 333.513 336.378 344.16 345.663C365.501 364.271 385.818 384.189 408.782 400.834C426.146 403.76 443.211 408.296 460.552 411.294C485.649 415.64 513.865 416.981 537.837 425.382C572.88 437.664 604.42 457.827 631.596 482.919C634.66 484.458 638.361 482.107 636.707 478.604L604.821 441.111C582.984 425.871 563.249 406.182 537.112 398.499C504.486 388.907 471.506 382.691 437.462 379.993C433.147 379.654 428.28 380.466 424.083 379.993C417.988 379.306 409.585 371.45 403.939 367.829C374.967 349.284 346.042 330.699 316.023 313.873H316.015Z" fill="#FBF5E7"/>
<path d="M298.698 298.909C276.648 293.892 286.649 332.253 303.785 317.872C310.439 312.288 306.336 300.644 298.698 298.909Z" fill="#16948C"/>
<path d="M245.707 296.377C244.904 297.197 247.274 299.54 248.062 298.735C248.849 297.931 246.494 295.572 245.707 296.377Z" fill="#FBF5E7"/>
<path d="M249.644 300.321C249.298 300.494 252.156 302.798 252.786 303.468C253.472 302.585 250.936 299.698 249.644 300.321Z" fill="#FBF5E7"/>
</g>
</g>
<defs>
<clipPath id="clip0_504_11357">
<rect width="669" height="516" fill="white"/>
</clipPath>
<clipPath id="clip1_504_11357">
<rect width="714" height="704" fill="white" transform="matrix(-1 0 0 1 714 -94)"/>
</clipPath>
</defs>
</svg>
