<svg width="30" height="30" viewBox="0 0 30 30" fill="none" xmlns="http://www.w3.org/2000/svg">
<rect width="30" height="30" rx="15" fill="#EAE7E7"/>
<path d="M4.00787 14.568C4.22406 12.9455 7.07864 12.9098 8.14701 13.6591L8.85856 14.1167V6.46601C8.85856 6.2813 9.12723 5.78595 9.25316 5.62853C9.84717 4.875 10.7875 4.70289 11.6691 5.04712C12.4394 3.69539 14.4334 3.60723 15.1533 5.04712C16.1272 4.68819 17.2145 4.89599 17.756 5.83212C17.8421 5.97905 18.0268 6.39255 18.0268 6.54577V7.59105C19.2967 7.22163 20.5539 7.98775 20.6589 9.33318C20.724 10.1581 20.7324 11.6756 20.6589 12.4963C20.5854 13.317 19.4541 13.3128 19.3806 12.5383C19.2904 11.5791 19.4793 10.4624 19.3764 9.5053C19.2736 8.54817 18.1548 8.57546 18.0352 9.38776C17.8904 10.3701 18.115 11.6441 18.0268 12.66C17.9533 13.4933 16.8199 13.4471 16.7485 12.702C16.6625 11.8162 16.7569 10.6639 16.7527 9.74458C16.7485 8.82524 16.8367 7.72748 16.7464 6.8795C16.6415 5.89509 15.4661 5.93707 15.3926 6.87321V15.2396C15.273 15.884 14.446 15.9953 14.1584 15.4097C14.0619 12.6684 14.1563 9.9062 14.1227 7.15867C14.1185 6.80814 14.15 6.33168 14.1206 6.01264C14.0346 5.05341 12.8634 5.06181 12.7647 5.93078L12.7248 14.5071C12.4981 15.0696 11.6838 15.0277 11.499 14.4546C11.4466 11.8498 11.5599 9.23663 11.4403 6.63812C11.1758 5.91398 10.2376 6.05042 10.1347 6.79345V15.863C10.099 16.3248 9.5827 16.5704 9.1776 16.3647C8.9719 16.2597 8.5773 15.6531 8.3695 15.4495C7.63907 14.7317 6.64416 14.2342 5.60308 14.5806C5.42677 14.6393 5.24416 14.6813 5.3638 14.8786C5.48344 15.0759 5.99138 15.4726 6.18869 15.6951C7.93292 17.666 8.03997 20.4702 9.84507 22.4265C10.2313 22.8442 10.5776 22.9848 10.9764 23.308C11.5872 23.8034 11.0877 24.6912 10.3698 24.4457C9.36651 24.1014 8.19949 22.5167 7.69993 21.6121C6.84146 20.0547 6.44896 17.9935 5.30293 16.6606C4.82856 16.1086 4.09813 15.693 4.00787 14.8975C3.99738 14.8136 3.99738 14.6498 4.00787 14.5701V14.568Z" fill="#FF9500"/>
<path d="M25.0541 23.348V23.6754C24.9134 24.3975 24.4202 24.8592 23.6981 24.9873H14.1206C13.111 24.8194 12.5107 23.8328 12.92 22.8673L17.8588 14.9144C18.5305 14.3015 19.5527 14.3561 20.1131 15.0865C21.5362 17.6493 23.4148 20.1114 24.798 22.6763C24.905 22.8757 25.0247 23.1192 25.052 23.3459L25.0541 23.348ZM23.6876 23.625L23.7359 23.4907L19.072 15.882C19.0112 15.7666 18.8412 15.775 18.7635 15.8694L14.1206 23.4949C14.1143 23.6083 14.192 23.6775 14.3053 23.6775H23.4757L23.6897 23.625H23.6876Z" fill="#FF9500"/>
<path d="M18.8389 17.9828C19.2776 17.9408 19.5547 18.2872 19.5883 18.6902C19.6198 19.0638 19.6387 20.1825 19.5694 20.5205C19.4162 21.2656 18.3415 21.211 18.2701 20.4575C18.2365 20.0902 18.2156 18.7783 18.2806 18.4551C18.3268 18.2242 18.6039 18.0059 18.8389 17.9828Z" fill="#FF9500"/>
<path d="M18.8388 21.9206C19.6994 21.8366 19.8149 23.1044 19.0718 23.2219C18.0706 23.3793 18.0161 22.0024 18.8388 21.9206Z" fill="#FF9500"/>
</svg>
