<svg width="669" height="516" viewBox="0 0 669 516" fill="none" xmlns="http://www.w3.org/2000/svg">
<g clip-path="url(#clip0_504_11320)">
<rect width="669" height="516" fill="#D9D9D9" fill-opacity="0.6"/>
<g clip-path="url(#clip1_504_11320)">
<path d="M543.59 140.57C551.57 139.92 567.16 137.04 573.39 137.34C576.41 137.48 575.4 140.8 576.34 140.58C579.29 138.79 586.68 136.61 590.16 136.07C590.5 136.02 592.7 140.96 595.42 140.58L595.46 136C595.85 135.53 605.46 137.52 606.92 137.3C621.16 135.19 636.24 134.21 651.03 132.89C658.26 132.24 666.86 130.66 663.26 139.01C665.74 137.94 664.69 133.33 666.5 132.84C667.76 132.5 676.77 132.56 678.22 132.9C680.2 133.37 679.87 138.11 683.08 137.52L680.81 132.95L751.7 132.93L747.91 137.51C753.77 138.2 763.97 131.22 765.4 137.52C774.01 132.9 786.57 136.56 796.7 134.47C794.08 145.88 798.31 137.64 800.14 136.42C805.68 132.73 812.79 139.15 818.78 139.06L816.52 136C821.45 133.26 822.72 139.93 824.89 139.06C826.44 138.44 824.7 135.44 827.92 135.94C846.61 138.85 867.79 138.4 886.67 142.61C888.47 143.01 889.58 142.24 891.23 142.1L891.97 145.16C894.01 138.77 904.13 143.28 909.75 142.77C943.28 139.75 962.85 119.11 990.69 103.9C992.44 102.94 993.65 99.2298 998.62 99.2998C1000.22 99.3198 998.48 103.28 1000.98 102.44C1000.54 96.3198 1005.71 94.0198 1011.11 93.3398C1013.58 93.0298 1015.98 94.5798 1017.08 94.4698C1019.34 94.2398 1018.74 89.6798 1019.53 88.9798C1020.32 88.2798 1037.95 85.2298 1039.63 85.6698C1040.81 85.9798 1040.7 88.7798 1041.33 88.7098C1042.55 88.5798 1048.71 84.4098 1049.78 85.6798C1051.57 92.8998 1044.62 99.3298 1037.59 99.4198L1040.62 101.68C1037.06 105.45 1036.16 109.62 1036.04 114.64L1033.03 111.61C1030.23 117.29 1034.18 122.32 1034.54 126.85C1034.83 130.58 1034.74 135.27 1034.54 139.05C1034.49 139.93 1032.24 141.75 1033.02 145.56C1033.22 146.51 1046.22 157.47 1046.4 159.63C1046.54 161.32 1042.76 163.8 1043.71 166.5L1050.29 162.07C1055.15 162.85 1053.69 165.94 1054.93 167.38C1062.19 175.77 1059.59 169.77 1065.77 169.68C1067.3 169.66 1075.15 172.05 1077.62 172.73C1088.02 175.59 1102.58 183.91 1113.8 188.45C1117.87 190.09 1126.41 190.28 1130.29 192.01C1132.9 193.17 1133.31 196.63 1135.53 197.53C1139.53 199.15 1157.43 204.35 1161.1 204.63C1161.6 204.67 1162.12 204.61 1162.62 204.63C1166.85 206.25 1166.87 211.9 1167.21 212.23C1167.75 212.76 1172.59 210.99 1174.9 211.36C1175.75 211.5 1189.52 217.91 1190.59 218.6C1193.7 220.61 1192.6 223.49 1193.37 224.18C1193.93 224.69 1201.2 224.91 1204.12 226.1C1213.58 229.98 1233.85 244.2 1243.43 250.37C1256.79 258.96 1265.18 265.71 1276.97 276.29C1273.18 277.7 1277.76 278.08 1280.02 279.34C1280.55 279.83 1281.02 280.38 1281.54 280.86C1283.65 284.28 1284.8 287.62 1289.16 288.48C1290.2 289.51 1291.18 290.49 1292.21 291.53C1294.8 295.83 1298.05 300.44 1302.88 302.2C1303.36 302.73 1303.92 303.19 1304.4 303.72C1305.09 308.38 1309.92 311.71 1313.55 314.39C1326.62 329.97 1336.03 342.15 1345.57 360.13C1349.62 367.76 1353.93 376.87 1358.04 385.01C1363.66 396.12 1363.52 402.1 1373.01 410.44C1376.63 413.62 1385.04 418.26 1386.73 421.11C1387.04 421.63 1386.33 423.51 1386.79 424.12C1386.98 424.37 1390.37 422.79 1393.17 424.21C1399.59 427.48 1412.18 428.74 1420.79 430.22C1421.86 430.4 1421.85 432.69 1422.13 432.77C1423.19 433.06 1430.59 433.13 1430.81 433.51C1431.45 434.64 1430.56 437.34 1430.96 437.89C1431.16 438.17 1434.95 435.83 1437.59 436.28C1438.67 436.46 1438.5 439.1 1440.46 439.87C1445.83 441.98 1454.35 443.71 1459.92 447.8C1462.02 449.34 1462.72 452.53 1463.2 452.83C1463.64 453.1 1465.7 451.61 1467.4 452.39C1468.47 452.88 1474.7 456.06 1474.92 456.42C1475.91 458.04 1474.68 461.56 1475.17 462.29C1475.3 462.48 1477.44 460.92 1479.64 461.53C1483.42 462.58 1484.66 467.82 1488.88 468.37C1489.39 468.87 1489.9 469.38 1490.4 469.89C1489.76 475.64 1497.73 479.21 1500.84 483.08C1511.15 495.91 1517.86 515.69 1523.94 530.88C1523.99 531.38 1523.92 531.9 1523.94 532.4L1521.61 541.58C1513.58 542.25 1509.16 535.42 1502.95 532.75C1500.71 531.79 1498.33 531.63 1496.49 530.87C1496.06 530.69 1495.4 531.05 1494.97 530.87C1493.99 528.47 1492.11 527.21 1489.96 525.98C1465.21 511.77 1429.97 520.98 1402.48 512.82C1392.53 509.87 1387.94 502.91 1379.1 500.37C1377.73 499.98 1376.31 498.61 1374.53 498.85C1369.81 507.83 1367.47 515.7 1359.2 522.4C1342.25 536.15 1321.9 538.09 1304.39 555.26C1303.88 555.76 1303.36 556.27 1302.87 556.78C1298.4 561.46 1295.1 564.67 1291.37 570.44C1290.24 572.2 1286.98 574.96 1290.67 576.61C1290.28 577.25 1289.43 577.67 1289.15 578.13C1288.96 578.45 1287.53 578.72 1286.94 579.73C1283.36 585.85 1285.08 595.98 1273.77 589.33C1266.71 572.5 1264.86 554.38 1266.26 536.2C1266.9 527.86 1271.52 511.92 1274.72 506.06C1277.96 500.12 1276.27 501.5 1277.27 496.96C1279.57 486.52 1291.7 471.19 1298.3 462.26C1307.84 449.35 1319.78 445.41 1303.6 431.8C1273.57 406.54 1239.45 405.03 1208.34 389.08C1168.18 368.49 1146.67 357.71 1101.61 346.39V343.38C1096.56 344.73 1090.17 340.49 1086.36 340.29C1085.85 340.26 1085.33 340.34 1084.84 340.29C1063.51 337.02 1041.62 332.57 1020.03 331.16C1014.46 330.8 1005.99 330.1 1000.99 332.67C999.97 332.69 998.96 332.67 997.94 332.67L997.25 331.52C996.77 331.75 996.55 332.66 996.41 332.67C994.96 332.79 993.29 332.76 991.84 332.67C992.69 328.07 989.51 329.72 986.57 329.62C976.95 329.3 967.14 329.47 957.51 329.59C954.93 329.62 950.73 328.61 949.15 331.14C948.64 331.14 948.13 331.14 947.63 331.14L936.15 328.12L936.96 331.13C932.64 331.27 928.26 330.97 923.93 331.14C921 331.26 917.81 329.57 918.66 334.19C917.65 334.27 916.61 334.11 915.61 334.19C912.34 331.89 898.57 330.67 900.36 335.71C899.36 335.81 898.31 335.61 897.31 335.71C895.82 331.27 893.11 333.47 889.69 334.2L891.21 335.71C878.28 337.13 865.38 340.57 851.57 341.81C836.59 343.16 824.97 345.93 810.4 350.96C801.58 354.01 799.54 354.14 790.58 355.53C783.71 356.6 776.77 357.27 769.93 358.75L766.2 355.54L765.34 360.21C723.82 365.25 681.57 368.8 639.65 365.42C636.88 365.2 634.39 362.67 635.06 367.73C626.68 367.24 618.21 366.48 609.98 364.76C608.76 365.73 607.23 366.61 607.63 368.46C608.4 372.07 639.85 387.11 645.93 391.16C679.13 413.28 693.17 437.42 711.29 471.41C718.62 485.15 724.07 498.5 734.16 511.05C736.49 513.95 738.22 515 740.26 517.15C740.75 517.67 741.29 518.16 741.78 518.67C745.56 525.94 760.29 533.44 754 543.51C749.36 550.94 713.58 543.19 705.16 540.8C681.85 534.18 661.54 522.64 640.76 512.13C636.43 509.94 630.68 507.37 625.89 506.48C612.52 497.97 599.14 488.56 587.77 477.51C557.16 447.75 535.61 406.56 511.48 371.6C498.46 369.25 485.68 366.86 473.1 362.72C461.44 358.89 438.75 345.76 429.2 344.87C429.92 340.48 429.22 341.16 426.28 339.45C414.01 332.29 396.24 330.54 382.03 321.14C368.82 312.39 360.92 297.18 348.75 288.51C306.51 258.44 242.9 264.18 193.56 261.07C158.54 258.86 123.58 255.72 89.1799 248.81C95.8899 232.2 135.16 223.19 151.69 218.32C153.41 221.57 156.65 219.17 158.81 218.59C186.25 211.28 232.48 197.19 259.46 195.54C264.52 195.23 262.7 198.81 263.72 198.51C265.83 197.89 269.18 194.18 272.12 193.15C280.67 190.15 289.32 191.83 295.48 190.42C307.41 187.7 324.47 185.26 335.12 180.73C343.13 177.33 343.5 177.12 351.41 172.58C351.93 172.28 352.35 171.35 352.93 171.06C355.37 172.76 363.79 173.24 362.1 169.55H363.59L365.12 174.1C365.27 171.17 363.57 169.83 367.46 169.52C372.73 169.09 384.15 163.65 390.43 163.4C393.63 163.27 395.24 165.91 396.4 165.95C397.09 165.97 405.58 161.79 409.28 161.08C440.29 155.18 470.83 152.66 499.84 149.13C505.81 148.4 516.84 148.49 519.9 147.91C520.86 147.73 520.72 144.96 523.59 144.2C528.12 143.02 528.97 143.78 534.38 142.1C537.65 141.09 540.17 140.85 543.53 140.58L543.59 140.57ZM407.42 276.74C391.57 258.89 373.01 290.4 388.76 299.22C402.52 306.92 417.41 288 407.42 276.74Z" fill="#2AAA9F"/>
<path d="M87.71 256.45C88.07 256.55 88.69 258.72 91.59 259.56C110.75 265.1 144.08 262.7 162.91 267.15C164.17 267.45 163.42 270.24 166.18 270.34C170.85 270.51 175.88 267.8 181.58 268.51C184.5 268.87 183.09 271.53 185.99 271.84C192.21 272.51 199.05 269.13 205.99 270.05C208.9 270.43 207.44 272.94 210.35 273.33C217.5 274.28 224.35 271.11 230.33 271.52C233.21 271.72 231.84 274.57 234.77 274.89C239.96 275.46 245.68 273.09 251.56 273.19C290.11 273.83 324.01 284.31 353.73 308.33C380.04 329.59 393.84 341.57 429.24 344.88C438.79 345.77 461.48 358.9 473.14 362.73C485.72 366.87 498.5 369.26 511.52 371.61C535.65 406.57 557.2 447.76 587.81 477.52C581.7 476.93 575.53 477.48 569.51 477.52C564.93 474.98 554.59 474.93 549.69 477.52C549.18 477.52 548.67 477.52 548.17 477.52C542.46 474.89 531.32 475.05 525.3 477.52C524.26 477.95 523.3 478.61 522.25 479.04C522 477.83 521.81 477.82 520.73 477.52C520.32 477.41 519.73 477.56 519.21 477.52C509.65 476.83 499.79 476.84 490.24 476C488.74 475.87 487.17 476.12 485.67 476C475.04 475.12 464.45 472.29 453.65 472.95C448.63 471.98 443.45 470.91 438.4 469.9C420.87 466.38 405.18 463 388.09 457.7C375.24 453.72 359.59 448.72 348.41 444.96C344.7 443.71 334.75 440.82 332.27 439.56C328.77 437.78 328.91 435.37 328.43 435.05C328.03 434.78 324.83 436.74 322.16 436.12C319.49 435.5 309.89 429.64 305.71 428.02C304.18 427.43 299.17 425.17 298.13 427.2C278.56 418.45 261.2 409.22 243.24 398.23C234.24 392.72 226.46 388.12 217.32 382.98C180.56 362.31 147.3 337.49 113.51 310.69C99.77 299.82 79.98 290.95 77.11 270.82C76.2 264.4 81 254.54 87.71 256.45ZM545.12 454.67C544.09 453.59 519.96 455 515.32 454.73C375.27 446.6 282.33 368.84 168.39 301.56C162.5 298.08 152.26 290.56 157.86 302.94C262.38 367.47 362.35 443.2 488.15 459.02C501.19 460.66 520.92 463.16 533.65 462.27C535.47 462.14 544.68 461.13 545.08 460.72C545.29 460.5 545.32 454.89 545.11 454.67H545.12ZM327.08 425.69C327.28 425.51 329.02 420.91 327.1 420.39C255.14 385.7 186.11 344.81 121.22 298.3L116.69 301.45L136.01 317.15C193.7 354.43 253.31 394.1 316.37 421.91C318.18 422.71 326.18 426.48 327.07 425.69H327.08ZM528.34 440.93L527.68 434.74C517.24 432.47 505.29 432.98 494.24 431.59C391.81 418.7 318.88 367.87 234.21 315.02C227.69 310.95 215.53 300.75 209.64 298.41C203.79 296.09 201.88 299.64 206.78 304.33C221.5 318.42 263.6 341.32 283 353.14C343.12 389.77 395.16 420.5 465.82 434.09C486.7 438.11 507.2 439.34 528.34 440.92V440.93ZM513.1 410.45C497 409.32 478.67 406.97 462.7 403.66C390.45 388.66 344.52 352.28 283.32 316.22C279.86 314.18 253.78 298.07 252.38 299.15C250.98 300.23 250.53 306.74 253.96 307.46C334.49 353.32 403.4 409.39 500.15 416.52C507.25 417.04 515.55 418.94 513.1 410.45ZM497.64 387.79C496.5 386 462.4 379.69 456.36 377.99C396.94 361.25 373.06 340.57 323.01 310.08C320.95 308.82 306.53 300.08 305.75 300.68C305.54 300.84 304.7 304.75 304.5 305.79C355.97 343.45 405.67 373.58 468.85 388.36C476.24 390.09 488.51 393.64 495.55 393.73C499.11 393.78 498.6 389.33 497.63 387.79H497.64Z" fill="#95D4C6"/>
<path d="M932.39 332.68C931.69 337.79 934.21 335.07 936.95 335.04C944.93 334.95 954.67 332.78 961.36 332.68C961.87 332.68 962.38 332.68 962.88 332.68C973.09 332.49 985.94 332.77 996.42 332.68C996.93 332.68 997.44 332.68 997.94 332.68C998.96 332.68 999.97 332.7 1000.99 332.68C1027.3 332.2 1059.15 337.5 1084.85 340.3C1085.35 340.35 1085.87 340.27 1086.37 340.3C1088.76 346.03 1095.91 344.97 1101.62 346.4C1146.68 357.72 1168.19 368.5 1208.35 389.09C1056.23 352.55 916.43 443.48 769.79 465.12L711.3 471.43C693.18 437.45 679.14 413.3 645.94 391.18C639.86 387.13 608.41 372.09 607.64 368.48C607.25 366.63 608.77 365.75 609.99 364.78C618.22 366.5 626.69 367.26 635.07 367.75C639.61 368.01 644.25 367.55 648.79 367.75C647.94 372.35 651.12 370.7 654.06 370.8C661.33 371.04 671.12 371.91 677.76 369.28C678.27 369.28 678.78 369.28 679.28 369.28C684.64 371.6 694.26 371.42 700.02 370.91C702.86 370.66 704.91 369.31 705.2 369.28C730.7 366.55 757.76 363.47 783.5 358.39C786.07 357.88 788.76 357.81 790.58 355.56C799.54 354.17 801.58 354.03 810.4 350.99L851.57 341.84C865.38 340.6 878.28 337.16 891.21 335.74C893.2 335.52 895.31 335.95 897.31 335.74C898.31 335.64 899.36 335.84 900.36 335.74C905.44 335.21 910.51 334.64 915.61 334.22C916.61 334.14 917.65 334.3 918.66 334.22C923.24 333.87 927.42 332.98 932.38 332.7L932.39 332.68Z" fill="#91D2C4"/>
<path d="M453.64 472.96C463.62 474.89 475.52 480.16 485.66 476.01C487.17 476.13 488.73 475.88 490.23 476.01C489.38 480.61 492.56 478.96 495.49 479.06C502.18 479.29 507.55 479.81 514.09 480.4C517.04 480.66 520 482.13 519.2 477.54C519.73 477.58 520.31 477.43 520.72 477.54C520.92 485.92 520.44 494.37 520.72 502.77C520.82 505.71 519.17 508.89 523.77 508.04C524.71 513.57 526.77 520.81 528.34 526.34C530.99 535.64 538.49 543.96 534.22 553.58C510.1 554.96 488.82 538.3 471.96 524.01C469.59 522 471.74 522.34 467.35 520.24C464.93 515.22 466.27 518.39 462.78 515.67C450.8 506.34 440.62 484.86 438.38 469.93C443.42 470.94 448.61 472.01 453.63 472.98L453.64 472.96Z" fill="#2AAA9F"/>
<path d="M89.2299 248.83C123.63 255.74 158.58 258.88 193.61 261.09C242.94 264.2 306.56 258.46 348.8 288.53C360.97 297.19 368.87 312.41 382.08 321.16C396.29 330.57 414.06 332.32 426.33 339.47C429.27 341.18 429.97 340.5 429.25 344.89C393.84 341.58 380.04 329.6 353.74 308.34C324.02 284.32 290.12 273.85 251.57 273.2C245.69 273.1 239.98 275.47 234.78 274.9C231.85 274.58 233.21 271.73 230.34 271.53C224.36 271.12 217.51 274.29 210.36 273.34C207.45 272.95 208.91 270.44 206 270.06C199.06 269.14 192.22 272.52 186 271.85C183.11 271.54 184.51 268.89 181.59 268.52C175.9 267.81 170.86 270.52 166.19 270.35C163.43 270.25 164.18 267.46 162.92 267.16C144.1 262.7 110.77 265.1 91.5999 259.57C88.6999 258.73 88.0899 256.56 87.7199 256.46C86.7999 253.05 88.1799 251.46 89.2399 248.84L89.2299 248.83Z" fill="#047669"/>
<path d="M351.48 172.59C343.57 177.13 343.2 177.34 335.19 180.74C324.54 185.27 307.48 187.71 295.55 190.43C289.39 191.83 280.74 190.15 272.19 193.16C269.25 194.19 265.9 197.9 263.79 198.52C262.77 198.82 264.59 195.24 259.53 195.55C232.54 197.2 186.32 211.29 158.88 218.6C156.72 219.18 153.47 221.58 151.76 218.33C174.76 211.55 198.16 205.62 221.6 200.5C264.93 191.05 309.54 186.98 351.49 172.58L351.48 172.59Z" fill="#17A69E"/>
<path d="M534.44 142.1C529.02 143.78 528.17 143.02 523.65 144.2C520.78 144.95 520.92 147.72 519.96 147.91C516.9 148.49 505.88 148.41 499.9 149.13C470.89 152.66 440.35 155.19 409.34 161.08C405.64 161.78 397.15 165.97 396.46 165.95C395.3 165.91 393.68 163.28 390.49 163.4C384.21 163.65 372.79 169.09 367.52 169.52C363.63 169.83 365.34 171.18 365.18 174.1L363.65 169.54H362.16C363.85 173.24 355.44 172.76 352.99 171.06C371.5 161.63 394.59 162 414.55 158.67C451.27 152.53 489.59 145.29 526.52 141.01C528.97 140.73 532.86 139.26 534.44 142.1Z" fill="#17A69E"/>
<path d="M543.59 140.57C545.18 137.8 547.77 137.95 550.47 137.54C628.36 125.52 712.69 131.91 791.42 131.36C832.64 130.16 888.79 146.99 927.85 136.79C953.05 130.21 972.2 110.44 994.44 98.18C1006.47 91.55 1035.61 79.11 1048.78 82.61C1050.47 83.06 1049.6 85.49 1049.79 85.68C1050.37 86.25 1054.31 83.79 1052.45 90.61C1051.31 94.8 1047.83 95.74 1046.27 98.26C1040.52 107.57 1036.74 116.04 1034.54 126.84C1034.19 122.31 1030.24 117.28 1033.03 111.6L1036.04 114.63C1036.17 109.61 1037.07 105.44 1040.62 101.67L1037.59 99.41C1044.62 99.32 1051.57 92.89 1049.78 85.67C1048.71 84.4 1042.55 88.58 1041.33 88.7C1040.7 88.77 1040.81 85.96 1039.63 85.66C1037.95 85.22 1020.3 88.3 1019.53 88.97C1018.76 89.64 1019.34 94.23 1017.08 94.46C1015.98 94.57 1013.58 93.02 1011.11 93.33C1005.71 94.01 1000.54 96.31 1000.98 102.43C998.49 103.27 1000.22 99.31 998.62 99.29C993.65 99.22 992.44 102.94 990.69 103.89C962.84 119.1 943.27 139.74 909.75 142.76C904.13 143.27 894.01 138.75 891.97 145.15L891.23 142.09C889.57 142.23 888.46 143 886.67 142.6C867.78 138.39 846.61 138.84 827.92 135.93C824.7 135.43 826.44 138.43 824.89 139.05C822.71 139.93 821.45 133.26 816.52 135.99L818.78 139.05C812.79 139.14 805.68 132.72 800.14 136.41C798.31 137.63 794.08 145.87 796.7 134.46C786.57 136.55 774.01 132.89 765.4 137.51C763.98 131.21 753.77 138.19 747.91 137.5L751.7 132.92L680.81 132.94L683.08 137.51C679.86 138.09 680.19 133.36 678.22 132.89C676.76 132.54 667.76 132.49 666.5 132.83C664.7 133.31 665.74 137.93 663.26 139C666.86 130.65 658.26 132.23 651.03 132.88C636.24 134.21 621.16 135.18 606.92 137.29C605.46 137.51 595.84 135.51 595.46 135.99L595.42 140.57C592.7 140.95 590.5 136.01 590.16 136.06C586.68 136.59 579.29 138.78 576.34 140.57C575.4 140.79 576.41 137.47 573.39 137.33C567.16 137.04 551.57 139.91 543.59 140.56V140.57Z" fill="#17A69E"/>
<path d="M625.93 506.5C630.72 507.4 636.46 509.96 640.8 512.15C661.58 522.66 681.88 534.21 705.2 540.82C713.61 543.21 749.4 550.96 754.04 543.53C760.33 533.46 745.6 525.96 741.82 518.69C744.8 521.78 754.94 529.33 756.27 532.44C759.57 540.14 755.82 546.7 748.03 548.53C718.03 555.6 651.88 523.01 625.95 506.49L625.93 506.5Z" fill="#17A69E"/>
<path d="M298.12 427.21C299.15 425.18 304.16 427.43 305.7 428.03C309.88 429.65 319.47 435.5 322.15 436.13C324.83 436.76 328.02 434.79 328.42 435.06C328.89 435.38 328.76 437.79 332.26 439.57C334.74 440.83 344.69 443.72 348.4 444.97C359.57 448.73 375.22 453.73 388.08 457.71C357.05 452.81 326.66 439.97 298.12 427.22V427.21Z" fill="#91D2C4"/>
<path d="M462.78 515.65C466.27 518.37 464.94 515.2 467.35 520.22C471.74 522.32 469.59 521.98 471.96 523.99C488.82 538.27 510.1 554.94 534.22 553.56C538.49 543.94 530.99 535.63 528.34 526.32C553.49 561.8 527.61 561.27 500.38 547.43C491.96 543.15 470.71 527.18 467.36 520.22C465.33 519.25 463.68 520.91 462.79 515.65H462.78Z" fill="#17A69E"/>
<path d="M522.25 479.05C523.5 485.15 521.56 495.06 522.25 501.92L523.77 503.44C523.97 504.89 523.53 506.61 523.77 508.01C519.17 508.86 520.82 505.68 520.72 502.74C520.44 494.35 520.92 485.89 520.72 477.51C521.8 477.81 522 477.82 522.24 479.03L522.25 479.05Z" fill="#17A69E"/>
<path d="M548.17 477.53C540.56 477.53 532.91 477.53 525.3 477.53C531.32 475.06 542.46 474.9 548.17 477.53Z" fill="#91D2C4"/>
<path d="M569.51 477.53C562.92 477.57 556.28 477.47 549.69 477.53C554.59 474.94 564.93 474.99 569.51 477.53Z" fill="#91D2C4"/>
<path d="M217.31 383C226.45 388.14 234.23 392.74 243.23 398.25C233.82 395.31 224.73 389.45 217.31 383Z" fill="#91D2C4"/>
<path d="M523.77 503.45L522.25 501.93C522.26 502.04 523.62 502.31 523.77 503.45Z" fill="#2AAA9F"/>
<path d="M407.42 276.74C417.41 287.99 402.52 306.91 388.76 299.22C373.01 290.41 391.57 258.89 407.42 276.74Z" fill="#047669"/>
<path d="M635.07 367.75C634.4 362.68 636.89 365.21 639.66 365.44C681.59 368.82 723.83 365.27 765.35 360.23L766.21 355.56L769.94 358.77C776.78 357.29 783.72 356.62 790.59 355.55C788.77 357.8 786.08 357.87 783.51 358.38C757.77 363.46 730.71 366.54 705.21 369.27C696.59 369.23 687.91 369.32 679.29 369.27C678.78 369.27 678.27 369.27 677.77 369.27C667.95 369.11 658.5 368.18 648.8 367.75C644.25 367.55 639.62 368.01 635.08 367.75H635.07Z" fill="#17A69E"/>
<path d="M545.12 454.67C545.33 454.89 545.3 460.5 545.09 460.72C544.69 461.13 535.48 462.14 533.66 462.27C520.93 463.17 501.19 460.66 488.16 459.02C362.36 443.2 262.38 367.47 157.87 302.94C152.27 290.56 162.51 298.08 168.4 301.56C282.34 368.84 375.28 446.6 515.33 454.73C519.97 455 544.1 453.6 545.13 454.67H545.12Z" fill="#17A69E"/>
<path d="M528.34 440.93C507.2 439.34 486.7 438.11 465.82 434.1C395.16 420.51 343.12 389.78 283 353.15C263.6 341.33 221.51 318.43 206.78 304.34C201.88 299.65 203.79 296.1 209.64 298.42C215.53 300.76 227.69 310.96 234.21 315.03C318.87 367.88 391.81 418.72 494.24 431.6C505.3 432.99 517.25 432.48 527.68 434.75L528.34 440.94V440.93Z" fill="#17A69E"/>
<path d="M513.1 410.45C515.55 418.94 507.25 417.05 500.15 416.52C403.4 409.39 334.49 353.32 253.96 307.46C250.53 306.74 250.95 300.26 252.38 299.15C253.81 298.04 279.86 314.18 283.32 316.22C344.52 352.28 390.45 388.67 462.7 403.66C478.67 406.98 497 409.32 513.1 410.45Z" fill="#17A69E"/>
<path d="M327.08 425.69C326.19 426.48 318.19 422.71 316.38 421.91C253.32 394.11 193.71 354.44 136.02 317.15L116.7 301.45L121.23 298.3C186.11 344.81 255.15 385.7 327.11 420.39C329.02 420.9 327.28 425.51 327.09 425.69H327.08Z" fill="#17A69E"/>
<path d="M497.64 387.79C498.62 389.32 499.12 393.78 495.56 393.73C488.51 393.64 476.25 390.09 468.86 388.36C405.68 373.58 355.98 343.45 304.51 305.79C304.71 304.75 305.55 300.84 305.76 300.68C306.54 300.08 320.96 308.82 323.02 310.08C373.06 340.57 396.94 361.25 456.37 377.99C462.41 379.69 496.51 386 497.65 387.79H497.64Z" fill="#17A69E"/>
<path d="M519.2 477.53C520 482.12 517.04 480.66 514.09 480.39C507.56 479.81 502.19 479.29 495.49 479.05C492.56 478.95 489.37 480.6 490.23 476C499.77 476.84 509.64 476.84 519.2 477.52V477.53Z" fill="#17A69E"/>
<path d="M485.65 476C475.51 480.15 463.61 474.88 453.63 472.95C464.43 472.29 475.02 475.12 485.65 476Z" fill="#17A69E"/>
<path d="M677.77 369.28C671.13 371.91 661.34 371.05 654.07 370.8C651.13 370.7 647.95 372.35 648.8 367.75C658.49 368.18 667.95 369.12 677.77 369.27V369.28Z" fill="#95D4C6"/>
</g>
</g>
<defs>
<clipPath id="clip0_504_11320">
<rect width="669" height="516" fill="white"/>
</clipPath>
<clipPath id="clip1_504_11320">
<rect width="1448.65" height="512" fill="white" transform="translate(77 82)"/>
</clipPath>
</defs>
</svg>
