<svg width="669" height="516" viewBox="0 0 669 516" fill="none" xmlns="http://www.w3.org/2000/svg">
<g clip-path="url(#clip0_504_11440)">
<rect width="669" height="516" fill="#D9D9D9" fill-opacity="0.6"/>
<g clip-path="url(#clip1_504_11440)">
<path d="M347.01 118.1C348.24 118.01 349.29 117.49 349.54 117.47C349.75 117.46 349.97 117.47 350.17 117.47L351.44 118.1C351.66 118.31 351.86 118.51 352.07 118.73C352.15 118.82 351.86 119.55 352.18 119.86C352.69 120.34 355 120.43 355.87 120.63C356.62 121.04 357.45 121.37 358.4 121.9C359.59 122.96 360.08 124.16 361.91 124.28L362.2 123.8C362.95 124.25 363.4 124.55 364.1 125.07C364.49 125.36 364.74 125.76 365.37 125.7C365.6 125.89 365.79 126.18 366 126.33C366.65 126.8 367.23 127.16 367.9 127.6C368.2 127.79 368.68 127.9 369.17 128.23C368.82 130.7 369.51 130.17 371.7 130.13C381.78 136.71 399.02 147.39 406.55 156.4C412.58 163.62 406.76 168.87 411.07 176.58C415.34 184.22 420.71 181.5 427.05 183.4C431.78 184.81 441.3 198.51 444.15 203.03C444.91 204.23 450.74 214.54 450.22 215C441.86 213.96 438.32 218.53 441.02 226.42C442.17 229.79 446.85 232.12 448.57 235.33C450.83 239.52 449.5 243.72 455.91 244.51C457.44 244.7 459.35 243.66 460.06 244.73C459.47 250.02 463.43 264 461.31 268.2C460.87 269.07 456.39 270.91 455.06 272.08C449.47 277.03 445.16 293.18 450.82 298.92C453 301.13 455.77 300.38 455.01 304.31C454.08 309.15 441.27 331.5 437.81 335.9C434.94 339.55 431.65 339.11 427.62 340.91C417.77 345.3 404.15 351.84 403.94 364.15C403.91 365.88 405.2 367.11 403.98 368.54C403.49 369.11 396.44 374.09 395.77 374.29C393.03 375.11 389.36 374.33 386.21 374.86C378.68 376.13 365.94 384.61 364.77 392.68C364.48 394.68 364.96 396.53 364.42 398.66C363.2 403.42 357 405.87 356.48 414.81C356.18 419.85 361.43 429.44 365.39 432.49C369.06 435.32 377.1 438.48 380.19 433.42C384.02 427.14 371.33 418.95 370.54 412.09C370.26 409.65 371.76 407.58 372.96 405.61C372.85 407.38 376.86 408.53 378.16 408.96C426.67 424.96 479.49 388.8 509.7 353.81C552.7 304.01 581.17 243.29 645.77 215.81C715.06 186.33 804.46 201.42 855.54 257.72C927.43 336.96 917.11 469.13 809.9 509.12C780.16 520.21 753.64 519.21 723.77 525.58C706.47 529.27 686.49 539.85 682.16 558.69C680.66 565.23 683.27 576.78 676.9 580.66C669.97 584.88 661.31 578.65 657.32 573.1C644.29 554.98 653.24 526.89 666.6 511.43C708.05 463.45 793.19 482.25 817.39 418.43C838.35 363.15 786.96 321.84 734.44 336.11C700.97 345.21 683.92 373.53 666.93 400.95C650.3 427.79 636.31 455.56 616.78 480.62C569.47 541.34 516.13 571.14 439.6 582.73C367.01 593.72 261.45 585.83 207.67 530.05C143.6 463.59 162.26 374.67 223.79 314.37C233.51 304.84 245.79 296.13 255.14 286.82C256.06 285.9 256.68 285.54 256.45 284.01C266.2 295.71 310.59 288.5 324.21 284.32C333.48 281.48 338.74 277.78 348.53 276.34C354.65 275.44 352.42 274.6 354.8 271.52C357.7 267.76 368.08 263.3 372.35 257.73C375.42 253.73 377.77 245.15 369.98 248.39C367.56 249.4 360.66 256.2 357.73 258.3C334.53 274.92 301.75 284.48 273.25 282.1C269.57 281.79 260.95 279.71 258.07 280.2C256.9 280.4 256.29 281.07 255.83 282.1C254.64 280.8 245.82 277.21 243.37 275.88C240.8 274.48 237.72 272.68 235.56 270.71C253.21 275.7 278.03 271.9 295.27 266.14C300.81 264.29 306.42 261.05 311.85 259.29C321.92 256.02 335.41 255.71 341.04 244.79C342.97 241.04 342.83 236.08 337.8 235.29C324.3 233.16 315.72 247.24 304.61 252.69C287.69 260.98 264.27 266.68 245.39 265.65C240.34 265.37 233.36 262.99 228.6 263.76C229.12 261.09 225.94 260.3 225.42 262.8C225.01 264.78 225.84 264.48 227.33 264.39C227.08 264.65 226.96 265.31 226.7 265.66C221.9 263.06 216.87 260.95 211.98 258.53C211.05 258.07 210 258 209.6 256.8C216.3 256.54 207.31 251.58 208.97 249.84C210.88 249.4 211.59 252.38 212.31 252.83C213.25 253.41 215.48 252.98 216.28 254.93C216.88 256.37 214.85 257.71 215.3 259.34L219.1 259.98C218.54 257.02 215.5 255.19 219.74 253.65C219.92 253.74 221.59 254.07 222.27 254.28C221.81 256.03 223.8 255.6 225.11 256.19L225.43 254.91C225.96 255.06 227.87 255.41 227.96 255.54C228.11 255.74 227.82 256.66 227.96 256.8C228.38 257.21 229.15 256.18 229.22 256.17C229.84 256.12 230.5 256.15 231.12 256.17L232.07 258.71C232.78 255.94 235.91 258.14 237.82 258.1C238.72 258.08 239.27 257.43 239.35 257.43C240.82 257.45 242.33 257.33 243.78 257.43C244.55 257.48 246.65 259.47 246.31 256.8C271.83 256.38 293.94 247.59 312.1 229.79C319.95 222.1 331.28 204.84 332.44 193.8C332.77 190.67 331.32 181.33 327.34 186.33C325.08 189.17 323.38 199.33 320.41 201.08C320.19 201.21 319.41 200.91 319.17 201.11C319.11 201.16 319.6 202.04 319.29 202.78C318.38 204.94 317.45 205.47 316.61 208.05C316.54 208.26 316.7 208.63 316.61 208.68C316.37 208.82 315.48 208.52 315.34 208.68C315.14 208.92 315.52 210.18 315.34 210.58C314.83 211.73 314.15 211.84 313.44 212.48C313.36 212.56 312.7 212.24 312.31 212.63C312.07 212.87 310.54 216.31 310.27 216.91C310.07 217.13 309.84 217.32 309.64 217.54C309.1 218.14 309.07 218.73 309.01 218.81C308.81 219.04 308.58 219.22 308.38 219.44C308.33 219.49 307.73 219.41 307.11 220.07C306.59 220.63 306.31 221.47 305.84 221.97C302.25 219.84 303.8 222.36 303.32 224.05C303.26 224.25 301.9 225.28 301.41 225.77C300.28 226.9 299.72 226.98 298.88 227.67C296.06 227.56 294.95 228.04 294.45 230.84C293.73 231.35 292.58 232.95 291.92 233.37C292.18 230.24 289.64 233.95 288.79 233.34C288.72 233.29 288.62 232.31 288.09 231.85C285.93 229.99 285.04 230.14 285.59 226.41C285.72 226.27 288.74 226.91 289.39 227.04C290.24 229.92 292.02 227.77 291.29 227.04C290.69 226.94 289.94 227.15 289.39 227.04C288.89 225.36 288.22 224.88 288.16 224.67C287.82 223.43 288.1 221.5 287.49 220.08L290.65 221.34C288.48 216.28 294.44 219.21 296.6 217.61C297.07 217.26 297.61 213.62 298.6 212.52C299.84 211.14 302.47 212.08 302.04 209.95C300.55 209.92 298.6 210.35 297.56 209.05C297.41 208.86 295.7 204.81 295.69 204.57C295.67 204.07 297.68 204.65 296.98 202.99C293.38 202.46 294.87 203.67 294.03 206.04C292.51 210.33 291.81 206.76 291.6 206.76C290.6 206.77 288.97 209.28 288.13 207.09C286.94 203.99 292.64 206.33 291.94 203.28C291.53 201.47 290.25 201.97 290.02 201.7C288.91 200.43 292.01 200.73 291.24 198.9C291.04 198.43 289.52 197.41 289.05 197.28C287.35 196.84 288.53 198.88 288.02 199.7C287.88 199.92 285.82 200.65 285.58 200.43C285.73 198.75 287.39 197.94 286.85 196C286.61 195.74 283.21 196.84 284.32 194.42C285.01 192.9 286.42 193.86 287.48 194.1C287.5 194.52 287.44 194.95 287.48 195.36C288.49 195.72 290.36 195.16 289.38 194.1C289.24 193.95 287.98 194.21 287.48 194.1C287.28 190.46 291.73 191.93 294.45 190.93C294.81 191.5 298.39 195.61 298.88 196C298.39 196.94 297.37 197.41 297.62 198.53C298 198.94 301.35 197.39 302.05 197.27C305 196.74 307.93 198.19 309.23 194C310.53 189.81 310.64 182.46 307.75 178.9C306.56 174.78 310.98 177.36 310.91 174.47C310.04 174.09 307.31 175.32 307.12 175.1C306.98 174.94 306.3 170.92 304.59 172.56C304.49 172.66 304.7 174.3 303.99 174.83C303.59 175.13 301.77 173.95 301.42 175.1C300.28 174.81 298.15 174.72 296.99 175.1C297.36 173.71 296.7 172.78 295.34 172.6C294.18 172.45 294.24 175.19 293.19 173.83C291.38 171.47 297.3 170.18 296.35 167.5C294.39 167.08 293.9 170.3 292.79 170.63C291.39 171.04 287.33 167.5 289.08 167.49C293.46 169.75 293.83 165.62 294.16 165.56C295.8 165.27 298.72 166.48 300.79 165.6L300.16 168.76C301.29 168.69 302.46 169.17 303.38 168.35C304.21 167.62 304.32 164.43 305.86 165.92L306.48 168.77C305.8 165.37 307.62 166.35 310.28 165.6C310.93 168.33 309.01 169.64 308.39 171.92C309.68 172.28 311.45 172.38 312.53 173.16C314.04 174.26 315.37 178.72 315.8 178.9C320.27 180.77 320.47 178.47 321.05 174.46C320.06 174.01 318.51 176.43 317.89 175.72C317.32 175.06 318.7 172.26 319.18 171.96C319.98 171.45 322.34 174.66 323.58 174.79C323.47 175.82 320.24 177.33 321.69 178.89C322.98 180.28 325.99 175.72 325.49 174.46C326.25 173.77 329.16 177.86 328.69 174.12C328.5 172.6 325.96 172.67 326.79 171.32C326.9 171.13 328.63 171.78 328.02 170.03H325.48C327.92 166.5 321.08 162.33 326.12 162.43C325.55 164.27 325.81 165.43 328.02 164.95C326.81 161.24 327.18 159.66 322.32 159.25C321.78 157.14 323.86 158.33 324.22 157.99C325.27 157.01 322.57 156.56 322.31 155.16C321.79 152.31 323.17 151.03 323.59 148.49C322.7 147.5 319.97 152.11 319.75 152.27C319.14 152.71 315.71 147.54 314.86 153.4C313.91 159.97 319.76 154.17 320.42 154.83C320.54 155.78 319.64 156.75 319.73 157.61C319.79 158.13 321.52 157.69 321.05 158.93C320.25 160.6 317.23 159.57 315.78 159.9C315.22 160.03 315.65 161.24 314.46 161.18C312.53 161.09 312.18 159.38 310.6 158.63C309.73 162.94 308.88 159.23 308.64 159.2C307.89 159.13 306.11 160.18 305.86 159.89C305.74 159.75 305.57 158.4 306.29 157.98C306.47 157.87 309.77 156.69 309.97 156.69C310.29 156.69 310.05 158.71 312.19 157.35C312.74 156.14 309.67 155.08 309.16 154.96C306.59 154.33 306.11 157.45 303.33 156.72C305.26 151.66 301.67 153.15 301.42 156.72H300.8C301.04 154.61 298.14 155.49 297.14 154.68C295.38 153.24 298.42 151.22 292.56 153.56C292.19 152.6 293.55 149.49 293.19 149.13C293.01 148.96 292.12 149.27 291.75 149.13C289.34 148.22 295.65 146.15 296.36 145.32C296.53 145.56 297.75 146.67 298.26 147.22V149.12C298.85 149.35 299.46 148.49 299.53 148.49C301.18 148.57 303.91 150.93 306.18 150.94C308.24 150.94 309.93 149.44 311.56 148.49C311.77 148.37 312.45 148.6 312.83 148.49C313.24 147.62 312.21 146.77 312.2 146.59C311.91 142.94 311.68 141.79 310.3 138.36C313.36 138.55 309.85 135.68 309.82 134.35C309.77 132.45 311.29 132.44 312.83 132.66L310.94 135.82C316.43 134.27 314.5 136.84 315.38 137.72C316.53 138.88 316.66 136.41 317.01 136.41C317.2 136.41 319.1 137.01 319.17 137.1C319.91 138.04 316.17 139.58 316.16 141.96C316.16 142.21 317.73 146.44 317.94 146.58C319.98 147.93 321.15 142.96 321.12 141.23C321.11 140.39 320.71 139.75 320.44 139.01C322.1 139.91 324.17 138.92 325.14 138.99C325.36 139.01 325.58 141.13 328.67 139.64C328.88 139.84 328.24 141.7 328.04 142.17C327.77 142.8 327 143.48 326.77 144.07C325.62 146.99 325.93 150.89 328.04 153.57C328.1 153.97 327.99 154.43 328.04 154.84C328.22 156.38 327.31 157.77 329.31 157.37C329.5 157.94 329.74 158.86 329.94 159.27C330.17 159.73 330.31 160.07 330.57 160.54C330.87 161.08 332 162.5 332.47 163.07C332.58 166.07 335.22 168.95 338.41 168.17C339.15 167.99 338.7 166.97 338.8 166.87C339.35 166.29 339.98 166.4 340.53 165.14C342.77 160.02 338.58 150.42 335.63 145.97C336.64 143.49 338.54 145.29 339.89 145.17C341.14 145.07 341.96 143.53 343.86 144.7C344.09 144.46 343.6 142.33 343.29 141.91C342.63 141.03 340.83 142.32 341.34 140.27C342.03 140.16 345.61 141.06 345.77 140.9C345.9 140.76 345.38 137.46 347.64 139.02C347.77 139.11 347.88 140.51 348.29 141.1C348.57 141.51 349.39 141.52 349.46 141.66C349.95 142.67 348.09 144.61 349.9 145.33C352.18 146.23 351.11 143.96 351.68 142.99C351.89 142.63 353.52 142.5 352.75 140.28C353.95 139.89 354.66 141.79 355.59 141.55C356.08 141.42 356.26 140.18 356.74 139.8C357.22 139.42 358.35 139.74 358.44 139.63C359.7 138.3 357.3 137.08 355.91 137.73L357.81 132.04C354.12 133.28 355.95 132.35 354.93 130.83C353.25 128.3 353.62 131.7 352.97 132.07C348.1 134.83 347.53 130.83 347.04 126.98C349.62 127.7 350.83 128.12 349.57 130.77C350.23 130.39 353.23 129.65 353.37 129.5C354.4 128.34 350.29 124.25 348.73 124.56C347.94 124.72 347.58 126.05 346.41 125.71L345.15 123.81C345.56 126.77 340.97 126.87 341.98 130.14C338.86 130.44 341.11 126.72 340.71 126.35H336.92C336.2 124.74 338.24 125.16 338.18 124.79C338 123.54 336.19 121.33 336.91 119.38C338.49 119.88 339.59 119.01 340.71 118.75C341.25 118.62 342.03 118.85 342.61 118.75V121.91H343.87V118.11C345.38 117.88 346.1 118.18 347.04 118.11L347.01 118.1ZM343.21 122.54C342.52 121.85 341.26 123.11 341.95 123.8C342.64 124.49 343.9 123.23 343.21 122.54ZM340.68 123.17H339.42V125.06H340.68V123.17ZM364.75 138.37C365.51 136.47 361.83 136.49 361.07 137.24C360.75 137.56 361.04 138.28 360.95 138.37C360.58 138.77 359.89 139.31 359.68 139.64C359.3 140.24 359.01 139.94 358.41 141.54C358.3 141.83 358.48 142.41 358.41 142.81C355.84 142.49 357.74 144.16 357.78 144.71C357.84 145.54 357.76 146.4 357.78 147.24C355.5 146.75 356.52 149.51 357.78 150.41C357.75 151.04 357.83 151.68 357.78 152.31C357.78 152.41 356.63 153.57 357.15 154.21C357.28 154.37 358.24 154.07 358.41 154.21C359.13 154.8 358.9 155.28 359.04 155.48C358.51 158.88 360.18 157.89 360.31 158.01C365.4 163.19 365.9 173.13 376.92 171.78C387.94 170.43 386.1 159.5 382.07 152.4C380.37 149.39 375.98 145.62 374.87 143.45C374.7 143.12 375.11 141.83 374.85 141.58C374.63 141.36 373.49 141.66 372.97 141.55C372.76 141.51 372.53 141.6 372.34 141.55L369.31 138.41L365.37 138.39C365.17 138.35 364.94 138.42 364.74 138.39L364.75 138.37ZM312.81 139C312.12 138.31 310.86 139.57 311.55 140.26C312.24 140.95 313.5 139.69 312.81 139ZM356.83 145.33V145.96C357.24 145.75 357.24 145.54 356.83 145.33ZM300.78 170.03C298.43 169.52 299.88 173.12 299.52 174.46C302.5 174.42 300.65 171.92 300.78 170.03ZM355.73 186.62C345.58 188.13 346.74 213 359.35 210.55C367.72 208.92 366.57 185.01 355.73 186.62ZM393.1 189.19C381.72 190.6 383.85 203.2 381.68 211.34C380.63 215.26 377.83 218.12 377.43 222.28C376.69 230.05 380.23 239.85 389.15 240.35C400.18 240.98 399.88 225.16 403.25 218.98C405.19 215.43 410.13 213.29 410.37 208.32C410.8 199.76 402.37 188.05 393.1 189.19ZM297.62 199.8L295.09 199.16L295.73 201.69C296.92 201.89 297.82 200.95 297.62 199.8ZM316.61 202.96C316.07 198.44 311.87 203.1 312.82 204.23C313.87 205.48 314.13 203.17 314.21 203.13C314.95 202.71 315.83 203 316.62 202.97L316.61 202.96ZM303.95 202.96C303.77 202.77 299.12 204.1 298.97 204.31C298.76 204.62 298.8 206.66 298.89 206.75C300.14 208.09 300.84 204.79 302.05 205.49C301.43 209.5 302.61 208.02 303.91 209.01C304.59 209.53 304.36 210.97 305.53 210.55C306.49 210.2 308.19 206.56 307.75 206.13L303.32 207.39L303.95 202.96ZM685.69 213.91C681.23 214.39 675.53 216.32 672.27 219.49C669.38 222.3 664.79 231.25 671.54 232.12C677.42 232.88 695.43 229.56 699.47 225.15C701.78 222.63 702.9 218.7 700.08 216.25C696.49 213.15 690.14 213.43 685.7 213.91H685.69ZM766.25 238.42C769.26 231.39 777.33 226.68 768.47 220.06C762.95 215.94 753.17 216.07 747.02 218.87C739.27 222.39 741.12 227.57 742.19 234.62C707.83 233.69 673.47 243.46 645.98 264.13C632.8 274.04 615.34 292.26 607.58 306.79C607.04 307.8 606.66 308.83 606.66 309.99L601.76 306.35C589.72 301.26 582.37 315.91 583.91 326.1C584.43 329.57 587.99 331.59 586.31 334.91C583.65 340.19 573.51 351.97 569.28 357.16C565.05 362.35 561 367.09 556.61 371.78C553.07 371.47 551.66 368.23 547.45 368.22C536.33 368.18 530.7 381.91 531.92 391.4C532.26 394.04 534.49 395.34 533.14 397.63C532.68 398.4 525.68 404.76 524.35 405.96C510.31 418.61 494.09 428.35 478.13 438.32C476.38 439.1 476.18 436.9 475.36 436.24C472.13 433.64 468.73 433.07 464.66 433.66C460.12 434.31 442.09 445.75 439.21 449.37C437.57 451.42 436.37 455.59 433.8 456.63C432.2 457.28 422.52 458.41 420.85 458.18C418.48 457.85 414.88 454.25 411.76 453.31C405.91 451.54 386.3 450.95 384.52 458.65C381.72 470.81 400.14 471.47 407.97 470.07C415.35 468.76 426.44 464.26 433.72 464.22C435.58 464.21 437.86 466.03 439.83 466.4C447.51 467.84 459.12 463.74 464.82 458.54C467.12 456.44 468.72 453.13 471.55 451.33C475.42 448.86 481.35 446.8 485.61 444.49C491.33 441.39 496.93 438.01 502.66 434.91C505.23 434.14 504.66 435.93 506.26 437.33C518.71 448.25 537.48 434.72 537.05 418.61C536.94 414.66 533.65 410.46 536.68 407.52L562.36 382.49C564.31 381.62 566.28 385.63 568.64 386.34C577.95 389.13 587.78 376.07 588.94 367.96C589.16 366.41 589.29 362.39 589.15 360.77C588.95 358.45 586.45 353.76 586.64 353.06C587.21 351.05 591.39 345.47 592.85 343.37C595.06 340.18 606.19 325.01 608.91 324.56C611.63 324.11 614.41 326.21 617.11 326.47C630.04 327.71 642.59 310.8 637.17 298.81C634.8 293.56 629.6 292.88 634.2 287.2C641.12 278.66 655.8 267.62 665.34 261.98C667.59 260.65 678.27 254.88 680.09 254.52C682.78 253.98 683.1 256.71 685.17 258.41C693.67 265.38 717.13 259.57 713.68 245.41C719.44 245.49 725.47 243.83 731.12 243.5C751.7 242.29 775.45 247.41 794.73 254.61C797.25 255.55 814.93 262.91 815.54 263.88C816.26 265.03 813.66 271.23 815.81 275.97C817.88 280.54 825.32 284.28 830.04 285.17C839.78 287 840 282.53 848.27 291.64C867.92 313.31 878.26 351.19 877.08 380.04C875.45 419.82 856.55 459.09 821.35 479.1C822.51 466.99 802.58 472.39 797.27 476.88C793.19 480.33 789.93 487.21 796.64 489.24C796.76 490.31 795.2 489.77 794.81 490.88C793.43 494.85 797.39 494.47 800.12 494.28C814.32 493.31 834.75 480.42 845.11 470.88C846.58 469.53 852.84 462.29 853.4 462.07C856.18 460.96 854.4 466.92 856.57 467.65C859.23 468.55 866.14 462.88 867.9 460.73C870.1 458.03 873.64 451.06 870.58 448.23C868.42 446.23 866.07 449.2 863.78 448.38C869.62 439.86 874.01 429.96 877.41 420.21C877.77 419.17 877.74 418.1 877.71 417.02C881.18 417.27 885.09 418.84 888.18 416.41C891.27 413.98 895.32 406.51 895.92 402.63C897.51 392.5 894.51 379.91 883.41 390.43C884.47 377.28 884.16 364.2 882.14 351.17C893.21 354.7 892.48 336.7 890.16 330.16C887.44 322.48 882.38 319.61 874.54 322.67C862.61 288.76 833.62 261.46 800.59 248.11C789.54 243.65 777.97 240.47 766.23 238.44L766.25 238.42ZM294.45 220.06C293.76 219.37 292.5 220.63 293.19 221.32C293.88 222.01 295.14 220.75 294.45 220.06ZM298.25 221.33C295.34 220.99 290.41 226.15 294.15 227.65C295.98 228.02 294.57 225.85 295.19 225.19C295.67 224.68 299.45 224.46 298.25 221.32V221.33ZM301.73 221.33V221.96C302.14 221.75 302.14 221.54 301.73 221.33ZM814.81 236.09C811.29 231.89 800.63 227.87 795.55 230.68C793.47 231.83 793.61 235.31 794.94 236.98C796.86 239.39 804.74 243.52 807.89 243.96C813.47 244.74 819.31 241.45 814.81 236.09ZM419.67 233.51C412.13 234.88 411.49 245.25 412.29 251.35C412.8 255.26 415.66 258.43 416.51 261.69C417.36 264.95 416.4 267.97 416.67 271.03C418.15 287.74 433.68 284.28 434.95 270.96C435.69 263.17 432.28 261.44 431.39 255.68C430.3 248.68 431.59 231.33 419.67 233.5V233.51ZM624.22 240.47C620.59 241.22 605.19 254.53 603.23 258.1C598.78 266.2 603.44 273.5 612.61 272.54C620.5 271.71 633.36 261.3 634.47 253.24C635.61 245 634.07 238.42 624.22 240.46V240.47ZM756.59 252.51C750.07 253.71 750.01 260.23 753.69 264.61C760.57 272.8 786.08 271.92 780.98 260.12C778.99 255.51 761.44 251.62 756.59 252.51ZM841.39 259.41C836.71 260.98 846.89 273.02 851.12 270.43C855.54 267.72 848.01 257.19 841.39 259.41ZM723.67 265.82C714.98 267.06 702.68 278.05 711.83 286.2C716.89 290.71 727.06 290.96 733.13 288.58C750.28 281.87 738.68 263.69 723.67 265.82ZM380.4 268.96C375.32 270.11 373.64 281.31 370.45 285.61C365.02 292.93 343.6 301.39 350.27 313.39C354.49 320.99 366.09 316.73 371.39 312.51C377.71 307.47 387.67 299.1 390.39 291.62C393.35 283.5 393.03 266.1 380.4 268.96ZM670.47 270.25C652.06 272.93 657.67 299.15 670.3 299.22C677.28 299.26 685.33 290.4 685.85 283.73C686.62 273.87 679.97 268.87 670.48 270.25H670.47ZM589.99 279.79C583.39 271.87 569.34 287.95 576.24 295.12C584.43 303.63 596.07 287.09 589.99 279.79ZM805.25 286.82C798.25 281.43 790 277.78 782.07 284.32C768.54 295.48 789.83 311.75 800.82 313.73C808.14 315.05 816.55 313.46 816.94 304.62C817.33 295.78 811.26 291.45 805.25 286.82ZM297.18 319.92C300.06 323.18 307.78 322.51 311.54 321.06C314.4 319.96 327.84 310.43 329.54 308.03C335 300.29 327.85 293.98 320.08 294.11C310.57 294.27 294.27 306.09 295.75 316.59C295.88 317.48 296.58 319.26 297.17 319.92H297.18ZM425.4 299.35C423.55 299.43 421.45 300.43 420.2 301.79C417.85 304.34 409.99 320.86 409.72 324.24C408.31 341.9 429.83 330.79 433.44 320.1C435.52 313.96 433.75 299 425.4 299.35ZM745.82 301.91C738.21 303.22 729.09 313.52 739.83 317.73C745.71 320.03 756.35 319.43 760.19 313.75C766.06 305.06 752.88 300.7 745.82 301.91ZM700.24 302.55C691.88 303.77 678.05 320.67 688.41 326.08C698.07 331.13 720.41 321.14 714.43 308.29C711.8 302.63 705.92 301.72 700.24 302.55ZM270.72 303.97C265.25 303.55 254.1 307.02 254.57 314.06C255.2 323.44 276.55 315.39 275.33 307.27C275.03 305.24 272.59 304.11 270.72 303.97ZM858.53 331.34C860.62 329.25 859.93 323.88 859.18 321.23C856.86 313.06 835.91 296.88 834.62 310.9C833.86 319.16 837.55 319.53 842.24 324.24C845.66 327.67 852.69 337.18 858.53 331.34ZM565.31 315.88C563.29 313.63 558.65 313.34 555.83 313.93C551.75 314.79 545.11 322.39 543.23 326.03C540.04 332.21 537.67 346.43 547.68 347.01C557.41 347.57 573.31 324.82 565.31 315.88ZM657.16 314.57C650.23 315.89 640.15 327.53 638.14 334.18C633.49 349.5 648.8 351.98 657.31 342.58C663.04 336.25 673.75 311.42 657.16 314.57ZM772.1 321.53C767.12 326.31 783.17 332.49 786.8 332.81C799.81 333.93 792.55 325.36 785.88 322.34C782.7 320.9 774.88 318.87 772.1 321.54V321.53ZM236.63 323.48C234.76 321.39 230.31 320.93 227.67 321.42C223 322.3 213.36 334.63 211.83 339.14C209.56 345.81 211.29 351.75 219.37 350.48C224.78 349.63 226.46 345.05 229.53 341.65C233.7 337.04 242.74 330.32 236.63 323.48ZM391.72 325.45C383.17 319.05 371.59 329.63 367.4 337.02C366.38 338.82 365.79 342.31 364.47 343.59C363.15 344.87 357.84 346.42 355.31 348.36C343.04 357.75 347.78 374.38 363.42 368.5C370.95 365.67 373.17 359.79 378.36 354.94C381.64 351.87 385.59 349.92 388.84 346.42C394.15 340.71 399.88 331.56 391.73 325.45H391.72ZM818.7 327.23C807.95 327.81 813.97 342.43 818.2 347.65C826.85 358.33 839.99 353.38 833.73 339.72C831.55 334.96 824.37 326.92 818.7 327.23ZM267.69 331.04C262.21 331.97 251.29 340.24 249.18 345.46C246.38 352.37 251.18 360.19 258.67 360.07C263.41 360 272.55 354.68 276.1 351.48C286 342.56 283.15 328.42 267.69 331.04ZM324.1 335.47C313.06 336.22 309.5 344.19 302.36 349.87C296.2 354.77 287.01 357.52 287.69 367.67C288.31 376.92 296.65 378.55 304.2 375.78C307.21 374.67 331.26 357.06 333.09 354.64C339.12 346.64 334.24 334.78 324.1 335.47ZM615.37 344.97C606.47 346.42 597.9 363.13 606.05 369.19C618.87 378.72 632.84 342.12 615.37 344.97ZM675.52 344.96C666.49 346.81 660.61 364.65 668.75 369.8C675.82 374.28 684.59 360.47 685.13 354.55C685.67 348.63 681.63 343.7 675.52 344.96ZM862.93 350.1C859.38 346.68 853.37 348.68 851.26 352.87C845.42 364.45 861.71 387.34 867.26 370.14C869.24 363.99 867.7 354.69 862.93 350.1ZM520.35 353.19C517.21 353.92 510.56 362 509.47 365.1C507.41 370.91 508.3 379.27 516.28 377.6C521.21 376.57 527.28 368.44 528.32 363.69C529.69 357.46 527.82 351.45 520.35 353.19ZM237.92 366.51C230.52 358.67 215.33 384.11 231.29 380.77C236.4 379.7 241.41 370.22 237.92 366.51ZM829.11 368.41C825.41 371.81 828.64 386.61 833.39 388.82C837.34 390.65 839.47 384.93 839.72 381.86C840.06 377.74 838.02 368.49 833.4 367.24C832.47 366.99 829.74 367.83 829.1 368.41H829.11ZM634.37 368.4C623.69 370.13 616.64 390.62 624.69 398.67C633.36 407.34 643.92 394.38 645.13 385.5C646.1 378.39 643.71 366.89 634.37 368.4ZM206.84 374.8C201.77 369.75 194.16 376.85 190.97 380.97C184.87 388.82 179.78 403.29 186.26 412.17C189.11 416.08 194.2 416.02 197.79 413.12C202.2 409.55 210.53 385.1 209.29 379.64C209.07 378.65 207.55 375.5 206.84 374.8ZM240.21 425.03C245.57 431.22 253.02 431.21 257.6 424.17C261.4 418.32 261.17 412.33 263.28 406.42C264.97 401.68 269.27 398.23 270.84 391.82C273.64 380.41 265.56 374.07 255.37 380.15C242.82 387.64 228.7 411.73 240.21 425.04V425.03ZM341.8 382.3C335.26 383.28 323.48 400.28 331 404.21C340.18 409 355.65 386.82 345.48 382.78C344.17 382.26 343.22 382.1 341.8 382.31V382.3ZM502.55 409.8C511.04 399.87 504.57 383.92 490.56 391.16C488.42 392.27 478.61 399.21 476.82 400.85C471.92 405.34 469.11 412.87 475.25 417.64C482.61 423.36 497.25 415.99 502.54 409.8H502.55ZM595.72 390.57C584.85 392.61 574.7 412.5 583.86 421.14C590.49 427.39 601.48 417.38 604.38 411.26C608.07 403.48 607.33 388.4 595.72 390.57ZM852.83 390.54C845.65 392.16 841.06 418.85 851.43 418.82C857.59 418.8 861.68 409.13 861.81 403.96C861.94 398.79 859.3 389.08 852.83 390.54ZM659.75 391.16C655.99 388.87 650.98 395.18 649.48 398.09C647.59 401.76 643.45 415.22 650.62 414.48C653.34 414.2 658.45 406.22 659.49 403.66C660.53 401.1 662.29 392.71 659.76 391.16H659.75ZM304.36 436.42C309.84 431.35 307.82 424.92 308.39 418.6C308.96 412.28 313.42 404.29 309.35 398.62C304.1 391.29 294.88 396.6 291.01 402.5C288.55 406.24 283.55 420.63 283.63 424.93C283.82 435.71 295.62 444.51 304.36 436.43V436.42ZM561.54 411.45C556.36 412.22 549.72 418.41 549.08 423.72C547.51 436.7 565.24 433.66 569.43 425.06C572.37 419.02 569.29 410.3 561.54 411.45ZM835.1 414.02C827.83 406.77 816.32 428.42 822.99 432.77C830.24 437.51 839.86 418.76 835.1 414.02ZM214.22 415.94C209.58 420.17 210.37 433.21 213.11 438.51C214.99 442.13 218.22 444.38 221.26 440.4C226.24 433.91 223.48 407.5 214.21 415.94H214.22ZM435.88 426.31C440.4 431.18 453.34 426.83 452.81 419.24C452.09 408.88 427.88 417.69 435.88 426.31ZM619.8 418.41C614.36 419.47 606.34 433.31 605.06 438.52C601.9 451.42 610.6 459.56 620.61 449C625.21 444.15 629.36 435.55 628.82 428.73C628.42 423.66 626.01 417.2 619.8 418.41ZM363.92 461.78C364.84 460.96 365.88 458.55 366.03 457.24C366.99 448.7 358.33 446.59 353.64 441.74C348.95 436.89 343.38 424.9 338.74 421.81C331.85 417.22 324.5 423.2 324.2 430.67C323.81 440.44 334.85 453.09 342.27 458.82C347.7 463.01 358.06 467.05 363.93 461.79L363.92 461.78ZM401.96 422.88C389.01 424.76 391.72 436.46 402.48 437.86C408.25 438.61 422.22 438.28 420.98 429.53C420.07 423.08 407.03 422.14 401.95 422.88H401.96ZM268.32 427.89C260.8 429.44 263.97 446.76 270.64 446.15C276.34 445.63 274.89 432.53 272.85 429.44C271.87 427.95 269.99 427.55 268.32 427.9V427.89ZM847.76 436.82C842.16 430.26 828.94 445.95 828.13 451.34C827.89 452.93 828.55 456.02 829.85 456.95C836.78 461.9 853.47 443.52 847.76 436.82ZM187.24 436.78C180.16 438.38 181.19 453.32 183.02 458.47C187.87 472.09 204.75 475.45 203.88 458.51C203.5 451.02 196.58 434.67 187.24 436.78ZM579.89 439.32C576.59 440 569.1 446.33 566.75 448.98C561.41 455 553.2 472.48 563.15 477.31C578.52 484.77 595.73 454.68 587.94 443.02C586.03 440.15 583.4 438.59 579.9 439.32H579.89ZM810.41 446.93C804.63 447.91 794.98 456.51 798.89 462.58C802.46 468.14 809.57 463.5 813.12 460.4C819.31 454.98 821.86 444.99 810.41 446.93ZM237.91 448.82C234.04 449.64 228.77 455.78 227.63 459.43C224.38 469.81 232.89 492.59 244.79 494.21C252 495.19 258.26 491.52 258.4 483.81C258.49 479.08 255.62 475.67 254.26 471.44C251.64 463.27 250.74 446.11 237.91 448.81V448.82ZM534.93 448.83C526.07 450.29 515.24 464.81 524.3 471.82C532.52 478.18 549.82 460.15 542.07 450.89C540.06 448.5 537.89 448.34 534.93 448.83ZM325.33 475.75C332.62 469.13 315.66 451.3 308.03 456.23C303.49 459.16 307.76 468.42 310.58 471.5C313.4 474.58 321.39 479.32 325.33 475.75ZM496.35 460.24C488.89 460.91 486.74 465.01 481.5 468.22C475.24 472.05 465.37 472.11 464.78 481.91C463.95 495.82 480.53 491.63 488.57 487.96C493.14 485.88 503.92 476.31 505.02 471.48C506.49 465.06 503.21 459.62 496.34 460.24H496.35ZM279.7 461.48C276.49 462.22 275.07 465.68 274.83 468.64C274.21 476.38 285.34 494.5 291.28 499.67C305.1 511.7 322.77 496.53 308.35 485.77C305.31 483.5 301.07 481.91 298.26 478.76C294.48 474.52 291.63 466.23 286.54 462.61C284.49 461.15 282.16 460.92 279.7 461.48ZM777.53 467.86C763.07 468.86 760.79 484.31 776.38 481.97C789.25 480.05 790.45 466.96 777.53 467.86ZM590.39 490.92C595.05 496.68 605.13 483.78 606.79 479.51C607.79 476.93 608.51 472.61 605.76 470.79C599.35 466.56 585.38 484.73 590.39 490.92ZM352.55 479.22C338.94 481.53 339.81 496.11 351.01 501.36C357.61 504.45 361 503.2 367.59 503.78C376.61 504.58 382.14 509.8 391.55 503.03C404.56 493.67 390.97 482.69 379.6 482.23C377.62 482.15 375.98 482.93 374.56 482.87C366.75 482.56 361.21 477.75 352.54 479.22H352.55ZM739.5 480.51C726.35 482.34 724.19 496.31 741.08 492.22C744.05 491.5 747.89 488.88 748.49 485.7C749.69 479.36 744.28 479.85 739.5 480.51ZM442.42 496.59C449.16 488.93 444.05 479.82 433.74 481.26C426.69 482.25 408.91 488.15 415.12 498.04C420.23 506.18 436.84 502.92 442.42 496.58V496.59ZM214.43 489.43C204.71 479.8 196.83 488.49 200.76 500.25C203.79 509.3 209.56 512.9 215.62 518.95C219.98 523.31 223.96 529.5 229.99 531.81C238.75 535.16 243.79 529.99 239.69 521.48C236.43 514.69 229.01 511.27 224.8 505.97C221.14 501.37 218.78 493.75 214.43 489.43ZM833.18 492.81C834.94 490.84 836.98 486.51 833.1 486.01C827.89 485.35 820.16 488.29 818.47 493.61C815.74 502.19 830.39 495.93 833.19 492.81H833.18ZM497.31 515.6C499.5 518.19 505.51 519.11 508.8 518.97C517.1 518.61 534.11 509.76 537.51 502.07C539.83 496.83 539.61 490.76 533.71 488.38C525.81 485.19 519.08 491.55 512.72 495.02C506.91 498.19 502.02 498.9 497.73 504.73C495.52 507.73 494.74 512.58 497.3 515.61L497.31 515.6ZM771.1 498.49C774.95 494.63 768.74 489.95 764.65 489.81C761.16 489.7 749.55 493.88 749.14 497.77C748.5 503.82 761.85 502.47 765.51 501.43C766.94 501.02 770.09 499.49 771.1 498.48V498.49ZM713.55 492.51C710.72 487.53 688.84 496.24 692.49 504.4C693.6 506.89 697.66 506.52 700.01 506.24C704.7 505.68 716.71 498.07 713.55 492.51ZM565.96 495.68C562.84 496.32 552.02 506.67 550.02 509.51C548.26 512 544.85 519.35 549.36 520.22C559.17 522.11 571.95 512.09 573.47 502.51C574.2 497.87 570.49 494.75 565.96 495.68ZM787.64 499.52C783.47 499.96 771.11 503.08 775.08 509.2C778.12 513.89 796.42 508.96 797.18 503.94C797.88 499.35 790.53 499.21 787.64 499.51V499.52ZM721.8 502.67C718.23 502.96 713.65 504.74 710.86 506.96C700.73 515.03 713.9 516.85 721.3 513.6C727.7 510.78 733.1 501.76 721.81 502.68L721.8 502.67ZM263.79 524.92C268.9 533.31 279.77 540.45 289.82 536.19C294.53 534.19 295.28 529.87 294.3 525.13C293.11 519.36 278.64 509.12 273.08 507.72C261.76 504.86 258.34 515.33 262.83 524.16C263.08 524.66 263.67 524.73 263.78 524.91L263.79 524.92ZM462.12 507.74C456.38 508.53 448 512.78 447.66 519.28C446.78 536.1 481 529.07 478.71 514.27C477.75 508.1 466.99 507.08 462.12 507.74ZM752.16 509.63C748.91 505.84 731.26 509.34 732.77 515.35C734.04 520.38 752.51 519.19 752.86 512.34C752.89 511.83 752.44 509.96 752.16 509.62V509.63ZM325.99 510.24C316.17 511.19 313.14 522.97 321.36 528.48C324.77 530.76 344.34 536.87 348.59 537.34C354.77 538.02 366.34 537.26 366.06 528.78C365.77 519.76 353.89 519.44 347.67 517.36C340.46 514.95 334.72 509.39 325.98 510.24H325.99ZM681.87 513.43C679.01 510.56 671.41 516.24 669.38 518.65C666.77 521.74 661.14 532.31 668.4 532.34C674.18 532.36 686.32 517.88 681.87 513.43ZM416.46 516.05C409.79 515.81 402 516.49 395.97 519.49C381.8 526.55 386.68 537.55 401.16 538.6C409.69 539.22 427.25 537.71 428.64 526.84C429.67 518.75 423.39 516.3 416.45 516.05H416.46ZM691.36 522.93C681.29 524.67 680.43 540.68 691.1 534.07C696.19 530.92 702.55 521 691.36 522.93ZM527.94 529.93C524.51 527.45 512.89 531.47 509.32 533.4C501.7 537.54 496.95 548.75 510.71 547.45C516.75 546.88 530.49 539.91 529.37 532.62C529.27 532 528.4 530.26 527.94 529.92V529.93ZM434.63 548.96C428.62 555.42 432.94 563.18 441.03 563.97C449.12 564.76 454.74 562.34 462.37 560.55C468.14 559.2 479.16 558.95 481.56 551.88C484.43 543.46 475.44 541.22 468.95 541.1C465.13 541.03 442.08 544.33 439.27 545.68C438.4 546.1 435.26 548.29 434.64 548.96H434.63ZM259.44 544.45C253.52 545.76 259.13 553.06 262.46 555.08C274.04 562.1 288.57 555.61 273.47 547.87C269.91 546.05 263.34 543.59 259.44 544.45ZM314.57 547C308.49 547.88 304.45 551.93 307.63 558.04C311.58 565.63 337.95 570.55 341.47 561.87C344.86 553.53 335.34 550.24 329.15 548.55C324.42 547.26 319.51 546.28 314.57 546.99V547ZM668.49 547C662.39 547.67 660.79 562.71 665.36 563.85C671.75 565.44 676.4 546.14 668.49 547ZM372.81 550.78C369.93 551.3 364.88 554.38 364.26 557.43C362.76 564.8 370.15 566.63 375.84 567.09C381.53 567.55 392.6 568.24 397.92 567.65C405.49 566.81 413.34 559.55 405.24 553.52C399.71 549.4 392.21 551.26 385.98 551.31C381.69 551.34 377.4 549.94 372.82 550.77L372.81 550.78Z" fill="#60C5BE"/>
<path d="M278.62 80.1004C283.02 83.3804 289.22 83.4304 294.38 85.5504C304.59 89.7504 315.17 97.5804 323.74 104.36C324.83 105.22 328.77 107.08 329.11 107.5C329.62 108.12 330.72 111.67 331.56 112.96C333.54 116.03 336.75 119.01 340.67 118.73C339.54 118.99 338.44 119.86 336.87 119.36C336.15 121.31 337.96 123.52 338.14 124.77C338.19 125.14 336.16 124.72 336.88 126.32H340.67C341.07 126.7 338.81 130.42 341.94 130.12C340.93 126.85 345.52 126.75 345.11 123.79L346.37 125.69C347.54 126.04 347.91 124.7 348.69 124.54C350.25 124.23 354.36 128.31 353.33 129.48C353.2 129.63 350.19 130.37 349.53 130.75C350.78 128.1 349.57 127.68 347 126.96C347.48 130.81 348.06 134.81 352.93 132.05C353.58 131.68 353.2 128.28 354.89 130.81C355.9 132.33 354.08 133.26 357.77 132.02L355.87 137.71C357.26 137.06 359.66 138.27 358.4 139.61C358.31 139.71 357.2 139.39 356.7 139.78C356.2 140.17 356.03 141.4 355.55 141.53C354.63 141.77 353.92 139.87 352.71 140.26C353.48 142.48 351.85 142.61 351.64 142.97C351.07 143.94 352.14 146.22 349.86 145.31C348.05 144.59 349.91 142.65 349.42 141.64C349.35 141.5 348.53 141.48 348.25 141.08C347.85 140.49 347.73 139.09 347.6 139C345.34 137.44 345.86 140.75 345.73 140.88C345.57 141.04 341.99 140.13 341.3 140.25C340.79 142.3 342.59 141 343.25 141.89C343.57 142.31 344.05 144.44 343.82 144.68C341.92 143.51 341.1 145.05 339.85 145.15C338.5 145.26 336.6 143.47 335.59 145.95C333.61 142.96 331.8 141.51 327.99 142.15C328.19 141.68 328.83 139.82 328.62 139.62C325.54 141.11 325.31 138.99 325.09 138.97C324.11 138.9 322.04 139.89 320.39 138.99C320.66 139.73 321.05 140.37 321.07 141.21C321.1 142.95 319.93 147.91 317.89 146.56C317.68 146.42 316.11 142.19 316.11 141.94C316.13 139.56 319.87 138.02 319.12 137.08C319.05 136.99 317.15 136.39 316.96 136.39C316.61 136.39 316.48 138.87 315.33 137.7C314.45 136.82 316.38 134.25 310.89 135.8L312.78 132.64C311.24 132.42 309.72 132.43 309.77 134.33C309.81 135.66 313.31 138.53 310.25 138.34C308.22 133.29 304.42 127.4 298.44 126.99C288.56 126.3 292.94 140.71 296.31 145.31C295.6 146.14 289.29 148.2 291.7 149.12C292.07 149.26 292.97 148.94 293.14 149.12C293.5 149.48 292.14 152.59 292.51 153.55C298.37 151.22 295.33 153.24 297.09 154.67C298.09 155.49 300.99 154.6 300.75 156.71H301.37C301.62 153.14 305.21 151.65 303.28 156.71C306.06 157.43 306.54 154.32 309.11 154.95C309.62 155.08 312.69 156.13 312.14 157.34C310 158.7 310.24 156.67 309.92 156.68C309.73 156.68 306.43 157.87 306.24 157.97C305.52 158.39 305.69 159.73 305.81 159.88C306.06 160.17 307.84 159.12 308.59 159.19C308.83 159.21 309.67 162.93 310.55 158.62C312.13 159.38 312.48 161.08 314.41 161.17C315.59 161.23 315.16 160.01 315.73 159.89C317.18 159.57 320.2 160.6 321 158.92C321.47 157.68 319.74 158.12 319.68 157.6C319.59 156.74 320.49 155.77 320.37 154.82C319.71 154.16 313.86 159.97 314.81 153.39C315.66 147.53 319.09 152.7 319.7 152.26C319.92 152.1 322.64 147.49 323.54 148.48C323.12 151.01 321.74 152.29 322.26 155.15C322.52 156.55 325.22 157 324.17 157.98C323.81 158.32 321.73 157.13 322.27 159.24C327.12 159.65 326.76 161.23 327.97 164.94C325.77 165.42 325.5 164.25 326.07 162.42C321.03 162.31 327.87 166.49 325.43 170.01H327.97C328.58 171.76 326.85 171.12 326.74 171.31C325.91 172.66 328.45 172.59 328.64 174.11C329.11 177.85 326.2 173.76 325.44 174.45C325.93 175.71 322.93 180.27 321.64 178.88C320.19 177.32 323.42 175.8 323.53 174.78C322.29 174.65 319.92 171.45 319.13 171.95C318.65 172.26 317.27 175.06 317.84 175.71C318.46 176.42 320 174 321 174.45C320.42 178.46 320.22 180.76 315.75 178.89C315.32 178.71 313.99 174.25 312.48 173.15C311.4 172.36 309.63 172.27 308.34 171.91C308.97 169.62 310.89 168.32 310.23 165.59C307.57 166.34 305.75 165.36 306.43 168.76L305.81 165.91C304.26 164.42 304.16 167.61 303.33 168.34C302.41 169.15 301.23 168.67 300.11 168.75L300.74 165.59C298.67 166.47 295.75 165.26 294.11 165.55C293.79 165.61 293.41 169.74 289.03 167.48C287.28 167.5 291.34 171.04 292.74 170.62C293.85 170.29 294.34 167.07 296.3 167.49C297.25 170.17 291.33 171.46 293.14 173.82C294.18 175.18 294.13 172.44 295.29 172.59C296.65 172.77 297.31 173.7 296.94 175.09C291.31 176.94 291.68 186.55 294.41 190.92C291.69 191.91 287.24 190.45 287.44 194.09C287.94 194.2 289.2 193.94 289.34 194.09C290.32 195.15 288.45 195.71 287.44 195.35C287.4 194.93 287.46 194.5 287.44 194.09C286.38 193.85 284.97 192.9 284.28 194.41C283.18 196.83 286.58 195.73 286.81 195.99C287.35 197.93 285.69 198.74 285.54 200.42C285.77 200.64 287.84 199.91 287.98 199.69C288.49 198.87 287.32 196.83 289.01 197.27C289.48 197.39 291 198.41 291.2 198.89C291.97 200.72 288.87 200.42 289.98 201.69C290.21 201.95 291.48 201.46 291.9 203.27C292.59 206.32 286.9 203.99 288.09 207.08C288.93 209.27 290.56 206.76 291.56 206.75C291.77 206.75 292.47 210.31 293.99 206.03C294.83 203.65 293.35 202.45 296.94 202.98C297.64 204.65 295.63 204.07 295.65 204.56C295.66 204.8 297.37 208.85 297.52 209.04C298.56 210.34 300.51 209.92 302 209.94C302.43 212.07 299.8 211.13 298.56 212.51C297.57 213.61 297.03 217.26 296.56 217.6C294.4 219.2 288.43 216.26 290.61 221.33L287.45 220.07C288.06 221.48 287.78 223.42 288.12 224.66C288.18 224.87 288.85 225.35 289.35 227.03C289.9 227.14 290.65 226.93 291.25 227.03C291.98 227.75 290.2 229.9 289.35 227.03C288.7 226.9 285.69 226.26 285.55 226.4C284.99 230.13 285.89 229.98 288.05 231.84C288.59 232.3 288.68 233.28 288.75 233.33C289.6 233.93 292.14 230.23 291.88 233.36C276.12 243.47 254.56 248.85 235.9 248.49C232.6 248.43 219.73 245.72 218.09 248.55C216.98 250.47 217.86 252.69 219.68 253.63C215.44 255.17 218.48 257 219.04 259.96L215.24 259.32C214.79 257.7 216.82 256.35 216.22 254.91C215.41 252.96 213.19 253.4 212.25 252.81C211.53 252.36 210.82 249.38 208.91 249.82C207.25 251.56 216.24 256.53 209.54 256.78C209.34 256.78 209.1 256.81 208.91 256.78C209.28 255.68 206.4 254.27 205.44 254.26L205.11 254.88C196.96 251.52 189.48 252.6 180.9 250.91C160.26 246.83 137.59 240.97 117.58 234.44C102.78 229.61 78.14 222.6 70.75 207.81C67.55 201.41 68.03 192.06 77.19 192.82C79.55 193.01 86.59 197.18 89.69 198.37C111.89 206.89 144.99 210.96 168.73 209.94C182.75 209.34 196.91 205.14 210.93 206.33C217.34 206.87 223.75 208.54 230.14 209.33C233.61 208.5 234.69 207.55 232.64 204.24C230.12 200.17 215.72 194.46 210.81 191.87C186.13 178.88 164.01 172.95 138.29 163.06C121.16 156.48 102.83 147.25 85.4 141.86C82.29 140.9 80.83 140.37 77.83 142.15C70.38 127.34 80.88 113.89 94.07 107.41C100.77 104.12 109.52 100.44 116.46 97.5004C129.51 91.9804 142.04 91.2204 155.36 87.6404C189.34 78.5104 217.72 72.1204 253.6 76.3104C260.25 77.0904 272.73 80.9904 278.62 80.1004ZM275.1 99.4504C270.31 94.4004 263.71 96.6304 266.96 102.22C271.14 109.41 281.72 106.43 275.1 99.4504ZM163.83 104.32C157.48 105.32 149.84 111.67 147.21 117.47C137.29 139.35 160.74 159.75 180.65 146.48C200.56 133.21 188.26 100.47 163.83 104.33V104.32ZM211.34 116.31C201.13 118 207.98 133.3 217.37 128.71C223.65 125.64 217.81 115.23 211.34 116.31ZM95.19 124.03C86.19 134.45 112.3 129.39 110.13 122.3C109.05 118.79 97.9 120.9 95.19 124.03ZM334.98 126.34H333.72V128.23H334.98V126.34ZM355.24 133.94C355.15 133.83 353.2 133.24 352.72 132.66L352.08 136.46L348.92 135.83L349.56 138.99L353.04 137.07C352.93 136.3 356.03 134.82 355.25 133.94H355.24ZM349.23 133.93V134.56C349.64 134.35 349.64 134.14 349.23 133.93ZM265.12 153.37C268.87 149.2 265.8 140.89 261.33 138.23C254.64 134.25 249.4 137.43 251.03 145.37C252.12 150.67 260.04 159 265.11 153.37H265.12ZM291.28 144.7C290.59 144.01 289.33 145.27 290.02 145.96C290.71 146.65 291.97 145.39 291.28 144.7ZM319.15 154.19C319.34 153.32 318.81 152.51 317.89 152.29V154.19H319.15ZM296.35 157.36C296.76 156.95 296.33 153.85 294.78 154.2C292.35 154.75 294.9 158.81 296.35 157.36ZM292.55 158C288.84 158.37 292.18 162.22 291.93 164.33C297.51 164.25 303.57 161.42 295.41 158.62L295.71 162.43C292.17 162.95 292.36 160.91 292.54 158H292.55ZM304.58 163.68C305.87 161.87 299.29 159.12 300.79 164.96C301.09 165.3 304.47 163.85 304.58 163.68ZM317.88 161.8C317.71 161.64 315.97 161.89 315.35 161.8C315.64 171.37 318.9 162.78 317.88 161.8ZM309.01 163.7C308.32 163.01 307.06 164.27 307.75 164.96C308.44 165.65 309.7 164.39 309.01 163.7ZM312.82 165.6C312.41 165.65 311.97 165.56 311.56 165.6C311.38 166.92 311.5 167.04 312.82 166.86C312.86 166.45 312.77 166.01 312.82 165.6C313.23 165.55 313.67 165.64 314.08 165.6C314.26 164.28 314.14 164.16 312.82 164.34C312.78 164.75 312.87 165.19 312.82 165.6ZM316.61 170.03C316.76 168.86 316.65 168.17 315.65 167.51H314.71V170.03H316.6H316.61ZM321.67 168.77C321.55 168.67 320.81 168.81 320.42 168.77V171.3H322.31C322.46 171.16 321.77 168.86 321.67 168.77ZM242.31 189.88C233.49 181.01 223.64 199.91 240.32 197.91C245.07 197.34 245.19 192.77 242.31 189.88ZM272.12 213.24C266.44 214.4 267.52 221.22 271.36 221.95C279.94 223.58 281.33 211.37 272.12 213.24ZM139.11 225.26C137.06 225.86 136.25 228.34 137.09 230.18C138.26 232.77 148.05 234.95 149.76 231.46C151.73 227.45 142.36 224.31 139.11 225.26ZM185.99 229.07C183.81 229.51 180 231.85 179.84 234.35C179.45 240.42 194.33 241.48 198.46 240.9C206.16 239.82 209.11 235 200.73 231.14C196.78 229.32 190.25 228.2 185.99 229.06V229.07ZM247.43 229.09C235.64 230.9 233.09 241.22 247.27 239.69C259.31 238.39 258.88 227.34 247.43 229.09Z" fill="#62C6BF"/>
<path d="M292.55 77.5704C327.03 73.8704 350.78 78.4904 382.27 92.0204C433.26 113.92 480.03 152.39 494.57 208.02C493.54 211.12 495.39 215.27 495.78 218.54C496.12 221.37 496.16 220.5 496.46 221.74C497.07 224.22 495.6 228.34 497.73 230.82C497.73 231.03 497.73 231.24 497.73 231.45C497.75 234.21 497.56 237.47 497.55 240.44C497.55 241.44 496.12 242.49 498.37 242.21C498.37 242.84 498.38 243.48 498.37 244.11C496.49 243.72 496.39 245.73 498.37 245.38C496.77 288.52 480.11 316.62 448.67 344.82C441.09 351.62 432.42 357.4 423.64 362.54C426.25 359.8 430.37 354.67 433.12 351.44C461.57 318.01 478.39 279.42 467.54 234.73C456.69 190.04 411.22 143.86 372.13 121.15C359.88 114.03 346.18 108.11 334.15 100.87C325.56 95.7104 317.81 88.5504 308.58 84.0104C303.42 81.4704 297.63 80.2204 292.54 77.5604L292.55 77.5704ZM393.77 112.29C393.9 112.21 394.94 109.8 394.97 109.45C395.36 104.77 380.52 94.7404 376.79 96.2304C371.24 98.4504 377.67 105.91 380.27 107.94C382.87 109.97 390.62 114.24 393.76 112.28L393.77 112.29ZM415.87 120.79C412 121.5 410.19 124.95 409.78 128.62C409.26 133.24 410.15 135.07 413.18 138.38C417.11 142.67 430.4 147.95 435.08 143.17C442.08 136.02 426.25 118.88 415.87 120.8V120.79ZM451.98 158.77C445.46 160.04 445.98 168.18 449.7 172.16C450.78 173.32 458.9 179.03 460.21 179.37C463.04 180.1 467.3 179.6 468.32 176.39C470.29 170.22 458.7 157.44 451.97 158.76L451.98 158.77ZM474.76 200.56C471.22 201.37 470.04 206.82 470.78 209.98C471.34 212.37 474.1 220.49 475.11 222.74C480.11 233.94 489.88 229.94 489.55 218.47C489.35 211.59 483.08 198.64 474.76 200.56Z" fill="#61C5BE"/>
<path d="M290.65 77.5703L290.97 78.1903L291.29 77.5703C291.7 77.5203 292.14 77.6103 292.56 77.5703C297.65 80.2203 303.44 81.4803 308.6 84.0203C317.83 88.5603 325.58 95.7203 334.17 100.88C346.21 108.12 359.9 114.04 372.15 121.16C411.24 143.87 456.63 189.73 467.56 234.74C478.49 279.75 461.59 318.02 433.14 351.45C430.39 354.68 426.27 359.81 423.66 362.55C416.09 370.49 406.52 376.03 398.29 383.1C397.49 383.79 397.1 385.25 396.99 385.32C396.61 385.57 395.49 384.62 395.24 384.78C395.09 384.88 395 385.89 394.51 386.24C387.89 390.99 377.14 398.76 373 405.61C371.81 407.58 370.3 409.65 370.58 412.09C371.37 418.95 384.05 427.14 380.23 433.42C377.15 438.48 369.1 435.32 365.43 432.49C361.47 429.44 356.22 419.86 356.52 414.81C357.05 405.87 363.24 403.42 364.46 398.66C365.01 396.53 364.52 394.68 364.81 392.68C365.98 384.61 378.72 376.13 386.25 374.86C389.4 374.33 393.07 375.11 395.81 374.29C396.48 374.09 403.52 369.12 404.02 368.54C405.25 367.11 403.95 365.88 403.98 364.15C404.19 351.84 417.81 345.3 427.66 340.91C431.7 339.11 434.99 339.55 437.85 335.9C441.31 331.5 454.12 309.15 455.05 304.31C455.8 300.38 453.04 301.13 450.86 298.92C445.19 293.18 449.51 277.03 455.1 272.08C456.43 270.9 460.91 269.07 461.35 268.2C463.47 263.99 459.51 250.02 460.1 244.73C459.39 243.66 457.47 244.7 455.95 244.51C449.54 243.71 450.87 239.52 448.61 235.33C446.88 232.12 442.21 229.79 441.06 226.42C438.36 218.53 441.9 213.95 450.26 215C450.78 214.54 444.95 204.23 444.19 203.03C441.33 198.51 431.81 184.82 427.09 183.4C420.75 181.5 415.37 184.22 411.11 176.58C406.81 168.87 412.63 163.62 406.59 156.4C399.06 147.39 381.82 136.71 371.74 130.13C371.09 129.71 370.13 128.86 369.21 128.23C368.72 127.9 368.24 127.79 367.94 127.6C367.66 126.69 366.96 126.34 366.04 126.33C365.82 126.17 365.63 125.89 365.41 125.7C365.01 125.36 364.77 125.01 364.14 125.07C363.44 124.55 362.99 124.25 362.24 123.8C360.85 122.97 359.59 122.54 358.44 121.9C357.49 121.37 356.66 121.04 355.91 120.63C355.16 120.22 354.15 118.15 352.11 118.73C351.9 118.51 351.7 118.31 351.48 118.1C351 117.64 351.04 117.49 350.21 117.47C350 117.47 349.78 117.46 349.58 117.47L349.23 116.85C348.17 116.66 347.36 117.05 347.05 118.1C346.11 118.17 345.39 117.87 343.88 118.1C343.3 118.19 342.82 118.7 342.61 118.73C342.03 118.83 341.25 118.6 340.71 118.73C336.78 119.01 333.58 116.03 331.6 112.96C330.76 111.66 329.66 108.12 329.15 107.5C328.8 107.08 324.86 105.22 323.78 104.36C315.21 97.5803 304.63 89.7503 294.42 85.5503C289.26 83.4303 283.06 83.3803 278.66 80.1003C282.34 79.5503 285.98 78.2003 290.69 77.5703H290.65Z" fill="#24A29C"/>
<path d="M77.87 142.17C80.87 140.39 82.33 140.92 85.44 141.88C102.87 147.28 121.2 156.5 138.33 163.08C164.05 172.96 186.17 178.9 210.85 191.89C215.76 194.47 230.16 200.19 232.68 204.26C234.74 207.57 233.65 208.52 230.18 209.35C223.79 208.56 217.39 206.89 210.97 206.35C196.95 205.16 182.79 209.36 168.77 209.96C145.03 210.98 111.93 206.9 89.73 198.39C86.63 197.2 79.6 193.03 77.23 192.84C76.22 189.44 84.18 183.88 86.09 184.89C88.44 186.13 88.15 192.58 90.23 193.45C90.8 193.69 91.35 193.72 91.78 193.03C92.42 192.02 92.86 190.11 93.8 188.84C100.97 179.1 101.41 195.96 103.52 196.63C105.63 197.3 105.77 194.39 106.97 193.79C111.64 191.44 112.59 197.71 115.66 198.41C118.97 199.16 129.38 198.77 133.28 198.57C141.63 198.14 166.61 194.65 173.28 191.07C174.15 190.6 175.39 189.88 175.38 188.73C175.37 187.45 155.38 179.26 152.58 177.95C138.5 171.33 124.71 164.08 110.3 158.15C109.69 158.03 108.85 157.77 108.33 158.1C107.4 158.68 102.24 177.34 98.27 164.52C97.87 163.08 98.11 154.47 97.15 154.23C93.63 153.35 90.99 161.84 87.71 163.75C79.93 168.27 84.09 151.07 83.47 148.97C82.99 147.34 80.24 146.81 79.32 145.8C78.4 144.79 78.37 143.2 77.86 142.19L77.87 142.17Z" fill="#048B80"/>
<path d="M235.56 270.72C231.85 269.67 229.51 267.18 226.69 265.65C226.95 265.3 227.07 264.64 227.32 264.38C227.87 263.82 227.79 263.87 228.59 263.75C233.35 262.98 240.33 265.37 245.38 265.64C264.27 266.67 287.68 260.97 304.6 252.68C315.72 247.23 324.3 233.15 337.79 235.28C342.82 236.07 342.96 241.03 341.03 244.78C335.4 255.71 321.91 256.01 311.84 259.28C306.41 261.04 300.8 264.28 295.26 266.13C278.02 271.9 253.2 275.69 235.55 270.7L235.56 270.72Z" fill="#048B80"/>
<path d="M255.82 282.12C256.28 281.09 256.9 280.42 258.06 280.22C260.93 279.73 269.56 281.81 273.24 282.12C301.75 284.5 334.52 274.94 357.72 258.32C360.65 256.22 367.55 249.41 369.97 248.41C377.76 245.17 375.41 253.74 372.34 257.75C368.07 263.33 357.69 267.78 354.79 271.54C352.41 274.63 354.64 275.46 348.52 276.36C338.74 277.8 333.47 281.5 324.2 284.34C310.58 288.52 266.19 295.72 256.44 284.03C256.24 283.79 256.27 282.63 255.81 282.13L255.82 282.12Z" fill="#048B80"/>
<path d="M497.74 230.83C495.61 228.36 497.08 224.24 496.47 221.75C496.17 220.51 496.12 221.37 495.79 218.55C495.4 215.27 493.54 211.12 494.58 208.03C496.61 215.79 497.64 222.8 497.75 230.83H497.74Z" fill="#60C5BE"/>
<path d="M498.37 242.23C496.12 242.5 497.55 241.46 497.55 240.46C497.57 237.49 497.75 234.23 497.73 231.47C499.48 234.96 498.39 238.83 498.36 242.24L498.37 242.23Z" fill="#60C5BE"/>
<path d="M205.16 254.89L205.49 254.27C206.45 254.28 209.34 255.69 208.96 256.79C207.36 256.52 206.41 255.4 205.16 254.89Z" fill="#60C5BE"/>
<path d="M498.37 244.13C498.37 244.55 498.39 244.98 498.37 245.4C496.39 245.75 496.49 243.75 498.37 244.13Z" fill="#60C5BE"/>
<path d="M290.65 77.5702C290.86 77.5402 291.08 77.6002 291.28 77.5702L290.96 78.1902L290.64 77.5702H290.65Z" fill="#61C5BE"/>
<path d="M766.25 238.42C777.99 240.45 789.56 243.62 800.61 248.09C833.64 261.44 862.63 288.74 874.56 322.65C882.39 319.59 887.46 322.46 890.18 330.14C892.5 336.69 893.22 354.69 882.16 351.15C884.18 364.18 884.49 377.26 883.43 390.41C894.52 379.89 897.52 392.48 895.94 402.61C895.33 406.49 891.34 413.91 888.2 416.39C885.06 418.87 881.2 417.25 877.73 417C877.76 418.07 877.8 419.15 877.43 420.19C874.02 429.94 869.64 439.83 863.8 448.36C866.09 449.18 868.44 446.21 870.6 448.21C873.66 451.04 870.12 458.02 867.92 460.71C866.17 462.86 859.26 468.52 856.59 467.63C854.42 466.9 856.2 460.94 853.42 462.05C852.86 462.27 846.6 469.51 845.13 470.86C834.78 480.4 814.34 493.3 800.14 494.26C797.41 494.45 793.46 494.83 794.83 490.86C795.21 489.75 796.78 490.28 796.66 489.22C789.95 487.18 793.22 480.3 797.29 476.86C802.59 472.38 822.52 466.97 821.37 479.08C856.56 459.06 875.47 419.8 877.1 380.02C878.28 351.17 867.94 313.29 848.29 291.62C840.03 282.51 839.8 286.98 830.06 285.15C825.34 284.26 817.9 280.52 815.83 275.95C813.68 271.22 816.28 265.01 815.56 263.86C814.95 262.9 797.28 255.53 794.75 254.59C775.47 247.39 751.72 242.27 731.14 243.48C725.48 243.81 719.46 245.47 713.7 245.39C717.15 259.54 693.7 265.36 685.19 258.39C683.12 256.69 682.8 253.96 680.11 254.5C678.29 254.87 667.61 260.63 665.36 261.96C655.82 267.6 641.14 278.64 634.22 287.18C629.62 292.86 634.82 293.54 637.19 298.79C642.61 310.78 630.05 327.69 617.13 326.45C614.43 326.19 611.56 324.11 608.93 324.54C606.3 324.97 595.07 340.16 592.87 343.35C591.42 345.45 587.23 351.03 586.66 353.04C586.46 353.73 588.96 358.43 589.17 360.75C589.31 362.37 589.18 366.39 588.96 367.94C587.8 376.05 577.98 389.12 568.66 386.32C566.3 385.61 564.33 381.61 562.38 382.47L536.7 407.5C533.67 410.45 536.96 414.64 537.07 418.59C537.5 434.7 518.73 448.23 506.28 437.31C504.69 435.91 505.25 434.12 502.68 434.89C496.96 437.99 491.35 441.37 485.63 444.47C481.36 446.78 475.44 448.84 471.57 451.31C468.75 453.11 467.15 456.42 464.84 458.52C459.14 463.72 447.52 467.82 439.85 466.38C437.88 466.01 435.6 464.19 433.74 464.2C426.46 464.24 415.37 468.74 407.99 470.05C400.16 471.44 381.73 470.78 384.54 458.63C386.31 450.94 405.93 451.53 411.78 453.29C414.9 454.23 418.5 457.83 420.87 458.16C422.54 458.4 432.23 457.26 433.82 456.61C436.39 455.57 437.59 451.41 439.23 449.35C442.11 445.73 460.14 434.3 464.68 433.64C468.76 433.05 472.16 433.62 475.38 436.22C476.2 436.88 476.4 439.08 478.15 438.3C494.11 428.32 510.33 418.59 524.37 405.94C525.71 404.73 532.71 398.38 533.16 397.61C534.51 395.32 532.28 394.02 531.94 391.38C530.72 381.89 536.35 368.17 547.47 368.2C551.69 368.21 553.1 371.45 556.63 371.76C561.02 367.08 565.25 362.11 569.3 357.14C573.35 352.17 583.66 340.17 586.33 334.89C588 331.57 584.45 329.55 583.93 326.08C582.39 315.89 589.74 301.24 601.78 306.33L606.68 309.97C606.68 308.81 607.06 307.78 607.6 306.77C615.37 292.24 632.83 274.02 646 264.11C673.49 243.45 707.85 233.67 742.21 234.6C741.14 227.54 739.29 222.37 747.04 218.85C753.19 216.05 762.97 215.92 768.49 220.04C777.36 226.65 769.28 231.37 766.27 238.4L766.25 238.42Z" fill="#24A29C"/>
<path d="M320.42 201.06C323.39 199.31 325.09 189.15 327.35 186.31C331.33 181.31 332.78 190.65 332.45 193.78C331.29 204.83 319.95 222.08 312.11 229.77C293.95 247.57 271.85 256.36 246.32 256.78C245.49 256.79 244.22 256.47 243.79 257.41C242.33 257.31 240.82 257.43 239.36 257.41C236.76 256.92 233.75 256.23 231.13 256.14C230.51 256.12 229.85 256.09 229.23 256.14L227.96 255.51C227.87 255.38 225.96 255.03 225.43 254.88C224.47 254.61 223.34 254.59 222.26 254.25C221.57 254.03 219.91 253.71 219.73 253.62C217.91 252.68 217.04 250.46 218.14 248.54C219.78 245.7 232.64 248.41 235.95 248.48C254.61 248.84 276.16 243.46 291.93 233.35C292.59 232.93 293.74 231.33 294.46 230.82C296.15 229.61 296.96 229.24 298.89 227.65C299.73 226.96 300.3 226.88 301.42 225.75C303.6 225.16 304.51 223.38 305.85 221.95C306.32 221.45 306.59 220.61 307.12 220.05L308.39 219.42C308.59 219.2 308.82 219.01 309.02 218.79L309.65 217.52C309.85 217.3 310.09 217.11 310.28 216.89C311.39 215.63 313.26 214.62 313.45 212.46C314.16 211.82 314.84 211.71 315.35 210.56C316.22 210.23 316.63 209.6 316.62 208.66C316.71 208.61 316.55 208.23 316.62 208.03C318.59 206.41 320.39 203.61 320.42 201.06Z" fill="#048B80"/>
<path d="M240.21 425.03C228.7 411.73 242.81 387.63 255.37 380.14C265.56 374.06 273.64 380.4 270.84 391.81C269.27 398.22 264.96 401.67 263.28 406.41C261.18 412.32 261.4 418.31 257.6 424.16C253.03 431.2 245.57 431.21 240.21 425.02V425.03Z" fill="#24A29C"/>
<path d="M324.1 335.47C334.23 334.78 339.12 346.63 333.09 354.64C331.26 357.06 307.22 374.67 304.2 375.78C296.66 378.55 288.32 376.92 287.69 367.67C287.01 357.53 296.2 354.78 302.36 349.87C309.5 344.18 313.06 336.22 324.1 335.47Z" fill="#24A29C"/>
<path d="M393.1 189.19C402.38 188.04 410.8 199.76 410.37 208.32C410.12 213.29 405.18 215.43 403.25 218.98C399.88 225.16 400.18 240.98 389.15 240.35C380.23 239.84 376.68 230.04 377.43 222.28C377.83 218.12 380.63 215.26 381.68 211.34C383.85 203.2 381.73 190.6 393.1 189.19Z" fill="#24A29C"/>
<path d="M391.72 325.45C399.87 331.56 394.14 340.71 388.83 346.42C385.58 349.91 381.63 351.87 378.35 354.94C373.16 359.79 370.94 365.67 363.41 368.5C347.77 374.38 343.03 357.75 355.3 348.36C357.84 346.42 363.13 344.89 364.46 343.59C365.79 342.29 366.36 338.82 367.39 337.02C371.58 329.64 383.16 319.05 391.71 325.45H391.72Z" fill="#24A29C"/>
<path d="M352.55 479.22C361.22 477.75 366.76 482.56 374.57 482.87C375.99 482.93 377.63 482.15 379.61 482.23C390.98 482.68 404.57 493.67 391.56 503.03C382.14 509.81 376.62 504.58 367.6 503.78C361.01 503.2 357.62 504.45 351.02 501.36C339.81 496.11 338.95 481.53 352.56 479.22H352.55Z" fill="#24A29C"/>
<path d="M380.4 268.96C393.03 266.09 393.35 283.5 390.39 291.62C387.67 299.1 377.7 307.48 371.39 312.51C366.09 316.74 354.5 320.99 350.27 313.39C343.6 301.39 365.02 292.92 370.45 285.61C373.64 281.31 375.32 270.12 380.4 268.96Z" fill="#24A29C"/>
<path d="M237.91 448.82C250.74 446.12 251.64 463.28 254.26 471.45C255.62 475.68 258.49 479.09 258.4 483.82C258.26 491.52 252 495.2 244.79 494.22C232.89 492.6 224.38 469.82 227.63 459.44C228.77 455.79 234.04 449.65 237.91 448.83V448.82Z" fill="#24A29C"/>
<path d="M363.92 461.78C358.05 467.04 347.69 463 342.26 458.81C334.84 453.08 323.8 440.44 324.19 430.66C324.49 423.19 331.84 417.21 338.73 421.8C343.37 424.89 348.82 436.76 353.63 441.73C358.44 446.7 366.98 448.7 366.02 457.23C365.87 458.54 364.83 460.95 363.91 461.77L363.92 461.78Z" fill="#24A29C"/>
<path d="M304.36 436.42C295.62 444.5 283.83 435.7 283.63 424.92C283.55 420.62 288.56 406.24 291.01 402.49C294.87 396.6 304.09 391.28 309.35 398.61C313.41 404.28 308.94 412.5 308.39 418.59C307.84 424.68 309.84 431.34 304.36 436.41V436.42Z" fill="#24A29C"/>
<path d="M325.99 510.24C334.73 509.39 340.47 514.95 347.68 517.36C353.91 519.44 365.78 519.76 366.07 528.78C366.34 537.26 354.77 538.02 348.6 537.34C344.35 536.87 324.77 530.76 321.37 528.48C313.15 522.97 316.17 511.2 326 510.24H325.99Z" fill="#24A29C"/>
<path d="M214.43 489.43C218.79 493.75 221.15 501.37 224.8 505.97C229.01 511.27 236.43 514.69 239.69 521.48C243.79 530 238.74 535.17 229.99 531.81C223.96 529.5 219.98 523.3 215.62 518.95C209.56 512.9 203.79 509.29 200.76 500.25C196.82 488.49 204.71 479.8 214.43 489.43Z" fill="#24A29C"/>
<path d="M279.7 461.48C282.15 460.91 284.49 461.15 286.54 462.61C291.63 466.23 294.47 474.52 298.26 478.76C301.07 481.91 305.31 483.5 308.35 485.77C322.77 496.53 305.1 511.7 291.28 499.67C285.34 494.5 274.21 476.38 274.83 468.64C275.07 465.69 276.5 462.22 279.7 461.48Z" fill="#24A29C"/>
<path d="M497.31 515.6C494.76 512.57 495.53 507.73 497.74 504.72C502.03 498.89 506.92 498.18 512.73 495.01C519.09 491.54 525.82 485.19 533.72 488.37C539.62 490.75 539.84 496.82 537.52 502.06C534.12 509.75 517.1 518.59 508.81 518.96C505.52 519.1 499.5 518.19 497.32 515.59L497.31 515.6Z" fill="#048B80"/>
<path d="M579.89 439.32C583.39 438.59 586.02 440.16 587.93 443.02C595.72 454.68 578.51 484.77 563.14 477.31C553.2 472.48 561.4 455 566.74 448.98C569.09 446.33 576.58 440 579.88 439.32H579.89Z" fill="#24A29C"/>
<path d="M496.35 460.24C503.22 459.62 506.5 465.06 505.03 471.48C503.92 476.3 493.15 485.88 488.58 487.96C480.54 491.62 463.95 495.81 464.79 481.91C465.38 472.12 475.25 472.06 481.51 468.22C486.75 465.01 488.9 460.91 496.36 460.24H496.35Z" fill="#048B80"/>
<path d="M419.67 233.51C431.6 231.34 430.3 248.69 431.39 255.69C432.29 261.45 435.69 263.17 434.95 270.97C433.69 284.29 418.15 287.75 416.67 271.04C416.4 267.98 417.33 264.83 416.51 261.7C415.69 258.57 412.8 255.27 412.29 251.36C411.49 245.25 412.13 234.89 419.67 233.52V233.51Z" fill="#24A29C"/>
<path d="M206.84 374.8C207.55 375.51 209.06 378.66 209.29 379.64C210.53 385.1 202.2 409.55 197.79 413.12C194.2 416.02 189.11 416.08 186.26 412.17C179.78 403.29 184.88 388.83 190.97 380.97C194.17 376.85 201.77 369.75 206.84 374.8Z" fill="#24A29C"/>
<path d="M416.46 516.05C423.39 516.3 429.68 518.75 428.65 526.84C427.26 537.71 409.7 539.22 401.17 538.6C386.69 537.56 381.81 526.55 395.98 519.49C402.01 516.49 409.8 515.81 416.47 516.05H416.46Z" fill="#048B80"/>
<path d="M502.55 409.8C497.26 415.99 482.62 423.36 475.26 417.64C469.12 412.87 471.93 405.33 476.83 400.85C478.62 399.21 488.43 392.27 490.57 391.16C504.58 383.92 511.05 399.87 502.56 409.8H502.55Z" fill="#24A29C"/>
<path d="M263.79 524.92C263.68 524.74 263.09 524.66 262.84 524.17C258.35 515.34 261.77 504.87 273.09 507.73C278.65 509.13 293.12 519.37 294.31 525.14C295.29 529.88 294.54 534.21 289.83 536.2C279.78 540.45 268.9 533.31 263.8 524.93L263.79 524.92Z" fill="#24A29C"/>
<path d="M624.22 240.47C634.07 238.43 635.61 245.01 634.47 253.25C633.36 261.31 620.5 271.72 612.61 272.55C603.44 273.51 598.78 266.2 603.23 258.11C605.19 254.53 620.6 241.23 624.22 240.48V240.47Z" fill="#24A29C"/>
<path d="M267.69 331.04C283.15 328.42 286 342.56 276.1 351.48C272.55 354.68 263.41 360 258.67 360.07C251.17 360.19 246.38 352.37 249.18 345.46C251.29 340.24 262.21 331.97 267.69 331.04Z" fill="#24A29C"/>
<path d="M297.18 319.92C296.59 319.26 295.88 317.48 295.76 316.59C294.27 306.09 310.57 294.27 320.09 294.11C327.86 293.98 335 300.29 329.55 308.03C327.85 310.44 314.42 319.96 311.55 321.06C307.79 322.51 300.07 323.18 297.19 319.92H297.18Z" fill="#24A29C"/>
<path d="M657.16 314.57C673.75 311.41 663.04 336.25 657.31 342.58C648.8 351.98 633.49 349.5 638.14 334.18C640.16 327.53 650.24 315.89 657.16 314.57Z" fill="#24A29C"/>
<path d="M364.75 138.37C364.96 138.4 365.18 138.33 365.38 138.37C368.06 138.88 370.2 140.95 372.35 141.54C372.54 141.59 372.78 141.5 372.98 141.54C372.63 142.97 373.8 142.98 374.88 143.44C375.99 145.61 380.37 149.39 382.08 152.39C386.11 159.5 387.42 170.49 376.93 171.77C365.91 173.12 365.41 163.18 360.32 158C360.39 156.75 359.64 156.28 359.05 155.47C358.91 155.27 359.14 154.79 358.42 154.2L357.79 152.3C357.84 151.67 357.76 151.03 357.79 150.4C357.83 149.35 357.82 148.28 357.79 147.23C357.77 146.39 357.85 145.53 357.79 144.7C357.77 144.02 358.32 143.33 358.42 142.8C358.49 142.4 358.31 141.83 358.42 141.53C359.33 141.25 359.68 140.55 359.69 139.63C359.89 139.31 360.59 138.76 360.96 138.36C362.19 138.47 363.57 138.21 364.76 138.36L364.75 138.37Z" fill="#24A29C"/>
<path d="M595.72 390.57C607.33 388.39 608.07 403.47 604.38 411.26C601.47 417.38 590.49 427.39 583.86 421.14C574.7 412.5 584.85 392.61 595.72 390.57Z" fill="#24A29C"/>
<path d="M565.31 315.88C573.31 324.81 557.41 347.56 547.68 347.01C537.67 346.43 540.04 332.21 543.23 326.03C545.11 322.39 551.75 314.79 555.83 313.93C558.65 313.34 563.29 313.62 565.31 315.88Z" fill="#24A29C"/>
<path d="M670.47 270.25C679.97 268.87 686.61 273.86 685.84 283.73C685.32 290.41 677.27 299.26 670.29 299.22C657.66 299.15 652.05 272.93 670.46 270.25H670.47Z" fill="#24A29C"/>
<path d="M634.37 368.4C643.72 366.89 646.11 378.39 645.13 385.5C643.91 394.39 633.35 407.34 624.69 398.67C616.64 390.61 623.69 370.12 634.37 368.4Z" fill="#24A29C"/>
<path d="M619.8 418.41C626.01 417.2 628.43 423.66 628.82 428.73C629.35 435.55 625.21 444.15 620.61 449C610.6 459.56 601.9 451.42 605.06 438.52C606.34 433.31 614.36 419.47 619.8 418.41Z" fill="#24A29C"/>
<path d="M425.4 299.35C433.75 299 435.52 313.95 433.44 320.1C429.83 330.8 408.31 341.9 409.72 324.24C409.99 320.86 417.85 304.34 420.2 301.79C421.45 300.43 423.55 299.43 425.4 299.35Z" fill="#24A29C"/>
<path d="M187.24 436.78C196.57 434.67 203.49 451.02 203.88 458.51C204.75 475.45 187.87 472.09 183.02 458.47C181.19 453.32 180.16 438.39 187.24 436.78Z" fill="#24A29C"/>
<path d="M462.12 507.74C466.99 507.07 477.75 508.09 478.71 514.27C481 529.07 446.78 536.09 447.66 519.28C448 512.78 456.38 508.53 462.12 507.74Z" fill="#048B80"/>
<path d="M442.42 496.59C436.84 502.93 420.23 506.18 415.12 498.05C408.91 488.16 426.69 482.25 433.74 481.27C444.05 479.83 449.16 488.94 442.42 496.6V496.59Z" fill="#048B80"/>
<path d="M236.63 323.48C242.74 330.31 233.7 337.04 229.53 341.65C226.45 345.05 224.77 349.63 219.37 350.48C211.29 351.75 209.55 345.81 211.83 339.14C213.37 334.63 223 322.3 227.67 321.42C230.31 320.92 234.76 321.38 236.63 323.48Z" fill="#24A29C"/>
<path d="M685.69 213.91C690.13 213.43 696.49 213.15 700.07 216.25C702.89 218.69 701.77 222.63 699.46 225.15C695.42 229.56 677.41 232.88 671.53 232.12C664.79 231.25 669.37 222.3 672.26 219.49C675.52 216.32 681.22 214.39 685.68 213.91H685.69Z" fill="#24A29C"/>
<path d="M534.93 448.83C537.89 448.34 540.06 448.49 542.07 450.89C549.82 460.15 532.53 478.18 524.3 471.82C515.24 464.81 526.07 450.29 534.93 448.83Z" fill="#048B80"/>
<path d="M615.37 344.97C632.84 342.12 618.87 378.72 606.05 369.19C597.9 363.13 606.47 346.42 615.37 344.97Z" fill="#24A29C"/>
<path d="M565.96 495.68C570.5 494.75 574.21 497.87 573.47 502.51C571.95 512.08 559.17 522.1 549.36 520.22C544.85 519.35 548.26 512.01 550.02 509.51C552.02 506.67 562.84 496.32 565.96 495.68Z" fill="#048B80"/>
<path d="M675.52 344.96C681.64 343.7 685.67 348.75 685.13 354.55C684.59 360.35 675.82 374.28 668.75 369.8C660.61 364.65 666.49 346.81 675.52 344.96Z" fill="#24A29C"/>
<path d="M520.35 353.19C527.83 351.45 529.69 357.46 528.32 363.69C527.28 368.44 521.21 376.58 516.28 377.6C508.3 379.26 507.41 370.91 509.47 365.1C510.57 362 517.21 353.92 520.35 353.19Z" fill="#24A29C"/>
<path d="M401.96 422.88C407.03 422.14 420.07 423.08 420.99 429.53C422.23 438.28 408.25 438.61 402.49 437.86C391.72 436.46 389.01 424.76 401.97 422.88H401.96Z" fill="#048B80"/>
<path d="M561.54 411.45C569.3 410.3 572.37 419.02 569.43 425.06C565.24 433.66 547.51 436.7 549.08 423.72C549.72 418.41 556.36 412.22 561.54 411.45Z" fill="#24A29C"/>
<path d="M310.28 138.37C311.66 141.8 311.89 142.96 312.18 146.6L311.55 148.5C309.92 149.45 308.22 150.95 306.17 150.95C303.9 150.95 301.17 148.58 299.52 148.5C299.39 147.74 298.56 147.57 298.25 147.23C297.74 146.68 296.52 145.57 296.35 145.33C292.97 140.73 288.6 126.32 298.48 127.01C304.46 127.43 308.26 133.31 310.29 138.36L310.28 138.37Z" fill="#24A29C"/>
<path d="M301.42 175.1C302.74 175.44 307 177.97 307.75 178.9C310.65 182.45 310.53 189.81 309.23 194C307.93 198.19 305 196.74 302.05 197.27C301.03 197.07 299.69 196.63 298.88 196C298.39 195.62 294.81 191.51 294.45 190.93C291.72 186.55 291.35 176.94 296.98 175.1C298.15 174.72 300.27 174.81 301.41 175.1H301.42Z" fill="#24A29C"/>
<path d="M355.73 186.62C366.57 185.01 367.71 208.92 359.35 210.55C346.75 213 345.58 188.13 355.73 186.62Z" fill="#24A29C"/>
<path d="M325.33 475.75C321.39 479.33 313.5 474.69 310.58 471.5C307.66 468.31 303.48 459.17 308.03 456.23C315.66 451.3 332.63 469.12 325.33 475.75Z" fill="#048B80"/>
<path d="M341.8 382.3C343.22 382.09 344.17 382.25 345.48 382.77C355.66 386.81 340.18 408.99 331 404.2C323.48 400.28 335.25 383.27 341.8 382.29V382.3Z" fill="#048B80"/>
<path d="M214.22 415.94C223.48 407.5 226.25 433.91 221.27 440.4C218.22 444.38 214.99 442.13 213.12 438.51C210.38 433.21 209.59 420.18 214.23 415.94H214.22Z" fill="#048B80"/>
<path d="M590.39 490.92C585.38 484.73 599.35 466.57 605.76 470.79C608.51 472.6 607.79 476.93 606.79 479.51C605.13 483.78 595.05 496.68 590.39 490.92Z" fill="#048B80"/>
<path d="M589.99 279.79C596.07 287.09 584.44 303.63 576.24 295.12C569.34 287.95 583.39 271.87 589.99 279.79Z" fill="#24A29C"/>
<path d="M335.62 145.97C338.57 150.42 342.75 160.01 340.52 165.14C339.97 166.4 339.34 166.29 338.79 166.87C335.51 167.52 334.26 165.25 332.46 163.07C331.99 162.5 330.86 161.07 330.56 160.54L329.93 159.27C329.73 158.86 329.49 157.94 329.3 157.37C328.99 156.46 329.1 155.42 328.03 154.84C327.98 154.43 328.09 153.98 328.03 153.57C327.56 150.42 326.46 147.33 326.76 144.07C326.99 143.48 327.76 142.8 328.03 142.17C331.84 141.53 333.65 142.97 335.63 145.97H335.62Z" fill="#048B80"/>
<path d="M659.75 391.16C662.29 392.71 660.49 401.2 659.48 403.66C658.47 406.12 653.33 414.19 650.61 414.48C643.45 415.23 647.58 401.76 649.47 398.09C650.97 395.18 655.98 388.87 659.74 391.16H659.75Z" fill="#048B80"/>
<path d="M270.72 303.97C272.59 304.11 275.03 305.24 275.33 307.27C276.55 315.39 255.19 323.44 254.57 314.06C254.1 307.02 265.25 303.55 270.72 303.97Z" fill="#048B80"/>
<path d="M681.87 513.43C686.31 517.88 674.18 532.36 668.4 532.34C661.14 532.32 666.77 521.75 669.38 518.65C671.41 516.24 679.01 510.56 681.87 513.43Z" fill="#048B80"/>
<path d="M435.88 426.31C427.88 417.69 452.09 408.88 452.81 419.24C453.34 426.84 440.4 431.18 435.88 426.31Z" fill="#048B80"/>
<path d="M237.92 366.51C241.42 370.21 236.4 379.7 231.29 380.77C215.32 384.11 230.52 358.68 237.92 366.51Z" fill="#048B80"/>
<path d="M268.32 427.89C270 427.54 271.87 427.94 272.85 429.43C274.88 432.53 276.33 445.62 270.64 446.14C263.97 446.75 260.81 429.44 268.32 427.88V427.89Z" fill="#048B80"/>
<path d="M303.95 202.96L303.32 207.39L307.75 206.13C308.19 206.57 306.49 210.2 305.53 210.55C304.36 210.98 304.59 209.53 303.91 209.01C302.61 208.01 301.43 209.5 302.05 205.49C300.84 204.79 300.14 208.09 298.89 206.75C298.81 206.66 298.76 204.61 298.97 204.31C299.12 204.1 303.77 202.77 303.95 202.96Z" fill="#62C6BF"/>
<path d="M301.42 175.1C301.78 173.95 303.59 175.13 303.99 174.83C304.69 174.3 304.49 172.66 304.59 172.56C306.3 170.92 306.98 174.94 307.12 175.1C307.32 175.32 310.04 174.09 310.91 174.47C310.98 177.36 306.56 174.78 307.75 178.9C307 177.97 302.73 175.44 301.42 175.1Z" fill="#62C6BF"/>
<path d="M298.25 221.33C299.45 224.47 295.67 224.69 295.19 225.2C294.57 225.86 295.98 228.03 294.15 227.66C290.41 226.16 295.34 220.99 298.25 221.34V221.33Z" fill="#62C6BF"/>
<path d="M239.36 257.42C239.28 257.42 238.73 258.07 237.83 258.09C235.92 258.13 232.79 255.93 232.08 258.7L231.13 256.16C233.76 256.24 236.76 256.94 239.36 257.43V257.42Z" fill="#62C6BF"/>
<path d="M338.78 166.86C338.68 166.96 339.13 167.99 338.39 168.16C335.21 168.93 332.56 166.06 332.45 163.06C334.25 165.24 335.5 167.51 338.78 166.86Z" fill="#62C6BF"/>
<path d="M227.32 264.39C225.83 264.47 224.99 264.77 225.41 262.8C225.93 260.31 229.11 261.09 228.59 263.76C227.8 263.89 227.87 263.83 227.32 264.39Z" fill="#62C6BF"/>
<path d="M298.88 227.66C296.95 229.25 296.13 229.62 294.45 230.83C294.95 228.04 296.06 227.55 298.88 227.66Z" fill="#62C6BF"/>
<path d="M316.61 202.96C315.82 203 314.94 202.71 314.2 203.12C314.12 203.16 313.87 205.47 312.81 204.22C311.86 203.1 316.07 198.43 316.6 202.95L316.61 202.96Z" fill="#62C6BF"/>
<path d="M300.78 170.03C300.65 171.92 302.5 174.42 299.52 174.46C299.88 173.11 298.43 169.52 300.78 170.03Z" fill="#62C6BF"/>
<path d="M328.02 153.56C325.91 150.88 325.61 146.98 326.75 144.06C326.45 147.32 327.54 150.41 328.02 153.56Z" fill="#62C6BF"/>
<path d="M302.05 197.26C301.35 197.39 298 198.94 297.62 198.52C297.37 197.4 298.39 196.93 298.88 195.99C299.69 196.62 301.02 197.05 302.05 197.26Z" fill="#62C6BF"/>
<path d="M305.85 221.96C304.5 223.39 303.6 225.17 301.42 225.76C301.91 225.27 303.28 224.24 303.33 224.04C303.8 222.35 302.26 219.82 305.85 221.96Z" fill="#62C6BF"/>
<path d="M360.95 138.37C361.03 138.28 360.74 137.56 361.07 137.24C361.84 136.48 365.52 136.47 364.75 138.37C363.56 138.22 362.18 138.48 360.95 138.37Z" fill="#62C6BF"/>
<path d="M365.38 138.37L369.32 138.39L372.35 141.53C370.21 140.94 368.06 138.87 365.38 138.36V138.37Z" fill="#62C6BF"/>
<path d="M355.88 120.63C355.01 120.43 352.7 120.34 352.19 119.86C351.87 119.56 352.16 118.82 352.08 118.73C354.12 118.15 355.13 120.22 355.88 120.63Z" fill="#62C6BF"/>
<path d="M297.62 199.8C297.82 200.95 296.92 201.89 295.73 201.69L295.09 199.16L297.62 199.8Z" fill="#62C6BF"/>
<path d="M343.85 118.1V121.9H342.59V118.74C342.79 118.7 343.28 118.2 343.85 118.11V118.1Z" fill="#62C6BF"/>
<path d="M320.42 201.06C320.39 203.6 318.59 206.4 316.62 208.03C317.46 205.45 318.39 204.92 319.3 202.76C319.61 202.02 319.12 201.15 319.18 201.09C319.42 200.89 320.2 201.19 320.42 201.06Z" fill="#62C6BF"/>
<path d="M225.42 254.89L225.1 256.17C223.79 255.58 221.8 256.02 222.26 254.26C223.34 254.6 224.47 254.62 225.43 254.89H225.42Z" fill="#62C6BF"/>
<path d="M246.32 256.79C246.66 259.46 244.56 257.48 243.79 257.42C244.23 256.47 245.49 256.8 246.32 256.79Z" fill="#62C6BF"/>
<path d="M371.71 130.13C369.52 130.17 368.83 130.7 369.18 128.23C370.1 128.86 371.07 129.71 371.71 130.13Z" fill="#62C6BF"/>
<path d="M357.78 147.23C357.81 148.28 357.82 149.35 357.78 150.4C356.52 149.5 355.5 146.74 357.78 147.23Z" fill="#62C6BF"/>
<path d="M372.98 141.53C373.49 141.63 374.63 141.34 374.86 141.56C375.12 141.81 374.71 143.1 374.88 143.43C373.8 142.97 372.63 142.96 372.98 141.53Z" fill="#62C6BF"/>
<path d="M360.31 158C360.18 157.87 358.51 158.86 359.04 155.47C359.63 156.28 360.38 156.75 360.31 158Z" fill="#62C6BF"/>
<path d="M349.55 117.47C349.29 117.49 348.24 118.01 347.02 118.1C347.33 117.05 348.14 116.66 349.2 116.85L349.55 117.47Z" fill="#62C6BF"/>
<path d="M312.18 146.6C312.19 146.78 313.22 147.63 312.81 148.5C312.43 148.6 311.75 148.38 311.54 148.5L312.17 146.6H312.18Z" fill="#62C6BF"/>
<path d="M340.68 123.17H339.42V125.06H340.68V123.17Z" fill="#62C6BF"/>
<path d="M358.41 154.2C358.24 154.06 357.28 154.36 357.15 154.2C356.63 153.57 357.77 152.4 357.78 152.3L358.41 154.2Z" fill="#62C6BF"/>
<path d="M329.28 157.36C327.28 157.76 328.19 156.37 328.01 154.83C329.08 155.41 328.96 156.45 329.28 157.36Z" fill="#62C6BF"/>
<path d="M313.45 212.46C313.27 214.62 311.39 215.63 310.28 216.89C310.55 216.29 312.08 212.85 312.32 212.61C312.71 212.22 313.36 212.53 313.45 212.46Z" fill="#62C6BF"/>
<path d="M362.21 123.8L361.92 124.28C360.08 124.16 359.6 122.96 358.41 121.9C359.56 122.54 360.82 122.97 362.21 123.8Z" fill="#62C6BF"/>
<path d="M299.52 148.5C299.45 148.5 298.85 149.36 298.26 149.13V147.23C298.56 147.56 299.39 147.74 299.52 148.5Z" fill="#62C6BF"/>
<path d="M316.62 208.66C316.62 209.6 316.22 210.23 315.35 210.56C315.53 210.16 315.15 208.89 315.35 208.66C315.48 208.5 316.38 208.8 316.62 208.66Z" fill="#62C6BF"/>
<path d="M294.45 220.06C295.14 220.75 293.88 222.01 293.19 221.32C292.5 220.63 293.76 219.37 294.45 220.06Z" fill="#62C6BF"/>
<path d="M312.81 139C313.5 139.69 312.24 140.95 311.55 140.26C310.86 139.57 312.12 138.31 312.81 139Z" fill="#62C6BF"/>
<path d="M358.41 141.53C359 139.93 359.3 140.23 359.68 139.63C359.68 140.55 359.32 141.25 358.41 141.53Z" fill="#62C6BF"/>
<path d="M343.21 122.54C343.9 123.23 342.64 124.49 341.95 123.8C341.26 123.11 342.52 121.85 343.21 122.54Z" fill="#62C6BF"/>
<path d="M229.22 256.16C229.15 256.16 228.38 257.2 227.96 256.79C227.82 256.65 228.1 255.73 227.96 255.53L229.23 256.16H229.22Z" fill="#62C6BF"/>
<path d="M358.41 142.8C358.31 143.33 357.75 144.02 357.78 144.7C357.74 144.15 355.84 142.48 358.41 142.8Z" fill="#62C6BF"/>
<path d="M308.38 219.43L307.11 220.06C307.73 219.4 308.33 219.48 308.38 219.43Z" fill="#62C6BF"/>
<path d="M309.02 218.79C309.09 218.72 309.12 218.12 309.65 217.52L309.02 218.79Z" fill="#62C6BF"/>
<path d="M351.45 118.1L350.18 117.47C351.01 117.49 350.97 117.65 351.45 118.1Z" fill="#62C6BF"/>
<path d="M330.55 160.53C330.29 160.06 330.14 159.72 329.92 159.26L330.55 160.53Z" fill="#62C6BF"/>
<path d="M367.91 127.6C367.24 127.17 366.66 126.8 366.01 126.33C366.93 126.33 367.63 126.69 367.91 127.6Z" fill="#62C6BF"/>
<path d="M365.38 125.7C364.75 125.76 364.51 125.36 364.11 125.07C364.74 125.01 364.98 125.36 365.38 125.7Z" fill="#62C6BF"/>
<path d="M301.73 221.33C302.14 221.54 302.14 221.75 301.73 221.96V221.33Z" fill="#62C6BF"/>
<path d="M356.83 145.33C357.24 145.54 357.24 145.75 356.83 145.96V145.33Z" fill="#62C6BF"/>
<path d="M163.83 104.32C188.26 100.46 200.64 133.15 180.65 146.47C160.66 159.79 137.3 139.34 147.21 117.46C149.84 111.66 157.48 105.31 163.83 104.31V104.32ZM165.74 111.3C150.93 113.16 146.05 131.42 157.99 140.88C167.65 148.53 178.69 142.95 182.02 132.01C185.32 121.16 177.35 109.84 165.73 111.3H165.74Z" fill="#048B80"/>
<path d="M185.99 229.07C190.25 228.21 196.77 229.32 200.73 231.15C209.11 235.01 206.16 239.83 198.46 240.91C194.34 241.49 179.45 240.43 179.84 234.36C180 231.86 183.81 229.52 185.99 229.08V229.07Z" fill="#048B80"/>
<path d="M265.12 153.37C260.05 159 252.13 150.67 251.04 145.37C249.41 137.43 254.65 134.25 261.34 138.23C265.8 140.89 268.88 149.2 265.13 153.37H265.12Z" fill="#24A29C"/>
<path d="M247.43 229.09C258.88 227.34 259.31 238.39 247.27 239.69C233.09 241.22 235.64 230.9 247.43 229.09Z" fill="#048B80"/>
<path d="M211.34 116.31C217.81 115.24 223.65 125.64 217.37 128.71C207.98 133.3 201.13 118 211.34 116.31Z" fill="#048B80"/>
<path d="M95.19 124.03C97.9 120.89 109.05 118.79 110.13 122.3C112.31 129.4 86.19 134.45 95.19 124.03Z" fill="#048B80"/>
<path d="M242.31 189.88C245.18 192.77 245.07 197.34 240.32 197.91C223.64 199.91 233.49 181.01 242.31 189.88Z" fill="#048B80"/>
<path d="M139.11 225.26C142.35 224.31 151.73 227.45 149.76 231.46C148.04 234.95 138.26 232.77 137.09 230.18C136.26 228.34 137.06 225.87 139.11 225.26Z" fill="#048B80"/>
<path d="M275.1 99.4497C281.72 106.42 271.15 109.41 266.96 102.22C263.71 96.6297 270.31 94.4097 275.1 99.4497Z" fill="#048B80"/>
<path d="M272.12 213.24C281.32 211.37 279.94 223.58 271.36 221.95C267.52 221.22 266.44 214.4 272.12 213.24Z" fill="#048B80"/>
<path d="M292.55 158C292.36 160.91 292.17 162.95 295.72 162.43L295.42 158.62C303.57 161.41 297.52 164.25 291.94 164.33C292.2 162.23 288.86 158.37 292.56 158H292.55Z" fill="#60C5BE"/>
<path d="M355.24 133.94C356.02 134.83 352.92 136.31 353.03 137.07L349.55 138.99L348.91 135.83L352.07 136.46L352.71 132.66C353.19 133.24 355.14 133.83 355.23 133.94H355.24Z" fill="#60C5BE"/>
<path d="M304.58 163.68C304.46 163.84 301.09 165.29 300.79 164.96C299.29 159.12 305.87 161.88 304.58 163.68Z" fill="#60C5BE"/>
<path d="M317.88 161.8C318.9 162.78 315.64 171.37 315.35 161.8C315.96 161.9 317.71 161.64 317.88 161.8Z" fill="#60C5BE"/>
<path d="M296.35 157.36C294.9 158.81 292.35 154.75 294.78 154.2C296.33 153.85 296.76 156.95 296.35 157.36Z" fill="#60C5BE"/>
<path d="M316.61 170.03H314.72V167.5H315.66C316.65 168.17 316.76 168.86 316.62 170.03H316.61Z" fill="#60C5BE"/>
<path d="M321.67 168.77C321.77 168.85 322.46 171.16 322.31 171.3H320.42V168.77C320.81 168.81 321.55 168.67 321.67 168.77Z" fill="#60C5BE"/>
<path d="M334.98 126.34H333.72V128.23H334.98V126.34Z" fill="#60C5BE"/>
<path d="M319.15 154.19H317.89V152.29C318.81 152.5 319.34 153.31 319.15 154.19Z" fill="#60C5BE"/>
<path d="M312.82 165.6C312.87 165.19 312.78 164.75 312.82 164.34C314.14 164.16 314.26 164.28 314.08 165.6C313.67 165.64 313.23 165.55 312.82 165.6C312.77 166.01 312.86 166.45 312.82 166.86C311.5 167.04 311.38 166.92 311.56 165.6C311.97 165.56 312.41 165.65 312.82 165.6Z" fill="#60C5BE"/>
<path d="M309.01 163.7C309.7 164.39 308.44 165.65 307.75 164.96C307.06 164.27 308.32 163.01 309.01 163.7Z" fill="#60C5BE"/>
<path d="M291.28 144.7C291.97 145.39 290.71 146.65 290.02 145.96C289.33 145.27 290.59 144.01 291.28 144.7Z" fill="#60C5BE"/>
<path d="M349.23 133.93C349.64 134.14 349.64 134.35 349.23 134.56V133.93Z" fill="#60C5BE"/>
<path d="M415.87 120.79C426.25 118.88 442.08 136.01 435.08 143.16C430.4 147.94 417.11 142.67 413.18 138.37C410.15 135.06 409.26 133.24 409.78 128.61C410.19 124.94 412 121.49 415.87 120.78V120.79Z" fill="#24A29C"/>
<path d="M474.76 200.56C483.08 198.65 489.35 211.59 489.55 218.47C489.88 229.94 480.11 233.94 475.11 222.74C474.1 220.48 471.34 212.36 470.78 209.98C470.04 206.83 471.23 201.38 474.76 200.56Z" fill="#24A29C"/>
<path d="M451.98 158.77C458.71 157.46 470.29 170.23 468.33 176.4C467.31 179.6 463.05 180.11 460.22 179.38C458.91 179.04 450.79 173.33 449.71 172.17C446 168.19 445.47 160.05 451.99 158.78L451.98 158.77Z" fill="#24A29C"/>
<path d="M393.77 112.29C390.62 114.25 382.95 110.05 380.28 107.95C377.61 105.85 371.25 98.4503 376.8 96.2403C380.52 94.7503 395.37 104.78 394.98 109.46C394.95 109.81 393.91 112.22 393.78 112.3L393.77 112.29Z" fill="#048B80"/>
<path d="M165.74 111.3C177.35 109.84 185.33 121.16 182.03 132.01C178.7 142.95 167.66 148.53 158 140.88C146.05 131.41 150.94 113.15 165.75 111.3H165.74ZM161.02 134.37C166.81 139.66 177.63 132.6 172.99 123.99C167.04 112.96 151.76 125.91 161.02 134.37Z" fill="#FEFCEF"/>
<path d="M161.02 134.37C151.76 125.91 167.04 112.96 172.99 123.99C177.63 132.6 166.81 139.66 161.02 134.37Z" fill="#048B80"/>
</g>
</g>
<defs>
<clipPath id="clip0_504_11440">
<rect width="669" height="516" fill="white"/>
</clipPath>
<clipPath id="clip1_504_11440">
<rect width="832.55" height="512" fill="white" transform="translate(69 75)"/>
</clipPath>
</defs>
</svg>
