<svg width="669" height="516" viewBox="0 0 669 516" fill="none" xmlns="http://www.w3.org/2000/svg">
<g clip-path="url(#clip0_504_11402)">
<rect width="669" height="516" fill="#D9D9D9" fill-opacity="0.6"/>
<g clip-path="url(#clip1_504_11402)">
<path d="M419.08 53.1498C419.28 53.2398 419.26 54.2698 419.79 54.3898C421.89 54.8798 423.72 53.5398 424.8 53.6198C425.26 53.6598 425.17 55.1398 425.63 55.1598C441.1 55.9898 453.13 61.0698 468.07 64.5498C509.14 74.1198 550.49 73.4098 581.7 105.89C591.85 116.45 597.32 130.61 606.57 141.82C622.58 161.26 644.75 169.86 664.39 183.69C680.28 194.87 697.52 214.2 705.1 232.37C713.74 253.07 713.4 270.55 715.89 292.02C717.72 307.83 725.27 324.52 729.59 339.86C746.88 401.25 718.63 457.14 666.14 489.95C659.7 493.97 652.66 497.11 646.24 501.19C607.56 525.8 593.13 567.82 538.42 563.72C521.67 562.47 505.65 555.83 489.16 553.6C459.11 549.53 431.01 560.9 400.75 553.04C380.64 547.82 364.32 540.41 342.59 540.03C316.48 539.57 296.89 553.49 272.11 554.88C247.05 556.29 192.07 533.08 169.67 520.17C102.86 481.65 47.71 406.54 77.13 326.54C87.96 297.08 112.04 273.6 124.33 244.72C132.92 224.53 134.04 202.5 143.58 182.41C166.64 133.9 218.73 113.48 264.09 92.3498C311.2 70.3798 349.65 50.1698 404.11 52.1298C406.3 52.2098 418.4 52.8298 419.08 53.1398V53.1498ZM410.9 82.3398C411.5 81.8998 417.9 70.2398 418.21 69.2498C418.52 68.2598 418.87 67.1198 418.21 66.1998C417.16 64.6998 397.98 64.3798 394.78 63.6098C393.47 67.8498 393.32 75.5698 396.27 79.2398C398.65 82.1998 407.71 84.6698 410.89 82.3398H410.9ZM383.69 64.7698C379.15 65.8298 367.27 65.5498 363.86 68.6698C360.95 71.3398 361.85 83.4098 364.75 86.3098C366.43 87.9798 371.31 89.7198 373.68 89.2598C375.29 88.9498 379.1 83.3298 380.11 81.5798C383.19 76.2298 384.95 70.9598 383.69 64.7698ZM429.93 100.66C430.91 100.23 432.09 100.01 432.88 99.5198C438.15 96.1998 455.48 78.2098 448.61 72.1398C447.03 70.7498 431.41 67.3098 429.68 68.0898C426.3 69.6098 419.11 87.0398 419.24 91.0698C419.4 95.9898 423.23 101.86 428.58 101.91C429.82 101.92 429.64 100.79 429.93 100.66ZM353.29 70.7098C347.29 72.3798 340.09 72.8598 334.36 75.1298C331.44 76.2898 325.92 79.5998 332.14 80.3798C338.52 81.1798 345.01 81.4898 351.36 82.5298C353.62 81.8498 353.37 72.9398 353.3 70.7198L353.29 70.7098ZM479.17 79.0298C477.98 77.9598 462.92 74.3298 461.86 75.8498C459.06 79.8898 464.44 97.9098 471.4 95.7898C472.72 95.3898 479.32 82.9098 479.71 81.1398C479.85 80.4798 479.66 79.4598 479.18 79.0298H479.17ZM321.19 106.08C323.85 102.82 320.5 88.1298 318.33 84.5298C316.16 80.9298 314.31 80.8598 310.83 81.9998C307.12 83.2098 297.07 87.5698 294.03 89.6798C288.62 93.4398 292.48 102.19 296.55 105.57C301.81 109.95 316.6 111.7 321.18 106.09L321.19 106.08ZM481.74 114.27C484.94 117.02 495.49 111.77 498.57 109.59C503.67 105.97 515.47 90.6598 509.06 85.1098C507.4 83.6698 492.22 80.3198 490.61 81.2598C489.25 82.0498 482.64 97.1298 481.93 99.6298C481.02 102.87 479 111.92 481.74 114.28V114.27ZM520.19 87.8398C518.65 89.1398 519.52 97.8798 522.09 98.7598C523.31 99.1798 527.08 99.0998 528.28 98.5098C528.66 98.3298 533.35 92.2098 533.45 91.7998C533.98 89.5298 521.12 87.0498 520.19 87.8298V87.8398ZM379.84 123.47C380.03 123.62 380.67 126.31 381.82 127.82C385.23 132.3 388.24 132.26 392.61 128.93C398.89 124.15 406.53 108.58 405.98 100.71C405.27 90.5998 391.93 84.6298 384.69 92.4698C380.8 96.6698 377.75 108.47 377.73 114.12C377.73 116.53 379.38 120.59 379.28 122.2C379.23 123.01 377.42 122.09 377.76 123.35C378.39 123.41 379.39 123.13 379.84 123.48V123.47ZM363.46 118.69C367.85 114.3 364.73 98.6498 359.6 94.4198C354.02 89.8198 331.29 86.2598 331.16 97.0098C331.04 106.63 341.97 113.29 349.56 117.06C353.34 118.94 359.87 122.27 363.45 118.69H363.46ZM543.64 94.5398C538.07 96.0698 533.18 112.65 536.08 117.41C538.58 121.51 548.63 119.11 552.24 117.29C555.85 115.47 564.99 108.86 561.69 104.39C560.06 102.18 546.19 93.8398 543.64 94.5398ZM443.92 139.48C445.74 141.3 450.36 140.13 452.42 139.06C458.63 135.83 467.2 116.6 465.83 109.8C465.5 108.18 459.28 97.9098 458.07 97.5398C447.22 94.2198 439.68 113.97 440.02 122.27C440.14 125.22 442.16 137.72 443.93 139.48H443.92ZM274.49 99.7898C273.31 100.04 263.76 104.82 263.23 105.59C259.35 111.24 265.58 123.49 269.88 127.8C272.51 130.44 284.92 138.29 288.25 137.32C291.58 136.35 293.83 129.55 293.92 126.58C294.09 121.38 284.99 104.48 281.01 101.1C279.1 99.4798 276.92 99.2898 274.49 99.7998V99.7898ZM419.07 107.14C414.34 108.43 405.93 129.89 405.87 134.84C405.81 139.79 408.06 146.87 412.35 149.91C419.37 154.89 422.05 150.97 425.59 144.86C430.36 136.61 431.62 126.76 429.16 117.53C428.07 113.45 424.29 105.71 419.07 107.13V107.14ZM502.53 143.9C504.3 146.76 507.73 146.41 510.4 145.14C520.29 140.44 525.48 123.5 525.33 113.38C525.19 103.31 516.12 107.85 511.21 111.85C505.22 116.72 501.51 122.6 500.85 130.41C500.57 133.74 500.8 141.12 502.53 143.91V143.9ZM250.02 111.65C246.81 111.65 233.25 117.67 231.27 120.34C229.29 123.01 230.47 128.4 231.29 131.55C236.29 150.94 256.53 154.08 255.41 129.67C255.26 126.48 253.58 111.67 250.02 111.66V111.65ZM572.54 113.95C569 110.92 565.14 119.61 563.97 122.35C561.86 127.3 556.55 144.82 563.84 146.77C569.64 148.33 580.93 135.13 581.9 129.87C582.45 126.91 574.81 115.89 572.54 113.95ZM312.32 116.85C299.42 119.01 300.81 145.03 310.33 151.85C315.27 155.38 332.54 158.64 337.7 156.33C342.42 154.22 342.03 138.27 341.09 133.69C338.52 121.16 324.04 114.89 312.31 116.86L312.32 116.85ZM480.63 125.75C472.91 127.02 463.59 143.57 461.88 150.74C457.3 169.98 468.37 174.57 480.84 160.8C483.63 157.72 490.51 147.04 491.44 143.22C493.4 135.18 490.96 124.04 480.63 125.74V125.75ZM219.75 127.13C218.24 126.06 203.62 134.03 202.87 135.31C200.48 139.43 215.05 146.99 220.98 141.19C223.13 139.08 221.15 128.12 219.75 127.13ZM539.95 129.46C535.23 130.68 524.07 146.02 522 150.81C519.38 156.9 515.95 171.6 526.41 170.85C529.64 170.62 535.71 164.2 537.93 161.55C542.48 156.13 555.09 138.07 550.14 131.51C548.29 129.06 542.66 128.76 539.94 129.46H539.95ZM356.76 130.16C352.75 131.41 350.97 146.56 351 150.42C351.08 159.12 355.26 174.39 365.11 176.4C369.11 177.22 371.56 176.4 373.23 172.57C376.76 164.49 376.73 143.24 371.4 135.99C368.68 132.29 361.23 128.76 356.76 130.15V130.16ZM589.45 139.67C579.51 146.56 577.35 172.41 593.88 156.69C601.04 149.87 593.29 146.17 589.45 139.67ZM271.55 142.82C264.71 143.02 256.42 150.25 256.11 157.09C255.74 165.13 263.56 175.56 270.48 179.09C289.04 188.57 307.91 165.79 290.94 151.95C286.95 148.69 276.64 142.66 271.55 142.81V142.82ZM192.96 144.22C189.77 144.55 177.7 154.99 176.04 157.79C172.39 163.94 188.27 170.87 192.83 171.48C204.49 173.04 207.05 168.28 203.73 157.62C202.64 154.14 196.72 143.84 192.96 144.22ZM390.15 144.26C388.81 144.66 387.89 146.19 387.35 147.4C384.45 154.02 384.47 169.05 386.29 175.98C388.11 182.91 395.64 194.6 403.92 192.14C409.05 190.62 409.31 172.68 408.82 168.28C407.95 160.47 400.58 141.16 390.15 144.26ZM231.9 178.71C233.78 179.57 243.63 178.04 245.08 176.4C249.57 171.29 243.83 160.5 239.46 156.73C234.72 152.64 221.87 148.64 216.14 151.17C211.42 153.25 214.86 164.02 216.73 167.6C220.66 175.1 223.96 175.47 231.14 177.53C231.74 177.7 231.72 178.63 231.9 178.72V178.71ZM436.86 150.94C431.17 152.24 422.28 171.65 420.98 177.33C419.68 183.01 418.88 191.4 422.64 195.99C425.39 199.34 431.66 198.97 434.79 196.34C437.92 193.71 448.87 177.73 449.5 173.98C450.35 168.88 450.65 162.34 448.33 157.71C446.22 153.51 441.92 149.8 436.86 150.95V150.94ZM570.41 158.32C570.17 157.91 566.57 156.75 565.71 156.68C558.29 156.03 540.74 170.9 537.77 177.71C534.37 185.52 538.69 197.41 548.27 194.13C558.23 190.72 570.39 175.65 571 165.12C571.05 164.3 570.58 158.61 570.41 158.31V158.32ZM486.97 200.98C490.66 203.9 495.3 200.55 498.23 198.22C503.12 194.33 512.79 181.86 512.73 175.65C512.54 158.33 498.43 152.39 488.68 167.9C483.74 175.75 478.34 194.13 486.98 200.98H486.97ZM605.95 160.53C603.15 160.98 584.2 172.84 582.08 175.29C577.3 180.82 575.31 193.95 584.97 195.3C596.53 196.91 606.48 189.03 610.95 178.95C611.9 176.81 614.4 169.43 614.34 167.43C614.25 164.63 608.77 160.09 605.96 160.54L605.95 160.53ZM315.28 165.78C302.99 168.26 311.53 185.86 316.24 191.91C322.04 199.36 336.33 207.06 345.71 207.72C353.13 208.24 353.09 194.45 352.56 189.7C350.67 172.84 330.91 162.62 315.28 165.78ZM166.23 169.44C163.91 170.12 155.89 182.37 156 185.24C156.28 191.86 172.76 199.04 178.67 199.03C190.5 199 186.18 187.26 181.88 180.93C180.43 178.8 170.86 169.98 168.84 169.47C167.89 169.23 167.19 169.16 166.23 169.44ZM622.01 179.28C616.69 185.52 611.53 202.06 624.96 200.4C633.32 199.37 639.22 190.12 642.41 183.11C642.22 182.31 628.88 175.51 627.82 175.36C625.91 175.09 623.22 177.86 622.01 179.28ZM197.78 182.11C195.54 184.5 198.14 192.51 199.51 195.19C203.05 202.11 217.01 211.64 224.74 212.26C244.17 213.81 234.42 193.58 225.69 186.8C220.34 182.65 202.76 176.78 197.77 182.11H197.78ZM471.71 183.61C466.96 177.68 457.57 184.67 453.75 188.59C447.44 195.06 438.01 208.74 437.77 217.88C437.7 220.64 439.88 228.81 442.01 230.18C449.79 235.18 464.82 220.8 468.52 214.49C472.22 208.18 476.13 189.14 471.71 183.61ZM246.7 187.29C246.14 187.76 245.21 192.44 245.13 193.51C244.66 199.76 248.61 208.56 252.15 213.74C264.01 231.08 287.26 234.38 275.33 206.13C271.8 197.77 264.56 185.86 254.31 185.79C253.29 185.79 247.2 186.87 246.7 187.29ZM381.99 240.27C384.57 238.22 387.93 229.19 388.66 225.82C391.33 213.52 391.6 199.49 380.74 191.17C368.4 181.72 363.35 197.34 362.89 207.46C362.45 217.11 366.19 242.4 379.55 241.2C380.45 241.12 381.28 240.83 381.99 240.27ZM522.9 189.48C516.89 190.64 506.55 205.19 504.2 210.87C501.53 217.34 496.03 238.37 509.02 234.96C519.24 232.27 529.99 215.26 531.16 205.2C531.79 199.77 530.96 187.93 522.9 189.48ZM290.79 190.24C284.27 191.74 282.99 199.95 284.94 205.42C287.35 212.18 294.36 219.82 300.63 223.09C305.65 225.7 314.13 230.13 316.59 222.71C319.82 212.97 312.92 203.18 306.55 196.4C302.2 191.76 297.68 188.65 290.78 190.24H290.79ZM645.55 194.62C645.31 194.89 644.08 200.83 643.98 201.65C643.12 209.12 650.58 212.71 657.15 211.08C659.11 210.59 668.07 205.21 668.37 203.73C668.54 202.91 667.79 202.46 667.33 201.92C665.95 200.31 653.82 190.96 652.11 190.4C648.71 189.29 649.11 192.69 647.69 194.06C646.95 194.77 645.76 194.39 645.55 194.63V194.62ZM150.14 196.01C149.42 200.75 143.64 215.07 145.48 218.83C146.87 221.67 159.55 222.69 162.55 221.41C169.51 218.43 165.64 206.41 161.21 202.36C160.04 201.29 150.92 195.44 150.14 196.01ZM549.33 235.62C557.8 232.08 564.49 226.74 569.18 218.75C577.39 204.76 574.7 193.46 556.46 200.1C546.01 203.9 535.13 217.71 532.95 228.49C532.22 232.11 531.06 240.21 536.59 239.62C538.45 239.42 546.67 237.39 548.47 236.74C549.09 236.51 549.13 235.71 549.33 235.63V235.62ZM609.67 203.6C608.22 202.1 601.61 202.62 599.43 203.02C589.89 204.78 572.68 218.22 579.4 229.05C582.07 233.35 592.36 232.89 596.49 231.23C602.44 228.84 611.58 216.9 611.34 210.51C611.3 209.36 610.27 204.22 609.67 203.6ZM410.18 205.08C401.27 206.9 397.63 228.83 397.74 236.39C397.83 242.82 400.4 261.19 409.27 261.21C417.71 261.23 426.77 231.78 426.75 224.56C426.73 216.12 420.18 203.03 410.18 205.08ZM200.74 240.25C204.03 241.8 210.85 238.32 211.55 234.76C212.37 230.58 208.62 221.73 206.05 218.32C199.8 210.04 176.97 200.26 175.34 215.66C173.73 230.92 186.65 233.23 197.76 238.34C199.51 239.14 200.08 239.01 200.39 239.16C200.57 239.25 200.54 240.16 200.75 240.25H200.74ZM629.65 210.24C623.59 211.6 615.32 226.57 613.88 232.31C611.7 241.04 615.12 256.07 626.16 247.56C629.95 244.64 642.61 231.46 643.62 227.21C645.37 219.78 637.62 208.46 629.65 210.25V210.24ZM674.9 210.94C670.36 211.58 658.78 221.52 655.94 225.42C647.34 237.26 652.71 246.63 667.46 241.39C671.37 240 686.77 229.16 686.97 225.23C687.08 223.06 678.59 212.1 676.55 211.18C675.89 210.88 675.62 210.84 674.9 210.94ZM334.54 215.42C325.33 216.86 327.25 235.81 329.03 242.14C331.11 249.5 343.54 279.36 354.41 270.17C362.54 263.29 359.08 241.29 354.9 232.58C352.21 226.97 341.33 214.35 334.54 215.41V215.42ZM480.6 218.41C478.88 218.93 469.32 229.69 468.03 231.79C463.13 239.77 461.8 250.03 464.12 259.05C466.35 267.72 469.88 271.82 477.09 263.83C482.16 258.21 488.94 247.3 490.13 239.79C491.18 233.18 491.53 215.12 480.6 218.41ZM233 221.43C221.38 221.74 217.46 228.22 221.91 238.79C226.07 248.68 239.67 254.61 249.83 255.36C261.74 256.24 270.66 255.74 263.71 241.48C258.92 231.66 244.23 221.13 233.01 221.42L233 221.43ZM143.97 228.01C141.5 228.61 137.62 242.64 138.41 245.18C139.74 249.48 159.5 254.49 164 254.33C167.73 254.2 173.77 249.1 173.92 245.3C174.15 239.27 167.05 235.26 162.2 233.26C159.94 232.33 145.27 227.69 143.98 228L143.97 228.01ZM280.12 235.54C271.86 245.28 286.38 263.55 294.76 269C301.52 273.39 317.23 279.17 324.32 274.19C328.79 271.05 328.46 267.93 326.52 263.19C323.96 256.91 317.78 246.64 312.44 242.42C305.68 237.09 287.07 227.34 280.11 235.54H280.12ZM698.63 255.16C699.29 254.53 699.5 253.1 699.4 252.18C699.14 249.89 694.16 236.63 692.4 236.11C687.72 234.73 667.23 255.06 680.8 258.14C683.74 258.81 696.69 257.02 698.63 255.16ZM546.31 248.9C545.42 249.64 540.14 257.08 539.27 258.54C536.69 262.9 529.59 278.79 539.56 278.16C542 278.01 553.35 273.13 556.2 271.77C566.3 266.97 580.05 255.78 577.77 243.27C576.52 236.44 570.11 237.24 565.07 239.11C561.72 240.36 548.75 246.85 546.31 248.89V248.9ZM446.41 284.68C451.64 275.97 456.57 253.97 448.97 246.03C443.42 240.23 438.06 244.9 433.73 249.39C425.33 258.09 412.92 282.14 414.87 294.22C415.12 295.8 418.06 300.61 419.31 301.64C426.09 307.23 434.12 299.96 438.54 294.98C440.69 292.56 444.81 287.34 446.41 284.68ZM596.28 243.62C594.37 244.05 592.94 245.83 591.74 247.24C587.02 252.78 576.42 268.84 575.74 275.73C574.56 287.81 579.46 288.46 589.34 284.14C603.1 278.13 617.5 262.11 605.37 247.56C602.82 244.5 600.54 242.65 596.28 243.62ZM486.2 289.24C490.81 293.59 505.69 284.93 509.97 281.88C518.59 275.75 530.79 261.36 526.41 250.14C524.86 246.18 522.6 244.78 518.3 244.92C504.64 245.38 485.71 264.19 483.98 277.38C483.61 280.21 484.1 287.26 486.2 289.23V289.24ZM183.18 251.28C175 256.85 173.31 263.83 181.27 270.53C189.67 277.61 208.88 277.58 219.26 275.14C228.64 272.93 235.89 267.06 225.57 259.6C214.7 251.75 197.76 248.51 184.58 250.08C183.25 250.24 183.55 251.03 183.19 251.28H183.18ZM643.01 251.06C635.77 252.19 612.74 265.76 619.79 274.67C627.13 283.95 661.35 274.5 664.37 262.76C667.21 251.74 650.57 249.88 643.01 251.06ZM389.13 304C397.85 308.6 401.68 301.53 402.21 293.51C402.93 282.63 398.12 269.04 391.41 260.59C382.99 249.98 371.86 248.23 370.35 264.62C368.96 279.71 375.18 296.66 389.13 304.01V304ZM134.18 254.88C131.27 254.99 130.8 259.31 129.66 261.18C124.6 269.49 120.68 269.71 130.18 276.39C139.57 282.99 150.32 287.44 161.83 283.71C164.86 282.73 169.89 280.42 169.29 276.65C168.24 270.11 153.84 263.28 148.17 260.62C145.95 259.58 135.66 254.82 134.18 254.88ZM692.73 265.93C685.68 266.47 661.49 271.9 670.3 282.73C673.1 286.17 678.1 286.03 682.12 285.71C686.61 285.35 695.58 283.39 700.13 282.22C701.25 281.93 702.33 281.5 703.32 280.9C704.03 280.28 702.24 268.5 701.38 267.22C699.87 264.96 695.08 265.75 692.73 265.93ZM250.79 266.64C240.91 268.1 239.88 278.21 245.04 285.35C252.89 296.21 269.42 297.17 281.39 294.28C286.85 292.96 291.86 291.25 290.83 284.79C289.8 278.33 283.69 273.92 277.9 271.03C271.02 267.6 258.33 265.53 250.79 266.64ZM109.34 296.11C114.24 297.25 136.25 298.56 133.7 289.23C133.09 286.99 120.91 280.1 118.77 280.63C116.99 281.07 107.89 294.71 109.34 296.1V296.11ZM556.14 323.23C562.49 315.6 568.52 302.13 567.56 292.04C566.12 276.88 552.44 283.22 546.09 291.31C539.79 299.31 533.77 320.44 538.84 329.67C542.95 337.16 552.81 327.24 556.15 323.23H556.14ZM463.57 284.41C456.11 285.94 445.94 303.21 443.18 310C439.76 318.43 431.37 350.27 449.71 341.74C463.7 335.23 474.42 319.3 475.62 303.88C476.21 296.31 473.93 282.29 463.57 284.41ZM363.85 335.15C364.11 335.28 368.96 336.65 369.41 336.72C377.03 337.93 379.81 335.89 380.65 328.29C382.37 312.61 360.67 284.45 344.05 284.96C332.43 285.32 340.07 305.8 343 311.96C346.44 319.21 356.78 331.52 363.85 335.14V335.15ZM194.45 285.93C185.87 286.87 181.87 289.25 187.96 297.2C194.85 306.2 212.85 311.92 223.93 311.72C228.32 311.64 241.12 309.72 242.87 305.44C247.89 293.13 226.62 287.11 217.97 286.48C211.94 286.04 200.14 285.31 194.46 285.93H194.45ZM576.65 319.66C579.27 322.29 589.32 321.11 592.83 320.25C600.51 318.38 618.22 306.62 620.46 298.95C621.27 296.17 621.11 289.35 619.1 287.22C613.75 281.52 592.68 293.26 587.66 297.29C583.63 300.52 571.64 314.64 576.65 319.67V319.66ZM646.71 285.9C641.3 287 630.12 297.05 628.34 302.38C622.96 318.48 642.33 312.23 650.25 308.72C657.35 305.56 673.76 294.24 661.28 287.32C658.08 285.55 650.26 285.19 646.72 285.91L646.71 285.9ZM332.35 323.37C334.16 321.57 334.2 315.6 333.68 313.12C332.66 308.26 323.54 293.39 319.57 290.16C310.91 283.12 303.12 286.33 303.65 297.86C303.93 303.96 311.27 313.04 315.86 316.85C318.88 319.36 328.88 326.82 332.35 323.37ZM520.56 316.58C526.17 310.31 543.27 285.04 523.63 288.13C512.47 289.89 491.71 302.39 486.85 312.88C481.97 323.39 484.03 334.92 498.08 332.26C504.32 331.08 516.18 321.48 520.57 316.58H520.56ZM703.83 291.83C702.15 290.18 694.22 292.56 691.83 293.2C684.68 295.12 673.87 298.48 671.73 306.47C668.75 317.6 685.89 314.13 691.98 312.63C694.39 312.04 704.79 308.56 705.34 306.72C705.86 305.01 704.72 292.71 703.83 291.83ZM152.19 295.57C131.36 298.05 142.51 310.82 153.16 317.91C162.25 323.97 172.83 327 183.78 325.67C193.37 324.5 191.89 316.64 187.18 310.57C179.1 300.15 165.39 293.99 152.19 295.56V295.57ZM103.2 303.68C101.25 304.26 95.59 314.09 95.43 315.88C94.92 321.53 115.53 327 120.08 327.27C129.11 327.81 144.44 323.97 133.1 313.51C128.18 308.98 109.5 301.79 103.2 303.67V303.68ZM261.56 308.92C254.61 317.37 273.79 334.57 280.86 337.76C285.9 340.04 300.26 343.39 305.31 341.92C307.83 341.19 311.17 334.65 311 332.11C310.74 328.16 303.36 319.6 300.29 316.85C295.64 312.67 284.94 306.43 278.77 305.74C274.84 305.3 264.23 305.67 261.56 308.92ZM408.71 314.82C401.26 316.01 394.6 330.59 392.56 337.22C389.19 348.14 389.64 367.64 394.91 377.95C398.14 384.26 407.11 388.63 413 383.62C416.75 380.43 422.65 365.7 424.1 360.61C426.85 350.97 428.78 333.01 424.35 324.04C421.12 317.52 416.38 313.59 408.71 314.82ZM706.8 317.79C700.67 318.49 686.17 326.38 697.35 330.57C699.33 331.31 712.72 332.71 713.66 332.11C714.6 331.51 714.2 330.99 714.09 330.21C713.92 329.01 710.73 318.91 710.32 318.35C709.45 317.15 708.01 317.66 706.8 317.8V317.79ZM660.84 320.06C651.83 320.8 638.07 327.44 636.67 337.46C635.57 345.32 644.11 346.94 650.23 346.52C657.35 346.03 683.43 337.42 682.52 328.4C681.95 322.77 665.35 319.69 660.84 320.07V320.06ZM219.68 321.54C212.83 322.13 198.74 324.67 200.72 334.12C203.6 347.88 234.79 348.26 245.32 346.43C253.35 345.04 263.24 340.56 259.01 330.7C254.32 319.77 229.48 320.69 219.68 321.54ZM626.7 323.73C621.21 317.87 606.17 327.72 602.05 332.43C597.55 337.56 585.92 354.71 594.59 359.92C601.24 363.91 614.9 353.14 619.12 348.01C622.65 343.72 631.23 328.55 626.7 323.72V323.73ZM112.09 343.35C114.8 339.95 112.13 337.5 109.59 335.54C106.91 333.47 92.72 327.27 89.82 327.95C87.84 330.87 81.87 347.44 84.98 349.4C88.35 351.51 108.92 347.32 112.08 343.36L112.09 343.35ZM128.15 347.01C137.21 357.77 164.94 356.02 176.6 350.38C192.15 342.86 173.73 334.36 165.15 332.63C153.1 330.2 139.31 329.86 129.44 338.07C125.99 340.94 124.96 343.22 128.15 347.01ZM574.83 331.18C563.75 332.13 550.45 338.57 543.45 347.25C538.68 353.17 526.79 374.25 542.66 372.42C549.12 371.68 563.34 365.95 568.99 362.41C579.47 355.83 600.48 328.99 574.83 331.18ZM507.2 341.77C498.18 350.39 484.94 369.5 486.71 382.53C487.32 387.03 492.47 388.42 496.41 387.73C510.37 385.28 524.2 364.37 528.84 351.91C533.52 339.32 530.56 328.16 515.29 335.4C512.04 336.94 509.74 339.35 507.2 341.77ZM330.1 338.54C326.81 339.21 321.26 343.5 320.71 346.94C318.66 359.64 335.86 368.88 345.48 373.24C352.04 376.22 365.83 381.97 372.53 383.26C377.99 384.31 380.46 382.22 380.76 376.53C381.84 355.72 348.53 334.77 330.1 338.54ZM429.88 398.95C435.14 402.77 450.71 394.61 455.84 391.62C466.47 385.41 471.86 379.19 478.17 368.72C485.96 355.8 494.96 333.28 468.97 343.21C456.34 348.04 442.67 360.62 435.29 371.81C431.57 377.44 422.53 393.61 429.88 398.95ZM720.93 357.53C721.94 355.9 719.78 346.87 718.45 345.06C714.13 339.2 692.63 341.03 686.05 343.03C680.55 344.7 670.85 351.12 678.11 356.49C685.79 362.17 703.37 362.32 712.47 360.55C713.72 360.31 720.63 358.04 720.94 357.54L720.93 357.53ZM268.61 350.45C259.95 351.33 240.25 357.66 250.57 368.79C260.93 379.97 286.88 379.57 300.68 376.58C310.25 374.51 316.36 370.02 308.38 360.66C299.44 350.19 281.23 349.15 268.62 350.44L268.61 350.45ZM196.66 354.13C188.87 355.13 177.48 359.88 184.6 368.78C192.82 379.05 208.44 382.33 220.97 381.41C234.64 380.41 243.62 373.68 229.82 362.86C221.8 356.57 206.7 352.84 196.66 354.13ZM644.54 354.92C637.99 355.34 629.17 357.02 623.68 360.74C610.39 369.73 627.27 376.24 636.17 376.92C644.02 377.52 666.34 376.58 668.26 366.74C670.18 356.9 651.56 354.47 644.55 354.92H644.54ZM99.56 357.87C96.53 358.07 85.45 359.12 83.44 360.29C80.14 362.2 80.25 376.91 82.7 378.75C87.46 382.32 106.82 378.25 112.72 376.22C117.25 374.66 137.08 366.88 128.63 360.26C123.87 356.53 105.94 357.45 99.57 357.88L99.56 357.87ZM172.11 371.26C166.05 365.52 157.31 364.07 149.38 366.17C147.82 366.58 139 370.4 137.74 371.21C137.22 371.54 131.04 379.22 130.7 380.1C126.15 391.92 147.34 389.56 153.46 388.78C159.58 388 166.79 386.23 171.89 382.74C177.74 378.73 176.86 375.75 172.12 371.26H172.11ZM710.52 368.99C703.1 369.17 691.63 368.87 684.86 370.76C675.56 373.36 672.89 379.88 682.49 384.72C690.84 388.93 709.21 391.04 718.11 388.44C726.08 386.11 720.79 376.88 723.15 370.69C722.48 367.72 712.93 368.93 710.52 368.99ZM581.51 371.22C564.15 372.72 547.23 382.4 572.5 392.39C583 396.54 598.59 397.01 608.29 390.58C614.73 386.31 615.82 382.17 609.45 376.95C602.59 371.33 590.1 370.48 581.52 371.22H581.51ZM319.03 383.08C300.38 384.86 296.96 395.54 313.02 405.7C324.44 412.92 353.74 419.28 367.02 417.73C372.34 417.11 373 413.13 372.57 408.44C370.79 389.13 334.46 381.61 319.03 383.09V383.08ZM534.8 384.56C524.19 385.31 497.44 396.64 495.08 407.87C492.08 422.13 510.28 418.71 518.78 416.75C527.28 414.79 545.35 405.95 549.19 398.22C553.31 389.92 541.86 384.06 534.8 384.55V384.56ZM642.31 386.05C635.4 386.64 623.2 388.43 621.87 396.76C621.3 400.29 622.07 401.11 624.72 403.19C633.72 410.25 657.93 410.82 667.71 405.51C669.21 404.69 675.29 399.98 675.7 398.64C676.53 395.86 674.7 394.5 672.87 392.86C664.88 385.76 652.47 385.17 642.32 386.04L642.31 386.05ZM287.07 394.21C281.59 387.71 258.03 385.76 249.87 386.57C235.55 388 220.32 401.78 240.07 409.7C251.8 414.4 277.55 417.57 287.22 407.62C291.3 403.42 290.73 398.56 287.06 394.21H287.07ZM86.37 409.56C93.35 408.18 100.37 404.77 106.33 400.97C110.76 398.15 122.39 390.65 111.44 387.82C107.59 386.82 99.2 387.62 94.99 388.15C93.01 388.4 85.88 389.46 84.63 390.22C81.02 392.42 86.63 405.73 86.37 409.56ZM187.05 389.75C182.85 390.18 179.29 391.13 175.59 393.12C168.25 397.07 147.72 412.31 164.94 417.36C175.08 420.34 192.78 416.23 202.19 411.56C204.86 410.24 212.95 405.27 214.63 403.24C218.96 398.01 209.88 393.31 206.02 391.85C199.87 389.52 193.57 389.08 187.06 389.75H187.05ZM419.08 454.57C420.03 453.8 421.85 448.93 422.07 447.56C423.34 439.46 424.09 424.79 420.67 417.43C418.11 411.91 403.8 397.82 397.82 396.54C390.95 395.06 388.07 396.77 386.99 403.59C384.74 417.7 393.68 432.76 401.62 443.9C405.01 448.64 412.31 460.09 419.08 454.58V454.57ZM475.25 397.34C465.62 397.52 449.23 410.37 443.88 418.21C438.97 425.41 432.53 442.86 434.15 451.41C435.51 458.58 443.36 458.45 448.45 455.4C455.36 451.27 475.55 427.3 479.65 419.87C483.46 412.96 487.4 397.11 475.25 397.34ZM705.32 397.9C699.85 398.52 682.23 402.33 692.18 409.89C695.6 412.49 710.02 418.2 713.89 416.85C715.99 416.12 719.4 401.74 718.74 399.68C717.79 396.73 707.92 397.6 705.32 397.9ZM92.38 418.54C91.12 420.53 98.03 434.01 100.47 435.13C103.2 436.38 114.77 431.83 118.01 430.45C125.78 427.12 145.26 415.97 146.86 407.35C148.79 396.95 134.47 400.22 128.62 401.76C116.33 405 104.32 414.01 92.38 418.54ZM606.61 417.45C611.55 412.16 607.34 408.2 601.89 406C593.14 402.45 569.51 404.14 560.16 406.96C544.6 411.65 523.16 430.09 553.12 432.53C556.88 432.84 566.98 433.61 570.19 433.37C571.52 433.27 571.14 432.02 571.81 431.84C582.03 429.05 598.89 425.73 606.61 417.46V417.45ZM204.48 423.11C200 428.61 213.57 436.71 217.84 438.6C229.91 443.91 249.33 445.3 260.99 438.49C273.97 430.92 257.61 424.05 250.23 421.78C241.49 419.08 224.64 414.93 215.92 416.41C213.52 416.82 205.97 421.29 204.48 423.12V423.11ZM708.43 428.12C695.88 425.17 680.63 411.28 667.63 418.04C661.37 421.29 662.22 427.32 666.3 432.06C671.66 438.29 687.81 446.88 696.07 444.99C700.34 444.01 708.08 432.7 708.44 428.12H708.43ZM613.26 424.83C607.73 428.83 600.75 431.96 609.14 438.05C618.53 444.85 639.06 445.8 649.17 440.36C663.56 432.61 645.56 418.76 635.41 417.72C625.76 416.73 620.55 419.57 613.26 424.84V424.83ZM296.79 418.67C288.77 419.3 272.71 423.97 280.31 434.71C288.09 445.7 315.77 446.93 327.47 443.42C335.72 440.95 339.23 433.61 332.14 427.37C324.47 420.62 306.67 417.9 296.79 418.68V418.67ZM106.48 445.25C105.2 447.43 115.59 459.46 117.83 460.75C121.71 462.98 131.22 458.56 135.2 456.54C141.99 453.09 156.49 442.36 159.19 435.3C163.25 424.65 150.93 426.24 144.36 427.88C140.2 428.92 107.55 443.43 106.48 445.25ZM507.26 429.1C494.25 429.79 470.51 447.07 465.33 458.94C462 466.57 465.25 471.77 473.77 471.09C484.21 470.25 511.15 457.59 519.02 450.36C523.89 445.89 530.26 436.98 522.58 431.93C519.27 429.75 511.16 428.9 507.25 429.11L507.26 429.1ZM183.3 429.75C180.41 430.24 175.34 433.16 173.11 435.12C168.5 439.18 161.21 451.16 164.63 456.97C173.28 471.67 206.83 447.12 194.26 433.26C191.15 429.83 187.86 428.97 183.3 429.74V429.75ZM353.82 430.47C348.18 431.75 347.49 439.35 349.71 443.9C356.3 457.45 381.02 470.99 391.93 481.76C402.84 486.18 405.28 478.02 402.38 469.08C400.14 462.17 387.14 443.27 381.42 438.88C375.7 434.49 361.11 428.81 353.82 430.46V430.47ZM565.94 440.92C557.15 441.57 545.18 444.27 537.69 449C535.43 450.43 533.45 451.5 532.55 454.24C530.32 461.06 532.39 462.67 538.61 464.09C552.89 467.36 573.56 465.06 586.33 457.6C589.93 455.5 594.77 453.06 593.2 448.07C590.86 440.67 572.21 440.45 565.94 440.91V440.92ZM659.34 447.56C656.43 447.98 648.07 451.27 647.63 454.45C646.73 460.97 662.22 470.64 667.65 471.54C669.94 471.92 672.29 471.02 674.29 469.93C675.97 469.02 688.18 457.53 688.39 456.58C688.69 455.27 686.59 454.56 685.73 454.13C679.16 450.8 666.53 446.52 659.32 447.56H659.34ZM219.59 450.61C213.54 450.48 203.86 455.12 199.13 458.92C188.41 467.53 183.42 485.57 203.14 483.69C212.08 482.84 227.08 472.7 230.58 464.42C233.82 456.77 227.04 450.77 219.6 450.6L219.59 450.61ZM264.12 450.51C259.4 451.25 245.97 456.98 243.94 461.47C243.27 462.95 243.23 468.18 243.92 469.62C244.42 470.66 248.66 472.71 249.95 473.23C260.85 477.58 278.57 477.49 289.28 472.72C301.57 467.24 299.62 458.44 288.3 453.42C281.24 450.29 271.75 449.34 264.11 450.53L264.12 450.51ZM644.97 488.46C647.24 487.46 659.12 482.05 658.72 479.73C658.46 478.25 638.61 461.68 636.03 460.11C627.96 455.17 614.7 452.26 605.98 456.49C598.21 460.26 598.12 463.61 603.19 469.97C610.97 479.73 628.12 484.83 639.67 488.21C640.38 488.42 640.31 490.55 644.17 489.6C644.71 489.47 644.76 488.55 644.98 488.46H644.97ZM369.88 479.71C359.12 468.32 331.34 449 315.97 460.1C308.12 465.77 311.79 473.34 318.48 478.09C329.21 485.71 356.09 492.32 369.26 492.62C377.6 492.81 375.95 486.27 372.15 481.5C371.45 480.62 370.5 480.36 369.88 479.71ZM150.51 461.83C147.73 461.72 142.55 463.72 139.98 465.03C138.63 465.71 130.77 470.74 130.12 471.48C129.47 472.22 129.06 472.51 129.41 473.62C129.62 474.27 139.14 482.33 139.76 482.61C140.73 483.06 140.98 483.06 141.96 482.61C144.96 481.23 155.53 465.81 153.52 462.9C152.69 462.19 151.59 461.87 150.52 461.82L150.51 461.83ZM428.61 522.69C437.67 512.6 447.9 496.33 448.87 482.48C449.63 471.53 438.77 467.96 430.18 472.72C414.54 481.38 403.9 511.99 409.6 528.6C413.57 540.18 424.38 527.4 428.62 522.68L428.61 522.69ZM516.26 470.58C504.54 471.18 472.52 483.06 464.48 491.46C457.69 498.55 461.45 503.48 470.17 504.37C486.15 506 517.69 497.38 529.01 485.55C538.98 475.14 525.96 470.09 516.26 470.58ZM170.7 472.73C167.19 473.41 151.03 486.49 150.44 489.59C150.01 491.82 161.43 500.11 163.43 500.45C169.27 501.42 177.63 488.89 178.71 483.75C180.05 477.4 178.46 471.22 170.69 472.74L170.7 472.73ZM563.69 474.25C556.35 475.24 534.24 483.47 545.31 492.99C553.41 499.95 581.64 498.69 590.6 493.75C605.11 485.75 589.23 475.08 579.06 474.07C575.07 473.67 567.64 473.72 563.69 474.26V474.25ZM234.46 482.39C222.47 484.45 208.84 501.81 204.64 512.63C202.63 517.8 200.44 522.44 207.78 523.57C218.43 525.21 246.63 505.18 251.59 495.82C257.75 484.2 243.05 480.92 234.46 482.4V482.39ZM294.57 484.66C284.23 485.46 272.78 488.76 265.05 495.92C254.88 505.34 260.36 513.79 272.85 514.82C283.24 515.68 299.82 509.01 308 502.54C314.18 497.65 318.09 493.05 309.92 487.4C305.46 484.31 299.78 484.26 294.57 484.66ZM629.83 496.34C629.48 495.82 621.61 493.24 620.24 492.94C614.79 491.73 607.52 490.77 603.12 495.15C596.73 501.5 608.73 511.67 613.01 511.02C615.38 510.66 621.73 503.8 623.99 501.93C625.51 500.67 631.31 498.55 629.83 496.34ZM175.39 510.33C180.43 512.05 187.24 518.6 192.68 515.49C196.46 513.33 202.65 494.4 195.9 494.26C187.94 494.09 176.81 502.48 175.39 510.33ZM529.59 501.7C523.37 502.36 512.81 506.47 507.89 510.39C504.39 513.18 505.17 515.13 508.23 518.2C511.99 521.98 530.02 529.63 535.38 530.34C543.58 531.44 559.16 529.04 556.86 517.75C554.56 506.46 539.77 500.62 529.59 501.69V501.7ZM335.33 503.18C329.74 503.85 311.18 510.88 315.84 518.55C318.27 522.56 344.56 528.09 350.04 528.83C357.74 529.87 383.44 532.24 389.16 528.83C391.51 527.43 391.97 525.66 391.36 523.15C387.28 506.34 349.32 501.5 335.33 503.17V503.18ZM585.54 531.7C585.93 531.94 593.71 531 594.68 530.45C597.4 528.91 605.39 520.59 603.22 517.38C601.05 514.17 589.62 508.48 585.56 507.6C581.21 506.66 566.16 506.44 566.45 512.69C566.88 521.92 575.59 526.09 582.62 529.68C583.12 529.93 583.16 531 583.25 531.03C584.49 531.46 583.37 530.39 585.54 531.7ZM466.58 518.02C458.27 518.88 447.58 523.41 442.28 530.05C438.19 535.18 437.28 537.93 444.34 539.82C455.39 542.79 483.65 542.19 495.08 539.84C499.55 538.92 504.06 538.11 502.91 532.43C500.52 520.62 476.45 516.99 466.58 518.02ZM225.76 531.88C235.83 534.46 245.35 542.93 254.25 533.32C257.55 529.75 260.08 525.79 256.55 521.49C250.53 514.15 235.11 522.82 229.22 527.57C228.45 528.19 224.97 530.79 225.76 531.88ZM261.35 543.02H278.03C281.04 543.02 292.33 539.11 295.84 537.84C297.5 537.24 308.32 533.12 308.7 532.54C312.56 526.52 297.76 522.19 293.6 522.2C285.52 522.2 276.72 527.74 270.64 532.66C269.43 533.64 262.59 539.66 262.04 540.38C261.35 541.29 261.19 541.88 261.35 543.02ZM564.45 534.32C559.17 534.81 550.94 537.09 553.94 543.68C557.45 551.39 560.65 550.52 567.77 548.04C569.78 547.34 579.82 542.61 580.15 541.09C580.92 537.49 567.86 534.01 564.46 534.32H564.45ZM544.59 552.65C540.74 546.09 534.42 539.25 526.42 538.58C522.5 538.25 510.23 538.99 514.15 545.65C516.56 549.75 529.9 551.98 534.68 552.57C536.21 552.76 543.95 553.48 544.6 552.65H544.59Z" fill="#3BB5AF"/>
</g>
</g>
<defs>
<clipPath id="clip0_504_11402">
<rect width="669" height="516" fill="white"/>
</clipPath>
<clipPath id="clip1_504_11402">
<rect width="665.66" height="512" fill="white" transform="translate(69 52)"/>
</clipPath>
</defs>
</svg>
