<svg width="669" height="516" viewBox="0 0 669 516" fill="none" xmlns="http://www.w3.org/2000/svg">
<g clip-path="url(#clip0_504_7491)">
<rect width="669" height="516" fill="#D9D9D9" fill-opacity="0.6"/>
<g clip-path="url(#clip1_504_7491)">
<path d="M90.343 325.419C107.672 275.077 163.228 263.158 200.883 233.848C213.494 224.034 224.887 212.283 237.601 202.535C270.912 176.985 308.483 160.725 350.856 157.479C353.206 140.265 373.541 83.421 388.736 76.3015C402.47 69.8649 396.871 102.02 403.724 100.485C405.419 100.111 415.586 85.0395 418.133 82.1767C422.252 77.5457 444.619 54.7277 449.478 56.0562C453.307 57.104 453.307 81.9147 454.73 87.4906C455.881 92.0093 456.143 95.0592 461.255 93.9365C465.74 92.9542 479.718 76.0114 484.923 71.7547C489.042 68.3867 496.457 63.5593 501.251 61.2672H509.096V78.2661C508.656 83.1964 505.773 99.793 511.249 101.673C517.588 103.844 531.818 90.8399 537.885 87.4251L552.275 83.5052C554.84 92.6735 547.163 108.849 550.973 116.193C552.612 119.346 553.089 118.972 556.226 118.279C563.154 116.755 581.026 103.535 585.38 104.592C597.092 107.446 578.171 134.801 580.399 138.431C581.962 140.658 582.833 139.32 584.612 138.712C589.452 137.037 604.815 124.604 608.645 129.805C614.337 137.542 594.779 163.13 598.093 173.729C615.591 165.805 654.51 140.05 673.431 147.487C678.889 149.63 680.743 155.926 683.149 157.385C685.555 158.845 690.601 157.666 693.972 158.34C703.849 160.304 705.272 170.913 710.056 177.574C714.391 183.618 721.74 187.678 725.588 194.742C739.416 220.114 712.883 250.416 689.693 258.761C691.154 267.761 701.939 270.165 709.663 268.884C733.284 264.992 780.385 211.198 800.907 193.984C814.08 182.935 833.272 172.401 843.046 193.75C854.29 218.308 835.688 239.405 842.513 257.058C844.32 261.727 847.887 265.17 849.703 270.783C858.11 296.716 840.603 304.388 841.399 323.473C841.792 332.875 851.042 347.404 852.933 359.089C856.21 379.353 853.073 413.987 825.324 412.939C785.3 411.424 754.152 360.96 709.242 367.846C705.197 368.463 689.103 372.542 690.18 377.81C691.041 382.038 707.968 388.157 712.369 391.01C724.127 398.607 736.326 414.595 726.908 428.656C724.942 431.594 719.156 434.504 718.623 436.16C717.892 438.414 719.259 441.006 719.006 443.288C716.394 467.126 688.336 478.437 667.439 469.259C664.509 487.091 644.09 482.591 631.413 478.437C611.837 472.019 592.532 459.848 575.418 448.593C551.844 457.902 527.418 464.553 502.524 469.269C501.223 466.743 497.964 468.286 495.97 468.576C487.179 469.83 478.51 471.654 469.812 473.189C467.828 473.535 465.253 475.163 462.5 475.686C455.778 476.978 446.66 476.828 439.713 477.118C453.129 487.596 462.912 502.481 458.784 520.349C453.016 545.254 410.025 532.324 393.922 525.486C394.24 534.944 387.397 535.739 379.439 534.065C368.129 531.679 343.553 509.722 335.661 500.666C332.609 497.167 323.078 482.357 321 481.318C313.988 477.819 301.33 478.138 293.812 477.099C236.834 469.212 195.696 457.864 145.702 428.947C127.839 418.609 80.082 387.998 76.1499 367.593C75.1856 362.579 79.1458 362.467 79.8667 358.116C81.683 361.671 81.3179 359.912 83.4244 359.866C118.963 359.164 146.713 376.182 175.034 395.744C188.178 404.819 211.312 426.954 223.071 432.745C228.801 435.57 231.357 433.793 227.808 428.011C222.116 418.73 185.079 391.628 174.5 384.508C147.443 366.302 113.421 347.339 79.8667 355.497C79.4267 351.867 76.4963 347.984 76.2623 344.055C75.8316 336.767 82.6847 325.971 90.3337 326.729C132.726 330.901 193.168 367.621 225.14 395.36C228.473 398.251 235.439 407.214 238.846 407.822C243.696 408.692 238.987 399.243 237.601 397.288C223.745 377.716 163.743 341.913 140.73 333.24C125.105 327.346 106.942 322.21 90.3243 325.419H90.343ZM407.619 110.206C401.421 117.26 385.758 146.149 387.387 154.747C388.08 158.386 390.842 159.023 393.978 157.413C396.824 155.954 400.064 142.136 401.992 137.954C404.689 132.097 419.715 112.264 413.658 107.614C410.877 105.481 409.155 108.475 407.628 110.206H407.619ZM465.009 108.756C459.411 118.513 450.517 128.58 446.032 138.824C444.029 143.399 438.168 160.22 448.916 154.794C451.762 153.362 458.933 135.175 461.302 130.554C464.017 125.268 474.203 114.444 470.524 108.288C469.363 106.351 466.489 108.316 465 108.756H465.009ZM526.004 116.334C525.649 115.856 522.063 114.743 520.902 115.454C519.984 116.015 508.74 129.927 507.261 132.004C503.114 137.823 490.699 157.685 498.096 163.167C506.756 169.575 507.617 153.044 509.78 147.599C512.083 141.799 528.794 120.104 526.004 116.334ZM562.751 133.201C555.439 131.807 555.542 137.814 552.293 141.696C548.577 146.131 526.295 167.966 533.887 173.149C540.534 177.677 545.253 164.87 548.605 160.239C554.859 151.604 563.425 144.671 562.751 133.192V133.201ZM586.316 152.801C577.319 150.144 559.783 171.175 561.637 178.005C564.97 190.279 578.676 166.853 581.082 163.915C584.078 160.257 588.207 161.109 586.316 152.792V152.801ZM658.283 164.58C657.403 163.719 641.581 169.772 639.081 170.876C632.368 173.842 610.686 186.022 607.942 192.057C605.611 197.183 607.849 201.216 613.401 198.942C617.239 197.371 628.081 187.061 633.539 183.637C636.375 181.859 663.376 169.519 658.283 164.57V164.58ZM688.383 180.288C685.939 179.614 684.488 179.015 681.829 179.474C674.536 180.718 641.01 198.493 635.411 203.835C633.651 205.519 631.61 206.679 632.125 209.654C633.23 211.46 634.672 211.759 636.666 211.759C641.244 211.769 659.584 198.877 665.258 195.743C668.759 193.816 692.315 185.77 688.373 180.288H688.383ZM492.207 225.905C493.424 226.756 496.785 225.886 498.105 224.848C503.713 220.422 497.197 203.049 493.199 198.119C492.104 196.772 480.813 185.704 479.952 185.199C471.928 180.475 458.465 183.206 465.796 192.814C468.988 196.996 482.667 197.52 487.966 209.888C489.333 213.078 490.802 224.913 492.207 225.905ZM353.814 208.597C355.032 209.823 360.845 213.209 362.484 213.658C378.493 217.971 382.631 201.534 395.607 202.797C404.67 203.676 408.995 218.187 417.468 221.489C422.009 223.267 440.658 225.325 442.278 219.992C442.063 209.318 431.015 213.097 424.396 210.637C416.139 207.568 411.635 196.276 403.097 192.693C385.346 185.227 377.95 204.724 365.845 202.488C359.366 201.291 356.632 185.994 347.448 184.226C338.404 182.477 321.824 187.117 324.567 198.587C332.572 200.224 338.657 193.441 346.531 196.837C349.021 197.913 351.081 205.875 353.805 208.606L353.814 208.597ZM549.485 215.782C550.636 216.783 548.23 220.61 554.259 220.937C557.939 221.143 560.663 220.058 561.412 216.194C565.129 197.015 542.398 192.955 540.544 207.184C539.121 218.177 547.65 214.173 549.485 215.773V215.782ZM694.58 202.703C684.001 208.812 670.239 212.395 660.493 219.73C656.504 222.733 649.604 230.021 658.92 230.059C663.629 230.077 669.312 223.884 673.974 221.442C678.44 219.103 695.61 212.966 697.586 211.039C700.319 208.382 699.43 201.431 694.58 202.703ZM819.154 214.369C816.804 211.048 810.606 215.567 808.35 217.111C800.121 222.715 764.263 253.962 761.043 261.371C760.107 263.514 760.228 265.637 760.369 267.873C762.793 268.229 764.235 267.855 766.314 266.638C774.431 261.886 794.288 238.263 804.24 229.993C807.76 227.074 822.89 219.637 819.154 214.36V214.369ZM614.112 253.176C611.257 249.902 614.44 238.058 606.613 228.646C595.781 215.632 576.897 219.552 584.883 229.441C587.776 233.034 596.932 228.543 600.996 239.489C605.012 250.304 597.607 259.248 613.813 264.608C620.825 266.928 626.526 264.674 631.404 271.868C633.623 275.152 633.305 280.326 638.079 281.008C649.117 282.571 644.493 268.36 639.98 263.299C632.79 255.225 615.619 254.916 614.103 253.185L614.112 253.176ZM285.976 222.116C280.518 221.349 272.241 222.116 266.343 222.116C264.05 222.116 260.773 229.525 265.688 231.92C269.91 233.979 278.57 231.565 284.132 233.137C286.069 233.689 295.329 246.085 298.877 237.468C302.154 229.516 292.848 223.089 285.976 222.116ZM671.381 246.955C674.377 249.499 701.742 237.73 704.832 233.969C707.678 230.498 707.575 227.158 702.501 227.589C696.462 228.094 680.331 237.122 675.416 241.192C673.609 242.688 671.006 244.185 671.381 246.955ZM585.314 302.882C590.538 307.513 597.569 303.181 594.461 294.387C589.387 280.007 580.539 282.028 569.688 277.294C558.267 272.317 562.414 260.324 558.182 250.875C553.473 240.368 531.5 229.32 530.564 247.011C537.061 250.846 542.894 247.778 547.322 255.187C554.016 266.377 547.509 279.961 562.76 286.846C570.372 290.28 577.543 289.026 582.936 296.763C584.153 298.513 584.181 301.89 585.314 302.891V302.882ZM451.856 266.985C469.644 261.053 472.003 286.042 484.221 290.794C490.503 293.236 508.394 292.422 510.285 285.321C512.654 276.415 493.134 282.758 488.162 280.326C484.848 278.698 478.884 265.956 475.804 262.597C470.112 256.394 456.49 252.736 448.523 255.084C443.111 256.684 439.348 267.228 435.799 269.829C427.411 275.966 417.721 266.928 412.235 260.735C405.728 253.382 404.754 243.016 392.64 245.673C393.679 264.964 424.621 296.211 443.074 278.408C444.806 276.742 450.648 267.406 451.865 266.994L451.856 266.985ZM249.988 265.263C253.405 261.605 243.368 254.701 240.41 253.27C212.464 239.648 179.406 256.75 169.529 284.91C168.471 287.922 165.821 303.546 172.103 296.632C174.163 294.359 176.944 284.545 179.537 280.522C189.77 264.627 206.097 253.634 225.664 256.226C230.083 256.815 248.976 266.33 249.978 265.263H249.988ZM824.135 255.786C826.644 253.709 825.511 249.275 822.253 248.442C818.424 247.46 782.342 269.445 776.968 273.356C772.568 276.565 761.099 283.319 770.124 287.511C784.008 278.492 798.136 268.996 812.694 260.67C815.381 259.135 823.142 256.619 824.144 255.786H824.135ZM352.897 250.987C351.277 251.511 350.996 252.699 350.725 254.186C349.058 263.214 361.988 267.714 367.174 273.056C376.19 282.356 373.166 293.872 376.864 305.22C380.291 315.736 392.153 322.023 389.747 332.342C388.511 337.637 375.198 351.212 372.015 357.779C368.635 364.768 367.343 374.75 364.075 382.543C356.511 400.599 333.405 429.199 315.401 437.207C310.608 439.34 291.134 444.495 289.215 446.338C285.751 449.669 288.691 453.841 292.848 454.646C301.068 456.236 323.809 445.917 331.017 441.034C344.256 432.081 365.105 403.397 371.387 388.531C374.908 380.205 376.49 369.951 380.328 362.158C385.524 351.614 401.356 339.078 401.665 327.253C401.936 316.896 391.881 311.535 388.445 302.788C384.185 291.945 387.865 280.681 380.628 270.053C377.342 265.226 358.505 249.162 352.888 250.968L352.897 250.987ZM201.576 269.193C171.635 288.156 193.037 330.826 225.178 315.661C243.808 306.867 238.238 281.392 223.829 270.502C217.079 265.404 209.018 264.487 201.585 269.193H201.576ZM713.061 343.54C714.335 342.755 714.784 335.841 714.615 333.923C713.352 319.226 692.67 322.856 689.356 315.942C684.787 306.399 689.824 296.548 688.289 286.93C686.754 277.313 671.634 262.036 663.648 272.71C662.468 277.425 674.742 281.448 676.324 288.427C678.861 299.673 672.823 312.593 680.724 323.267C686.566 331.163 698.887 330.396 702.772 335.233C704.851 337.815 703.503 341.931 705.3 343.166C706.47 343.971 711.947 344.233 713.061 343.54ZM728.584 279.914C717.892 283.057 727.545 292.824 728.369 296.623C728.846 298.821 727.498 300.767 728.172 303.209C729.473 307.934 733.658 309.402 738.199 307.868C750.183 303.808 743.152 275.638 728.593 279.914H728.584ZM834.948 279.661C831.316 279.455 827.926 280.718 824.5 281.626C812.956 284.685 788.558 291.14 778.681 295.996C776.022 297.306 770.817 301.834 773.448 304.491C774.918 305.969 794.765 300.945 798.332 299.935C806.084 297.736 822.431 292.46 829.115 288.848C833.272 286.603 835.688 284.994 834.957 279.661H834.948ZM298.072 286.528C289.449 277.332 273.318 289.559 289.393 297.156C300.675 302.489 302.575 291.328 298.072 286.528ZM138.558 312.134C141.732 310.16 141.77 301.076 136.527 299.486C122.624 295.257 129.046 318.056 138.558 312.134ZM326.093 300.777C317.255 306.343 341.213 328.45 348.263 319.665C355.827 310.254 331.841 297.147 326.093 300.777ZM295.488 339.49C306.095 328.88 275.106 310.132 268.899 320.18C264.705 326.972 278.57 331.996 281.304 334.017C284.216 336.168 288.579 346.394 295.488 339.49ZM828.338 322.874C826.897 321.125 788.652 317.804 783.315 317.523C776.331 317.158 768.167 316.784 774.356 325.438C782.941 324.764 822.318 332.145 827.168 328.759C828.544 327.795 828.966 323.632 828.329 322.865L828.338 322.874ZM545.74 321.499C543.942 330.321 550.44 329.769 554.971 333.858C565.719 343.54 557.892 363.346 561.262 377.267C562.92 384.106 567.704 388.493 569.997 394.687C571.43 398.541 568.949 405.773 576.242 403.668C577.712 403.247 581.672 399.243 582.121 397.737C585.791 385.35 574.267 378.698 572.226 368.941C570.662 361.447 573.939 354.44 573.237 346.993C571.992 333.614 560.738 318.009 545.74 321.499ZM646.871 355.141C649.632 358.5 658.761 359.913 659.631 353.457C660.071 350.248 652.16 333.53 649.707 330.733C644.352 324.605 625.066 320.563 624.205 330.069C623.39 338.975 637.246 333.465 641.927 339.817C644.549 343.372 644.324 352.045 646.871 355.151V355.141ZM396.881 425.803C421.765 435.823 474.409 458.023 497.936 439.163C506.184 432.548 503.02 428.02 507.149 422.22C509.443 419.002 516.108 416.326 518.973 413.117C525.218 406.119 523.729 393.199 525.115 383.947C525.667 380.261 528.532 375.602 528.626 371.728C528.841 363.327 520.565 358.706 517.962 351.231C516.876 348.115 517.279 345.075 516.324 342.408C506.522 315.137 474.615 327.299 454.767 334.569C447.334 337.291 403.359 356.535 401.955 361.587C400.7 366.125 405.419 366.461 408.705 365.732C413.115 364.759 429.199 354.533 435.35 351.773C448.579 345.833 478.8 332.716 492.422 333.605C508.385 334.643 506.222 348.92 510.032 359.164C512.195 364.983 517.447 368.725 516.914 375.639C516.726 378.034 512.027 401.694 511.418 402.948C508.656 408.664 500.146 411.536 497.281 416.289C495.446 419.338 495.53 422.987 494.06 426.149C486.889 441.614 450.526 434.476 437.119 430.705C429.04 428.432 404.548 417.561 398.5 418.253C394.081 418.758 394.896 422.903 396.871 425.822L396.881 425.803ZM235.354 334.896C231.01 335.205 224.541 336.805 223.783 341.847C222.313 351.736 234.605 347.451 239.492 349.64C240.457 350.071 250.502 360.324 251.139 361.55C253.779 366.658 251.045 373.122 259.799 372.636C268.974 372.121 265.753 360.764 262.364 355.572C259.106 350.585 252.422 347.545 249.248 343.83C244.342 338.096 246.898 334.082 235.364 334.896H235.354ZM825.651 364.515C826.485 363.187 825.932 359.987 824.481 358.762C821.7 356.423 804.1 351.558 798.735 349.182C794.391 347.264 774.412 335.672 772.82 335.785C768.373 336.103 768.701 340.696 771.454 343.765C774.206 346.834 785.75 351.998 789.991 354C795.72 356.704 813.789 364.88 818.929 365.741C820.474 365.994 825.108 365.385 825.651 364.515ZM602.952 362.401C606.351 366.658 603.945 378.287 615.179 374.554C626.311 370.858 616.771 351.549 607.783 347.788C600.911 344.906 598.618 345.318 597.326 352.849C595.903 361.147 600.181 358.94 602.952 362.401ZM315.046 370.25C320.429 376.649 308.81 389.242 317.667 391.89C327.928 394.967 329.632 376.219 327.89 369.839C325.803 362.177 314.25 354.103 306.264 355.497C305.964 358.883 306.751 363.571 308.848 366.293C310.467 368.398 313.791 368.753 315.046 370.25ZM819.126 384.377C818.658 383.703 807.021 379.699 803.968 377.95C794.372 372.439 780.675 360.661 771.341 356.937C768.458 355.787 766.183 355.029 762.971 355.506C761.848 359.884 765.995 363.355 769.216 365.909C776.743 371.878 797.443 384.845 806.103 388.905C808.481 390.018 813.312 392.507 815.709 391.927C818.349 391.291 820.483 386.342 819.117 384.386L819.126 384.377ZM480.317 367.275C477.574 364.431 415.334 376.547 412.862 380.289C411.72 382.019 412.356 384.845 412.263 386.875L476.703 374.769C479.605 374.741 481.44 368.426 480.317 367.266V367.275ZM672.13 392.189C662.449 399.786 693.373 410.909 698.288 411.639C706.199 412.818 712.912 409.076 704.448 404.183C696.649 399.673 680.799 397.456 672.13 392.189ZM435.818 397.344C428.853 397.4 421.84 397.297 414.875 397.344C414.959 399.439 414.219 403.294 416.111 404.622C418.301 406.157 437.11 404.922 441.763 405.137C448.392 405.446 471.806 408.954 476.057 404.866C482.283 398.878 469.681 396.212 465.169 396.165C464.27 396.165 466.826 397.671 461.995 397.334C454.393 395.136 443.317 395.145 435.818 397.334V397.344ZM286.294 402.761C276.82 403.977 282.662 423.605 290.9 421.986C302.744 419.666 295.31 401.6 286.294 402.761ZM649.136 410.432C647.985 411.555 649.763 415.521 650.99 417.065C654.051 420.91 685.48 435.608 690.349 435.392C695.217 435.177 696.097 432.268 692.905 428.787C690.704 426.383 673.122 420.293 668.273 418.104C664.921 416.588 652.254 407.382 649.136 410.432ZM682.803 451.297C670.154 445.262 657.843 438.414 645.607 431.594C640.682 428.853 637.574 423.315 630.814 424.802C630.814 426.626 630.496 428.647 631.086 430.406C632.331 434.12 655.858 447.686 660.876 450.324C666.746 453.411 689.347 466.64 682.803 451.287V451.297ZM605.948 440.501L607.24 447.704C618.016 452.298 629.682 463.038 640.336 466.958C644.979 468.67 647.498 467.51 646.571 462.102C645.794 457.537 638.566 457.041 635.158 455.114C630.796 452.644 608.991 437.488 605.948 440.501ZM429.096 491.656C428.637 490.908 415.231 486.352 412.693 485.182C405.765 481.992 399.437 476.379 391.338 477.118C387.696 480.645 402.751 488.765 405.232 490.028C408.611 491.75 425.698 499.187 428.057 497.475C429.424 496.484 429.892 492.947 429.105 491.656H429.096ZM387.266 518.843C387.94 518.347 389.325 513.707 387.425 513.118C373.082 507.27 346.755 483.143 332.759 481.29C325.241 480.289 326.421 484.471 331.214 488.139C340.876 495.529 358.458 505.287 369.506 511.34C372.586 513.024 384.86 520.602 387.256 518.843H387.266ZM367.774 484.967C367.568 487.353 367.455 488.85 369.094 490.833C371.106 493.265 396.422 507.851 400.906 510.04C404.296 511.696 415.558 516.907 418.479 517.412C423.731 518.31 426.447 514.727 421.915 511.284C416.345 507.046 404.604 503.482 398.013 499.861C393.482 497.372 371.387 481.375 367.783 484.967H367.774Z" fill="#77CABD"/>
<path d="M79.8667 355.497C113.421 347.339 147.453 366.302 174.5 384.508C185.079 391.627 222.116 418.73 227.808 428.011C231.357 433.802 228.801 435.57 223.071 432.745C211.322 426.954 188.178 404.828 175.034 395.744C146.713 376.182 118.963 359.164 83.4243 359.866C81.3178 359.903 81.683 361.671 79.8667 358.116C79.9884 357.415 79.951 356.236 79.8667 355.497Z" fill="#0EA591"/>
<path d="M90.3428 325.419C106.961 322.21 125.123 327.355 140.749 333.24C163.761 341.912 223.754 377.716 237.62 397.287C239.005 399.243 243.705 408.701 238.865 407.822C235.457 407.204 228.492 398.251 225.159 395.36C193.187 367.621 132.744 330.901 90.3521 326.729V325.419H90.3428Z" fill="#0EA591"/>
<path d="M550.982 116.193C547.172 108.849 554.849 92.6734 552.284 83.5051L537.894 87.425C541.246 85.5446 551.095 78.818 554.334 83.4209C557.573 88.0238 550.936 109.738 550.982 116.193Z" fill="#3DBDA7"/>
<path d="M502.561 469.268C493.798 470.924 484.96 472.29 476.141 473.703C473.829 474.077 471.994 474.957 469.84 473.188C478.538 471.654 487.207 469.83 495.998 468.576C497.992 468.286 501.251 466.752 502.552 469.268H502.561Z" fill="#3DBDA7"/>
<path d="M396.88 425.803C394.905 422.884 394.09 418.74 398.509 418.234C404.557 417.551 429.049 428.413 437.129 430.687C450.535 434.457 486.898 441.595 494.069 426.13C495.539 422.959 495.455 419.32 497.29 416.27C500.146 411.517 508.656 408.645 511.427 402.929C512.036 401.675 516.735 378.015 516.923 375.62C517.456 368.707 512.204 364.964 510.041 359.145C506.231 348.901 508.394 334.625 492.431 333.586C478.818 332.697 448.597 345.814 435.359 351.754C429.208 354.514 413.124 364.74 408.714 365.713C405.428 366.443 400.71 366.096 401.964 361.568C403.368 356.507 447.343 337.263 454.776 334.55C474.624 327.281 506.531 315.128 516.333 342.39C517.288 345.056 516.885 348.096 517.971 351.212C520.574 358.677 528.841 363.308 528.635 371.71C528.541 375.583 525.676 380.242 525.124 383.928C523.738 393.18 525.236 406.11 518.982 413.098C516.118 416.307 509.452 418.992 507.158 422.201C503.02 428.002 506.194 432.53 497.945 439.144C474.418 458.014 421.774 435.813 396.89 425.784L396.88 425.803Z" fill="#0EA591"/>
<path d="M352.897 250.987C358.514 249.181 377.351 265.244 380.637 270.072C387.874 280.69 384.185 291.954 388.455 302.807C391.89 311.554 401.945 316.915 401.674 327.271C401.365 339.096 385.534 351.633 380.338 362.176C376.499 369.97 374.917 380.223 371.397 388.549C365.105 403.415 344.256 432.09 331.027 441.052C323.818 445.936 301.077 456.246 292.857 454.665C288.7 453.86 285.77 449.687 289.224 446.357C291.144 444.514 310.617 439.359 315.411 437.226C333.414 429.218 356.52 400.618 364.085 382.562C367.352 374.769 368.635 364.787 372.024 357.798C375.207 351.231 388.52 337.656 389.756 332.361C392.162 322.041 380.3 315.755 376.873 305.239C373.175 293.891 376.199 282.374 367.184 273.075C361.997 267.733 349.068 263.224 350.734 254.205C351.006 252.717 351.287 251.529 352.906 251.005L352.897 250.987Z" fill="#0EA591"/>
<path d="M451.855 266.985C450.648 267.387 444.796 276.724 443.064 278.398C424.611 296.202 393.678 264.964 392.63 245.663C404.754 243.016 405.718 253.382 412.225 260.726C417.711 266.919 427.41 275.956 435.79 269.819C439.338 267.218 443.102 256.675 448.513 255.075C456.48 252.727 470.093 256.385 475.794 262.587C478.875 265.946 484.838 278.698 488.153 280.316C493.124 282.758 512.644 276.405 510.275 285.312C508.384 292.422 490.493 293.236 484.211 290.785C472.003 286.032 469.643 261.044 451.846 266.975L451.855 266.985Z" fill="#0EA591"/>
<path d="M353.815 208.597C351.09 205.875 349.03 197.904 346.54 196.828C338.667 193.432 332.581 200.214 324.576 198.577C321.833 187.117 338.414 182.477 347.458 184.217C356.651 185.985 359.376 201.281 365.854 202.479C377.96 204.714 385.347 185.227 403.107 192.683C411.636 196.266 416.139 207.559 424.406 210.627C431.025 213.088 442.072 209.299 442.287 219.983C440.668 225.315 422.028 223.248 417.478 221.479C409.005 218.177 404.679 203.667 395.617 202.787C382.641 201.524 378.503 217.962 362.493 213.649C360.855 213.209 355.041 209.813 353.824 208.588L353.815 208.597Z" fill="#0EA591"/>
<path d="M545.74 321.499C560.738 318.009 571.982 333.614 573.237 346.993C573.929 354.439 570.653 361.447 572.226 368.94C574.267 378.689 585.782 385.35 582.121 397.737C581.672 399.243 577.712 403.247 576.242 403.668C568.949 405.782 571.43 398.551 569.997 394.687C567.704 388.484 562.92 384.106 561.262 377.267C557.892 363.346 565.719 343.54 554.971 333.857C550.44 329.769 543.942 330.321 545.74 321.499Z" fill="#0EA591"/>
<path d="M713.061 343.54C711.947 344.233 706.47 343.971 705.3 343.166C703.502 341.931 704.851 337.824 702.772 335.233C698.887 330.396 686.566 331.163 680.724 323.267C672.823 312.592 678.87 299.673 676.324 288.427C674.751 281.448 662.468 277.416 663.648 272.71C671.634 262.036 686.81 277.678 688.289 286.93C689.768 296.183 684.787 306.399 689.356 315.942C692.67 322.855 713.342 319.226 714.615 333.923C714.784 335.85 714.325 342.755 713.061 343.54Z" fill="#0EA591"/>
<path d="M585.314 302.882C584.181 301.88 584.153 298.503 582.936 296.754C577.543 289.007 570.372 290.27 562.76 286.837C547.509 279.961 554.025 266.367 547.322 255.178C542.894 247.768 537.061 250.837 530.563 247.001C531.49 229.319 553.473 240.359 558.182 250.865C562.414 260.314 558.276 272.317 569.688 277.285C581.101 282.253 589.386 279.989 594.461 294.377C597.56 303.181 590.538 307.503 585.314 302.872V302.882Z" fill="#0EA591"/>
<path d="M614.112 253.176C615.619 254.907 632.79 255.225 639.989 263.289C644.492 268.35 649.127 282.561 638.089 280.999C633.314 280.325 633.632 275.142 631.413 271.859C626.536 264.655 620.834 266.919 613.822 264.599C597.616 259.238 605.021 250.294 601.005 239.479C596.942 228.543 587.785 233.024 584.893 229.432C576.907 219.543 595.79 215.614 606.622 228.636C614.449 238.048 611.275 249.892 614.121 253.166L614.112 253.176Z" fill="#0EA591"/>
<path d="M223.82 270.502C238.228 281.392 243.799 306.867 225.168 315.661C193.028 330.826 171.626 288.156 201.566 269.192C209.908 267.116 215.778 268.248 223.811 270.502H223.82ZM206.425 276.013C203.111 276.77 198.935 280.971 197.381 283.974C185.154 307.7 217.079 322.303 228.342 304.453C237.376 290.13 222.125 272.429 206.425 276.013Z" fill="#FEFDF4"/>
<path d="M249.988 265.263C248.986 266.339 230.093 256.815 225.674 256.226C206.097 253.625 189.779 264.627 179.546 280.522C176.953 284.545 174.182 294.368 172.113 296.632C165.831 303.546 168.48 287.913 169.538 284.91C179.406 256.74 212.464 239.638 240.419 253.269C243.368 254.71 253.414 261.605 249.997 265.263H249.988Z" fill="#0EA591"/>
<path d="M235.354 334.896C246.888 334.073 244.332 338.095 249.238 343.83C252.412 347.544 259.097 350.585 262.355 355.571C265.744 360.764 268.964 372.121 259.789 372.636C251.036 373.122 253.779 366.667 251.129 361.55C250.493 360.324 240.456 350.08 239.483 349.64C234.596 347.451 222.294 351.736 223.773 341.847C224.522 336.804 231.001 335.205 235.345 334.896H235.354Z" fill="#0EA591"/>
<path d="M492.207 225.905C490.793 224.913 489.332 213.069 487.966 209.888C482.667 197.52 468.988 197.006 465.796 192.814C458.465 183.206 471.928 180.475 479.951 185.199C480.813 185.704 492.104 196.762 493.199 198.119C497.197 203.049 503.713 220.422 498.105 224.848C496.794 225.886 493.424 226.765 492.207 225.905Z" fill="#0EA591"/>
<path d="M480.317 367.275C481.44 368.435 479.605 374.75 476.703 374.778L412.263 386.884C412.356 384.854 411.72 382.029 412.862 380.298C415.324 376.556 477.564 364.44 480.317 367.285V367.275Z" fill="#0EA591"/>
<path d="M646.87 355.141C644.324 352.044 644.548 343.363 641.927 339.808C637.246 333.455 623.39 338.966 624.204 330.059C625.066 320.563 644.352 324.596 649.707 330.723C652.16 333.53 660.071 350.239 659.631 353.448C658.751 359.903 649.632 358.49 646.87 355.132V355.141Z" fill="#0EA591"/>
<path d="M387.266 518.843C384.859 520.602 372.586 513.024 369.515 511.34C358.467 505.287 340.894 495.529 331.223 488.138C326.43 484.471 325.25 480.289 332.768 481.29C346.765 483.152 373.091 507.28 387.434 513.118C389.335 513.707 387.949 518.347 387.275 518.843H387.266Z" fill="#0EA591"/>
<path d="M461.995 397.344C466.816 397.671 464.26 396.165 465.168 396.174C469.681 396.212 482.283 398.887 476.057 404.875C471.806 408.963 448.391 405.445 441.763 405.146C437.101 404.931 418.292 406.166 416.11 404.631C414.219 403.303 414.959 399.449 414.875 397.353C421.84 397.306 428.852 397.409 435.818 397.353C444.235 397.287 453.728 396.782 461.995 397.353V397.344Z" fill="#0EA591"/>
<path d="M682.803 451.297C689.347 466.649 666.756 453.42 660.876 450.333C655.858 447.695 632.322 434.129 631.086 430.415C630.496 428.656 630.824 426.636 630.814 424.811C637.574 423.314 640.691 428.862 645.607 431.603C657.843 438.414 670.164 445.272 682.803 451.306V451.297Z" fill="#0EA591"/>
<path d="M526.004 116.333C528.794 120.104 512.083 141.799 509.78 147.599C507.617 153.035 506.756 169.575 498.096 163.167C490.699 157.694 503.114 137.832 507.261 132.004C508.74 129.936 519.994 116.015 520.902 115.454C522.063 114.734 525.649 115.847 526.004 116.333Z" fill="#0EA591"/>
<path d="M688.383 180.287C692.324 185.77 668.769 193.815 665.267 195.743C659.594 198.877 641.253 211.769 636.675 211.759C634.672 211.759 633.23 211.46 632.134 209.654C631.61 206.689 633.651 205.528 635.421 203.835C641.01 198.493 674.545 180.718 681.838 179.473C684.507 179.015 685.948 179.623 688.392 180.287H688.383Z" fill="#0EA591"/>
<path d="M407.619 110.206C409.136 108.475 410.868 105.49 413.648 107.614C419.706 112.264 404.679 132.088 401.983 137.954C400.054 142.136 396.815 155.963 393.969 157.413C390.842 159.013 388.071 158.386 387.378 154.747C385.749 146.149 401.412 117.26 407.61 110.206H407.619Z" fill="#0EA591"/>
<path d="M658.283 164.58C663.376 169.529 636.376 181.869 633.539 183.646C628.081 187.061 617.239 197.38 613.401 198.952C607.849 201.225 605.611 197.193 607.942 192.066C610.686 186.022 632.368 173.842 639.081 170.885C641.581 169.781 657.403 163.728 658.283 164.589V164.58Z" fill="#0EA591"/>
<path d="M465.01 108.755C466.498 108.316 469.382 106.342 470.533 108.288C474.213 114.444 464.027 125.268 461.311 130.554C458.933 135.175 451.762 153.362 448.925 154.794C438.177 160.22 444.038 143.399 446.042 138.824C450.526 128.58 459.42 118.523 465.019 108.755H465.01Z" fill="#0EA591"/>
<path d="M315.045 370.25C313.791 368.753 310.467 368.398 308.848 366.293C306.75 363.58 305.964 358.883 306.264 355.497C314.259 354.103 325.812 362.176 327.89 369.839C329.622 376.21 327.918 394.958 317.667 391.889C308.81 389.232 320.429 376.64 315.045 370.25Z" fill="#0EA591"/>
<path d="M367.773 484.967C371.378 481.374 393.482 497.372 398.004 499.861C404.604 503.481 416.335 507.046 421.906 511.284C426.437 514.727 423.722 518.31 418.47 517.412C415.549 516.916 404.286 511.696 400.897 510.04C396.412 507.841 371.097 493.265 369.084 490.833C367.446 488.85 367.567 487.353 367.764 484.967H367.773Z" fill="#0EA591"/>
<path d="M602.952 362.401C600.181 358.93 595.902 361.147 597.325 352.849C598.617 345.318 600.911 344.916 607.783 347.788C616.771 351.549 626.311 370.858 615.179 374.554C603.944 378.287 606.35 366.658 602.952 362.401Z" fill="#0EA591"/>
<path d="M562.751 133.201C563.425 144.68 554.858 151.604 548.604 160.248C545.253 164.879 540.534 177.687 533.887 173.159C526.285 167.976 548.576 146.14 552.293 141.705C555.542 137.823 555.439 131.807 562.751 133.211V133.201Z" fill="#0EA591"/>
<path d="M295.488 339.489C288.578 346.394 284.215 336.168 281.304 334.016C278.57 331.986 264.695 326.972 268.899 320.18C275.106 310.141 306.095 328.88 295.488 339.489Z" fill="#0EA591"/>
<path d="M285.976 222.116C292.848 223.079 302.154 229.516 298.877 237.468C295.329 246.084 286.069 233.688 284.131 233.136C278.57 231.565 269.91 233.988 265.688 231.92C260.773 229.516 264.05 222.116 266.343 222.116C272.241 222.116 280.518 221.349 285.976 222.116Z" fill="#0EA591"/>
<path d="M694.58 202.703C699.43 201.431 700.31 208.382 697.586 211.039C695.61 212.966 678.44 219.103 673.974 221.442C669.302 223.884 663.629 230.077 658.92 230.058C649.604 230.021 656.504 222.733 660.493 219.73C670.239 212.395 684.001 208.812 694.58 202.703Z" fill="#0EA591"/>
<path d="M649.136 410.432C652.254 407.391 664.921 416.588 668.272 418.103C673.131 420.293 690.704 426.392 692.904 428.787C696.097 432.268 695.432 435.177 690.349 435.392C685.265 435.608 654.042 420.91 650.99 417.065C649.763 415.521 647.985 411.555 649.136 410.432Z" fill="#0EA591"/>
<path d="M605.948 440.5C608.991 437.488 630.786 452.644 635.158 455.114C638.566 457.041 645.794 457.527 646.571 462.102C647.498 467.51 644.979 468.67 640.336 466.958C629.681 463.038 618.016 452.298 607.24 447.704L605.948 440.5Z" fill="#0EA591"/>
<path d="M549.484 215.782C547.65 214.192 539.121 218.186 540.544 207.194C542.388 192.955 565.129 197.024 561.412 216.203C560.663 220.067 557.929 221.152 554.259 220.946C548.23 220.609 550.636 216.792 549.484 215.791V215.782Z" fill="#0EA591"/>
<path d="M326.093 300.776C331.841 297.156 355.827 310.254 348.263 319.665C341.213 328.441 317.245 306.343 326.093 300.776Z" fill="#0EA591"/>
<path d="M672.13 392.189C680.79 397.456 696.649 399.673 704.448 404.182C712.912 409.075 706.199 412.827 698.288 411.639C693.373 410.909 662.449 399.785 672.13 392.189Z" fill="#0EA591"/>
<path d="M586.315 152.801C588.207 161.118 584.078 160.267 581.082 163.925C578.676 166.862 564.97 190.288 561.637 178.014C559.783 171.185 577.318 150.144 586.315 152.81V152.801Z" fill="#0EA591"/>
<path d="M429.096 491.656C429.882 492.947 429.414 496.484 428.047 497.475C425.698 499.187 408.602 491.75 405.222 490.028C402.741 488.765 387.687 480.645 391.329 477.118C399.437 476.379 405.765 481.992 412.684 485.182C415.221 486.352 428.628 490.898 429.087 491.656H429.096Z" fill="#0EA591"/>
<path d="M286.294 402.761C295.3 401.6 302.734 419.675 290.9 421.986C282.661 423.595 276.819 403.977 286.294 402.761Z" fill="#0EA591"/>
<path d="M298.072 286.528C302.575 291.327 300.684 302.489 289.393 297.156C273.318 289.559 289.449 277.322 298.072 286.528Z" fill="#0EA591"/>
<path d="M138.558 312.134C129.056 318.056 122.624 295.257 136.527 299.486C141.77 301.076 141.723 310.16 138.558 312.134Z" fill="#0EA591"/>
<path d="M223.82 270.502C215.778 268.247 209.917 267.125 201.575 269.192C209.009 264.487 217.07 265.394 223.82 270.502Z" fill="#3DBDA7"/>
<path d="M461.995 397.344C453.728 396.773 444.235 397.278 435.818 397.344C443.317 395.154 454.383 395.145 461.995 397.344Z" fill="#85D1D8"/>
<path d="M206.425 276.013C222.125 272.42 237.386 290.13 228.342 304.453C217.079 322.303 185.154 307.709 197.381 283.974C198.926 280.971 203.111 276.77 206.425 276.013Z" fill="#0EA591"/>
</g>
</g>
<defs>
<clipPath id="clip0_504_7491">
<rect width="669" height="516" fill="white"/>
</clipPath>
<clipPath id="clip1_504_7491">
<rect width="778" height="479" fill="white" transform="translate(76 56)"/>
</clipPath>
</defs>
</svg>
