<svg width="669" height="516" viewBox="0 0 669 516" fill="none" xmlns="http://www.w3.org/2000/svg">
<g clip-path="url(#clip0_504_7940)">
<rect width="669" height="516" fill="#D9D9D9" fill-opacity="0.6"/>
<g clip-path="url(#clip1_504_7940)">
<path d="M217.875 173.103C240.3 195.524 248.317 235.255 241.129 265.668C239.938 270.719 232.599 282.254 241.762 281.123C223.24 285.209 202.608 296.502 183.695 301.885C142.1 313.707 95.8787 313.209 54.5101 300.724C43.1469 297.302 30.2465 292.477 21.0686 284.953C43.7045 291.904 86.0829 296.216 109.442 293.547C118.5 292.522 122.674 281.771 113.933 278.575C106.187 275.74 92.6084 280.61 83.6867 281.168C64.9992 282.329 19.6218 282.223 6.20902 267.794C3.79773 265.2 4.86774 261.823 0.045166 262.969C0.934328 245.568 22.651 231.184 36.0638 223.012C69.5656 202.596 104.062 179.345 143.848 175.033C168.564 172.349 193.445 177.581 217.89 173.118L217.875 173.103ZM108.704 211.567C94.6279 213.965 88.449 233.431 97.9434 243.865C113.813 261.295 143.351 241.407 128.853 219.634C124.046 212.397 117.219 210.135 108.704 211.582V211.567ZM15.5377 257.435C14.1964 259.802 15.613 267.598 18.2052 269.196C23.3894 272.392 32.1756 262.2 27.8352 256.651C25.9062 254.178 16.8639 255.083 15.5377 257.42V257.435Z" fill="#90D2C0"/>
<path d="M301.938 145.39C307.68 146.686 309.911 151.587 312.608 156.216C324.589 176.767 330.075 201.917 333.33 225.334C334.581 234.335 336.435 244.528 334.415 253.394C311.568 263.029 293.348 271.337 268.527 276.841C259.756 278.786 250.111 279.253 241.747 281.108C232.599 282.239 239.923 270.719 241.114 265.653C248.302 235.24 240.285 195.509 217.86 173.088C244.881 168.142 276.379 157.166 301.938 145.375V145.39Z" fill="#4BAFA1"/>
<path d="M383.153 110.016C394.652 134.322 407.779 158.477 409.889 186.025C410.642 195.811 408.819 207.135 409.858 216.649C410.054 218.443 410.657 219.574 411.818 220.901C385.851 230.777 359.945 242.644 334.43 253.394C336.435 244.513 334.581 234.336 333.345 225.334C330.09 201.902 324.604 176.752 312.623 156.216C309.926 151.587 307.695 146.686 301.953 145.39C331.507 131.744 351.792 121.144 383.169 110.016H383.153Z" fill="#90D2C0"/>
<path d="M547.483 76.573C546.865 78.2768 546.548 79.6791 546.744 81.5337C547.513 89.0426 551.416 99.1148 552.938 106.971C557.158 128.698 556.841 146.852 555.123 168.821C554.521 176.405 551.28 182.723 555.123 190.337C527.439 191.664 504.652 194.559 477.736 200.847C474.285 195.705 476.787 191.242 476.832 186.07C477.058 159.096 472.944 128.351 461.671 103.653C459.305 98.4664 456.14 92.7367 451.95 88.9974C484.638 81.8503 514.041 78.0054 547.498 76.573H547.483Z" fill="#90D2C0"/>
<path d="M727.094 110.016C725.18 118.882 723.431 127.733 720.417 136.313C711.978 160.362 694.571 182.964 678.853 202.747L667.851 213.241C652.148 204.36 636.504 198.947 619.128 194.122C616.973 192.795 616.988 192.644 617.41 190.096C619.58 176.828 626.015 162.533 629.361 149.4C633.49 133.191 636.61 107.996 635.389 91.3195C635.088 87.2785 633.732 84.097 632.496 80.3577C669.343 85.6953 694.044 92.8424 727.078 109.986L727.094 110.016Z" fill="#90D2C0"/>
<path d="M639.202 368.109C633.792 392.942 633.505 421.545 638.72 446.5C639.73 451.34 646.014 477.214 647.762 479.506C648.697 480.727 651.002 481.059 651.62 482.823C615.044 481.964 585.415 475.148 550.346 466.569C553.556 460.553 551.039 455.305 551.22 449.847C551.657 436.262 552.441 421.229 555.244 407.9C558.846 390.771 565.266 374.456 572.319 358.549C594.232 364.098 616.461 367.822 639.202 368.109Z" fill="#90D2C0"/>
<path d="M803.531 174.068L793.042 187.955C769.683 212.819 741.667 233.943 708.949 244.815C699.575 233.054 681.008 220.69 667.866 213.271L678.868 202.777C694.571 182.994 711.993 160.392 720.432 136.343C723.446 127.748 725.195 118.912 727.109 110.046C756.813 125.471 783.156 147.048 803.546 174.083L803.531 174.068Z" fill="#4BAFA1"/>
<path d="M155.769 433.11C171.985 454.114 191.667 471.65 213.354 486.849L244.61 505.757C232.584 517.307 216.503 537.526 209.255 552.589L183.424 549.272C163.757 545.035 145.25 537.3 127.738 527.56L103.203 509.571C117.309 479.43 134.58 457.537 155.754 433.095L155.769 433.11Z" fill="#90D2C0"/>
<path d="M231.242 372.888C235.643 378.769 236.547 386.986 239.38 393.907C247.323 413.328 258.098 432.809 270.592 449.666C276.514 457.657 284.2 464.292 288.571 473.263C273.952 481.601 256.757 494.101 244.625 505.757L213.369 486.849C191.682 471.65 171.985 454.114 155.784 433.11C181.208 403.753 196.866 391.419 231.257 372.888H231.242Z" fill="#4BAFA1"/>
<path d="M390.794 327.97C394.276 327.865 397.817 327.97 401.298 327.97C401.931 327.97 402.579 327.97 403.212 327.97C404.222 329.569 404.328 331.348 404.192 333.172C401.751 366.284 398.721 381.257 405.368 415.182C407.116 424.139 411.351 432.13 409.904 441.72C390.176 441.584 366.953 443.59 347.798 448.415C345.311 447.917 342.523 447.389 341.227 444.947C331.447 420.972 323.791 393.922 319.39 368.335C317.627 358.066 316.692 347.979 317.22 337.53C342.915 330.579 364.119 328.8 390.779 327.97H390.794Z" fill="#4BAFA1"/>
<path d="M317.235 337.515C316.708 347.964 317.642 358.051 319.405 368.32C323.806 393.907 331.462 420.942 341.242 444.932C342.538 447.374 345.327 447.902 347.813 448.4C327.588 453.496 306.656 462.95 288.586 473.248C284.215 464.277 276.529 457.642 270.607 449.651C258.113 432.794 247.338 413.313 239.396 393.892C236.562 386.971 235.658 378.754 231.258 372.873C260.54 357.102 284.848 346.275 317.25 337.5L317.235 337.515Z" fill="#90D2C0"/>
<path d="M494.932 339.43C487.653 347.738 485.226 360.976 482.785 371.727C478.068 392.52 474.903 419.042 476.741 440.318C477.088 444.268 477.917 446.454 480.6 449.364C457.496 445.097 433.504 441.886 409.904 441.72C411.365 432.145 407.131 424.154 405.367 415.182C398.736 381.257 401.75 366.284 404.192 333.172C404.328 331.333 404.222 329.554 403.212 327.97C434.077 328.212 464.58 333.368 494.932 339.445V339.43Z" fill="#90D2C0"/>
<path d="M684.097 361.414C685.408 362.379 686.313 363.133 687.036 364.686C690.321 371.667 692.326 380.171 695.686 387.574C705.105 408.261 717.659 428.315 731.886 445.987C736.015 451.114 743.219 456.3 744.274 462.739C709.853 480.501 690.894 483.743 651.605 482.808C650.987 481.044 648.681 480.712 647.747 479.491C645.984 477.199 639.714 451.34 638.705 446.485C633.49 421.53 633.777 392.927 639.187 368.093C653.745 368.274 670.579 367.204 684.097 361.399V361.414Z" fill="#4BAFA1"/>
<path d="M632.511 80.3877C633.746 84.1119 635.118 87.2934 635.404 91.3494C636.61 108.026 633.49 133.206 629.376 149.43C626.03 162.579 619.595 176.857 617.425 190.126C617.003 192.674 616.988 192.825 619.143 194.152C598.858 191.634 578.528 188.618 558.002 189.372L557.052 190.322C556.419 190.352 555.771 190.292 555.138 190.322C551.295 182.708 554.536 176.39 555.138 168.806C556.872 146.852 557.173 128.683 552.953 106.955C551.431 99.1147 547.528 89.0274 546.759 81.5185C546.563 79.6639 546.895 78.2616 547.498 76.5578C577.669 75.2611 602.641 76.0602 632.526 80.3877H632.511Z" fill="#4BAFA1"/>
<path d="M572.319 358.549C565.251 374.456 558.846 390.771 555.244 407.9C552.441 421.214 551.642 436.247 551.22 449.847C551.055 455.305 553.556 460.552 550.346 466.569C527.062 460.884 504.215 453.722 480.6 449.365C477.917 446.454 477.088 444.268 476.742 440.318C474.903 419.042 478.068 392.52 482.785 371.727C485.226 360.961 487.653 347.738 494.932 339.43C521.788 344.798 545.991 351.869 572.319 358.549Z" fill="#4BAFA1"/>
<path d="M209.27 552.589C202.759 566.13 196.52 589.275 195.887 604.202C188.08 607.006 180.59 608.665 172.362 609.811C140.111 614.304 115.41 613.671 85.3595 600.553C83.6114 599.784 82.3304 599.06 80.2808 599.422C81.607 564.923 88.7655 540.436 103.203 509.572L127.738 527.56C145.25 537.3 163.757 545.02 183.424 549.272L209.254 552.589H209.27Z" fill="#4BAFA1"/>
<path d="M451.935 88.9973C456.125 92.7367 459.29 98.4664 461.656 103.653C472.929 128.351 477.043 159.08 476.817 186.07C476.772 191.242 474.285 195.705 477.721 200.847C455.326 206.094 433.278 212.759 411.803 220.916C410.657 219.589 410.039 218.458 409.843 216.664C408.804 207.165 410.627 195.826 409.874 186.04C407.764 158.492 394.637 134.352 383.138 110.031C407.025 101.557 426.436 94.5762 451.92 88.9973H451.935Z" fill="#4BAFA1"/>
<path d="M0.0300321 262.969C4.86768 261.823 3.7826 265.2 6.19388 267.794C19.5916 282.223 64.9841 282.329 83.6716 281.168C92.5933 280.61 106.172 275.74 113.918 278.575C122.659 281.786 118.485 292.522 109.427 293.547C86.0678 296.201 43.6894 291.904 21.0534 284.953C9.40391 281.364 -0.693354 277.157 0.0300321 262.969Z" fill="#4BAFA1"/>
<path d="M401.298 327.971C397.802 327.971 394.275 327.865 390.794 327.971C393.025 326.387 398.872 326.342 401.298 327.971Z" fill="#72C8B4"/>
<path d="M557.037 190.322L557.987 189.372C557.987 189.372 557.67 190.307 557.037 190.322Z" fill="#72C8B4"/>
<path d="M108.704 211.567C117.219 210.12 124.046 212.397 128.853 219.619C143.336 241.407 113.813 261.28 97.9435 243.85C88.449 233.416 94.628 213.95 108.704 211.552V211.567ZM109.653 216.362C93.1209 219.137 93.8594 244.513 110.467 246.624C134.203 249.64 134.474 212.186 109.653 216.362Z" fill="#FFFAF2"/>
<path d="M15.5377 257.435C16.8639 255.098 25.9063 254.193 27.8353 256.666C32.1756 262.215 23.3895 272.408 18.2052 269.211C15.6131 267.613 14.1964 259.817 15.5377 257.45V257.435Z" fill="#4BAFA1"/>
<path d="M109.653 216.362C134.474 212.186 134.188 249.64 110.467 246.624C93.8593 244.513 93.1208 219.137 109.653 216.362Z" fill="#4BAFA1"/>
</g>
</g>
<defs>
<clipPath id="clip0_504_7940">
<rect width="669" height="516" fill="white"/>
</clipPath>
<clipPath id="clip1_504_7940">
<rect width="846" height="772" fill="white" transform="translate(0 76)"/>
</clipPath>
</defs>
</svg>
