<svg width="669" height="516" viewBox="0 0 669 516" fill="none" xmlns="http://www.w3.org/2000/svg">
<g clip-path="url(#clip0_504_11280)">
<rect width="669" height="516" fill="#D9D9D9" fill-opacity="0.6"/>
<g clip-path="url(#clip1_504_11280)">
<path d="M554.893 181.986C552.82 182.344 553.181 184.988 552.926 186.464C551.872 192.774 550.865 199.176 550.421 205.557C550.285 207.58 548.438 208.44 551.85 207.508C550.773 217.033 548.699 227.027 547.634 236.71C543.414 239.452 545.405 244.481 545.117 247.658C544.165 258.148 543.594 270.102 542.362 281.567C542.168 283.386 540.404 284.906 543.359 285.261C542.946 298.56 541.507 304.239 551.422 314.305C557.898 320.887 562.615 320.94 571.354 323.709C572.054 323.932 576.031 325.631 573.958 323.521C575.242 323.946 577.005 324.461 578.578 324.993C580.832 325.758 583.233 327.417 584.399 327.773C584.665 327.858 586.117 324.512 587.187 326.719C587.354 327.065 586.05 332.031 590.335 332.81C593.211 325.477 592.618 328.063 596.994 329.72C597.405 329.882 597.691 328.354 598.597 328.365C605.052 328.432 613.529 329.946 619.889 330.646C622.379 330.915 625.825 330.117 628.447 330.89C630.392 331.464 632.445 334.94 633.623 334.39C633.807 334.294 634.226 331.915 635.58 331.344C636.934 330.773 637.978 334.467 640.027 330.309C640.344 330.379 640.634 330.533 640.951 330.603C646.491 331.798 648.004 333.776 653.302 332.441C654.562 332.118 661.805 332.807 661.879 335.236L663.057 331.54C664.585 331.534 662.606 335.375 665.258 334.262C665.72 334.07 664.398 332.461 665.385 332.267C667.262 331.893 670.329 332.67 672.432 332.461C673.779 335.589 669.089 334.773 668.818 337.416C672.801 336.48 674.07 336.514 674.121 331.997C678.844 335.321 678.385 332.893 679.67 332.732C688.386 331.7 686.037 336.025 686.598 335.957C688.138 335.769 688.507 333.45 689.324 333.017C690.14 332.583 698.965 331.601 695.363 335.696L696.258 335.982C696.596 332.743 699.534 335.622 700.522 335.182C701.077 334.942 700.901 332.542 701.952 332.63C704.167 332.843 706.225 334.562 708.075 335.676L708.809 331.824C730.953 332.495 753.028 333.191 775.131 334.621C777.419 339.683 778.266 336.252 779.528 336.114C782.052 335.839 800.545 337.275 801.962 338.004C802.809 338.444 801.468 340.329 802.359 340.243C816.307 337.024 835.736 343.846 848.682 349.914L848.093 351.762C853.195 351.043 857.007 357.855 859.276 361.431L858.219 361.603C858.036 362.177 858.953 362.299 858.981 362.355C858.677 364.231 857.395 366.367 857.953 368.488C858.402 370.173 861.15 370.987 861.251 371.25C861.386 371.601 857.445 376.082 856.753 377.48C855.359 380.259 856.442 383.148 856.321 383.433C855.979 384.265 853.473 383.806 853.183 384.037C852.604 384.5 855.103 387.255 850.558 387.195L848.428 385.992C851.851 389.38 851.147 392.316 846.161 389.864C846.279 391.043 846.424 394.219 845.618 394.764C843.269 396.329 844.752 391.867 843.444 392.052L839.227 398.85C810.839 415.648 773.796 423.213 741.79 430.747C689.381 443.084 628.502 452.044 579.204 473.343C576.363 474.566 565.672 481.213 564.429 481.388C563.798 481.48 562.035 480.286 561.671 480.509C560.436 481.288 556.002 494.77 555.435 497.226C555.15 498.461 553.75 503.289 556.44 503.267C554.116 522.71 560.743 550.11 564.633 569.699C574.669 620.327 590.202 669.576 601.289 719.907C606.457 743.372 618.342 793.664 606.499 814.623C599.254 827.441 582.981 825.957 571.263 820.389C537.564 804.394 491.631 710.595 471.764 676.402C451.117 640.881 426.641 593.47 401.071 562.317C399.64 560.566 391.855 553.784 391.994 552.718C392.016 552.648 393.562 552.878 393.208 552.102C391.714 548.805 373.289 544.738 369.211 545.243C367.073 545.518 365.057 547.004 363.072 547.574C310.156 562.709 251.651 602.308 200.404 626.626C174.534 638.907 112.89 668.902 85.6665 664.669C41.8256 657.855 55.3811 625.183 76.8878 601.335C129.631 542.846 201.444 497.388 256.012 439.804C260.379 435.197 268.231 423.713 272.702 422.023C275.559 420.944 279.451 410.666 280.349 407.606C280.873 405.815 282.468 404.195 279.518 403.826C279.672 403.196 279.952 402.607 280.106 401.978C280.169 401.782 281.979 400.215 281.26 398.259C280.847 398.297 280.159 398.957 280.066 398.912C279.345 398.559 275.394 386.861 273.587 384.111C264.76 370.582 239.451 349.304 226.741 337.267C192.239 304.579 152.711 272.664 121.47 237.191C108.134 222.04 89.3821 201.186 93.3082 179.523C96.5241 175.382 97.8703 171.448 102.053 168.047C102.45 167.818 102.856 167.608 103.272 167.417C106.792 166.966 110.317 166.501 113.863 166.166C115.422 166.015 117.083 167.577 117.357 164.781C117.663 164.786 117.964 165.052 118.281 165.075L121.378 168.082C121.839 165.716 127.445 166.607 129.956 166.76C135.164 167.062 140.425 167.829 145.341 169.626L143.367 171.033C154.395 175.379 165.321 179.755 176.528 183.634C177.14 183.844 177.76 184.026 178.376 184.223L179.3 184.517C179.608 184.615 179.916 184.713 180.224 184.811C182.969 186.842 187.982 189.257 191.221 190.366C193.602 191.171 194.558 190.396 194.726 190.449C195.034 190.548 195.346 190.632 195.65 190.744C193.988 194.023 199.939 193.591 201.832 194.764C203.725 195.938 201.592 195.274 206.32 197.181C209.45 198.44 213.159 202.043 216.954 200.585C262.914 222.429 305.956 253.336 354.237 269.829C383.816 279.932 392.059 270.901 406.866 246.013C415.033 232.286 422.359 216.502 429.336 202.057L432.447 205.068C430.845 202.645 433.441 194.884 436.305 196.105L436.591 195.209C433.948 194.938 435.179 192.138 436.016 190.384C436.852 188.631 437.98 189.592 438.313 189.127C439.139 187.987 441.913 177.923 443.154 175.821C444.126 174.172 446.11 174.866 446.376 174.226C446.984 172.801 446.861 169.169 447.677 166.607C449.279 161.582 453.454 157.623 452.292 152.319C452.418 152.02 452.46 151.694 452.586 151.395L456.128 151.506C454.008 146.836 458.09 144.575 459.214 141.819C461.799 135.595 463.567 130.916 466.825 124.66C467.187 123.959 466.818 122.454 466.925 122.41C467.424 122.199 469.927 123.537 470.94 122.148C470.666 120.349 471.578 118.404 469.338 118.029C469.393 116.212 471.247 118.283 471.623 117.246C471.852 116.625 468.97 116.91 471.086 112.495C472.723 109.1 472.146 109.41 472.852 106.952C473.035 106.332 473.305 105.724 473.441 105.104C477.169 107.001 475.631 101.716 476.131 99.8552C476.215 99.5427 476.327 99.2392 476.425 98.9313C479.328 100.226 477.738 98.7326 478.396 97.2463C481.368 90.4834 485.056 84.0874 488.085 77.3889C488.725 75.9586 490.371 73.8923 488.957 72.3778C497.862 55.1235 512.668 26.3653 533.727 22.2657C557.436 17.6384 560.623 48.3364 561.379 64.6908C563.091 101.472 559.013 145.244 554.86 181.992L554.893 181.986ZM523.43 78.4891C512.399 77.0561 508.593 99.3117 523.094 100.355C532.452 101.039 539.173 87.9766 531.903 81.4661C531.315 80.9396 524.408 78.6154 523.43 78.4891ZM516.714 134.558C511.945 130.895 505.968 130.054 501.604 134.894C495.377 141.807 498.464 145.813 502.978 152.216C504.783 153.13 514.448 152.463 515.839 151.533C516.23 151.273 520.185 143.651 520.253 143.148C520.373 142.385 519.508 138.517 519.14 137.69C519.058 137.51 516.86 134.681 516.714 134.558ZM506.109 187.105C503.43 179.93 492.716 177.21 486.574 182.068C485.337 183.047 485.22 184.428 484.492 185.214C483.832 185.929 482.67 185.512 482.338 186.07C475.995 196.492 487.953 209.97 499.191 204.993C505.206 202.33 508.359 193.158 506.095 187.101L506.109 187.105ZM450.495 166.04L450.201 166.964C450.901 166.848 450.999 166.54 450.495 166.04ZM470.734 235.847C469.504 236.997 470.245 239.269 469.666 240.749C469.145 242.094 467.052 243.34 467.186 244.709C467.315 245.999 470.364 250.609 471.507 251.714C484.802 264.384 499.511 235.98 477.094 234.034C475.727 233.922 471.505 235.121 470.734 235.847ZM767.835 389.364C770.026 384.28 775.221 381.571 773.41 375.304C769.6 362.048 747.333 369.309 753.453 383.301C755.888 388.873 763.747 387.63 767.835 389.364ZM454.882 285.844C451.69 287.973 448.525 294.905 448.996 298.895C450.612 312.748 471.024 314.548 474.948 300.78C477.975 290.118 463.761 279.946 454.896 285.848L454.882 285.844ZM722.309 381.258C721.782 380.442 716.679 376.087 715.74 375.742C707.477 372.832 702.023 380.176 701.886 387.719C701.777 393.821 712.511 397.441 717.178 395.089C720.612 393.361 724.756 384.998 722.328 381.248L722.309 381.258ZM175.556 218.095C173.455 217.04 173.755 214.406 172.641 213.065C166.883 206.065 155.731 208.741 153.548 217.528C153.353 218.283 154.051 224.951 154.292 225.259C154.669 225.719 161.44 228.909 162.478 229.086C163.4 229.241 169.088 227.892 169.97 227.448C174.424 225.228 173.098 221.598 175.547 218.123L175.556 218.095ZM510.747 323.735C510.262 323.951 509.644 321.148 507.376 320.765C505.416 320.433 499.377 321.916 497.849 323.419C494.575 326.631 493.573 335.487 496.653 338.596C497.025 338.977 502.943 341.695 503.4 341.763C504.527 341.953 504.006 339.474 505.44 340.393L505.317 342.374C506.908 341.061 511.635 339.823 512.71 338.577C513.982 337.102 513.099 336.003 513.358 335.191C513.536 334.631 515.225 335.524 515.402 334.871C516.329 331.527 512.722 325.475 512.26 322.182C510.747 321.268 511.163 323.544 510.747 323.735ZM664.269 381.115C663.499 380.145 656.884 376.372 655.678 376.234C650.253 375.647 644.878 383.371 644.131 387.99C644.062 388.4 647.534 395.119 647.807 395.422C648.784 396.519 655.833 396.899 657.711 396.619C664.314 395.639 668.244 386.159 664.274 381.101L664.269 381.115ZM216.329 262.171C219.642 260.483 222.999 255.076 222.657 251.312C222.118 245.405 209.341 240.208 205.685 243.068C205.234 243.418 200.749 250.963 200.589 251.852C200.114 254.6 203.583 257.216 203.2 260.255C208.2 260.63 211.27 264.739 216.329 262.171ZM409.168 312.202C391.332 299.026 384.305 329.26 400.975 330.27C408.053 330.705 412.476 324.374 412.674 317.652C412.776 314.431 410.406 314.416 409.431 313.412C409.219 313.205 409.398 312.353 409.173 312.188L409.168 312.202ZM607.275 381.999L598.629 377.193L598.539 379.169C595.811 374.954 585.093 382.703 584.725 385.407C584.581 386.441 586.611 386.116 586.34 387.017C586.104 387.805 583.502 385.372 583.56 390.757C583.606 394.873 585.575 396.533 587.785 399.227C588.229 399.769 587.974 400.86 588.2 401.07C591.195 403.721 597.837 404.603 601.61 403.554C602.068 403.423 608.968 398.559 609.204 398.156C611.708 393.881 612.267 384.237 605.757 383.52L607.279 381.985L607.275 381.999ZM265.525 282.858C265.21 281.816 265.559 280.478 265.106 279.625C264.33 278.19 257.764 274.356 256.258 274.292C255.57 274.274 255.22 275.519 255.001 275.526C254.286 275.545 253.579 274.425 252.521 274.551C246.068 275.301 242.368 284.978 247.018 290.468C251.394 295.609 259.447 297.096 262.668 290.52L264.203 292.043C266.522 287.57 266.863 287.324 265.539 282.862L265.525 282.858ZM456.973 344.565C454.626 338.574 442.447 334.987 438.759 342.108C436.272 346.913 434.746 354.414 440.527 357.32C446.309 360.226 449.351 360.794 453.893 356.459C456.641 353.834 458.353 348.073 456.973 344.565ZM312.828 307.844C309.968 301.721 298.179 298.504 292.792 303.264C285.045 310.109 287.291 320.046 296.184 324.56C300.633 326.81 300.483 325.004 301.903 324.855C304.641 324.587 307.071 324.559 309.496 322.124C312.394 319.224 314.631 311.672 312.842 307.848L312.828 307.844ZM532.896 383.049C525.384 387.363 523.025 400.381 531.38 404.6C542.349 410.146 552.319 405.181 551.645 392.585C551.216 384.738 539.199 379.429 532.914 383.039L532.896 383.049ZM352.297 353.401C358.978 350.287 362.161 339.136 356.604 333.495C347.928 324.717 336.948 329.56 333.639 340.333C332.197 345.054 338.717 352.513 342.768 353.835C344.793 354.495 350.435 354.258 352.283 353.397L352.297 353.401ZM495.861 400.268C495.756 399.68 496.891 398.731 496.901 397.732C497.036 384.19 478.049 382.612 476.544 396.627C475.429 407.096 490.733 411.572 496.506 402.987C498.169 400.526 495.961 400.825 495.852 400.25L495.861 400.268ZM397.318 380.127C397.187 379.037 400.054 377.977 397.696 373.278C393.586 365.076 380.879 364.744 377.911 373.574C375.677 380.248 379.065 386.601 385.69 388.65C390.449 390.12 391.433 388.337 394.122 386.141C394.687 385.673 395.655 386.12 396.341 385.321C396.492 385.138 398.589 381.365 398.66 381.141C398.803 380.693 397.339 380.35 397.313 380.141L397.318 380.127ZM436.119 387.756C430.665 387.113 426.037 391.282 424.72 396.383C422.117 406.44 436.313 413.137 442.615 404.875C448.118 397.67 445.156 388.816 436.119 387.756ZM519.187 456.611C522.184 454.127 518.65 443.78 514.268 441.999C513.871 441.841 513.319 443.717 512.695 443.595C510.683 443.231 510.066 440.814 506.2 441.186C499.968 441.776 497.619 446.486 497.676 452.163C497.726 456.943 499.511 455.646 500.042 456.401C500.814 457.511 500.324 459.144 501.597 460.181C501.856 460.387 507.157 463.155 507.469 463.24C508.02 463.4 508.438 461.991 509.291 461.877C519.591 460.425 514.026 459.068 516.628 456.998C517.226 456.526 518.802 456.951 519.183 456.625L519.187 456.611ZM347.198 396.555C347.019 396.436 347.515 394.929 347.1 394.828C345.096 394.39 336.289 394.93 334.823 396.822C329.771 403.338 329.979 412.317 338.528 415.441C339.704 415.863 345.988 416.323 346.758 415.936C346.869 415.879 346.772 414.491 347.552 413.783C348.939 412.529 351.006 411.8 351.888 409.999C354.069 405.575 353.185 400.606 349.79 397.227C349.088 396.525 347.853 396.964 347.202 396.541L347.198 396.555ZM436.985 448.338C440.845 461.533 459.32 457.752 457.608 445.025C456.974 440.336 450.882 436.082 446.622 436.436C445.656 436.514 438.091 440.318 437.846 440.748C437.147 441.975 436.041 445.447 435.902 446.852C435.828 447.615 436.859 447.959 436.985 448.338ZM399.766 425.146C393.423 419.887 385.773 421.443 382.498 429.158C375.916 444.685 402.556 449.442 402.535 431.795C402.528 430.899 400.034 425.37 399.752 425.142L399.766 425.146ZM468.472 490.782C453.997 488.591 447.342 508.366 460.767 514.479C479.578 523.047 487.714 493.69 468.472 490.782ZM353.562 458.271C352.021 455.267 341.638 452.961 338.061 454.412C333.81 456.141 334.015 458.982 332.318 461.742C331.682 462.772 329.402 460.442 329.915 465.463C331.925 485.285 356.318 481.416 355.029 464.845C354.997 464.511 353.696 458.576 353.543 458.281L353.562 458.271ZM411.386 503.664C415.473 501.774 417.814 491.233 414.297 487.46C413.675 486.799 406.457 483.852 405.354 483.686C399.883 482.852 394.533 489.336 394.755 494.495C394.938 498.762 398.065 500.221 399.219 503.133C401.566 502.447 404.245 504.734 405.538 504.838C405.836 504.871 411.104 503.774 411.372 503.659L411.386 503.664ZM499.93 554.85C499.398 553.277 495.141 548.683 493.44 547.925C478.258 541.13 466.817 563.343 482.897 570.27C492.402 574.363 503.02 563.93 499.916 554.846L499.93 554.85ZM297.447 486.497C285.269 483.341 276.775 501.143 288.008 508.716C302.111 518.22 313.485 498.638 305.2 490.571C303.505 488.921 299.685 487.071 297.447 486.497ZM517.733 607.475C510.43 601.602 499.255 605.412 499.47 614.948C499.789 628.757 519.109 627.404 520.3 616.696C520.388 615.984 518.912 615.73 518.969 615.116C519.032 614.288 520.615 612.464 520.209 610.592C520.165 610.393 517.889 607.617 517.729 607.489L517.733 607.475ZM253.519 523.077C252.408 522.014 243.067 521.134 241.065 522.285C229.667 528.83 239.335 546.59 251.957 541.144C254.585 540.008 261.189 530.362 255.408 530.602L257.679 529.814C257.068 527.523 255.191 526.539 253.847 525.001C253.351 524.426 253.675 523.265 253.501 523.086L253.519 523.077ZM524.719 680.26C530.579 684.564 539.709 683.495 542.798 676.414C545.837 669.441 537.738 664.517 532.312 662.866C529.695 662.078 524.098 666.771 523.224 669.175C522.314 671.692 522.518 678.649 524.719 680.26ZM204.146 562.517C194.171 549.593 178.985 563.813 187.473 574.582C195.961 585.351 211.635 572.212 204.146 562.517ZM557.821 737.667C558.543 737.388 563.167 733.958 563.602 733.172C572.491 717.13 545.202 710.054 544.211 727.78C543.878 733.857 552.427 739.742 557.835 737.672L557.821 737.667ZM156.206 591.944C146.102 583.636 135.846 590.56 136.706 602.769L139.11 601.515C138.231 611.628 150.762 611.257 155.895 604.828C160.789 598.708 156.388 598.293 156.206 591.944Z" fill="#2AB4A3"/>
<path d="M471.11 112.518L470.186 112.224C470.312 111.925 470.354 111.599 470.48 111.3L471.11 112.518Z" fill="#2AB4A3"/>
<path d="M640.041 330.313C637.991 334.471 636.929 330.787 635.594 331.348C634.259 331.909 633.821 334.299 633.637 334.394C632.455 334.958 630.406 331.468 628.461 330.895C625.853 330.126 622.388 330.934 619.903 330.651C613.556 329.955 605.08 328.441 598.611 328.369C597.705 328.358 597.419 329.886 597.008 329.724C592.632 328.068 593.243 325.472 590.349 332.814C586.05 332.031 587.368 327.069 587.201 326.723C586.131 324.516 584.679 327.862 584.413 327.778C583.251 327.407 580.846 325.762 578.592 324.998C579.019 321.865 580.598 323.879 582.401 324.222C601.257 327.809 621.885 326.656 640.036 330.327L640.041 330.313ZM592.115 327.271C591.023 326.198 589.464 327.074 589.991 327.597C591.083 328.669 592.642 327.794 592.115 327.271Z" fill="#10A795"/>
<path d="M452.311 152.355C453.473 157.66 449.312 161.623 447.696 166.644C446.876 169.22 447.003 172.838 446.395 174.263C446.133 174.889 444.15 174.195 443.173 175.858C441.937 177.946 439.158 188.024 438.332 189.164C437.999 189.629 436.83 188.747 436.035 190.421C435.239 192.095 433.967 194.974 436.61 195.246L436.324 196.142C433.46 194.921 430.864 202.682 432.466 205.105L429.355 202.094C437.3 185.674 444.947 168.79 452.32 152.374L452.311 152.355Z" fill="#10A795"/>
<path d="M471.11 112.518L470.48 111.3C471.143 109.8 471.001 107.873 472.876 106.975C472.17 109.433 472.742 109.137 471.11 112.518Z" fill="#10A795"/>
<path d="M471.109 112.518C468.975 116.942 471.871 116.662 471.647 117.269C471.27 118.305 469.417 116.235 469.362 118.052C471.597 118.441 470.684 120.386 470.964 122.171C469.946 123.573 467.443 122.236 466.948 122.433C466.842 122.476 467.206 123.996 466.848 124.683C463.591 130.939 461.822 135.618 459.238 141.841C458.099 144.593 454.036 146.845 456.152 151.528L452.609 151.418C458.481 138.362 464.333 125.27 470.19 112.21L471.114 112.504L471.109 112.518ZM468.922 120.981L468.628 121.904C469.328 121.788 469.426 121.48 468.922 120.981Z" fill="#10A795"/>
<path d="M708.8 331.851L708.066 335.704C706.216 334.59 704.158 332.87 701.943 332.658C700.896 332.556 701.072 334.956 700.513 335.21C699.525 335.65 696.592 332.757 696.254 335.996L695.358 335.71C698.97 331.634 690.164 332.606 689.319 333.031C688.475 333.455 688.134 335.783 686.594 335.971C686.032 336.039 688.382 331.714 679.665 332.746C678.384 332.893 678.84 335.335 674.117 332.011C674.07 336.514 672.801 336.48 668.813 337.43C669.084 334.787 673.774 335.603 672.427 332.475C670.339 332.689 667.257 331.907 665.38 332.281C664.393 332.475 665.72 334.07 665.254 334.276C662.606 335.375 664.585 331.534 663.066 331.559L661.889 335.254C661.801 332.821 654.553 332.146 653.298 332.455C648 333.79 646.487 331.812 640.946 330.617C643.58 330.238 646.862 329.958 649.501 329.997C669.219 330.25 689.063 331.268 708.781 331.861L708.8 331.851Z" fill="#10A795"/>
<path d="M176.524 183.648C165.326 179.787 154.4 175.412 143.362 171.047L145.337 169.641L176.524 183.648Z" fill="#10A795"/>
<path d="M488.984 72.3867C490.403 73.8872 488.753 75.9675 488.113 77.3978C485.084 84.0963 481.392 90.5063 478.424 97.2552C477.766 98.7415 479.356 100.235 476.453 98.9401C478.737 90.7554 484.994 80.1202 488.984 72.3867Z" fill="#10A795"/>
<path d="M216.95 200.599C213.154 202.057 209.445 198.455 206.315 197.195C201.588 195.288 203.725 195.938 201.827 194.778C199.93 193.619 193.97 194.033 195.645 190.758C202.991 193.546 209.894 197.241 216.95 200.599Z" fill="#10A795"/>
<path d="M564.401 481.379C558.134 487.4 557.373 495.16 556.408 503.272C553.718 503.294 555.117 498.466 555.403 497.231C555.974 494.761 560.408 481.279 561.639 480.514C562.003 480.291 563.77 481.471 564.396 481.393L564.401 481.379Z" fill="#10A795"/>
<path d="M543.378 285.252C540.404 284.906 542.172 283.372 542.381 281.557C543.627 270.097 544.183 258.139 545.135 247.649C545.423 244.471 543.433 239.443 547.652 236.701C545.896 252.764 543.901 269.09 543.396 285.242L543.378 285.252Z" fill="#10A795"/>
<path d="M551.854 207.494C548.424 208.436 550.271 207.575 550.425 205.543C550.87 199.162 551.872 192.774 552.931 186.45C553.185 184.974 552.825 182.33 554.897 181.972C553.932 190.47 552.823 198.983 551.858 207.48L551.854 207.494Z" fill="#10A795"/>
<path d="M573.963 323.507C576.035 325.617 572.059 323.918 571.359 323.695C562.638 320.917 557.902 320.873 551.426 314.292C558.326 318.818 566.215 320.916 573.949 323.503L573.963 323.507Z" fill="#10A795"/>
<path d="M279.495 403.849C282.445 404.219 280.85 405.838 280.326 407.629C279.442 410.694 275.536 420.968 272.679 422.047C273.184 417.751 276.893 414.677 278.266 411.044C279.195 408.564 278.909 406.268 279.495 403.849Z" fill="#10A795"/>
<path d="M194.721 190.464C194.553 190.41 193.597 191.185 191.217 190.38C187.977 189.271 182.964 186.856 180.219 184.825C180.513 184.919 181.645 184.416 182.718 184.773C186.107 185.899 191.656 188.469 194.721 190.464Z" fill="#10A795"/>
<path d="M129.966 166.778C127.45 166.64 121.844 165.748 121.388 168.1L118.29 165.094C122.066 165.294 125.75 164.186 129.98 166.783L129.966 166.778Z" fill="#10A795"/>
<path d="M117.352 164.795C117.078 167.591 115.413 166.043 113.858 166.179C110.313 166.515 106.788 166.98 103.267 167.431C109.156 164.774 111.013 164.703 117.352 164.795Z" fill="#10A795"/>
<path d="M102.049 168.061C97.8658 171.462 96.5196 175.396 93.3036 179.537C94.6104 172.29 95.9197 171.52 102.049 168.061Z" fill="#10A795"/>
<path d="M476.159 99.8641C475.659 101.725 477.197 107.01 473.469 105.113C473.904 103.216 474.348 100.952 476.159 99.8641Z" fill="#10A795"/>
<path d="M280.084 402.001L280.043 398.935C280.127 398.962 280.81 398.316 281.237 398.283C281.956 400.239 280.146 401.805 280.084 402.001Z" fill="#10A795"/>
<path d="M607.275 381.999L605.753 383.534C612.276 384.255 611.703 393.895 609.2 398.17C608.964 398.573 602.059 403.451 601.605 403.568C597.832 404.617 591.19 403.735 588.195 401.084C587.969 400.873 588.224 399.783 587.78 399.24C585.556 396.543 583.601 394.887 583.556 390.771C583.494 385.4 586.1 387.819 586.336 387.03C586.607 386.13 584.576 386.454 584.72 385.421C585.103 382.721 595.811 374.954 598.535 379.183L598.625 377.207L607.27 382.013L607.275 381.999Z" fill="#98D5CE"/>
<path d="M506.109 187.105C508.359 193.157 505.22 202.334 499.205 204.997C487.967 209.974 476.009 196.496 482.352 186.074C482.698 185.521 483.842 185.947 484.506 185.218C485.234 184.433 485.332 183.061 486.587 182.073C492.735 177.201 503.448 179.92 506.123 187.11L506.109 187.105Z" fill="#98D5CE"/>
<path d="M454.881 285.844C463.747 279.941 477.975 290.118 474.934 300.775C471.024 314.548 450.598 312.743 448.982 298.89C448.525 294.905 451.676 287.968 454.867 285.839L454.881 285.844Z" fill="#98D5CE"/>
<path d="M468.472 490.782C487.714 493.69 479.578 523.047 460.767 514.478C447.342 508.366 453.997 488.591 468.472 490.782Z" fill="#96D5CD"/>
<path d="M532.896 383.049C539.199 379.429 551.211 384.752 551.627 392.594C552.315 405.195 542.335 410.141 531.361 404.61C523.007 400.39 525.366 387.372 532.877 383.058L532.896 383.049Z" fill="#98D5CE"/>
<path d="M352.296 353.401C350.431 354.272 344.789 354.509 342.782 353.839C338.717 352.513 332.197 345.054 333.653 340.337C336.953 329.546 347.933 324.703 356.618 333.499C362.194 339.131 358.992 350.292 352.31 353.406L352.296 353.401Z" fill="#96D5CD"/>
<path d="M297.447 486.497C299.685 487.071 303.505 488.921 305.2 490.571C313.481 498.652 302.097 518.216 288.008 508.716C276.775 501.143 285.268 483.341 297.447 486.497Z" fill="#98D5CE"/>
<path d="M353.562 458.272C353.714 458.567 355.015 464.502 355.048 464.836C356.337 481.406 331.944 485.276 329.933 465.453C329.42 460.433 331.7 462.763 332.337 461.732C334.029 458.987 333.814 456.127 338.08 454.403C341.643 452.947 352.026 455.253 353.58 458.262L353.562 458.272Z" fill="#98D5CE"/>
<path d="M312.828 307.844C314.631 311.672 312.38 319.219 309.482 322.12C307.052 324.568 304.627 324.582 301.889 324.851C300.474 324.986 300.619 326.805 296.17 324.555C287.277 320.041 285.031 310.105 292.778 303.26C298.165 298.5 309.954 301.716 312.814 307.839L312.828 307.844Z" fill="#98D5CE"/>
<path d="M519.188 456.611C518.792 456.932 517.216 456.507 516.632 456.984C514.016 459.05 519.596 460.411 509.296 461.863C508.438 461.991 508.024 463.386 507.474 463.226C507.152 463.123 501.86 460.373 501.602 460.167C500.329 459.13 500.832 457.501 500.046 456.387C499.516 455.632 497.73 456.929 497.68 452.149C497.624 446.472 499.986 441.766 506.205 441.172C510.07 440.8 510.688 443.217 512.7 443.581C513.328 443.689 513.88 441.814 514.272 441.985C518.654 443.767 522.188 454.113 519.192 456.597L519.188 456.611Z" fill="#94D4CC"/>
<path d="M397.318 380.127C397.339 380.35 398.807 380.679 398.665 381.127C398.593 381.351 396.497 385.124 396.346 385.307C395.66 386.106 394.692 385.659 394.127 386.127C391.433 388.337 390.453 390.106 385.694 388.636C379.069 386.587 375.667 380.23 377.915 373.56C380.883 364.73 393.586 365.076 397.7 373.264C400.058 377.963 397.206 379.028 397.322 380.113L397.318 380.127Z" fill="#94D4CC"/>
<path d="M347.197 396.555C347.83 396.988 349.079 396.553 349.785 397.241C353.18 400.62 354.078 405.593 351.883 410.013C351.006 411.8 348.934 412.543 347.548 413.797C346.753 414.5 346.865 415.893 346.754 415.95C345.997 416.341 339.714 415.881 338.523 415.456C329.97 412.345 329.748 403.362 334.819 396.836C336.289 394.93 345.11 394.394 347.096 394.842C347.529 394.933 347.033 396.441 347.193 396.569L347.197 396.555Z" fill="#96D5CD"/>
<path d="M523.43 78.4889C524.408 78.6153 531.315 80.9395 531.903 81.466C539.154 87.986 532.451 101.039 523.094 100.355C508.597 99.2976 512.404 77.042 523.43 78.4889Z" fill="#96D5CD"/>
<path d="M516.714 134.558C516.874 134.686 519.063 137.496 519.139 137.69C519.508 138.517 520.359 142.38 520.253 143.149C520.181 143.665 516.23 151.273 515.839 151.534C514.448 152.463 504.783 153.13 502.978 152.216C498.469 145.799 495.377 141.807 501.604 134.894C505.968 130.055 511.945 130.895 516.714 134.558Z" fill="#96D5CD"/>
<path d="M409.168 312.202C409.393 312.367 409.219 313.205 409.426 313.426C410.401 314.43 412.771 314.445 412.67 317.666C412.471 324.388 408.053 330.705 400.971 330.284C384.314 329.279 391.342 299.044 409.164 312.216L409.168 312.202Z" fill="#96D5CD"/>
<path d="M456.973 344.565C458.353 348.073 456.637 353.848 453.893 356.459C449.351 360.794 446.098 360.112 440.527 357.32C434.956 354.527 436.272 346.913 438.759 342.108C442.447 334.987 454.626 338.574 456.973 344.565Z" fill="#98D5CE"/>
<path d="M411.386 503.664C411.113 503.793 405.85 504.876 405.552 504.843C404.259 504.739 401.575 502.465 399.233 503.138C398.079 500.226 394.952 498.767 394.769 494.499C394.547 489.34 399.897 482.857 405.368 483.69C406.471 483.857 413.694 486.79 414.311 487.465C417.828 491.237 415.473 501.774 411.4 503.668L411.386 503.664Z" fill="#96D5CD"/>
<path d="M399.766 425.146C400.048 425.375 402.542 430.903 402.549 431.8C402.57 449.446 375.92 444.671 382.512 429.162C385.787 421.448 393.423 419.887 399.78 425.15L399.766 425.146Z" fill="#94D4CC"/>
<path d="M436.119 387.756C445.156 388.816 448.113 397.684 442.615 404.875C436.317 413.123 422.103 406.435 424.72 396.383C426.037 391.282 430.665 387.113 436.119 387.756Z" fill="#96D5CD"/>
<path d="M265.526 282.858C266.835 287.315 266.513 287.551 264.189 292.038L262.654 290.516C259.433 297.092 251.38 295.605 247.004 290.464C242.336 284.983 246.04 275.292 252.507 274.547C253.565 274.421 254.286 275.545 254.988 275.522C255.192 275.51 255.556 274.269 256.244 274.288C257.755 274.337 264.33 278.19 265.092 279.62C265.559 280.478 265.21 281.816 265.512 282.853L265.526 282.858Z" fill="#94D4CC"/>
<path d="M470.734 235.847C471.505 235.121 475.727 233.922 477.094 234.034C499.511 235.98 484.806 264.37 471.507 251.714C470.359 250.623 467.31 246.013 467.186 244.709C467.052 243.34 469.145 242.095 469.666 240.749C470.25 239.255 469.523 236.988 470.734 235.847Z" fill="#96D5CD"/>
<path d="M216.329 262.171C211.284 264.743 208.2 260.63 203.2 260.255C203.583 257.216 200.114 254.6 200.589 251.852C200.749 250.963 205.234 243.418 205.685 243.068C209.341 240.208 222.118 245.405 222.656 251.312C223.004 255.062 219.642 260.482 216.329 262.171Z" fill="#94D4CC"/>
<path d="M495.861 400.269C495.971 400.843 498.165 400.54 496.515 403.006C490.747 411.576 475.443 407.101 476.554 396.646C478.044 382.626 497.046 384.209 496.91 397.75C496.9 398.749 495.751 399.694 495.871 400.287L495.861 400.269Z" fill="#96D5CD"/>
<path d="M510.747 323.735C511.163 323.544 510.747 321.268 512.26 322.182C512.722 325.475 516.329 331.527 515.402 334.871C515.225 335.524 513.536 334.631 513.357 335.191C513.103 335.989 513.982 337.102 512.71 338.577C511.653 339.814 506.926 341.052 505.317 342.374L505.44 340.393C503.987 339.483 504.526 341.953 503.399 341.763C502.943 341.695 497.025 338.977 496.653 338.596C493.573 335.487 494.56 326.627 497.849 323.419C499.376 321.916 505.416 320.433 507.376 320.765C509.644 321.148 510.262 323.951 510.747 323.735Z" fill="#96D5CD"/>
<path d="M436.985 448.338C436.878 447.949 435.842 447.619 435.902 446.852C436.041 445.446 437.147 441.975 437.846 440.748C438.091 440.317 445.652 436.528 446.621 436.436C450.882 436.082 456.97 440.35 457.608 445.025C459.325 457.738 440.845 461.533 436.985 448.338Z" fill="#96D5CD"/>
<path d="M664.269 381.115C668.24 386.173 664.31 395.653 657.706 396.633C655.828 396.913 648.784 396.519 647.803 395.436C647.529 395.133 644.057 388.414 644.126 388.004C644.878 383.371 650.253 375.647 655.674 376.248C656.879 376.386 663.499 380.145 664.265 381.129L664.269 381.115Z" fill="#96D5CD"/>
<path d="M175.556 218.095C173.093 221.566 174.414 225.21 169.979 227.42C169.097 227.864 163.409 229.213 162.487 229.058C161.444 228.895 154.678 225.691 154.301 225.231C154.055 224.937 153.362 218.255 153.557 217.5C155.735 208.727 166.888 206.051 172.649 213.036C173.759 214.392 173.46 217.026 175.565 218.067L175.556 218.095Z" fill="#96D5CD"/>
<path d="M450.495 166.04C450.999 166.54 450.901 166.848 450.201 166.964L450.495 166.04Z" fill="#10A795"/>
<path d="M592.115 327.271C592.642 327.794 591.07 328.665 589.991 327.597C589.464 327.074 591.037 326.203 592.115 327.271Z" fill="#2AB4A3"/>
<path d="M468.922 120.98C469.426 121.48 469.328 121.788 468.628 121.904L468.922 120.98Z" fill="#2AB4A3"/>
</g>
</g>
<defs>
<clipPath id="clip0_504_11280">
<rect width="669" height="516" fill="white"/>
</clipPath>
<clipPath id="clip1_504_11280">
<rect width="792.388" height="752.221" fill="white" transform="translate(179.905 -93.3347) rotate(17.6726)"/>
</clipPath>
</defs>
</svg>
