<svg width="669" height="516" viewBox="0 0 669 516" fill="none" xmlns="http://www.w3.org/2000/svg">
<g clip-path="url(#clip0_504_7213)">
<rect width="669" height="516" fill="#D9D9D9" fill-opacity="0.6"/>
<g clip-path="url(#clip1_504_7213)">
<path d="M653.72 67.4599C653.74 52.9399 654.66 17.6999 644.23 6.94995C636.58 -0.940054 619.04 9.01995 611.16 13.5599C594.83 22.9799 583.57 34.7299 571.05 47.4599C562.27 56.3799 553.31 65.1999 545.16 75.5799C530.73 93.9799 502.53 142.59 483.35 151.12C469.95 157.08 431.82 157.37 414.56 159.67C316.06 172.79 214.3 205.69 123.05 244.2C107.67 250.69 90.1301 257.9 75.9301 266.42C67.3701 271.55 41.0101 288.67 51.3801 300.54C52.2201 301.5 54.6001 301.67 55.0001 302.17C66.6701 316.57 77.6201 326.03 93.7801 336.06C100.59 340.29 133.07 357.62 139 356.84C138.56 365.53 150.25 364.73 156.33 364.84C155.54 368.36 158.17 367.38 160.21 368.22C222.15 393.69 292.24 402.63 359.01 406.18C363.28 437.59 382.04 476.19 407 496.2C445.9 527.38 438.46 468.97 442.08 447.24C443.91 436.23 452.49 418.98 451.02 410.18C450.86 409.21 451.02 407.39 452.35 407.51C486.34 444.78 533.41 501.86 584.63 514.59C632.5 526.48 587.83 461.21 580.13 444.42C573.97 430.99 569.04 417.92 565.7 403.51C579.97 401.86 594.56 401.09 608.88 399.35C643.52 395.14 679.37 390.76 713.72 384.84C737.15 399.87 784.49 428.89 812.75 423.2C823.51 421.04 822.43 410.42 821.7 401.53C821.14 394.74 815.34 371.34 812.46 365.44C811.16 362.79 810.51 360.95 807.06 360.84C807.26 360.78 808.15 358.76 810.26 358.1C835.84 350.12 862.74 339.65 889.74 340.84C905.57 351.61 934.42 375.28 952.33 378.92C989.84 386.56 952.4 337.45 967.07 320.16C974.99 310.82 1006.71 305.74 1018.05 309.21C1036.79 314.95 1070.81 362.1 1087.73 378.21C1098.97 388.92 1112.9 400.19 1125.77 408.84C1130.3 411.89 1134.31 414.24 1139.1 416.84C1146.24 420.7 1153.48 425.4 1161.7 426.91C1187.22 431.6 1182.56 414.99 1176.43 398.17C1167.19 372.79 1149.35 346.97 1141.72 321.54C1136.92 305.56 1138.95 298.78 1148.46 285.52C1168.5 257.57 1200.88 229.3 1223.79 202.17C1233.61 190.54 1242.45 178.61 1251.11 166.15C1265.49 145.45 1279.67 121.92 1287.16 97.5199C1291.07 84.7699 1291.47 72.1399 1274.43 72.7299C1251.46 73.5199 1193.34 116.19 1172.44 130.14C1154.95 141.81 1137.25 152.94 1120.01 165.05C1089.04 186.81 1054.58 216.7 1023.09 235.48C1013.48 238.68 1004.93 238.37 995.09 236.81C995.15 236.17 995.06 235.77 994.41 235.5C974.59 229.35 947.7 223.99 945.77 198.79C944.71 185.01 957.23 151.16 933.28 152.89C913.97 154.29 882.31 184.79 864.86 195.25C857.23 199.83 851.58 201.44 842.57 200.64C823 198.89 791.39 191.08 771.32 186.56C737.33 178.92 660.55 165.68 654.05 123.81C653 117.07 655.28 109.63 652.4 103.46C652.4 100.79 652.4 98.1199 652.4 95.4599C652.4 95.0199 652.4 94.5699 652.4 94.1299C654.87 86.0699 653.72 76.0199 653.73 67.4599H653.72Z" fill="#FFFCF5"/>
<path d="M571.05 47.45C574.72 52.52 582.59 53.47 588.37 54.8C602.45 58.04 617.27 57.94 631.05 60.79C630.62 63.94 631.25 63.73 634.38 63.44L635.05 62.12C635.64 62.32 636.48 61.87 637.03 62.13C637.66 62.4 637.79 62.82 637.71 63.45C637.68 63.66 636.51 64.11 636.36 64.76L652.22 68.94C652.25 77.32 652.39 85.79 652.38 94.12C652.38 94.56 652.38 95.01 652.38 95.45C649.36 101.66 651.81 110.05 651.06 116.78L652.38 103.45C655.26 109.61 652.99 117.06 654.03 123.8C660.53 165.66 737.31 178.91 771.3 186.55C791.38 191.06 822.98 198.87 842.55 200.63C851.56 201.44 857.21 199.82 864.84 195.24C882.29 184.78 913.95 154.28 933.26 152.88C957.21 151.15 944.7 184.99 945.75 198.78C947.68 223.98 974.57 229.34 994.39 235.49C995.04 235.75 995.13 236.16 995.07 236.8C995.05 237.02 993.93 237.54 993.72 238.11C1004.61 240.17 1013.37 241.26 1023.07 235.47C1054.56 216.69 1089.02 186.8 1119.99 165.04C1137.23 152.93 1154.93 141.8 1172.42 130.13C1183.32 140.26 1194.54 145.16 1209.25 147.3C1219.91 148.85 1240.59 145.18 1241.76 160.8C1240.96 160.42 1239.48 159.13 1239.12 159.46C1238.95 160.98 1238.55 162.81 1237.61 164.01C1224.9 180.2 1212.1 196.94 1198.44 212.82C1178.9 235.54 1152.65 259.41 1135.12 282.84C1128.54 291.63 1125.41 298.8 1126.35 310.21C1127.74 327.08 1141.08 355.69 1146.14 373.11C1153.16 397.28 1148.32 399.97 1125.76 408.82C1112.89 400.16 1098.96 388.89 1087.72 378.19C1070.8 362.07 1036.78 314.93 1018.04 309.19C1006.7 305.72 974.98 310.8 967.06 320.14C952.39 337.44 989.83 386.54 952.32 378.9C934.42 375.26 905.56 351.59 889.73 340.82C887.19 339.09 885.41 336.53 881.78 334.77C870.03 329.07 825.05 328.34 810.34 328.76C782.39 329.57 753.27 333.96 725.07 334.16C659.06 343.36 591.97 338.2 525.71 344.82C525.19 347.19 526.4 347.46 527.91 348.6C537.38 355.79 559.18 357.29 561.62 373.56C563.23 384.26 563.04 391.98 565.7 403.48C569.04 417.89 573.97 430.96 580.13 444.39C587.84 461.18 632.5 526.45 584.63 514.56C533.41 501.83 486.34 444.75 452.35 407.48C439.17 393.02 406.88 352.98 390.27 347.55C376.07 342.91 342.61 340.2 326.17 338.31C272.44 332.14 218.66 329.03 165.17 320.63C138.07 316.38 110.55 303.06 84.8201 300.97C75.7001 300.23 63.7801 300.05 54.9901 302.13C54.5801 301.63 52.2001 301.46 51.3701 300.5C41.0001 288.63 67.3601 271.52 75.9201 266.38C90.1201 257.87 107.67 250.65 123.04 244.16C214.28 205.66 316.04 172.76 414.55 159.63C431.81 157.33 469.95 157.04 483.34 151.08C502.52 142.55 530.71 93.94 545.15 75.54C553.29 65.16 562.26 56.35 571.04 47.42L571.05 47.45ZM207.98 261.11C181.19 266.62 188.08 310.71 218.03 305.82C248.32 300.88 240.97 254.32 207.98 261.11ZM396.01 269.04C385.98 270.49 395.07 288.63 395.15 296.15C395.21 301.83 393.06 313.48 391.09 318.86C389.55 323.07 379.08 335.81 389.09 336.84C398.98 337.86 405.97 316.99 406.93 309.36C407.81 302.32 406.58 274.27 400.91 270.24C399.47 269.21 397.79 268.77 396.01 269.03V269.04ZM359.37 335.15C365.71 341.61 374.13 325.74 375.69 320.8C379.47 308.82 377.54 290.61 373.89 278.61C370.18 266.41 358.64 265.72 360.68 279.82C362.33 291.19 365.7 297.53 364.43 310.88C363.78 317.71 354.98 330.68 359.36 335.15H359.37ZM423.99 271.7C417.72 273.56 423.85 286.85 424.19 292.31C424.6 298.84 423.25 308.11 421.27 314.38C419.55 319.81 406.78 336.95 419.7 336.94C425.75 336.94 433.21 321.26 434.64 315.75C436.91 307.03 440.3 266.86 423.99 271.7Z" fill="#3DB6A5"/>
<path d="M452.37 407.48C451.04 407.36 450.87 409.17 451.04 410.15C444.2 408.45 437.23 409.33 430.32 408.87C428.59 408.76 426.83 407.49 426.37 407.49H377.03C372.7 407.49 364.41 406.44 359.03 406.16C292.26 402.61 222.17 393.67 160.23 368.2C158.19 367.36 155.56 368.34 156.35 364.82C161.39 364.91 167.02 363.49 170.35 363.49H203.69C206.85 363.49 209.11 354.36 203.02 352.82C201.64 350.61 197.96 351.49 195.71 351.46C186.99 351.37 176.59 350.46 168.36 352.82C162.5 352.95 152.6 352.33 147.82 352.92C143.92 353.4 140.43 356.63 139.02 356.82C133.08 357.6 100.6 340.26 93.8 336.04C77.64 326.01 66.69 316.55 55.02 302.15C63.82 300.07 75.73 300.25 84.85 300.99C110.58 303.08 138.1 316.4 165.2 320.65C218.7 329.05 272.48 332.16 326.2 338.33C342.64 340.22 376.1 342.93 390.3 347.57C406.91 353 439.2 393.05 452.38 407.5L452.37 407.48Z" fill="#BCE3DA"/>
<path d="M889.74 340.81C862.74 339.62 835.85 350.09 810.26 358.07C808.15 358.73 807.26 360.75 807.06 360.81C776.63 370.26 745.16 379.4 713.72 384.81C679.37 390.73 643.53 395.1 608.88 399.32C594.57 401.06 579.98 401.83 565.7 403.48C563.03 391.98 563.22 384.27 561.62 373.56C559.18 357.29 537.38 355.79 527.91 348.6C526.4 347.45 525.19 347.18 525.71 344.82C591.97 338.2 659.05 343.35 725.07 334.16C753.27 333.96 782.39 329.57 810.34 328.76C825.06 328.33 870.03 329.07 881.78 334.77C885.42 336.53 887.2 339.09 889.73 340.82L889.74 340.81Z" fill="#BCE3DA"/>
<path d="M451.04 410.15C452.5 418.96 443.93 436.2 442.1 447.21C438.48 468.94 445.92 527.35 407.02 496.17C382.06 476.16 363.3 437.56 359.03 406.15C364.41 406.44 372.7 407.48 377.03 407.48H426.37C426.83 407.48 428.6 408.75 430.32 408.86C437.23 409.32 444.2 408.44 451.04 410.14V410.15Z" fill="#3DB6A5"/>
<path d="M653.72 67.4601L637.72 63.4601C637.8 62.8201 637.67 62.4101 637.04 62.1401C636.49 61.8801 635.64 62.3301 635.06 62.1301C633.91 61.7301 632.04 61.0001 631.06 60.8001C617.27 57.9501 602.46 58.0501 588.38 54.8101C582.6 53.4801 574.73 52.5301 571.06 47.4601C583.58 34.7401 594.84 22.9801 611.17 13.5601C619.05 9.01006 636.59 -0.939943 644.24 6.95006C654.67 17.7001 653.75 52.9401 653.73 67.4601H653.72Z" fill="#C3E6E1"/>
<path d="M168.35 352.81C175.79 352.64 197.4 351.39 203.02 352.81C209.1 354.35 206.85 363.48 203.69 363.48H170.35C167.02 363.48 161.39 364.91 156.35 364.81C150.26 364.7 138.58 365.5 139.02 356.81C140.43 356.63 143.92 353.4 147.82 352.91C152.59 352.32 162.5 352.94 168.36 352.81H168.35Z" fill="#3DB6A5"/>
<path d="M653.72 67.46C653.71 76.02 654.86 86.07 652.39 94.13C652.39 85.8 652.26 77.32 652.23 68.95L636.37 64.77C636.52 64.13 637.7 63.67 637.72 63.46L653.72 67.46Z" fill="#229D8F"/>
<path d="M652.39 103.46L651.07 116.79C651.82 110.06 649.37 101.67 652.39 95.46C652.39 98.13 652.39 100.79 652.39 103.46Z" fill="#229D8F"/>
<path d="M207.98 261.11C240.97 254.32 248.33 300.88 218.03 305.82C188.08 310.7 181.18 266.62 207.98 261.11ZM213.37 269.12C194.41 270.13 195.93 300.11 216.94 296.73C233.13 294.13 231.1 268.17 213.37 269.12Z" fill="#FFFCF5"/>
<path d="M396.01 269.04C397.79 268.78 399.46 269.22 400.91 270.25C406.57 274.28 407.81 302.33 406.93 309.37C405.97 317 398.99 337.87 389.09 336.85C379.08 335.82 389.55 323.08 391.09 318.87C393.06 313.49 395.21 301.84 395.15 296.16C395.07 288.64 385.98 270.5 396.01 269.05V269.04Z" fill="#229D8F"/>
<path d="M359.37 335.15C354.99 330.68 363.78 317.71 364.44 310.88C365.72 297.53 362.34 291.19 360.69 279.82C358.64 265.72 370.19 266.41 373.9 278.61C377.55 290.61 379.47 308.82 375.7 320.8C374.14 325.73 365.72 341.61 359.38 335.15H359.37Z" fill="#229D8F"/>
<path d="M423.99 271.7C440.3 266.86 436.91 307.03 434.64 315.75C433.21 321.26 425.74 336.94 419.7 336.94C406.77 336.94 419.54 319.81 421.27 314.38C423.26 308.12 424.6 298.84 424.19 292.31C423.85 286.84 417.72 273.56 423.99 271.7Z" fill="#229D8F"/>
<path d="M635.05 62.12L634.38 63.44C631.25 63.73 630.62 63.94 631.05 60.79C632.03 60.99 633.9 61.72 635.05 62.12Z" fill="#229D8F"/>
<path d="M203.02 352.81C197.4 351.39 175.79 352.64 168.35 352.81C176.58 350.45 186.98 351.36 195.7 351.45C197.95 351.47 201.63 350.6 203.01 352.81H203.02Z" fill="#C3E6E1"/>
<path d="M213.37 269.12C231.1 268.18 233.13 294.13 216.94 296.73C195.93 300.1 194.41 270.13 213.37 269.12Z" fill="#127576"/>
</g>
</g>
<defs>
<clipPath id="clip0_504_7213">
<rect width="669" height="516" fill="white"/>
</clipPath>
<clipPath id="clip1_504_7213">
<rect width="1240.38" height="512" fill="white" transform="translate(49 4)"/>
</clipPath>
</defs>
</svg>
