<svg width="669" height="516" viewBox="0 0 669 516" fill="none" xmlns="http://www.w3.org/2000/svg">
<g clip-path="url(#clip0_504_7317)">
<rect width="669" height="516" fill="#D9D9D9" fill-opacity="0.6"/>
<g clip-path="url(#clip1_504_7317)">
<path d="M543.32 88.7C544.11 92.75 541.35 91.06 538.89 91.56C531.89 92.98 526.94 93.26 520.57 94.05C520.13 94.11 519.67 93.99 519.23 94.05L424.19 116.81C409.98 121.52 394.83 126.38 381.35 132.87C362.01 142.19 337.03 158.09 319.07 170.31C305.85 179.31 293.74 190.05 280.3 198.47C278.14 194.5 284.92 189.66 287.63 187.06C303.4 171.93 351.76 140.49 372.06 133.6C374.8 132.67 377.18 132.62 380.01 132.86C374.69 128.77 367.29 127.44 361.27 124.83C360.79 126.75 354.06 124.32 353.24 123.93C333.19 114.36 315.33 102.54 294.02 95.29C292.89 94.91 292.99 92.7 292.16 92.63C290.67 92.51 288.31 94.21 287.81 93.88C287.48 93.66 287.28 91.51 286.29 90.79C277.8 84.61 246.17 78.52 234.75 76.6C232.28 76.19 229.33 78.31 230.08 73.97C229.2 73.9 228.29 74.02 227.4 73.97C218.77 76.21 206.58 76.21 197.95 73.97C133.63 77.5 85.3103 105.84 58.7303 165C61.0703 169.49 55.5204 175.52 54.0704 179.75C51.2804 187.9 50.6104 197.45 46.6804 205.16C46.6304 205.6 46.7304 206.06 46.6804 206.5C45.7904 214.74 46.5604 223.87 44.0004 231.93C43.9804 232.38 44.0104 232.82 44.0004 233.27L45.3104 233.94L44.0004 234.61C43.9904 235.06 44.0004 235.5 44.0004 235.95L49.3503 296.19C68.0003 379.93 121.9 429.28 203.29 451.47L218.73 451.71C219.04 456.63 228.57 451.5 224.71 456.83C233.9 458.58 243.5 459.98 252.82 460.85C263.18 457.71 275.18 460.61 285.93 459.11C288.13 458.8 289.98 456.41 292.21 456.72C293.32 456.87 293.29 459.52 294.28 460.16C295.73 461.1 311.39 461.44 313.54 460.86C314.84 460.51 314.04 457.75 315.06 458.17C316.15 458.62 320.59 461.41 319.76 463.53C320.65 463.58 321.55 463.48 322.44 463.53C333.29 460.51 346.63 464.14 357.87 464.94C361.98 465.23 364.67 463.81 367.38 463.69C367.9 463.67 367.07 466.9 372.65 466.32C378.02 465.77 375.8 463.36 378.65 462.2C379.32 468.72 383.15 464.74 385.82 465.29C387.63 465.66 390.82 469.25 393.21 467.25C393.95 466.63 392.76 461.65 395.61 467.62C407.13 465.77 421.85 469.05 432.99 467.67C435.54 467.35 434.81 464.98 435.48 465.02C448.34 465.9 463.83 464.33 476.78 461.91C479.63 461.38 486.29 455.2 489.79 460.85C518.8 455.32 540.35 450.28 567.43 438.09C566.74 434.62 569.04 435.3 571.14 434.51C623.16 414.88 652.23 369.1 641.9 313.39C641.54 311.44 639.87 308.17 642.39 306.9C624.75 238.03 566.96 179.1 496.48 166.34C494.26 168.78 489.54 167.76 486.61 167.5C484.87 167.35 476.57 167.2 477.74 163.66C469.8 162.84 462.31 161.98 454.23 162.24C450.17 162.37 447.43 165.44 448.3 161.01C474.8 142.56 498.63 129.51 529.95 120.83C529.3 117.54 531.41 117.88 533.66 117.24C541.74 114.95 557.96 113.84 564.44 110.45C566.84 109.19 566.75 106.82 569.4 105.84C572.9 104.55 574.25 107.56 578.41 107.21C591.57 106.12 617.81 95.08 631.36 90.37C632.87 89.84 636.18 87.67 637.05 90.04C682.16 70.92 733.63 33.81 729.37 -21.72C728.62 -31.59 720.15 -57.81 716.33 -34.8C713.78 -19.47 717.37 -11.88 710.47 4.84998C686.3 63.43 598.53 79.45 543.33 88.7H543.32ZM156.91 110.57C169.22 97.76 188.01 111.25 179.49 128.47C170.65 146.34 141.94 126.14 156.91 110.57ZM245.12 113.04C259.71 114.81 259.01 134.72 243.52 137.66C221.94 141.76 222.11 110.24 245.12 113.04ZM304.03 127.77C317.68 130.12 320.7 154.85 299.03 152.96C278.8 151.19 285.21 124.53 304.03 127.77ZM130.07 149.22C141.84 152.64 141.74 182.92 117.55 177.79C96.0404 173.23 107.05 142.53 130.07 149.22ZM227.77 157.28C244.38 160.65 241.24 190.55 220.25 189.97C197.95 189.36 202.72 152.2 227.77 157.28ZM400.45 161.31C416.84 164.3 413.03 187.51 396.42 190.13C369.93 194.31 369.89 155.73 400.45 161.31ZM478.12 193.4C497.71 197.88 486.73 231.77 463.88 218.35C446.89 208.37 460.63 189.4 478.12 193.4ZM171.57 197.41C178.17 198.9 182.55 206.83 181.35 213.23C177.73 232.49 144.75 237.74 141.79 216.43C139.67 201.16 158.92 194.55 171.57 197.41ZM345.59 202.77C359.8 206 359.55 232.01 340.15 234.35C313.93 237.51 314.73 195.75 345.59 202.77ZM76.5504 240.88C70.0104 234.48 73.2704 221.67 81.0004 217.39C97.2504 208.39 107.14 217.34 103.93 234.96C101.6 247.76 84.1904 248.36 76.5504 240.88ZM547.68 220.22C551.55 221.22 556.39 226.7 557.41 230.55C563.95 255.41 527.82 261.98 525.11 237.3C523.76 224.96 536.64 217.36 547.68 220.21V220.22ZM250.52 221.52C265.57 224.57 266.15 245.48 249.92 249.75C218.95 257.9 224.13 216.17 250.52 221.52ZM419.19 225.55C439.78 229.25 440.47 258.63 415.44 260.06C385.76 261.76 390.14 220.34 419.19 225.55ZM484.7 254.98C509.16 257.55 503.73 294.34 479.9 292.11C455.45 289.82 458.83 252.26 484.7 254.98ZM164.49 277.45C172.75 271.51 183.56 265.4 193.93 265.41C197.58 268.58 177.84 275.15 176.12 276.09C174.9 276.76 175.32 278.71 175.2 278.79C179.63 287.13 181.91 298.7 175.79 306.82C172.94 310.61 171.16 309.98 168.51 314.93C166.88 317.98 169.13 317.25 164.49 318.95C164.26 319.03 164.18 320.09 163.8 320.09C163.42 320.09 163.39 319.08 163.15 318.95C162.67 318.69 162.25 318.02 161.81 317.61C160.01 317.02 157.4 317.32 156.48 315.25C153.6 308.81 152.48 295.32 154.9 288.66C155.56 286.85 157.05 286.87 157.69 285.77C158.56 284.27 158.31 281.36 159.42 280.36C160.09 279.76 161.58 280.33 161.81 280.13C162.32 279.71 162.73 279.09 163.15 278.79C163.63 278.45 163.99 277.81 164.49 277.45ZM302.75 267.01C318.09 270.43 313.44 296.98 292.97 291.54C276.02 287.04 282.93 262.59 302.75 267.01ZM368.27 276.46C386.43 277.11 398.66 299.01 382.59 310.15C357.37 327.64 330.54 288.98 359.96 278.16C362.6 277.19 365.42 276.36 368.27 276.46ZM113.88 277.75C144.62 279.31 125.61 319.38 100.81 309.67C82.2704 302.41 92.6804 276.68 113.88 277.75ZM581.15 284.46C599.14 287.33 606.66 316.16 587.12 321.92C553.02 331.96 551.14 279.67 581.15 284.46ZM443.26 308.51C459.96 311.67 460.95 336.39 442.14 338.9C412.34 342.88 418.39 303.8 443.26 308.51ZM298.35 324.3C302.45 333.05 298.7 348.37 290.32 353.75C266.4 369.11 247.66 332.48 267.52 315.55C279.29 305.52 292.5 311.81 298.35 324.3ZM522.27 321.94C546.16 326.88 535.51 368.41 507.58 356.69C486.02 347.65 497.49 316.81 522.27 321.94ZM150.64 347.52C154.26 351.32 154.52 357.39 153.7 362.38C151.69 374.62 134.29 376.22 127.74 365.73C118.25 350.52 138.73 335.03 150.64 347.52ZM215.68 355.37C231.77 357.99 230.73 383.46 215.94 385.8C192.03 389.59 192 351.51 215.68 355.37ZM352.8 381.44C340.1 396.47 313.14 379.18 325.85 363.18C339.59 345.89 366.73 364.94 352.8 381.44ZM581.16 363.43C591.51 365.53 595.82 379.2 590.18 387.9C579.55 404.31 556.77 392.68 562.66 373.76C564.83 366.8 573.93 361.96 581.16 363.43ZM391.17 374.28C410.69 354.24 441.31 385.08 417.94 400.38C396.84 414.19 377.23 388.58 391.17 374.28ZM492.81 388.88C512.66 392.55 508.27 424.05 485.09 423.47C458.58 422.8 463.39 383.44 492.81 388.88ZM261.83 418.95C260.53 420.02 259.08 420.32 257.46 420.55C231 424.4 238.61 383.3 259.54 393.24C269.56 398 269.62 412.54 261.83 418.95ZM329.42 407.57C354.94 409.81 342.65 443.88 322.59 434.58C305.3 426.57 313.63 406.18 329.42 407.57Z" fill="#3DBDA7"/>
<path d="M380.01 132.87C377.18 132.63 374.8 132.68 372.06 133.61C351.75 140.5 303.4 171.93 287.63 187.07C284.92 189.67 278.14 194.51 280.3 198.48C293.74 190.06 305.85 179.32 319.07 170.32C337.03 158.1 362.01 142.2 381.35 132.88H380.01V132.87Z" fill="#C0E4DD"/>
<path d="M424.18 116.81L519.22 94.05C487.04 98.18 455.04 106.58 424.18 116.81Z" fill="#0EA591"/>
<path d="M642.38 306.9C639.86 308.16 641.53 311.43 641.89 313.39C652.22 369.09 623.15 414.88 571.13 434.51C569.02 435.3 566.72 434.62 567.42 438.09C623.29 412.93 659.06 372.01 642.38 306.9Z" fill="#0EA591"/>
<path d="M230.08 73.97C229.32 78.31 232.28 76.19 234.75 76.6C246.17 78.52 277.8 84.61 286.29 90.79C287.28 91.51 287.49 93.66 287.81 93.88C288.31 94.21 290.66 92.51 292.16 92.63C292.99 92.7 292.89 94.9 294.02 95.29C315.34 102.54 333.2 114.36 353.24 123.93C354.06 124.32 360.79 126.76 361.27 124.83C318.25 106.19 278.71 77.57 230.08 73.96V73.97Z" fill="#0EA591"/>
<path d="M520.57 94.05C526.94 93.25 531.89 92.98 538.89 91.56C541.35 91.06 544.11 92.75 543.32 88.7C535.92 89.94 527.07 90.39 520.56 94.05H520.57Z" fill="#0EA591"/>
<path d="M477.73 163.66C476.55 167.2 484.86 167.35 486.6 167.5C489.53 167.76 494.25 168.78 496.47 166.34C490.62 165.28 483.64 164.27 477.73 163.66Z" fill="#0EA591"/>
<path d="M197.95 73.97C206.58 76.21 218.77 76.21 227.4 73.97C218.42 73.45 206.94 73.48 197.95 73.97Z" fill="#0EA591"/>
<path d="M368.27 276.46C365.41 276.36 362.6 277.19 359.96 278.16C330.54 288.98 357.37 327.64 382.59 310.15C398.66 299.01 386.43 277.11 368.27 276.46Z" fill="#85D1D8"/>
<path d="M581.15 284.46C551.15 279.67 553.03 331.96 587.12 321.92C606.66 316.17 599.14 287.33 581.15 284.46Z" fill="#85D1D8"/>
<path d="M522.27 321.94C497.49 316.82 486.02 347.65 507.58 356.69C535.51 368.4 546.15 326.88 522.27 321.94Z" fill="#85D1D8"/>
<path d="M391.17 374.28C377.24 388.58 396.85 414.2 417.94 400.38C441.31 385.08 410.69 354.24 391.17 374.28Z" fill="#85D1D8"/>
<path d="M484.7 254.98C458.82 252.26 455.45 289.82 479.9 292.11C503.73 294.34 509.17 257.55 484.7 254.98Z" fill="#85D1D8"/>
<path d="M419.19 225.55C390.13 220.33 385.76 261.76 415.44 260.06C440.47 258.63 439.78 229.25 419.19 225.55Z" fill="#85D1D8"/>
<path d="M492.81 388.88C463.4 383.44 458.58 422.79 485.09 423.47C508.27 424.06 512.66 392.56 492.81 388.88Z" fill="#85D1D8"/>
<path d="M171.57 197.41C158.93 194.55 139.67 201.16 141.79 216.43C144.75 237.74 177.73 232.49 181.35 213.23C182.55 206.83 178.17 198.91 171.57 197.41Z" fill="#85D1D8"/>
<path d="M113.88 277.75C92.68 276.68 82.27 302.41 100.81 309.67C125.61 319.38 144.62 279.31 113.88 277.75Z" fill="#85D1D8"/>
<path d="M290.32 353.75C297.92 345.38 299.27 335.34 298.35 324.3C292.5 311.81 279.28 305.52 267.52 315.55C247.66 332.48 266.4 369.11 290.32 353.75ZM284.02 319.23C294.57 322.38 293.55 349.82 279.07 348.38C261.41 346.62 264.53 313.42 284.02 319.23Z" fill="#FEFDF4"/>
<path d="M345.59 202.77C314.73 195.75 313.93 237.5 340.15 234.35C359.55 232.02 359.79 206.01 345.59 202.77Z" fill="#85D1D8"/>
<path d="M547.68 220.22C536.64 217.37 523.76 224.97 525.11 237.31C527.82 261.98 563.95 255.42 557.41 230.56C556.4 226.71 551.55 221.23 547.68 220.23V220.22Z" fill="#85D1D8"/>
<path d="M227.77 157.28C202.72 152.2 197.95 189.36 220.25 189.97C241.24 190.55 244.37 160.65 227.77 157.28Z" fill="#85D1D8"/>
<path d="M443.26 308.51C418.39 303.8 412.35 342.88 442.14 338.9C460.95 336.39 459.95 311.67 443.26 308.51Z" fill="#85D1D8"/>
<path d="M400.45 161.31C369.88 155.73 369.92 194.3 396.42 190.13C413.04 187.51 416.84 164.31 400.45 161.31Z" fill="#85D1D8"/>
<path d="M352.8 381.44C366.73 364.94 339.59 345.9 325.85 363.18C313.14 379.17 340.1 396.47 352.8 381.44Z" fill="#85D1D8"/>
<path d="M76.5503 240.88C84.1803 248.36 101.59 247.77 103.93 234.96C107.14 217.34 97.2603 208.38 81.0003 217.39C73.2703 221.67 70.0103 234.48 76.5503 240.88Z" fill="#85D1D8"/>
<path d="M581.16 363.43C573.93 361.96 564.83 366.79 562.66 373.76C556.77 392.68 579.55 404.31 590.18 387.9C595.81 379.2 591.51 365.54 581.16 363.43Z" fill="#85D1D8"/>
<path d="M250.52 221.52C224.13 216.18 218.95 257.91 249.92 249.75C266.15 245.48 265.57 224.56 250.52 221.52Z" fill="#85D1D8"/>
<path d="M130.07 149.22C107.05 142.53 96.0399 173.23 117.55 177.79C141.74 182.92 141.84 152.64 130.07 149.22Z" fill="#85D1D8"/>
<path d="M215.68 355.37C192 351.52 192.03 389.6 215.94 385.8C230.73 383.45 231.77 357.99 215.68 355.37Z" fill="#85D1D8"/>
<path d="M478.12 193.4C460.63 189.4 446.89 208.37 463.88 218.35C486.73 231.77 497.71 197.88 478.12 193.4Z" fill="#85D1D8"/>
<path d="M329.42 407.57C313.63 406.18 305.3 426.57 322.59 434.58C342.65 443.88 354.94 409.81 329.42 407.57Z" fill="#85D1D8"/>
<path d="M150.64 347.52C138.73 335.03 118.25 350.53 127.74 365.73C134.28 376.22 151.69 374.61 153.7 362.38C154.52 357.39 154.27 351.32 150.64 347.52Z" fill="#85D1D8"/>
<path d="M156.91 110.57C141.94 126.15 170.65 146.34 179.49 128.47C188.01 111.25 169.22 97.75 156.91 110.57Z" fill="#85D1D8"/>
<path d="M261.83 418.95C269.61 412.54 269.55 397.99 259.54 393.24C238.61 383.31 231.01 424.4 257.46 420.55C259.08 420.31 260.53 420.02 261.83 418.95Z" fill="#85D1D8"/>
<path d="M302.75 267.01C282.92 262.59 276.02 287.05 292.97 291.54C313.44 296.97 318.09 270.42 302.75 267.01Z" fill="#85D1D8"/>
<path d="M304.03 127.77C285.21 124.53 278.8 151.19 299.03 152.96C320.7 154.85 317.68 130.12 304.03 127.77Z" fill="#85D1D8"/>
<path d="M245.12 113.04C222.11 110.25 221.94 141.76 243.52 137.66C259.01 134.72 259.71 114.81 245.12 113.04Z" fill="#85D1D8"/>
<path d="M168.5 314.93C171.15 309.98 172.93 310.61 175.78 306.82C181.89 298.7 179.62 287.13 175.19 278.79C173.09 280.19 169.71 279.21 166.02 283.68C158.59 292.65 158.59 307.73 168.5 314.94V314.93Z" fill="#0EA591"/>
<path d="M164.49 277.45L163.15 278.79C162.74 279.09 162.32 279.71 161.81 280.13C154.78 290.84 151.3 307.84 161.81 317.61C162.25 318.02 162.67 318.69 163.15 318.95H164.49C169.12 317.26 166.87 317.99 168.51 314.93C158.6 307.72 158.61 292.64 166.03 283.67C169.73 279.21 173.1 280.18 175.2 278.78C175.32 278.7 174.9 276.75 176.12 276.08C177.84 275.14 197.59 268.57 193.93 265.4C183.55 265.4 172.75 271.5 164.49 277.44V277.45Z" fill="#FEFDF4"/>
<path d="M161.81 280.12C161.58 280.31 160.09 279.75 159.42 280.35C158.3 281.35 158.56 284.26 157.69 285.76C157.05 286.86 155.56 286.84 154.9 288.65C152.48 295.31 153.6 308.8 156.48 315.24C157.41 317.31 160.01 317.01 161.81 317.6C151.3 307.83 154.78 290.83 161.81 280.12Z" fill="#0EA591"/>
<path d="M290.32 353.75C298.7 348.37 302.45 333.05 298.35 324.3C299.27 335.34 297.91 345.38 290.32 353.75Z" fill="#0EA591"/>
<path d="M164.49 318.95H163.15C163.39 319.08 163.42 320.09 163.8 320.09C164.18 320.09 164.26 319.03 164.49 318.95Z" fill="#0EA591"/>
<path d="M163.15 278.79L164.49 277.45C163.99 277.81 163.63 278.45 163.15 278.79Z" fill="#0EA591"/>
<path d="M284.02 319.23C264.53 313.42 261.41 346.62 279.07 348.38C293.55 349.82 294.57 322.38 284.02 319.23Z" fill="#0EA591"/>
</g>
</g>
<defs>
<clipPath id="clip0_504_7317">
<rect width="669" height="516" fill="white"/>
</clipPath>
<clipPath id="clip1_504_7317">
<rect width="685.62" height="512" fill="white" transform="matrix(-1 0 0 1 729.62 -44)"/>
</clipPath>
</defs>
</svg>
