<svg width="669" height="516" viewBox="0 0 669 516" fill="none" xmlns="http://www.w3.org/2000/svg">
<g clip-path="url(#clip0_504_8087)">
<rect width="669" height="516" fill="#D9D9D9" fill-opacity="0.6"/>
<g clip-path="url(#clip1_504_8087)">
<path d="M705.08 414.87C720.7 414.27 740.45 397.55 750.17 386.15C757.2 377.91 761.56 367.3 770 360.4C793.31 341.31 839.42 350.5 833.78 303.51C831.47 284.3 811.9 280.61 800.19 270.71C789.33 261.54 783.87 247.2 771.16 239.29C750.77 226.59 731.11 224.72 707.51 225.57C704.73 225.67 698.02 227.69 696.12 227.02C693.49 226.1 680.34 215.8 676.26 213.31C579.79 154.25 484.37 122.06 371.53 108.83C316.2 102.34 242.2 97.4801 189.58 115.87C187.42 116.63 180.81 120.46 179.61 120.39C176.29 120.21 161.13 112.62 155.17 111.17C126.61 104.23 104.66 114.67 86.29 136.43C73.32 151.8 73.15 163.62 67.91 181.47C59.12 211.43 37.4601 233.61 23.5601 260.97C2.76006 301.9 2.26003 351.21 -24.34 389.43C-37.68 408.61 -51.58 417.77 -52.95 444.05C-53.43 453.33 -50.34 483.35 -35.78 479.05C-29.74 477.27 -32.7499 461.49 -31.6599 455.43C-27.7299 433.59 -3.27996 419.98 12.98 407.92C14.78 420.62 16.3 433.19 19.42 445.57C23.78 462.89 31.3901 479.72 35.2701 497.09C37.5801 507.44 36.0201 519.46 36.2801 530.26L39.23 534.74C39.98 534.14 43.6 533.29 45.67 531.76C50.58 528.12 57.0401 517.58 59.5301 511.94C71.1901 485.55 60.5701 461.73 59.0101 435.21C56.0201 384.55 76.7901 366.8 94.9001 324.37C96.6601 320.24 102.8 300.22 104.11 298.9C105.58 297.42 107.77 297.97 109.59 297.93C107.74 318.7 96.8601 337.88 92.7501 358.38C87.0501 386.8 84.1001 428.35 90.2401 456.51C92.5501 467.1 101.79 487.97 101.67 497.1C105.36 501.5 108.56 508.81 110.77 514.26C115.35 525.61 117.55 533.48 118.52 545.65C118.54 545.84 119.51 546.74 119.55 548.04C119.72 553.4 116.26 576.8 117.02 578.34C119.44 583.23 127.5 577.44 130.06 575.02C148.29 557.83 149.59 528.92 145.99 505.79C144.34 495.18 138.56 481.02 138.34 471.33C136.54 468.95 135.82 464.71 135.49 461.8C132.45 435.08 138.74 412.49 147.24 387.59C152.12 373.28 159.9 347.73 166.21 335.22C168.22 331.23 172.31 327.44 173.08 334.07C174.55 346.7 155.17 385.99 150.73 400.99C147.27 412.69 147.43 422.44 145.28 433.69C153.38 462.04 171.97 485.11 186.07 510.31C198.15 531.9 206.02 551.02 196.56 575.64C193.58 583.39 179.13 601.05 196.26 602.19C215.77 603.49 231.38 578.84 237.18 562.76C259.11 501.98 193.96 468.19 207.98 414.66C210.92 403.44 220.92 389.47 228.53 380.71C229.8 379.24 236.99 371.69 237.93 371.28C239.71 370.51 239.22 371.99 239.43 372.71C240.21 375.31 239.89 378.24 241.33 380.73C245.48 387.88 256.88 395.15 262.18 401.99C261.79 398.91 263.08 400.09 264.96 400.69C272.01 402.93 275.24 406.25 283.49 406.93C303.89 408.61 327.65 400.51 346.91 409.89C358.18 415.38 366.53 425.52 378.73 430.58C415.73 445.92 441.57 421.27 475.73 422.75C506.24 424.08 528.62 443.34 561.64 436.41C584.54 431.6 603.06 413.84 624.43 411.02C650.76 407.54 678.59 415.88 705.06 414.86L705.08 414.87ZM362.52 121.8C365.23 122.07 372.61 127.16 373.61 129.53C379.21 142.67 353.74 141.68 348.93 134.41C343.38 126.04 355.98 121.15 362.52 121.8ZM271.32 123.73C276.66 124.33 290.84 128.6 296.12 130.73C316.61 138.99 318.28 159.48 293.39 157.23C283.29 156.32 258.74 145.83 259.12 133.99C259.28 128.81 266.3 123.16 271.32 123.72V123.73ZM197 126.81C221.07 129.52 246.97 146.09 258.38 167.49C279.4 206.9 257.32 239.76 251.55 278.9C248.16 301.88 246.22 327.18 262.21 345.98C287.81 376.08 328.57 356.98 361.47 362.65C380.92 366 394.96 380.27 414.28 382.17C435.54 384.26 457.04 372.01 479.71 373.21C496.23 374.09 513.3 382.36 530.21 382.25C556.78 382.09 570.92 366.19 594.32 359.1C617.88 351.96 633.17 357.8 655.99 358.43C693.15 359.46 695.98 337.76 724.36 327.63C736.72 323.22 749.96 323.99 758.58 312.31C761.07 308.94 763.67 302.96 763.33 298.72C761.69 278.19 732.26 259.88 717.86 247.92C717.01 239.77 722.11 242.44 726.78 245.01C752.78 259.29 794.57 302.78 755.52 327.08C743.99 334.25 730.19 334.38 717.93 341.02C706.73 347.08 697.88 357.38 685.77 362.36C658.56 373.55 637.93 363.2 610.41 365.27C583.87 367.27 567.82 385.89 542.63 390.63C518.67 395.13 500.15 384.21 477.73 383.1C468.78 382.66 459.68 384.53 451.06 385.42C447.06 385.83 438.93 390.02 432.98 390.95C394.03 397.05 379.6 370.22 344.92 370.17C317.93 370.13 292.27 379.06 267.41 362.56C220.06 331.13 248.31 268.17 256.92 224.79C270.37 157 210.72 117.58 150.31 142.95L112.6 166.73C109.52 168.36 107.31 164.38 107.59 161.72C107.83 159.43 116.87 153.42 119.38 151.65C139.58 137.42 171.82 123.95 197.02 126.79L197 126.81ZM450.63 137.73C459.78 138.58 472.71 142.2 479.64 148.35C488.39 156.11 487.65 167.33 476.01 171.43C459.5 177.25 418.82 168.92 418.8 146.71C418.79 134.54 442.48 136.97 450.63 137.73ZM197.99 165.45C247.09 171.06 240.77 246.72 184.35 243.49C147.18 241.36 130.7 199.3 160.63 175.11C171.68 166.18 183.98 163.85 197.99 165.45ZM376.34 166.45C387.85 167.92 403.69 178.87 407.06 190.23C412.12 207.3 397.86 215.28 382.67 213.63C368.26 212.06 346.84 198.21 346.78 182.36C346.72 165.62 363.43 164.81 376.34 166.46V166.45ZM543.83 175.32C557.3 177.13 586.65 192.83 577.67 209.68C569.54 224.94 530.11 208.92 524.55 195.59C518.31 180.63 530.05 173.47 543.83 175.32ZM624.06 206.99C630.74 207.9 640.05 214.62 639.76 222.13C639.22 236.05 611.48 228.74 610.99 216.11C610.76 210.12 618.82 206.28 624.06 206.99ZM310 211.99C319.97 213.69 337.45 229.16 336.44 239.87C335.34 251.58 322.02 251.97 312.89 249.72C307.09 248.29 297.85 240.27 294.84 235.07C287.93 223.11 295.61 209.55 309.99 212L310 211.99ZM470.45 216C488.04 217.89 524.11 234.6 519.56 256.6C517.7 265.61 503.47 269.79 495.5 270.18C485.56 270.67 469.06 265.56 460.13 260.99C428.51 244.79 430.99 211.75 470.45 215.99V216ZM668.63 248.67C683.18 250.01 710.53 264.49 711.97 280.72C712.3 284.46 710.75 290.2 706.54 290.98C692.2 293.65 669.94 283.4 660.1 273.07C650.14 262.61 651.28 247.07 668.63 248.67ZM17.4301 405.95C11.4901 407.9 11.39 397.78 11.42 393.55C11.61 363.07 30.3601 317.38 43.0301 289.35C46.2001 282.34 50.4701 271.37 54.6901 265.34C56.2901 263.05 59.61 262.96 60.1 264.92C61.7 271.28 45.1101 303.58 41.7501 311.85C33.1601 332.96 25.83 353.5 21.72 376.04C19.91 385.94 19.3901 396.08 17.4401 405.95H17.4301ZM588.4 264.52C614.76 268.38 638.59 314.69 598.53 311.85C590.47 311.28 579.61 307.47 573.29 302.42C550.97 284.55 558.34 260.12 588.4 264.52ZM361.59 271.53C376.13 256.52 407.42 274.26 413.55 290.74C419.06 305.55 413.06 317.11 396.54 316.67C385.49 316.37 363.05 301.06 359.22 290.57C357.09 284.74 356.99 276.28 361.59 271.53ZM302.03 304.18C305.21 304.53 309.08 305.51 311.66 307.42C313.28 308.63 320.31 316.42 320.86 318.03C326.64 334.9 309.7 338.22 297.64 332.33C279.66 323.55 277.43 301.42 302.03 304.17V304.18ZM494.27 311.04C500.66 312.19 509.45 316.83 511.91 323.16C521.25 347.2 479.77 349.46 471.04 331.33C465.78 320.39 474.01 314.2 483.91 312.11C486.85 311.49 491.38 310.52 494.26 311.04H494.27Z" fill="#43BEAE"/>
<path d="M705.08 414.87C678.61 415.88 650.78 407.55 624.45 411.03C603.08 413.85 584.56 431.61 561.66 436.42C528.63 443.35 506.26 424.08 475.75 422.76C441.58 421.27 415.75 445.93 378.75 430.59C366.55 425.53 358.2 415.39 346.93 409.9C327.67 400.52 303.9 408.62 283.51 406.94C275.26 406.26 272.02 402.94 264.98 400.7C263.1 400.1 261.8 398.92 262.2 402C326.64 485.06 457.12 495.57 553.69 478.97C607.05 469.8 665.99 454.08 705.1 414.88L705.08 414.87Z" fill="#79CDCF"/>
<path d="M39.2398 534.76C37.3798 536.25 37.7098 539.96 37.2598 541.7L36.2698 564.49C36.2898 564.82 36.2498 565.15 36.2698 565.48C38.3798 573.4 42.9498 579.47 47.1698 586.29C47.4998 586.62 47.8198 586.96 48.1598 587.28C51.4398 587.84 59.1698 593.48 59.0598 588.27C59.0598 587.94 59.0598 587.61 59.0598 587.28C58.8298 578.69 56.0298 575.72 55.2098 568.84C54.4798 562.77 54.4798 542.16 59.2598 537.91C59.8298 537.4 60.9098 537.87 61.0398 537.74C65.2798 533.74 65.4298 532.4 67.9798 527.83C86.5598 494.46 74.0798 476.51 70.9698 443.1C70.1398 434.23 69.6598 421.26 69.9598 412.35C70.0198 410.44 68.9498 408.37 71.9398 408.93C73.5098 390.65 77.9898 370.47 92.7498 358.4C96.8598 337.9 107.75 318.72 109.59 297.95C107.78 297.98 105.58 297.43 104.11 298.92C102.8 300.24 96.6698 320.27 94.8998 324.39C76.7798 366.81 56.0198 384.56 59.0098 435.23C60.5798 461.76 71.1898 485.57 59.5298 511.96C57.0398 517.6 50.5798 528.15 45.6698 531.78C43.6098 533.31 39.9798 534.16 39.2298 534.76H39.2398Z" fill="#0B9779"/>
<path d="M118.5 545.66C117.53 533.49 115.33 525.62 110.75 514.27C108.55 508.82 105.34 501.51 101.65 497.11C101.23 529.82 59.75 576.53 86.82 606.57C89.89 609.98 94.72 614.06 99.42 614.79C111.83 616.72 102.81 605.11 101.19 600.13C94.94 580.99 105.55 559.47 118.5 545.66Z" fill="#0B9779"/>
<path d="M19.4197 445.58C18.8897 452.54 18.9598 459.78 17.1498 466.6C11.1798 489.09 -14.5802 506.21 -15.3102 530.25C-15.5602 538.64 -13.5603 551.15 -6.58026 556.57C6.39974 566.66 2.12975 545.1 2.67975 539.32C3.88975 526.6 14.5297 519.13 23.4197 511.52L35.2598 497.11C31.3798 479.73 23.7697 462.9 19.4097 445.59L19.4197 445.58Z" fill="#0B9779"/>
<path d="M138.32 471.35C138.01 457.89 142.89 446.03 145.26 433.7C147.41 422.46 147.25 412.7 150.71 401C155.15 386 174.53 346.71 173.06 334.08C172.29 327.45 168.2 331.25 166.19 335.23C159.88 347.74 152.11 373.29 147.22 387.6C138.72 412.5 132.43 435.09 135.47 461.81C135.8 464.72 136.52 468.96 138.32 471.34V471.35Z" fill="#079578"/>
<path d="M71.9298 408.92C68.9398 408.37 70.0098 410.44 69.9498 412.34C69.6498 421.24 70.1298 434.22 70.9598 443.09C74.0798 476.51 86.5498 494.45 67.9698 527.82C89.3798 501.44 74.2998 466.12 71.9398 436.16C71.2998 428.06 71.2398 416.96 71.9398 408.92H71.9298Z" fill="#079578"/>
<path d="M197 126.81C171.81 123.97 139.57 137.44 119.36 151.67C116.85 153.44 107.81 159.45 107.57 161.74C107.29 164.4 109.5 168.38 112.58 166.75L150.29 142.97C210.7 117.6 270.35 157.02 256.9 224.81C248.29 268.18 220.04 331.14 267.39 362.58C292.25 379.09 317.91 370.15 344.9 370.19C379.58 370.24 394.01 397.07 432.96 390.97C438.91 390.04 447.04 385.85 451.04 385.44C459.67 384.55 468.76 382.68 477.71 383.12C500.13 384.23 518.65 395.15 542.61 390.65C567.81 385.92 583.86 367.29 610.39 365.29C637.91 363.22 658.54 373.57 685.75 362.38C697.86 357.4 706.72 347.09 717.91 341.04C730.17 334.41 743.97 334.28 755.5 327.1C794.55 302.79 752.76 259.31 726.76 245.03C722.08 242.46 716.99 239.79 717.84 247.94C732.24 259.9 761.67 278.21 763.31 298.74C763.65 302.98 761.05 308.95 758.56 312.33C749.94 324.01 736.69 323.24 724.34 327.65C695.96 337.78 693.13 359.47 655.97 358.45C633.15 357.82 617.86 351.98 594.3 359.12C570.9 366.21 556.76 382.1 530.19 382.27C513.28 382.37 496.2 374.1 479.69 373.23C457.02 372.03 435.52 384.28 414.26 382.19C394.93 380.29 380.89 366.03 361.45 362.67C328.55 357 287.79 376.1 262.19 346C246.2 327.2 248.15 301.91 251.53 278.92C257.3 239.78 279.38 206.91 258.36 167.51C246.95 146.12 221.05 129.55 196.98 126.83L197 126.81Z" fill="#079578"/>
<path d="M197.99 165.45C183.99 163.85 171.68 166.17 160.63 175.11C130.7 199.31 147.18 241.36 184.35 243.49C240.77 246.72 247.08 171.06 197.99 165.45ZM169.39 190.3C181.44 178.02 207.18 178.81 213.12 196.89C221.87 223.55 182.3 237.95 167.06 217.19C160.98 208.9 162.38 197.45 169.39 190.3Z" fill="#FCF9ED"/>
<path d="M470.45 216C431 211.76 428.51 244.8 460.13 261C469.06 265.57 485.56 270.68 495.5 270.19C503.47 269.79 517.69 265.62 519.56 256.61C524.11 234.61 488.04 217.9 470.45 216.01V216Z" fill="#79CDCF"/>
<path d="M376.34 166.45C363.43 164.81 346.73 165.62 346.78 182.35C346.83 198.2 368.26 212.05 382.67 213.62C397.86 215.28 412.12 207.29 407.06 190.22C403.69 178.87 387.85 167.91 376.34 166.44V166.45Z" fill="#79CDCF"/>
<path d="M588.4 264.52C558.34 260.12 550.97 284.56 573.29 302.42C579.61 307.47 590.47 311.28 598.53 311.85C638.59 314.69 614.76 268.38 588.4 264.52Z" fill="#79CDCF"/>
<path d="M361.59 271.53C356.99 276.28 357.09 284.74 359.22 290.57C363.05 301.06 385.48 316.37 396.54 316.67C413.06 317.11 419.06 305.55 413.55 290.74C407.42 274.27 376.13 256.52 361.59 271.53Z" fill="#79CDCF"/>
<path d="M450.63 137.73C442.48 136.98 418.79 134.54 418.8 146.71C418.82 168.92 459.5 177.25 476.01 171.43C487.65 167.33 488.39 156.11 479.64 148.35C472.71 142.2 459.78 138.57 450.63 137.73Z" fill="#79CDCF"/>
<path d="M543.83 175.32C530.04 173.47 518.31 180.63 524.55 195.59C530.11 208.93 569.54 224.95 577.67 209.68C586.65 192.83 557.3 177.12 543.83 175.32Z" fill="#79CDCF"/>
<path d="M668.63 248.67C651.28 247.07 650.14 262.61 660.1 273.07C669.93 283.4 692.2 293.65 706.54 290.98C710.76 290.2 712.3 284.46 711.97 280.72C710.53 264.49 683.19 250.01 668.63 248.67Z" fill="#79CDCF"/>
<path d="M310 211.99C295.62 209.54 287.93 223.1 294.85 235.06C297.86 240.27 307.1 248.28 312.9 249.71C322.03 251.97 335.35 251.57 336.45 239.86C337.46 229.16 319.98 213.68 310.01 211.98L310 211.99Z" fill="#79CDCF"/>
<path d="M271.32 123.73C266.3 123.17 259.28 128.81 259.12 134C258.75 145.84 283.29 156.32 293.39 157.24C318.28 159.49 316.61 139 296.12 130.74C290.84 128.61 276.66 124.34 271.32 123.74V123.73Z" fill="#79CDCF"/>
<path d="M17.4298 405.95C19.3898 396.08 19.9098 385.94 21.7098 376.04C25.8198 353.5 33.1498 332.96 41.7398 311.85C45.0998 303.59 61.6899 271.28 60.0899 264.92C59.5999 262.96 56.2798 263.05 54.6798 265.34C50.4598 271.36 46.1898 282.34 43.0198 289.35C30.3498 317.37 11.5998 363.06 11.4098 393.55C11.3798 397.79 11.4798 407.9 17.4198 405.95H17.4298Z" fill="#079578"/>
<path d="M494.27 311.04C491.39 310.52 486.86 311.49 483.92 312.11C474.02 314.2 465.78 320.4 471.05 331.33C479.77 349.46 521.26 347.19 511.92 323.16C509.46 316.82 500.67 312.19 494.28 311.04H494.27Z" fill="#79CDCF"/>
<path d="M302.03 304.18C277.43 301.43 279.66 323.56 297.64 332.34C309.7 338.23 326.64 334.9 320.86 318.04C320.31 316.43 313.28 308.63 311.66 307.43C309.08 305.51 305.21 304.54 302.03 304.19V304.18Z" fill="#79CDCF"/>
<path d="M624.06 206.99C618.82 206.28 610.76 210.11 610.99 216.11C611.47 228.74 639.21 236.05 639.76 222.13C640.05 214.62 630.74 207.9 624.06 206.99Z" fill="#79CDCF"/>
<path d="M362.52 121.8C355.97 121.15 343.38 126.04 348.93 134.41C353.75 141.68 379.22 142.67 373.61 129.53C372.6 127.17 365.23 122.07 362.52 121.8Z" fill="#79CDCF"/>
<path d="M169.39 190.3C162.38 197.45 160.98 208.9 167.06 217.19C182.3 237.95 221.87 223.55 213.12 196.89C207.18 178.81 181.44 178.02 169.39 190.3Z" fill="#0B9779"/>
</g>
</g>
<defs>
<clipPath id="clip0_504_8087">
<rect width="669" height="516" fill="white"/>
</clipPath>
<clipPath id="clip1_504_8087">
<rect width="887.25" height="512" fill="white" transform="matrix(-1 0 0 1 834.25 103)"/>
</clipPath>
</defs>
</svg>
