<svg width="669" height="516" viewBox="0 0 669 516" fill="none" xmlns="http://www.w3.org/2000/svg">
<g clip-path="url(#clip0_504_11470)">
<rect width="669" height="516" fill="#D9D9D9" fill-opacity="0.6"/>
<g clip-path="url(#clip1_504_11470)">
<path d="M231.556 80.0991C207.683 79.8227 183.699 79.7564 160.224 84.3772C132.987 89.7387 79.485 108.134 71.4609 138.158C70.0332 143.509 67.8971 157.482 74.8034 159.582C100.669 159.538 124.918 170.294 150.418 172.494C158.509 173.191 167.363 172.56 175.564 173.279C180.124 173.677 184.607 174.959 189.233 174.816C189.355 176.684 189.476 176.186 188.071 176.374C167.474 178.994 147.12 183.217 126.169 181.846C114.426 181.084 102.041 177.491 90.1544 177.126C81.9089 176.872 73.8405 176.54 77.8249 187.097C82.1856 198.627 93.9949 204.055 105.195 206.708C129.666 212.512 156.074 214.447 180.611 220.991L181.397 221.776C181.84 221.898 182.526 221.654 182.969 221.776C182.67 219.996 183.566 219.388 184.507 218.227C205.359 192.459 226.653 174.296 237.046 140.789C243.819 118.967 239.204 100.838 231.545 80.1212L231.556 80.0991ZM170.23 143.243C163.312 146.195 151.713 138.114 149.511 131.139C142.682 109.438 175.719 98.7594 182.581 120.791C186.068 131.979 180.799 137.948 171.06 141.994C170.506 142.226 170.418 143.155 170.23 143.243ZM99.3406 131.89C108.328 133.67 99.3295 144.327 90.907 142.713C83.89 141.364 91.6264 130.354 99.3406 131.89Z" fill="#24A29C"/>
<path d="M407.854 373.579C396.687 387.928 383.893 399.193 367.391 407.119C344.735 417.997 327.812 423.955 308.333 441.267C286.85 460.358 272.739 485.055 257.41 508.977C276.712 533.585 302.899 551.991 331.841 563.764C335.294 557.717 340.474 552.599 344.226 546.784C362.045 519.169 362.532 485.906 379.233 457.307C386.527 444.827 398.845 433.838 407.246 421.899C413.731 412.68 419.796 401.415 423.515 390.802C418.258 387.453 410.865 379.106 407.843 373.59L407.854 373.579Z" fill="#24A29C"/>
<path d="M388.264 579.407C420.759 584.636 447.034 584.216 479.153 578.622L482.274 528.931C482.196 508.193 471.25 489.212 468.97 469.435C466.69 449.658 472.977 429.152 467.631 410.514C466.259 405.738 463.481 400.984 461.909 396.275C461.411 396.352 460.847 396.209 460.338 396.275L459.176 397.049L458.777 396.275C458.268 396.33 457.726 396.22 457.205 396.275L455.634 397.06C447.776 397.591 443.559 397.602 436.044 395.49C435.192 403.129 435.07 409.85 433.31 417.412C428.02 440.085 416.089 460.967 411.33 484.679C407.389 504.313 408.054 524.2 403.073 543.734C399.919 556.093 394.54 568.386 388.242 579.396L388.264 579.407Z" fill="#24A29C"/>
<path d="M477.592 392.361C493.22 404.168 493.453 425.614 498.356 443.235C503.989 463.476 514.658 479.107 520.912 498.177C527.951 519.623 528.836 542.639 534.005 564.527C558.365 555.959 582.913 544.905 604.252 530.589C606.155 529.307 609.642 524.83 610.007 524.619C600.832 509.629 594.413 493.755 584.95 478.82C570.219 455.561 551.769 437.84 538.277 413.52C529.069 396.916 528.095 392.383 513.253 379.04C512.235 378.123 511.316 377.459 511.283 375.923C500.702 383.849 490.199 388.592 477.592 392.361Z" fill="#24A29C"/>
<path d="M526.954 362.624C531.249 365.089 536.085 368.085 539.86 371.258C553.871 383.02 560.667 400.11 572.753 413.166C583.123 424.386 598.054 432.202 608.059 443.997C620.433 458.59 626.741 478.93 641.76 491.721C643.498 493.202 645.999 495.667 648.401 495.656C664.228 480.146 677.244 463.398 689.927 445.567C678.273 440.139 667.559 429.295 658.971 419.754C650.537 410.391 643.764 399.646 634.312 391.167C624.329 382.224 612.11 375.989 602.16 366.924C592.631 358.246 585.979 347.158 576.715 338.37C570.528 332.5 563.334 326.895 555.941 322.694C547.496 334.777 536.716 352.321 526.954 362.613V362.624Z" fill="#24A29C"/>
<path d="M577.091 292.194C582.802 297.832 589.598 302.365 595.088 308.257C607.605 321.677 615.353 338.779 627.616 352.465C637.156 363.121 647.903 369.201 658.207 378.255C674.543 392.626 682.556 416.228 703.242 426.011C709.506 416.195 715.206 405.693 722.046 396.274C705.909 381.737 697.143 361.043 683.63 344.251C676.347 335.197 667.438 327.359 660.753 317.797C650.615 303.271 648.811 287.341 638.838 273.158C631.246 262.347 622.17 257.096 614.666 247.998C613.704 246.837 612.829 246.229 613.128 244.449C598.817 259.66 588.945 275.303 577.08 292.183L577.091 292.194Z" fill="#24A29C"/>
<path d="M218.241 388.448C217.19 410.093 220.743 437.674 228.424 458.103C247.449 428.908 275.96 406.135 308.72 393.92C326.517 387.276 345.443 384.656 363.174 377.879C376.754 372.695 389.105 365.233 401.579 357.937C401.302 356.842 400.007 351.68 400.007 351.282V335.628C400.007 334.291 400.539 328.155 400.793 326.63L380.628 335.838C335.593 355.87 278.793 346.374 237.101 374.043C230.493 378.432 225.148 384.612 218.219 388.448H218.241Z" fill="#24A29C"/>
<path d="M699.324 190.447C677.764 196.671 665.567 202.209 647.615 214.712C657.443 226.828 655.496 243.521 662.092 256.985C668.024 269.101 677.487 276.221 685.212 286.336C699.789 305.438 700.364 328.487 711.177 349.613C716.778 360.557 725.101 372.839 733.8 381.406C740.252 373.546 748.664 365.786 757.308 360.28C753.18 351.149 747.635 341.443 744.547 331.936C739.577 316.603 739.943 301.834 733.623 286.501C729.074 275.491 719.523 263.607 716.18 253.05C714.31 247.158 714.431 239.508 713.203 233.328C710.281 218.57 706.518 203.691 699.324 190.447Z" fill="#24A29C"/>
<path d="M228.424 458.103C234.865 475.227 246.155 494.617 257.41 508.977C272.739 485.055 286.851 460.358 308.333 441.267C327.801 423.955 344.735 418.008 367.391 407.119C383.893 399.193 396.687 387.928 407.854 373.579C405.619 369.489 402.73 362.458 401.59 357.926C389.117 365.222 376.765 372.684 363.185 377.868C345.454 384.645 326.529 387.265 308.732 393.909C275.971 406.135 247.461 428.908 228.435 458.092L228.424 458.103Z" fill="#5DC3B0"/>
<path d="M423.526 390.803C419.808 401.415 413.742 412.68 407.257 421.9C398.856 433.85 386.538 444.827 379.244 457.308C362.543 485.906 362.056 519.159 344.237 546.784C340.485 552.599 335.305 557.717 331.852 563.764C350.247 571.237 368.73 576.278 388.265 579.418C394.551 568.396 399.941 556.115 403.095 543.755C408.087 524.222 407.412 504.334 411.352 484.701C416.111 460.989 428.042 440.107 433.332 417.433C435.092 409.872 435.214 403.151 436.066 395.512C432.458 394.495 426.603 392.77 423.526 390.814V390.803Z" fill="#5DC3B0"/>
<path d="M287.968 85.583C289.241 86.18 289.363 86.8764 289.795 88.0593C298.461 112.004 293.724 138.491 284.427 161.484C272.684 190.536 250.958 214.713 227.627 235.064C234.932 237.883 246.542 244.339 251.135 250.718C274.787 238.79 296.634 223.744 316.324 206.057C340.529 184.312 363.993 154.575 360.053 120.018C352.04 113.397 343.152 108.035 334.198 102.806C341.78 136.888 325.488 168.814 303.264 193.598C298.195 199.247 279.181 218.869 273.348 221.633C272.208 222.175 271.356 222.827 269.961 222.54C269.153 221.733 274.366 213.895 275.263 212.579C281.649 203.161 289.85 194.682 296.136 184.909C313.325 158.212 324.835 124.694 313.834 93.4097C304.548 89.9717 297.774 87.8161 287.979 85.583H287.968Z" fill="#24A29C"/>
<path d="M461.92 396.274C463.492 400.984 466.27 405.748 467.642 410.513C472.999 429.151 466.768 450.188 468.981 469.434C471.195 488.68 482.207 508.203 482.285 528.931L479.164 578.621C500.093 574.973 514.049 571.557 534.016 564.538C528.836 542.649 527.962 519.634 520.922 498.188C514.658 479.118 503.989 463.476 498.366 443.246C493.463 425.625 493.242 404.178 477.603 392.372C472.191 393.986 467.609 395.445 461.931 396.285L461.92 396.274Z" fill="#5DC3B0"/>
<path d="M526.955 362.624C524.188 365.542 514.891 373.225 511.283 375.934C511.316 377.47 512.235 378.134 513.253 379.051C528.106 392.394 529.069 396.927 538.277 413.531C551.769 437.851 570.218 455.561 584.95 478.831C594.413 493.766 600.832 509.64 610.007 524.63C624.163 516.251 636.437 507.396 648.401 495.678C645.999 495.689 643.498 493.224 641.76 491.743C626.742 478.952 620.433 458.601 608.059 444.02C598.054 432.224 583.123 424.409 572.753 413.188C560.678 400.122 553.871 383.031 539.86 371.28C536.085 368.107 531.249 365.111 526.955 362.646V362.624Z" fill="#5DC3B0"/>
<path d="M232.342 323.49C227.461 336.291 224.805 345.257 222.16 358.71C230.682 351.326 237.577 345.754 248.047 341.122C290.016 322.562 338.88 331.427 382.177 315.442L407.08 305.493C410.223 292.67 414.628 277.591 416.487 264.801C409.924 267.178 404.91 272.196 398.635 275.535C351.221 300.673 289.341 290.204 244.649 316.603C240.82 318.869 236.935 322.971 232.364 323.501L232.342 323.49Z" fill="#24A29C"/>
<path d="M613.139 244.45C612.84 246.23 613.715 246.838 614.678 247.999C622.182 257.097 631.257 262.348 638.85 273.159C648.811 287.342 650.615 303.272 660.764 317.798C667.449 327.371 676.347 335.198 683.641 344.252C697.144 361.044 705.92 381.738 722.057 396.275C725.167 391.997 730.303 385.674 733.811 381.407C725.112 372.839 716.789 360.568 711.189 349.613C700.375 328.477 699.8 305.439 685.224 286.336C677.509 276.221 668.035 269.102 662.103 256.986C655.507 243.521 657.455 226.829 647.626 214.713C634.179 224.076 624.473 232.422 613.15 244.45H613.139Z" fill="#5DC3B0"/>
<path d="M555.941 322.717C563.334 326.918 570.528 332.522 576.715 338.393C585.968 347.181 592.631 358.269 602.16 366.947C612.11 376.012 624.329 382.235 634.312 391.19C643.764 399.669 650.537 410.414 658.971 419.777C667.57 429.317 678.284 440.162 689.927 445.59C694.886 438.625 698.571 433.341 703.253 426.023C682.567 416.229 674.554 392.627 658.218 378.267C647.914 369.202 637.167 363.122 627.627 352.476C615.364 338.79 607.616 321.689 595.099 308.269C589.598 302.376 582.814 297.844 577.103 292.206C569.986 302.332 563.035 312.591 555.952 322.728L555.941 322.717Z" fill="#5DC3B0"/>
<path d="M222.159 358.711C220.012 369.622 218.784 377.183 218.241 388.448C225.159 384.601 230.505 378.433 237.123 374.044C278.804 346.374 335.615 355.87 380.65 335.839L400.815 326.63C401.767 320.749 405.541 311.806 407.08 305.505L382.177 315.454C338.88 331.439 290.016 322.573 248.047 341.134C237.588 345.755 230.693 351.327 222.159 358.722V358.711Z" fill="#5DC3B0"/>
<path d="M250.36 279.67C248.213 286.634 245.269 293.289 242.524 300.021C245.18 301.669 249.187 297.556 251.766 296.34C296.181 275.259 354.065 274.496 395.735 246.826C403.35 241.774 408.629 234.29 416.476 229.592C415.436 216.57 414.074 206.046 410.212 193.587C406.36 194.969 403.947 200.01 401.214 202.994C368.121 239.077 321.725 252.177 277.587 269.687C268.755 273.192 259.923 278.664 250.371 279.681L250.36 279.67Z" fill="#24A29C"/>
<path d="M242.524 300.022C239.403 307.693 235.363 315.553 232.342 323.502C236.913 322.971 240.798 318.87 244.627 316.604C289.319 290.205 351.198 300.674 398.613 275.535C404.899 272.208 409.902 267.178 416.465 264.801C418.17 253.028 417.395 241.188 416.465 229.581C408.618 234.29 403.339 241.763 395.724 246.815C354.065 274.474 296.181 275.248 251.755 296.329C249.176 297.556 245.169 301.658 242.513 300.01L242.524 300.022Z" fill="#5DC3B0"/>
<path d="M247.228 80.0999C262.468 113.994 255.827 150.485 234.998 180.189C223.82 196.119 210.317 212.237 196.294 225.668C203.743 227.791 211.678 229.78 219.016 231.925C218.994 230.377 220.079 229.758 220.964 228.785C226.465 222.739 232.497 217.609 237.809 211.164C266.076 176.873 288.411 125.28 269.175 81.6586C261.904 80.7079 254.544 80.321 247.239 80.0889L247.228 80.0999Z" fill="#24A29C"/>
<path d="M374.164 134.102C373.035 137.706 374.363 141.111 373.943 145.234C368.973 193.775 313.867 228.144 273.89 247.202C267.471 250.265 260.377 253.957 253.504 255.405C253.935 257.207 253.703 264.868 253.504 267.145C281.107 256.334 311.045 245.389 336.18 229.592C349.948 220.936 371.541 205.991 381.978 193.941C387.789 187.242 391.696 178.895 397.008 172.174C397.882 171.069 398.336 170.074 400.019 170.096C392.194 155.681 385.132 146.251 374.164 134.091V134.102Z" fill="#24A29C"/>
<path d="M253.492 267.145C253.105 271.434 251.611 275.591 250.36 279.67C259.912 278.664 268.744 273.181 277.576 269.677C321.703 252.166 368.11 239.066 401.203 202.984C403.936 199.999 406.349 194.958 410.201 193.576C407.157 183.749 404.722 178.763 400.018 170.096C398.336 170.074 397.882 171.069 397.008 172.174C391.695 178.896 387.777 187.242 381.978 193.941C371.541 205.98 349.948 220.937 336.18 229.592C311.045 245.39 281.106 256.323 253.503 267.145H253.492Z" fill="#5DC3B0"/>
<path d="M269.164 81.6689C288.411 125.291 266.065 176.883 237.798 211.175C232.486 217.619 226.454 222.738 220.953 228.796C220.068 229.769 218.994 230.388 219.005 231.935C221.772 232.742 224.904 234.014 227.627 235.064C250.958 214.723 272.684 190.536 284.427 161.484C293.724 138.479 298.461 111.992 289.795 88.0586C289.363 86.8757 289.241 86.1793 287.969 85.5823C281.66 84.1452 275.661 82.5202 269.164 81.6689Z" fill="#5DC3B0"/>
<path d="M231.556 80.1C239.215 100.816 243.819 118.946 237.057 140.768C226.664 174.275 205.37 192.427 184.518 218.206C183.577 219.367 182.681 219.975 182.98 221.755C187.396 222.982 191.867 224.408 196.305 225.668C210.328 212.248 223.831 196.119 235.009 180.189C255.839 150.496 262.479 113.994 247.239 80.1C242.037 79.9341 236.78 80.1552 231.567 80.1H231.556Z" fill="#5DC3B0"/>
<path d="M360.053 120.018C363.993 154.575 340.529 184.323 316.324 206.056C296.635 223.744 274.787 238.778 251.135 250.717C251.29 250.927 253.426 255.161 253.481 255.415C260.366 253.967 267.46 250.275 273.868 247.213C313.845 228.155 368.951 193.786 373.921 145.244C374.341 141.121 373.013 137.705 374.142 134.112C369.737 129.226 365.388 124.439 360.042 120.029L360.053 120.018Z" fill="#5DC3B0"/>
<path d="M660.155 508.192C676.878 523.028 683.563 542.185 689.562 562.99C689.938 564.284 689.418 565.765 691.499 565.323C696.822 563.057 706.219 560.072 711.875 559.066C711.675 539.643 705.82 520.817 699.943 502.51L693.07 487.852C677.398 493.644 672.374 497.215 660.166 508.203L660.155 508.192Z" fill="#24A29C"/>
<path d="M313.834 93.4092C324.835 124.694 313.325 158.212 296.136 184.909C289.85 194.681 281.649 203.16 275.263 212.579C274.366 213.894 269.153 221.732 269.961 222.539C271.356 222.826 272.219 222.163 273.348 221.632C279.181 218.869 298.195 199.258 303.264 193.598C325.488 168.813 341.78 136.887 334.198 102.806C326.064 98.0521 322.788 96.7256 313.823 93.4092H313.834Z" fill="#5DC3B0"/>
<path d="M660.155 508.193C650.548 516.826 649.132 518.584 642.137 529.318C654.389 534.835 664.627 546.597 670.481 558.525C672.883 563.422 673.901 569.712 677.399 573.924C680.431 570.983 687.548 566.993 691.499 565.312C689.418 565.754 689.938 564.273 689.562 562.98C683.563 542.175 676.879 523.028 660.155 508.182V508.193Z" fill="#5DC3B0"/>
<path d="M458.777 396.275L459.176 397.048L460.338 396.275C459.829 396.341 459.275 396.219 458.766 396.275H458.777Z" fill="#5DC3B0"/>
<path d="M455.645 397.059L457.217 396.274C455.844 396.407 455.733 397.048 455.645 397.059Z" fill="#5DC3B0"/>
<path d="M181.408 221.755L180.622 220.97C180.622 220.97 180.855 221.6 181.408 221.755Z" fill="#5DC3B0"/>
<path d="M170.23 143.244C170.429 143.155 170.517 142.226 171.06 141.994C180.81 137.948 186.068 131.979 182.581 120.791C175.719 98.7595 142.671 109.438 149.511 131.139C151.713 138.125 163.301 146.206 170.23 143.244ZM168.304 117.851C180.013 120.25 173.495 138.125 162.427 133.106C154.071 129.315 157.668 115.673 168.304 117.851Z" fill="#FEF9E8"/>
<path d="M99.3406 131.891C91.6375 130.354 83.89 141.376 90.907 142.713C99.3296 144.327 108.317 133.671 99.3406 131.891Z" fill="#5DC3B0"/>
<path d="M168.304 117.851C157.667 115.673 154.07 129.326 162.427 133.107C173.494 138.125 180.013 120.239 168.304 117.851Z" fill="#24A29C"/>
</g>
</g>
<defs>
<clipPath id="clip0_504_11470">
<rect width="669" height="516" fill="white"/>
</clipPath>
<clipPath id="clip1_504_11470">
<rect width="1007" height="566" fill="white" transform="matrix(-1 0 0 1 1077 80)"/>
</clipPath>
</defs>
</svg>
