<svg width="669" height="516" viewBox="0 0 669 516" fill="none" xmlns="http://www.w3.org/2000/svg">
<g clip-path="url(#clip0_504_11435)">
<rect width="669" height="516" fill="#D9D9D9" fill-opacity="0.6"/>
<g clip-path="url(#clip1_504_11435)">
<path d="M218.03 194.25C217.45 194.6 213.98 194.61 213.58 194.28C207.07 168.73 202.56 141.34 194.7 116.25C191.19 105.04 180.93 76.0297 168.53 73.0397C163.07 71.7197 155.96 75.8697 154.03 81.0897C146.23 102.21 168.51 161.9 172.94 186.7C177.65 213.09 174.07 216.03 155.44 233.26C131.88 255.04 70.0903 292.58 72.0503 327.86C73.5203 354.22 102.3 361.98 118.92 376.51C147.2 401.24 153 456.59 168.67 491.57C212.54 589.46 299.35 577.92 390.98 580.16C452.45 581.66 513.9 582.75 575.46 582.97C650.74 583.23 750.2 582.84 820.27 553.48C881.84 527.67 874.92 488.62 863.08 431.12C840.42 321.14 778.2 206.55 677.04 151.75C582.81 100.71 475.76 107.37 378.33 146.18C339.82 161.52 302.8 186.17 260.3 186.89C260.87 174.93 261.03 162.76 262.19 150.84C264.09 131.28 271.79 102.93 269.67 84.3397C268.39 73.0597 257.54 67.4697 247.47 73.3797C233.12 81.7997 225.18 129.95 222.98 146.28C222.11 152.78 220.09 192.99 218.03 194.24V194.25ZM445.99 142.14C453.45 143.83 453.76 152.24 449.48 157.41C444.09 163.91 420.97 174.99 412.71 174.49C407.04 174.14 402.06 169.25 403.02 163.46C405.38 149.17 433.51 139.31 446 142.14H445.99ZM611.67 144.08C621.35 145.03 637.82 152.61 637.76 163.96C637.67 182.46 595.98 171.53 593.73 157.34C592 146.42 602.61 143.19 611.66 144.08H611.67ZM499.43 156.32C513.83 141.92 554.76 148.75 565.07 166.33C570.5 175.59 564.96 185.31 555.3 188.3C544.89 191.53 519.7 188.76 509.6 184.34C498.29 179.39 488.6 167.15 499.43 156.31V156.32ZM316.81 216.53C314.68 214.29 314.4 211.87 314.55 208.87C315.38 191.71 354.24 176.66 367.02 185.53C380.39 194.8 358.17 209.76 350.25 213.63C342.33 217.49 323.68 223.75 316.82 216.54L316.81 216.53ZM716.96 206.88C731.25 221.64 727.54 241.03 703.7 238.4C688.68 236.74 658.13 216.23 668.2 198.2C677.68 181.23 707.24 196.85 716.96 206.88ZM454.34 199.34C464.67 200.4 476.3 204.8 481.49 214.33C486.68 223.86 485.97 232.2 476.56 238.81C460.29 250.24 409.71 249.48 405.68 224.6C402.04 202.11 438.7 197.74 454.34 199.34ZM602.27 218.01C616.76 218.07 634.01 223.67 641.62 236.81C647.51 246.99 646.15 259.27 633.94 263.2C618.23 268.26 572.49 262.02 570.24 240.75C568.5 224.3 589.23 217.95 602.27 218.01ZM772.27 284.95C765.19 291.01 751.37 280.79 746.76 274.95C742.57 269.65 737.89 259.85 743.94 254.29C756.6 242.66 785.14 273.93 772.27 284.95ZM196.02 265.88C212.4 250.34 237.12 277.51 215.57 287.77C198.98 295.66 184.03 277.26 196.02 265.88ZM345.76 262.97C359.13 265.22 357.68 278.51 352.25 287.74C343.76 302.18 312.69 316.28 297.82 306.22C285.2 297.69 295.44 283.08 303.87 275.88C315.11 266.27 330.81 260.46 345.76 262.97ZM517.08 264.9C530.98 265.43 547.14 269.31 545 286.65C542.54 306.55 491.09 310.53 483.91 292.45C476.06 272.68 501.84 264.32 517.08 264.9ZM689.52 327.96C681.38 320.34 676.01 307.14 686.36 298.77C701.49 286.55 729.95 303.42 739.75 316.58C746.24 325.29 745.35 341.74 732.75 343.29C720.35 344.81 698.63 336.49 689.51 327.96H689.52ZM416.91 294.83C432.03 297.04 435.22 313.38 424.19 323.15C411.89 334.05 371.84 341.83 376.64 315.86C379.09 302.61 404.98 293.08 416.91 294.82V294.83ZM607.95 308.87C630.54 311.85 654.7 343.93 621.26 345.16C607.76 345.66 578.21 330.75 589.67 314.46C593.51 309 601.87 308.07 607.95 308.87ZM104.56 312.67C105.92 313.84 107.49 317.26 109.06 318.93C117.53 327.93 133.7 329.37 145.47 328.17C151.84 327.52 176.86 316.83 175.76 328.62C175.12 335.54 162.83 338.47 157.12 339.83C139.59 343.99 118.45 344.62 103.9 332.51C99.8903 329.18 91.9903 319.89 94.2903 314.5C96.1603 310.11 101.06 309.67 104.55 312.66L104.56 312.67ZM795.26 328.51C807.32 330.62 820.9 358.48 812.68 368.9C802.28 382.09 778.2 348.06 785.18 332.97C787.25 328.48 790.59 327.69 795.27 328.51H795.26ZM551.76 353.82C561.94 355.2 574.44 363.44 569.81 375.14C563.91 390.03 526.14 387.05 524.35 369.98C522.78 354.98 540.31 352.26 551.76 353.82ZM462.82 355.67C466.3 356.26 473.26 360.35 474.33 363.82C481.68 387.78 426.26 393.34 429.44 371.55C431.44 357.85 451.38 353.72 462.82 355.67ZM342.02 356.61C356.32 359.05 351.59 373.76 343.66 381.21C335.86 388.52 301.61 408.47 298.76 388.62C296.29 371.44 326.9 354.03 342.03 356.61H342.02ZM242.84 361.4C246.48 361.57 250.99 363.97 252.59 367.36C260.86 384.88 224.99 403.59 217.34 388.56C211.06 376.22 231.13 360.83 242.84 361.39V361.4ZM670.67 373.5C683 374.94 702.05 385.94 695.66 400.77C688.47 417.45 642.05 400.45 649.8 381.12C652.99 373.15 663.36 372.64 670.67 373.49V373.5ZM775.95 401.67C781.06 407.04 785 417.15 779.11 423.36C768.56 434.48 738.29 408.16 750.04 395.22C755.91 388.76 771.07 396.52 775.96 401.67H775.95ZM393.51 406.26C397.51 406.87 403.35 409.91 404.32 414.17C409.57 437.24 365.41 444.17 362.58 426.85C360.27 412.68 382.04 404.53 393.51 406.27V406.26ZM187.54 409.95C196.92 412.79 199.15 440.42 190.59 445.39C181.51 450.66 175.27 431.83 175.04 425.24C174.78 418.02 178.15 407.1 187.54 409.95ZM509.62 419.37C514.27 420.01 522.48 423.64 523.96 428.44C531.93 454.33 470.76 457.52 475.12 434.08C477.59 420.79 498.64 417.85 509.62 419.36V419.37ZM608.87 420.32C639.87 423.82 635.7 452.89 602.68 448.99C594.35 448.01 580.12 442.15 581.55 431.84C583.1 420.69 600.21 419.34 608.87 420.32ZM819.57 422.13C835.12 423.1 843.63 450.73 832.52 454.28C821.41 457.83 810 438.02 812.27 428.42C813.06 425.07 816 421.91 819.57 422.13ZM285.81 436.16C289.93 436.62 293.97 440.06 294.76 444.18C297.54 458.62 267.82 477.05 260.43 462.56C254.07 450.08 274.41 434.89 285.81 436.17V436.16ZM713.76 445.59C722.98 446.85 735.69 452.96 732.76 464.11C728.63 479.81 691.89 472.27 692.33 456.26C692.63 445.18 705.35 444.44 713.77 445.59H713.76ZM432.83 464.32C449.1 466.28 449.98 480.58 434.73 486.34C410.25 495.59 396.8 472.28 421.35 465.46C425.21 464.39 428.83 463.84 432.83 464.32ZM788.68 473.69C798.19 475.03 812.09 485.19 808.86 496.19C804.61 510.68 767.42 491.76 776.79 477.22C779.56 472.93 784.15 473.05 788.68 473.69ZM350.47 475.51C352.32 475.92 354.37 477.54 355.11 479.29C362.26 496.02 322.69 508.38 322.41 490.59C322.23 479.3 341.17 473.42 350.47 475.51ZM543.35 480.22C546.36 480.73 553.24 484.17 554.14 487.21C560.32 508.13 513.56 509.59 519.88 488.15C522.06 480.75 537.02 479.15 543.34 480.22H543.35ZM237.57 514.37C230.12 520.53 218.55 506.94 215.83 500.6C209.92 486.85 214.89 476.62 228.92 487.51C235.21 492.39 245.84 507.54 237.58 514.37H237.57ZM639.76 486.83C646.18 487.39 658.26 490.71 657.19 498.94C655.33 513.18 615.99 509.85 618.18 496.62C619.59 488.12 632.84 486.22 639.75 486.83H639.76ZM739.96 513.97C762.25 516.67 765.43 538.56 739.53 535.01C731.21 533.87 718.87 528.86 722.38 518.34C724.31 512.56 735.15 513.39 739.96 513.98V513.97ZM458.99 519.58C464.86 519.86 473.92 521.26 474.76 528.2C475.91 537.83 469.62 539.32 461.2 539.96C432.62 542.14 435.08 518.45 458.99 519.58ZM281.19 528.02C284.65 523.73 301.79 526.2 303.69 530.78C309.94 545.79 282.24 543.27 280.15 536.47C279.5 534.34 279.75 529.79 281.18 528.02H281.19ZM586.38 536.44C604.07 538.13 602.84 555.51 581.26 551.88C568.78 549.78 570.66 534.94 586.38 536.44ZM376.68 536.39C381.98 537.47 384.35 541.48 382.78 546.75C380.65 553.89 355.71 555.24 358.84 541.52C360.21 535.51 371.88 535.41 376.68 536.38V536.39ZM675.33 541.1C689.79 542.28 689.37 555.74 673.74 555.92C658.28 556.1 659.45 539.8 675.33 541.1Z" fill="#25AF99"/>
<path d="M454.34 199.34C438.7 197.73 402.03 202.1 405.68 224.6C409.71 249.48 460.29 250.24 476.56 238.81C485.97 232.2 486.89 224.22 481.49 214.33C476.09 204.44 464.67 200.41 454.34 199.34Z" fill="#A7D9C8"/>
<path d="M602.27 218.01C589.22 217.96 568.5 224.3 570.24 240.75C572.49 262.02 618.22 268.26 633.94 263.2C646.16 259.27 647.52 246.99 641.62 236.81C634.01 223.67 616.77 218.07 602.27 218.01Z" fill="#A7D9C8"/>
<path d="M499.43 156.32C488.59 167.16 498.29 179.39 509.6 184.35C519.7 188.77 544.89 191.54 555.3 188.31C564.96 185.31 570.5 175.6 565.07 166.34C554.77 148.75 513.83 141.92 499.43 156.33V156.32Z" fill="#A7D9C8"/>
<path d="M345.76 262.97C330.82 260.46 315.11 266.28 303.87 275.88C295.44 283.09 285.2 297.69 297.82 306.22C312.69 316.27 343.76 302.17 352.25 287.74C357.68 278.51 359.13 265.22 345.76 262.97Z" fill="#A7D9C8"/>
<path d="M716.96 206.88C707.25 196.85 677.68 181.23 668.2 198.2C658.13 216.23 688.68 236.74 703.7 238.4C727.54 241.03 731.25 221.64 716.96 206.88Z" fill="#A7D9C8"/>
<path d="M517.08 264.9C501.84 264.32 476.05 272.68 483.91 292.45C491.09 310.53 542.54 306.55 545 286.65C547.15 269.31 530.98 265.43 517.08 264.9Z" fill="#A7D9C8"/>
<path d="M416.91 294.83C404.98 293.09 379.09 302.62 376.64 315.87C371.84 341.83 411.88 334.05 424.19 323.16C435.22 313.39 432.04 297.05 416.91 294.84V294.83Z" fill="#A7D9C8"/>
<path d="M342.02 356.61C326.9 354.03 296.28 371.44 298.75 388.62C301.6 408.46 335.86 388.52 343.65 381.21C351.59 373.76 356.31 359.05 342.01 356.61H342.02Z" fill="#A7D9C8"/>
<path d="M316.81 216.53C323.67 223.74 342.32 217.48 350.24 213.62C358.16 209.75 380.39 194.8 367.01 185.52C354.23 176.66 315.37 191.7 314.54 208.86C314.39 211.86 314.68 214.29 316.8 216.52L316.81 216.53Z" fill="#A7D9C8"/>
<path d="M607.95 308.87C601.87 308.07 593.52 308.99 589.67 314.46C578.2 330.75 607.75 345.65 621.26 345.16C654.7 343.93 630.53 311.85 607.95 308.87Z" fill="#A7D9C8"/>
<path d="M670.67 373.5C663.36 372.65 652.99 373.16 649.8 381.13C642.06 400.45 688.48 417.46 695.66 400.78C702.05 385.94 683 374.94 670.67 373.51V373.5Z" fill="#A7D9C8"/>
<path d="M509.62 419.37C498.64 417.86 477.6 420.8 475.12 434.09C470.76 457.53 531.93 454.33 523.96 428.45C522.48 423.65 514.27 420.02 509.62 419.38V419.37Z" fill="#A7D9C8"/>
<path d="M104.56 312.67C101.07 309.68 96.1705 310.12 94.3005 314.51C92.0005 319.89 99.9004 329.19 103.91 332.52C118.47 344.62 139.6 344 157.13 339.84C162.83 338.49 175.12 335.55 175.77 328.63C176.87 316.85 151.85 327.54 145.48 328.18C133.71 329.37 117.53 327.94 109.07 318.94C107.5 317.27 105.93 313.85 104.57 312.68L104.56 312.67Z" fill="#A7D9C8"/>
<path d="M551.76 353.82C540.31 352.26 522.78 354.98 524.35 369.98C526.14 387.05 563.9 390.03 569.81 375.14C574.45 363.44 561.95 355.21 551.76 353.82Z" fill="#A7D9C8"/>
<path d="M608.87 420.32C600.2 419.34 583.1 420.7 581.55 431.84C580.12 442.14 594.35 448 602.68 448.99C635.7 452.89 639.88 423.82 608.87 420.32Z" fill="#A7D9C8"/>
<path d="M462.82 355.67C451.38 353.73 431.44 357.85 429.44 371.55C426.26 393.34 481.68 387.78 474.33 363.82C473.26 360.34 466.3 356.26 462.82 355.67Z" fill="#A7D9C8"/>
<path d="M445.99 142.14C433.5 139.32 405.38 149.17 403.01 163.46C402.05 169.25 407.04 174.14 412.7 174.49C420.96 174.99 444.08 163.91 449.47 157.41C453.75 152.24 453.44 143.83 445.98 142.14H445.99Z" fill="#A7D9C8"/>
<path d="M393.51 406.26C382.04 404.52 360.27 412.68 362.58 426.84C365.4 444.17 409.57 437.24 404.32 414.16C403.35 409.9 397.51 406.86 393.51 406.25V406.26Z" fill="#A7D9C8"/>
<path d="M611.67 144.08C602.62 143.19 592.01 146.42 593.74 157.34C595.98 171.52 637.68 182.46 637.77 163.96C637.82 152.62 621.36 145.03 611.68 144.08H611.67Z" fill="#A7D9C8"/>
<path d="M242.84 361.4C231.13 360.84 211.06 376.22 217.34 388.57C224.99 403.6 260.85 384.89 252.59 367.37C250.99 363.97 246.48 361.58 242.84 361.41V361.4Z" fill="#A7D9C8"/>
<path d="M285.81 436.16C274.41 434.88 254.07 450.07 260.43 462.55C267.82 477.04 297.54 458.61 294.76 444.17C293.97 440.05 289.92 436.62 285.81 436.15V436.16Z" fill="#A7D9C8"/>
<path d="M196.02 265.88C184.03 277.26 198.98 295.66 215.57 287.77C237.12 277.51 212.4 250.34 196.02 265.88Z" fill="#A7D9C8"/>
<path d="M432.83 464.32C428.83 463.84 425.21 464.39 421.35 465.46C396.81 472.28 410.25 495.58 434.73 486.34C449.98 480.58 449.1 466.28 432.83 464.32Z" fill="#A7D9C8"/>
<path d="M543.35 480.22C537.03 479.15 522.07 480.75 519.89 488.15C513.57 509.59 560.33 508.14 554.15 487.21C553.25 484.16 546.36 480.73 543.36 480.22H543.35Z" fill="#A7D9C8"/>
<path d="M639.76 486.83C632.85 486.23 619.59 488.12 618.19 496.62C616 509.85 655.34 513.18 657.2 498.94C658.27 490.71 646.19 487.39 639.77 486.83H639.76Z" fill="#A7D9C8"/>
<path d="M350.47 475.51C341.17 473.43 322.23 479.3 322.41 490.59C322.7 508.38 362.26 496.02 355.11 479.29C354.36 477.54 352.31 475.92 350.47 475.51Z" fill="#A7D9C8"/>
<path d="M187.54 409.95C178.15 407.1 174.78 418.02 175.04 425.24C175.28 431.83 181.51 450.66 190.59 445.39C199.15 440.42 196.91 412.79 187.54 409.95Z" fill="#A7D9C8"/>
<path d="M237.57 514.37C245.83 507.54 235.2 492.39 228.91 487.51C214.88 476.62 209.91 486.85 215.82 500.6C218.54 506.94 230.12 520.53 237.56 514.37H237.57Z" fill="#A7D9C8"/>
</g>
</g>
<defs>
<clipPath id="clip0_504_11435">
<rect width="669" height="516" fill="white"/>
</clipPath>
<clipPath id="clip1_504_11435">
<rect width="798.99" height="512" fill="white" transform="matrix(-1 0 0 1 870.99 71)"/>
</clipPath>
</defs>
</svg>
