<svg width="669" height="516" viewBox="0 0 669 516" fill="none" xmlns="http://www.w3.org/2000/svg">
<g clip-path="url(#clip0_504_7906)">
<rect width="669" height="516" fill="#D9D9D9" fill-opacity="0.6"/>
<g clip-path="url(#clip1_504_7906)">
<path d="M369.37 167C341.63 172 308.73 187.68 283.59 200.06C279.43 202.11 275.18 204.12 271.08 206.31C251.79 216.63 233.94 227.24 216.45 240.6C215.22 241.54 213.94 241.88 213.89 243.84C206.95 246.3 200.21 250.26 195.13 255.46C186.34 258.35 161.06 286.52 154.57 294.87C142.01 311 130.31 331.34 125.18 351.27C123.55 357.59 121.84 364.29 123.64 370.73C115.23 373.67 119.75 382.46 125.43 385.92C128 397.35 132.44 405.96 139.75 414.94C158.2 437.6 184.05 453.4 210.32 465.45C214.06 467.17 220.99 471.7 224.62 471.7C238.15 478.6 252.6 483.62 266.81 488.96C268.34 489.54 270.25 489.26 271.09 489.57C274.52 490.85 279.1 493.3 283.6 494.93C301.2 501.29 329.5 513.57 347.04 516.38C356.8 550.51 383.25 596.42 418.06 609.33C477.66 631.43 505.49 547.69 464.99 520.85C466.21 519.29 469.29 519.98 471.24 519.96C471.54 519.96 471.84 519.96 472.13 519.96C473.62 519.95 475.11 519.96 476.6 519.96C485.88 519.93 495.15 520.84 504.3 520.85C507.89 520.85 511.43 520.21 515.02 519.96C533.83 518.66 552.82 516.27 571.31 512.81L573.06 513.27C613.33 551.82 694.85 563.38 738.42 524.88C762.15 503.92 769.14 461.81 735.73 446.68V445.79C738.67 444.44 738.79 442.27 739.3 439.54C739.44 438.79 739.37 439.24 739.3 438.65C739.23 438.06 739.44 437.27 739.3 436.86H795.59C799.71 440.8 819.5 449.72 825.97 452.94C859.7 469.75 889.43 480.92 920.69 452.05C921 451.76 921.28 451.45 921.58 451.16C924.32 448.5 925.68 446.59 927.83 444.01C965.12 399.33 969.7 312.2 939.82 262.69C914.28 220.38 879.8 228.04 842.34 249.06C829.38 256.34 809.96 267.77 798.32 276.52C797.43 277.19 794.33 279.81 793.79 280.49L740.18 279.6L736.6 271.57C741.67 271.11 746.13 268.38 750 265.31C767.5 251.41 763.18 221.39 754.04 203.64C724.79 146.84 643.43 132.96 593.63 170.6L548.06 160.77C550.03 141.16 526 124.7 510.8 116.27C461.81 89.13 404.3 97.24 376.35 148.55C373.45 153.87 369.81 161.08 369.35 167.02L369.37 167Z" fill="#4BAFA1"/>
<path d="M369.37 167C372.19 166.49 376.81 168.01 379.19 165.65C381.13 163.74 384.34 152.9 386.18 149.41C393.78 135.04 410.78 119.29 427.45 117.86L426.76 121.18C420.5 132.89 403.64 148.98 399.35 160.79C397.63 165.52 399.89 166.96 404.47 165.92C409.05 164.88 418.53 148.77 422.11 144.23C424.43 141.28 427.7 138.26 430.11 135.25C433.65 130.84 440.09 120.38 443.51 117.37C445.98 115.2 460.82 114.74 460.39 119.03L431.16 161.31L430.14 165.2C440.26 166.99 447.63 154.11 453.34 146.86C456.86 142.4 470.63 121.21 474.4 120.52C477.11 120.03 487.3 122.37 489.45 124C490.58 124.86 489.95 125.95 489.8 127.03L463.27 162.84C464.79 166.25 469.07 165.04 471.7 163.43C476.44 160.53 486.2 146.45 490.86 141.49C493.43 138.76 500.62 130.92 503.96 130.6C506.34 130.37 517.3 134.62 516.75 136.97C516.32 138.8 501.2 155.14 498.73 159.18C496.26 163.22 493.9 166.67 501.16 166.12C506.71 165.7 515.18 152.76 520.37 148.64C524.84 145.1 529.81 141.4 534.36 146.74C539.68 152.99 533.89 155.86 531.37 161.43C502.4 225.41 478.29 229.78 428.33 271.06C406.61 289.02 399.34 303.32 402.42 331.84C402.84 335.69 400.67 340.98 405.11 342.54L378.29 371.19C377.59 375.64 380.84 375.93 384.34 374.49C390.74 371.86 406.99 356.6 414.11 351.55C430.15 340.18 450.04 326.45 470.7 328.8C471.95 328.94 481.06 330.78 479.28 333.16C467.11 339.26 454.65 345.07 442.63 351.47C433.88 356.13 419.44 362.72 411.97 368.17C406.56 372.11 405.27 379.73 412.92 377.16C422.83 373.82 436.3 364.5 446.21 359.52C456.61 354.29 468.02 348.14 478.68 343.74C481.26 342.68 488.41 339.48 490.43 341.23C492.45 342.98 496.64 351.09 497.59 353.75C498.45 356.17 500.96 364.15 498.96 365.81C497.73 366.83 471.88 372.31 467.86 373.13C450.81 376.59 432.42 378.37 415.65 382.57C414.34 382.9 408.92 384.66 408.68 385.62C407.11 391.79 415.53 390.7 419.86 390.35C443.73 388.46 471.07 379.03 495.16 376.23C496.29 376.1 500.05 376.55 500.56 377.15C503.55 380.58 498.19 404.52 494.78 409.18C479.04 408.81 463.36 406.72 447.81 404.43C440.32 403.33 415.54 397.04 410.21 398.6C407.8 399.31 406.91 403.71 407.96 405.42C408.35 406.06 416.75 408.53 418.32 408.89L488.25 418.49C490.45 419.88 487.72 423.54 486.8 425.15C482.91 431.92 472.18 442.15 463.69 440.36L409.79 417.42C405.11 416.65 398.46 416.95 403.06 422.59L454.59 446.6C455.52 446.76 455.25 449.24 455.15 449.34C453.29 451.29 436.24 449.68 432.62 449.08C420.82 447.12 410.58 439.68 401.78 437.93C399.23 437.42 396.33 438.23 394.12 437.55C392.53 437.07 385.93 431.27 386.33 437.28C387.03 447.9 403.48 454.8 412.03 458.07C428.59 464.4 446.39 466.97 463.9 463C467.29 462.23 480.17 456.85 481.95 457.78C484.68 459.2 495.64 482.2 497.17 486.41C501.46 498.22 501.43 507.73 504.3 519.04C495.24 519.59 485.41 517.88 476.6 519.93C475.11 519.93 473.62 519.92 472.13 519.93L471.68 519.05L471.23 519.93C469.27 519.95 466.19 519.27 464.98 520.82C458.54 516.55 442.79 511.55 435.08 510.96C432.51 510.76 425 510.57 423 511.46C420.47 512.58 418.27 518.78 420.7 520.87C423.91 523.62 439.52 522.42 445.54 523.73C463.25 527.58 466.38 542.32 463.19 558.36C461.48 559.99 452.05 552.81 449.81 551.64C442.2 547.66 433.53 544.7 426.29 540.31C421.25 537.25 412.31 528.14 408.66 526.67C401.36 523.73 398.63 526.99 403.77 533.34C416.04 548.49 440.38 555.6 455.97 566.92C459.58 571.11 447.37 581.77 444.07 581.59C441.15 581.44 425.86 571.32 422.7 568.92C414.27 562.5 405 552.39 398.5 543.98C394.94 539.38 384.42 521.16 380.33 520.11C376.46 519.11 375.7 522.12 377.01 525.26C378.27 528.28 384.8 537.75 387.05 541.13C394.48 552.29 405.94 566.82 415.84 575.79C418.07 577.82 429.93 585.64 430.15 586.51C431.5 591.93 416.34 587.28 414.08 586.49C391.57 578.64 374.25 554.31 364.16 533.65C362.34 529.93 359.61 520.52 357.4 518.07C354.56 514.94 350.59 516.91 347.06 516.35C329.52 513.55 301.22 501.27 283.62 494.9C283.54 492.87 284.87 492.52 286.02 491.49C321 460.26 342.28 433.16 352.91 385.92C367.31 321.91 340.09 239.19 284.51 202.23C283.18 201.34 281.83 202.6 283.63 200.03C308.77 187.65 341.67 171.96 369.41 166.97L369.37 167Z" fill="#7DCCC1"/>
<path d="M735.73 446.68C732.42 445.18 726.72 442.02 724.57 446.7C721.56 453.27 730.33 453.46 733.88 456.12C740.33 460.94 739.8 473.12 736.6 479.74C735.25 480.74 720.48 468.95 718.32 467.21C715.12 464.63 706.61 455.55 704.2 454.5C699.28 452.35 695.37 458.86 699.5 463.7C705.65 470.9 721.44 479.3 729.04 485.98C729.86 486.7 730.39 487.7 730.9 488.65C728.21 493.5 720.08 502.31 714.25 500.79C709.65 499.59 697.16 489.15 692.81 485.58C688.43 481.99 680.85 472.41 675.54 472.66C666.64 473.08 669.71 476.87 674.05 481.1C683 489.83 695.46 497.26 704.92 505.65C708 511.74 689.91 517.67 685.34 514.48C679.36 511.08 653.41 482.81 649.47 482.42C646.05 482.08 643.61 483.84 643.8 487.37C644.15 493.92 670.07 510.71 675 516.77C679.03 522.31 670.63 523.83 666.37 524.32C659.27 525.13 656.97 523.79 651.71 519.52C643.85 513.13 636.72 503.47 628.98 496.67C610.63 493.23 621.85 504.4 628.47 510.58C630.43 512.41 640.47 519.39 640.86 520.07C641.52 521.24 640.93 522.99 639.51 523.42C635.62 524.61 614.69 517.73 610.01 515.63C605.33 513.53 588.56 501.68 586.77 501.36C584.33 500.93 582.23 505.09 580.69 504.75C578.36 504.23 578.71 493.92 578.35 491.89C564.48 412.27 563.45 323.26 578.7 243.65C581.6 228.51 586.12 203.4 591.81 189.74C596.12 179.4 599.27 186.25 603.69 185.61C606.06 185.27 611.22 181.03 614 179.76C624.77 174.83 637.55 171.02 649.44 170.53C652.46 170.4 665.52 170.04 659.2 174.92C651.51 178.62 641.98 181.09 634.55 185.12C627.57 188.9 624.85 196.24 635.11 196.47C645.04 190.67 655.66 186.08 665.72 180.54C672.2 176.97 673.61 172.2 682.33 177.02C685.95 179.02 684.48 181.85 682.03 184.34C675.97 190.51 659.26 194.86 653.49 202.26C648.45 208.72 656.34 211.02 662.04 208.12C672.94 202.59 684.37 191.13 695.75 185.52C701.36 183.43 707.24 188.54 704.17 194.41L672.72 216.12C667.75 221.15 672.99 226.04 679.63 223.03C688.44 219.04 700.66 206.22 710.94 202.52C716.43 200.54 722.89 201.8 719.69 208.59L690.52 230.34C688.64 232.45 688.07 237.87 691.51 238.48C697.03 239.46 705.71 230.07 710.4 226.98C712.69 225.47 727.22 216.94 728.56 217.9C728.84 218.1 729.55 221.83 729.46 222.74C728.76 230.09 711 238.63 706.73 243.87C704.91 246.1 704.87 250.88 707.72 251.77C714.68 253.93 726.91 235.57 734.78 235.8C736.8 237.19 735.64 256.32 734.13 259.66C732.57 263.12 728.27 263.65 728.47 268.38C728.67 273.11 732.27 271.35 735.71 271.51C734.47 274.83 734.99 272.42 731.91 273.49C730.39 274.02 724.02 282.2 722.85 284.12C698.72 323.69 697.31 405.74 730.35 440.83C732.59 443.21 735.82 443.34 735.7 445.75V446.64L735.73 446.68Z" fill="#7DCCC1"/>
<path d="M593.65 170.57C575.79 184.07 572.62 214.67 568.91 235.63C556.81 304.1 553.99 381.31 560.59 450.69C561.99 465.39 564.09 483.98 567.62 498.17C568.92 503.41 572.17 507.27 571.31 512.8C552.82 516.26 533.83 518.64 515.02 519.95C514.22 495.31 506.24 471.03 490.93 451.69C523.25 427.23 534.38 383.05 523.7 344.62C510.03 295.43 467.79 298.19 431.63 322.64C425.8 326.58 420.4 332.36 414.04 334.98V312.19C414.04 289.05 468.2 258.84 485.06 244.7C504.12 228.72 520.61 209.35 532.14 187.23C536.94 178.02 539.14 166.56 548.08 160.73L593.65 170.56V170.57Z" fill="#B8E1D5"/>
<path d="M195.12 255.46C199.67 253.96 211.27 256.62 216.26 258C248.28 266.91 272.71 301.41 280.13 332.63C289.93 373.86 275.82 423.66 241.52 449.73C231.64 457.24 221.61 460.77 210.32 465.44C184.05 453.39 158.2 437.59 139.75 414.93C132.44 405.96 128 397.34 125.43 385.91C136.58 392.7 156.71 394.74 169.26 391.76C173.54 390.74 187.02 385.35 186.86 380.26C186.49 368.49 172.84 378.06 166.73 379.41C156.24 381.73 144.93 380.34 135.27 375.62C130.9 373.49 128.32 369.08 123.64 370.72C121.83 364.28 123.55 357.58 125.18 351.26C130.3 331.33 142.01 310.99 154.57 294.86C161.07 286.51 186.34 258.35 195.13 255.45L195.12 255.46ZM212.76 283.38C177.43 288.91 182.81 348.56 224.82 342.8C262.39 337.65 255.44 276.7 212.76 283.38Z" fill="#7DCCC1"/>
<path d="M750.03 265.29C745.69 262.25 742.01 267.88 741.53 267.98C738.84 268.54 741.58 264.83 738.88 265.32C735.36 265.96 736.62 269.17 735.73 271.55C732.3 271.38 728.69 272.91 728.49 268.42C728.29 263.69 732.58 263.15 734.15 259.7C735.66 256.36 736.83 237.22 734.8 235.84C726.92 235.61 714.7 253.97 707.74 251.81C704.89 250.92 704.93 246.15 706.75 243.91C711.01 238.67 728.78 230.13 729.48 222.78C729.57 221.88 728.85 218.14 728.58 217.94C727.24 216.98 712.71 225.51 710.42 227.02C705.73 230.11 697.05 239.5 691.53 238.52C688.09 237.91 688.66 232.48 690.54 230.38L719.71 208.63C722.91 201.84 716.45 200.58 710.96 202.56C700.68 206.26 688.46 219.08 679.65 223.07C673.01 226.08 667.77 221.19 672.74 216.16L704.19 194.45C707.26 188.58 701.38 183.47 695.77 185.56C684.39 191.17 672.96 202.62 662.06 208.16C656.36 211.05 648.47 208.76 653.51 202.3C659.28 194.9 675.98 190.55 682.05 184.38C684.5 181.89 685.97 179.05 682.35 177.06C673.63 172.24 672.22 177.01 665.74 180.58C655.68 186.12 645.07 190.71 635.13 196.51C624.87 196.28 627.59 188.94 634.57 185.16C642 181.13 651.53 178.67 659.22 174.96C665.54 170.08 652.49 170.44 649.46 170.57C637.57 171.06 624.78 174.87 614.02 179.8C611.24 181.07 606.08 185.31 603.71 185.65C599.29 186.29 596.13 179.45 591.83 189.78C586.14 203.44 581.62 228.55 578.72 243.69C563.47 323.3 564.5 412.31 578.37 491.93C578.72 493.96 578.37 504.28 580.71 504.79C582.26 505.13 584.35 500.97 586.79 501.4C588.58 501.71 605.22 513.51 610.03 515.67C614.84 517.83 635.64 524.65 639.53 523.46C640.95 523.03 641.54 521.27 640.88 520.11C640.5 519.43 630.45 512.45 628.49 510.62C621.87 504.44 610.65 493.26 629 496.71C636.74 503.5 643.86 513.17 651.73 519.56C656.99 523.83 659.29 525.18 666.39 524.36C670.65 523.87 679.04 522.36 675.02 516.81C670.1 510.74 644.17 493.96 643.82 487.41C643.63 483.88 646.07 482.12 649.49 482.46C653.42 482.85 679.37 511.11 685.36 514.52C689.92 517.71 708.02 511.78 704.94 505.69C695.49 497.29 683.03 489.87 674.07 481.14C669.73 476.91 666.65 473.11 675.56 472.7C680.88 472.45 688.46 482.03 692.83 485.62C697.18 489.19 709.67 499.64 714.27 500.83C720.1 502.35 728.23 493.53 730.92 488.69C730.41 487.74 729.88 486.75 729.06 486.02C721.46 479.34 705.67 470.94 699.52 463.74C695.39 458.91 699.3 452.39 704.22 454.54C706.63 455.59 715.14 464.67 718.34 467.25C720.5 468.99 735.27 480.78 736.62 479.78C739.82 473.16 740.35 460.97 733.9 456.16C730.34 453.5 721.58 453.31 724.59 446.74C726.73 442.06 732.44 445.22 735.75 446.72C769.16 461.85 762.17 503.95 738.44 524.92C694.87 563.41 613.35 551.86 573.08 513.31L571.33 512.85C572.19 507.32 568.95 503.46 567.64 498.22C564.11 484.03 562.01 465.44 560.61 450.74C554.01 381.35 556.83 304.15 568.93 235.68C572.63 214.72 575.81 184.11 593.67 170.62C643.47 132.98 724.83 146.87 754.08 203.66C763.22 221.42 767.54 251.43 750.04 265.33L750.03 265.29Z" fill="#4BAFA1"/>
<path d="M548.08 160.74C539.14 166.57 536.94 178.04 532.14 187.24C520.61 209.36 504.12 228.73 485.06 244.71C468.2 258.84 414.04 289.05 414.04 312.2V334.99C420.4 332.37 425.8 326.59 431.63 322.65C467.78 298.2 510.02 295.44 523.7 344.63C534.38 383.06 523.25 427.24 490.93 451.7C506.24 471.05 514.22 495.32 515.02 519.96C511.43 520.21 507.89 520.86 504.3 520.85C504.22 520.28 504.43 519.56 504.3 519.06C501.43 507.75 501.46 498.23 497.17 486.43C495.64 482.22 484.68 459.23 481.95 457.8C480.17 456.87 467.29 462.25 463.9 463.02C446.39 466.98 428.6 464.41 412.03 458.09C403.48 454.82 387.03 447.92 386.33 437.3C385.93 431.29 392.53 437.09 394.12 437.57C396.33 438.24 399.23 437.44 401.78 437.95C410.59 439.71 420.83 447.15 432.62 449.1C436.24 449.7 453.29 451.3 455.15 449.36C455.25 449.26 455.52 446.78 454.59 446.62L403.06 422.61C398.46 416.97 405.1 416.67 409.79 417.44L463.69 440.38C472.18 442.17 482.91 431.94 486.8 425.17C487.72 423.57 490.45 419.91 488.25 418.51L418.32 408.91C416.75 408.54 408.34 406.07 407.96 405.44C406.92 403.73 407.81 399.33 410.21 398.62C415.54 397.05 440.32 403.34 447.81 404.45C463.36 406.74 479.04 408.84 494.78 409.2C498.19 404.54 503.55 380.6 500.56 377.17C500.04 376.58 496.28 376.12 495.16 376.25C471.06 379.05 443.73 388.48 419.86 390.37C415.52 390.71 407.1 391.81 408.68 385.64C408.92 384.68 414.34 382.92 415.65 382.59C432.43 378.39 450.81 376.61 467.86 373.15C471.88 372.33 497.73 366.85 498.96 365.83C500.96 364.17 498.45 356.19 497.59 353.77C496.65 351.11 492.38 342.93 490.43 341.25C488.48 339.57 481.26 342.7 478.68 343.76C468.01 348.16 456.6 354.31 446.21 359.54C435.82 364.77 422.83 373.85 412.92 377.18C405.27 379.76 406.56 372.14 411.97 368.19C419.45 362.74 433.88 356.15 442.63 351.49C454.65 345.09 467.11 339.28 479.28 333.18C481.06 330.8 471.94 328.96 470.7 328.82C450.04 326.47 430.15 340.19 414.11 351.57C406.99 356.62 390.73 371.88 384.34 374.51C380.85 375.95 377.59 375.66 378.29 371.21L405.11 342.56C400.68 341 402.84 335.71 402.42 331.86C399.34 303.33 406.61 289.03 428.33 271.08C478.28 229.8 502.39 225.43 531.37 161.45C533.89 155.88 539.68 153.01 534.36 146.76C529.81 141.43 524.84 145.12 520.37 148.66C515.18 152.77 506.72 165.72 501.16 166.14C493.9 166.68 496.25 163.24 498.73 159.2C501.21 155.16 516.33 138.81 516.75 136.99C517.3 134.63 506.34 130.39 503.96 130.62C500.62 130.94 493.43 138.78 490.86 141.51C486.19 146.47 476.44 160.55 471.7 163.45C469.07 165.06 464.79 166.27 463.27 162.86L489.8 127.05C489.95 125.97 490.58 124.88 489.45 124.02C487.3 122.39 477.11 120.05 474.4 120.54C470.63 121.23 456.86 142.41 453.34 146.88C447.63 154.13 440.26 167.01 430.14 165.22L431.16 161.33L460.39 119.05C460.82 114.76 445.98 115.22 443.51 117.39C440.09 120.4 433.65 130.86 430.11 135.27C427.7 138.27 424.43 141.3 422.11 144.25C418.53 148.79 409.12 164.89 404.47 165.94C399.82 166.99 397.63 165.54 399.35 160.81C403.64 149 420.5 132.91 426.76 121.2L427.45 117.88C410.78 119.31 393.79 135.06 386.18 149.43C384.33 152.92 381.12 163.76 379.19 165.67C376.81 168.03 372.19 166.51 369.37 167.02C369.83 161.08 373.47 153.87 376.37 148.55C404.32 97.2099 461.83 89.1099 510.82 116.24C526.03 124.66 550.06 141.13 548.08 160.74Z" fill="#4BAFA1"/>
<path d="M271.08 206.31C349.39 260.35 370.81 370.79 313.81 448.75C300.82 466.52 289.67 473.01 273.46 486.14C272.22 487.15 271.05 487.65 271.09 489.57C270.25 489.26 268.34 489.53 266.81 488.96C252.6 483.62 238.15 478.6 224.62 471.7C231.34 471.7 249.66 458.33 255.01 453.39C321.03 392.47 301.7 271.27 213.89 243.84C213.93 241.87 215.21 241.54 216.45 240.6C233.94 227.24 251.8 216.63 271.08 206.31Z" fill="#B8E1D5"/>
<path d="M464.98 520.85C505.48 547.69 477.65 631.43 418.05 609.33C383.24 596.42 356.79 550.52 347.03 516.38C350.57 516.94 354.53 514.97 357.37 518.1C359.58 520.54 362.31 529.95 364.13 533.68C374.22 554.34 391.54 578.67 414.05 586.52C416.32 587.31 431.47 591.96 430.12 586.54C429.9 585.67 418.05 577.85 415.81 575.82C405.91 566.85 394.45 552.32 387.02 541.16C384.77 537.78 378.24 528.31 376.98 525.29C375.67 522.15 376.43 519.14 380.3 520.14C384.39 521.19 394.91 539.41 398.47 544.01C404.97 552.42 414.25 562.53 422.67 568.95C425.83 571.36 441.12 581.47 444.04 581.62C447.35 581.8 459.56 571.14 455.94 566.95C440.34 555.63 416.01 548.52 403.74 533.37C398.59 527.02 401.33 523.76 408.63 526.7C412.28 528.17 421.22 537.28 426.26 540.34C433.5 544.73 442.17 547.69 449.78 551.67C452.02 552.84 461.45 560.03 463.16 558.39C466.36 542.35 463.22 527.62 445.51 523.76C439.49 522.45 423.88 523.64 420.67 520.9C418.24 518.82 420.44 512.62 422.97 511.49C424.97 510.6 432.48 510.8 435.05 510.99C442.76 511.58 458.51 516.58 464.95 520.85H464.98Z" fill="#4BAFA1"/>
<path d="M283.59 200.06C281.8 202.63 283.14 201.38 284.47 202.26C340.05 239.22 367.27 321.94 352.87 385.95C342.24 433.19 320.96 460.29 285.98 491.52C284.83 492.55 283.5 492.9 283.58 494.93C279.08 493.3 274.5 490.85 271.07 489.57C271.04 487.64 272.2 487.14 273.44 486.14C289.65 473.01 300.8 466.52 313.79 448.75C370.79 370.8 349.38 260.35 271.06 206.31C275.16 204.11 279.41 202.1 283.57 200.06H283.59Z" fill="#4BAFA1"/>
<path d="M213.89 243.84C301.69 271.27 321.02 392.47 255.01 453.39C249.66 458.33 231.34 471.7 224.62 471.7C221 471.7 214.07 467.16 210.32 465.45C221.62 460.78 231.65 457.25 241.52 449.74C275.82 423.67 289.93 373.87 280.13 332.64C272.71 301.42 248.28 266.92 216.26 258.01C211.27 256.62 199.68 253.97 195.12 255.47C200.21 250.27 206.95 246.31 213.88 243.85L213.89 243.84Z" fill="#4BAFA1"/>
<path d="M125.43 385.92C119.75 382.46 115.24 373.67 123.64 370.73C128.32 369.09 130.91 373.5 135.27 375.63C144.93 380.34 156.24 381.74 166.73 379.42C172.84 378.07 186.49 368.5 186.86 380.27C187.02 385.36 173.54 390.76 169.26 391.77C156.71 394.75 136.58 392.71 125.43 385.92Z" fill="#4BAFA1"/>
<path d="M212.76 283.38C255.44 276.7 262.4 337.66 224.82 342.8C182.81 348.55 177.43 288.9 212.76 283.38ZM215.46 293.22C201.21 295.04 193.79 312.36 201.88 324.2C207.91 333.01 221.28 335.18 229.91 329.12C247.25 316.94 236.46 290.54 215.45 293.22H215.46Z" fill="#FFFEF6"/>
<path d="M215.46 293.22C236.46 290.54 247.26 316.94 229.92 329.12C221.28 335.19 207.91 333.02 201.89 324.2C193.79 312.36 201.22 295.03 215.47 293.22H215.46Z" fill="#4BAFA1"/>
</g>
</g>
<defs>
<clipPath id="clip0_504_7906">
<rect width="669" height="516" fill="white"/>
</clipPath>
<clipPath id="clip1_504_7906">
<rect width="840.42" height="512" fill="white" transform="translate(119 101)"/>
</clipPath>
</defs>
</svg>
