<svg width="669" height="516" viewBox="0 0 669 516" fill="none" xmlns="http://www.w3.org/2000/svg">
<g clip-path="url(#clip0_504_11401)">
<rect width="669" height="516" fill="#D9D9D9" fill-opacity="0.6"/>
<g clip-path="url(#clip1_504_11401)">
<path d="M457.155 453.973C458.362 453.787 458.331 452.592 458.702 451.767C460.558 447.594 462.095 442.492 463.487 438.092C486.092 366.931 484.752 294.513 527.724 230.268C536.139 217.674 547.122 207.636 555.516 195.847C562.023 186.726 560.291 179.244 570.737 172.102C601.015 151.429 670.5 182.594 667.819 221.281C667.324 228.382 662.756 232.133 661.724 239.11C660.208 249.416 661.116 261.236 660.27 271.83C656.207 322.555 639.398 355.481 608.285 394.159C602.716 401.084 593.229 410.112 588.794 417.048C588.217 417.954 587.443 418.398 587.794 419.799C598.086 411.266 610.172 404.001 619.938 394.859C621.681 393.231 624.331 390.83 625.703 388.996C631.189 381.658 631.086 377.237 641.677 374.197C677.925 363.808 733.365 418.748 715.587 454.89C711.998 462.176 704.387 465.865 700.386 473.873C689.867 494.897 685.732 517.013 671.789 537.562C630.261 598.778 553.02 616.05 507.491 676.833C490.093 700.062 481.782 726.249 448.606 728.712C407.016 731.793 396.982 709.44 370.664 684.964C319.019 636.919 240.892 614.071 216.926 541.293C213.966 532.316 212.677 520.774 209.428 512.56C207.861 508.593 204.427 505.996 202.622 502.275C189.958 476.14 216.142 444.626 239.685 435.155C222.061 410.369 207.18 385.656 202.261 355.007C199.302 336.571 201.127 316.33 197.878 298.563C196.569 291.421 191.815 286.578 191.134 278.653C187.618 237.461 267.447 199.268 293.692 232.885C297.611 237.904 297.838 242.81 300.663 247.787C308.305 261.226 324.928 273.386 332.56 287.67L342.253 302.232C336.767 283.496 328.466 265.472 323.846 246.478C316.565 216.551 317.648 182.429 324.011 152.419C326.661 139.907 331.735 127.056 333.292 114.525C334.519 104.641 330.899 96.8607 334.22 87.431C348.297 47.3626 442.171 35.4389 448.957 82.4946C449.235 84.4114 448.751 86.5653 449.019 88.5852C450.081 96.4072 466.024 119.647 470.52 128.612C501.159 189.787 489.372 251.477 478.946 316.124C471.531 362.036 461.012 407.515 457.176 453.952L457.155 453.973ZM392.042 62.5428C361.239 65.078 317.576 98.8703 363.291 118.884C375.223 124.109 393.806 124.068 406.212 120.45C419.071 116.709 438.149 103.91 439.387 89.3582C441.46 64.9956 409.852 61.0691 392.032 62.5325L392.042 62.5428ZM444.605 104.095C443.45 104.404 441.253 108.558 440.068 109.856C416.72 135.311 381.142 141.567 350.555 124.779C342.872 120.564 343.862 116.38 340.542 127.943C334.973 147.338 330.085 171.7 329.239 191.827C326.908 247.282 352.514 294.101 368.437 345.454C392.228 422.231 398.271 503.038 412.904 581.918C417.463 606.466 423.423 630.777 427.548 655.449C430.632 673.885 431.941 693.703 435.468 711.779C436.066 714.82 437.118 721.075 440.707 716.149C436.334 678.76 433.55 641.01 434.561 603.281C435.241 577.651 438.665 552.845 440.738 527.442C444.131 486.013 445.781 444.265 452.566 403.259C458.774 365.777 466.633 328.501 472.088 290.855C478.358 247.591 485.288 200.608 471.717 158.179C465.694 139.361 455.516 122.182 446.564 104.724C446.069 104.003 445.43 103.889 444.615 104.106L444.605 104.095ZM591.744 176.688C560.858 179.574 567.437 209.172 584.68 225.032C598.643 237.883 625.93 246.633 643.853 238.337C658.703 231.463 659.92 214.387 650.577 202.236C637.48 185.18 613.132 174.689 591.744 176.699V176.688ZM561.776 207.245C560.435 206.317 557.857 209.388 556.98 210.295C501.025 268.337 497.147 347.495 478.296 421.448C470.201 453.22 458.3 484.467 452.556 516.703C443.419 568.036 441.161 632.828 446.894 684.624C447.606 691.044 449.225 697.733 450.308 704.112L459.527 659.004C484.339 574.044 514.978 489.63 572.057 420.83C589.506 399.796 607.708 381.05 622.248 357.532C642.77 324.327 652.526 285.32 649.999 246.19C641.172 249.828 633.375 252.198 623.64 251.683C599.592 250.405 574.47 236.389 564.013 214.222C563.426 212.964 562.064 207.441 561.765 207.234L561.776 207.245ZM255.938 231.36C233.745 233.452 197.6 255.589 203.035 281.775C205.541 293.874 221.288 297.275 231.796 296.77C254.731 295.667 286.432 279.817 289.402 254.548C291.856 233.648 272.52 229.794 255.948 231.36H255.938ZM420.206 674.05C416.751 639.063 407.872 604.92 396.291 571.859C387.845 547.754 376.171 523.897 369.798 499.225C357.103 450.067 363.776 397.415 349.441 348.02C340.768 318.154 321.422 284.692 299.467 262.638C298.9 262.071 298.858 261.659 297.807 261.916C289.165 294.142 246.584 314.042 215.585 304.778C213.76 304.231 209.635 301.284 208.521 302.912C209.841 325.224 210.181 347.525 216.07 369.219C220.896 386.976 231.951 409.329 244.099 423.221C247.389 426.982 251.143 431.64 256.433 431.455C267.199 431.074 274.191 430.919 283.07 438.267C289.845 443.873 289.959 448.851 294.373 454.993C298.786 461.135 306.387 467.504 311.45 473.471C337.004 503.502 345.028 534.151 359.908 569.262C373.356 600.993 393.476 626.108 410.068 655.83C413.42 661.838 416.06 668.609 420.206 674.061V674.05ZM365.498 367.848C364.322 367.89 364.054 367.385 364.291 368.714C372.201 414.337 368.891 463.351 382.802 507.428C385.545 516.106 389.835 528.709 393.898 536.665C394.301 537.459 394.528 538.562 395.59 538.727C386.443 481.633 380.173 423.839 365.498 367.859V367.848ZM649.184 383.09C631.23 385.069 631.014 404.928 636.222 418.212C641.574 431.877 656.176 446.831 668.964 453.839C697.798 469.637 718.309 451.994 703.964 421.592C695.879 404.454 669.201 380.885 649.184 383.09ZM624.022 406.124C622.98 405.897 622.413 406.361 621.578 406.762C612.668 411.05 590.537 430.785 583.226 438.483C552.371 470.967 545.307 505.151 526.806 543.745C511.523 575.641 488.722 602.282 476.46 635.6C470.613 651.512 459.28 692.673 461.301 708.502C461.837 712.727 462.858 714.15 467.117 712.367C477.285 708.121 496.828 673.978 505.036 663.466C540.532 618.029 590.156 601.457 632.55 565.346C661.312 540.839 677.1 512.715 688.32 476.862C688.991 474.728 691.198 470.967 687.959 470.369C680.71 469.029 675.801 468.741 668.696 465.69C651.804 458.445 630.725 435.33 625.888 417.563C624.868 413.801 624.238 409.998 624.012 406.103L624.022 406.124ZM279.089 447.367C257.66 424.231 199.095 464.742 211.976 496.329C222.36 521.815 259.279 503.09 272.159 488.837C280.719 479.366 289.082 458.157 279.089 447.367ZM421.588 713.686C423.733 711.594 407.501 672.649 405.077 667.65C393.455 643.618 376.13 623.12 363.786 599.561C344.656 563.079 336.014 522.073 311.357 488.61C309.429 485.992 296.105 469.658 294.589 469.143C293.878 468.895 293.083 468.947 292.362 469.029C286.731 499.153 251.937 525.762 221.216 516.167C224.753 544.034 239.52 568.572 258.475 588.627C286.793 618.575 326.692 635.971 358.991 661.776C374.15 673.885 384.793 686.417 398.302 699.711C404.706 706.018 411.77 714.232 421.598 713.686H421.588ZM499.56 572.21C500.437 572.014 501.014 571.086 501.489 570.386C509.914 558.142 516.133 542.839 522.928 529.616L541.264 482.674C531.849 496.308 524.393 511.767 517.432 526.854C512.936 536.614 508.388 546.992 504.51 556.999C502.623 561.873 500.22 567.077 499.56 572.21Z" fill="#0F8B87"/>
<path d="M444.605 104.095C445.409 103.879 446.059 103.982 446.554 104.714C455.505 122.171 465.684 139.361 471.706 158.169C485.288 200.598 478.358 247.571 472.077 290.844C466.622 328.491 458.764 365.767 452.556 403.248C445.77 444.255 444.11 486.013 440.727 527.432C438.644 552.835 435.231 577.641 434.55 603.271C433.55 641 436.334 678.75 440.697 716.139C437.118 721.065 436.056 714.809 435.458 711.769C431.921 693.693 430.621 673.875 427.538 655.438C423.413 630.767 417.442 606.455 412.894 581.907C398.261 503.028 392.217 422.221 368.427 345.444C352.514 294.091 326.898 247.272 329.229 191.817C330.074 171.69 334.962 147.328 340.531 127.932C343.852 116.369 342.862 120.553 350.545 124.768C381.132 141.546 416.71 135.301 440.057 109.846C441.243 108.547 443.45 104.404 444.595 104.085L444.605 104.095Z" fill="#91D3CF"/>
<path d="M561.775 207.245C562.074 207.451 563.435 212.975 564.023 214.232C574.49 236.41 599.601 250.415 623.65 251.693C633.385 252.208 641.181 249.838 650.009 246.2C652.535 285.341 642.78 324.348 622.258 357.543C607.717 381.06 589.505 399.806 572.067 420.84C514.998 489.641 484.349 574.054 459.537 659.014L450.318 704.122C449.225 697.743 447.605 691.055 446.904 684.634C441.17 632.828 443.429 568.036 452.566 516.714C458.3 484.478 470.2 453.231 478.306 421.458C497.157 347.505 501.035 268.337 556.99 210.306C557.867 209.399 560.445 206.328 561.785 207.255L561.775 207.245Z" fill="#91D3CF"/>
<path d="M420.205 674.05C416.06 668.599 413.43 661.828 410.068 655.82C393.475 626.098 373.355 600.993 359.908 569.252C345.027 534.141 337.004 503.502 311.45 473.461C306.386 467.504 298.827 461.187 294.372 454.983C289.917 448.779 289.835 443.863 283.07 438.257C274.191 430.909 267.199 431.063 256.432 431.445C251.152 431.63 247.388 426.972 244.099 423.21C231.951 409.318 220.896 386.955 216.069 369.209C210.181 347.515 209.83 325.214 208.521 302.902C209.634 301.274 213.749 304.221 215.585 304.767C246.584 314.042 289.164 294.142 297.806 261.906C298.858 261.659 298.899 262.061 299.466 262.627C321.432 284.682 340.778 318.134 349.441 348.01C363.775 397.405 357.113 450.057 369.798 499.215C376.171 523.886 387.845 547.734 396.29 571.849C407.871 604.91 416.75 639.052 420.205 674.04V674.05Z" fill="#91D3CF"/>
<path d="M624.022 406.124C624.249 410.019 624.878 413.822 625.899 417.583C630.736 435.35 651.814 458.466 668.706 465.711C675.801 468.751 680.72 469.04 687.97 470.39C691.208 470.987 689.001 474.759 688.331 476.882C677.111 512.736 661.333 540.86 632.561 565.367C590.166 601.478 540.543 618.049 505.047 663.487C496.838 673.999 477.286 708.141 467.128 712.387C462.879 714.16 461.858 712.748 461.312 708.523C459.29 692.693 470.624 651.532 476.471 635.62C488.722 602.302 511.523 575.662 526.817 543.766C545.307 505.171 552.371 470.977 583.236 438.504C590.558 430.795 612.689 411.07 621.588 406.783C622.424 406.381 622.981 405.917 624.033 406.144L624.022 406.124Z" fill="#91D3CF"/>
<path d="M421.587 713.686C411.759 714.221 404.695 706.008 398.291 699.711C384.782 686.417 374.139 673.885 358.98 661.776C326.671 635.971 286.782 618.575 258.464 588.626C239.499 568.572 224.742 544.034 221.205 516.167C251.936 525.751 286.72 499.142 292.351 469.029C293.083 468.947 293.877 468.905 294.579 469.142C296.094 469.658 309.418 486.002 311.347 488.61C336.004 522.072 344.646 563.089 363.775 599.561C376.13 623.109 393.444 643.617 405.067 667.65C407.49 672.648 423.722 711.583 421.577 713.686H421.587Z" fill="#91D3CF"/>
<path d="M392.042 62.5425C409.852 61.0791 441.47 64.9953 439.397 89.3682C438.16 103.909 419.082 116.709 406.222 120.46C393.806 124.078 375.233 124.119 363.301 118.894C317.586 98.8803 361.239 65.088 392.053 62.5528L392.042 62.5425ZM394.094 71.426C380.843 72.5081 351.927 81.9172 354.732 99.4265C355.268 102.745 357.898 105.414 360.496 107.331C377.141 119.657 412.502 114.988 424.888 98.1074C440.48 76.8571 409.697 70.1584 394.094 71.4363V71.426Z" fill="#91D3CF"/>
<path d="M591.744 176.688C613.142 174.689 637.48 185.18 650.576 202.226C659.92 214.376 658.703 231.463 643.853 238.327C625.919 246.623 598.643 237.863 584.68 225.022C567.437 209.162 560.847 179.574 591.744 176.678V176.688ZM597.9 185.572C580.111 186.293 575.347 196.97 585.164 211.563C594.322 225.177 617.515 235.441 633.633 231.525C650.102 227.516 650.236 213.356 639.088 202.793C629.25 193.456 611.523 185.026 597.9 185.572Z" fill="#91D3CF"/>
<path d="M255.937 231.36C272.52 229.794 291.856 233.638 289.391 254.548C286.421 279.807 254.721 295.667 231.786 296.77C221.277 297.275 205.54 293.874 203.024 281.775C197.589 255.589 233.735 233.462 255.927 231.36H255.937ZM257.969 239.553C242.469 241.181 209.459 259.546 212.346 277.942C213.306 284.032 221.721 287.248 227.083 287.814C241.448 289.309 259.743 282.043 270.107 272.201C285.885 257.196 282.946 236.946 257.969 239.563V239.553Z" fill="#91D3CF"/>
<path d="M649.184 383.09C669.201 380.885 695.879 404.454 703.964 421.592C718.309 451.994 697.787 469.637 668.963 453.839C656.176 446.831 641.573 431.878 636.221 418.212C631.024 404.928 631.23 385.059 649.184 383.09ZM649.834 393.293C646.111 394.045 642.924 397.972 642.502 401.682C640.367 420.088 661.446 444.162 678.379 449.212C703.789 456.776 701.664 433.887 691.754 418.758C683.762 406.546 665.663 390.088 649.834 393.303V393.293Z" fill="#91D3CF"/>
<path d="M279.089 447.367C289.072 458.147 280.708 479.366 272.159 488.837C259.279 503.09 222.36 521.815 211.975 496.329C199.105 464.742 257.67 424.231 279.089 447.367ZM257.278 450.046C245.439 451.438 233.59 460.651 226.382 469.751C219.173 478.851 213.388 495.072 228.475 499.05C246.842 503.893 279.646 478.562 273.892 458.384C272.066 451.973 263.363 449.335 257.278 450.046Z" fill="#91D3CF"/>
<path d="M394.094 71.4261C409.697 70.1585 440.48 76.8469 424.887 98.0972C412.502 114.978 377.14 119.646 360.496 107.321C357.897 105.394 355.268 102.735 354.731 99.4163C351.926 81.907 380.853 72.4979 394.094 71.4158V71.4261Z" fill="#0F8B87"/>
<path d="M597.901 185.572C611.524 185.025 629.241 193.455 639.089 202.792C650.226 213.356 650.103 227.526 633.634 231.525C617.526 235.441 594.333 225.187 585.165 211.562C575.347 196.959 580.112 186.283 597.901 185.572Z" fill="#0F8B87"/>
<path d="M257.969 239.553C282.946 236.935 285.896 257.186 270.107 272.191C259.753 282.033 241.449 289.299 227.083 287.804C221.721 287.248 213.296 284.022 212.347 277.931C209.459 259.536 242.47 241.171 257.969 239.543V239.553Z" fill="#0F8B87"/>
<path d="M649.834 393.293C665.674 390.078 683.762 406.536 691.754 418.748C701.664 433.877 703.789 456.766 678.379 449.201C661.435 444.162 640.367 420.077 642.502 401.672C642.935 397.972 646.111 394.045 649.834 393.283V393.293Z" fill="#0F8B87"/>
<path d="M257.279 450.046C263.363 449.325 272.067 451.973 273.892 458.383C279.647 478.562 246.843 503.893 228.476 499.049C213.378 495.071 219.37 478.603 226.383 469.75C233.395 460.898 245.44 451.448 257.279 450.046Z" fill="#0F8B87"/>
</g>
</g>
<defs>
<clipPath id="clip0_504_11401">
<rect width="669" height="516" fill="white"/>
</clipPath>
<clipPath id="clip1_504_11401">
<rect width="528" height="677" fill="white" transform="translate(191 52)"/>
</clipPath>
</defs>
</svg>
