<svg width="669" height="516" viewBox="0 0 669 516" fill="none" xmlns="http://www.w3.org/2000/svg">
<g clip-path="url(#clip0_504_11317)">
<rect width="669" height="516" fill="#D9D9D9" fill-opacity="0.6"/>
<g clip-path="url(#clip1_504_11317)">
<path d="M622.1 136.022C622.643 136.701 623.774 136.361 624.181 138.616C625.935 148.46 614.315 154.577 609.552 162.19C606.678 159.052 607.979 162.869 607.278 164.648C606.723 166.052 605.038 165.883 604.393 167.231C595.737 185.129 592.4 210.697 605.377 227.1C617.234 242.076 643.121 252.667 659.663 263.304C691.976 284.08 721.665 309.965 747.586 338.07C749.781 340.449 751.569 342.148 753.865 344.357C754.216 344.697 754.544 345.082 754.906 345.399L755.947 346.442C756.309 346.77 756.637 347.155 756.988 347.484L758.052 350.622C759.24 350.803 759.013 349.568 759.081 349.579C760.778 349.885 779.39 372.02 782.06 375.26C812.699 412.485 840.815 455.192 860.513 499.292C858.737 499.904 860.276 502.69 860.74 503.767C869.01 522.56 874.928 542.373 881.32 560.86C884.522 570.138 885.812 578.294 893.97 584.094C896.38 585.805 899.763 587.991 902.331 589.328C899.853 589.996 905.578 592.59 905.804 592.67C919.381 597.337 932.845 601.777 945.789 607.056C951.921 609.56 957.126 611.961 962.828 615.371C963.62 615.847 964.899 618.6 966.098 615.507C975.704 621.103 983.115 626.79 991.193 634.357L990.152 635.388H992.245C992.596 635.739 992.947 636.09 993.286 636.442C998.276 644.949 1011.91 656.447 1010.05 667.299C1009.14 672.635 1000.28 670.641 996.816 669.01C990.322 665.94 984.156 662.145 976.53 660.027C955.429 654.17 938.729 658.69 917.741 657.115L903.36 653.196C901.369 652.142 897.828 649.106 896.527 648.97C889.897 648.279 887.803 656.232 884.432 659.891C873.853 671.344 857.47 675.15 846.031 690.545C844.334 692.833 838.304 704.422 837.489 704.501C837.41 704.501 836.957 703.538 836.459 703.436C837.195 704.558 833.619 709.531 833.303 709.735C832.284 710.414 825.903 709.587 824.817 707.956C823.991 706.721 821.966 694.589 821.807 692.448C820.563 675.399 823.154 661.409 828.098 645.368C828.528 643.986 830.078 641.562 828.075 640.633C830.576 634.244 832.567 630.506 836.437 624.932C839.593 620.39 844.232 616.549 846.359 611.304C847.095 609.492 849.29 601.777 849.063 600.452C848.871 599.319 847.027 599.954 846.891 599.806C846.484 599.387 843.983 591.424 842.524 588.999C831.379 570.512 790.965 534.681 773.133 520.283C765.938 514.472 753.152 507.743 749.645 500.345C735.921 471.334 689.759 435.719 662.129 418.896C632.599 400.919 603.216 391.505 572.939 376.812C571.287 376.008 567.531 372.315 565.619 374.717C564.895 374.388 564.216 373.98 563.526 373.674C555.266 369.913 545.989 366.311 537.175 363.932C535.647 363.524 533.192 362.244 532.163 364.249C506.219 356.286 479.812 350.769 453.744 343.315C448.709 341.876 446.876 341.004 441.196 340.177C440.528 340.075 439.77 340.279 439.103 340.177C430.629 337.232 420.208 334.966 411.259 334.026C409.267 333.822 405.997 333.074 404.594 334.932C389.252 332.904 375.902 332.01 360.673 330.741C359.077 330.163 355.004 327.569 353.884 327.558C353.239 327.558 353.42 329.699 352.775 329.755C351.78 329.846 347.378 328.056 345.33 327.75C329.321 325.337 305.991 323.808 290.219 326.685C288.42 327.014 286.723 327.263 285.388 328.645C271.279 331.454 261.729 337.447 244.611 339.112C240.074 337.322 233.308 337.866 228.352 338.07C226.338 338.149 224.155 336.994 224.743 340.166C224.053 340.211 223.34 340.109 222.65 340.166C213.508 337.662 201.209 340.2 192.113 342.567C162.526 350.27 141.482 360.398 109.191 363.185C99.6867 364 89.9112 363.4 80.4412 364.238C79.2758 360.636 80.4638 357.339 82.308 354.077C89.4926 341.435 112.924 335.782 125.777 329.551C132.464 326.311 140.033 324.306 142.443 316.92C149.718 294.627 146.822 289.167 164.087 270.022C164.653 272.299 166.328 269.252 166.181 267.926C168.466 265.536 169.801 263.916 172.46 261.639C175.436 261.696 176.182 258.977 177.687 257.448C186.773 248.306 198.822 241.509 210.102 235.46C210.974 237.295 215.59 234.712 216.631 234.135C242.948 219.521 280.477 210.674 310.019 206.211C317.746 205.044 325.949 205.35 333.484 203.005C333.835 203.005 334.186 203.005 334.525 203.005C341.574 202.812 350.399 204.534 356.486 200.909C357.176 200.875 357.878 200.943 358.579 200.909H419.224C421.656 200.954 424.112 200.852 426.544 200.909C427.913 203.05 430.085 202.903 432.246 203.05C440.721 203.639 449.874 202.506 458.428 203.005L456.866 200.909C457.907 200.864 458.959 200.966 460 200.909C463.315 200.728 478.295 200.683 480.909 197.76C481.531 197.069 479.857 196.797 479.868 196.729C480.004 195.913 492.054 190.238 494.418 188.788C515.203 175.987 533.011 159.947 555.153 148.573L573.957 142.796C585.781 137.811 605.456 131.547 617.744 135.648C618.762 135.988 621.534 137.528 622.077 136.01L622.1 136.022ZM308.174 253.472C299.146 254.525 302.992 266.08 310.89 261.515C315.619 258.773 313.65 252.826 308.174 253.472ZM370.029 262.591C370.901 261.413 368.366 254.808 366.307 254.446C364.927 254.208 363.467 255.998 362.042 256.224C360.152 256.53 357.606 254.163 356.667 257.097C356.317 258.207 356.158 260.461 356.724 261.447C356.928 261.786 363.094 265.615 363.49 265.683C363.852 265.74 369.803 262.885 370.018 262.602L370.029 262.591ZM404.255 260.96C398.247 263.236 401.868 271.415 404.187 271.948C413.555 274.066 414.641 257.017 404.255 260.96ZM513.347 263.758C510.337 263.135 507.237 265.049 504.443 264.89C501.648 264.732 501.128 262.693 498.718 262.704C498.027 269.66 500.585 276.853 508.719 273.239C514.637 270.611 511.288 268.685 511.197 265.366C511.163 264.245 513.834 265.525 513.347 263.746V263.758ZM450.53 274.123C453.223 270.373 444.658 260.642 439.114 263.746C441.502 268.221 433.434 278.28 442.712 277.34C443.131 277.295 450.281 274.463 450.53 274.123ZM566.286 276.751C560.742 273.658 562.326 276.298 560.731 277.385C558.106 279.164 555.368 277.272 558.242 283.197C558.898 284.545 563.062 289.642 564.216 289.846C567.678 290.458 571.695 279.787 566.286 276.762V276.751ZM350.116 286.652C350.897 285.983 351.734 280.501 350.252 278.915C347.129 275.55 344.233 279.266 340.816 279.458C341.936 280.806 342.694 286.448 342.966 286.72C343.215 286.98 349.754 286.958 350.116 286.663V286.652ZM314.273 279.889C312.281 278.949 310.992 277.861 308.412 278.394C306.907 288.838 306.183 299.328 319.964 293.46C320.066 290.197 320.054 284.794 317.871 282.222C317.735 282.064 314.465 279.979 314.273 279.889ZM295.683 282.789C295.027 281.656 288.816 279.572 287.594 280.602C284.335 287.286 289.393 288.51 294.812 290.956C294.303 288.691 296.69 284.545 295.683 282.789ZM375.358 289.88C377.327 291.024 380.767 285.054 380.631 283.129C380.337 278.767 373.82 280.75 371.149 281.543C370.459 285.428 374.487 286.776 375.358 289.88ZM397.161 292.135C396.754 291.432 389.513 287.966 387.883 288.872C384.41 299.713 400.487 297.878 397.161 292.135ZM473.577 291.07C473.374 290.786 467.287 288.815 466.936 288.827C466.393 288.861 466.359 290.265 465.895 290.549C463.949 291.761 462.399 289.699 463.236 294.536C464.458 301.627 469.368 299.135 474.675 298.263C473.498 296.949 473.804 291.364 473.577 291.058V291.07ZM537.888 291.523C532.593 286.074 532.977 291.455 527.003 293.143L531.144 303.531C539.902 302.998 545.321 299.169 537.888 291.523ZM503.334 298.048C502.994 297.391 503.843 296.405 502.938 295.726C500.596 293.958 496.511 292.157 494.022 289.914C485.073 301.582 496.206 315.142 504.907 299.758C505.506 297.844 503.515 298.41 503.323 298.036L503.334 298.048ZM439.917 314.791C440.653 314.043 442.203 306.272 442.203 304.935C442.203 300.166 435.505 295.476 430.764 298.841C424.994 302.93 433.265 321.588 439.917 314.791ZM236.001 305.796C223.408 307.869 222.345 330.208 239.474 326.096C252.044 323.072 248.741 303.689 236.001 305.796ZM589.594 307.801C587.58 307.722 584.898 306.238 583.043 306.612C582.285 306.77 582.409 308.764 581.787 308.798C580.542 308.866 577.657 306.045 578.166 309.285C578.89 313.839 582.681 315.72 586.901 316.15C588.96 313.941 590.307 310.86 589.582 307.79L589.594 307.801ZM332.579 318.065C332.794 318.314 337.229 319.197 338.123 319.152C350.467 318.574 340.986 303.565 333.111 309.704C332.025 310.554 332.183 317.6 332.579 318.065ZM381.615 316.082C384.014 309.013 371.331 304.006 370.256 311.608C369.554 316.592 378.323 316.15 381.615 316.082ZM409.471 310.226C403.961 307.224 401.03 310.192 399.616 315.844C398.734 319.367 399.82 319.922 402.999 320.33C411.089 321.361 408.43 317.804 410.104 316.286C411.27 315.221 414.494 317.725 412.209 313.239C412.062 312.944 409.652 310.328 409.471 310.226ZM618.626 309.115C607.368 309.274 614.723 321.361 622.405 319.028C627.542 317.464 625.539 309.025 618.626 309.115ZM295.514 311.234C290.06 307.507 290.784 311.823 289.347 312.718C288.182 313.443 285.716 312.65 285.388 312.944C285.15 313.16 285.263 317.385 285.851 318.246C288.261 321.735 300.956 316.898 298.965 314.032C296.838 314.224 296.328 311.8 295.502 311.234H295.514ZM553.094 320.285C548.308 319.56 541.157 315.618 541.565 323.842C542.119 334.728 553.275 328.6 553.094 320.285ZM467.649 320.987C467.094 320.659 467.683 319.186 466.834 319.231C453.28 324.544 468.429 337.662 473.713 331.364C477.062 327.388 470.817 324.782 467.343 324.454L470.477 322.358C470.771 320.545 468.893 321.724 467.649 320.987ZM516.741 344.097C520.034 347.54 525.408 342.601 526.505 339.169C528.814 331.919 520.509 325.371 519.626 334.932L518.586 331.783C512.148 329.97 515.022 342.295 516.741 344.097ZM639.557 339.441C638.562 338.557 633.561 336.337 632.588 337.039C631.253 338.002 628.006 353.363 631.524 355.867C634.285 356.795 634.285 353.001 634.67 352.74C636.91 351.199 637.781 356.931 638.811 355.855C638.166 353.046 641.368 354.122 641.809 353.669C642.114 353.352 642.816 345.671 642.737 344.992C642.635 344.108 640.259 340.064 639.557 339.441ZM615.537 339.452C613.207 338.704 610.876 339.203 608.511 339.124L611.645 343.292L606.418 342.261C605.796 351.517 618.14 349.002 617.913 341.854C617.913 341.684 615.696 339.497 615.537 339.452ZM675.435 344.346C668.873 343.995 665.343 343.066 666.033 351.052C666.915 361.361 679.157 354.213 675.435 344.346ZM573.754 354.031C570.235 352.208 565.709 361.723 568.719 363.774C570.631 365.076 577.51 364.249 578.777 362.154C579.456 361.032 578.461 356.342 578.019 356.014C577.352 355.515 575.564 356.195 574.817 355.821C573.776 355.311 573.946 354.133 573.754 354.031ZM723.43 362.312C722.287 360.262 714.978 359.344 712.659 360.998C711.188 362.052 709.547 371.375 713.734 372.326C714.469 372.496 722.061 371.975 722.366 371.443C722.604 371.046 723.656 362.709 723.43 362.301V362.312ZM659.527 374.501C659.991 373.346 657.536 368.452 656.597 367.863C655.658 367.274 651.992 368.463 650.34 367.387C649.729 372.542 650.238 378.126 656.891 376.79C657.061 376.756 659.459 374.671 659.527 374.501ZM636.74 376.824C630.959 377.832 627.644 381.683 629.431 387.291C633.21 386.407 640.655 386.747 638.709 381.638C637.883 379.474 633.991 381.094 636.74 376.824ZM698.301 391.335C698.561 391.176 700.36 386.475 700.485 385.626C702.555 370.718 685.312 380.732 688.084 388.707C688.695 390.485 697.294 391.958 698.301 391.335ZM659.731 381.015C657.739 379.508 655.205 385.297 655.737 387.517C657.705 395.776 666.666 393.589 665.908 390.123C665.784 389.579 663.883 384.606 663.679 384.379C662.978 383.564 661.292 383.745 660.455 383.133C659.516 382.431 659.821 381.083 659.731 381.015ZM736.079 390.417C734.937 391.811 737.03 396.195 737.086 397.26C737.12 397.803 734.36 396.795 734.009 398.256C734.348 404.464 740.017 405.903 744.452 402.448C745.481 401.644 744.61 393.068 743.897 391.482C742.223 387.801 740.356 390.576 738.636 390.927C737.867 391.086 736.294 390.134 736.068 390.417H736.079ZM665.897 400.001C661.168 396.557 663.057 412.677 669.608 410.242C671.384 409.585 670.773 407.036 671.52 406.322C672.267 405.608 675.265 407.036 674.383 404.566C672.606 399.582 668.511 402.255 666.655 402.017C665.886 401.915 666.078 400.137 665.897 400.001ZM692.293 403.807C691.795 403.331 692.893 401.508 691.128 401.938C692.542 406.537 685.267 413.142 690.392 414.138C693.391 414.716 691.433 414.739 692.384 415.226C696.095 417.152 704.716 407.863 697.656 404.238C695.144 402.946 692.485 403.988 692.293 403.796V403.807ZM722.48 419.735C720.794 419.78 718.52 417.967 716.483 419.995C713.643 422.804 716.211 423.677 717.252 424.968C719.187 427.37 723.679 430.508 726.202 427.098C726.575 426.588 724.833 419.021 724.561 418.692C724.03 418.069 722.593 419.735 722.48 419.735ZM762.215 422.884C758.979 421.989 760.767 424.719 759.862 425.682C756.965 428.763 751.342 429.386 755.11 435.753C758.131 440.861 768.529 437.406 765.858 430.27C764.614 426.951 759.715 426.554 762.215 422.884ZM732.651 442.006C730.309 439.638 726.485 439.899 723.532 440.68C722.525 441.768 726.564 450.626 728.34 451.045C731.87 451.872 737.426 446.831 732.651 442.006ZM757.814 452.427C752.428 449.527 753.628 455.883 754.895 459.508L752.824 457.423C751.591 466.225 762.102 468.785 760.077 456.947C759.93 456.12 758.255 452.654 757.825 452.416L757.814 452.427ZM778.066 465.647C784.21 469.533 789.856 457.231 786.303 454.738C782.751 452.246 773.439 462.725 778.066 465.647ZM758.979 479.536C757.056 476.806 749.826 475.537 746.534 476.273C744.441 490.864 762.215 484.124 758.979 479.536ZM775.023 495.894C781.099 502.056 785.907 487.749 777.388 487.681C772.568 487.635 772.771 493.617 775.023 495.894ZM809.237 490.966L798.817 489.878C799.247 492.065 798.138 500.278 798.998 501.24C799.201 501.467 804.259 503.551 804.553 503.495C806.069 503.245 806.318 499.632 806.16 498.261L808.23 500.345L809.249 490.966H809.237ZM789.234 507.833C788.872 507.414 779.752 503.166 778.96 506.123C778.462 508.003 785.308 515.038 786.79 515.049C789.901 515.083 790.173 508.921 789.234 507.833Z" fill="#32A9A1"/>
<path d="M400.431 396.704C412.345 403.92 415.818 412.337 422.392 423.926C429.95 437.248 437.202 454.591 448.505 465.308C452.895 469.465 464.707 475.333 466.076 481.201C469.946 497.831 447.657 493.141 438.073 490.932C438.684 488.1 436.636 488.927 434.973 488.338C429.757 486.491 424.485 485.109 419.371 482.968C418.228 482.492 416.192 479.977 415.072 482.56C383.822 468.921 356.509 445.733 341.88 414.512C337.84 405.892 336.064 399.185 336.652 389.386C340.409 383.881 352.639 386.634 359.123 387.302C372.564 388.695 384.093 390.587 396.38 396.093C397.749 396.704 398.768 398.449 400.431 396.704Z" fill="#32A9A1"/>
<path d="M262.408 398.789C262.736 398.868 263.121 398.709 263.449 398.789C264.332 399.015 265.701 398.562 266.583 398.789C286.734 403.852 307.077 408.293 327.443 412.496C328.336 412.677 328.936 414.501 329.321 414.501C328.178 415.985 327.341 416.608 327.635 418.692C328.506 424.934 331.923 436.534 333.801 442.991C336.358 451.759 345.568 470.088 346.077 476.805C347.661 497.638 321.48 480.045 313.752 474.585C286.361 455.214 271.584 433.475 262.374 401.632C262.25 401.213 256.853 399.23 262.397 398.8L262.408 398.789Z" fill="#329998"/>
<path d="M222.673 340.166C219.154 340.437 215.737 339.746 212.139 340.607C208.541 341.468 204.151 346.056 200.723 347.064C198.8 347.631 196.073 346.827 192.973 347.54C183.424 349.738 170.423 356.455 159.935 359.537C145.487 363.773 129.624 367.342 114.972 369.483H90.9182C89.4813 369.132 86.268 367.965 84.6388 367.387C81.1766 366.152 81.5726 367.716 80.4525 364.249C89.9225 363.4 99.6981 364.011 109.202 363.196C141.493 360.409 162.549 350.282 192.124 342.578C201.221 340.211 213.519 337.673 222.661 340.177L222.673 340.166Z" fill="#329998"/>
<path d="M333.507 203.016C325.972 205.361 317.758 205.055 310.041 206.222C280.489 210.685 242.971 219.544 216.654 234.146C215.624 234.724 211.008 237.306 210.125 235.471C247.145 215.613 291.769 204.319 333.507 203.016Z" fill="#329998"/>
<path d="M555.187 148.584C568.855 141.561 583.541 135.523 598.871 133.167C605.717 132.113 617.438 130.187 622.111 136.021C621.557 137.539 618.785 135.999 617.778 135.659C605.49 131.558 585.815 137.822 573.991 142.807L555.187 148.584Z" fill="#329998"/>
<path d="M419.246 200.921H358.602C379.647 199.878 398.338 200.49 419.246 200.921Z" fill="#329998"/>
<path d="M609.552 162.19C597.582 181.765 593.735 206.369 605.366 227.1C592.388 210.697 595.726 185.14 604.381 167.231C605.038 165.882 606.712 166.041 607.267 164.648C607.979 162.869 606.678 159.052 609.541 162.19H609.552Z" fill="#329998"/>
<path d="M456.889 200.92L458.45 203.016C449.897 202.518 440.744 203.65 432.269 203.061C430.108 202.914 427.936 203.061 426.567 200.92C437.598 201.158 445.71 201.419 456.889 200.92Z" fill="#329998"/>
<path d="M356.509 200.92C350.433 204.534 341.597 202.824 334.548 203.016C341.529 200.66 349.347 201.328 356.509 200.92Z" fill="#329998"/>
<path d="M479.891 196.74C479.88 196.808 481.554 197.08 480.932 197.771C478.307 200.705 463.338 200.75 460.023 200.92L479.891 196.729V196.74Z" fill="#329998"/>
<path d="M415.072 482.549C416.18 479.977 418.228 482.492 419.371 482.957C424.485 485.098 429.769 486.468 434.973 488.326C436.636 488.915 438.684 488.1 438.073 490.92C430.244 489.108 422.414 485.755 415.072 482.549Z" fill="#329998"/>
<path d="M172.483 261.65C174.18 260.2 175.82 258.66 177.71 257.459C176.194 258.977 175.458 261.696 172.483 261.65Z" fill="#329998"/>
<path d="M164.11 270.022C164.766 269.297 165.524 268.64 166.203 267.926C166.35 269.252 164.676 272.299 164.11 270.022Z" fill="#329998"/>
<path d="M360.695 330.741C375.924 332.009 389.264 332.893 404.617 334.932C416.135 336.461 427.63 338.444 439.126 340.166C439.793 340.268 440.551 340.064 441.219 340.166C443.414 343.485 449.953 343.077 453.766 343.304C479.834 350.769 506.242 356.274 532.185 364.238C542.606 367.432 552.856 371.397 563.56 373.663C564.25 373.98 564.917 374.377 565.653 374.705C568.029 375.781 569.828 377.39 572.973 376.801C603.25 391.493 632.645 400.907 662.163 418.885C689.793 435.707 735.955 471.323 749.679 500.334C747.993 502.305 749.498 502.815 746.907 501.569C741.782 499.088 735.842 494.602 730.513 491.781C688.514 469.533 645.045 455.894 598.272 447.25C540.071 436.5 480.287 436.228 422.392 423.914C415.818 412.326 412.345 403.909 400.431 396.693C387.668 388.967 370.788 386.486 355.988 385.184C349.505 384.606 343.045 383.881 336.709 385.24C336.449 386.6 336.732 387.993 336.652 389.364C336.064 399.163 337.84 405.869 341.88 414.489C339.209 415.668 336.336 413.617 332.919 413.334C330.78 413.153 329.513 414.489 329.332 414.489C328.947 414.489 328.348 412.677 327.454 412.484C307.088 408.282 286.745 403.841 266.595 398.777C266.448 397.203 263.608 397.203 263.461 398.777C263.132 398.698 262.736 398.857 262.42 398.777C230.14 390.508 200.338 375.872 165.705 377.854C145.905 378.987 108.444 387.608 90.9409 379.406C85.2498 376.744 83.3603 373.21 80.4978 367.886L84.6614 367.376C86.2907 367.954 89.4926 369.12 90.9409 369.472C98.94 371.443 107.109 370.627 114.995 369.472C129.647 367.331 145.509 363.762 159.958 359.525C170.446 356.444 183.446 349.727 192.995 347.529C196.095 346.815 198.822 347.62 200.746 347.053C204.174 346.045 208.473 341.491 212.162 340.596C215.85 339.701 219.177 340.426 222.695 340.154C223.385 340.098 224.098 340.2 224.788 340.154C231.226 339.713 238.49 339.713 244.656 339.112C261.786 337.447 271.324 331.454 285.433 328.645C308.65 324.012 337.014 328.77 360.718 330.741H360.695ZM300.843 336.235C298.772 334.241 294.224 334.853 291.814 336.11C289.053 345.954 302.325 346.951 301.793 338.704C301.737 337.9 301.42 336.79 300.843 336.235ZM349.935 340.313C345.104 341.65 345.636 353.975 353.692 351.516C360.197 349.534 356.317 338.546 349.935 340.313ZM399.073 348.752C394.943 349.998 395.249 356.116 399.956 356.909C408.679 358.381 407.944 346.068 399.073 348.752ZM438.764 353.012C430.334 354.348 433.627 368.939 441.287 362.743C445.982 358.948 445.1 352.004 438.764 353.012ZM461.98 357.056C458.122 354.609 451.571 360.726 456.278 364.34C463.134 369.596 464.583 358.71 461.98 357.056ZM319.624 358.302C313.73 355.798 312.282 361.349 314.341 366.096C316.4 370.842 327.567 366.787 323.607 361.043C321.763 361.168 319.851 358.393 319.624 358.302ZM286.168 369.234C287.752 365.96 286.519 361.055 281.971 362.335C278.067 363.434 277.784 369.29 277.049 372.621C279.979 373.572 284.878 371.907 286.168 369.234ZM424.485 367.387C415.988 365.722 413.997 373.074 416.124 379.95C422.256 379.44 425.741 373.3 424.485 367.387ZM490.006 370.695C486.012 372.077 486.498 379.406 491.103 380.777C502.169 384.073 499.838 367.274 490.006 370.695ZM385.485 372.791C381.525 373.901 379.748 380.437 384.444 381.853C392.873 384.402 392.296 370.876 385.485 372.791ZM529.832 381.264C525.023 376.54 517.499 386.101 525.431 389.341C526.008 389.579 533.781 385.138 529.832 381.264ZM468.35 392.468C469.357 391.505 469.493 382.895 467.4 381.468C461.686 377.594 458.959 390.564 463.87 392.332C464.718 392.638 468.022 392.773 468.35 392.456V392.468ZM443.142 386.384C436.218 382 431.636 395.492 440.653 394.609C445.032 394.178 445.043 387.574 443.142 386.384ZM559.057 392.638C552.008 394.473 555.957 407.591 562.553 401.462C566.354 397.928 562.677 391.697 559.057 392.638ZM503.651 394.756C499.419 395.923 498.446 401.451 502.927 403.501C510.756 407.092 511.514 392.592 503.651 394.756ZM473.623 407.16C483.987 408.701 485.706 397.565 473.623 399.842V407.16ZM583.62 412.179C591.619 416.755 594.968 397.826 581.402 405.166C580.554 406.367 582.681 411.646 583.62 412.179ZM537.254 408.361C536.598 407.953 530.895 407.953 530.239 408.361C528.768 409.256 528.112 416.653 531.133 418.171C538.827 422.023 539.811 409.947 537.265 408.372L537.254 408.361ZM606.192 421.014C601.01 418.035 596.213 424.277 600.116 428.638C604.925 434.008 611.894 424.288 606.192 421.014ZM628.752 428.446C620.9 440.17 644.807 438.041 634.602 426.588C632.407 424.13 630.382 426.022 628.752 428.446ZM656.303 439.74C650.589 441.213 651.709 451.045 659.007 448.859C664.777 447.126 660.512 438.652 656.303 439.74ZM686.602 453.56C681.149 446.106 675.593 456.868 679.712 462.577C685.844 463.778 690.551 458.964 686.602 453.56Z" fill="#B8E1D3"/>
<path d="M236.001 305.796C248.729 303.701 252.044 323.083 239.474 326.096C222.345 330.208 223.408 307.869 236.001 305.796Z" fill="#144120"/>
<path d="M439.918 314.791C433.276 321.576 425.005 302.93 430.764 298.841C435.505 295.476 442.203 300.166 442.203 304.935C442.203 306.272 440.642 314.043 439.918 314.791Z" fill="#B8E1D3"/>
<path d="M639.558 339.441C640.259 340.064 642.635 344.108 642.737 344.991C642.816 345.66 642.115 353.351 641.809 353.669C641.368 354.122 638.166 353.046 638.811 355.855C637.781 356.931 636.91 351.199 634.67 352.74C634.285 353 634.285 356.795 631.524 355.866C628.006 353.363 631.253 338.002 632.588 337.039C633.561 336.337 638.562 338.557 639.558 339.441Z" fill="#B8E1D3"/>
<path d="M314.273 279.889C314.465 279.979 317.735 282.064 317.871 282.222C320.054 284.794 320.066 290.197 319.964 293.46C306.172 299.328 306.907 288.838 308.412 278.393C310.98 277.861 312.282 278.96 314.273 279.889Z" fill="#B8E1D3"/>
<path d="M503.334 298.048C503.526 298.421 505.506 297.855 504.918 299.769C496.217 315.153 485.084 301.593 494.034 289.925C496.523 292.168 500.607 293.969 502.949 295.737C503.854 296.416 503.006 297.402 503.345 298.059L503.334 298.048Z" fill="#B8E1D3"/>
<path d="M516.741 344.097C515.01 342.284 512.148 329.97 518.586 331.783L519.627 334.932C520.509 325.382 528.814 331.93 526.506 339.169C525.419 342.601 520.045 347.552 516.741 344.097Z" fill="#B8E1D3"/>
<path d="M537.888 291.522C545.321 299.169 539.902 302.998 531.144 303.53L527.003 293.142C532.977 291.454 532.593 286.074 537.888 291.522Z" fill="#B8E1D3"/>
<path d="M450.53 274.123C450.281 274.463 443.131 277.295 442.712 277.34C433.435 278.28 441.502 268.221 439.114 263.746C444.658 260.642 453.212 270.373 450.53 274.123Z" fill="#B8E1D3"/>
<path d="M285.41 328.645C286.745 327.263 288.442 327.013 290.241 326.685C306.025 323.808 329.343 325.337 345.353 327.75C347.39 328.056 351.802 329.846 352.798 329.755C353.443 329.698 353.262 327.546 353.907 327.557C355.027 327.569 359.1 330.163 360.695 330.74C336.992 328.769 308.627 324.012 285.41 328.645Z" fill="#329998"/>
<path d="M513.347 263.758C513.834 265.536 511.163 264.256 511.197 265.377C511.288 268.697 514.637 270.622 508.72 273.25C500.585 276.864 498.028 269.671 498.718 262.715C501.128 262.715 501.705 264.754 504.443 264.902C507.181 265.049 510.326 263.146 513.347 263.769V263.758Z" fill="#B8E1D3"/>
<path d="M566.286 276.751C571.695 279.776 567.678 290.447 564.216 289.835C563.073 289.631 558.898 284.533 558.242 283.185C555.368 277.261 558.106 279.152 560.731 277.374C562.326 276.298 560.742 273.647 566.286 276.74V276.751Z" fill="#B8E1D3"/>
<path d="M409.471 310.225C409.652 310.327 412.062 312.944 412.209 313.239C414.494 317.725 411.27 315.221 410.105 316.286C408.43 317.804 411.089 321.361 402.999 320.33C399.82 319.922 398.734 319.367 399.616 315.844C401.031 310.191 403.961 307.223 409.471 310.225Z" fill="#B8E1D3"/>
<path d="M467.649 320.987C468.893 321.723 470.783 320.545 470.477 322.358L467.343 324.453C470.817 324.782 477.051 327.376 473.713 331.363C468.43 337.662 453.28 324.544 466.834 319.231C467.671 319.197 467.094 320.658 467.649 320.987Z" fill="#B8E1D3"/>
<path d="M370.029 262.591C369.815 262.885 363.852 265.728 363.501 265.672C363.105 265.615 356.939 261.786 356.735 261.435C356.158 260.45 356.317 258.195 356.679 257.085C357.606 254.151 360.152 256.519 362.053 256.213C363.479 255.986 364.938 254.196 366.318 254.434C368.378 254.797 370.912 261.401 370.041 262.579L370.029 262.591Z" fill="#B8E1D3"/>
<path d="M332.579 318.065C332.183 317.6 332.014 310.554 333.111 309.704C340.986 303.565 350.467 318.574 338.123 319.152C337.229 319.197 332.794 318.314 332.579 318.065Z" fill="#B8E1D3"/>
<path d="M618.626 309.115C625.539 309.013 627.542 317.464 622.405 319.027C614.723 321.361 607.368 309.274 618.626 309.115Z" fill="#B8E1D3"/>
<path d="M404.255 260.959C414.642 257.017 413.555 274.066 404.187 271.948C401.868 271.426 398.247 263.248 404.255 260.959Z" fill="#B8E1D3"/>
<path d="M675.435 344.346C679.157 354.212 666.927 361.36 666.033 351.052C665.343 343.054 668.873 343.994 675.435 344.346Z" fill="#B8E1D3"/>
<path d="M553.094 320.285C553.275 328.599 542.119 334.728 541.565 323.842C541.146 315.617 548.297 319.56 553.094 320.285Z" fill="#B8E1D3"/>
<path d="M473.577 291.07C473.792 291.376 473.498 296.96 474.675 298.274C469.369 299.147 464.458 301.639 463.236 294.547C462.399 289.699 463.949 291.772 465.895 290.56C466.359 290.277 466.393 288.861 466.936 288.838C467.287 288.815 473.374 290.787 473.577 291.081V291.07Z" fill="#B8E1D3"/>
<path d="M573.754 354.031C573.946 354.133 573.776 355.311 574.817 355.821C575.564 356.184 577.352 355.504 578.019 356.014C578.461 356.342 579.456 361.032 578.777 362.153C577.51 364.249 570.642 365.076 568.719 363.773C565.698 361.723 570.224 352.207 573.754 354.031Z" fill="#B8E1D3"/>
<path d="M295.514 311.234C296.34 311.8 296.849 314.224 298.976 314.032C300.967 316.898 288.273 321.735 285.863 318.246C285.274 317.396 285.161 313.171 285.399 312.944C285.716 312.65 288.182 313.443 289.359 312.718C290.796 311.823 290.072 307.507 295.525 311.234H295.514Z" fill="#B8E1D3"/>
<path d="M659.731 381.015C659.821 381.083 659.516 382.442 660.455 383.133C661.292 383.756 662.967 383.564 663.68 384.379C663.883 384.617 665.784 389.579 665.908 390.123C666.666 393.589 657.706 395.775 655.737 387.517C655.205 385.286 657.74 379.508 659.731 381.015Z" fill="#B8E1D3"/>
<path d="M589.594 307.801C590.318 310.871 588.972 313.953 586.912 316.162C582.692 315.72 578.891 313.839 578.178 309.297C577.657 306.046 580.542 308.878 581.798 308.81C582.421 308.776 582.296 306.771 583.054 306.623C584.91 306.249 587.58 307.733 589.605 307.813L589.594 307.801Z" fill="#B8E1D3"/>
<path d="M308.174 253.471C313.651 252.837 315.631 258.784 310.89 261.514C302.993 266.08 299.146 254.525 308.174 253.471Z" fill="#B8E1D3"/>
<path d="M381.615 316.082C378.323 316.15 369.554 316.592 370.256 311.607C371.331 304.006 384.014 309.002 381.615 316.082Z" fill="#B8E1D3"/>
<path d="M665.897 400.001C666.078 400.137 665.897 401.915 666.655 402.017C668.499 402.255 672.595 399.581 674.383 404.566C675.265 407.035 672.29 405.585 671.52 406.322C670.751 407.058 671.396 409.584 669.608 410.241C663.069 412.665 661.179 396.557 665.897 400.001Z" fill="#63C2CE"/>
<path d="M350.116 286.652C349.766 286.957 343.215 286.969 342.966 286.708C342.706 286.436 341.936 280.795 340.816 279.447C344.233 279.254 347.13 275.539 350.252 278.903C351.734 280.5 350.897 285.972 350.116 286.64V286.652Z" fill="#B8E1D3"/>
<path d="M615.537 339.452C615.696 339.509 617.913 341.684 617.913 341.854C618.14 349.002 605.796 351.517 606.418 342.262L611.645 343.292L608.511 339.124C610.876 339.214 613.207 338.716 615.537 339.452Z" fill="#B8E1D3"/>
<path d="M659.527 374.501C659.459 374.66 657.061 376.744 656.891 376.79C650.238 378.126 649.729 372.553 650.34 367.387C651.992 368.452 655.635 367.251 656.597 367.863C657.558 368.475 659.991 373.346 659.527 374.501Z" fill="#B8E1D3"/>
<path d="M636.74 376.823C633.991 381.094 637.883 379.474 638.709 381.638C640.655 386.747 633.21 386.418 629.431 387.29C627.644 381.683 630.959 377.831 636.74 376.823Z" fill="#B8E1D3"/>
<path d="M295.684 282.789C296.702 284.545 294.303 288.691 294.812 290.956C289.393 288.509 284.335 287.286 287.594 280.602C288.816 279.571 295.027 281.656 295.684 282.789Z" fill="#B8E1D3"/>
<path d="M375.358 289.88C374.487 286.776 370.459 285.428 371.15 281.543C373.82 280.75 380.337 278.767 380.631 283.129C380.767 285.066 377.327 291.024 375.358 289.88Z" fill="#B8E1D3"/>
<path d="M397.161 292.134C400.499 297.866 384.41 299.701 387.883 288.872C389.501 287.966 396.754 291.443 397.161 292.134Z" fill="#B8E1D3"/>
<path d="M439.114 340.166C427.619 338.444 416.124 336.461 404.606 334.932C406.009 333.074 409.279 333.811 411.27 334.026C420.22 334.966 430.64 337.232 439.114 340.177V340.166Z" fill="#329998"/>
<path d="M563.548 373.663C552.845 371.397 542.594 367.444 532.174 364.238C533.204 362.221 535.659 363.501 537.186 363.92C546.011 366.299 555.289 369.902 563.537 373.663H563.548Z" fill="#329998"/>
<path d="M244.622 339.124C238.467 339.724 231.192 339.724 224.754 340.166C224.166 336.994 226.35 338.149 228.364 338.07C233.319 337.877 240.085 337.334 244.622 339.112V339.124Z" fill="#329998"/>
<path d="M453.755 343.303C449.942 343.077 443.402 343.485 441.207 340.166C446.887 340.992 448.72 341.865 453.755 343.303Z" fill="#329998"/>
<path d="M572.962 376.812C569.817 377.401 568.018 375.792 565.642 374.716C567.554 372.315 571.31 376.008 572.962 376.812Z" fill="#329998"/>
<path d="M490.006 370.695C499.838 367.285 502.157 384.085 491.103 380.777C486.498 379.406 486.023 372.077 490.006 370.695Z" fill="#63C2CE"/>
<path d="M349.935 340.313C356.305 338.545 360.186 349.534 353.692 351.516C345.636 353.974 345.115 341.649 349.935 340.313Z" fill="#63C2CE"/>
<path d="M438.764 353.011C445.1 352.003 445.982 358.947 441.287 362.742C433.627 368.939 430.334 354.348 438.764 353.011Z" fill="#63C2CE"/>
<path d="M400.431 396.704C398.756 398.438 397.738 396.704 396.38 396.093C384.093 390.587 372.564 388.684 359.123 387.302C352.64 386.634 340.409 383.881 336.652 389.386C336.732 388.016 336.449 386.622 336.709 385.263C343.045 383.915 349.505 384.64 355.989 385.206C370.788 386.52 387.668 388.99 400.431 396.716V396.704Z" fill="#329998"/>
<path d="M424.485 367.387C425.741 373.312 422.256 379.452 416.124 379.95C413.997 373.074 415.977 365.722 424.485 367.387Z" fill="#63C2CE"/>
<path d="M537.254 408.361C539.8 409.936 538.816 422.023 531.122 418.16C528.101 416.642 528.768 409.256 530.228 408.35C530.896 407.942 536.587 407.942 537.243 408.35L537.254 408.361Z" fill="#63C2CE"/>
<path d="M319.624 358.302C319.851 358.393 321.763 361.168 323.607 361.044C327.567 366.787 316.355 370.74 314.341 366.096C312.327 361.451 313.73 355.799 319.624 358.302Z" fill="#63C2CE"/>
<path d="M300.843 336.235C301.42 336.79 301.737 337.9 301.793 338.704C302.325 346.951 289.053 345.965 291.814 336.11C294.224 334.852 298.772 334.241 300.843 336.235Z" fill="#63C2CE"/>
<path d="M628.752 428.445C630.382 426.021 632.407 424.129 634.602 426.588C644.819 438.04 620.9 440.17 628.752 428.445Z" fill="#63C2CE"/>
<path d="M468.35 392.468C468.022 392.785 464.718 392.649 463.87 392.343C458.959 390.564 461.686 377.594 467.4 381.479C469.493 382.895 469.357 391.505 468.35 392.479V392.468Z" fill="#63C2CE"/>
<path d="M286.168 369.234C284.878 371.896 279.979 373.561 277.049 372.621C277.773 369.29 278.067 363.434 281.971 362.335C286.519 361.055 287.764 365.96 286.168 369.234Z" fill="#63C2CE"/>
<path d="M559.057 392.637C562.677 391.697 566.354 397.928 562.553 401.462C555.957 407.602 552.008 394.473 559.057 392.637Z" fill="#63C2CE"/>
<path d="M606.192 421.015C611.894 424.288 604.925 434.008 600.116 428.638C596.201 424.266 601.01 418.035 606.192 421.015Z" fill="#63C2CE"/>
<path d="M399.073 348.752C407.944 346.068 408.679 358.381 399.956 356.909C395.26 356.116 394.943 349.999 399.073 348.752Z" fill="#63C2CE"/>
<path d="M503.651 394.756C511.503 392.592 510.745 407.092 502.927 403.501C498.458 401.451 499.431 395.911 503.651 394.756Z" fill="#63C2CE"/>
<path d="M385.485 372.791C392.296 370.876 392.873 384.402 384.444 381.853C379.76 380.437 381.536 373.901 385.485 372.791Z" fill="#63C2CE"/>
<path d="M583.62 412.178C582.692 411.646 580.565 406.356 581.402 405.166C594.968 397.837 591.619 416.755 583.62 412.178Z" fill="#63C2CE"/>
<path d="M656.303 439.74C660.5 438.653 664.777 447.126 659.007 448.859C651.709 451.057 650.589 441.213 656.303 439.74Z" fill="#63C2CE"/>
<path d="M443.142 386.384C445.043 387.585 445.032 394.189 440.653 394.608C431.636 395.481 436.229 382 443.142 386.384Z" fill="#63C2CE"/>
<path d="M461.98 357.056C464.583 358.71 463.135 369.596 456.278 364.34C451.571 360.726 458.122 354.609 461.98 357.056Z" fill="#63C2CE"/>
<path d="M529.832 381.264C533.781 385.15 526.008 389.579 525.431 389.341C517.511 386.101 525.023 376.54 529.832 381.264Z" fill="#63C2CE"/>
<path d="M473.623 407.16V399.842C485.706 397.565 483.987 408.712 473.623 407.16Z" fill="#63C2CE"/>
<path d="M114.972 369.483C107.086 370.638 98.9287 371.454 90.9182 369.483H114.972Z" fill="#FEFDEE"/>
<path d="M266.583 398.789C265.701 398.562 264.32 399.015 263.449 398.789C263.596 397.214 266.436 397.214 266.583 398.789Z" fill="#FEFDEE"/>
</g>
</g>
<defs>
<clipPath id="clip0_504_11317">
<rect width="669" height="516" fill="white"/>
</clipPath>
<clipPath id="clip1_504_11317">
<rect width="932" height="580" fill="white" transform="translate(80 132)"/>
</clipPath>
</defs>
</svg>
