<svg width="669" height="516" viewBox="0 0 669 516" fill="none" xmlns="http://www.w3.org/2000/svg">
<g clip-path="url(#clip0_504_11323)">
<rect width="669" height="516" fill="#D9D9D9" fill-opacity="0.6"/>
<g clip-path="url(#clip1_504_11323)">
<path d="M597.952 -116.019C592.604 -120.925 587.712 -128.74 594.813 -134.697C602.752 -141.354 618.644 -137.561 624.008 -141.583C628.854 -145.224 623.947 -153.328 629.631 -156.863C633.577 -154.821 637.996 -156.421 642.049 -155.75C647.017 -154.928 652.106 -150.205 658.125 -152.262C663.092 -153.968 658.262 -169.324 669.599 -170.726C680.326 -172.051 691.526 -158.493 699.266 -159.529C705.148 -160.321 704.066 -170.97 707.403 -175.25C708.592 -176.774 709.856 -175.814 710.847 -176.256C711.121 -176.378 711.136 -178.16 711.959 -178.267C720.919 -179.394 733.093 -167.908 741.642 -169.492C747.874 -170.65 745.344 -186.874 756.574 -186.692C767.119 -186.524 773.427 -175.205 785.114 -177.048C792.809 -178.252 793.266 -185.259 797.015 -190.043C810.622 -207.395 820.374 -179.105 833.722 -178.175C842.514 -177.566 842.057 -185.579 846.781 -191.292C860.266 -207.578 871.801 -176.698 883.457 -176.271C895.114 -175.845 894.108 -203.465 913.125 -191.719C918.488 -188.398 928.576 -175.311 934.686 -174.793C941.238 -174.245 944.407 -186.448 948.186 -189.434C950.045 -190.896 951.721 -190.272 953.413 -191.094C953.718 -191.247 953.763 -194.75 956.216 -193.12C956.323 -193.044 956.11 -191.506 956.689 -191.17C958.578 -190.043 960.453 -189.601 962.479 -188.2C963.896 -184.056 968.163 -181.695 971.012 -178.709C973.069 -176.545 973.648 -175.677 976.162 -173.285C976.589 -172.889 976.97 -172.417 977.412 -172.036C978.707 -170.924 981.495 -166.872 982.897 -167.024C993.091 -168.121 992.04 -181.451 1000.34 -180.72L1008.53 -178.267C1014.87 -173.331 1023.35 -160.458 1029.02 -158.249C1037.48 -154.958 1037.22 -164.175 1041.62 -166.933C1050.14 -172.249 1059.66 -163.566 1064.51 -157.122L1063.29 -156.512C1064.08 -155.004 1066.05 -154.364 1066.99 -153.389C1067.4 -152.978 1067.82 -152.551 1068.24 -152.14C1068.53 -148.575 1072.54 -145.696 1075.71 -144.675C1085.19 -141.628 1084.2 -150.358 1089.42 -152.749C1095.67 -155.598 1103.46 -147.692 1107.45 -143.456C1110.05 -140.684 1117.75 -128.588 1119.24 -127.78C1121.45 -126.592 1122.95 -129.913 1125.98 -129.791C1131.66 -129.563 1139.1 -117.162 1141.64 -112.348L1147.89 -89.938C1148.64 -89.8618 1149.02 -91.2177 1149.11 -91.2024C1155.83 -90.7149 1159.56 -84.9563 1162.79 -80.0052L1170.01 -61.7239C1177.02 -51.7149 1176.79 -38.461 1182.71 -27.7665C1182.78 -27.3704 1182.65 -26.9286 1182.71 -26.5173C1183.53 -21.2462 1183.65 -19.4333 1185.19 -14.086C1187.6 -5.73759 1188.51 0.63037 1188.92 9.54248C1186.85 14.1433 1186.82 23.3296 1188.92 28.2046C1188.86 31.4952 1187.77 34.146 1187.67 35.6694C1187.08 28.4179 1184.67 40.0112 1187.67 43.1343C1187.58 43.9417 1187.77 44.8101 1187.67 45.6175C1184.2 46.821 1184.15 53.448 1186.42 55.5655C1185.78 59.3589 1184.86 64.3253 1183.94 67.9968L1180.73 68.0577L1177.72 86.6589C1157.64 141.335 1109.61 182.544 1055.81 202.318C1054.76 196.011 1049 168.087 1040.25 177.441L1038.38 175.597L1048.46 201.313C1051.28 204.862 1051.31 204.741 1055.81 203.567C1058.4 222.245 1056.1 235.742 1051.01 253.658C1061.4 263.119 1070.59 271.193 1078.19 283.167C1075.45 285.879 1080.31 288.301 1081.03 289.703C1082.46 292.521 1082.99 296.512 1085 299.361L1089.38 314.26C1090.14 320.248 1091.08 325.046 1090.63 331.673C1087.41 331.003 1088.01 333.044 1087.7 335.238C1087.08 339.595 1085.42 346.435 1086.89 350.32C1083.13 363.193 1078.21 370.384 1071.96 381.414C1070.1 379.799 1069.45 382.648 1068.81 383.851C1066.02 389.137 1063.55 394.85 1060.76 400.076C1058.19 404.905 1056.13 409.506 1053.07 414.152C1048.22 421.51 1033.46 443.585 1025.93 428.686C1028.95 425.38 1021.33 416.803 1027.16 417.473V416.27L1024.68 412.522C1025.26 412.355 1030.68 408.988 1028.99 407.586L1032.14 408.805C1032.5 402.117 1032.65 395.033 1024.01 396.267C1020.88 396.709 1022.87 398.339 1021.78 399.603C1019.79 401.934 1017.43 403.778 1016.01 406.946L1019.71 406.322L1015.99 408.82L1018.48 412.537C1017.56 412.857 1014.53 414.426 1013.49 415.021L1011.01 416.27C1009.12 417.565 1005.05 421.617 1002.31 423.735C999.11 426.203 994.905 427.924 992.375 431.824L993.594 432.433C990.105 435.328 983.979 441.894 978.677 439.319C970.205 435.206 979.164 413.086 979.911 406.322C977.61 403.808 962.586 419.713 960.605 421.206C944.042 433.728 940.659 427.071 945.977 409.064C948.125 401.812 954.525 394.058 956.171 388.147C956.933 385.435 955.196 386.73 953.794 386.41C952.788 386.182 945.703 386.563 945.322 386.746C945.078 386.852 945.032 388.787 943.585 389.29C934.64 392.413 932.69 391.544 930.16 382.678C930.876 378.9 935.356 375.381 937.627 372.73L938.876 371.481C939.729 370.536 940.507 369.866 941.36 368.998C943.691 367.383 945.824 365.539 948.186 363.925C952.026 361.304 952.27 360.268 956.293 356.566C965.999 347.624 979.256 343.099 991.126 337.904C991.796 338.94 1011.85 346.161 1014.24 346.496C1018.13 347.045 1027.68 347.883 1029.68 344.135L1025.96 343.51C1028.31 340.052 1027.07 340.403 1023.72 339.519C1012.34 336.533 1001.12 335.086 989.861 334.157C981.968 333.517 944.849 299.041 943.828 291.866C942.213 280.562 938.602 277.85 934.518 266.973C927.25 247.625 925.391 220.325 931.455 200.521C935.554 187.13 945.474 177.639 954.159 167.249C958.563 161.978 955.592 161.125 950.091 163.196C946.617 164.507 935.097 175.064 932.659 178.385C920.241 195.371 916.98 222.214 918.93 242.11C914.572 243.619 886.124 258.548 885.514 260.361C887.465 281.43 891.701 305.623 883.823 325.793C881.766 331.033 878.139 335.071 876.646 340.372C874.894 341.362 873.218 342.017 871.663 342.855C871.572 338.651 865.553 343.373 866.711 339.763C867.869 336.152 872.471 330.257 874.193 324.848C880.41 305.348 877.454 284.538 876.631 264.49L830.659 283.182C836.8 310.239 839.162 338.194 826.88 363.97C823.985 365.204 821.212 366.484 818.18 367.703C819.246 361.426 822.751 355.744 824.336 349.604C828.998 331.445 828.115 307.42 823.056 289.444C819.353 286.793 784.261 305.485 777.145 305.546C781.488 324.696 782.905 344.836 777.77 363.985C775.835 371.207 771.401 377.62 770.913 385.116C767.637 386.091 764.224 386.7 760.963 387.599C758.723 384.917 760.521 384.476 761.527 382.617C770.532 365.89 774.341 350.229 773.397 331.018C773.214 327.408 771.416 310.162 768.886 309.325C766.662 308.593 725.49 320.903 724.18 322.837C724.88 341.515 727.638 369.028 717.414 385.466C716.759 386.517 714.869 386.075 714.9 386.974C714.946 388.619 718.953 393.525 719.913 396.282C721.437 400.639 722.93 407.784 723.646 412.446C720.995 417.748 722.945 424.512 722.275 430.346C721.848 434.079 719.837 440.949 718.679 444.789C711.761 467.64 687.229 497.758 670.163 514.44C669.934 514.653 668.136 514.059 667.74 514.532C667.13 515.232 669.401 519.056 669.02 521.067C668.745 522.484 665.241 522.377 665.195 524.388C669.446 523.413 669.599 526.43 670.01 530.132C670.269 532.523 670.574 542.654 670.223 544.726C670.01 546.006 666.475 544.726 667.694 548.032L671.412 546.798L670.163 561.712L661.477 557.98C661.035 557.599 660.654 557.142 660.228 556.731C658.11 555.207 654.422 544.665 651.542 546.783L635.36 581.608C623.246 591.404 621.585 567.136 621.677 559.214L628.869 549.632C630.56 542.03 627.802 534.732 620.519 541.268C618.705 542.898 616.679 546.112 616.618 548.596C616.481 553.547 619.635 551.079 615.46 555.482C609.456 561.819 600.116 566.542 594.234 573.428C591.948 574.905 589.587 576.231 586.844 576.627C584.604 573.9 580.993 575.865 580.535 572.315C579.225 562.124 585.031 554.369 586.844 545.533C587.072 544.437 586.646 542.959 586.844 541.801C591.567 540.171 594.965 542.319 600.573 537.49C605.754 533.041 601.578 533.635 600.984 532.63C600.283 531.442 600.664 529.735 600.42 529.446C600.177 529.157 593.64 529.979 592.741 530.528C588.124 533.361 587.59 537.215 586.844 541.801C578.753 544.589 541.817 567.669 552.575 542.989C556.384 534.26 566.517 526.856 570.662 518.173C575.522 517.746 581.831 518.934 585.031 515.75C591.857 508.925 582.394 507.889 576.162 510.616C574.593 511.302 568.025 515.644 568.178 518.173C563.744 518.812 561.001 520.244 557.664 520.717C555.637 521.006 546.967 520.991 545.702 520.107C541.268 517.015 546.586 511.652 548.262 509.458C555.195 508.91 551.569 508.087 553.169 506.335C557.405 501.689 564.109 500.348 569.732 497.911C571.606 497.103 573.8 497.713 573.13 494.529C573.496 494.392 573.999 494.651 574.379 494.529C574.486 494.498 574.867 495.519 576.513 495.001C580.2 493.828 587.042 491.04 589.312 488.313C594.295 482.326 595.925 468.112 600.512 459.703C601.944 457.083 605.616 453.076 607.079 450.684C607.445 450.09 609.837 445.124 607.978 444.789C609.365 442.61 618.675 430.88 617.928 429.874C610.69 429.082 602.279 419.042 595.544 419.911C595.849 417.626 593.64 417.077 591.811 416.178C595.316 407.647 585.076 403.412 579.972 397.532C574.867 391.651 566.258 373.05 558.487 383.196C558.426 384.003 566.776 394.546 568.178 396.267C562.982 397.181 555.409 393.083 550.761 395.658C549.817 396.176 539.867 409.978 537.566 412.309C529.673 420.292 522.008 424.679 512.195 429.859C510.534 429.889 508.873 429.844 507.212 429.859C511.449 428.564 507.822 425.7 508.447 424.908C508.751 424.527 515.593 422.409 517.483 421.114C519.692 419.606 524.964 415.051 527.143 413.086C529.871 410.618 544.011 396.648 542.061 393.814C538.449 393.327 534.29 391.925 530.861 391.316C527.402 389.594 520.362 387.34 517.178 390.067C516.766 390.021 516.34 390.112 515.928 390.067C513.17 386.669 505.43 386.487 502.245 388.817C499.518 388.604 497.034 388.025 494.352 387.705C492.508 389.99 490.68 391.788 488.562 393.799C487.495 390.448 486.535 395.993 484.829 397.532C484.402 397.943 484.021 398.385 483.579 398.781C480.684 399.497 479.313 400.853 478.596 403.762C477.545 404.585 476.433 404.753 476.113 405.012C472.913 407.51 472.136 407.099 468.646 411.227C468.265 411.669 467.823 412.065 467.397 412.476C466.97 412.888 466.544 413.284 466.147 413.726C464.867 414.457 463.283 414.503 462.414 414.975C460.418 416.072 459.062 417.671 457.432 418.707C453.135 421.449 448.365 425.151 443.748 427.406C436.404 431.001 436.328 431.809 430.065 437.354C428.054 439.137 425.052 440.218 425.082 443.57C424.229 444.469 423.498 445.2 422.599 446.053H420.115L421.349 447.302C412.161 455.651 401.342 462.613 393.343 472.165C386.074 480.848 380.97 495.092 374.631 501.994C372.543 504.264 372.025 503.593 370.349 504.523C356.681 507.143 365.123 488.664 360.399 483.377C358.311 481.031 357.199 482.539 355.005 483.591C348.179 486.851 341.489 494.742 335.516 499.556L326.084 504.507C322.96 505.117 320.431 504.081 318.115 502.039C317.338 495.397 322.793 486.104 324.317 479.66C320.568 480.391 317.079 481.701 313.528 483.179C308.774 485.144 291.449 495.656 288.265 494.026C280.097 489.867 294.649 472.53 298.23 467.884C299.952 465.66 305.879 462.369 303.167 459.764C300.455 457.159 292.958 460.328 289.484 461.013C289.255 461.059 288.661 462.262 287 462.262C287.777 458.515 285.156 459.947 282.017 459.779V454.798C282.139 454.401 281.895 453.914 282.017 453.548L283.267 452.299C283.434 451.964 283.084 451.339 283.267 451.05H285.75L284.516 449.801C299.723 431.535 328.995 430.103 344.232 411.242C374.311 419.591 405.289 423.811 436.282 427.391C435.764 425.913 431.604 424.755 433.798 422.44C434.24 421.967 443.261 420.505 446.217 419.301C454.856 415.798 466.01 408.698 473.05 402.589C474.284 401.523 483.198 392.641 483.61 392.017C484.585 390.493 485.164 389.564 484.798 387.614C483.914 386.791 463.953 386.593 460.708 386.197C450.94 385.009 440.259 381.17 431.314 380.134C470.871 361.853 480.699 307.298 463.481 270.248C460.22 263.24 446.628 241.242 438.11 242.583C436.861 242.781 434.728 245.02 435.048 246.407C435.2 247.062 443.383 253.582 444.998 255.471C472.959 288.316 472.212 348.964 433.341 372.197C428.998 374.787 422.614 373.415 422.599 380.134C416.412 380.957 407.011 385.801 400.199 387.599C398.539 384.628 395.156 387.629 393.419 387.675C392.063 387.721 393.617 384.552 391.499 385.116L390.249 388.239L388.985 386.365L386.501 390.082C361.557 393.54 340.758 391.179 314.351 390.082C313.772 390.051 313.376 390.082 313.102 390.082C312.69 390.067 312.279 390.097 311.852 390.082C307.86 387.964 299.418 388.01 295.685 390.082C295.274 390.082 294.847 390.112 294.436 390.082C293.933 390.051 290.306 386.746 289.453 390.082V391.331C281.255 388.467 275.739 391.072 268.303 391.331C262.742 384.354 265.789 389.61 263.778 390.112C258.475 391.453 248.175 389.061 242.186 390.097C241.882 392.337 244.548 391.042 245.92 391.331C242.293 393.51 235.573 392.717 230.987 392.58L235.954 390.112C229.981 390.051 223.993 390.204 218.004 390.006C215.871 389.93 214.378 386.928 214.805 391.346C210.706 391.087 206.424 390.661 202.371 390.097C203.803 386.243 195.94 386.807 193.67 388.848C193.061 388.757 192.344 389.031 191.826 388.848C191.247 388.604 191.08 388.208 191.186 387.614C191.217 387.416 192.436 387.126 192.451 386.395L188.703 387.614C188.291 387.614 187.865 387.644 187.453 387.614C186.615 384.613 184.055 385.481 181.952 385.024C176.132 383.775 170.311 382.51 164.49 381.337C162.205 380.88 160.955 378.428 161.336 382.632C154.19 381.429 147.333 380.987 140.186 380.149C142.411 376.767 141.39 377.803 138.343 377.666C133.71 377.437 126.915 376.782 122.77 378.915C117.559 378.458 110.184 377.041 106.329 376.127C83.0152 370.628 61.0123 356.917 54.3535 332.892C62.2008 335.817 69.6062 340.479 77.9259 342.276C82.2381 343.206 92.3254 344.303 96.6528 344.074C100.325 359.644 114.191 359.278 111.586 341.591C115.334 340.844 121.932 337.584 126.518 336.609C130.526 351.859 135.615 346.877 140.202 335.36C145.245 335.817 150.152 336.96 155.134 337.843C157.283 350.853 166.761 359.232 168.818 340.326C175.736 341.393 182.211 342.535 189.206 342.642C191.339 342.673 192.908 339.671 192.451 344.059C189.16 344.272 185.792 343.891 182.501 344.059C183.994 362.492 196.961 362.218 196.184 342.81C201.883 342.688 204.138 343.587 211.117 342.81C212.214 351.051 217.395 357.48 226.05 353.992C224.038 350.122 224.907 345.765 224.8 341.56C225.684 341.56 235.771 338.437 240.967 337.828C245.203 352.88 257.5 356.17 255.9 336.579C251.801 336.823 247.535 336.244 243.451 336.579C251.908 333.669 262.117 336 270.818 336.579C272.311 351.691 287.411 357.48 285.75 337.828C318.816 339.214 323.585 330.409 348.788 315.662C378.334 298.371 395.918 309.964 424.762 315.144C432.716 316.576 433.097 309.233 427.002 306.658C410.896 299.849 378.41 296.055 361.633 301.144C343.059 306.78 328.735 323.31 308.942 328.063C289.148 332.816 268.502 325.93 249.409 327.027C238.788 327.636 227.878 331.414 217.654 333.806C215.231 334.37 212.565 333.608 210.66 334.065C209.228 334.416 210.386 336.746 209.243 336.594C207.963 336.426 209.014 334.69 208.511 334.233C208.329 334.065 205.692 335.33 204.291 335.36C177.991 335.832 150.015 323.98 126.214 328.2C111.829 330.744 102.352 336.838 86.4284 334.994C79.5106 334.187 73.2785 330.455 67.2444 329.51C64.5016 329.083 62.4141 332.587 61.1951 327.865C58.5133 326.844 59.4123 330.957 57.5381 331.323C57.3095 331.369 53.942 330.576 53.1192 330.363C31.8476 325.123 24.1222 292.993 41.9196 278.124C43.7177 276.616 46.8109 277.866 45.6528 273.143C46.0338 272.701 46.4909 272.32 46.9023 271.894C49.9346 270.523 52.5402 267.917 55.0087 265.739C57.1267 263.88 61.4846 260.955 61.8198 258.213C68.7529 253.125 70.9776 250.931 80.4858 250.748C83.8533 254.161 90.6797 253.734 95.4186 254.481C95.83 254.542 96.2566 254.42 96.6681 254.481C97.4147 256.522 99.6394 257.269 101.559 257.68C104.561 258.305 113.17 259.523 116.035 259.569C118.29 259.6 117.543 257.284 118.671 257.01C122.13 256.172 128.713 256.004 132.949 255.319C133.269 255.273 142.228 254.725 138.967 253.247C145.763 252.714 151.554 252.455 156.841 252.074C157.633 252.013 157.527 249.971 158.578 249.606C180.353 242.156 203.514 235.956 223.185 223.646C235.832 215.724 234.248 202.912 244.716 191.075C251.085 193.97 246.773 189.872 249.698 186.718C252.624 183.565 259.572 184.205 259.649 179.878C260.045 179.802 260.487 179.939 260.898 179.878C262.864 179.604 265.119 180.091 267.115 179.878L265.865 178.644C276.897 176.374 279.793 176.572 289.499 182.376C293.918 185.027 299.54 191.106 305.026 191.136C310.511 191.167 320.477 185.759 327.593 185.012C337.436 183.991 348.133 184.433 357.915 183.61C358.738 183.55 359.591 183.702 360.399 183.61C359.835 188.79 362.197 188.79 361.648 183.61C366.753 182.864 370.273 181.356 374.082 181.127C377.755 183.199 384.261 182.651 388.451 182.437C401.617 181.767 415.848 179.802 428.602 176.511C430.766 175.948 433.28 177.273 432.549 173.678C453.775 167.584 453.135 156.128 467.305 149.348C473.263 146.5 478.109 148.8 482.284 146.911C489.156 143.818 499.898 120.708 510.367 119.017C520.835 117.326 520.85 123.77 525.498 124.989C531.913 126.664 549.954 105.077 555.714 100.294L556.323 101.512C557.969 100.202 559.371 98.8007 559.447 96.5612C559.797 96.4241 560.285 96.6679 560.696 96.5612C566.151 95.0073 570.601 94.7026 575.918 96.8812C578.189 97.8105 581.114 100.994 582.714 101.269C583.69 101.436 584.192 100.294 584.33 100.294C602.676 99.471 618.172 69.5659 635.665 73.2069C640.129 74.1362 644.122 79.194 647.443 80.0929C662.285 84.0995 682.078 51.9093 699.144 57.0128C703.396 58.2773 706.733 67.5397 715.448 66.6866C723.311 65.9249 734.053 52.412 741.108 49.944C743.516 49.1062 747.386 49.7003 748.285 48.9538C748.62 48.6796 748.529 44.8405 750.982 46.8362C751.18 46.9886 750.617 49.1366 751.744 49.289C752.872 49.4413 754.045 47.8265 756.864 48.9081C759.683 49.9897 761.77 54.4687 764.33 55.2456C777.648 59.2827 796.177 32.2417 811.064 39.6151C815.407 41.7632 818.835 48.4663 825.006 48.6948C829.867 48.8624 841.508 41.7784 846.796 39.3257L859.23 36.8273L857.98 35.5933C858.239 35.5628 858.955 34.4202 859.946 34.3897C868.936 34.2222 871.907 43.4847 879.724 43.1343C888.257 42.7534 903.159 26.4374 913.155 31.998C915.807 33.4757 917.65 37.1319 920.5 38.3659C933.269 43.8808 943.371 23.4972 956.323 27.4429C959.218 28.3265 962.281 32.1503 965.908 32.8663C975.065 34.6487 982.425 21.1968 990.257 17.8605C993.899 16.3066 993.274 17.7995 994.828 18.1651L993.579 19.3991C995.941 18.8354 997.937 20.2827 999.796 20.6484C1000.19 20.7245 1000.63 20.6026 1001.05 20.6484C1000.25 25.5995 1009.85 22.7202 1011.48 21.7605C1012.12 21.3948 1017.7 15.6972 1018.48 14.7374C1018.78 14.3565 1021.75 9.63389 1019.71 9.45108C1022.38 6.02334 1026.28 -2.78213 1030.56 -4.01612C1037.84 -6.13369 1040.57 2.85459 1053.19 -6.19463C1056.71 -8.72354 1066.6 -19.8751 1065.07 -24.156C1064.17 -26.6544 1053.65 -36.1302 1050.83 -38.4458C1032.83 -53.2993 1009.99 -62.5161 988.611 -71.3825C979.088 -75.3282 971.576 -78.1466 961.245 -80.706C958.654 -81.3458 953.458 -83.3872 951.295 -81.3306C930.511 -86.1294 903.22 -90.6845 882.878 -92.5278C878.596 -93.5485 879.054 -99.1548 877.164 -93.6704C861.82 -96.8087 846.186 -95.788 830.644 -96.9153C828.404 -97.0829 826.347 -99.1853 826.896 -95.0263C824 -95.0263 821.09 -95.0263 818.195 -95.0263L825.037 -97.5247C808.87 -97.3724 792.687 -97.7075 776.505 -97.5399C774.402 -97.5247 770.974 -98.3321 769.679 -96.2755C769.267 -96.2755 768.856 -96.2755 768.429 -96.2755C766.89 -99.5813 756.544 -97.6161 753.497 -96.2755C753.085 -96.2755 752.674 -96.2755 752.247 -96.2755L751.622 -97.4942L750.998 -96.2755C750.175 -96.2755 749.337 -96.2755 748.514 -96.2755C749.215 -100.038 746.609 -98.6673 744.217 -98.7587C734.13 -99.1548 713.254 -100.236 704.98 -98.7587C697.133 -97.3571 695.045 -98.3169 687.564 -98.7587C685.629 -105.538 675.846 -98.4083 676.349 -103.725H675.13L674.429 -101.181C666.749 -102.247 656.281 -104.944 648.998 -102.491C636.701 -104.136 624.435 -106.041 612.321 -108.737C611.727 -108.981 611.62 -109.362 611.681 -109.956C611.696 -110.139 612.778 -110.596 612.946 -111.175C607.445 -110.87 603.087 -114.724 597.998 -116.172L597.952 -116.019ZM1080.16 -96.8849C1079.27 -97.4333 1078.36 -97.9817 1077.49 -98.5759C1072.01 -98.1798 1079.76 -80.447 1080.31 -77.7962C1081.9 -70.1638 1082 -61.3888 1079.98 -53.8325C1077.19 -43.3817 1068.33 -34.7134 1068.15 -23.9884L1074.19 -24.1864C1082.29 -38.6591 1091.86 -50.0392 1090.2 -67.8024C1089.61 -74.1247 1085.2 -93.7618 1080.14 -96.8849H1080.16ZM885.926 -93.6399V-92.3907C886.733 -92.802 886.733 -93.2134 885.926 -93.6399ZM1146.06 -20.6825C1148.21 -25.6946 1154.44 -57.1841 1143.18 -48.47C1139.94 -45.9564 1135.96 -19.6466 1137.85 -17.7575C1138.49 -17.1177 1144.99 -18.2298 1146.06 -20.6825ZM1127.36 -0.877828C1129.16 -3.25439 1134.42 -7.6876 1132.32 -10.3841C1131.59 -11.3286 1126.28 -12.654 1124.96 -12.4407C1120.31 -11.679 1115.28 -3.39149 1113.32 0.630384C1108.73 10.03 1106.57 14.5394 1119.15 15.8343C1118.91 8.36944 1123.42 4.34755 1127.36 -0.862602V-0.877828ZM1097.86 19.7191C1093.78 12.9245 1066.96 33.8565 1068.17 41.9308C1078.65 46.2725 1079.78 37.0101 1085.61 32.6683C1088.22 30.7183 1097.5 27.4276 1097.86 26.8487C1098.34 26.1022 1098.34 20.496 1097.86 19.7191ZM1053.01 49.1671C1054.38 48.2987 1056.53 42.8143 1053.22 41.3366C1042.98 36.7358 1022.93 52.0921 1022.18 63.0151C1030.94 67.6769 1032.37 57.4393 1039.11 53.3108C1043.06 50.8733 1051.63 50.0354 1053.01 49.1671ZM980.337 72.3081C985.122 70.2515 988.093 68.6214 993.457 67.3722C997.739 66.3667 1007.03 68.53 1004.61 61.3546C1001.41 51.894 969.382 65.0565 967.614 71.4093C965.542 78.8589 974.608 76.1624 978.89 74.1972C979.819 73.7706 980.048 72.43 980.337 72.3081ZM947.181 68.3624C941.573 62.9542 912.104 72.0034 907.715 77.3964C902.352 83.9929 910.016 83.5968 915.243 82.4237C921.124 81.0983 926.458 77.046 933.528 75.8272C936.362 75.3397 955.287 76.1472 947.196 68.3472L947.181 68.3624ZM871.344 75.812C866.376 76.4062 838.004 87.4206 838.065 91.0616C838.171 99.2272 862.597 87.1464 866.62 86.0495C871.237 84.7851 882.33 85.9276 881.659 79.8796C881.141 75.3093 874.894 75.3854 871.359 75.812H871.344ZM815.33 89.4925C808.672 83.0788 771.964 97.7191 771.081 102.411C770.959 103.097 771.599 105.321 771.995 105.854C776.033 111.201 793.967 99.1206 799.133 98.1913C803.445 97.3991 808.534 98.7245 812.268 97.6429C815.574 96.6831 818.195 92.2651 815.33 89.5077V89.4925ZM740.407 102.274C734.358 101.985 725.231 105.717 719.593 108.216C716.104 109.754 692.074 121.683 705.544 122.886C712.675 123.526 727.532 113.685 735.745 111.811C738.853 111.11 744.324 113.928 745.802 109.51C747.28 105.092 744.994 102.503 740.407 102.274ZM854.216 140.177C863.725 141.685 870.018 133.855 878.536 131.555C883 130.351 896.744 131.082 895.099 124.882C892.158 113.7 863.984 126.512 858.559 131.494C856.075 133.779 853.744 136.506 854.201 140.177H854.216ZM660.609 136.948L680.768 129.026C680.92 117.173 666.536 122.155 659.862 125.354C658.932 125.796 643.817 136.11 643.101 136.841C641.607 138.334 641.745 143.773 637.752 144.55C645.234 153.248 654.133 141.244 660.609 136.963V136.948ZM831.635 135.394C827.947 133.093 811.658 137.648 807.254 139.827C805.776 140.558 805.655 142.203 804.801 142.66C798.371 146.18 786.166 149.044 789.518 158.839C791.331 160.607 812.725 148.236 816.885 147.017C820.222 146.042 830.309 145.646 831.878 144.595C834.012 143.148 832.823 136.125 831.635 135.378V135.394ZM618.995 147.749C609.807 142.371 577.991 163.684 577.107 170.844C576.467 175.978 581.511 175.963 585.457 174.333C590.546 172.246 599.659 163.364 605.997 160.058C612.9 156.448 620.93 158.23 618.98 147.749H618.995ZM763.203 157.773C759.866 155.655 745.085 160.18 741.124 162.069C738.015 163.562 720.477 175.094 723.601 178.705C732.911 183.991 737.939 174.82 746.365 171.042C750.068 169.382 761.374 167.279 763.111 166.045C764.848 164.811 764.635 158.687 763.203 157.773ZM533.634 192.797C535.006 191.791 542.944 187.51 545.2 186.322C548.719 184.494 561.809 182.925 555.759 175.506C550.228 168.711 533.04 181.051 528.012 185.012C524.339 187.907 510.9 198.951 515.974 203.446C519.479 206.553 527.463 199.667 530.206 197.443C531.852 196.118 532.598 193.528 533.619 192.782L533.634 192.797ZM422.538 180C417.357 179.375 417.357 181.843 422.538 181.219V180ZM402.637 184.951C401.586 182.239 400.58 181.996 398.919 184.342L402.637 184.951ZM699.647 184.037C695.183 178.827 679.016 186.733 673.972 189.445C671.092 190.999 655.413 199.515 661.553 203.461C665.241 205.837 682.627 196.103 687.503 194.274C691.419 192.812 706.55 192.096 699.632 184.022L699.647 184.037ZM354.121 186.216C348.94 185.591 348.94 188.059 354.121 187.434V186.216ZM633.684 206.508C631.261 205.685 628.64 205.822 626.202 206.386C621.768 207.422 602.813 215.176 598.805 217.537C593.442 220.691 594.981 226.724 601.121 227.196C601.609 227.242 601.472 225.155 602.569 224.819C609.273 222.778 625.105 218.893 630.636 215.785C633.608 214.125 634.232 211.413 636.503 209.204C635.269 209.28 633.867 206.569 633.684 206.508ZM354.121 223.509C357.123 220.28 349.87 212.266 345.786 211.337C334.145 208.701 310.908 211.444 301.628 219.777C298.062 222.991 290.474 234.767 289.682 239.383C289.545 240.16 289.27 247.945 289.56 248.28C289.758 248.524 294.101 249.865 294.421 249.636C296.158 234.615 309.734 219.96 324.926 218.543C328.827 218.177 336.08 218.04 339.874 218.497C343.15 218.893 352.963 224.774 354.136 223.494L354.121 223.509ZM341.2 256.659C356.163 232.147 313.376 218.604 310.557 245.249C308.47 264.886 333.81 268.786 341.2 256.659ZM63.9683 279.16C70.2157 271.894 57.1419 264.84 55.5877 273.935C54.3535 281.187 60.7227 282.923 63.9683 279.16ZM90.2531 277.149C88.5007 276.037 81.4762 277.835 79.8611 279.511C69.8348 289.87 98.0699 298.356 90.2531 277.149ZM701.201 365.296C703.015 368.023 707.388 377.224 709.902 378.367C711.67 379.174 712.066 377.117 712.492 375.975C718.298 360.512 716.302 339.199 714.869 323.005C698.413 327.377 680.722 328.307 664.768 334.537C662.818 335.299 660.746 334.873 661.386 337.935C656.693 336.426 647.428 332.481 651.42 341.058C660.411 345.08 669.858 348.964 678.391 353.885C684.912 357.648 691.007 363.65 697.483 367.124C699.739 368.342 701.765 368.769 701.186 365.28L701.201 365.296ZM53.7135 326.737V327.987C54.5211 327.575 54.5211 327.164 53.7135 326.737ZM1085.58 340.433C1084.14 339.016 1081.58 340.966 1084.97 342.901C1086.06 343.053 1085.67 340.509 1085.58 340.433ZM970.646 377.255C972.932 374.101 974.821 366.682 969.397 367.84C967.447 368.251 966.852 371.648 965.892 372.38C965.511 372.669 963.942 371.572 962.418 373.248C960.772 375.061 960.391 377.818 958.685 379.631C959.965 380.195 963.195 380.957 961.199 382.708C960.559 383.272 957.07 381.505 957.466 383.942C961.656 384.034 968.467 380.286 970.646 377.255ZM1000.57 392.337C1004.6 388.33 998.79 384.613 995.087 384.125C988.809 383.272 979.393 398.552 981.099 405.103C983.004 403.488 987.225 404.417 988.352 403.671C989.267 403.077 989.053 398.689 991.049 397.029C992.04 396.206 999.323 393.555 1000.56 392.337H1000.57ZM511.494 426.248V427.498C512.302 427.086 512.302 426.675 511.494 426.248ZM310.831 464.471C311.167 464.624 317.018 463.314 317.993 462.857C321.955 460.998 323.235 455.133 320.629 451.629C315.921 448.186 302.176 459.383 305.605 462.293C305.955 462.598 308.47 461.882 309.689 462.308C310.816 462.704 310.664 464.38 310.831 464.456V464.471ZM326.77 474.739C331.067 473.947 345.222 473.109 338.564 465.995C336.964 464.289 330.884 466.208 329.497 467.564C328.111 468.92 329.238 471.083 329.01 471.677C328.629 472.652 325.657 471.479 326.77 474.739ZM633.394 579.217V580.466C634.202 580.055 634.202 579.643 633.394 579.217Z" fill="#37AC9E"/>
<path d="M422.553 380.225C424.732 379.935 429.029 379.966 431.254 380.225C440.198 381.246 450.879 385.1 460.647 386.288C463.892 386.684 483.853 386.867 484.737 387.705C485.103 389.655 484.539 390.584 483.549 392.108C483.153 392.732 474.223 401.614 472.989 402.68C465.934 408.789 454.796 415.889 446.156 419.392C443.2 420.596 434.179 422.058 433.737 422.531C431.543 424.846 435.703 426.019 436.221 427.482C405.228 423.887 374.25 419.682 344.171 411.333C325.109 406.047 307.677 397.79 289.438 391.437V390.188H294.421C294.832 390.219 295.243 390.188 295.67 390.188C301.034 390.371 306.474 389.99 311.837 390.188C312.249 390.203 312.66 390.173 313.087 390.188H314.336C340.758 391.285 361.542 393.646 386.486 390.188C391.834 389.442 394.775 389.122 400.169 387.705C406.965 385.907 416.382 381.063 422.568 380.24L422.553 380.225Z" fill="#A1D7C6"/>
<path d="M53.0888 330.47C53.9117 330.668 57.2944 331.46 57.5077 331.429C59.3972 331.064 58.4829 326.951 61.1647 327.971C62.3837 332.694 64.4713 329.19 67.214 329.617C73.2481 330.561 79.465 334.293 86.3981 335.101C102.321 336.96 111.799 330.851 126.183 328.306C149.984 324.086 177.96 335.939 204.26 335.467C205.662 335.436 208.298 334.172 208.481 334.339C208.984 334.811 207.933 336.533 209.212 336.701C210.371 336.853 209.212 334.507 210.63 334.172C212.549 333.715 215.201 334.492 217.624 333.913C227.848 331.521 238.758 327.743 249.379 327.133C268.471 326.036 289.804 332.77 308.912 328.169C328.019 323.569 343.028 306.887 361.603 301.25C378.379 296.162 410.866 299.94 426.972 306.765C433.052 309.34 432.686 316.667 424.732 315.251C395.872 310.086 378.303 298.493 348.758 315.768C323.555 330.515 318.77 339.321 285.72 337.935C280.753 337.721 275.8 337.02 270.787 336.685C262.087 336.106 251.878 333.776 243.421 336.685C242.263 336.777 241.257 337.889 240.937 337.935C235.741 338.544 225.639 341.652 224.77 341.667C220.702 341.713 215.795 342.383 211.087 342.916C204.123 343.693 201.853 342.794 196.154 342.916C195.514 342.916 193.823 344.074 192.421 344.165C192.878 339.778 191.308 342.779 189.175 342.749C182.181 342.642 175.705 341.499 168.787 340.433C164.079 339.717 159.721 338.772 155.104 337.95C150.137 337.066 145.23 335.924 140.171 335.467C136.042 335.086 131.09 335.741 126.488 336.716C121.886 337.691 115.304 340.951 111.555 341.697C109.132 342.17 98.2681 344.104 96.6224 344.181C92.295 344.409 82.223 343.312 77.8955 342.383C69.5758 340.585 62.1704 335.924 54.3231 332.999C54.1707 332.435 53.0279 331.506 53.0736 330.515L53.0888 330.47Z" fill="#208173"/>
<path d="M502.153 388.924C506.74 389.289 511.265 389.701 515.837 390.173C516.248 390.219 516.675 390.127 517.086 390.173C521.383 390.645 526.533 390.661 530.769 391.422C534.183 392.032 538.358 393.433 541.969 393.921C543.919 396.754 529.794 410.739 527.052 413.192C524.873 415.157 519.6 419.712 517.391 421.221C515.501 422.516 508.66 424.633 508.355 425.014C507.73 425.806 511.357 428.67 507.121 429.965C485.971 430.194 464.791 430.011 443.672 427.482C448.289 425.227 453.058 421.525 457.355 418.783C459.808 418.692 461.393 417.214 462.338 415.051C463.191 414.579 464.791 414.548 466.071 413.802C466.574 413.512 466.94 412.994 467.32 412.552C467.732 412.141 468.189 411.76 468.57 411.303L476.036 405.087C476.356 404.828 477.469 404.661 478.52 403.838C480.912 401.98 481.857 400.334 483.503 398.857C483.945 398.461 484.326 398.019 484.752 397.607C486.032 396.373 487.236 395.063 488.485 393.875C490.603 391.864 492.417 390.066 494.276 387.781C496.957 388.101 499.456 388.68 502.169 388.893L502.153 388.924Z" fill="#A1D7C6"/>
<path d="M568.087 396.389C576.101 406.276 580.536 410.739 591.72 416.285C593.533 417.184 595.758 417.732 595.453 420.017C590.851 420.611 582.471 423.993 577.29 424.831C554.876 428.442 534.594 429.523 512.119 429.965C521.932 424.801 529.597 420.413 537.49 412.415C539.79 410.084 549.741 396.297 550.685 395.764C555.318 393.189 562.906 397.287 568.102 396.373L568.087 396.389Z" fill="#A1D7C6"/>
<path d="M357.854 183.717C348.072 184.524 337.375 184.083 327.532 185.118C320.416 185.865 310.252 191.273 304.965 191.243C299.678 191.212 293.857 185.134 289.438 182.483C295.259 182.833 299.129 188.516 305.011 188.79C310.892 189.064 322.945 183.199 331.128 182.513C339.31 181.828 350.129 181.919 357.854 183.732V183.717Z" fill="#1A9B8E"/>
<path d="M670.102 514.546L673.804 558.65C669.157 568.049 665.667 561.697 661.386 558.071L670.071 561.803L671.321 546.889L667.603 548.123C666.384 544.817 669.904 546.097 670.132 544.817C670.483 542.73 670.193 532.614 669.919 530.223C669.507 526.521 669.355 523.519 665.104 524.479C665.149 522.468 668.669 522.575 668.928 521.158C669.309 519.147 667.039 515.323 667.648 514.622C668.045 514.165 669.843 514.76 670.071 514.531L670.102 514.546Z" fill="#1A9B8E"/>
<path d="M568.087 518.279C567.934 515.735 574.502 511.393 576.071 510.723C582.303 508.011 591.781 509.032 584.939 515.857C581.739 519.056 575.431 517.853 570.57 518.279C569.763 518.355 568.879 518.157 568.087 518.279Z" fill="#1A9B8E"/>
<path d="M432.503 173.769C433.25 177.364 430.72 176.039 428.556 176.602C415.803 179.893 401.556 181.858 388.406 182.528C384.215 182.742 377.709 183.29 374.037 181.218C393.647 180.045 413.487 179.223 432.503 173.753V173.769Z" fill="#1A9B8E"/>
<path d="M138.921 253.368C142.182 254.846 133.223 255.394 132.903 255.44C128.667 256.11 122.084 256.293 118.625 257.131C117.497 257.405 118.244 259.721 115.989 259.691C113.109 259.66 104.515 258.441 101.513 257.801C99.5934 257.405 97.3687 256.644 96.6221 254.602C114.176 257.116 121.84 254.678 138.921 253.353V253.368Z" fill="#1A9B8E"/>
<path d="M187.438 387.69C178.798 387.187 169.9 384.156 161.321 382.708C160.925 378.519 162.19 380.956 164.475 381.414C170.311 382.587 176.132 383.851 181.937 385.1C184.04 385.557 186.6 384.689 187.438 387.69Z" fill="#1A9B8E"/>
<path d="M370.304 504.598C368.551 505.573 368.643 507.325 365.245 506.594C359.698 505.391 357.626 488.023 360.353 483.453C365.077 488.739 356.636 507.219 370.304 504.598Z" fill="#1A9B8E"/>
<path d="M245.904 391.423C244.533 391.133 241.866 392.443 242.171 390.189C248.159 389.153 258.46 391.56 263.763 390.204C265.789 389.686 262.726 384.445 268.288 391.423C263.336 391.59 258.308 391.392 253.355 391.423H248.373C247.565 391.377 246.59 391.575 245.889 391.423H245.904Z" fill="#1A9B8E"/>
<path d="M584.269 100.385C584.132 100.385 583.629 101.512 582.653 101.36C581.054 101.101 578.128 97.9014 575.858 96.9721C570.54 94.7936 566.09 95.0983 560.635 96.6522C568.604 87.8467 576.543 96.6522 584.269 100.385Z" fill="#1A9B8E"/>
<path d="M214.804 391.422C214.378 387.004 215.856 390.006 218.004 390.082C223.993 390.28 229.981 390.128 235.954 390.188L230.987 392.656C230.179 392.626 229.295 392.763 228.503 392.656C228.366 392.062 227.848 391.499 227.254 391.407C223.536 390.874 218.781 391.651 214.82 391.407L214.804 391.422Z" fill="#1A9B8E"/>
<path d="M95.3878 254.602C90.649 253.856 83.8378 254.283 80.4551 250.87C85.2701 250.779 91.7613 251.129 95.3878 254.602Z" fill="#1A9B8E"/>
<path d="M122.755 378.976C126.899 376.843 133.695 377.498 138.328 377.727C141.375 377.879 142.396 376.828 140.171 380.21C138.221 379.981 136.225 379.219 133.954 378.96H132.705C129.49 378.625 125.985 379.25 122.755 378.96V378.976Z" fill="#1A9B8E"/>
<path d="M335.47 499.617C331.493 502.831 319.318 512.947 318.054 502.1C320.37 504.141 322.899 505.177 326.023 504.568L335.455 499.617H335.47Z" fill="#1A9B8E"/>
<path d="M589.236 488.419C586.966 491.146 580.124 493.949 576.436 495.107C574.791 495.625 574.41 494.605 574.303 494.635C578.814 492.045 584.086 488.983 589.236 488.419Z" fill="#1A9B8E"/>
<path d="M607.902 444.895C609.746 445.246 607.369 450.197 607.003 450.791C605.555 453.183 601.868 457.205 600.436 459.81C601.868 454.34 604.915 449.572 607.902 444.88V444.895Z" fill="#1A9B8E"/>
<path d="M573.069 494.65C573.739 497.834 571.545 497.21 569.671 498.032C564.048 500.47 557.328 501.811 553.108 506.457C551.508 508.209 555.134 509.047 548.201 509.58C553.687 502.405 564.201 497.773 573.084 494.65H573.069Z" fill="#1A9B8E"/>
<path d="M193.655 388.924C195.94 386.867 203.788 386.319 202.355 390.173C199.491 389.777 196.519 389.366 193.655 388.924Z" fill="#1A9B8E"/>
<path d="M259.588 179.984C259.527 184.311 252.472 183.778 249.637 186.825C246.803 189.871 251.024 194.061 244.655 191.182C248.51 186.825 253.188 181.218 259.588 179.984Z" fill="#1A9B8E"/>
<path d="M303.121 459.825L289.438 461.074C292.912 460.388 300.409 457.22 303.121 459.825Z" fill="#1A9B8E"/>
<path d="M555.652 100.385C556.78 99.4402 556.978 97.5664 559.386 96.6523C559.309 98.8918 557.923 100.293 556.262 101.604L555.652 100.385Z" fill="#1A9B8E"/>
<path d="M281.972 454.843V459.824C285.11 459.992 287.731 458.545 286.954 462.308C280.646 462.277 280.661 459.185 281.972 454.843Z" fill="#1A9B8E"/>
<path d="M61.7891 258.335C61.4386 261.062 57.096 264.002 54.9779 265.861C52.4942 268.039 49.9038 270.644 46.8716 272.015C51.6714 267.034 56.6388 262.113 61.8043 258.335H61.7891Z" fill="#1A9B8E"/>
<path d="M45.6224 273.265C46.7804 277.972 43.6872 276.738 41.8892 278.246C42.2853 275.641 44.3576 274.742 45.6224 273.265Z" fill="#1A9B8E"/>
<path d="M265.804 178.735L267.054 179.969C265.042 180.198 262.787 179.71 260.837 179.969C261.751 177.958 264.342 179.024 265.82 178.72L265.804 178.735Z" fill="#1A9B8E"/>
<path d="M430.004 437.43C430.172 439.837 426.789 441.787 425.022 443.646C424.976 440.294 427.978 439.213 430.004 437.43Z" fill="#1A9B8E"/>
<path d="M253.371 391.422C253.203 391.422 252.289 392.687 250.43 392.687C249.409 392.687 248.632 391.438 248.388 391.422H253.371Z" fill="#37AC9E"/>
<path d="M361.588 183.717C362.151 188.897 359.79 188.897 360.338 183.717C360.75 183.671 361.176 183.778 361.588 183.717Z" fill="#1A9B8E"/>
<path d="M188.672 387.69L192.421 386.471C192.421 387.202 191.187 387.492 191.156 387.69C190.333 387.69 189.495 387.69 188.672 387.69Z" fill="#1A9B8E"/>
<path d="M422.553 446.144C422.126 446.555 421.745 446.997 421.304 447.393L420.069 446.159H422.553V446.144Z" fill="#1A9B8E"/>
<path d="M284.471 449.876L285.705 451.11H283.221C283.541 450.638 284.105 450.318 284.471 449.876Z" fill="#1A9B8E"/>
<path d="M228.488 392.656C227.848 392.58 227.391 392.032 227.238 391.407C227.817 391.499 228.351 392.047 228.488 392.656Z" fill="#37AC9E"/>
<path d="M132.705 378.976H133.954C133.954 378.976 133.421 379.052 132.705 378.976Z" fill="#37AC9E"/>
<path d="M281.972 453.609C282.17 453.076 283.038 452.725 283.221 452.36L281.972 453.609Z" fill="#1A9B8E"/>
<path d="M661.385 337.935C660.746 334.872 662.818 335.299 664.768 334.537C680.722 328.306 698.413 327.377 714.869 323.005C716.302 339.199 718.313 360.512 712.492 375.975C712.065 377.133 711.669 379.174 709.902 378.367C707.388 377.224 703.014 368.022 701.201 365.296C700.912 364.869 700.333 364.503 699.952 364.046C698.824 362.675 698.245 360.969 696.218 360.314C690.55 351.935 671.442 341.149 661.385 337.919V337.935Z" fill="#A1D7C6"/>
<path d="M431.253 380.225C429.029 379.966 424.732 379.936 422.553 380.225C422.553 373.507 428.952 374.893 433.295 372.288C472.166 349.056 472.913 288.408 444.952 255.562C443.337 253.658 435.154 247.138 435.002 246.498C434.667 245.111 436.815 242.872 438.065 242.674C446.582 241.333 460.174 263.332 463.435 270.34C480.653 307.39 470.825 361.944 431.269 380.225H431.253Z" fill="#208173"/>
<path d="M341.2 256.659C333.794 268.786 308.469 264.886 310.557 245.248C313.391 218.603 356.163 232.147 341.2 256.659Z" fill="#255A4B"/>
<path d="M354.121 223.509C352.933 224.789 343.135 218.908 339.859 218.512C336.065 218.055 328.812 218.192 324.911 218.558C309.734 219.959 296.158 234.615 294.405 249.651C294.07 249.88 289.743 248.539 289.544 248.295C289.255 247.945 289.544 240.175 289.666 239.398C290.459 234.782 298.047 223.006 301.613 219.792C310.892 211.443 334.129 208.716 345.771 211.352C349.87 212.281 357.108 220.295 354.106 223.524L354.121 223.509Z" fill="#208173"/>
<path d="M533.634 192.796C532.613 193.543 531.867 196.133 530.221 197.458C527.478 199.682 519.494 206.568 515.989 203.46C510.915 198.966 524.355 187.906 528.027 185.027C533.055 181.066 550.228 168.711 555.774 175.521C561.824 182.94 548.735 184.494 545.215 186.337C542.944 187.51 535.021 191.791 533.65 192.812L533.634 192.796Z" fill="#208173"/>
<path d="M618.995 147.748C620.93 158.245 612.9 156.447 606.013 160.058C599.674 163.379 590.562 172.245 585.473 174.332C581.511 175.962 576.482 175.978 577.122 170.844C578.006 163.668 609.822 142.371 619.01 147.748H618.995Z" fill="#208173"/>
<path d="M660.609 136.947C654.133 141.228 645.234 153.233 637.752 144.534C641.729 143.757 641.592 138.318 643.101 136.825C643.832 136.109 658.948 125.78 659.862 125.339C666.536 122.139 680.92 117.158 680.768 129.01L660.609 136.932V136.947Z" fill="#208173"/>
<path d="M699.647 184.037C706.55 192.096 691.419 192.827 687.518 194.289C682.642 196.118 665.256 205.852 661.568 203.476C655.428 199.515 671.092 190.999 673.987 189.46C679.031 186.748 695.198 178.826 699.662 184.052L699.647 184.037Z" fill="#208173"/>
<path d="M633.684 206.508C633.867 206.569 635.269 209.28 636.503 209.204C634.233 211.413 633.608 214.125 630.637 215.785C625.105 218.893 609.274 222.778 602.569 224.819C601.472 225.154 601.609 227.226 601.121 227.196C594.996 226.708 593.442 220.691 598.805 217.537C602.813 215.176 621.768 207.422 626.202 206.386C628.64 205.822 631.261 205.685 633.684 206.508Z" fill="#208173"/>
<path d="M661.386 337.934C671.442 341.164 690.55 351.95 696.219 360.329C697.377 362.035 696.752 364.854 699.952 364.061C700.318 364.518 700.912 364.884 701.201 365.311C701.78 368.799 699.754 368.358 697.499 367.154C691.023 363.665 684.928 357.663 678.406 353.915C669.873 348.995 660.426 345.11 651.436 341.088C647.443 332.496 656.723 336.457 661.401 337.965L661.386 337.934Z" fill="#208173"/>
<path d="M591.72 416.285C580.535 410.724 576.101 406.276 568.086 396.389C566.685 394.667 558.334 384.125 558.395 383.317C566.166 373.156 574.806 391.788 579.88 397.653C584.954 403.518 595.224 407.769 591.72 416.3V416.285Z" fill="#208173"/>
<path d="M111.555 341.667C114.16 359.354 100.294 359.735 96.6221 344.15C98.2677 344.059 109.132 342.139 111.555 341.667Z" fill="#FEFDF0"/>
<path d="M243.421 336.7C247.504 336.365 251.771 336.944 255.87 336.7C257.47 356.292 245.173 353.001 240.937 337.949C241.257 337.919 242.263 336.807 243.421 336.7Z" fill="#FEFDF0"/>
<path d="M285.705 337.934C287.366 357.587 272.28 351.813 270.772 336.685C275.77 337.02 280.737 337.721 285.705 337.934Z" fill="#FEFDF0"/>
<path d="M310.831 464.471C310.649 464.395 310.816 462.719 309.689 462.323C308.47 461.896 305.971 462.597 305.605 462.308C302.161 459.398 315.921 448.201 320.629 451.644C323.25 455.132 321.97 461.013 317.993 462.871C317.018 463.328 311.167 464.638 310.831 464.486V464.471Z" fill="#208173"/>
<path d="M196.138 342.916C196.915 362.325 183.948 362.599 182.455 344.165C185.746 343.998 189.129 344.379 192.405 344.165C193.807 344.074 195.498 342.931 196.138 342.916Z" fill="#FEFDF0"/>
<path d="M90.253 277.149C98.0699 298.34 69.8347 289.855 79.861 279.511C81.4762 277.835 88.5007 276.053 90.253 277.149Z" fill="#208173"/>
<path d="M224.755 341.667C224.861 345.856 223.993 350.229 226.004 354.098C217.334 357.587 212.153 351.158 211.071 342.916C215.78 342.398 220.686 341.713 224.755 341.667Z" fill="#FEFDF0"/>
<path d="M168.772 340.418C166.715 359.324 157.237 350.929 155.089 337.935C159.706 338.757 164.079 339.702 168.772 340.418Z" fill="#FEFDF0"/>
<path d="M140.171 335.451C135.569 346.953 130.495 351.95 126.488 336.701C131.09 335.741 136.042 335.086 140.171 335.451Z" fill="#FEFDF0"/>
<path d="M63.9682 279.16C60.7226 282.938 54.3381 281.186 55.5876 273.935C57.1418 264.84 70.2309 271.893 63.9682 279.16Z" fill="#208173"/>
<path d="M326.77 474.739C325.642 471.479 328.629 472.652 329.01 471.677C329.238 471.083 328.141 468.858 329.497 467.564C330.854 466.269 336.979 464.303 338.564 465.994C345.238 473.109 331.082 473.947 326.77 474.739Z" fill="#1A9B8E"/>
<path d="M386.47 390.173L388.954 386.456L390.219 388.329L391.468 385.206C393.586 384.628 392.032 387.796 393.388 387.766C395.125 387.72 398.508 384.719 400.169 387.69C394.775 389.122 391.834 389.442 386.485 390.173H386.47Z" fill="#1A9B8E"/>
<path d="M515.852 390.173C511.281 389.701 506.755 389.289 502.169 388.924C505.354 386.578 513.094 386.776 515.852 390.173Z" fill="#1A9B8E"/>
<path d="M311.837 390.173C306.473 389.975 301.034 390.356 295.67 390.173C299.403 388.101 307.845 388.056 311.837 390.173Z" fill="#1A9B8E"/>
<path d="M530.77 391.422C526.518 390.661 521.383 390.645 517.086 390.173C520.271 387.446 527.311 389.686 530.77 391.422Z" fill="#1A9B8E"/>
<path d="M402.637 184.951L398.919 184.342C400.58 181.996 401.586 182.224 402.637 184.951Z" fill="#1A9B8E"/>
<path d="M294.421 390.173H289.438C290.291 386.837 293.918 390.143 294.421 390.173Z" fill="#1A9B8E"/>
<path d="M478.521 403.854C479.237 400.959 480.593 399.603 483.503 398.872C481.858 400.335 480.913 401.98 478.521 403.854Z" fill="#1A9B8E"/>
<path d="M354.121 186.215V187.434C348.94 188.058 348.94 185.59 354.121 186.215Z" fill="#1A9B8E"/>
<path d="M422.537 180V181.218C417.357 181.843 417.357 179.375 422.537 180Z" fill="#1A9B8E"/>
<path d="M488.471 393.906C487.221 395.094 486.017 396.404 484.737 397.638C486.444 396.099 487.404 390.554 488.471 393.906Z" fill="#1A9B8E"/>
<path d="M476.037 405.103L468.57 411.318C472.06 407.19 472.822 407.601 476.037 405.103Z" fill="#1A9B8E"/>
<path d="M457.371 418.783C458.986 417.747 460.357 416.148 462.353 415.051C461.409 417.214 459.839 418.692 457.371 418.783Z" fill="#1A9B8E"/>
<path d="M466.086 413.801C466.483 413.36 466.909 412.964 467.336 412.552C466.97 412.979 466.589 413.512 466.086 413.801Z" fill="#1A9B8E"/>
<path d="M511.494 426.248C512.302 426.659 512.302 427.071 511.494 427.497V426.248Z" fill="#A1D7C6"/>
<path d="M314.321 390.173H313.071C313.33 390.173 313.742 390.143 314.321 390.173Z" fill="#1A9B8E"/>
<path d="M53.7134 326.737C54.521 327.149 54.521 327.56 53.7134 327.987V326.737Z" fill="#208173"/>
</g>
</g>
<defs>
<clipPath id="clip0_504_11323">
<rect width="669" height="516" fill="white"/>
</clipPath>
<clipPath id="clip1_504_11323">
<rect width="1157" height="780" fill="white" transform="translate(32 -196)"/>
</clipPath>
</defs>
</svg>
