<svg width="669" height="516" viewBox="0 0 669 516" fill="none" xmlns="http://www.w3.org/2000/svg">
<g clip-path="url(#clip0_504_11356)">
<rect width="669" height="516" fill="#D9D9D9" fill-opacity="0.6"/>
<g clip-path="url(#clip1_504_11356)">
<path d="M320.583 210.973C325.003 215.203 325.419 223.41 326.982 229.248C327.414 229.159 327.816 228.31 327.875 228.325C328.991 228.459 328.962 229.337 329.229 230.157C331.417 236.591 333.129 245.259 334.721 252.051C340.228 275.375 343.636 299.205 349.783 322.365L351.807 321.203C356.554 308.439 360.394 295.273 365.231 282.554C365.767 281.139 367.062 280.498 367.106 280.364L374.399 284.013C370.351 295.124 364.383 312.207 363.46 323.75C363.385 324.748 362.775 327.146 364.353 326.923C374.815 301.603 388.582 278.785 404.507 256.623L411.799 261.196C395.116 284.251 379.727 310.271 369.845 336.946L382.599 344.289C375.083 350.381 374.964 363.249 383.195 368.79C392.422 375 405.876 370.085 407.23 358.885C412.796 360.851 418.169 364.753 423.214 368C442.205 380.213 480.826 406.605 493 424.627C493.342 425.134 494.786 427.204 494.83 427.368C495.158 428.529 495.664 434.293 495.783 436.006C497.331 458.734 489.919 489.595 473.875 506.365L465.199 514.125C475.513 512.353 483.713 502.523 488.833 493.944C497.39 479.616 503.18 454.639 499.906 438.27C499.087 434.144 496.319 430.168 495.753 427.368C495.604 426.623 496.274 425.342 496.661 424.627C497.271 424.627 497.881 424.627 498.492 424.627C504.341 426.712 511.499 424.999 517.646 425.536C529.374 454.326 534.88 486.497 525.861 516.851C523.004 517.148 519.64 519.8 516.53 520.753C504.385 524.506 494.146 523.508 482.061 520.515C487.24 527.083 492.911 533.457 498.492 539.683C500.471 542.349 502.897 546.266 505.1 548.605C505.576 549.111 506.588 548.709 506.707 548.813C507.317 549.409 507.927 550.049 508.538 550.645C515.012 556.93 525.504 559.313 534.27 562.784C540.759 565.36 546.891 568.428 553.781 570.663C554.793 570.99 557.249 572.167 557.815 570.722C558.559 571.005 559.154 571.452 559.645 571.631C560.94 573.775 562.116 575.518 563.291 572.539C572.013 575.786 585.913 578.229 591.569 585.78C601.57 599.125 610.931 624.489 618.938 640.113L607.985 643.762C599.144 626.887 591.003 609.61 581.567 593.048C577.356 589.801 545.358 581.163 545.03 578.944C545.03 578.869 545.834 578.452 545.953 578.05C535.103 574.46 523.867 570.856 513.092 567.073C509.311 565.747 505.234 564.884 502.123 562.069C489.13 547.681 475.84 533.591 462.401 519.606C461.538 518.697 461.136 516.97 461.017 516.88C460.779 516.702 456.031 518.578 455.599 519.353C451.864 546.162 449.066 573.165 447.592 600.212C458.65 616.73 470.497 632.681 482.091 648.811C482.999 650.077 482.835 651.805 482.984 651.998C480.052 653.562 476.644 655.677 474.768 658.388C462.862 642.079 449.289 626.277 438.276 609.074C440.27 608.732 437.294 607.153 436.564 605.768C433.632 600.123 438.782 592.274 435.537 586.256C436.43 573.209 437.829 560.013 439.184 546.996L440.999 549.736C439.883 544.613 443.559 538.834 440.999 534.217C441.431 529.674 442.279 525.147 441.907 520.529C436.356 521.14 427.024 517.58 422.217 517.863C421.19 517.923 420.565 518.295 420 519.129L374.622 592.437C373.446 596.876 379.161 610.102 380.783 615.493L368.014 620.066C366.05 608.627 356.807 595.982 363.281 584.737L406.888 513.246C407.915 510.312 401.664 508.361 399.566 508.659L313.245 568.443C307.709 588.312 301.934 608.3 296.844 628.272L284.983 627.364C289.701 608.583 294.24 581.624 300.967 564.377C303.78 557.169 313.469 552 319.734 547.547C342.058 531.7 365.782 517.729 388.076 501.808C386.558 500.02 384.579 499.38 382.272 499.544C376.378 499.961 363.981 504.831 357.09 506.38C348.622 508.287 340.079 509.895 331.536 511.385L326.982 510.908C314.763 514.244 297.261 512.74 285.697 516.18C284.774 516.448 280.711 518.921 280.027 519.636C279.744 519.919 277.08 523.776 278.613 524.164C257.569 549.871 238.4 577.231 217.058 602.729C215.361 606.929 217.817 614.481 218.382 619.127C214.766 623.447 223.874 637.939 216.105 638.385C210.911 638.683 211.938 634.692 211.105 630.506C210.703 628.526 211.968 627.423 209.259 629.181C207.741 622.687 203.857 606.229 204.764 600.48C205.613 595.089 227.252 568.414 232.119 562.113C246.109 543.973 260.858 526.338 275.398 508.644C283.003 502.031 301.309 502.791 311.787 501.227C323.753 499.44 336.135 497.414 347.952 494.971C348.815 496.699 351.033 495.537 352.372 495.299C357.507 494.376 366.481 492.976 371.08 491.337C372.137 490.965 371.675 490.399 371.675 489.49C371.675 488.388 372.018 487.658 370.559 487.39L275.324 461.281C269.981 460.76 256.899 466.181 251.244 468.49L246.674 460.268C254.25 456.947 261.245 451.347 269.49 449.306C273.002 450.245 276.797 450.945 280.399 451.645C281.798 451.913 284.135 452.807 285.013 451.124C309.554 456.053 333.501 463.351 357.998 468.475C358.697 467.805 350.527 452.97 349.634 450.826C343.949 437.391 340.466 423.778 339.752 409.123L341.582 388.554C341.478 386.99 341.002 384.95 339.737 383.996C339.305 383.669 338.874 384.503 338.829 384.473C331.566 380.586 301.131 359.287 296.026 353.806C292.141 349.621 294.969 344.781 300.744 346.344C305.313 347.581 316.415 354.983 321.475 357.56C329.274 361.521 337.102 365.662 345.214 368.953L295.192 308.961C293.868 304.79 297.574 302.229 301.16 303.882L335.168 332.433C328.143 313.473 319.288 295.035 309.42 277.356C308.795 276.224 308.914 274.302 308.721 273.99L314.198 269.417C314.719 270.326 316.683 271.934 317.665 273.707C324.988 286.903 332.429 301.141 337.936 315.067C339.618 315.216 338.844 312.088 338.725 311.076C337.46 299.562 333.158 285.577 330.628 273.975C333.158 270.892 329.78 265.991 328.798 263.013C325.94 254.24 324.065 245.393 321.505 236.531C323.053 235.444 321.758 232.212 321.371 230.723C319.898 224.914 316.594 218.569 316.936 212.805C318.097 212.463 319.407 211.509 320.583 210.973ZM363.013 327.846V328.755C363.609 328.457 363.609 328.144 363.013 327.846Z" fill="#56BFB4"/>
<path d="M575.138 417.329C583.844 437.898 591.405 459.464 594.188 481.82C594.754 486.392 595.989 495.344 595.215 499.514C594.218 504.906 579.573 515.361 574.573 517.67C559.437 524.655 549.301 523.359 534.076 518.697C537.38 509.806 538.884 501.48 540.461 492.216C540.699 490.831 541.339 489.699 541.369 489.475C542.232 483.995 542.515 479.258 542.277 473.45C542.202 471.692 543.214 469.786 540.446 470.292C540.416 469.994 540.461 469.681 540.446 469.384C540.402 468.788 540.446 468.162 540.446 467.552C542.455 466.613 541.309 464.543 540.446 462.979C540.104 462.368 539.092 461.773 538.616 461.147C538.601 460.849 538.645 460.537 538.616 460.239C538.407 457.707 538.139 455.428 537.708 452.941C535.952 442.902 531.665 433.012 527.677 423.719C543.691 422.631 559.169 419.965 575.123 417.329H575.138Z" fill="#56BFB4"/>
<path d="M608.907 411.848C620.278 412.861 630.755 411.699 641.754 411.848C643.778 411.878 645.4 412.727 646.323 412.756C650.564 422.586 652.202 432.193 652.708 442.887L649.969 476.235L650.877 481.239C650.282 485.796 648.898 490.28 649.046 494.941C645.311 495.478 639.611 498.858 635.369 499.976C620.918 503.744 616.87 501.554 603.431 499.514C604.472 497.995 604.324 496.267 604.383 494.539C605.187 467.685 596.584 439.089 584.276 415.512C589.292 414.663 605.172 411.52 608.907 411.863V411.848Z" fill="#56BFB4"/>
<path d="M691.938 422.81C700.05 425.923 704.842 428.961 712.015 432.849C711.494 453.656 706.077 475.148 697.415 494.033C691.165 493.586 690.51 494.808 684.646 495.865C680.732 493.378 675.597 495.925 671.415 495.955C669.168 495.955 663.735 495.374 661.444 495.016C660.298 494.837 661.503 491.74 660.015 491.308C661.875 482.624 663.229 473.718 663.661 464.826C663.974 458.317 664.003 450.334 663.661 443.826C663.304 436.974 661.92 431.225 660.923 424.657C660.908 424.553 661.86 423.912 661.667 422.676C661.265 420.174 660.298 417.746 659.107 415.542C669.034 416.48 678.455 419.712 687.816 422.87C689.007 423.272 691.165 424.553 691.953 422.825L691.938 422.81Z" fill="#56BFB4"/>
<path d="M159.089 277.624C171.546 270.981 186.473 266.125 200.716 264.964C209.199 264.264 217.445 263.966 224.782 268.508C221.984 273.379 217.43 273.543 213.218 275.643C199.109 282.673 184.717 289.509 172.781 300.009C173.034 300.977 174.701 300.292 175.52 300.456C181.726 301.796 199.02 295.571 205.895 292.905C207.324 292.354 208.842 292.666 208.381 290.403C212.25 288.943 216.12 287.632 219.945 285.994C224.35 284.117 242.254 271.845 238.98 284.028C235.244 297.879 202.815 325.969 190.135 332.389C175.728 317.644 158.94 304.001 146.334 287.647C146.468 282.166 153.21 281.824 157.065 279.619C158.181 278.979 158.896 277.713 159.104 277.594L159.089 277.624Z" fill="#56BFB4"/>
<path d="M146.32 369.847C142.763 374.33 135.262 385.932 133.55 390.847C113.682 392.084 93.694 388.256 76.0728 378.977C78.4987 364.366 82.6361 353.434 89.7649 340.625C103.502 358.572 124.338 367.092 146.335 369.847H146.32Z" fill="#56BFB4"/>
<path d="M127.151 407.291H129.889C130.35 407.44 131.139 407.186 131.72 407.291C131.749 412.757 132.598 421.365 134.458 426.459C120.93 438.24 105.749 447.534 87.9195 451.109C78.4391 434.01 76.5341 426.191 75.15 406.367C92.2653 410.701 109.916 411.521 127.151 407.276V407.291Z" fill="#56BFB4"/>
<path d="M144.489 285.845C145.516 286.113 145.769 286.962 146.32 287.677C158.91 304.031 175.713 317.674 190.12 332.419C189.123 332.925 175.609 343.917 172.781 346.121C150.665 338.57 132.047 320.414 128.073 296.807C134.815 291.52 137.688 290.03 144.504 285.845H144.489Z" fill="#CDE8D6"/>
<path d="M128.059 296.807C132.032 320.414 150.651 338.57 172.767 346.121C167.706 350.038 154.446 359.675 150.874 363.473C132.613 352.377 116.807 337.661 105.258 319.64C114.084 308.961 116.882 305.58 128.073 296.807H128.059Z" fill="#56BFB4"/>
<path d="M144.489 444.719C139.429 451.406 132.627 458.824 126.258 464.364C121.063 468.877 113.592 474.849 107.089 476.681C97.5933 467.581 94.1851 462.398 87.9343 451.109C105.764 447.534 120.944 438.24 134.473 426.459C135.113 428.202 143.224 443.021 144.504 444.719H144.489Z" fill="#CDE8D6"/>
<path d="M144.489 444.719C145.888 446.581 159.208 458.243 160.92 459.33C154.029 470.709 147.778 482.49 138.849 492.499C137.807 493.676 137.435 495.031 135.366 494.942C122.716 490.071 116.882 486.08 107.089 476.682C113.592 474.865 121.078 468.877 126.258 464.364C132.628 458.824 139.429 451.407 144.489 444.719Z" fill="#56BFB4"/>
<path d="M133.535 390.848C132.002 395.227 131.69 402.599 131.705 407.291C131.139 407.186 130.35 407.44 129.874 407.291C129.606 407.201 129.264 406.397 128.475 406.367C127.627 406.338 127.299 407.246 127.136 407.291C109.901 411.535 92.2356 410.716 75.1352 406.382C74.3613 395.405 74.1976 390.178 76.0431 378.992C93.6643 388.271 113.652 392.099 133.521 390.863L133.535 390.848Z" fill="#CDE8D6"/>
<path d="M105.258 319.625C116.822 337.631 132.613 352.361 150.874 363.457C150.353 364.009 147.585 368.238 146.305 369.847C124.308 367.092 103.472 358.572 89.7354 340.625C94.7211 331.674 99.1711 326.982 105.243 319.625H105.258Z" fill="#CDE8D6"/>
<path d="M182.812 469.384V470.292C179.077 479.526 174.999 488.597 170.951 497.682C170.549 498.576 170.102 499.41 170.043 500.423C157.154 501.689 146.96 499.41 135.366 494.942C137.435 495.031 137.807 493.661 138.849 492.499C147.763 482.505 154.014 470.724 160.92 459.33C164.134 461.371 179.285 468.356 182.812 469.369V469.384Z" fill="#CDE8D6"/>
<path d="M527.692 423.719C531.695 433.013 535.966 442.902 537.723 452.941C536.145 454.192 537.544 458.586 538.63 460.239C538.66 460.537 538.616 460.849 538.63 461.147C538.764 463.262 538.511 465.422 538.63 467.552C539.196 467.462 540.119 467.701 540.446 467.552C540.446 468.162 540.402 468.773 540.446 469.384C538.824 474.701 539.464 481.537 539.523 487.197C539.538 488.746 538.943 491.263 540.446 492.201C538.869 501.465 537.351 509.791 534.061 518.683C531.1 517.774 529.165 516.508 525.846 516.851C534.865 486.497 529.359 454.326 517.631 425.536V424.627C520.488 424.493 524.388 423.942 527.662 423.719H527.692Z" fill="#CDE8D6"/>
<path d="M229.336 468.46L233.905 475.758C230.824 477.069 226.806 479.631 222.951 481.239L216.581 482.624C203.291 489.044 189.435 494.182 175.133 497.831C173.674 498.203 172.305 498.755 170.936 497.667C174.984 488.567 179.062 479.512 182.797 470.277C185.06 470.158 186.518 471.767 188.721 472.199C197.963 474.001 205.925 473.137 215.108 473.003L229.336 468.445V468.46Z" fill="#56BFB4"/>
<path d="M657.261 413.68L660.908 424.642C661.905 431.21 663.289 436.974 663.646 443.811C662.113 450.021 662.113 458.6 663.646 464.811C663.215 473.703 661.86 482.609 660 491.292C659.672 492.812 659.092 494.271 659.092 495.865C655.922 495.597 652.916 494.39 649.061 494.956C648.897 490.295 650.296 485.811 650.892 481.254C652.544 468.609 653.332 455.696 652.722 442.902C652.216 432.208 650.579 422.602 646.337 412.771C650.49 412.92 653.139 413.069 657.291 413.68H657.261Z" fill="#CDE8D6"/>
<path d="M584.261 415.512C596.584 439.089 605.172 467.686 604.368 494.539C604.323 496.282 604.457 497.995 603.415 499.514C600.93 499.142 597.805 499.782 595.2 499.514C595.974 495.359 594.739 486.407 594.173 481.82C591.39 459.464 583.845 437.898 575.123 417.329C578.159 416.823 581.195 416.018 584.246 415.497L584.261 415.512Z" fill="#CDE8D6"/>
<path d="M407.26 358.9C405.906 370.1 392.452 375 383.224 368.804C374.979 363.249 375.098 350.38 382.629 344.304C393.106 335.829 408.957 344.914 407.26 358.915V358.9Z" fill="#0B585F"/>
<path d="M617.108 23.7856C624.266 20.7472 642.885 13.5534 650.222 15.7577C653.303 16.6811 653.347 21.5961 651.174 22.9515C648.823 24.3962 635.637 26.4665 631.514 27.7027C612.851 33.3028 592.224 42.0902 575.138 51.1905L573.308 43.8924C587.253 37.0114 602.433 30.041 617.108 23.8005V23.7856Z" fill="#56BFB4"/>
<path d="M306.89 256.623L300.506 261.196C292.35 248.327 278.434 228.563 268.567 217.363L273.136 211.882C287.751 227.818 295.386 237.946 306.89 256.623Z" fill="#56BFB4"/>
<path d="M434.629 174.453C424.479 188.007 414.002 203.675 405.429 218.286L399.045 212.805C408.465 196.988 418.214 183.464 429.153 168.972L434.629 174.453Z" fill="#56BFB4"/>
<path d="M538.645 148.88L541.384 157.101C527.602 163.327 511.663 171.951 498.507 179.934L493.938 172.636C508.701 163.506 522.587 155.999 538.645 148.895V148.88Z" fill="#56BFB4"/>
<path d="M275.875 103.23C284.224 117.066 290.207 130.084 296.859 144.322L289.567 147.971C283.137 134.135 275.577 119.926 267.674 106.879L275.889 103.23H275.875Z" fill="#56BFB4"/>
<path d="M398.137 231.065C391.827 242.742 384.028 259.006 378.983 271.234L371.69 268.494C377.881 253.421 383.805 240.091 391.767 225.584L398.152 231.065H398.137Z" fill="#56BFB4"/>
<path d="M449.23 216.454C439.675 225.525 426.697 239.704 419.122 250.234L413.645 244.753C423.884 231.542 431.653 222.59 443.753 210.973L449.23 216.454Z" fill="#56BFB4"/>
<path d="M262.182 200.011L256.705 205.492C248.222 197.33 232.283 183.956 222.951 177.194L226.597 170.804C241.57 180.798 249.353 187.351 262.182 200.026V200.011Z" fill="#56BFB4"/>
<path d="M471.137 131.528C461.538 141.731 450.614 154.316 441.937 165.308C440.449 163.089 438.559 160.408 435.552 160.736C445.702 147.867 454.2 137.248 465.66 125.124L471.137 131.514V131.528Z" fill="#56BFB4"/>
<path d="M119.858 129.712C133.55 131.931 145.858 134.761 159.089 138.842L158.181 147.972C144.995 143.92 130.737 140.093 117.12 137.933C119.352 135.163 116.167 128.967 119.858 129.712Z" fill="#56BFB4"/>
<path d="M516.753 88.6192C506.99 96.3789 493.893 108.115 484.814 116.918L479.337 111.437C490.157 100.936 499.429 92.5214 511.276 83.1382L516.753 88.6192Z" fill="#56BFB4"/>
<path d="M266.751 89.5275C263.537 89.2296 261.81 91.5382 259.459 93.1765C252.389 82.5571 243.668 71.0441 235.736 61.2141C238.117 60.6779 240.558 58.5778 242.12 56.6416C251.422 67.9163 258.7 77.4634 266.751 89.5126V89.5275Z" fill="#56BFB4"/>
<path d="M558.722 51.1758L561.461 58.4738C551.727 64.7293 539.479 72.3848 529.522 79.4743L525.876 73.0848C536.666 64.9974 546.384 57.9674 558.722 51.1758Z" fill="#56BFB4"/>
<path d="M178.243 146.14C185.833 149.491 193.468 152.827 201.059 156.178C205.017 157.936 206.506 158.77 210.182 160.751L206.535 168.049C196.891 162.821 181.145 155.389 170.951 151.606L173.689 144.308C174.969 144.874 176.606 145.41 178.258 146.14H178.243Z" fill="#56BFB4"/>
<path d="M303.244 157.102C303.482 157.653 303.869 158.233 304.152 158.934C302.53 159.544 304.003 161.778 304.39 162.806C307.009 169.821 309.852 176.836 312.591 183.821C313.35 185.758 314.421 191.194 316.921 190.896C317.457 192.4 317.413 194.247 317.829 195.468C314.927 195.349 312.486 197.181 310.537 199.117C306.37 186.979 300.178 171.847 295.029 159.857L303.244 157.116V157.102Z" fill="#56BFB4"/>
<path d="M658.169 121.49V127.88C644.745 127.269 631.604 129.205 618.492 131.558C616.542 131.916 615.307 130.575 617.108 133.361C614.845 133.763 612.033 133.807 609.815 134.269C607.478 132.541 607.761 129.295 607.077 126.971C623.939 124.097 640.95 121.222 658.169 121.49Z" fill="#56BFB4"/>
<path d="M480.26 181.751C480.796 184.134 482.895 186.577 484.829 188.14C477.403 193.16 465.154 202.439 458.368 208.232C455.912 207.071 454.87 203.854 451.983 203.66C461.374 195.349 469.738 188.945 480.26 181.751Z" fill="#56BFB4"/>
<path d="M596.123 137.933C586.315 140.51 576.448 143.593 566.923 147.063C565.167 144.799 558.975 150.027 557.8 148.895C557.427 148.537 558.916 145.395 555.969 146.154C555.865 145.603 556.058 144.903 555.969 144.322C556.877 143.056 557.621 142.222 559.079 141.507C569.78 136.339 582.698 135.118 593.369 129.711C593.652 129.637 593.995 129.786 594.277 129.711L596.108 137.933H596.123Z" fill="#56BFB4"/>
<path d="M99.7811 136.101C100.615 132.899 94.9144 134.567 91.9825 134.314C90.8216 134.209 89.5715 133.36 89.2887 133.36H66.9347C66.4734 133.36 64.2261 127.716 71.0275 126.971C75.6858 126.465 95.2121 127.552 99.5281 128.609C101.046 128.982 101.79 129.041 102.52 130.62C102.43 131.186 102.564 131.856 102.52 132.452C102.475 133.048 102.505 132.929 102.52 133.36C102.549 134.269 102.505 135.192 102.52 136.101C101.627 136.012 100.689 136.175 99.7811 136.101Z" fill="#56BFB4"/>
<path d="M214.751 26.5262C215.063 26.8241 215.346 27.1518 215.659 27.4348C215.971 27.7178 216.284 28.0454 216.567 28.3433C217.832 29.6689 218.814 30.2051 220.213 31.9923C220.555 32.4243 220.005 34.5392 222.951 34.7328C223.234 35.0456 223.562 35.3435 223.859 35.6414C223.755 36.9073 224.529 38.8584 225.69 37.4733C227.937 39.8266 229.336 41.8521 231.167 43.8628C228.607 44.2501 226.077 46.7969 225.69 49.3438C225.124 48.6736 223.8 47.5118 222.951 46.6033C222.683 45.5756 221.835 45.3224 221.121 44.7714C219.29 43.3713 218.799 42.4032 217.474 41.1223C217.46 39.4095 215.346 37.4137 213.828 37.4733C213.292 36.8924 212.742 36.7137 211.998 35.6414C211.789 35.3435 212.236 34.0626 211.998 33.8094C211.759 33.5562 210.48 34.0179 210.167 33.8094C209.825 33.5711 209.587 33.1392 209.259 32.9009L208.351 30.1604C208.917 29.8774 210.003 27.2412 211.998 26.5113C212.608 26.2879 213.932 26.6603 214.736 26.5113L214.751 26.5262Z" fill="#56BFB4"/>
<path d="M201.059 14.6554L195.582 20.1364C190.373 15.6384 184.955 11.2149 179.434 7.0893C176.413 2.77005 179.538 -1.53431 184.598 0.535956C186.786 1.42959 197.472 10.2617 200.106 12.4511C200.969 13.166 200.925 14.5512 201.059 14.6554Z" fill="#56BFB4"/>
<path d="M246.674 460.253L251.243 468.475C245.871 470.664 239.337 473.479 233.905 475.773L229.336 468.475V467.566C233.458 466.3 242.284 462.19 246.674 460.268V460.253Z" fill="#B2DFD5"/>
<path d="M484.814 116.918C480.528 121.088 475.468 126.926 471.122 131.528L465.645 125.139C470.14 120.388 474.649 115.994 479.337 111.437L484.814 116.918Z" fill="#B2DFD5"/>
<path d="M226.613 170.804L222.966 177.194C221.567 176.181 209.274 169.538 206.536 168.064L210.182 160.766C216.626 164.206 220.555 166.768 226.613 170.804Z" fill="#B2DFD5"/>
<path d="M555.076 142.491C555.999 142.759 555.88 143.548 555.984 144.323C556.073 144.904 555.88 145.589 555.984 146.155C556.237 147.495 557.383 148.984 556.892 150.727C552.204 152.619 545.819 155.106 541.384 157.117L538.646 148.895C544.137 146.467 549.599 144.65 555.076 142.506V142.491Z" fill="#B2DFD5"/>
<path d="M675.508 119.658V128.788C669.793 128.639 663.884 128.595 658.169 128.788V119.658C663.914 119.509 669.748 119.599 675.508 119.658Z" fill="#B2DFD5"/>
<path d="M231.167 43.8774C235.364 48.5244 238.176 51.8904 242.12 56.6565C240.558 58.5778 238.102 60.6927 235.736 61.2289C232.61 57.3565 228.815 53.0223 225.705 49.3584C226.092 46.8116 228.622 44.2796 231.181 43.8774H231.167Z" fill="#B2DFD5"/>
<path d="M493.938 172.621L498.507 179.919C494.444 182.377 488.371 185.743 484.814 188.141C482.894 186.577 480.781 184.119 480.245 181.751C484.889 178.579 489.101 175.615 493.938 172.621Z" fill="#B2DFD5"/>
<path d="M266.751 89.5276C269.862 94.1895 272.943 98.3598 275.874 103.23L267.659 106.879C265.07 102.619 262.078 97.1236 259.444 93.1767C261.795 91.5383 263.537 89.2298 266.736 89.5276H266.751Z" fill="#B2DFD5"/>
<path d="M525.876 73.0996L529.522 79.4891C525.876 82.0956 519.819 86.1765 516.753 88.6191L511.276 83.1381C516.47 79.0125 521.59 76.3018 525.876 73.0996Z" fill="#B2DFD5"/>
<path d="M317.844 195.454C319.481 200.175 321.743 205.09 323.321 210.065C322.309 210.139 321.475 210.571 320.583 210.973C319.392 211.509 318.082 212.448 316.936 212.805C316.46 212.954 315.686 212.716 315.106 212.805C313.766 208.59 312.025 203.422 310.537 199.103C312.501 197.167 314.927 195.335 317.829 195.454H317.844Z" fill="#B2DFD5"/>
<path d="M119.858 129.712C116.167 128.967 119.352 135.163 117.12 137.933C112.804 137.248 106.895 136.548 102.519 136.101C102.505 135.193 102.549 134.269 102.519 133.361V132.452C102.564 131.856 102.43 131.186 102.519 130.62C102.713 129.384 103.189 128.192 103.427 126.971C108.919 127.478 114.441 128.833 119.858 129.712Z" fill="#B2DFD5"/>
<path d="M212.012 24.7089C212.102 25.2898 211.953 25.9451 212.012 26.5409C210.018 27.2707 208.917 29.9069 208.366 30.1899C208.217 30.2644 207.741 30.1899 207.458 30.1899C204.363 30.041 198.082 22.2961 195.597 20.1514L201.074 14.6704C203.916 17.113 211.239 19.5556 212.027 24.7089H212.012Z" fill="#B2DFD5"/>
<path d="M273.136 211.882L268.567 217.363C266.067 214.518 259.578 208.263 256.706 205.492L262.182 200.011C266.156 203.928 269.549 207.98 273.136 211.882Z" fill="#B2DFD5"/>
<path d="M572.4 43.8777C572.638 43.7585 573.069 43.9968 573.308 43.8777L575.138 51.1757C572.102 52.7991 563.574 57.1184 561.446 58.4737L558.708 51.1757C563.321 48.6288 567.652 46.2309 572.4 43.8777Z" fill="#B2DFD5"/>
<path d="M314.198 269.417L308.721 273.99C306.459 270.43 303.17 265.396 300.506 261.211L306.89 256.638C309.554 260.957 311.817 265.232 314.183 269.417H314.198Z" fill="#B2DFD5"/>
<path d="M173.689 144.323L170.951 151.621C167.572 150.37 162.006 149.148 158.181 147.972L159.089 138.842C165.161 140.718 168.004 141.806 173.689 144.323Z" fill="#B2DFD5"/>
<path d="M296.859 144.323C298.749 148.344 301.205 152.38 303.244 157.102L295.029 159.842C293.347 155.91 291.367 151.874 289.552 147.972L296.844 144.323H296.859Z" fill="#B2DFD5"/>
<path d="M405.43 218.271C403.063 222.307 400.265 227.088 398.137 231.05L391.752 225.569C394.148 221.205 396.5 217.065 399.045 212.79L405.43 218.271Z" fill="#B2DFD5"/>
<path d="M419.122 250.233C416.844 253.391 414.389 257.651 411.829 261.195L404.536 256.623C407.543 252.453 410.623 248.67 413.66 244.752L419.136 250.233H419.122Z" fill="#B2DFD5"/>
<path d="M606.169 126.063C606.362 126.42 607.017 126.748 607.077 126.971C607.761 129.31 607.479 132.557 609.815 134.269C605.693 135.118 600.394 136.801 596.123 137.918L594.292 129.697C597.701 128.818 601.927 126.956 606.154 126.048L606.169 126.063Z" fill="#B2DFD5"/>
<path d="M378.983 271.234C377.39 275.092 375.887 279.977 374.414 284.013L367.121 280.364C368.624 276.462 370.142 272.262 371.69 268.494L378.983 271.234Z" fill="#B2DFD5"/>
<path d="M451.968 203.675C454.855 203.868 455.897 207.071 458.353 208.247C455.882 210.347 451.7 214.115 449.23 216.469L443.753 210.988C446.506 208.337 449.274 206.058 451.968 203.69V203.675Z" fill="#B2DFD5"/>
<path d="M441.937 165.323C439.675 168.198 436.639 171.787 434.644 174.453L429.167 168.972C431.266 166.187 433.439 163.432 435.552 160.751C438.559 160.423 440.449 163.089 441.937 165.323Z" fill="#B2DFD5"/>
<path d="M229.336 467.552V468.46L215.108 473.018C205.925 473.152 197.978 474.016 188.721 472.214C186.518 471.782 185.06 470.173 182.797 470.292V469.384C194.748 472.809 217.102 471.335 229.336 467.552Z" fill="#39B3A8"/>
<path d="M658.169 119.658V121.49C640.95 121.222 623.939 124.097 607.077 126.971C607.002 126.733 606.348 126.405 606.169 126.063C623.879 122.265 640.027 120.15 658.169 119.673V119.658Z" fill="#39B3A8"/>
<path d="M331.536 511.385C315.76 514.14 299.895 515.927 284.045 518.206C282.423 518.802 280.101 522.361 278.628 524.178C277.08 523.791 279.759 519.949 280.042 519.651C280.726 518.936 284.789 516.463 285.712 516.195C297.291 512.755 314.778 514.274 326.997 510.923L331.551 511.399L331.536 511.385Z" fill="#39B3A8"/>
<path d="M691.939 422.81C691.15 424.538 688.992 423.257 687.801 422.855C678.44 419.697 669.019 416.465 659.092 415.527C660.283 417.731 661.25 420.159 661.652 422.661C661.86 423.912 660.893 424.538 660.908 424.642L657.262 413.68C669.719 415.527 680.211 418.327 691.939 422.81Z" fill="#39B3A8"/>
<path d="M103.427 126.971C103.189 128.192 102.713 129.399 102.52 130.62C101.79 129.026 101.046 128.982 99.5282 128.609C95.2121 127.552 75.6859 126.465 71.0276 126.971C64.2261 127.716 66.4734 133.361 66.9348 133.361H89.2888C89.5864 133.361 90.8217 134.21 91.9826 134.314C94.9145 134.567 100.6 132.914 99.7812 136.101C96.879 135.848 93.962 135.312 91.1491 135.148C85.1067 134.79 62.2914 138.603 65.2679 128.535C66.1758 125.482 71.8461 125.765 74.6887 125.66C83.4547 125.363 94.5871 126.152 103.427 126.971Z" fill="#39B3A8"/>
<path d="M658.169 127.879V128.788C644.06 129.265 630.978 130.888 617.108 133.36C615.307 130.59 616.542 131.916 618.492 131.558C631.603 129.205 644.745 127.269 658.169 127.879Z" fill="#39B3A8"/>
<path d="M316.936 190.881C314.436 191.179 313.364 185.743 312.605 183.806C309.867 176.821 307.024 169.806 304.405 162.791C304.018 161.778 302.545 159.529 304.167 158.918C308.676 169.493 313.082 180.023 316.936 190.881Z" fill="#39B3A8"/>
<path d="M222.951 481.254C207.443 487.748 186.637 498.799 170.028 500.422C170.088 499.41 170.549 498.576 170.936 497.682C172.305 498.769 173.674 498.218 175.133 497.846C189.42 494.197 203.291 489.058 216.582 482.639L222.951 481.254Z" fill="#39B3A8"/>
<path d="M593.399 129.711C582.728 135.118 569.81 136.339 559.109 141.507C557.636 142.222 556.907 143.042 555.999 144.322C555.895 143.563 555.999 142.759 555.091 142.49C568.173 137.367 579.529 133.36 593.414 129.711H593.399Z" fill="#39B3A8"/>
<path d="M660 491.292C661.488 491.724 660.283 494.822 661.429 495.001C663.721 495.373 669.153 495.954 671.4 495.939C675.582 495.909 680.717 493.363 684.631 495.85C675.478 497.488 668.126 496.624 659.077 495.85C659.077 494.256 659.658 492.797 659.985 491.277L660 491.292Z" fill="#39B3A8"/>
<path d="M371.675 489.46C371.675 490.369 372.137 490.92 371.08 491.307C366.496 492.946 357.507 494.346 352.372 495.269C351.033 495.507 348.815 496.669 347.952 494.941C355.87 493.303 363.698 490.831 371.675 489.46Z" fill="#39B3A8"/>
<path d="M316.936 212.805C316.594 218.569 319.898 224.929 321.371 230.723C321.758 232.212 323.053 235.444 321.505 236.531C319.303 228.935 317.383 219.939 315.121 212.79C315.686 212.701 316.475 212.939 316.951 212.79L316.936 212.805Z" fill="#39B3A8"/>
<path d="M339.737 409.108C339.35 401.005 340.764 392.278 338.829 384.458C338.874 384.488 339.29 383.654 339.737 383.982C341.002 384.95 341.478 386.975 341.582 388.539L339.752 409.108H339.737Z" fill="#39B3A8"/>
<path d="M641.754 411.848C630.755 411.699 620.278 412.861 608.907 411.848H641.754Z" fill="#39B3A8"/>
<path d="M208.351 290.417C208.813 292.666 207.309 292.354 205.866 292.92C199.005 295.586 181.696 301.811 175.49 300.471C186.712 297.954 197.606 294.469 208.336 290.432L208.351 290.417Z" fill="#39B3A8"/>
<path d="M323.321 210.064C325.181 215.962 327.726 222.114 327.89 228.324C327.83 228.324 327.429 229.173 326.997 229.248C325.434 223.409 325.003 215.203 320.597 210.973C321.49 210.571 322.324 210.124 323.336 210.064H323.321Z" fill="#39B3A8"/>
<path d="M617.108 23.7856C602.433 30.0113 587.253 36.9966 573.308 43.8776C573.069 43.9968 572.638 43.7585 572.4 43.8776C572.98 42.3137 574.439 41.9712 575.719 41.2712C588.548 34.3008 603.133 28.0155 617.108 23.7856Z" fill="#39B3A8"/>
<path d="M517.661 424.642V425.551C511.499 425 504.341 426.727 498.507 424.642C504.326 424.642 512.362 424.895 517.661 424.642Z" fill="#39B3A8"/>
<path d="M284.998 451.109C284.12 452.792 281.783 451.898 280.384 451.63C276.797 450.93 272.987 450.23 269.475 449.292C275.785 447.728 279.164 449.947 284.983 451.124L284.998 451.109Z" fill="#39B3A8"/>
<path d="M330.614 273.975C329.825 270.37 328.679 266.781 328.783 263.013C329.75 265.991 333.129 270.877 330.614 273.975Z" fill="#39B3A8"/>
<path d="M201.059 156.193C193.469 152.842 185.834 149.491 178.243 146.154C185.819 147.763 194.927 151.591 201.059 156.193Z" fill="#39B3A8"/>
<path d="M555.984 146.139C558.931 145.38 557.442 148.523 557.814 148.88C558.99 150.027 565.181 144.784 566.938 147.048C563.649 148.24 560.121 149.401 556.907 150.697C557.398 148.954 556.252 147.465 555.999 146.125L555.984 146.139Z" fill="#39B3A8"/>
<path d="M159.089 277.624C158.881 277.743 158.166 279.009 157.05 279.649C153.195 281.853 146.454 282.181 146.32 287.677C145.769 286.962 145.516 286.113 144.489 285.845C144.578 285.8 144.281 284.49 145.114 283.998C149.073 281.645 154.684 278.636 159.089 277.624Z" fill="#39B3A8"/>
<path d="M496.676 424.642C496.289 425.357 495.605 426.638 495.768 427.383H494.86C494.816 427.219 493.372 425.148 493.03 424.642C494.25 424.642 495.456 424.642 496.676 424.642Z" fill="#39B3A8"/>
<path d="M214.751 26.5264C213.947 26.6753 212.623 26.3029 212.013 26.5264C211.953 25.9306 212.102 25.2753 212.013 24.6944C213.739 24.5901 213.962 25.7817 214.751 26.5264Z" fill="#39B3A8"/>
<path d="M209.274 32.9158C208.158 32.1115 207.503 31.7541 207.443 30.1753C207.741 30.1753 208.217 30.2498 208.351 30.1753L209.259 32.9158H209.274Z" fill="#39B3A8"/>
<path d="M210.182 33.8392C210.48 34.0477 211.759 33.6009 212.012 33.8392C212.265 34.0775 211.804 35.3733 212.012 35.6711L210.182 33.8392Z" fill="#39B3A8"/>
<path d="M213.828 37.4881C215.346 37.4285 217.46 39.4243 217.474 41.1371C216.09 39.7967 215.197 39.0073 213.828 37.4881Z" fill="#39B3A8"/>
<path d="M222.951 34.7478C220.005 34.5691 220.555 32.4392 220.213 32.0073C221.731 32.4392 222.118 33.8393 222.951 34.7478Z" fill="#39B3A8"/>
<path d="M225.69 37.4882C224.529 38.8882 223.755 36.9222 223.859 35.6562C224.469 36.252 225.095 36.8627 225.69 37.4882Z" fill="#39B3A8"/>
<path d="M216.567 28.3582C216.284 28.0604 215.956 27.7178 215.659 27.4497L216.567 28.3582Z" fill="#39B3A8"/>
<path d="M222.951 46.6181C222.46 46.0968 221.359 45.8138 221.121 44.7861C221.835 45.3372 222.683 45.5904 222.951 46.6181Z" fill="#39B3A8"/>
<path d="M495.768 427.382C496.348 430.197 499.102 434.159 499.92 438.285C503.195 454.653 497.405 479.63 488.848 493.958C483.728 502.537 475.527 512.352 465.214 514.14L473.89 506.38C489.949 489.609 497.346 458.749 495.798 436.021C495.679 434.308 495.188 428.544 494.845 427.382H495.753H495.768Z" fill="#0B585F"/>
<path d="M363.013 327.846C363.609 328.144 363.609 328.457 363.013 328.755V327.846Z" fill="#FDF7E7"/>
<path d="M540.476 470.292C540.699 473.077 541.25 475.49 541.384 478.514C540.283 479.422 540.283 480.345 541.384 481.254C541.414 483.995 541.369 486.735 541.384 489.476C541.354 489.699 540.714 490.831 540.476 492.216C538.958 491.263 539.568 488.746 539.553 487.212C539.494 481.552 538.869 474.701 540.476 469.398C540.491 469.696 540.446 470.009 540.476 470.307V470.292Z" fill="#FDF7E7"/>
<path d="M540.476 470.292C543.244 469.786 542.232 471.692 542.307 473.449C542.53 479.243 542.262 483.994 541.399 489.475C541.384 486.735 541.429 483.994 541.399 481.254C541.399 480.345 541.443 479.422 541.399 478.513C541.265 475.49 540.714 473.077 540.491 470.292H540.476Z" fill="#39B3A8"/>
<path d="M540.476 462.979C540.476 464.498 540.476 466.017 540.476 467.551C540.149 467.7 539.226 467.477 538.66 467.551C538.541 465.436 538.794 463.262 538.66 461.147C539.137 461.773 540.149 462.368 540.491 462.979H540.476Z" fill="#FDF7E7"/>
<path d="M540.476 467.551C540.476 466.032 540.476 464.513 540.476 462.979C541.339 464.528 542.485 466.598 540.476 467.551Z" fill="#39B3A8"/>
<path d="M538.646 460.254C537.559 458.6 536.16 454.207 537.738 452.956C538.169 455.458 538.452 457.722 538.646 460.254Z" fill="#FDF7E7"/>
<path d="M650.877 481.254L649.969 476.249L652.707 442.902C653.317 455.696 652.529 468.594 650.877 481.254Z" fill="#39B3A8"/>
<path d="M663.646 464.811C662.113 458.6 662.113 450.021 663.646 443.811C663.989 450.319 663.959 458.302 663.646 464.811Z" fill="#FDF7E7"/>
<path d="M129.889 407.29H127.151C127.299 407.246 127.642 406.337 128.49 406.367C129.279 406.397 129.621 407.201 129.889 407.29Z" fill="#FDF7E7"/>
<path d="M102.52 133.361C102.505 132.929 102.475 133.033 102.52 132.452V133.361Z" fill="#39B3A8"/>
<path d="M541.384 481.254C540.283 480.346 540.283 479.422 541.384 478.514C541.429 479.422 541.384 480.346 541.384 481.254Z" fill="#B2DFD5"/>
</g>
</g>
<defs>
<clipPath id="clip0_504_11356">
<rect width="669" height="516" fill="white"/>
</clipPath>
<clipPath id="clip1_504_11356">
<rect width="762" height="807" fill="white" transform="translate(65)"/>
</clipPath>
</defs>
</svg>
