<svg width="175" height="135" viewBox="0 0 175 135" fill="none" xmlns="http://www.w3.org/2000/svg">
<g clip-path="url(#clip0_204_714)">
<path d="M73.887 43.9504C74.0454 44.1836 73.9378 44.7338 74.1232 45.0447C74.9604 46.4381 75.8395 48.0288 76.6976 49.3594C79.0179 52.9564 82.0557 56.063 83.8677 59.977L96.7906 60.9577C107.725 62.2972 116.65 66.3098 126.488 70.7291C138.122 75.9557 149.481 81.8162 160.942 87.4045C162.724 89.5484 160.816 92.2035 158.741 93.2351C156.044 94.5806 152.163 95.3909 149.299 96.3507C145.02 97.7829 141.324 99.0896 136.89 100.097C136.426 100.202 136.37 99.8999 136.444 100.686C136.956 101.215 140.125 100.743 141.001 100.614C147.029 99.7235 152.982 96.8829 158.756 96.2431C159.432 96.1683 163.534 95.8902 163.672 96.6826C163.669 97.1849 163.492 97.5946 163.184 97.9803C163.017 98.1896 160.846 100.037 160.463 100.339C150.294 108.317 133.484 115.738 120.959 119.141C113.75 121.099 106.329 122.134 99.075 123.868C98.5428 124.316 98.0733 128.251 97.7145 129.385C96.363 133.645 90.4398 141.258 86.4182 143.205C77.0026 147.758 75.4777 131.499 79.4843 126.395L79.1763 125.8C73.8541 126.463 68.3763 125.991 63.0361 125.501C52.6697 124.547 41.2867 123.369 31.0697 121.587C28.4385 121.129 28.8362 120.035 25.9627 121.918C18.2694 126.96 9.12587 135.466 -0.91466 134.731C-8.51233 134.175 -12.4382 126.717 -8.70669 120.139C-7.52563 118.058 -4.42496 115.296 -2.38875 114.21C-1.45287 113.711 0.344139 113.567 1.286 112.793C-1.71001 111.319 -6.03958 109.543 -9.3615 109.088C-14.4176 108.401 -25.8964 110.344 -30.8688 112.03C-38.6877 114.686 -51.7661 125.814 -59.2592 125.196C-62.1326 124.959 -64.1688 123.408 -65.4396 120.914C-67.4907 116.88 -68.2741 106.31 -68.0827 101.751C-67.9631 98.8534 -67.1469 95.3939 -67.1439 92.4666C-67.1379 86.2653 -68.7406 80.1627 -68.3788 73.3185C-68.2472 70.8278 -67.697 65.1497 -66.6984 63.0388C-65.1376 59.7378 -60.0575 60.5122 -57.2439 61.6095C-50.4984 64.2467 -42.9695 69.9427 -35.8801 73.1361C-27.0416 77.1188 -16.711 81.4902 -7.06815 77.959C-9.69639 75.9677 -12.1034 74.9809 -12.9167 71.4019C-13.3951 69.3029 -13.0363 65.362 -12.2439 63.3826C-12.0854 62.9819 -11.5532 63.0537 -11.5562 62.8354C-11.5622 61.8308 -10.704 60.1354 -9.98044 59.0411C-0.813002 45.1703 14.1013 57.3427 23.8219 63.6697C24.5933 64.172 25.6996 65.4248 26.5279 65.4009C26.7999 65.3919 29.2159 64.8597 29.5029 64.755C30.373 64.4351 29.9096 62.6112 30.0381 61.7022C30.4777 58.6045 31.285 55.48 31.7783 52.3823C35.7372 51.5182 37.89 55.2557 40.6199 57.3308C40.9488 57.3278 43.0747 52.1072 43.3318 51.3627C43.4305 51.0786 43.0119 49.781 43.9777 49.5776C47.4969 48.8391 50.5617 54.574 54.0272 54.9208C56.2159 52.1132 57.2744 48.7105 58.7066 45.5052C61.568 45.0298 64.585 49.7989 66.9232 49.5657C67.9637 49.461 70.9388 44.1627 71.5996 43.0085C71.7521 42.9009 73.8182 43.8457 73.89 43.9504H73.887ZM81.4308 60.0248C81.8704 59.5733 80.3813 57.2979 80.0494 56.7716C77.777 53.1896 74.9066 49.8617 72.6102 46.2766C72.2036 46.3006 68.9923 50.977 68.4451 51.3746C67.3029 52.2029 65.2637 51.1743 64.1215 50.5733C63.4757 50.2354 60.1538 47.5773 59.9056 47.7657C59.5109 49.754 56.7302 56.7089 54.6342 56.951C52.3259 57.2172 47.7033 52.8726 45.6999 51.6557L42.6979 59.1128C42.07 60.0816 40.6498 59.4567 39.8813 58.9633C39.1936 58.5208 34.4245 53.8564 33.8923 54.3437L32.3853 63.4723L32.8338 64.163C37.1813 63.1255 41.5886 62.079 46.0378 61.5557C49.7754 61.1192 53.6355 61.1999 57.3641 60.6228L81.4308 60.0218V60.0248ZM24.3212 66.3039C20.0813 63.3318 15.4408 59.6032 10.872 57.1813C6.0252 54.6128 0.837496 52.8398 -4.05719 56.3231C-8.59905 59.5524 -13.1858 70.1999 -8.41964 74.676C-7.64522 75.4025 -4.36815 76.9304 -3.3635 76.766C-1.79074 76.5059 2.06939 74.96 3.76474 74.3082C7.94181 72.7025 12.0501 70.5019 16.0837 68.9829C18.2604 68.1637 20.8408 66.8002 23.1222 67.2039L23.1372 66.3338L24.3182 66.3039H24.3212ZM158.11 90.3557C158.956 89.366 159.686 88.3344 158.245 87.4105C144.538 81.4095 131.358 74.1378 117.604 68.2504C103.482 62.2045 92.6016 61.8248 77.4421 62.0042C60.0371 62.2105 41.9175 62.4647 25.1524 67.8826C12.3342 72.0268 -5.54024 83.2574 -18.807 80.8713C-25.9711 79.5826 -35.2522 75.1873 -41.7675 71.8384C-46.2017 69.563 -56.5771 62.6202 -60.7751 62.1388C-65.6518 61.5796 -65.0419 66.7374 -65.4186 70.0025C-65.8432 73.6922 -66.4472 77.6451 -66.2917 81.4125C-66.1362 85.1799 -65.0778 89.65 -65.0778 93.6417C-65.0718 101.945 -66.4801 110.488 -64.103 118.689C-62.4077 124.541 -57.6236 124.14 -53.01 121.88C-51.6465 121.21 -49.715 119.661 -48.3306 119.084C-47.8342 118.878 -47.3588 118.896 -46.8416 118.922L-47.1316 118.348C-46.3871 118.256 -45.8668 117.703 -45.218 117.412C-40.2216 115.17 -35.9638 111.74 -30.4502 110.054C-25.4688 108.532 -13.1618 106.663 -8.26416 107.704C-2.73858 108.879 3.52554 112.234 9.07504 113.986C37.0378 122.809 69.1418 126.655 98.2886 122.179C116.767 119.341 136.722 113.316 152.097 103.329L158.87 98.2972C154.585 98.8623 150.62 100.677 146.368 101.491C142.188 102.289 136.382 103.273 132.65 100.743C131.861 100.208 131.505 100.013 131.66 98.8922C132.489 98.8563 133.338 98.967 134.166 98.8534C139.363 98.1387 149.146 94.6374 154.16 92.5354C155.575 91.9434 157.073 91.5547 158.107 90.3497L158.11 90.3557ZM24.9192 119.831L3.25045 113.534C2.8169 115.496 0.768726 115.367 -0.76217 116.127C-5.74655 118.597 -9.212 124.023 -6.70037 129.471C-5.28908 132.53 -1.89838 133.197 1.15743 133C7.45444 132.59 17.0435 126.131 22.1534 122.211C22.9039 121.634 23.7112 121.048 24.5275 120.498C24.7996 120.316 25.0747 120.543 24.9162 119.834L24.9192 119.831ZM96.68 124.316L82.1753 125.806C81.7418 126.894 80.779 128.045 80.3873 129.101C79.4604 131.603 79.5979 138.432 81.0092 140.732C83.6255 144.987 87.4557 139.021 89.9674 137.784L89.7999 136.872H91.0019C90.4727 135.978 91.4953 135.963 91.7973 135.574C93.7737 133.026 95.6962 129.71 96.363 126.538C96.5095 125.838 96.2046 125.028 96.68 124.316Z" fill="#0FAAAC"/>
<path d="M108.039 116.237C103.683 116.495 101.21 111.794 98.773 108.912C98.4561 108.535 97.8909 108.392 97.577 108.015C96.8414 107.127 96.1567 105.046 95.0175 104.869C94.2311 104.75 93.5853 105.201 92.9424 105.174C85.1026 104.848 75.2175 102.391 68.0026 106.846C63.6521 109.531 64.5521 113.038 69.091 114.677C76.1564 117.227 82.9677 113.786 88.882 110.084C89.6923 109.576 92.2607 107.055 93.0979 107.713C93.5076 108.033 93.4896 108.347 93.2355 108.771C93.0351 109.106 90.3471 111.385 89.9016 111.705C83.6823 116.193 71.3604 120.107 64.8451 114.44C62.1541 112.099 62.1122 108.828 64.8032 106.493C66.5135 105.007 71.791 102.968 74.2398 102.624C80.8866 101.688 87.677 103.488 94.288 103.386C93.6182 100.561 91.5999 98.1896 90.8913 95.2773C90.38 93.1813 90.1408 88.3195 90.4368 86.2295C90.6969 84.4086 94.0846 76.772 95.2717 75.6657C95.484 75.4684 96.0551 75.5491 96.2644 75.2949L96.079 74.386L96.9132 74.3381C96.8893 72.7355 97.7355 72.7624 98.3185 71.991C99.4398 70.5139 100.241 68.6361 102.672 69.4435C103.07 69.7305 102.947 69.8411 102.839 70.2209C102.669 70.8189 100.549 72.8641 99.978 73.6444C96.7906 77.986 93.4298 83.1049 93.083 88.5767C92.3175 100.621 98.6773 108.176 107.432 115.221C107.782 115.502 108.153 115.711 108.045 116.249L108.039 116.237Z" fill="#0FAAAC"/>
<path d="M-33.1561 89.4138C-33.0993 89.4437 -33.0724 89.8234 -32.881 89.9221C-27.6724 92.637 -19.3511 96.1533 -13.5146 96.5151C-4.86443 97.0533 1.79737 91.4679 10.3339 93.5968C15.9522 94.9992 19.6479 97.8846 25.9628 97.3942C32.1283 96.9158 38.6286 93.54 45.1349 92.646C51.695 91.746 57.0532 93.866 63.1797 95.1726C69.8924 96.6018 73.9618 93.9945 80.1781 92.7058C82.6269 92.1975 87.1837 91.3663 88.909 93.5101C86.7322 93.7075 84.409 93.5101 82.2621 93.8959C79.2691 94.4341 76.2851 95.962 73.3638 96.6557C64.5492 98.7427 57.9412 94.2965 49.2851 94.1261C39.2894 93.9287 30.8455 100.552 20.9605 98.8204C16.4097 98.0221 10.7435 94.754 6.23159 94.6882C3.03524 94.6404 -2.1734 96.9696 -5.46243 97.6693C-13.2545 99.3257 -20.0179 96.9935 -27.1043 93.9616C-28.2794 93.4593 -33.7691 91.0583 -34.1488 90.2361L-33.9844 89.3301C-33.7003 89.3301 -33.4312 89.2703 -33.1591 89.4168L-33.1561 89.4138Z" fill="#0FAAAC"/>
<path d="M116.818 81.9597C120.403 78.5929 128.793 81.272 126.213 86.7169C122.933 93.6358 111.295 87.1474 116.818 81.9597ZM120.81 82.2139C119.874 82.4979 118.175 84.4863 118.184 85.5986C118.196 86.8843 120.442 88.5617 121.659 87.8561C124.607 86.1458 124.921 80.967 120.813 82.2139H120.81Z" fill="#0FAAAC"/>
</g>
<defs>
<clipPath id="clip0_204_714">
<rect width="175" height="135" rx="10" fill="white"/>
</clipPath>
</defs>
</svg>
