<svg width="669" height="516" viewBox="0 0 669 516" fill="none" xmlns="http://www.w3.org/2000/svg">
<g clip-path="url(#clip0_504_11318)">
<rect width="669" height="516" fill="#D9D9D9" fill-opacity="0.6"/>
<g clip-path="url(#clip1_504_11318)">
<path d="M594.396 91.3127C595.131 91.1025 596.542 91.6047 597.674 91.2894C598.444 91.0674 598.432 88.0424 602.783 89.3155C605.139 90.0046 601.325 90.2382 607.484 90.3083C607.426 95.0385 612.441 92.4807 614.331 93.5319C614.961 93.8822 620.537 102.467 614.529 100.388C614.296 102.665 616.839 103.319 616.594 105.807C616.547 106.263 613.13 108.12 612.826 108.75C612.255 109.93 612.675 111.168 612.523 111.472C612.173 112.149 611.893 112.792 611.52 113.492C609.199 113.002 608.359 116.412 607.496 118.024C604.159 124.331 599.738 132.904 597.919 139.702C597.499 141.255 596.519 143.708 598.432 144.736C586.756 200.027 626.917 207.21 664.781 231.995C730.804 275.233 786.83 334.075 825.918 402.74L826.933 412.808C828.286 413.368 827.925 408.65 829.931 410.799C830.327 411.219 832.917 420.236 833.675 421.649C849.026 450.416 858.836 475.084 869.929 506.315C870.478 507.869 870.664 509.586 872.216 510.578C872.309 510.894 872.122 511.279 872.216 511.583C875.027 521.569 877.348 534.814 880.509 544.087C881.571 547.194 885.187 549.6 887.31 551.89C887.625 552.228 887.986 552.567 888.313 552.894C898.975 563.382 914.419 567.634 928.58 573.053C951.944 582 981.561 605.429 994.007 627.48L996.76 637.315C999.723 655.442 980.546 641.987 972.848 639.09C958.745 633.787 945.039 632.725 930.085 631.522C927.915 631.346 924.17 630.797 922.537 632.514C918.921 631.837 916.658 630.622 913.474 629.489C908.388 627.679 902.264 625.401 897.155 623.147C894.46 621.956 882.481 614.598 881.606 614.469C880.323 614.271 880.428 614.855 879.798 615.415C879.634 615.555 876.543 619.235 878.246 619.41C857.46 642.442 849.178 641.449 825.603 656.902C823.492 658.291 816.47 664.832 815.84 664.762C815.782 664.762 816.015 663.898 815.327 663.769C812.959 663.314 814.113 665.463 813.029 667.483C810.486 672.26 807.231 675.963 804.21 680.179C803.615 681.008 804.338 683.73 801.026 684.699C788.918 688.273 789.163 668.756 789.676 661.246C790.737 645.677 797.946 623.579 806.461 611.035L810.812 599.251C817.555 588.482 830.199 576.02 834.97 565.987C837.828 559.984 835.763 557.87 831.949 553.898C831.622 553.56 831.284 553.221 830.946 552.894C831.774 548.537 828.123 548.876 826.921 547.86C826.56 547.556 826.268 547.159 825.918 546.856L824.915 545.851C821.614 542.919 818.931 539.859 815.852 536.776L814.848 535.772C814.51 535.433 814.172 535.106 813.845 534.767C814.09 532.63 813.973 532.513 811.827 532.746C811.501 532.408 811.151 532.081 810.824 531.742L807.803 528.717C807.476 528.378 807.126 528.063 806.8 527.713C806.683 527.584 807.126 526.533 806.566 525.949C805.505 524.816 801.492 522.141 799.742 521.674C799.393 521.359 799.089 520.973 798.739 520.67C797.526 519.385 796.546 517.084 795.38 515.974C793.595 514.281 790.376 512.786 788.673 511.595C787.623 509.364 784.532 506.502 788.673 506.537V505.556C784.73 505.918 785.558 496.224 786.106 493.456C786.935 489.193 789.722 485.292 790.224 481.017C790.434 479.254 791.554 478.051 788.684 478.319C788.789 475.434 789.314 473.881 786.666 472.269C783.458 470.319 780.192 471.907 777.288 471.241C776.541 471.066 776.681 469.431 775.911 469.256C774.43 468.917 772.669 469.571 771.269 469.267C770.534 469.104 769.181 466.207 768.551 465.215L764.527 445.055C764.527 444.39 764.515 443.712 764.527 443.035C764.538 442.404 764.632 441.563 764.527 441.014C765.18 440.313 765.378 439.122 766.545 438.994C767.816 442.276 767.944 440.29 768.563 441.014C768.691 441.166 768.458 445.137 770.569 443.023C772.68 440.909 768.714 441.143 768.563 441.014C768.318 440.804 769.461 438.678 766.545 438.994C766.183 438.071 765.833 435.326 765.53 434.964C764.573 433.866 763.372 438.585 763.535 439.998V441.003C757.633 428.692 749.876 425.106 735.936 426.975C721.262 428.949 718.252 437.686 707.159 419.839C706.098 417.608 705.771 415.144 705.141 412.784C707.637 409.678 704.885 403.978 703.625 400.696C701.653 395.604 700.219 393.595 696.089 390.605C680.05 378.983 677.589 381.483 660.862 388.584C655.146 389.483 649.64 391.235 643.75 390.605C643.808 390.149 637.357 387.381 635.678 386.096C627.99 380.21 623.15 365.727 612.01 365.365C609.852 365.295 606.982 366.182 604.486 366.428C604.684 361.791 597.021 363.333 598.444 367.432C598.117 367.502 597.744 367.35 597.44 367.432C593.591 368.53 596.251 368.67 595.422 369.453C595.248 369.616 594.664 369.301 594.419 369.453C590.255 372.046 591.795 368.133 590.897 368.448C588.937 369.137 590.943 371.579 589.415 372.922C588.739 373.506 577.494 378.189 576.537 378.318C572.128 378.925 570.448 375.538 567.24 377.512C558.445 372.303 555.226 360.518 542.08 368.437C536.515 370.983 534.043 373.763 527.989 375.491C520.138 377.734 514.761 377.64 506.852 375.491C496.657 370.831 492.808 361.137 484.666 355.881C471.636 347.483 468.067 364.828 456.53 368.437C456.484 368.448 456.32 368.215 455.527 368.437C455.212 368.518 454.839 368.355 454.524 368.437C447.852 370.048 436.572 372.338 430.156 369.406C427.648 368.261 426.657 367.094 422.317 365.412C422.026 365.295 421.606 365.528 421.314 365.412C421.804 362.901 418.34 362.071 416.287 361.382C415.937 361.055 415.622 360.681 415.284 360.378C414.63 359.782 413.604 358.567 412.262 357.353C411.469 356.628 410.816 355.846 410.244 355.332C410.034 351.56 406.173 349.457 403.199 347.273L406.208 345.264C405.613 340.148 407.538 343.185 411.248 343.232C412.017 338.291 410.664 339.856 408.53 338.455C403.665 335.255 414.829 334.752 416.088 333.993C416.52 333.736 417.593 330.478 417.29 330.151C417.185 330.046 415.26 330.186 414.327 329.613C413.044 328.819 411.621 324.381 410.244 326.109C409.743 326.74 411.796 330.151 407.223 329.146L410.233 333.164C407.457 334.028 406.745 329.754 406.033 329.333C403.152 327.64 401.333 331.237 399.443 331.961C398.171 332.452 395.64 331.809 395.197 332.241C394.59 332.837 396.095 335.523 394.147 335.173C390.776 330.992 395.803 329.38 388.093 330.127C388.035 328.048 390.274 330.256 391.441 327.92C391.826 327.149 392.421 324.463 392.106 324.089C390.251 321.893 390.356 327.64 388.093 326.098L391.103 321.064C391.196 321.286 393.482 324.883 393.634 325.07C395.138 326.927 398.86 326.472 400.259 324.696C404.272 319.604 398.241 309.501 391.103 312C391.277 310.727 390.963 309.279 391.103 307.971C392.806 307.515 391.546 309.945 392.701 310.085C393.855 310.225 396.737 308.508 397.133 308.975C397.786 309.746 395.185 313.203 401.169 312.012C399.443 314.231 402.207 320.141 404.669 320.094C406.337 320.071 410.606 312.082 411.726 312.012C412.017 312 414.689 315.166 416.73 315.072C417.22 315.049 417.08 313.344 418.001 313.052C419.448 312.584 421.536 313.39 422.819 312.012L421.279 315.504C424.277 317.467 421.991 312.795 426.307 314.523C422.317 309.08 433.002 309.267 430.354 315.002H435.394L432.384 312C434.169 312 437.633 311.101 438.403 309.454C439.465 307.2 435.942 308.707 436.408 306.955C441.494 308.66 439.593 301.045 436.408 299.889C439.325 292.215 439.651 274.03 427.345 277.721C427.602 276.973 429.188 273.831 429.375 273.714C431.719 272.208 431.334 277.744 433.376 275.7C433.714 275.361 432.127 273.516 432.372 272.698C434.041 272.243 432.862 274.509 433.959 274.754C438.531 275.782 439.488 270.853 437.902 270.666C434.192 270.678 431.113 272.71 428.348 269.148C428.348 266.216 432.396 270.211 434.46 266.975C437.668 261.941 433.446 261.451 433.352 261.112C432.454 257.702 436.082 259.64 435.382 256.569H430.366C429.76 255.319 434.682 255.354 432.372 253.544C431.871 253.158 427.66 253.789 426.342 253.544V258.566C426.202 255.039 419.658 256.907 416.345 254.98C411.889 252.387 416.567 247.143 421.524 249.596C422.294 249.981 422.341 251.43 423.006 251.546C424.545 251.815 431.754 250.355 432.361 248.989C433.224 247.061 430.844 247.68 430.599 247.318C430.448 247.108 431.999 242.097 428.85 247.505C427.112 242.097 425.805 248.334 424.639 248.58C422.854 248.953 421.011 247.657 419.296 247.482L421.291 245.496C416.847 246.384 416.613 240.696 416.252 240.427C415.692 240.018 413.312 241.969 412.227 240.965C409.475 238.757 413.744 239.738 413.242 238.932C412.426 237.624 410.921 237.893 410.034 237.32C408.308 236.211 409.871 234.447 405.205 236.421C407.083 230.967 398.848 231.644 399.268 226.797C399.384 225.477 403.234 226.096 402.172 223.317C401.123 223.457 396.352 224.111 396.142 224.333C394.205 226.318 400.143 226.388 398.148 228.35C397.81 228.689 395.512 226.879 395.139 227.334C394.94 227.58 395.535 229.355 394.929 230.091C394.684 230.394 391.499 231.364 390.309 232.03C388.338 233.139 390.169 235.265 386.075 233.373L388.07 231.387C383.579 230.523 383.684 227.988 385.06 224.321L383.042 227.346C378.75 225.617 380.989 222.791 381.036 219.275C382.727 220.035 390.461 219.614 391.662 217.243C395.64 209.418 369.639 191.046 368.963 207.175C367.575 205.809 365.953 202.819 363.935 204.15C363.725 204.29 363.049 208.261 362.92 209.184H361.941C360.646 203.625 363.247 204.851 363.947 204.15C364.075 204.022 363.48 202.41 364.612 202.106C368.03 201.219 369.674 204.36 368.986 198.1C375.215 200.775 372.975 198.474 374.364 196.465C375.273 195.157 378.073 194.316 378.05 192.05C380.033 191.828 378.47 193.814 378.26 194.795C377.478 198.474 382.342 194.071 381.059 191.034C380.511 190.427 373.687 190.392 372.999 191.034C370.864 193.066 375.577 192.669 375.005 194.036L369.978 193.043L370.981 197.061C369.686 196.722 363.982 199.724 364.95 196.582C365.37 195.239 367.435 194.001 366.945 192.038L364.927 195.052L361.917 192.038C360.366 195.472 363.889 196.325 363.947 196.558C364.892 200.763 358.43 197.773 359.888 204.127C356.878 203.636 355.7 201.476 358.185 199.303C359.316 198.322 361.929 200.646 360.891 195.052C358.919 194.701 360.471 197.388 359.829 197.995C359.374 198.415 357.555 197.831 356.598 198.065C355.21 198.404 356.551 200.494 354.872 200.086C353.437 196.745 355.303 193.533 354.848 190.018C353.565 189.422 353.729 194.281 351.839 192.027C351.606 191.746 354.37 187.985 349.168 187.121C346.181 186.619 344.887 193.673 350.824 190.018C351.256 193.72 348.293 191.922 346.905 192.611C345.703 193.206 340.571 197.026 339.766 196.068C340.197 193.113 339.754 192.611 336.745 193.031C336.383 191.162 338.494 192.704 338.763 191.524C339.299 189.177 337.025 190.543 336.721 189.387C335.648 185.358 337.795 183.314 341.772 183.968C341.924 181.667 338.249 184.505 338.739 181.445C338.786 181.153 340.594 176.119 340.781 175.897C341.329 175.243 344.513 178.852 343.79 174.904C352.912 174.472 362.162 173.479 370.969 172.884C371.564 172.849 373.524 172.078 374.993 171.879L375.495 172.872L375.997 171.879C376.988 171.786 378.015 171.938 379.018 171.879C379.683 173.468 383.392 173.468 384.045 171.879C385.048 171.844 386.063 171.903 387.066 171.879C388.653 173.573 393.575 173.561 395.115 171.879C396.118 171.868 397.133 171.879 398.136 171.879L417.698 173.888C440.211 172.416 470.819 179.167 487.722 162.804C507.33 143.825 531.196 122.976 554.153 108.377C554.234 109.802 558.002 107.477 558.34 107.255C559.46 106.543 565.642 101.836 566.144 101.731C567.964 101.381 569.48 102.432 571.265 102.315L570.25 99.3133C578.45 97.0358 586.219 93.5903 594.419 91.2426L594.396 91.3127ZM441.401 178.992C440.433 176.341 435.359 175.71 436.373 178.992H441.401ZM343.755 183.022C344.257 178.829 342.274 178.829 342.764 183.022H343.755ZM341.247 181.013V182.017C341.901 181.678 341.901 181.34 341.247 181.013ZM444.422 181.024C440.234 180.522 440.234 182.508 444.422 182.017V181.024ZM439.383 186.047L437.377 184.038C437.085 186.14 437.272 186.327 439.383 186.047ZM345.633 186.187C345.552 186.058 342.869 184.925 342.764 185.042C342.624 185.194 342.67 188.091 341.749 189.072C344.35 189.656 347.523 189.013 345.633 186.198V186.187ZM420.999 185.217C409.323 187.658 414.724 203.835 424.534 202.994C435.79 202.036 432.197 182.881 420.999 185.217ZM444.924 185.042V186.047C445.577 185.708 445.577 185.369 444.924 185.042ZM447.432 189.072C448.155 187.658 446.79 186.385 446.44 187.063C445.717 188.476 447.082 189.749 447.432 189.072ZM432.851 188.067V189.072C433.504 188.733 433.504 188.394 432.851 188.067ZM358.861 189.083C357.765 187.985 355.758 189.994 356.855 191.092C357.951 192.19 359.958 190.181 358.861 189.083ZM552.123 192.108C549.463 199.49 567.007 211.532 570.822 206.276C575.032 200.483 557.442 190.053 552.123 192.108ZM360.378 193.101V194.106C361.031 193.767 361.031 193.428 360.378 193.101ZM434.857 193.101V194.106C435.51 193.767 435.51 193.428 434.857 193.101ZM502.536 193.288C494.067 195.017 497.205 206.685 505.569 208.051C518.318 210.142 512.918 191.174 502.536 193.288ZM461.184 203.321C454.186 205.657 472.371 226.867 477.655 220.84C482.939 214.814 468.207 200.973 461.184 203.321ZM541.193 214.417C536.982 220.759 544.377 232.462 551.365 231.235C561.163 229.518 550.571 209.838 541.193 214.417ZM594.396 216.285H589.357C589.205 219.614 589.03 222.23 591.445 224.788C593.02 226.458 599.167 230.476 601.383 230.943C603.215 231.329 606.096 231.889 607.822 231.422C608.942 231.119 608.37 229.483 608.487 229.39C608.954 228.993 611.636 229.647 611.042 226.236C610.925 225.559 603.938 218.154 603.133 217.652C602.526 217.278 594.431 213.237 594.408 216.297L594.396 216.285ZM382.517 221.331V222.335C383.17 221.997 383.17 221.658 382.517 221.331ZM419.261 236.445C419.133 236.199 414.84 233.922 414.234 234.436C414.735 235.066 417.022 239.306 417.278 239.458C417.92 239.832 419.891 237.648 419.273 236.445C423.064 243.044 433.889 247.447 431.941 236.421C430.704 229.402 426.505 224.777 419.238 224.765C416.578 228.584 417.033 232.555 419.273 236.445H419.261ZM414.222 226.377C413.126 225.279 411.119 227.288 412.216 228.386C413.312 229.483 415.319 227.475 414.222 226.377ZM415.738 231.411V232.415C416.392 232.076 416.392 231.738 415.738 231.411ZM413.72 232.415V233.419C414.374 233.081 414.374 232.742 413.72 232.415ZM609.49 232.415H607.484V236.433C608.032 237.648 610.027 232.964 609.479 232.415H609.49ZM456.495 237.449C456.332 237.566 456.658 238.267 456.495 238.453C456.204 238.792 455.072 239.014 454.967 239.493C454.792 240.334 455.492 240.416 455.48 240.474C455.154 247.458 459.843 268.272 469.571 264.663C469.991 264.511 471.181 264.99 471.484 264.604C472.103 263.81 471.228 260.037 471.613 258.297C471.788 257.503 473.421 258.04 473.677 256.148C474.377 250.974 472.278 253.333 470.878 252.352C470.68 252.212 468.603 248.253 468.627 248.007C468.673 247.552 473.946 245.333 471.589 240.474C469.21 240.311 470.738 246.559 468.09 245.496C465.442 244.433 465.57 240.007 464.229 238.699C464.054 238.535 460.286 236.363 460.041 236.339C458.023 236.164 457.883 236.468 456.495 237.449ZM509.547 236.643C505.569 237.834 506.537 244.235 507.61 247.248C509.103 251.441 521.946 262.257 525.935 260.178C534.416 255.751 521.526 233.046 509.547 236.643ZM578.299 243.499C578.17 243.733 578.404 244.176 578.299 244.504C575.382 243.92 576.141 246.08 576.304 247.984C576.537 250.717 578.952 258.496 580.643 260.353C581.051 260.797 582.475 260.598 582.906 261.019C583.571 261.684 585.962 264.569 586.347 264.651C588.237 265.095 593.789 264.838 595.411 263.647C596.426 262.899 596.122 262.408 596.414 261.626C597.102 259.851 597.079 260.365 596.414 258.601L599.447 255.588C594.723 256.16 595.901 252.504 594.384 250.25C593.859 249.456 586.429 242.705 585.846 242.389C583.933 241.362 579.418 241.537 578.299 243.476V243.499ZM435.359 248.545C433.947 247.821 432.676 249.187 433.352 249.537C434.764 250.262 436.035 248.895 435.359 248.545ZM649.769 249.549C647.424 251.979 661.62 271.332 665.889 268.248C671.64 262.479 651.822 247.423 649.769 249.549ZM622.205 262.712C614.868 264.873 630.44 283.128 633.706 285.277C646.048 293.383 645.033 280.092 638.664 272.254C636.132 269.148 626.019 261.603 622.205 262.724V262.712ZM549.102 273.738C548.052 273.492 547.154 272.546 545.637 272.722C536.142 273.831 546.64 295.917 556.147 288.851C558.935 286.784 557.967 280.127 555.144 280.792C555.062 280.454 555.249 280.056 555.144 279.788C554.747 278.76 554.666 278.655 554.141 277.767C554.071 277.65 552.554 276.19 552.123 275.747C551.47 275.081 551.271 273.925 550.128 273.271C549.58 272.955 549.16 273.738 549.102 273.726V273.738ZM444.422 277.767C443.559 276.833 439.71 279.916 440.409 281.785C442.696 282.299 446.067 279.543 444.422 277.767ZM438.881 278.772V279.776C439.535 279.437 439.535 279.099 438.881 278.772ZM493.741 281.797C493.624 281.797 492.388 282.533 491.723 282.801C486.777 284.857 488.457 287.461 489.53 292.554C489.658 293.173 490.533 297.156 491.723 294.89C492.994 299.235 499.748 310.213 504.881 308.602C505.767 308.321 506.21 307.457 506.817 306.978C508.8 305.401 510.608 303.883 506.817 303.953C506.817 303.287 506.875 302.598 506.817 301.933C510.141 302.271 508.252 301.232 507.948 299.305C507.4 295.894 507.4 289.424 502.793 288.84C502.419 288.221 502.186 287.31 501.789 286.819C501.23 285.803 498.885 281.154 498.64 280.909C498.465 280.734 494.721 282.159 494.721 279.297L493.741 281.773V281.797ZM701.094 296.91C701.467 291.911 699.122 288.851 695.529 285.861C694.083 284.658 684.821 278.351 683.993 282.322C685.743 285.336 697.268 300.648 701.094 296.91ZM449.403 282.825L438.38 283.829C440.2 287.59 439.161 291.888 439.395 295.917C441.109 297.599 455.679 290.767 451.479 300.94H455.504C452.587 296.723 457.848 296.817 456.495 294.913C456.332 294.679 453.556 295.298 454.559 290.486C454.769 289.459 457.475 290.533 456.507 287.847C450.138 290.288 450.733 284.413 449.415 282.825H449.403ZM595.049 291.981C589.672 293.78 597.336 305.915 599.458 308.473C604.463 314.488 617.364 321.963 615.486 308.578C614.611 302.353 601.278 289.891 595.049 291.981ZM440.899 297.926V298.931C441.553 298.592 441.553 298.253 440.899 297.926ZM472.464 322.968C475.065 318.798 469.245 301.01 461.569 304.455C455.27 307.282 459.785 322.372 464.462 323.692C466.212 324.182 471.613 324.322 472.464 322.968ZM662.098 306.231C656.126 312.409 675.583 330.653 681.03 326.717C684.448 324.252 679.479 316.497 677.461 314.033C675.011 311.054 665.551 302.657 662.11 306.231H662.098ZM509.348 306.99V307.994C510.001 307.656 510.001 307.317 509.348 306.99ZM539.712 314.185C534.299 315.972 538.253 330.513 544.366 329.029C549.428 327.803 547.877 311.498 539.712 314.185ZM578.042 327.336C570.227 328.901 574.391 340.908 583.093 342.099C595.026 343.722 588.319 325.292 578.042 327.336ZM393.587 328.153V329.158C394.24 328.819 394.24 328.48 393.587 328.153ZM706.133 333.199C706.961 335.967 711.3 346.467 713.248 347.74C718.509 351.186 721.064 348.78 720.189 342.8C719.851 340.499 718.602 340.16 718.217 339.249C716.468 335.161 716.806 336.201 714.193 333.199C713.89 332.849 713.528 332.51 713.19 332.195C712.852 331.879 712.548 331.459 712.187 331.19C711.825 330.922 711.557 330.419 711.184 330.186C709.236 328.971 708.256 327.464 705.153 328.177C704.395 330.408 705.701 331.716 706.156 333.211L706.133 333.199ZM744.381 332.195C742.935 337.205 751.264 349.492 756.513 345.848C760.852 342.846 749.304 330.081 744.381 332.195ZM634.966 347.016C638.932 351.922 647.226 348.079 642.175 340.3C636.028 330.828 629.822 340.651 634.966 347.016ZM442.264 350.181C444.947 346.654 442.054 339.821 437.82 339.214C428.266 337.836 433.294 354.024 442.264 350.181ZM510.001 339.343C509.78 339.459 507.913 343.267 507.82 343.874C506.782 351.104 517.374 354.993 518.75 347.553C519.555 343.197 512.159 338.14 510.001 339.343ZM411.201 347.32C409.789 346.596 408.518 347.962 409.195 348.313C410.606 349.037 411.877 347.67 411.201 347.32ZM691.937 365.353C695.518 360.308 673.833 344.026 677.134 358.684C678.616 365.283 685.929 369.336 691.937 365.353ZM770.161 372.56C764.002 374.358 776.763 391.399 782.094 390.651C788.369 385.396 775.2 371.088 770.161 372.56ZM728.272 376.531C727.853 376.683 726.663 376.204 726.371 376.589C724.831 378.586 727.783 385.606 729.567 387.369C730.034 387.837 731.014 387.463 731.305 387.615C731.679 387.813 732.367 387.498 732.308 388.619C732.285 389.11 730.675 390.231 731.795 390.605C733.872 389.413 738.619 391.761 740.194 390.418C740.66 390.021 740.24 388.736 740.369 388.631C741.01 388.082 743.297 388.829 743.39 386.178C743.507 382.371 740.579 382.803 740.369 382.581C740.054 382.254 739.599 381.121 739.366 380.56C739.121 379.976 739.797 378.154 739.272 377.629C738.747 377.103 736.974 377.78 736.356 377.535C732.6 376.11 733.148 374.709 728.307 376.531H728.272ZM775.258 409.105C774.395 408.159 771.385 406.442 770.114 406.781C764.865 410.577 770.371 425.877 776.658 421.451C779.037 419.769 777.276 411.336 775.258 409.105ZM771.549 432.955C771.7 432.768 771.49 431.577 771.549 430.958C763.185 432.827 769.542 435.42 771.549 432.955ZM802.005 437.265C796.85 442.509 807.873 454.621 811.897 451.701C815.921 448.781 807.896 431.285 802.005 437.265ZM772.062 437.008V438.013C772.715 437.674 772.715 437.335 772.062 437.008ZM813.46 494.577C809.098 496.049 812.935 508.348 818.931 504.096C821.451 502.321 819.993 492.37 813.46 494.577Z" fill="#27B29B"/>
<path d="M264.248 190.088C266.756 189.352 271.889 189.737 274.571 189.013C275.19 188.849 276.951 186.14 280.987 186.046C283.448 185.988 281.419 188.16 283.367 188.055C283.483 187.191 282.783 185.229 283.985 184.983C295.381 182.636 306.918 180.861 318.174 177.987C320.099 177.298 320.647 182.029 321.604 181.001C322.934 179.587 322.794 174.624 326.153 178.992C328.451 173.783 329.373 179.389 331.181 179.015C331.74 178.898 331.927 174.951 333.7 176.983C334.225 177.59 332.592 181.234 334.703 181.012L336.745 174.974C338.821 174.904 336.558 177.579 339.241 176.995C340.361 176.749 339.463 175.196 339.754 174.974C339.999 174.787 342.834 175.021 343.778 174.974C344.502 178.922 341.317 175.313 340.769 175.967C340.582 176.189 338.774 181.223 338.728 181.515C338.238 184.563 341.912 181.737 341.76 184.037C337.783 183.372 335.636 185.427 336.71 189.457C337.013 190.613 339.288 189.258 338.751 191.594C338.483 192.774 336.371 191.232 336.733 193.101C339.742 192.68 340.186 193.183 339.754 196.138C340.559 197.095 345.692 193.276 346.893 192.68C348.281 191.991 351.244 193.79 350.812 190.088C344.887 193.743 346.17 186.689 349.156 187.191C354.358 188.067 351.594 191.828 351.827 192.096C353.717 194.362 353.554 189.504 354.837 190.088C355.292 193.603 353.425 196.815 354.86 200.155C356.54 200.564 355.198 198.474 356.586 198.135C357.543 197.901 359.351 198.497 359.818 198.065C360.471 197.457 358.919 194.783 360.879 195.121C361.917 200.716 359.304 198.38 358.173 199.373C355.688 201.545 356.866 203.706 359.876 204.197C358.418 197.843 364.88 200.833 363.935 196.628C363.877 196.383 360.354 195.542 361.906 192.108L364.915 195.121L366.933 192.108C367.423 194.082 365.358 195.308 364.938 196.651C363.97 199.793 369.674 196.792 370.969 197.13L369.966 193.113L374.993 194.105C375.553 192.739 370.852 193.136 372.987 191.104C373.664 190.45 380.499 190.496 381.047 191.104C382.331 194.129 377.466 198.544 378.248 194.864C378.458 193.872 380.021 191.886 378.038 192.12C378.061 194.374 375.262 195.215 374.352 196.535C372.964 198.532 375.203 200.833 368.974 198.17C369.663 204.43 368.018 201.288 364.6 202.176C363.457 202.468 364.052 204.091 363.935 204.22C363.235 204.921 360.634 203.694 361.929 209.254H362.909C363.049 208.331 363.714 204.36 363.924 204.22C365.942 202.877 367.563 205.878 368.951 207.245C372.87 211.099 375.39 212.991 379.461 216.414C380.266 217.091 380.802 219.24 381.024 219.345C380.966 222.861 378.738 225.676 383.03 227.416L385.048 224.391C383.684 228.046 383.579 230.593 388.058 231.457L386.063 233.443C390.158 235.335 388.326 233.209 390.298 232.099C391.487 231.434 394.66 230.464 394.917 230.161C395.523 229.425 394.917 227.649 395.127 227.404C395.5 226.949 397.786 228.747 398.136 228.42C400.131 226.446 394.194 226.388 396.13 224.402C396.34 224.181 401.122 223.538 402.161 223.386C403.222 226.166 399.361 225.547 399.256 226.867C398.836 231.714 407.071 231.036 405.193 236.491C409.871 234.517 408.308 236.292 410.023 237.39C410.909 237.963 412.414 237.694 413.23 239.002C413.732 239.82 409.463 238.827 412.216 241.034C413.3 242.039 415.68 240.088 416.24 240.497C416.602 240.766 416.835 246.454 421.279 245.566L419.285 247.552C420.999 247.727 422.842 249.012 424.627 248.649C425.782 248.416 427.1 242.179 428.838 247.575C431.999 242.179 430.436 247.178 430.588 247.388C430.833 247.738 433.212 247.131 432.349 249.058C431.742 250.413 424.534 251.885 422.994 251.616C422.317 251.499 422.282 250.051 421.512 249.666C416.567 247.213 411.877 252.457 416.333 255.05C419.646 256.977 426.19 255.108 426.342 258.636V253.613C427.648 253.859 431.859 253.228 432.361 253.613C434.682 255.412 429.748 255.389 430.354 256.615H435.37C436.082 259.698 432.442 257.76 433.341 261.17C433.434 261.52 437.645 261.999 434.449 267.033C432.384 270.269 428.336 266.286 428.336 269.206C431.089 272.756 434.18 270.736 437.89 270.724C439.488 270.911 438.52 275.84 433.947 274.812C432.851 274.567 434.04 272.301 432.361 272.756C432.116 273.586 433.702 275.419 433.364 275.758C431.311 277.802 431.707 272.266 429.363 273.772C429.176 273.889 427.59 277.031 427.333 277.779C427.24 278.047 427.403 278.444 427.333 278.783C424.907 280.185 426.33 281.376 426.33 281.808C426.33 282.474 426.318 283.151 426.33 283.829C422.014 282.988 425.478 289.482 425.21 289.797C424.837 290.229 422.889 289.143 423.321 290.872C427.042 290.416 426.4 297.716 427.485 298.825C427.916 299.269 428.861 298.825 429.351 298.942C431.299 299.409 434.997 299.444 436.397 299.947C439.593 301.091 441.494 308.718 436.397 307.013C435.942 308.765 439.453 307.246 438.391 309.512C437.622 311.159 434.157 312.047 432.372 312.058L435.382 315.06H430.343C432.991 309.325 422.306 309.127 426.295 314.581C421.967 312.853 424.265 317.513 421.267 315.562L422.807 312.07C421.524 313.448 419.436 312.642 417.99 313.11C417.08 313.402 417.208 315.107 416.718 315.13C414.677 315.224 412.006 312.047 411.714 312.07C410.594 312.14 406.325 320.117 404.657 320.153C402.196 320.188 399.431 314.289 401.157 312.07C395.162 313.262 397.775 309.816 397.121 309.033C396.725 308.566 393.855 310.283 392.689 310.143C391.522 310.003 392.794 307.573 391.091 308.029C390.939 309.337 391.254 310.785 391.091 312.058C390.601 315.539 389.574 317.548 391.091 321.134L388.081 326.168C390.344 327.721 390.239 321.975 392.094 324.159C392.409 324.521 391.814 327.219 391.429 327.99C390.263 330.326 388.011 328.118 388.081 330.197C395.792 329.438 390.764 331.061 394.135 335.243C396.083 335.593 394.579 332.907 395.185 332.311C395.628 331.879 398.16 332.521 399.431 332.031C401.321 331.307 403.14 327.709 406.022 329.403C406.733 329.823 407.445 334.098 410.221 333.234L407.211 329.216C411.784 330.22 409.731 326.81 410.233 326.179C411.621 324.451 413.044 328.877 414.315 329.683C415.248 330.267 417.173 330.115 417.278 330.22C417.581 330.547 416.508 333.806 416.077 334.063C414.805 334.834 403.642 335.324 408.518 338.525C410.641 339.926 412.006 338.361 411.236 343.302C407.538 343.243 405.602 340.218 406.197 345.334L403.187 347.343C399.454 344.598 396.818 346.362 397.133 339.284L396.13 343.313C395.395 344.119 380.989 336.212 378.015 340.288C358.371 335.978 361.941 331.377 350.229 319.23C347.5 316.403 340.291 312.421 338.763 310.05C338.448 309.571 339.358 307.971 338.238 308.017C335.03 308.169 328.054 311.159 326.223 311.124C325.197 311.101 326.153 309.115 325.162 309.022C324.672 308.975 325.01 311.218 321.72 311.591C318.909 311.918 316.67 309.863 314.593 311.042C307.221 306.686 309.904 301.757 297.668 304.677C277.138 309.571 258.766 331.575 241.117 338.256C236.859 336.948 231.902 339.377 227.527 339.354C224.261 339.331 217.216 338.116 213.938 337.252C211.162 336.516 206.449 333.28 205.889 333.222C203.965 333.024 202.343 336.364 200.862 337.252C196.313 339.985 185.488 337.789 179.235 338.279C173.776 338.712 163.768 340.37 158.32 341.526C142.025 344.972 110.6 360.634 95.4124 352.622C93.2077 351.454 93.5693 348.429 90.1399 349.352C90.3149 347.553 90.9564 347.098 91.1431 346.327L92.1346 347.331C91.9829 345.089 95.2957 341.655 93.1494 340.277C99.4134 327.908 110.787 322.231 120.34 313.577C132.191 302.843 134.361 291.035 142.048 277.872C157.761 250.939 182.07 226.902 208.899 211.274C209.342 213.143 212.188 211.368 213.04 210.854C226.244 202.912 248.967 194.584 264.26 190.111L264.248 190.088ZM315.643 192.015C315.211 191.629 316.343 189.667 314.593 190.088C313.683 194.117 315.258 194.584 311.56 197.13C316.506 198.275 314.873 192.225 318.594 192.085C318.839 189.772 316.098 192.423 315.643 192.015ZM362.885 203.18C363.609 201.767 362.244 200.494 361.894 201.172C361.171 202.585 362.535 203.858 362.885 203.18ZM312.272 205.388C307.256 206.883 309.367 214.381 313.648 216.706C326.223 223.526 324.893 201.627 312.272 205.388ZM202.938 239.376C206.694 242.004 219.584 227.112 214.965 223.783C210.847 220.828 197.841 235.813 202.938 239.376ZM277.091 239.224C280.357 235.837 278.771 222.429 271.025 224.496C261.6 227.019 270.594 245.975 277.091 239.224ZM346.473 229.705C344.945 228.35 341.516 227.135 339.369 227.451C333.129 229.46 343.265 246.921 349.798 244.515C349.972 239.726 350.404 233.197 346.473 229.705ZM395.395 269.393C403.327 276.143 401.461 258.04 400.306 253.905C396.876 241.607 382.412 232.45 385.282 250.81C385.865 254.501 392.735 267.127 395.395 269.393ZM230.024 242.494C229.639 242.634 225.043 248.101 224.751 248.79C220.505 258.612 231.575 255.996 236.066 250.553C238.119 248.065 238.726 245.706 236.066 243.499C235.728 243.218 235.145 242.506 235.063 242.494C234.398 240.906 230.689 240.906 230.035 242.494H230.024ZM320.612 246.524C319.702 246.454 318.489 246.419 317.591 246.524C312.377 247.119 315.736 247.727 314.348 249.268C313.648 250.051 309.694 250.098 309.542 253.578C314.488 251.172 313.287 254.513 314.068 254.606C315.2 254.735 313.718 252.13 315.573 252.586C315.375 253.765 316.296 256.44 314.873 256.638C313.812 256.79 312.272 255.914 312.575 257.596C316.81 256.241 322.91 270.14 321.615 271.705C321.184 272.219 317.708 270.385 318.606 273.726L324.637 272.721C324.742 273.06 325.476 273.387 325.64 273.726C325.78 274.018 325.325 275.034 325.861 275.489C326.445 275.98 330.306 276.868 331.169 276.774C332.51 276.622 330.609 273.399 332.685 273.737L335.217 277.744C334.283 276.295 334.622 273.621 334.19 272.756C333.828 272.032 332.767 271.88 332.697 271.717L333.199 263.144L329.676 256.603C329.594 256.288 329.769 255.903 329.676 255.599C329.489 254.956 328.696 254.676 328.673 254.594C328.568 254.291 328.789 253.87 328.673 253.59C327.273 250.074 327.704 249.175 323.645 247.54C322.992 247.283 322.152 246.617 321.627 246.535L321.126 245.543L320.612 246.535V246.524ZM200.838 256.603C200.885 256.171 201.958 255.424 201.387 254.571C199.31 251.488 188.707 252.352 185.523 253.66C184.531 254.069 184.17 255.926 181.428 256.79C179.445 257.409 176.774 256.965 174.663 257.608C174.336 257.549 173.975 257.678 173.66 257.608C173.461 257.561 172.995 256.673 172.062 256.592C167.722 256.195 166.101 262.992 164.631 264.943C163.651 266.239 159.72 268.727 159.254 269.942C158.145 272.838 158.437 277.732 158.297 281.061C158.169 284.179 156.536 282.824 160.572 282.824C160.677 283.198 161.377 284.646 161.575 284.845C163.57 286.76 163.698 286.024 165.599 284.845C167.886 283.432 171.443 278.106 174.126 275.746C178.524 271.892 183.68 268.143 188.707 265.141C190.317 264.183 194.843 263.506 194.796 261.661C199.264 260.224 200.302 261.065 200.838 256.627V256.603ZM425.292 260.633H423.286C422.737 261.193 424.732 265.877 425.28 264.651V260.633H425.292ZM296.455 267.687C296.151 267.36 295.79 266.916 295.451 266.683C286.47 260.539 285.256 270.304 291.392 277.288C301.05 288.279 302.299 274.006 296.455 267.687ZM426.808 264.662V265.667C427.461 265.328 427.461 264.989 426.808 264.662ZM420.918 265.83C416.952 266.601 419.261 273.282 421.757 272.721C425.957 271.775 425.922 264.861 420.918 265.83ZM245.853 269.836C240.545 270.596 236.509 280.885 242.808 282.672C251.51 285.137 252.98 268.82 245.853 269.836ZM337.223 269.708V270.712C337.876 270.374 337.876 270.035 337.223 269.708ZM399.116 279.776C399.839 278.363 398.475 277.089 398.125 277.767C397.401 279.18 398.766 280.453 399.116 279.776ZM335.718 278.783H332.709V280.78C334.097 281.096 335.38 280.243 335.718 278.783ZM362.675 279.005C355.163 274.672 352.574 287.263 360.506 291.748C364.88 294.224 370.199 295.38 368.741 288.571C368.531 287.578 363.165 279.285 362.675 279.005ZM397.611 281.796V282.801C398.265 282.462 398.265 282.123 397.611 281.796ZM398.626 284.821V285.826C399.279 285.487 399.279 285.148 398.626 284.821ZM396.608 286.842V287.846C397.261 287.508 397.261 287.169 396.608 286.842ZM398.626 287.846V288.851C399.279 288.512 399.279 288.174 398.626 287.846ZM401.647 287.846V288.851C402.301 288.512 402.301 288.174 401.647 287.846ZM400.633 289.855V290.86C401.286 290.521 401.286 290.182 400.633 289.855ZM228.741 297.12C216.528 299.865 224.04 330.069 240.604 316.076C251.895 306.546 240.977 294.364 228.741 297.12ZM404.155 305.985L402.161 305.459L403.164 307.994H404.155C404.307 307.398 403.98 306.324 404.155 305.985C405.019 304.385 404.832 308.531 406.15 307.994C405.882 305.167 409.673 305.681 409.183 303.474L406.675 303.988C407.701 297.447 403.724 301.991 404.144 305.985H404.155ZM400.119 305.985C400.621 301.792 398.638 301.792 399.128 305.985H400.119ZM335.706 306.99C336.43 305.576 335.065 304.303 334.715 304.981C333.992 306.394 335.357 307.667 335.706 306.99ZM390.053 307.994C390.776 306.581 389.411 305.308 389.061 305.985C388.338 307.398 389.703 308.671 390.053 307.994ZM395.605 305.985V306.99C396.258 306.651 396.258 306.312 395.605 305.985ZM401.134 309.01C400.994 308.87 401.251 304.875 399.128 307.001C397.005 309.127 400.994 308.87 401.134 309.01C401.274 309.15 401.017 313.145 403.14 311.019C405.263 308.893 401.274 309.15 401.134 309.01ZM145.093 314.126C140.952 315.469 144.148 324.404 149.56 320.655C152.418 318.681 149.35 312.736 145.093 314.126ZM403.654 316.065V317.069C404.307 316.73 404.307 316.392 403.654 316.065Z" fill="#33B7A0"/>
<path d="M314.57 311.019C322.117 315.481 325.453 311.638 332.697 310.435C334.89 310.073 336.826 311.3 338.728 310.015C340.256 312.386 347.465 316.357 350.194 319.195C361.906 331.342 358.336 335.944 377.98 340.254C394.264 343.828 397.541 344.085 410.186 355.367C410.758 355.869 411.399 356.664 412.204 357.388L415.225 360.413C415.575 360.728 415.89 361.09 416.228 361.417C417.43 362.55 419.903 364.933 421.256 365.447C421.548 365.564 421.967 365.33 422.259 365.447C430.529 373.295 445.099 375.234 454.466 368.472C454.78 368.39 455.165 368.554 455.469 368.472H456.472C468.008 364.874 471.578 347.518 484.607 355.916C492.761 361.172 496.599 370.854 506.794 375.526C513.781 378.727 521.2 380.829 527.93 375.526C533.984 373.798 536.457 371.018 542.021 368.472C538.568 370.551 529.388 378.89 526.204 379.532C524.676 379.848 522.938 379.229 521.526 379.544C520.675 379.743 520.966 381.763 520.395 381.576C516.429 380.292 513.314 379.486 509.045 378.75C507.855 378.54 506.105 379.567 505.884 379.427C504.764 378.727 504.927 373.658 499.736 376.542L501.731 378.528C499.713 378.388 498.337 381.097 496.995 381.46C494.627 382.09 488.713 375.666 489.67 382.569C490.066 383.13 492.178 380.058 492.668 380.549C494.511 382.394 486.94 384.134 491.291 385.466C496.564 387.089 494.896 383.258 498.722 382.557C497.532 385.629 501.323 386.015 501.603 387.148C501.929 388.467 499.037 393.303 501.743 393.641C501.824 392.987 501.684 392.287 501.743 391.633C503.842 391.352 504.017 391.539 503.749 393.63C503.096 393.606 502.384 393.712 501.743 393.63C501.649 394.436 502.058 396.643 500.25 395.639C497.287 393.992 501.358 389.168 494.254 390.546C493.169 390.757 494.032 392.766 493.531 393.443C493.088 394.039 491.863 393.49 491.676 393.63C494.639 383.025 479.451 380.525 480.606 392.625C479.58 391.189 479.556 388.199 477.597 389.624C477.515 389.682 477.912 391.422 476.944 391.668C474.879 392.193 472.593 390.698 470.551 390.616L473.561 402.693C468.732 403.195 471.379 402.004 471.018 400.241C468.988 399.002 470.563 391.726 468.032 392.614C467.763 392.707 464.147 396.445 464.007 396.69C463.249 397.986 463.739 400.299 463.412 400.614C463.202 400.813 461.044 400.918 458.583 402.6C458 402.997 456.623 402.541 456.449 402.705C455.667 403.441 458.012 406.127 458.187 407.342C459.003 413.404 454.326 413.112 452.366 416.265C451.444 417.748 451.748 419.232 451.071 420.563C450.768 421.159 449.03 420.516 449.415 421.346C449.59 421.731 455.212 425.2 456.449 425.901C456.962 427.664 454.057 426.368 454.442 427.396C455.27 429.592 458.268 426.368 457.452 429.919C453.999 431.052 454.757 426.73 451.946 427.945C450.185 428.704 451.339 432.5 443.839 430.958C441.074 430.386 441.669 427.793 440.853 427.898C440.573 427.933 439.08 430.876 436.327 430.935C431.953 430.141 416.695 428.225 414.479 425.609L405.112 398.687C403.817 394.482 402.242 389.098 400.084 385.582C399.863 385.232 399.373 384.928 399.081 384.578C398.79 384.228 398.428 383.854 398.078 383.574C397.506 383.106 397.425 382.277 396.06 381.553C387.638 373.214 380.254 378.75 371.389 378.598C363.177 378.458 355.747 373.26 347.745 380.537C345.587 380.852 342.95 380.338 340.699 380.537C339.626 380.63 338.611 381.016 337.678 381.541C337.736 381.062 337.643 380.735 337.153 380.537C336.663 380.455 336.15 380.584 335.66 380.537C330.971 380.058 321.511 379.509 317.183 380.724C315.911 381.086 315.76 382.406 315.527 382.546C312.587 384.298 310.872 384.076 311.712 387.813C313.24 394.611 324.392 414.431 328.603 420.843C328.358 421.521 327.763 422.21 327.6 422.864C305.926 419.687 284.393 416.23 263.175 410.776C233.278 403.079 202.775 391.609 172.598 385.069C152.815 380.782 132.903 384.087 113.411 377.804C102.645 374.335 91.3647 366.498 90.0466 354.339C92.6945 354.771 93.4177 357.248 96.1823 358.778C100.487 361.16 103.484 362.06 108.162 362.398C112.21 362.69 118.287 364.244 121.25 360.378C145.116 356.15 163.08 349.948 188.696 347.273C194.12 346.712 193.385 347.764 198.762 344.248C199.066 344.05 199.509 343.01 200.78 342.227C201.072 342.052 202.425 342.566 202.705 342.181C203.241 341.433 202.192 335.033 205.808 333.164C206.368 333.222 211.08 336.458 213.856 337.194C220.505 342.029 233.628 341.001 241.035 338.198C258.684 331.517 277.056 309.513 297.586 304.619C309.822 301.699 307.14 306.628 314.512 310.984L314.57 311.019ZM295.172 332.358C289.841 333.176 288.733 340.23 293.713 343.501C305.728 351.384 304.842 330.875 295.172 332.358ZM344.467 348.523C340.396 349.749 339.964 359.14 346.275 359.49C356.493 360.062 355.058 345.323 344.467 348.523ZM498.768 375.526L498.278 371.508C496.727 372.595 496.529 373.669 496.774 375.526H498.78H498.768ZM215.653 372.676C208.561 374.744 213.833 384.59 220.972 381.074C225.685 378.75 222.5 370.679 215.653 372.676ZM283.063 376.823C276.695 368.951 262.417 380.56 274.047 386.377C281.454 390.079 287.636 382.476 283.063 376.823ZM497.264 376.531V377.535C497.917 377.196 497.917 376.858 497.264 376.531ZM448.178 390.815C441.891 392.123 440.479 399.271 446.685 401.981C458.105 406.968 460.508 388.245 448.178 390.815Z" fill="#B5DFD0"/>
<path d="M567.217 377.547C576.479 383.036 587.98 376.694 594.396 369.488C594.641 369.336 595.224 369.651 595.399 369.488L597.417 367.467C597.721 367.385 598.094 367.537 598.42 367.467C600.858 366.918 601.885 366.708 604.463 366.463C607.041 366.218 609.817 365.33 611.987 365.4C623.115 365.762 627.956 380.245 635.654 386.131C637.334 387.416 643.785 390.184 643.726 390.64C643.703 390.792 642.817 391.142 642.712 391.632C650.189 392.485 654.26 391.422 660.839 388.631C677.566 381.53 680.027 379.018 696.066 390.651C696.719 391.668 697.408 392.672 698.084 393.676C695.996 396.094 699.927 397.788 700.627 399.656C703.24 406.618 703.065 413.322 707.148 419.886C718.241 437.732 721.239 428.996 735.925 427.022C749.864 425.153 757.621 428.739 763.524 441.049C763.792 441.598 763.372 442.778 764.527 443.07C764.515 443.736 764.527 444.413 764.527 445.09C764.62 453.371 763.629 457.611 768.551 465.25C769.193 466.242 770.546 469.151 771.269 469.302C772.669 469.606 774.43 468.952 775.912 469.291C776.681 469.466 776.541 471.101 777.288 471.276C780.204 471.942 783.459 470.354 786.666 472.304C788.999 477.245 784.73 482.384 786.666 486.413C786.41 487.406 785.733 488.13 785.663 488.434C785.488 489.123 784.975 489.917 784.66 491.459C783.214 498.338 783.937 502.905 785.663 509.597C740.299 476.556 705.596 458.265 649.104 449.295C578.334 438.059 507.785 443.957 436.385 430.981C439.15 430.923 440.631 427.98 440.911 427.945C441.728 427.84 441.133 430.432 443.897 431.005C451.398 432.546 450.243 428.751 452.004 427.991C454.816 426.788 454.069 431.098 457.51 429.965C458.327 426.426 455.329 429.638 454.501 427.442C454.116 426.415 457.02 427.723 456.507 425.947C455.271 425.247 449.648 421.778 449.473 421.392C449.088 420.563 450.838 421.205 451.129 420.61C451.794 419.29 451.503 417.795 452.424 416.312C454.384 413.158 459.062 413.45 458.245 407.388C458.082 406.174 455.737 403.499 456.507 402.752C456.682 402.588 458.058 403.044 458.642 402.646C461.103 400.965 463.261 400.859 463.471 400.661C463.797 400.357 463.308 398.033 464.066 396.737C464.206 396.491 467.822 392.754 468.09 392.66C470.621 391.761 469.035 399.049 471.076 400.287C471.438 402.051 468.79 403.242 473.619 402.74L470.61 390.663C472.663 390.745 474.937 392.24 477.002 391.714C477.97 391.469 477.574 389.729 477.655 389.67C479.615 388.257 479.638 391.235 480.665 392.672C480.851 392.941 482.029 393.922 482.683 394.693C483.044 395.125 481.959 397.461 486.404 397.414C488.667 397.391 488.538 396.48 489.728 395.697C489.903 395.58 490.883 394.366 491.746 393.676C491.933 393.536 493.146 394.085 493.601 393.49C494.102 392.812 493.239 390.792 494.324 390.593C501.428 389.226 497.357 394.05 500.32 395.685C502.128 396.69 501.72 394.482 501.813 393.676C502.466 393.758 503.166 393.653 503.819 393.676C504.099 391.574 503.913 391.387 501.813 391.679C501.743 392.333 501.883 393.034 501.813 393.688C499.107 393.349 502.011 388.514 501.673 387.194C501.393 386.061 497.602 385.676 498.792 382.604C494.966 383.293 496.634 387.124 491.361 385.512C487.022 384.181 494.581 382.429 492.738 380.595C492.236 380.093 490.136 383.176 489.74 382.616C488.783 375.713 494.697 382.137 497.065 381.506C498.407 381.144 499.783 378.434 501.801 378.575L499.807 376.589C504.997 373.704 504.834 378.773 505.954 379.474C506.176 379.614 507.914 378.586 509.115 378.797C513.373 379.532 516.487 380.338 520.465 381.623C521.048 381.81 520.756 379.789 521.596 379.591C522.996 379.264 524.734 379.883 526.274 379.579C529.458 378.937 538.639 370.597 542.091 368.518C555.249 360.6 558.457 372.373 567.252 377.594L567.217 377.547ZM496.26 391.656V392.66C496.914 392.322 496.914 391.983 496.26 391.656ZM504.309 394.681V395.685C504.962 395.347 504.962 395.008 504.309 394.681ZM603.775 405.45C606.038 408.451 614.728 410.437 616.326 405.041C621.272 388.351 596.612 395.977 603.775 405.45ZM475.625 398.71C474.529 397.613 472.523 399.621 473.619 400.719C474.716 401.817 476.722 399.808 475.625 398.71ZM530.718 400.906C521.573 402.763 525.761 420.084 537.064 416.428C545.019 413.847 540.412 398.932 530.718 400.906ZM580.06 409.035C575.173 403.429 563.659 412.2 571.673 417.923C578.31 422.665 583.501 412.971 580.06 409.035ZM469.082 410.799V411.803C469.735 411.465 469.735 411.126 469.082 410.799ZM667.639 424.674C672.877 419.442 665.4 405.975 657.234 411.745C649.069 417.515 660.804 431.495 667.639 424.674ZM484.386 419.068C480.443 420.248 479.568 428.832 486.264 429.883C499.842 432.021 495.759 415.658 484.386 419.068ZM462.538 427.933C455.55 428.68 463.121 434.193 464.556 432.967C465.99 431.741 460.998 429.954 462.538 427.933ZM470.33 430.281C466.06 428.68 466.807 430.794 465.559 433.983C467.25 434.579 469.023 433.154 470.166 433.072C470.388 433.06 471.018 436.985 472.604 434.988C473.503 433.866 471.053 430.549 470.33 430.281ZM458.012 431.962V432.967C458.665 432.628 458.665 432.29 458.012 431.962ZM714.905 442.252C708.944 443.572 708.606 450.533 713.225 453.57C724.738 461.138 727.993 439.344 714.905 442.252Z" fill="#ABDBCB"/>
<path d="M396.107 381.576C397.471 382.289 397.553 383.13 398.125 383.597L399.128 384.601C399.431 384.952 399.921 385.255 400.131 385.606C400.644 390.359 403.257 395.896 404.144 400.252C404.33 401.186 401.577 400.03 402.161 401.712C402.919 401.595 403.724 401.712 404.132 402.448C405.24 404.445 407.69 413.298 408.926 416.604C412.542 426.263 414.794 434.462 420.346 443.537C420.813 444.296 420.124 448.291 423.286 446.071C429.561 456.42 438.146 465.67 445.425 475.294L448.481 481.601C450.978 482.769 453.462 492.358 452.296 494.285C450.091 497.918 437.108 496.691 433.294 496.014C411.481 492.113 385.328 477.069 368.426 463.194C366.245 461.407 364.915 457.342 360.867 457.155C360.517 456.84 360.202 456.466 359.864 456.151L357.846 454.13C357.508 453.803 357.181 453.453 356.843 453.126C357.391 450.848 355.537 450.825 353.822 450.101C353.145 449.424 352.48 448.793 351.804 448.08L349.786 446.06C349.459 445.709 349.098 445.406 348.783 445.055V443.046L347.779 444.051C341.282 436.845 333.98 428.961 328.649 420.867C324.427 414.455 313.287 394.634 311.759 387.837C310.919 384.099 312.622 384.321 315.573 382.569L335.706 380.548C336.196 380.595 336.71 380.478 337.2 380.548C337.678 380.735 337.783 381.074 337.724 381.553C337.701 381.705 336.803 382.032 336.71 382.546C339.334 382.487 341.352 383.562 340.746 380.548C342.997 380.35 345.633 380.864 347.791 380.548C351.617 379.999 354.3 378.283 357.706 378.107C362.337 377.874 367.015 380.618 371.436 380.618C375.857 380.618 379.554 378.294 384.524 378.469C387.51 378.575 393.47 380.175 396.095 381.553L396.107 381.576ZM361.882 380.572L357.881 380.046C359.223 383.036 359.981 384.017 361.882 380.572Z" fill="#33B7A0"/>
<path d="M327.658 422.899C323.949 437.347 322.654 450.615 324.917 465.46C326.433 475.423 340.477 509.773 317.673 497.906C288.791 482.874 266.348 442.661 263.233 410.811C284.452 416.277 305.985 419.734 327.658 422.899Z" fill="#0D9C8D"/>
<path d="M200.839 337.229V342.262C199.567 343.045 199.124 344.085 198.821 344.283L188.754 347.308C163.15 349.983 145.174 356.185 121.308 360.413C117.039 361.172 111.825 360.857 108.22 362.433C103.543 362.095 100.545 361.184 96.2407 358.813C93.4761 357.283 92.7529 354.806 90.105 354.374C89.9534 352.961 89.965 350.754 90.105 349.34C93.5344 348.418 93.1728 351.454 95.3775 352.611C110.577 360.623 141.99 344.96 158.286 341.515C163.733 340.359 173.741 338.7 179.2 338.268C185.453 337.777 196.266 339.973 200.827 337.24L200.839 337.229Z" fill="#0D9C8D"/>
<path d="M338.728 173.958L339.731 174.962C339.439 175.184 340.337 176.749 339.218 176.983C336.535 177.567 338.798 174.892 336.721 174.962L334.68 181.001C332.58 181.234 334.213 177.59 333.677 176.971C331.915 174.939 331.729 178.887 331.157 179.004C329.349 179.377 328.428 173.771 326.13 178.98C322.77 174.612 322.91 179.576 321.58 180.989C320.612 182.017 320.064 177.275 318.151 177.976C306.883 180.861 295.358 182.624 283.962 184.972C282.76 185.217 283.46 187.191 283.343 188.044C281.395 188.137 283.425 185.976 280.964 186.035C276.928 186.128 275.178 188.838 274.548 189.001C271.854 189.714 266.733 189.34 264.225 190.076V189.072C288.744 181.748 313.252 176.434 338.716 173.958H338.728Z" fill="#27B29B"/>
<path d="M487.698 162.874C470.796 179.237 440.188 172.486 417.675 173.958L398.113 171.949C423.286 171.844 454.594 176.212 478.18 167.955C481.924 166.647 484.421 164.649 487.698 162.874Z" fill="#0D9C8D"/>
<path d="M360.879 457.167C364.927 457.354 366.257 461.418 368.438 463.205C385.328 477.081 411.493 492.124 433.306 496.025C437.12 496.703 450.091 497.929 452.308 494.297C453.474 492.37 451.001 482.792 448.493 481.613L445.437 475.306C450.395 481.858 462.456 496.668 445.962 498.513C418.783 501.561 380.266 474.698 360.879 457.167Z" fill="#0D9C8D"/>
<path d="M370.946 172.953C362.139 173.549 352.901 174.542 343.767 174.974C342.822 175.021 339.988 174.787 339.743 174.974L338.74 173.97C349.179 172.953 360.658 171.225 370.946 172.965V172.953Z" fill="#0D9C8D"/>
<path d="M612.523 111.472C612.686 111.156 612.255 109.93 612.826 108.75C613.13 108.12 616.547 106.263 616.594 105.807C616.839 103.319 614.296 102.665 614.529 100.388C620.537 102.467 614.973 93.8821 614.331 93.5317C612.43 92.4805 607.414 95.0384 607.484 90.3081C621.773 90.4599 623.173 104.032 612.511 111.472H612.523Z" fill="#0D9C8D"/>
<path d="M264.248 189.072V190.076C248.956 194.55 226.233 202.877 213.028 210.819C212.177 211.333 209.33 213.12 208.887 211.24C226.163 201.172 245.118 194.783 264.248 189.072Z" fill="#0D9C8D"/>
<path d="M594.396 91.3127C586.207 93.6603 578.427 97.1058 570.227 99.3833L571.242 102.385C569.457 102.502 567.94 101.451 566.121 101.801C565.631 101.894 559.437 106.613 558.317 107.326C557.967 107.547 554.199 109.872 554.129 108.447C566.086 100.843 575.721 94.8633 589.742 91.1842C591.072 90.8338 593.556 89.4906 594.384 91.3127H594.396Z" fill="#0D9C8D"/>
<path d="M405.17 398.71C410.629 416.381 413.347 429.685 423.286 446.083C420.125 448.302 420.813 444.308 420.346 443.548C414.794 434.473 412.542 426.274 408.926 416.615C407.69 413.31 405.24 404.457 404.132 402.459C403.724 401.723 402.907 401.607 402.161 401.723C401.589 400.042 404.342 401.198 404.144 400.264C403.257 395.895 400.644 390.359 400.131 385.617C402.301 389.133 403.864 394.505 405.159 398.722L405.17 398.71Z" fill="#0D9C8D"/>
<path d="M611.508 113.481C605.652 124.284 601.021 132.402 598.42 144.724C596.519 143.696 597.499 141.243 597.907 139.69C599.727 132.904 604.148 124.319 607.484 118.012C608.335 116.389 609.187 112.99 611.508 113.481Z" fill="#0D9C8D"/>
<path d="M395.104 171.938C393.564 173.62 388.641 173.631 387.055 171.938C389.738 171.879 392.432 171.973 395.104 171.938Z" fill="#0D9C8D"/>
<path d="M93.1262 340.253C95.2725 341.632 91.9481 345.065 92.1114 347.308L91.1199 346.304C91.6448 344.143 92.123 342.251 93.1379 340.253H93.1262Z" fill="#0D9C8D"/>
<path d="M384.034 171.938C383.369 173.526 379.659 173.526 379.006 171.938C380.674 171.844 382.366 171.984 384.034 171.938Z" fill="#0D9C8D"/>
<path d="M353.833 450.113C355.548 450.837 357.403 450.86 356.855 453.138C355.793 452.11 354.86 451.152 353.833 450.113Z" fill="#0D9C8D"/>
<path d="M348.794 445.067C348.479 444.717 348.106 444.413 347.791 444.063L348.783 443.058V445.067H348.794Z" fill="#0D9C8D"/>
<path d="M351.816 448.092C351.162 447.403 350.474 446.795 349.798 446.071L351.816 448.092Z" fill="#0D9C8D"/>
<path d="M359.876 456.151C359.153 455.474 358.546 454.784 357.858 454.13L359.876 456.151Z" fill="#0D9C8D"/>
<path d="M374.97 171.938C375.297 171.891 375.647 171.973 375.973 171.938L375.472 172.93L374.97 171.938Z" fill="#0D9C8D"/>
<path d="M509.546 236.643C521.526 233.046 534.416 255.751 525.935 260.178C521.946 262.257 509.115 251.441 507.61 247.248C506.537 244.235 505.569 237.834 509.546 236.643Z" fill="#B5DFD0"/>
<path d="M595.049 291.981C601.278 289.902 614.611 302.364 615.486 308.578C617.364 321.963 604.474 314.488 599.459 308.473C597.324 305.915 589.672 293.78 595.049 291.981Z" fill="#B5DFD0"/>
<path d="M622.205 262.712C626.019 261.591 636.132 269.136 638.664 272.242C645.033 280.079 646.047 293.383 633.706 285.265C630.452 283.128 614.868 264.861 622.205 262.7V262.712Z" fill="#B5DFD0"/>
<path d="M501.801 286.842C502.198 287.333 502.431 288.244 502.804 288.863C505.417 293.137 506.409 296.992 506.829 301.967C506.887 302.621 506.829 303.322 506.829 303.988C506.829 304.992 506.829 306.008 506.829 307.013C506.222 307.492 505.767 308.356 504.892 308.636C499.748 310.236 493.006 299.269 491.734 294.924C490.673 291.327 489.95 286.246 491.734 282.836C492.399 282.556 493.636 281.831 493.752 281.831C495.875 281.75 500.483 285.254 501.801 286.865V286.842Z" fill="#B5DFD0"/>
<path d="M381.012 219.31C380.791 219.205 380.254 217.056 379.449 216.379C375.378 212.957 372.859 211.064 368.939 207.21C369.616 191.081 395.617 209.453 391.639 217.278C390.438 219.637 382.716 220.058 381.012 219.31Z" fill="#B5DFD0"/>
<path d="M596.414 258.613C597.079 260.365 597.102 259.862 596.414 261.638L595.411 263.658C593.789 264.85 588.237 265.107 586.347 264.663C582.755 258.052 575.406 253.018 578.299 244.504C578.404 244.177 578.17 243.721 578.299 243.499C584.364 243.207 588.96 245.064 592.226 250.215C593.241 251.803 595.761 256.896 596.414 258.624V258.613Z" fill="#B5DFD0"/>
<path d="M662.098 306.23C665.539 302.668 674.999 311.054 677.449 314.032C679.479 316.497 684.436 324.252 681.019 326.717C675.571 330.653 656.114 312.409 662.087 306.23H662.098Z" fill="#B5DFD0"/>
<path d="M420.999 185.217C432.197 182.881 435.79 202.036 424.534 202.994C414.724 203.823 409.323 187.647 420.999 185.217Z" fill="#B5DFD0"/>
<path d="M465.559 244.503L469.583 263.658V264.662C459.855 268.271 455.154 247.47 455.492 240.474L456.495 238.453C456.659 238.266 456.332 237.566 456.495 237.449C461.628 237.881 463.179 240.544 465.559 244.503Z" fill="#B5DFD0"/>
<path d="M436.373 299.935C434.974 299.433 431.276 299.398 429.328 298.931C425.992 293.99 426.423 289.388 426.307 283.817C426.295 283.152 426.307 282.474 426.307 281.797C426.89 280.862 427.112 279.834 427.31 278.772C427.38 278.433 427.217 278.036 427.31 277.767C439.616 274.088 439.29 292.262 436.373 299.935Z" fill="#B5DFD0"/>
<path d="M472.464 322.968C471.613 324.322 466.223 324.182 464.462 323.692C459.785 322.372 455.259 307.293 461.569 304.455C469.245 301.01 475.065 318.798 472.464 322.968Z" fill="#B5DFD0"/>
<path d="M461.184 203.321C468.207 200.973 482.892 214.849 477.655 220.84C472.418 226.832 454.197 205.657 461.184 203.321Z" fill="#B5DFD0"/>
<path d="M594.396 216.285C601.045 219.52 609.7 219.427 608.487 229.39C608.37 229.483 608.954 231.118 607.822 231.422C606.096 231.889 603.215 231.329 601.383 230.943C599.167 230.476 593.02 226.446 591.445 224.788C589.03 222.23 589.217 219.614 589.357 216.285H594.396Z" fill="#B5DFD0"/>
<path d="M541.193 214.416C550.571 209.838 561.163 229.518 551.365 231.235C544.378 232.461 536.982 220.758 541.193 214.416Z" fill="#B5DFD0"/>
<path d="M419.261 236.444C417.021 232.543 416.567 228.584 419.226 224.765C426.493 224.776 430.693 229.401 431.929 236.421C433.865 247.447 423.041 243.032 419.261 236.444Z" fill="#B5DFD0"/>
<path d="M449.403 282.824C450.721 284.413 450.126 290.288 456.495 287.846C457.452 290.544 454.757 289.47 454.547 290.486C453.556 295.298 456.32 294.667 456.484 294.913C457.837 296.816 452.576 296.711 455.492 300.939H451.468C455.667 290.766 441.098 297.599 439.383 295.917C439.161 291.888 440.188 287.59 438.368 283.829L449.391 282.824H449.403ZM446.429 286.842C445.11 285.113 444.306 288.36 443.617 288.816C442.929 289.271 441.028 288.045 441.401 289.844L445.834 289.867C446.895 289.937 446.522 286.959 446.429 286.83V286.842ZM449.45 288.863C448.038 288.138 446.767 289.505 447.443 289.855C448.855 290.58 450.126 289.213 449.45 288.863ZM448.948 291.876V292.88C449.601 292.542 449.601 292.203 448.948 291.876Z" fill="#33B7A0"/>
<path d="M549.102 273.738L552.123 275.758C552.555 276.202 554.059 277.651 554.141 277.779L555.144 279.8C555.249 280.068 555.063 280.477 555.144 280.804C555.867 283.607 556.672 285.78 556.147 288.863C546.641 295.918 536.154 273.843 545.637 272.733C547.154 272.558 548.052 273.504 549.102 273.75V273.738Z" fill="#B5DFD0"/>
<path d="M502.536 193.288C512.918 191.174 518.318 210.153 505.569 208.051C497.205 206.673 494.056 195.005 502.536 193.288Z" fill="#B5DFD0"/>
<path d="M578.042 327.336C588.319 325.28 595.026 343.71 583.093 342.099C574.391 340.919 570.227 328.901 578.042 327.336Z" fill="#B5DFD0"/>
<path d="M552.123 192.108C557.442 190.053 575.033 200.494 570.822 206.276C567.007 211.532 549.463 199.49 552.123 192.108Z" fill="#B5DFD0"/>
<path d="M649.769 249.549C651.822 247.424 671.64 262.479 665.889 268.248C661.62 271.332 647.412 251.979 649.769 249.549Z" fill="#B5DFD0"/>
<path d="M391.079 321.099C389.563 317.513 390.589 315.516 391.079 312.024C398.206 309.524 404.237 319.616 400.236 324.72C398.836 326.495 395.115 326.962 393.611 325.093C393.459 324.906 391.173 321.309 391.079 321.087V321.099Z" fill="#B5DFD0"/>
<path d="M539.712 314.185C547.889 311.498 549.428 327.803 544.366 329.029C538.242 330.513 534.287 315.972 539.712 314.185Z" fill="#B5DFD0"/>
<path d="M510.001 339.342C512.159 338.151 519.566 343.197 518.75 347.553C517.373 354.981 506.782 351.104 507.82 343.874C507.902 343.278 509.78 339.471 510.001 339.342Z" fill="#B5DFD0"/>
<path d="M634.966 347.016C629.822 340.639 636.016 330.828 642.175 340.3C647.226 348.079 638.932 351.933 634.966 347.016Z" fill="#B5DFD0"/>
<path d="M442.264 350.181C433.294 354.024 428.266 337.824 437.82 339.214C442.054 339.821 444.947 346.665 442.264 350.181Z" fill="#B5DFD0"/>
<path d="M456.495 237.449C457.895 236.468 458.023 236.176 460.041 236.339C460.286 236.363 464.054 238.535 464.229 238.698C465.559 240.007 465.43 244.433 468.09 245.496C470.749 246.559 469.21 240.299 471.589 240.474C473.946 245.333 468.673 247.552 468.626 248.007C468.603 248.252 470.679 252.212 470.878 252.352C472.277 253.333 474.377 250.974 473.677 256.148C473.421 258.04 471.788 257.503 471.613 258.297C471.228 260.026 472.103 263.81 471.484 264.604C471.181 264.989 470.003 264.511 469.571 264.662V263.658C470.201 256.3 469.326 250.81 465.547 244.503C463.167 240.544 461.616 237.881 456.483 237.449H456.495Z" fill="#0D9C8D"/>
<path d="M422.282 365.446C426.633 367.128 427.613 368.284 430.121 369.441C436.537 372.372 447.828 370.083 454.489 368.471C445.11 375.234 430.553 373.295 422.282 365.446Z" fill="#0D9C8D"/>
<path d="M567.217 377.547C570.425 375.584 572.093 378.971 576.514 378.352C577.47 378.224 588.727 373.54 589.392 372.956C590.92 371.613 588.925 369.172 590.873 368.483C591.76 368.168 590.232 372.08 594.396 369.488C587.98 376.694 576.491 383.048 567.217 377.547Z" fill="#0D9C8D"/>
<path d="M527.965 375.526C521.235 380.828 513.816 378.726 506.829 375.526C514.737 377.675 520.115 377.768 527.965 375.526Z" fill="#0D9C8D"/>
<path d="M578.299 243.499C579.43 241.548 583.933 241.385 585.846 242.413C586.429 242.728 593.848 249.491 594.384 250.273C595.901 252.527 594.723 256.183 599.447 255.611L596.414 258.624C595.761 256.907 593.229 251.815 592.226 250.215C588.96 245.076 584.364 243.207 578.299 243.499Z" fill="#0D9C8D"/>
<path d="M491.735 294.901C490.545 297.167 489.67 293.172 489.542 292.565C488.468 287.473 486.789 284.868 491.735 282.812C489.95 286.235 490.673 291.304 491.735 294.901Z" fill="#0D9C8D"/>
<path d="M502.804 288.851C507.412 289.447 507.412 295.917 507.96 299.316C508.275 301.243 510.153 302.283 506.829 301.944C506.397 296.968 505.417 293.114 502.804 288.839V288.851Z" fill="#0D9C8D"/>
<path d="M594.396 216.285C594.419 213.225 602.515 217.255 603.121 217.64C603.938 218.143 610.913 225.559 611.03 226.225C611.625 229.647 608.954 228.981 608.475 229.378C609.688 219.416 601.033 219.509 594.384 216.274L594.396 216.285Z" fill="#0D9C8D"/>
<path d="M660.838 388.631C654.26 391.422 650.177 392.497 642.711 391.632C642.816 391.142 643.715 390.792 643.726 390.64C649.605 391.282 655.123 389.518 660.838 388.619V388.631Z" fill="#B5DFD0"/>
<path d="M604.463 366.463C601.885 366.708 600.858 366.918 598.42 367.467C596.997 363.368 604.661 361.826 604.463 366.463Z" fill="#0D9C8D"/>
<path d="M419.261 236.445C419.891 237.648 417.908 239.82 417.267 239.458C417.01 239.318 414.735 235.066 414.222 234.436C414.84 233.922 419.133 236.199 419.25 236.445H419.261Z" fill="#33B7A0"/>
<path d="M493.741 281.796L494.721 279.32C494.721 282.17 498.477 280.757 498.64 280.932C498.873 281.166 501.229 285.814 501.789 286.842C500.471 285.23 495.852 281.715 493.741 281.808V281.796Z" fill="#0D9C8D"/>
<path d="M444.422 277.767C446.067 279.542 442.684 282.31 440.41 281.785C439.721 279.916 443.571 276.833 444.422 277.767Z" fill="#33B7A0"/>
<path d="M578.299 244.503C575.417 253.018 582.766 258.052 586.347 264.663C585.962 264.569 583.571 261.696 582.906 261.03C582.475 260.598 581.051 260.808 580.643 260.364C578.94 258.496 576.537 250.729 576.304 247.996C576.141 246.103 575.382 243.943 578.299 244.515V244.503Z" fill="#0D9C8D"/>
<path d="M345.633 186.187C347.523 189.001 344.35 189.656 341.749 189.06C342.671 188.079 342.636 185.194 342.764 185.03C342.869 184.914 345.54 186.047 345.633 186.175V186.187Z" fill="#33B7A0"/>
<path d="M555.144 280.792C557.967 280.126 558.935 286.784 556.147 288.851C556.672 285.768 555.856 283.584 555.144 280.792Z" fill="#0D9C8D"/>
<path d="M441.401 178.992H436.373C435.359 175.71 440.433 176.341 441.401 178.992Z" fill="#33B7A0"/>
<path d="M377.991 340.254C380.966 336.177 395.36 344.085 396.107 343.279L397.11 339.249C396.795 346.327 399.431 344.563 403.164 347.308C406.138 349.492 409.999 351.606 410.209 355.367C397.565 344.085 394.287 343.828 378.003 340.254H377.991Z" fill="#0D9C8D"/>
<path d="M609.49 232.415C610.039 232.976 608.044 237.659 607.496 236.433V232.415H609.49Z" fill="#0D9C8D"/>
<path d="M506.829 303.965C510.62 303.895 508.812 305.413 506.829 306.99C506.829 305.985 506.829 304.969 506.829 303.965Z" fill="#0D9C8D"/>
<path d="M414.222 226.376C415.319 227.474 413.312 229.483 412.216 228.385C411.119 227.287 413.126 225.278 414.222 226.376Z" fill="#33B7A0"/>
<path d="M358.861 189.083C359.958 190.181 357.951 192.19 356.855 191.092C355.758 189.994 357.765 187.985 358.861 189.083Z" fill="#33B7A0"/>
<path d="M597.417 367.467L595.399 369.488C596.216 368.717 593.568 368.565 597.417 367.467Z" fill="#0D9C8D"/>
<path d="M343.755 183.022H342.764C342.262 178.829 344.245 178.829 343.755 183.022Z" fill="#33B7A0"/>
<path d="M416.24 361.417C418.293 362.106 421.757 362.935 421.268 365.446C419.914 364.933 417.441 362.55 416.24 361.417Z" fill="#0D9C8D"/>
<path d="M444.422 181.024V182.017C440.235 182.519 440.235 180.534 444.422 181.024Z" fill="#33B7A0"/>
<path d="M439.383 186.046C437.283 186.338 437.097 186.152 437.377 184.038L439.383 186.046Z" fill="#33B7A0"/>
<path d="M435.359 248.544C436.047 248.895 434.764 250.261 433.352 249.537C432.664 249.187 433.947 247.82 435.359 248.544Z" fill="#33B7A0"/>
<path d="M447.432 189.072C447.082 189.761 445.717 188.476 446.44 187.063C446.79 186.374 448.155 187.658 447.432 189.072Z" fill="#33B7A0"/>
<path d="M411.201 347.32C411.889 347.67 410.606 349.037 409.195 348.313C408.506 347.962 409.789 346.596 411.201 347.32Z" fill="#33B7A0"/>
<path d="M415.237 360.413L412.216 357.388C413.557 358.602 414.572 359.817 415.237 360.413Z" fill="#0D9C8D"/>
<path d="M595.411 263.658L596.414 261.638C596.111 262.409 596.426 262.899 595.411 263.658Z" fill="#0D9C8D"/>
<path d="M555.144 279.776L554.141 277.755C554.666 278.631 554.747 278.748 555.144 279.776Z" fill="#0D9C8D"/>
<path d="M552.123 275.747L549.102 273.726C549.102 273.726 549.568 272.955 550.128 273.271C551.283 273.925 551.481 275.081 552.123 275.747Z" fill="#0D9C8D"/>
<path d="M440.899 297.926C441.553 298.265 441.553 298.604 440.899 298.931V297.926Z" fill="#33B7A0"/>
<path d="M456.495 368.472H455.492C456.297 368.25 456.448 368.483 456.495 368.472Z" fill="#0D9C8D"/>
<path d="M360.377 193.101C361.031 193.44 361.031 193.778 360.377 194.106V193.101Z" fill="#33B7A0"/>
<path d="M341.247 181.013C341.901 181.351 341.901 181.69 341.247 182.017V181.013Z" fill="#33B7A0"/>
<path d="M438.881 278.771C439.535 279.11 439.535 279.449 438.881 279.776V278.771Z" fill="#33B7A0"/>
<path d="M432.851 188.067C433.504 188.406 433.504 188.744 432.851 189.071V188.067Z" fill="#33B7A0"/>
<path d="M509.348 306.99C510.001 307.328 510.001 307.667 509.348 307.994V306.99Z" fill="#0D9C8D"/>
<path d="M393.587 328.153C394.24 328.492 394.24 328.831 393.587 329.158V328.153Z" fill="#33B7A0"/>
<path d="M434.857 193.101C435.51 193.44 435.51 193.778 434.857 194.106V193.101Z" fill="#33B7A0"/>
<path d="M455.492 240.474C455.492 240.474 454.792 240.334 454.979 239.493C455.072 239.025 456.215 238.792 456.507 238.453L455.504 240.474H455.492Z" fill="#0D9C8D"/>
<path d="M413.72 232.415C414.374 232.754 414.374 233.092 413.72 233.419V232.415Z" fill="#33B7A0"/>
<path d="M415.739 231.411C416.392 231.749 416.392 232.088 415.739 232.415V231.411Z" fill="#33B7A0"/>
<path d="M444.924 185.042C445.577 185.381 445.577 185.719 444.924 186.046V185.042Z" fill="#33B7A0"/>
<path d="M382.517 221.331C383.171 221.67 383.171 222.008 382.517 222.336V221.331Z" fill="#33B7A0"/>
<path d="M182.711 258.612C187.914 257.83 192.218 253.66 198.821 255.599V259.617L193.781 259.628C193.455 260.528 194.773 261.38 194.785 261.637C194.831 263.483 190.305 264.16 188.696 265.118C183.668 268.108 178.512 271.857 174.115 275.723C171.432 278.071 167.862 283.408 165.588 284.821H161.563C161.365 284.635 160.665 283.186 160.56 282.801C159.534 279.087 159.58 273.142 161.563 269.696L162.555 270.701C162.695 270.093 162.368 268.995 162.555 268.692C162.858 268.225 163.348 267.979 163.558 267.687C163.745 267.43 164.969 266.356 165.576 265.667C166.183 264.978 166.299 263.856 167.594 262.642C167.932 262.326 170.51 263.775 169.612 259.617C170.289 259.301 170.907 258.916 171.63 258.612C173.706 261.299 180.25 261.941 181.697 258.612C182.023 258.589 182.385 258.659 182.7 258.612H182.711Z" fill="#ABDBCB"/>
<path d="M228.741 297.12C240.989 294.364 251.907 306.534 240.604 316.077C224.028 330.069 216.528 299.877 228.741 297.12Z" fill="#0D9C8D"/>
<path d="M395.395 269.393C392.736 267.127 385.865 254.513 385.282 250.81C382.412 232.45 396.876 241.607 400.306 253.905C401.461 258.04 403.327 276.143 395.395 269.393Z" fill="#B5DFD0"/>
<path d="M320.612 246.524C320.939 246.547 321.301 246.465 321.615 246.524C322.14 246.617 322.98 247.271 323.633 247.528L328.661 253.578C328.778 253.859 328.556 254.279 328.661 254.583L329.664 255.587C329.757 255.891 329.583 256.276 329.664 256.592C330.936 261.649 330.772 266.8 331.682 270.701C330.084 273.083 328.696 274.298 325.64 273.726C325.465 273.375 324.742 273.048 324.637 272.721C324.345 271.787 324.812 270.175 324.17 268.704C321.219 261.918 314.453 255.062 317.591 246.512C318.478 246.407 319.702 246.442 320.612 246.512V246.524Z" fill="#B5DFD0"/>
<path d="M346.473 229.705C350.404 233.186 349.973 239.715 349.798 244.515C343.265 246.933 333.129 229.46 339.369 227.451C341.516 227.136 344.945 228.339 346.473 229.705Z" fill="#B5DFD0"/>
<path d="M277.091 239.224C270.594 245.975 261.6 227.031 271.025 224.496C278.771 222.417 280.357 235.825 277.091 239.224Z" fill="#B5DFD0"/>
<path d="M362.675 279.005C363.165 279.286 368.52 287.578 368.741 288.571C370.211 295.38 364.88 294.224 360.506 291.748C352.585 287.263 355.163 274.672 362.675 279.005Z" fill="#B5DFD0"/>
<path d="M312.272 205.388C324.893 201.627 326.235 223.527 313.649 216.706C309.368 214.381 307.256 206.895 312.272 205.388Z" fill="#B5DFD0"/>
<path d="M202.938 239.376C197.841 235.814 210.847 220.829 214.965 223.784C219.584 227.112 206.694 241.992 202.938 239.376Z" fill="#B5DFD0"/>
<path d="M235.051 242.494C235.133 242.518 235.716 243.218 236.054 243.499V250.553C231.564 256.008 220.505 258.612 224.74 248.79C225.043 248.101 229.627 242.634 230.012 242.494C230.432 242.331 234.421 242.342 235.04 242.494H235.051Z" fill="#B5DFD0"/>
<path d="M245.853 269.837C252.98 268.809 251.51 285.137 242.808 282.673C236.498 280.886 240.534 270.608 245.853 269.837Z" fill="#ABDBCB"/>
<path d="M295.451 266.683C295.801 266.917 296.151 267.361 296.455 267.688C297.854 268.622 299.301 283.852 295.451 279.776C295.09 279.391 296.571 277.498 296.023 276.704C294.285 274.123 286.446 275.747 289.537 266.823L295.451 266.683Z" fill="#ABDBCB"/>
<path d="M317.591 246.524C314.453 255.073 321.207 261.929 324.17 268.715C324.812 270.187 324.345 271.799 324.637 272.733L318.606 273.738C317.696 270.397 321.184 272.231 321.616 271.717C322.91 270.14 316.81 256.241 312.575 257.608C312.284 255.914 313.823 256.802 314.873 256.65C316.296 256.44 315.375 253.777 315.573 252.597C313.718 252.142 315.2 254.746 314.068 254.618C313.287 254.525 314.488 251.184 309.542 253.59C309.706 250.11 313.66 250.063 314.348 249.28C315.736 247.739 312.365 247.143 317.591 246.536V246.524Z" fill="#27B29B"/>
<path d="M200.839 256.603C195.578 252.527 187.424 254.384 182.723 258.624C182.397 258.671 182.047 258.601 181.72 258.624C178.221 258.811 177.206 258.087 174.675 257.62C176.786 256.966 179.457 257.421 181.44 256.802C184.181 255.949 184.543 254.081 185.534 253.672C188.707 252.364 199.311 251.499 201.399 254.583C201.982 255.435 200.909 256.183 200.85 256.615L200.839 256.603Z" fill="#27B29B"/>
<path d="M295.452 266.683L289.538 266.823C286.446 275.747 294.285 274.123 296.023 276.704C296.571 277.51 295.09 279.402 295.452 279.776C299.301 283.852 297.855 268.622 296.455 267.688C302.299 274.006 301.051 288.279 291.392 277.288C285.245 270.292 286.47 260.54 295.452 266.683Z" fill="#B5DFD0"/>
<path d="M145.093 314.126C149.35 312.736 152.418 318.681 149.56 320.655C144.148 324.404 140.952 315.469 145.093 314.126Z" fill="#B5DFD0"/>
<path d="M241.094 338.233C233.687 341.036 220.575 342.064 213.915 337.229C217.204 338.093 224.238 339.319 227.504 339.331C231.879 339.354 236.836 336.925 241.094 338.233Z" fill="#0D9C8D"/>
<path d="M420.918 265.83C425.91 264.849 425.957 271.764 421.758 272.721C419.261 273.282 416.952 266.613 420.918 265.83Z" fill="#27B29B"/>
<path d="M332.697 271.717C332.767 271.869 333.829 272.02 334.19 272.756C334.633 273.632 334.284 276.295 335.217 277.744L332.685 273.737C330.621 273.399 332.522 276.622 331.169 276.774C330.318 276.868 326.445 275.992 325.862 275.489C325.325 275.034 325.78 274.018 325.64 273.726C328.696 274.298 330.073 273.083 331.682 270.701C331.764 271.039 332.545 271.39 332.685 271.705L332.697 271.717Z" fill="#27B29B"/>
<path d="M173.66 257.608C172.983 257.912 172.33 258.32 171.642 258.612C170.953 258.904 170.3 259.313 169.624 259.617C168.422 260.166 166.964 258.589 167.606 262.642C166.311 263.845 166.217 264.966 165.588 265.667L163.57 267.688C163.36 267.98 162.858 268.225 162.566 268.692C162.24 269.007 161.785 269.311 161.563 269.696C159.569 273.13 159.522 279.087 160.56 282.801C156.524 282.801 158.145 284.156 158.285 281.037C158.425 277.709 158.134 272.827 159.242 269.918C159.709 268.704 163.628 266.216 164.619 264.919C166.101 262.969 167.722 256.171 172.05 256.568C172.983 256.65 173.45 257.538 173.648 257.585L173.66 257.608Z" fill="#27B29B"/>
<path d="M314.57 311.019C316.646 309.828 318.886 311.884 321.697 311.568C324.987 311.194 324.648 308.952 325.138 308.999C326.13 309.104 325.173 311.089 326.2 311.101C328.031 311.136 335.007 308.146 338.215 307.994C339.334 307.936 338.425 309.548 338.739 310.026C336.838 311.311 334.902 310.085 332.709 310.447C325.465 311.65 322.14 315.504 314.582 311.031L314.57 311.019Z" fill="#0D9C8D"/>
<path d="M329.676 256.604L333.199 263.144L332.697 271.717C332.557 271.39 331.764 271.051 331.694 270.713C330.784 266.812 330.947 261.661 329.676 256.604Z" fill="#0D9C8D"/>
<path d="M174.663 257.608C177.194 258.075 178.209 258.811 181.708 258.612C180.262 261.941 173.718 261.299 171.642 258.612C172.33 258.32 172.971 257.912 173.66 257.608C173.975 257.678 174.336 257.55 174.663 257.608Z" fill="#B5DFD0"/>
<path d="M404.155 305.985C403.735 301.991 407.725 297.447 406.687 303.988L409.195 303.474C409.673 305.682 405.893 305.156 406.162 307.994C404.844 308.531 405.019 304.385 404.167 305.985C403.98 306.324 404.307 307.399 404.167 308.006H403.176L402.172 305.46L404.167 305.985H404.155Z" fill="#27B29B"/>
<path d="M426.307 283.817C426.423 289.4 425.992 293.99 429.328 298.931C428.838 298.814 427.893 299.258 427.462 298.814C426.377 297.704 427.018 290.404 423.297 290.86C422.877 289.12 424.814 290.218 425.187 289.785C425.455 289.482 421.991 282.976 426.307 283.817Z" fill="#27B29B"/>
<path d="M315.643 192.015C316.098 192.423 318.839 189.772 318.594 192.085C314.862 192.213 316.506 198.275 311.561 197.13C315.258 194.584 313.684 194.129 314.593 190.088C316.343 189.667 315.223 191.629 315.643 192.015Z" fill="#27B29B"/>
<path d="M205.866 333.199C202.25 335.068 203.3 341.48 202.763 342.216C202.483 342.601 201.13 342.087 200.839 342.262V337.228C202.332 336.341 203.953 333 205.866 333.199Z" fill="#FEFDF0"/>
<path d="M236.066 250.554V243.499C238.726 245.706 238.119 248.066 236.066 250.554Z" fill="#0D9C8D"/>
<path d="M200.839 256.604C200.302 261.054 199.275 260.201 194.796 261.638C194.796 261.381 193.466 260.528 193.793 259.629H198.832V255.599C192.23 253.672 187.926 257.842 182.723 258.613C187.436 254.373 195.589 252.528 200.839 256.592V256.604Z" fill="#B5DFD0"/>
<path d="M425.292 260.633V264.651C424.732 265.865 422.737 261.182 423.286 260.633H425.292Z" fill="#27B29B"/>
<path d="M235.051 242.495C234.422 242.343 230.444 242.331 230.024 242.495C230.689 240.906 234.398 240.906 235.051 242.495Z" fill="#0D9C8D"/>
<path d="M335.718 278.783C335.38 280.243 334.097 281.096 332.709 280.78V278.771H335.718V278.783Z" fill="#27B29B"/>
<path d="M401.134 309.01C400.994 308.87 397.005 309.127 399.128 307.001C401.251 304.876 400.994 308.87 401.134 309.01C401.274 309.15 405.264 308.893 403.141 311.019C401.018 313.145 401.274 309.15 401.134 309.01Z" fill="#27B29B"/>
<path d="M165.599 284.822C163.698 286.001 163.558 286.737 161.575 284.822H165.599Z" fill="#27B29B"/>
<path d="M323.634 247.528C327.693 249.152 327.261 250.051 328.661 253.578L323.634 247.528Z" fill="#0D9C8D"/>
<path d="M400.119 305.985H399.128C398.626 301.792 400.609 301.792 400.119 305.985Z" fill="#27B29B"/>
<path d="M335.707 306.99C335.357 307.679 333.992 306.394 334.715 304.981C335.065 304.292 336.43 305.576 335.707 306.99Z" fill="#0D9C8D"/>
<path d="M390.053 307.994C389.703 308.683 388.338 307.398 389.061 305.985C389.411 305.296 390.776 306.581 390.053 307.994Z" fill="#27B29B"/>
<path d="M362.886 203.181C362.536 203.87 361.171 202.585 361.894 201.172C362.244 200.483 363.609 201.767 362.886 203.181Z" fill="#27B29B"/>
<path d="M426.307 281.797C426.307 281.364 424.884 280.173 427.31 278.771C427.1 279.834 426.89 280.862 426.307 281.797Z" fill="#27B29B"/>
<path d="M399.116 279.776C398.766 280.465 397.402 279.18 398.125 277.767C398.475 277.078 399.839 278.363 399.116 279.776Z" fill="#27B29B"/>
<path d="M337.223 269.708C337.876 270.047 337.876 270.385 337.223 270.712V269.708Z" fill="#27B29B"/>
<path d="M426.808 264.663C427.462 265.001 427.462 265.34 426.808 265.667V264.663Z" fill="#27B29B"/>
<path d="M403.654 316.065C404.307 316.404 404.307 316.742 403.654 317.069V316.065Z" fill="#27B29B"/>
<path d="M397.611 281.796C398.265 282.135 398.265 282.474 397.611 282.801V281.796Z" fill="#27B29B"/>
<path d="M329.676 255.587L328.673 254.583C328.708 254.665 329.489 254.945 329.676 255.587Z" fill="#0D9C8D"/>
<path d="M398.626 284.822C399.279 285.16 399.279 285.499 398.626 285.826V284.822Z" fill="#27B29B"/>
<path d="M396.608 286.842C397.262 287.181 397.262 287.52 396.608 287.847V286.842Z" fill="#27B29B"/>
<path d="M398.626 287.847C399.279 288.185 399.279 288.524 398.626 288.851V287.847Z" fill="#27B29B"/>
<path d="M401.647 287.847C402.301 288.185 402.301 288.524 401.647 288.851V287.847Z" fill="#27B29B"/>
<path d="M395.605 305.985C396.258 306.324 396.258 306.663 395.605 306.99V305.985Z" fill="#27B29B"/>
<path d="M321.615 246.524C321.289 246.466 320.939 246.547 320.612 246.524L321.126 245.531L321.627 246.524H321.615Z" fill="#0D9C8D"/>
<path d="M400.633 289.855C401.286 290.194 401.286 290.533 400.633 290.86V289.855Z" fill="#27B29B"/>
<path d="M283.064 376.823C287.636 382.476 281.454 390.079 274.047 386.377C262.417 380.56 276.683 368.951 283.064 376.823Z" fill="#33B7A0"/>
<path d="M448.178 390.815C460.508 388.245 458.117 406.968 446.685 401.981C440.48 399.271 441.891 392.135 448.178 390.815Z" fill="#33B7A0"/>
<path d="M295.172 332.358C304.842 330.875 305.717 351.384 293.713 343.5C288.733 340.23 289.852 333.175 295.172 332.358Z" fill="#33B7A0"/>
<path d="M344.467 348.523C355.058 345.322 356.505 360.062 346.275 359.49C339.964 359.139 340.396 349.749 344.467 348.523Z" fill="#33B7A0"/>
<path d="M491.734 393.665C490.871 394.342 489.903 395.568 489.716 395.685L482.671 394.681C482.018 393.922 480.851 392.929 480.653 392.66C479.51 380.56 494.686 383.06 491.723 393.665H491.734Z" fill="#33B7A0"/>
<path d="M215.653 372.676C222.488 370.679 225.684 378.738 220.972 381.074C213.845 384.601 208.561 374.755 215.653 372.676Z" fill="#33B7A0"/>
<path d="M396.107 381.576C393.482 380.198 387.533 378.598 384.535 378.493C379.566 378.318 375.74 380.642 371.447 380.642C367.155 380.642 362.349 377.897 357.718 378.131C354.312 378.306 351.617 380.023 347.803 380.572C355.805 373.295 363.235 378.493 371.447 378.633C380.313 378.785 387.696 373.249 396.118 381.588L396.107 381.576Z" fill="#0D9C8D"/>
<path d="M335.718 380.572L315.585 382.592C315.818 382.452 315.97 381.121 317.241 380.77C321.569 379.556 331.029 380.093 335.718 380.583V380.572Z" fill="#0D9C8D"/>
<path d="M121.32 360.413C118.357 364.267 112.28 362.725 108.232 362.433C111.836 360.868 117.05 361.172 121.32 360.413Z" fill="#FEFDF0"/>
<path d="M198.821 344.283C193.443 347.798 194.178 346.735 188.754 347.308L198.821 344.283Z" fill="#FEFDF0"/>
<path d="M498.768 375.526H496.762C496.517 373.669 496.727 372.595 498.267 371.508L498.757 375.526H498.768Z" fill="#ABDBCB"/>
<path d="M340.746 380.572C341.352 383.585 339.334 382.511 336.71 382.569C336.803 382.067 337.713 381.728 337.725 381.576C338.658 381.051 339.673 380.665 340.746 380.572Z" fill="#0D9C8D"/>
<path d="M497.264 376.531C497.917 376.869 497.917 377.208 497.264 377.535V376.531Z" fill="#ABDBCB"/>
<path d="M399.128 384.601L398.125 383.597C398.475 383.889 398.836 384.262 399.128 384.601Z" fill="#0D9C8D"/>
<path d="M530.718 400.906C540.411 398.932 545.031 413.859 537.064 416.429C525.76 420.084 521.573 402.763 530.718 400.906Z" fill="#33B7A0"/>
<path d="M667.639 424.674C660.803 431.495 649.407 417.269 657.234 411.745C665.061 406.22 672.888 419.454 667.639 424.674Z" fill="#33B7A0"/>
<path d="M603.774 405.449C596.612 395.977 621.283 388.35 616.326 405.041C614.728 410.437 606.037 408.439 603.774 405.449Z" fill="#33B7A0"/>
<path d="M484.386 419.068C495.759 415.658 499.83 432.021 486.264 429.883C479.568 428.832 480.443 420.248 484.386 419.068Z" fill="#33B7A0"/>
<path d="M580.06 409.035C583.501 412.971 578.31 422.665 571.673 417.923C563.659 412.2 575.161 403.429 580.06 409.035Z" fill="#33B7A0"/>
<path d="M470.329 430.28C471.053 430.549 473.502 433.866 472.604 434.987C471.029 436.973 470.399 433.048 470.166 433.072C469.023 433.154 467.25 434.567 465.559 433.983C466.807 430.794 466.06 428.68 470.329 430.28Z" fill="#B5DFD0"/>
<path d="M462.538 427.933C460.986 429.953 465.979 431.74 464.556 432.967C463.132 434.193 455.562 428.68 462.538 427.933Z" fill="#B5DFD0"/>
<path d="M489.716 395.685C488.515 396.468 488.655 397.379 486.392 397.402C481.948 397.449 483.044 395.113 482.671 394.681L489.716 395.685Z" fill="#B5DFD0"/>
<path d="M475.625 398.71C476.722 399.808 474.715 401.817 473.619 400.719C472.523 399.621 474.529 397.612 475.625 398.71Z" fill="#B5DFD0"/>
<path d="M469.082 410.799C469.735 411.138 469.735 411.476 469.082 411.803V410.799Z" fill="#B5DFD0"/>
<path d="M504.309 394.681C504.962 395.019 504.962 395.358 504.309 395.685V394.681Z" fill="#B5DFD0"/>
<path d="M496.26 391.656C496.913 391.994 496.913 392.333 496.26 392.66V391.656Z" fill="#B5DFD0"/>
<path d="M458.012 431.962C458.665 432.301 458.665 432.64 458.012 432.967V431.962Z" fill="#B5DFD0"/>
<path d="M361.882 380.571C359.981 384.017 359.223 383.048 357.881 380.046L361.882 380.571Z" fill="#0D9C8D"/>
<path d="M469.583 263.658L465.559 244.503C469.338 250.81 470.213 256.3 469.583 263.658Z" fill="#FEFDF0"/>
<path d="M446.429 286.842C446.522 286.971 446.895 289.937 445.834 289.879L441.401 289.856C441.028 288.045 442.953 289.26 443.617 288.828C444.306 288.372 445.11 285.125 446.429 286.854V286.842Z" fill="#27B29B"/>
<path d="M449.45 288.863C450.138 289.213 448.855 290.58 447.443 289.856C446.755 289.505 448.038 288.139 449.45 288.863Z" fill="#27B29B"/>
<path d="M448.948 291.876C449.601 292.215 449.601 292.553 448.948 292.88V291.876Z" fill="#27B29B"/>
<path d="M169.635 259.628C170.545 263.786 167.967 262.326 167.617 262.653C166.964 258.601 168.434 260.177 169.635 259.628Z" fill="#B5DFD0"/>
<path d="M162.578 268.692C162.38 269.007 162.706 270.093 162.578 270.701L161.587 269.696C161.808 269.311 162.263 269.007 162.59 268.692H162.578Z" fill="#B5DFD0"/>
<path d="M163.593 267.688L165.611 265.667C165.004 266.344 163.78 267.419 163.593 267.688Z" fill="#B5DFD0"/>
</g>
</g>
<defs>
<clipPath id="clip0_504_11318">
<rect width="669" height="516" fill="white"/>
</clipPath>
<clipPath id="clip1_504_11318">
<rect width="909" height="598" fill="white" transform="translate(90 89)"/>
</clipPath>
</defs>
</svg>
