<svg width="669" height="498" viewBox="0 0 669 498" fill="none" xmlns="http://www.w3.org/2000/svg">
<g clip-path="url(#clip0_527_28724)">
<rect width="669" height="498" fill="#D3D0D0"/>
<g clip-path="url(#clip1_527_28724)">
<path d="M643.925 395.504C644.865 397.035 647.886 399.852 647.784 401.772C647.669 403.982 641.497 411.167 640.363 414.186C636.265 425.104 647.633 429.921 656.427 431.611C678.281 435.814 680.998 421.877 689.135 405.795C689.424 405.231 690.024 404.957 690.082 404.842C699.31 407.102 708.965 412.056 716.964 417.24C741.542 433.185 761.27 462.778 766.763 491.584C770.253 509.897 769.27 520.281 752.685 530.275C721.712 548.942 654.418 549.708 618.343 548.74C589.9 547.975 528.279 543.324 506.527 524.289C495.658 514.778 497.378 502.293 500.081 489.28C508.008 451.043 541.07 415.659 577.976 403.744C578.171 404.112 578.886 404.48 579.074 404.842C586.51 418.901 587.544 428.982 606.817 427.35C612.721 426.852 624.659 423.436 625.751 416.619C626.741 410.431 619.514 401.115 616.443 395.512H643.918L643.925 395.504ZM567.96 421.978C562.778 422.31 545.818 434.073 543.628 438.883C541.886 442.703 544.698 446.956 548.679 446.963C551.621 446.963 557.351 439.641 559.83 437.503C562.677 435.055 572.122 429.834 572.31 426.44C572.433 424.274 570.178 421.826 567.953 421.97L567.96 421.978ZM702.367 431.553C704.52 434.088 708.849 436.976 711.255 439.417C713.423 441.62 720.39 450.726 722.666 450.812C730.225 451.123 729.358 444.306 725.795 439.713C723.129 436.276 709.102 424.736 705.192 424.563C700.979 424.375 699.852 428.571 702.374 431.546L702.367 431.553ZM583.887 434.044C579.862 434.817 564.852 450.711 563.927 454.769C562.634 460.46 568.574 463.543 572.766 459.752C575.425 457.347 579.255 450.646 581.842 447.404C583.793 444.963 588.888 441.258 589.011 438.038C589.112 435.301 586.453 433.546 583.887 434.044ZM688.275 440.652C681.778 442.558 691.563 454.018 693.29 456.828C695.501 460.417 699.194 471.082 704.773 468.685C707.657 467.443 708.697 464.388 707.844 461.5C707.143 459.109 698.732 447.606 696.658 445.223C694.374 442.602 692.091 439.54 688.268 440.659L688.275 440.652ZM605.321 441.728C604.671 441.836 603.283 442.602 602.749 443.049C599.786 445.541 592.342 462.771 592.313 466.685C592.27 471.978 598.369 475.271 602.084 470.945L609.715 447.274C610.77 444.371 608.335 441.23 605.314 441.728H605.321ZM631.691 443.374C629.082 443.894 628.641 446.508 628.15 448.66C627.059 453.426 625.787 467.688 627.875 471.667C630.181 476.058 637.414 475.769 638.715 470.75C639.734 466.807 638.209 450.848 637.067 446.559C636.41 444.104 634.22 442.869 631.691 443.374ZM661.912 446.111C659.824 446.487 658.697 448.704 658.74 450.661C658.805 453.665 662.05 468.577 663.184 471.53C665.569 477.748 673.388 476.498 674.147 471.516C674.595 468.562 670.938 457.355 669.623 454.12C668.308 450.884 666.27 445.338 661.92 446.111H661.912ZM517.692 485.402C519.426 487.626 523.834 488.088 525.692 485.756C528.033 482.824 531.191 473.523 533.07 469.515C534.53 466.403 540.867 458.539 535.65 456.192C530.916 454.055 528.192 458.77 526.089 461.991C523.336 466.208 516.608 477.415 516.608 482.088C516.608 482.976 517.157 484.709 517.692 485.395V485.402ZM734.438 460.944C731.157 461.456 730.782 465.508 731.446 468.114C735.284 473.711 736.635 483.813 740.183 489.034C743.551 493.995 750.156 491.324 750.026 485.279C749.954 481.676 741.867 465.84 739.237 463.067C738.182 461.955 736.006 460.691 734.438 460.936V460.944ZM556.954 472.519C556.267 472.7 554.88 473.761 554.352 474.31C551.505 477.278 544.025 497.05 543.895 501.246C543.679 507.795 551.064 509.579 553.485 505.297C555.465 501.787 557.358 492.443 558.732 488.031C559.7 484.926 563.06 478.159 562.482 475.538C561.904 472.917 559.433 471.862 556.947 472.527L556.954 472.519ZM714.095 481.893C710.446 478.6 705.792 481.134 706.067 486.305C706.233 489.381 711.299 508.496 712.758 510.966C715.078 514.908 720.99 515.356 722.644 511.24C724.552 506.481 719.999 494.674 717.991 489.822C717.326 488.218 715.071 482.774 714.103 481.9L714.095 481.893ZM591.583 486.218C590.933 486.341 589.141 487.272 588.671 487.742C586.164 490.269 582.471 509.398 582.977 513.255C583.952 520.765 593.34 520.404 594.424 513.255L597.184 490.262C596.606 487.677 594.315 485.691 591.583 486.218ZM631.142 487.843C629.248 488.182 627.955 490.24 627.572 492.002C626.278 497.96 625.129 510.113 625.794 516.035C626.271 520.259 628.836 522.765 633.216 522.375C640.818 521.689 637.935 510.72 638.433 505.607C637.125 500.928 639.842 486.269 631.149 487.843H631.142ZM671.249 489.511C668.517 490.118 667.571 493.281 667.556 495.721C667.535 500.437 668.503 508.431 669.269 513.226C670.115 518.541 671.394 523.227 678.158 521.682C682.096 520.779 681.995 516.483 681.836 513.291C681.641 509.341 678.765 495.642 677.009 492.306C675.845 490.096 673.771 488.948 671.249 489.504V489.511Z" fill="#1B9A8F"/>
<path d="M510.386 153.331L513.956 159.91C516.724 157.339 519.441 154.508 520.929 150.963C522.418 147.424 521.927 141.366 527.448 143.142C535.021 145.576 527.195 160.054 524.109 164.026C523.155 165.254 518.256 169.774 518.154 170.193C517.851 171.5 519.751 174.851 519.99 176.389C526.761 170.778 534.826 163.145 539.046 155.339C540.766 152.154 540.203 148.248 544.589 149.035C547.198 149.504 548.846 152.14 548.853 154.689C548.882 161.282 538.634 175.067 534.031 179.963C532.586 181.502 525.229 187.762 524.926 188.456C524.723 188.903 526.53 193.258 527.18 193.402C535.585 187.892 544.047 181.133 550.782 173.645C553.297 170.85 560.112 160.582 562.287 159.332C567.064 156.588 570.215 161.463 568.762 166.351C566.312 174.576 548.809 193.966 542.002 200.017C540.383 201.454 533.15 206.314 532.622 207.152C531.668 208.668 534.891 212.784 534.573 214.828C535.867 215.976 553.94 201.014 556.007 199.187C558.811 196.695 561.94 193.662 564.549 190.99C568.928 186.506 573.893 179.53 578.525 175.84C580.245 176.663 580.852 174.8 581.076 174.75C583.157 174.244 582.897 175.667 583.013 175.717C583.15 175.775 584.971 174.974 585.484 176.548C586.062 178.303 585.152 181.704 584.567 183.538C583.432 187.084 580.093 191.561 577.868 194.695C567.931 208.704 555.024 220.287 541.287 230.484C542.407 232.404 542.681 234.751 543.773 236.665C544.004 237.069 543.671 237.676 544.661 237.308C547.01 236.434 553.463 231.632 555.942 229.899C567.172 222.042 577.709 212.784 587.602 203.324C590.398 200.652 598.326 191.2 601.029 190.384C605.596 189.005 608.075 191.51 606.73 196.081C605.697 199.591 596.158 211.564 593.34 215.095C583.302 227.675 571.306 238.774 558.038 247.916C555.725 249.512 553.16 251.259 550.508 252.212L552.719 258.762L553.955 258.69C566.428 251.642 578.72 243.655 590.008 234.838C599.547 227.378 608.219 219.06 616.79 210.524C622.13 208.256 625.303 212.329 623.879 217.615C622.166 223.984 607.142 239.026 601.896 243.973C589.271 255.866 575.374 266.619 560.639 275.797C559.418 277.718 562.858 280.715 562.591 282.946C587.58 270.475 610.055 253.079 629.971 233.589C637.472 230.967 640.385 237.142 637.212 243.569C631.59 254.964 612.035 271.941 601.86 280.18C591.988 288.174 581.38 295.273 570.887 302.422L574.934 310.337C582.348 305.903 589.929 301.7 597.047 296.789C600.74 294.24 615.807 281.668 618.488 281.401C622.875 280.96 625.382 285.582 623.828 289.503C613.025 305.571 598.868 317.847 583.042 328.78L586.8 336.716C587.84 337.452 597.155 331.502 598.788 330.376C605.054 326.057 610.582 320.461 616.443 315.623C621.921 313.832 625.397 317.854 623.995 323.169C623.669 324.404 618.076 332.506 616.884 334.181C611.052 342.363 604.288 349.303 596.151 355.202L600.776 364.749L620.063 348.342C624.732 346.421 629.27 349.967 628.497 355.116C627.948 358.755 617.245 372.866 614.253 376.036C612.533 377.856 610.474 379.192 608.797 381.04C611.428 385.806 613.82 390.738 616.436 395.512C619.507 401.115 626.726 410.431 625.743 416.619C624.66 423.436 612.714 426.852 606.81 427.35C587.537 428.982 586.496 418.901 579.067 404.842L580.158 402.097C576.993 403.39 578.431 402.386 577.954 400.855C577.795 400.343 576.87 400.458 576.856 400.133C576.805 399.252 577.911 397.367 577.405 396.06L576.039 397.707C575.056 397.317 575.931 396.27 575.468 396.032C573.763 395.151 569.962 394.262 569.347 396.66L562.02 396.068C563.133 397.707 561.767 396.869 560.921 397.714C558.457 397.729 552.126 398.198 550.284 397.729C549.669 397.57 550.168 396.609 549.655 396.609L548.838 397.707C549.351 395.829 546.41 396.595 546.634 398.263C546.273 398.241 545.897 398.285 545.536 398.263C541.048 398.017 536.199 397.411 531.545 397.144C529.876 397.05 527.18 396.797 525.75 397.714C518.776 396.869 511.6 395.649 504.872 393.591C501.895 392.681 496.186 390.897 494.43 388.377C495.376 388.009 494.119 386.774 494.112 385.907C494.047 378.426 505.103 382.427 509.063 382.802C512.59 383.142 516.955 383.409 520.496 383.452C523.437 383.481 528.452 383.907 530.7 382.333C542.811 382.131 554.049 381.127 565.871 378.484C566.334 378.014 562.764 369.58 561.651 369.219C535.404 372.996 507.257 371.97 481.559 365.269C477.801 364.287 470.849 362.871 468.602 359.824C468.587 355.997 467.785 353.455 472.309 352.819C477.115 352.148 485.693 354.09 490.961 354.314C491.777 354.35 492.16 353.787 492.233 353.787C495.817 353.91 499.748 353.765 503.224 354.885C502.957 354.885 499.85 354.509 500.753 355.433C507.712 355.419 514.678 355.433 521.638 355.433C522.057 355.433 524.492 355.665 523.003 354.885C524.637 354.798 527.484 353.946 529.327 353.794C536.264 353.224 546.396 353.152 552.929 351.021C553.485 350.841 553.962 350.855 554.309 350.227C553.247 348.819 551.404 341.533 550.161 341.251C542.638 342.673 535.021 343.078 527.404 343.352C523.502 342.096 518.848 343.136 514.765 342.811C514.628 343.757 515.791 343.287 516.413 343.352H504.605C492.081 342.5 465.538 338.37 455.023 331.935C450.629 329.249 451.323 323.544 455.963 321.934C468.667 324.822 481.711 325.754 494.683 326.895C502.401 326.924 510.111 326.808 517.793 326.324C519.13 326.238 519.593 326.736 518.61 325.227C526.92 324.692 535.281 324.057 543.339 321.927C542.371 319.204 541.742 316.525 541.142 313.694C540.954 312.813 541.048 312.099 539.82 312.077C521.392 314.872 502.278 315.218 483.792 312.525C478.986 311.824 474.361 310.43 469.715 309.549C469.093 309.434 467.807 309.073 467.511 309.853C463.117 308.741 449.813 305.441 446.886 302.725C443.446 299.534 444.928 294.659 449.372 293.612C451.627 293.078 458.839 295.143 461.809 295.504C473.408 296.919 484.934 297.54 496.634 297.223C495.694 298.768 495.976 298.234 497.335 298.176C509.685 297.656 521.818 295.923 534.002 293.93C533.988 293.569 534.024 293.193 534.002 292.832C533.843 290.507 531.856 287.683 531.762 285.185C526.812 285.56 521.919 286.427 516.962 286.788C514.389 285.856 510.668 286.131 507.885 286.239C506.534 286.29 506.093 285.849 507.069 287.337C504.005 287.445 500.045 287.72 497.176 286.788C497.819 286.766 499.481 287.207 499.373 286.246C496.785 286.55 493.497 285.546 491.134 286.788C483.857 286.463 475.156 285.12 468.053 283.495L468.869 282.397C466.008 282.116 463.146 281.394 460.356 280.751C460.183 280.708 459.981 280.794 459.807 280.751C455.876 277.509 445.65 278.195 446.192 271.284C446.59 266.193 453.925 268.901 456.844 269.161C465.899 269.955 474.896 270.894 483.987 270.865C484.638 270.865 485.526 270.323 486.184 270.316C486.755 271.226 488.273 270.865 489.198 270.872C493.599 270.93 497.855 271.031 502.119 270.316C505.689 269.717 506.346 270.475 509.006 270.381C510.003 270.345 509.735 269.334 510.184 269.233C511.282 268.98 512.713 269.377 513.934 269.219C518.053 268.699 522.201 268.179 526.299 267.565C525.547 266.352 525.056 261.86 524.124 261.232C523.35 260.712 518.032 261.506 516.406 261.528C512.243 260.56 507.278 260.921 502.935 260.972C502.003 260.979 500.493 260.618 499.922 261.528C487.116 261.044 462.257 257.896 450.723 252.747C447.898 251.483 445.78 248.811 446.857 245.569C447.276 244.305 451.28 242.016 452.292 242.312C452.566 242.392 452.393 242.919 454.308 243.402C458.803 244.536 464.801 244.247 469.144 244.5C469.325 244.507 469.512 244.493 469.693 244.5C472.866 246.067 476.515 245.316 479.854 245.605C490.202 246.486 507.054 248.219 516.955 246.147C522.122 245.071 518.407 241.121 517.721 237.329C498.686 237.965 478.444 235.611 460.356 229.675C460.125 227.234 455.674 228.238 454.279 226.541C453.072 225.075 452.862 221.768 453.852 220.15C455.406 217.63 464.165 220.518 467.128 219.839C475.258 221.399 483.366 222.504 491.684 222.533C493.967 222.533 496.728 222.027 499.084 221.962C502.834 221.854 506.621 222.092 510.371 221.984C510.256 221.999 509.786 222.511 509.042 222.555C506.7 222.706 504.214 222.461 501.844 222.526C501.374 222.54 499.864 222.302 500.753 223.075C503.506 222.988 506.274 223.183 509.02 223.075C510.075 223.031 511.224 223.638 510.921 221.977C511.441 221.897 512.048 222.049 512.568 221.977L513.385 222.526L513.667 221.977L512.012 214.293C501.244 214.25 490.549 212.243 480.135 209.629C476.573 208.733 462.358 205.108 460.645 202.747C458.528 199.822 460.103 195.186 463.941 195.034C478.379 198.631 493.259 200.421 508.167 200.01L506.469 193.482C497.602 193.453 488.692 191.633 480.41 188.499C476.349 186.961 465.01 183.126 468.573 177.191C471.283 172.677 476.602 176.815 480.128 177.797C483.236 178.664 502.278 182.643 503.774 181.343C503.073 180.072 503.036 175.537 502.588 174.851C502.285 174.381 493.577 172.894 491.712 172.266C487.355 170.785 475.525 165.831 479.023 159.628C481.552 155.151 489.935 161.094 494.003 162.279C496.265 162.943 498.715 163.297 501.027 163.773V155.541C502.263 155.556 509.186 153.945 510.371 153.346L510.386 153.331ZM579.074 398.256C578.301 397.859 577.607 398.602 577.983 398.79C578.756 399.187 579.45 398.443 579.074 398.256Z" fill="#55C3B9"/>
<path d="M643.926 395.504C639.301 387.958 634.957 380.231 630.065 372.837C628.345 369.212 630.766 364.713 634.856 364.72C640.023 364.72 652.142 378.968 655.365 383.25C655.893 383.95 656.493 384.723 656.572 385.626C657.15 386.023 661.761 378.477 661.428 377.235C661.248 376.563 656.37 370.598 655.445 369.443C651.355 364.33 646.448 358.575 642.003 353.773C637.732 349.158 631.135 344.125 627.42 339.633C624.371 335.943 624.067 329.285 629.48 328.072C633.425 327.191 642.553 333.683 645.964 336.088C654.404 342.024 663.669 351 670.592 358.705C671.004 359.16 671.372 359.737 671.401 360.366L675.181 353.996C675.527 353.347 675.882 352.632 675.802 351.873C675.715 350.985 665.497 340.002 663.979 338.391C657.519 331.524 649.664 323.544 642.22 317.847C638.065 314.669 629.198 310.387 626.307 307.39C623.113 304.083 622.774 297.281 627.962 296.32C631.836 295.605 642.206 301.592 645.935 303.7C660.337 311.853 672.911 322.634 684.315 334.542C685.413 334.766 684.987 334.297 685.254 333.849C685.977 332.629 688.463 327.653 688.405 326.563C688.347 325.552 685.197 322.736 684.329 321.905C671.885 310.084 659.701 297.62 646.383 286.788C642.495 283.632 631.641 276.873 629.342 273.616C626.423 269.479 628.403 262.445 633.707 262.633C636.135 262.719 644.049 267.955 646.628 269.522C665.078 280.708 681.15 295.129 697.778 308.741C697.373 306.906 701.818 300.949 701.377 299.945C687.69 289.359 676.192 276.44 663.719 264.532C659.94 260.921 645.942 250.082 644.721 246.175C643.369 241.85 645.689 238.261 650.249 238.405C652.684 238.485 654.672 240.102 656.738 241.301C672.153 250.241 685.5 263.976 699.173 275.234C700.423 276.267 709.203 283.416 709.868 282.932C709.868 281.184 713.662 276.389 712.939 275.241C692.604 262.077 677.32 243.078 660.171 226.346C657.649 221.349 660.626 217.825 666.068 218.814C669.298 219.399 682.516 230.693 685.963 233.524C693.298 239.539 700.105 246.161 707.729 251.859C709.138 252.913 720.231 260.986 720.867 260.416C720.563 258.3 723.75 255.549 722.825 253.83C713.272 247.158 704.267 238.817 696.405 230.216C691.78 225.154 682.891 215.276 679.516 209.751C675.889 203.815 680.355 199.374 686.44 201.736C700.893 214.33 714.522 228.028 730.753 238.449L732.921 231.906C727.436 229.307 722.066 224.266 717.839 219.789C713.134 214.813 700.712 200.01 698.399 194.189C696.138 188.499 701.442 184.831 706.544 188.239C712.267 192.059 719.942 202.458 725.528 207.722C727.002 209.116 739.309 219.825 740.09 219.233C740.01 217.933 742.33 215.507 741.665 214.38C741.585 214.25 740.53 213.932 740.09 213.499C735.407 208.986 730.261 203.808 726.453 198.551C724.567 195.951 718.836 187.611 717.991 185.047C716.155 179.487 719.848 175.457 725.239 178.353C732.14 187.351 738.883 196.45 747.518 203.852C747.844 203.852 750.142 198.811 750.041 198.168C749.961 197.699 748.776 197.54 748.321 197.042C744.794 193.164 737.437 183.849 736.924 178.714C736.556 175.003 739.425 172.381 743.11 173.118C745.322 173.565 747.677 180.606 749.217 182.939C750.756 185.271 752.714 187.127 754.666 189.026L758.235 181.343C760.252 182.534 765.773 184.015 768.129 184.087L767.579 193.417C768.013 193.865 772.696 192.384 773.614 192.038C776.331 191.019 782.163 186.542 783.868 186.441C786.246 186.297 788.551 189.106 788.356 191.359C787.922 196.356 775.847 201.887 771.417 203.028C769.849 203.433 765.18 203.758 764.898 203.931C764.515 204.169 763.402 208.957 763.178 209.896H771.699C773.397 209.896 779.973 208.148 781.982 207.542C785.176 206.581 790.986 203.079 793.667 203.267C798.603 203.613 800.33 209.997 795.785 213.095C789.461 217.399 776.013 221.305 768.389 221.963C766.712 222.107 760.057 221.638 759.406 222.049C759.016 222.295 758.315 226.122 757.679 226.909L760.974 227.465C760.707 227.465 757.6 227.09 758.503 228.014H774.994L774.712 227.465C783.051 226.916 791.586 223.977 799.774 223.132C808.193 222.266 809.876 229.87 804.045 232.888C795.546 237.286 778.838 239.879 769.22 240.644C767.182 239.698 764.038 240.001 761.791 240.095C760.44 240.153 759.999 239.705 760.974 241.193C759.103 241.186 754.283 240.211 753.256 240.897C752.996 241.07 751.305 245.749 751.139 246.472C750.879 247.598 751.247 247.093 751.919 247.215C765.491 249.634 783.218 249.577 796.89 247.706C801.017 247.143 808.366 243.706 810.91 247.584C814.111 252.472 809.291 255.845 804.941 257.123C804.673 255.996 803.17 257.007 802.744 257.672C802.57 257.708 802.375 257.643 802.195 257.672C801.053 257.874 799.673 257.448 798.899 258.769C798.719 258.791 798.524 258.741 798.35 258.769C795.546 259.253 792.034 259.665 789.555 260.965C789.375 260.986 789.187 260.943 789.006 260.965C782.892 261.737 776.743 262.142 770.564 262.575C769.545 262.647 768.512 262.445 768.121 263.709C760.599 263.86 753.199 263.211 745.835 261.687C744.996 261.824 742.554 268.648 742.843 269.746C743.009 270.367 743.804 270.562 744.346 270.706C753.95 273.161 764.877 273.039 774.712 273.046C776.352 273.046 778.015 273.082 779.655 273.046C787.279 272.894 794.824 272.526 802.455 271.941C805.114 271.739 812.131 269.45 813.613 272.331C817.334 279.545 805.989 280.903 801.335 282.369L801.631 282.932C801.154 283.069 800.67 283.3 799.983 283.481C799.427 282.405 798.155 283.112 797.353 283.322C781.071 287.46 763.981 288.16 747.583 286.745C745.517 286.564 737.726 284.961 736.556 285.221C735.53 285.452 732.531 294.37 733.55 294.955C739.772 295.937 745.907 296.775 752.172 297.208C752.353 297.223 752.541 297.194 752.722 297.208C772.277 300.848 792.265 298.573 812.073 298.306C812.247 298.349 812.464 298.248 812.623 298.306C817.811 307.13 809.103 306.979 802.925 308.668C801.783 308.979 801.118 308.206 802.18 309.838C801.645 309.896 801.046 309.759 800.533 309.838C785.277 312.178 768.158 313.774 752.411 313.131C744.136 312.792 735.978 311.102 727.761 310.445C727.436 310.495 727.537 310.77 727.443 310.936C727.371 311.066 727.508 311.311 727.443 311.485C726.084 311.203 726.28 312.12 725.94 312.972C725.535 313.983 723.288 320.338 723.613 320.793C736.946 323.725 750.604 324.887 764.262 325.212C764.443 325.212 764.631 325.212 764.812 325.212C767.037 326.13 771.265 326.137 773.606 325.212C774.156 325.212 774.705 325.212 775.254 325.212C778.94 326.252 783.651 325.971 787.344 325.212C790.82 325.371 791.109 324.498 792.67 324.129C794.144 323.783 796.37 324.317 798.054 324.108C802.007 323.624 809.183 321.176 809.913 327.675C810.599 333.791 803.575 335.257 798.885 336.203C798.307 335.062 796.666 335.922 796.139 336.752C795.965 336.788 795.763 336.716 795.59 336.752C778.918 340.016 762.297 341.287 745.314 340.587C742.409 340.471 738.738 338.89 735.689 340.594C732.863 340.334 719.096 338.088 717.918 338.478C716.632 338.904 714.76 345.75 714.211 347.396C714.356 348.27 716.914 348.118 717.55 348.284C717.058 350.133 719.559 349.339 720.845 349.382C721.026 349.382 721.214 349.375 721.394 349.382C729.134 351.483 737.119 351.801 745.025 352.126C745.206 352.133 745.394 352.119 745.574 352.126L749.968 353.224C761.617 353.881 774.134 354.242 785.985 353.773C787.048 353.729 788.19 354.336 787.886 352.675C789.881 352.48 792.294 353.173 793.935 351.577C794.542 351.657 794.737 352.011 795.033 352.126L797.23 353.773C800.027 357.419 798.776 360.496 795.033 362.561L763.157 368.049C762.058 368.085 760.96 368.02 759.861 368.049C750.481 368.273 740.444 368.439 730.984 368.071C723.7 367.789 716.105 366.164 709.044 365.832C708.04 365.782 707.006 365.839 706.009 365.876C705.886 366.215 706.081 366.692 706.002 366.951C705.525 368.468 702.678 375.27 702.707 375.74C702.757 376.686 705.084 377.213 705.922 377.292C707.158 377.408 707.563 376.83 707.65 376.845C708.011 376.881 708.387 376.809 708.748 376.845C708.379 378.325 710.41 378.274 711.284 378.419C716.871 379.329 723.425 379.892 729.076 380.145C737.502 380.513 747.287 380.434 755.75 380.166C760.223 380.029 768.389 377.805 772.139 380.217C776.916 383.286 774.315 389.236 769.733 390.854C761.495 393.757 747.829 394.804 738.962 395.526L704.072 394.421L704.889 395.526C701.427 395.273 698.009 394.472 694.533 394.515C693.933 394.891 690.797 403.405 690.053 404.856C689.995 404.972 689.395 405.246 689.106 405.809C680.962 421.891 678.245 435.828 656.399 431.625C647.604 429.936 636.237 425.119 640.334 414.2C641.469 411.182 647.64 403.997 647.756 401.787C647.857 399.859 644.836 397.05 643.897 395.519L643.926 395.504Z" fill="#55C3B9"/>
<path d="M510.386 153.331C509.201 153.931 502.278 155.541 501.042 155.527C500.775 155.527 497.277 154.768 496.742 154.602C484.045 150.725 489.971 132.433 505.168 134.108C515.004 135.192 519.253 148.84 510.386 153.331Z" fill="#1B9A8F"/>
<path d="M541.157 313.68C540.239 313.117 539.191 313.037 538.136 313.088C531.697 313.377 524.485 315.045 517.793 315.319C500.963 316.005 483.771 313.954 467.518 309.831C467.814 309.051 469.108 309.412 469.722 309.528C474.376 310.409 478.994 311.802 483.8 312.503C502.285 315.196 521.399 314.85 539.827 312.055C541.056 312.077 540.962 312.792 541.15 313.673L541.157 313.68Z" fill="#4DB1A5"/>
<path d="M518.624 325.212C519.614 326.722 519.152 326.231 517.808 326.31C510.126 326.787 502.415 326.909 494.697 326.881C481.725 325.74 468.681 324.808 455.977 321.919C458.882 320.916 467.93 323.573 471.709 324.043C487.319 325.985 502.986 326.216 518.624 325.212Z" fill="#4DB1A5"/>
<path d="M516.977 246.132C507.076 248.197 490.224 246.471 479.875 245.59C476.529 245.309 472.887 246.053 469.715 244.486C482.188 245.193 494.892 246.58 507.38 246.154C510.292 246.053 514.064 244.616 516.977 246.132Z" fill="#4DB1A5"/>
<path d="M459.822 280.729C454.944 279.545 442.355 277.212 446.207 269.572C446.294 269.399 448.006 267.673 448.18 267.601C450.955 266.467 463.355 268.872 467.251 269.19C472.172 269.594 477.173 269.58 482.108 269.746C483.163 269.782 484.312 269.182 484.009 270.843C474.911 270.872 465.921 269.926 456.866 269.139C453.946 268.886 446.612 266.171 446.214 271.262C445.679 278.166 455.905 277.48 459.829 280.729H459.822Z" fill="#4DB1A5"/>
<path d="M534.017 292.811C534.038 293.172 534.009 293.547 534.017 293.908C521.826 295.908 509.699 297.634 497.349 298.154C495.991 298.212 495.709 298.746 496.648 297.201C509.237 296.862 521.688 295.28 534.017 292.811Z" fill="#4DB1A5"/>
<path d="M530.714 382.326C528.467 383.9 523.452 383.474 520.51 383.445C516.969 383.409 512.605 383.134 509.078 382.795C505.118 382.412 494.061 378.419 494.126 385.9C494.126 386.767 495.384 388.001 494.444 388.37C492.638 385.777 493.209 382.889 495.868 381.3C499.019 379.423 509.194 382.102 513.378 382.347C518.841 382.665 525.179 382.419 530.714 382.326Z" fill="#4DB1A5"/>
<path d="M560.943 397.7C561.789 396.855 563.147 397.7 562.041 396.053L569.369 396.645C569.983 394.255 573.792 395.136 575.49 396.017C575.945 396.255 575.078 397.31 576.061 397.693L577.427 396.046C577.933 397.353 576.827 399.238 576.878 400.119C576.899 400.444 577.817 400.336 577.976 400.841C578.453 402.372 577.015 403.376 580.18 402.083L579.089 404.827C578.901 404.466 578.186 404.098 577.99 403.73C576.784 401.448 575.851 398.92 574.637 396.638C571.609 397.707 568.495 397.599 565.351 397.693C563.891 397.736 562.417 397.685 560.957 397.693L560.943 397.7Z" fill="#55C3B9"/>
<path d="M460.378 229.66C458.853 229.162 455.428 228.1 454.344 227.176C451.374 224.634 451.764 219.406 455.825 218.243C467.186 219.045 478.408 221.016 489.805 221.421C490.86 221.457 492.009 220.865 491.698 222.518C483.38 222.497 475.272 221.392 467.142 219.825C464.179 220.504 455.421 217.608 453.867 220.135C452.877 221.746 453.087 225.053 454.293 226.526C455.688 228.223 460.14 227.219 460.371 229.66H460.378Z" fill="#4DB1A5"/>
<path d="M545.558 398.248C539.234 399.577 532.174 398.48 525.771 397.7C527.202 396.783 529.898 397.035 531.567 397.129C536.221 397.396 541.07 398.003 545.558 398.248Z" fill="#4DB1A5"/>
<path d="M546.656 398.248C546.432 396.587 549.373 395.815 548.86 397.692L549.677 396.595C550.19 396.595 549.684 397.555 550.305 397.714C552.148 398.183 558.479 397.714 560.943 397.7C562.403 397.692 563.877 397.743 565.337 397.7C564.289 398.797 562.157 398.09 560.639 398.227C559.938 398.292 559.194 398.797 559.013 398.797H550.768C549.641 398.797 547.733 398.306 546.649 398.248H546.656Z" fill="#4DB1A5"/>
<path d="M492.247 353.765C492.175 353.765 491.792 354.329 490.975 354.292C485.707 354.069 477.129 352.126 472.324 352.798C467.807 353.433 468.602 355.975 468.616 359.802C468.385 359.485 467.72 359.607 467.518 358.43C466.499 352.595 472.62 351.426 477.129 352.119L492.247 353.758V353.765Z" fill="#4DB1A5"/>
<path d="M503.239 354.863C509.75 354.769 516.579 355.202 523.025 354.863C524.507 355.643 522.079 355.412 521.659 355.412C514.7 355.419 507.734 355.405 500.775 355.412C499.871 354.488 502.979 354.863 503.246 354.863H503.239Z" fill="#4DB1A5"/>
<path d="M516.427 261.513C511.007 261.578 505.349 261.716 499.944 261.513C500.515 260.604 502.032 260.965 502.957 260.957C507.3 260.914 512.272 260.553 516.427 261.513Z" fill="#4DB1A5"/>
<path d="M502.14 270.294C497.877 271.009 493.62 270.908 489.219 270.85C488.287 270.836 486.777 271.204 486.206 270.294C491.51 270.237 496.836 270.338 502.14 270.294Z" fill="#4DB1A5"/>
<path d="M516.977 286.773C514.809 286.932 512.561 286.665 510.379 286.773L509.83 287.322C508.919 287.358 507.994 287.286 507.083 287.322C506.108 285.835 506.549 286.275 507.9 286.225C510.682 286.116 514.404 285.842 516.977 286.773Z" fill="#4DB1A5"/>
<path d="M527.419 343.331C526.321 343.367 525.222 343.316 524.124 343.331C523.206 343.345 522.288 343.331 521.378 343.331C520.828 343.331 520.279 343.331 519.73 343.331H518.632C517.909 343.309 517.15 343.403 516.435 343.331C515.813 343.266 514.65 343.735 514.787 342.789C518.863 343.114 523.524 342.074 527.426 343.331H527.419Z" fill="#4DB1A5"/>
<path d="M578.525 175.84C579.363 175.168 578.894 174.374 580.982 174.157C586.872 173.544 588.563 179.927 584.567 183.531C585.152 181.696 586.062 178.302 585.484 176.54C584.964 174.973 583.15 175.768 583.013 175.71C582.897 175.659 583.165 174.237 581.076 174.742C580.852 174.8 580.238 176.656 578.525 175.833V175.84Z" fill="#4DB1A5"/>
<path d="M460.378 280.729C463.168 281.372 466.029 282.094 468.891 282.376L468.074 283.473C465.704 282.932 462.452 282.007 460.378 280.729Z" fill="#4DB1A5"/>
<path d="M469.166 244.486C464.823 244.233 458.817 244.522 454.33 243.388L457.278 242.897L469.166 244.486Z" fill="#4DB1A5"/>
<path d="M510.935 221.97C511.239 223.631 510.097 223.024 509.035 223.067C506.289 223.176 503.521 222.988 500.767 223.067C499.879 222.287 501.382 222.526 501.859 222.519C504.236 222.446 506.722 222.692 509.056 222.547C509.793 222.497 510.263 221.984 510.386 221.977C510.567 221.955 510.755 222.006 510.935 221.977V221.97Z" fill="#4DB1A5"/>
<path d="M491.149 286.774C493.512 285.532 496.8 286.535 499.387 286.232C499.503 287.192 497.841 286.752 497.19 286.774C495.217 286.846 493.114 286.86 491.142 286.774H491.149Z" fill="#4DB1A5"/>
<path d="M524.124 343.331C523.762 344.197 521.739 344.197 521.377 343.331C522.295 343.331 523.213 343.345 524.124 343.331Z" fill="#55C3B9"/>
<path d="M513.681 221.97L513.399 222.518L512.583 221.97C512.93 221.919 513.327 222.006 513.681 221.97Z" fill="#4DB1A5"/>
<path d="M519.723 343.331C519.622 343.331 519.47 343.706 519.282 343.706C518.834 343.706 518.668 343.338 518.624 343.331H519.723Z" fill="#55C3B9"/>
<path d="M509.837 287.322L510.386 286.773C510.35 286.773 510.234 287.308 509.837 287.322Z" fill="#55C3B9"/>
<path d="M631.142 487.843C639.835 486.276 637.111 500.935 638.426 505.607C637.928 510.713 640.811 521.689 633.209 522.375C628.829 522.772 626.264 520.267 625.787 516.035C625.122 510.113 626.271 497.96 627.565 492.002C627.948 490.24 629.241 488.182 631.135 487.843H631.142Z" fill="#5CC4BC"/>
<path d="M556.954 472.519C559.44 471.855 561.911 472.902 562.489 475.531C563.067 478.159 559.707 484.918 558.739 488.023C557.358 492.436 555.472 501.787 553.492 505.289C551.071 509.572 543.686 507.788 543.903 501.238C544.04 497.043 551.512 477.271 554.359 474.303C554.887 473.754 556.274 472.693 556.961 472.512L556.954 472.519Z" fill="#5CC4BC"/>
<path d="M671.249 489.511C673.764 488.955 675.838 490.103 677.009 492.313C678.765 495.642 681.641 509.341 681.836 513.298C681.995 516.49 682.096 520.786 678.158 521.689C671.394 523.234 670.115 518.541 669.269 513.233C668.503 508.438 667.542 500.444 667.556 495.729C667.564 493.281 668.51 490.118 671.249 489.518V489.511Z" fill="#5CC4BC"/>
<path d="M591.584 486.218C594.315 485.691 596.606 487.677 597.184 490.262L594.424 513.255C593.34 520.396 583.952 520.765 582.977 513.255C582.478 509.398 586.164 490.276 588.671 487.742C589.134 487.272 590.926 486.348 591.584 486.218Z" fill="#5CC4BC"/>
<path d="M517.692 485.402C517.157 484.709 516.608 482.983 516.608 482.095C516.608 477.423 523.336 466.215 526.089 461.998C528.192 458.77 530.924 454.062 535.65 456.199C540.86 458.553 534.53 466.41 533.07 469.523C531.191 473.53 528.033 482.831 525.692 485.763C523.834 488.088 519.419 487.633 517.692 485.409V485.402Z" fill="#5CC4BC"/>
<path d="M567.96 421.978C570.186 421.833 572.44 424.281 572.318 426.448C572.13 429.842 562.685 435.062 559.837 437.511C557.351 439.648 551.628 446.978 548.687 446.97C544.705 446.963 541.894 442.71 543.635 438.89C545.825 434.08 562.786 422.324 567.967 421.985L567.96 421.978Z" fill="#5CC4BC"/>
<path d="M631.691 443.374C634.228 442.869 636.417 444.104 637.068 446.559C638.217 450.848 639.741 466.807 638.715 470.75C637.414 475.769 630.173 476.058 627.875 471.667C625.787 467.688 627.059 453.426 628.15 448.66C628.641 446.508 629.082 443.894 631.691 443.374Z" fill="#5CC4BC"/>
<path d="M605.321 441.728C608.342 441.23 610.777 444.371 609.722 447.274L602.091 470.945C598.377 475.271 592.277 471.978 592.321 466.685C592.35 462.771 599.793 445.541 602.756 443.049C603.291 442.602 604.678 441.836 605.328 441.728H605.321Z" fill="#5CC4BC"/>
<path d="M583.887 434.044C586.453 433.553 589.119 435.308 589.011 438.038C588.888 441.266 583.793 444.97 581.842 447.404C579.255 450.639 575.425 457.348 572.766 459.752C568.574 463.543 562.634 460.453 563.928 454.77C564.853 450.711 579.869 434.817 583.887 434.044Z" fill="#5CC4BC"/>
<path d="M661.912 446.111C666.263 445.339 668.315 450.935 669.616 454.12C670.917 457.304 674.588 468.562 674.14 471.516C673.381 476.498 665.562 477.748 663.177 471.53C662.043 468.577 658.798 453.665 658.733 450.661C658.689 448.711 659.817 446.487 661.905 446.111H661.912Z" fill="#5CC4BC"/>
<path d="M579.074 398.256C579.45 398.443 578.749 399.187 577.983 398.79C577.607 398.602 578.308 397.858 579.074 398.256Z" fill="#55C3B9"/>
</g>
<g clip-path="url(#clip2_527_28724)">
<path d="M664.105 308.217C663.253 308.364 663.401 309.451 663.297 310.058C662.863 312.652 662.449 315.285 662.266 317.909C662.21 318.741 661.451 319.095 662.854 318.711C662.411 322.628 661.558 326.738 661.12 330.72C659.385 331.847 660.203 333.915 660.085 335.222C659.694 339.536 659.459 344.451 658.952 349.166C658.873 349.914 658.147 350.539 659.362 350.685C659.192 356.153 658.601 358.489 662.678 362.628C665.341 365.335 667.28 365.357 670.874 366.495C671.162 366.587 672.797 367.285 671.945 366.418C672.473 366.592 673.198 366.804 673.845 367.023C674.772 367.338 675.759 368.02 676.239 368.166C676.348 368.201 676.945 366.825 677.385 367.733C677.454 367.875 676.917 369.917 678.679 370.238C679.862 367.222 679.618 368.286 681.418 368.967C681.587 369.033 681.705 368.405 682.077 368.41C684.731 368.437 688.217 369.06 690.833 369.348C691.857 369.458 693.274 369.13 694.352 369.448C695.152 369.684 695.996 371.113 696.48 370.887C696.556 370.848 696.728 369.869 697.285 369.635C697.842 369.4 698.271 370.919 699.114 369.209C699.244 369.238 699.363 369.301 699.494 369.33C701.772 369.821 702.394 370.635 704.573 370.086C705.091 369.953 708.069 370.236 708.1 371.235L708.584 369.715C709.213 369.713 708.399 371.292 709.489 370.834C709.679 370.756 709.135 370.094 709.541 370.014C710.313 369.861 711.575 370.18 712.439 370.094C712.993 371.38 711.064 371.045 710.953 372.131C712.591 371.747 713.113 371.761 713.134 369.903C715.076 371.27 714.887 370.272 715.415 370.205C719 369.781 718.034 371.56 718.265 371.532C718.898 371.454 719.05 370.501 719.385 370.323C719.721 370.144 723.35 369.741 721.869 371.424L722.237 371.542C722.376 370.21 723.584 371.394 723.99 371.213C724.218 371.114 724.146 370.127 724.578 370.164C725.489 370.251 726.335 370.958 727.096 371.416L727.398 369.832C736.504 370.108 745.581 370.394 754.671 370.982C755.612 373.064 755.96 371.653 756.479 371.596C757.517 371.483 765.121 372.074 765.704 372.374C766.052 372.554 765.501 373.33 765.867 373.294C771.603 371.97 779.592 374.776 784.916 377.271L784.674 378.031C786.772 377.735 788.339 380.537 789.272 382.007L788.838 382.078C788.762 382.314 789.139 382.364 789.151 382.387C789.026 383.158 788.499 384.037 788.728 384.909C788.913 385.602 790.043 385.936 790.085 386.045C790.14 386.189 788.519 388.032 788.235 388.607C787.661 389.749 788.107 390.937 788.057 391.055C787.916 391.397 786.886 391.208 786.767 391.303C786.529 391.493 787.556 392.626 785.687 392.601L784.812 392.107C786.219 393.5 785.929 394.708 783.879 393.699C783.928 394.184 783.987 395.49 783.656 395.714C782.69 396.358 783.3 394.523 782.762 394.599L781.028 397.394C769.354 404.302 754.122 407.413 740.96 410.511C719.409 415.584 694.375 419.268 674.102 428.027C672.934 428.53 668.538 431.263 668.027 431.335C667.767 431.373 667.042 430.882 666.893 430.974C666.385 431.294 664.561 436.838 664.328 437.848C664.211 438.356 663.635 440.341 664.742 440.332C663.786 448.328 666.511 459.595 668.11 467.65C672.237 488.469 678.625 508.721 683.184 529.418C685.309 539.067 690.197 559.748 685.326 568.367C682.347 573.638 675.655 573.028 670.837 570.738C656.979 564.16 638.091 525.589 629.921 511.528C621.431 496.921 611.366 477.425 600.851 464.615C600.263 463.895 597.061 461.105 597.119 460.667C597.128 460.638 597.763 460.733 597.618 460.414C597.004 459.058 589.427 457.386 587.75 457.593C586.871 457.706 586.042 458.317 585.225 458.552C563.465 464.776 539.407 481.059 518.334 491.059C507.696 496.109 482.347 508.444 471.152 506.703C453.124 503.901 458.698 490.466 467.542 480.659C489.231 456.608 518.762 437.914 541.201 414.235C542.996 412.341 546.225 407.619 548.064 406.923C549.239 406.48 550.839 402.253 551.208 400.995C551.424 400.258 552.08 399.592 550.867 399.44C550.93 399.181 551.045 398.939 551.109 398.68C551.134 398.6 551.879 397.956 551.583 397.151C551.413 397.167 551.13 397.438 551.092 397.42C550.796 397.275 549.171 392.464 548.428 391.333C544.798 385.77 534.391 377.02 529.164 372.07C514.976 358.628 498.722 345.505 485.875 330.917C480.391 324.687 472.68 316.112 474.294 307.204C475.617 305.501 476.17 303.883 477.89 302.484C478.053 302.39 478.22 302.304 478.391 302.225C479.839 302.04 481.289 301.849 482.747 301.711C483.388 301.649 484.071 302.291 484.183 301.141C484.31 301.143 484.433 301.253 484.563 301.262L485.837 302.499C486.027 301.526 488.332 301.892 489.364 301.955C491.506 302.079 493.669 302.395 495.691 303.134L494.879 303.712C499.414 305.499 503.907 307.299 508.516 308.894C508.767 308.98 509.022 309.055 509.275 309.136L509.655 309.257C509.782 309.297 509.909 309.338 510.035 309.378C511.164 310.213 513.226 311.206 514.558 311.662C515.537 311.993 515.93 311.675 515.999 311.697C516.125 311.737 516.254 311.772 516.379 311.818C515.695 313.166 518.143 312.988 518.921 313.471C519.699 313.954 518.822 313.681 520.766 314.465C522.053 314.983 523.579 316.464 525.139 315.864C544.039 324.847 561.738 337.556 581.592 344.339C593.756 348.493 597.145 344.78 603.234 334.545C606.592 328.9 609.605 322.41 612.474 316.47L613.754 317.708C613.095 316.712 614.162 313.52 615.34 314.022L615.458 313.654C614.371 313.542 614.877 312.391 615.221 311.67C615.565 310.949 616.029 311.344 616.166 311.153C616.505 310.684 617.646 306.546 618.156 305.681C618.556 305.003 619.372 305.288 619.481 305.025C619.731 304.439 619.681 302.946 620.017 301.892C620.675 299.826 622.392 298.198 621.914 296.017C621.966 295.894 621.983 295.76 622.035 295.637L623.492 295.682C622.62 293.762 624.298 292.832 624.761 291.699C625.823 289.14 626.551 287.216 627.89 284.643C628.039 284.355 627.888 283.736 627.931 283.718C628.137 283.631 629.166 284.181 629.583 283.61C629.47 282.87 629.845 282.07 628.924 281.916C628.946 281.169 629.709 282.02 629.863 281.594C629.957 281.339 628.772 281.456 629.643 279.641C630.316 278.245 630.078 278.372 630.369 277.361C630.444 277.106 630.555 276.856 630.611 276.601C632.144 277.381 631.511 275.208 631.717 274.443C631.752 274.314 631.798 274.19 631.838 274.063C633.032 274.595 632.378 273.981 632.649 273.37C633.871 270.589 635.387 267.959 636.633 265.204C636.896 264.616 637.573 263.766 636.991 263.144C640.653 256.048 646.742 244.223 655.401 242.537C665.151 240.634 666.461 253.257 666.773 259.983C667.476 275.108 665.799 293.107 664.092 308.219L664.105 308.217ZM651.167 265.657C646.631 265.067 645.066 274.219 651.029 274.648C654.877 274.93 657.641 269.558 654.651 266.881C654.41 266.664 651.569 265.709 651.167 265.657ZM648.406 288.713C646.444 287.207 643.986 286.861 642.192 288.851C639.631 291.694 640.901 293.341 642.757 295.974C643.499 296.35 647.474 296.076 648.046 295.694C648.207 295.587 649.833 292.452 649.861 292.246C649.91 291.932 649.554 290.341 649.403 290.001C649.369 289.927 648.465 288.764 648.406 288.713ZM644.044 310.322C642.943 307.371 638.537 306.252 636.011 308.25C635.503 308.653 635.455 309.221 635.155 309.544C634.884 309.838 634.406 309.666 634.27 309.896C631.661 314.181 636.578 319.724 641.2 317.677C643.673 316.582 644.97 312.81 644.039 310.32L644.044 310.322ZM621.175 301.659L621.054 302.039C621.342 301.991 621.382 301.865 621.175 301.659ZM629.498 330.365C628.992 330.838 629.297 331.772 629.058 332.381C628.844 332.934 627.983 333.446 628.039 334.009C628.092 334.539 629.345 336.435 629.816 336.889C635.283 342.1 641.331 330.42 632.113 329.619C631.551 329.573 629.815 330.066 629.498 330.365ZM751.67 393.493C752.571 391.403 754.708 390.289 753.963 387.712C752.396 382.261 743.24 385.247 745.756 391C746.757 393.291 749.989 392.78 751.67 393.493ZM622.979 350.924C621.666 351.8 620.365 354.651 620.559 356.291C621.223 361.988 629.617 362.728 631.231 357.066C632.475 352.682 626.63 348.499 622.985 350.926L622.979 350.924ZM732.949 390.16C732.733 389.825 730.634 388.034 730.248 387.892C726.85 386.695 724.607 389.715 724.551 392.817C724.506 395.326 728.92 396.815 730.839 395.848C732.251 395.137 733.956 391.698 732.957 390.156L732.949 390.16ZM508.116 323.065C507.252 322.631 507.375 321.548 506.917 320.996C504.55 318.118 499.963 319.218 499.066 322.832C498.986 323.142 499.272 325.884 499.372 326.011C499.527 326.2 502.311 327.512 502.738 327.584C503.117 327.648 505.456 327.094 505.819 326.911C507.65 325.998 507.105 324.506 508.112 323.076L508.116 323.065ZM645.952 366.506C645.752 366.594 645.498 365.442 644.566 365.284C643.759 365.148 641.276 365.758 640.648 366.376C639.301 367.697 638.889 371.338 640.156 372.617C640.309 372.773 642.743 373.891 642.93 373.919C643.394 373.997 643.18 372.978 643.769 373.356L643.719 374.171C644.373 373.631 646.317 373.121 646.759 372.609C647.282 372.002 646.919 371.551 647.025 371.217C647.099 370.986 647.793 371.354 647.866 371.085C648.247 369.71 646.764 367.221 646.574 365.867C645.952 365.491 646.123 366.427 645.952 366.506ZM709.083 390.101C708.766 389.702 706.045 388.151 705.55 388.094C703.319 387.853 701.108 391.029 700.801 392.928C700.773 393.097 702.201 395.86 702.313 395.984C702.715 396.436 705.613 396.592 706.385 396.477C709.101 396.074 710.717 392.176 709.084 390.096L709.083 390.101ZM524.882 341.19C526.245 340.495 527.625 338.272 527.484 336.724C527.263 334.295 522.009 332.158 520.505 333.334C520.32 333.478 518.476 336.581 518.41 336.946C518.215 338.076 519.641 339.152 519.484 340.402C521.54 340.556 522.802 342.245 524.882 341.19ZM604.181 361.763C596.846 356.345 593.957 368.778 600.812 369.193C603.722 369.372 605.541 366.768 605.623 364.005C605.664 362.68 604.69 362.674 604.289 362.261C604.202 362.176 604.275 361.825 604.183 361.758L604.181 361.763ZM685.645 390.465L682.09 388.489L682.053 389.301C680.932 387.568 676.524 390.754 676.373 391.866C676.313 392.291 677.148 392.158 677.037 392.528C676.94 392.852 675.87 391.852 675.894 394.066C675.912 395.759 676.722 396.442 677.631 397.549C677.813 397.772 677.709 398.221 677.802 398.307C679.033 399.397 681.764 399.76 683.316 399.329C683.504 399.275 686.342 397.275 686.439 397.109C687.468 395.351 687.698 391.385 685.021 391.09L685.647 390.459L685.645 390.465ZM545.113 349.696C544.983 349.268 545.126 348.718 544.94 348.367C544.621 347.777 541.921 346.2 541.302 346.174C541.019 346.166 540.875 346.678 540.785 346.682C540.491 346.689 540.2 346.229 539.765 346.281C537.112 346.589 535.59 350.568 537.502 352.826C539.301 354.94 542.613 355.551 543.938 352.847L544.569 353.473C545.523 351.634 545.663 351.533 545.118 349.698L545.113 349.696ZM623.839 375.071C622.874 372.608 617.866 371.133 616.349 374.061C615.327 376.037 614.699 379.121 617.076 380.316C619.454 381.511 620.705 381.745 622.572 379.962C623.703 378.883 624.407 376.514 623.839 375.071ZM564.564 359.971C563.388 357.453 558.54 356.13 556.325 358.088C553.139 360.903 554.063 364.989 557.72 366.845C559.549 367.77 559.488 367.028 560.072 366.966C561.198 366.856 562.197 366.845 563.194 365.843C564.386 364.651 565.306 361.545 564.57 359.973L564.564 359.971ZM655.06 390.897C651.971 392.671 651.001 398.024 654.436 399.759C658.947 402.039 663.047 399.998 662.77 394.818C662.593 391.591 657.652 389.408 655.067 390.893L655.06 390.897ZM580.794 378.705C583.542 377.425 584.851 372.839 582.566 370.519C578.998 366.91 574.483 368.901 573.122 373.331C572.529 375.273 575.21 378.34 576.876 378.883C577.709 379.155 580.029 379.057 580.789 378.703L580.794 378.705ZM639.83 397.978C639.787 397.735 640.254 397.345 640.258 396.934C640.314 391.366 632.506 390.717 631.887 396.48C631.428 400.785 637.722 402.626 640.096 399.096C640.779 398.083 639.872 398.206 639.826 397.97L639.83 397.978ZM599.308 389.695C599.254 389.247 600.433 388.811 599.463 386.879C597.773 383.506 592.548 383.369 591.327 387C590.409 389.745 591.802 392.357 594.526 393.2C596.483 393.804 596.888 393.071 597.994 392.168C598.226 391.976 598.624 392.16 598.906 391.831C598.968 391.756 599.83 390.204 599.86 390.112C599.918 389.928 599.317 389.787 599.306 389.701L599.308 389.695ZM615.263 392.832C613.021 392.568 611.117 394.282 610.576 396.38C609.506 400.515 615.343 403.269 617.935 399.872C620.197 396.909 618.98 393.268 615.263 392.832ZM649.423 421.147C650.655 420.125 649.201 415.87 647.399 415.138C647.236 415.073 647.01 415.844 646.753 415.794C645.925 415.645 645.671 414.651 644.082 414.804C641.519 415.046 640.553 416.983 640.577 419.317C640.597 421.283 641.331 420.75 641.549 421.06C641.867 421.517 641.666 422.188 642.189 422.615C642.295 422.699 644.475 423.838 644.604 423.872C644.83 423.938 645.002 423.359 645.353 423.312C649.589 422.715 647.3 422.157 648.37 421.306C648.616 421.111 649.264 421.286 649.421 421.152L649.423 421.147ZM578.698 396.45C578.624 396.402 578.828 395.782 578.658 395.74C577.834 395.56 574.212 395.782 573.609 396.56C571.531 399.24 571.617 402.932 575.132 404.217C575.616 404.39 578.2 404.579 578.517 404.42C578.563 404.397 578.522 403.826 578.843 403.535C579.414 403.019 580.264 402.719 580.626 401.979C581.523 400.16 581.16 398.116 579.764 396.727C579.475 396.438 578.967 396.619 578.699 396.445L578.698 396.45ZM615.62 417.745C617.207 423.171 624.804 421.616 624.1 416.382C623.84 414.454 621.334 412.705 619.582 412.85C619.185 412.882 616.075 414.446 615.974 414.624C615.686 415.128 615.231 416.555 615.174 417.133C615.144 417.447 615.568 417.589 615.62 417.745ZM600.315 408.208C597.706 406.045 594.56 406.685 593.214 409.857C590.507 416.242 601.462 418.198 601.453 410.942C601.45 410.573 600.425 408.3 600.309 408.206L600.315 408.208ZM628.567 435.198C622.615 434.297 619.878 442.429 625.399 444.943C633.135 448.466 636.48 436.394 628.567 435.198ZM581.315 421.829C580.681 420.594 576.412 419.646 574.941 420.242C573.192 420.953 573.277 422.122 572.579 423.256C572.317 423.68 571.38 422.722 571.591 424.786C572.417 432.938 582.448 431.347 581.918 424.533C581.905 424.395 581.37 421.955 581.307 421.833L581.315 421.829ZM605.093 440.495C606.773 439.718 607.736 435.384 606.29 433.832C606.034 433.56 603.066 432.348 602.612 432.28C600.363 431.937 598.163 434.603 598.254 436.725C598.329 438.48 599.615 439.08 600.09 440.277C601.055 439.995 602.156 440.936 602.688 440.978C602.81 440.992 604.977 440.541 605.087 440.493L605.093 440.495ZM641.504 461.544C641.285 460.897 639.534 459.008 638.835 458.696C632.592 455.902 627.887 465.036 634.499 467.885C638.408 469.568 642.774 465.278 641.498 461.542L641.504 461.544ZM558.239 433.436C553.231 432.138 549.739 439.459 554.358 442.573C560.157 446.481 564.834 438.429 561.428 435.111C560.731 434.433 559.16 433.672 558.239 433.436ZM648.825 483.184C645.821 480.769 641.226 482.336 641.315 486.257C641.446 491.936 649.39 491.379 649.88 486.976C649.916 486.683 649.309 486.579 649.333 486.326C649.359 485.986 650.01 485.236 649.843 484.466C649.825 484.384 648.888 483.243 648.823 483.19L648.825 483.184ZM540.175 448.478C539.719 448.041 535.877 447.679 535.054 448.153C530.367 450.844 534.343 458.147 539.533 455.908C540.614 455.441 543.33 451.474 540.952 451.573L541.886 451.249C541.635 450.306 540.863 449.902 540.31 449.269C540.106 449.033 540.24 448.556 540.168 448.482L540.175 448.478ZM651.697 513.115C654.107 514.884 657.861 514.445 659.132 511.533C660.381 508.666 657.051 506.641 654.82 505.962C653.743 505.638 651.442 507.568 651.082 508.556C650.708 509.591 650.792 512.452 651.697 513.115ZM519.873 464.697C515.77 459.382 509.526 465.23 513.016 469.658C516.507 474.087 522.952 468.683 519.873 464.697ZM665.309 536.721C665.606 536.606 667.507 535.196 667.687 534.873C671.342 528.276 660.12 525.366 659.713 532.655C659.576 535.154 663.091 537.574 665.315 536.723L665.309 536.721ZM500.159 476.797C496.004 473.381 491.787 476.229 492.14 481.249L493.129 480.733C492.767 484.892 497.92 484.739 500.031 482.095C502.044 479.579 500.234 479.408 500.159 476.797Z" fill="#2AB4A3"/>
<path d="M629.652 279.65L629.272 279.529C629.324 279.406 629.341 279.272 629.393 279.149L629.652 279.65Z" fill="#2AB4A3"/>
<path d="M621.922 296.032C622.4 298.213 620.689 299.843 620.024 301.907C619.687 302.967 619.739 304.454 619.489 305.04C619.382 305.298 618.566 305.013 618.164 305.696C617.656 306.555 616.513 310.699 616.173 311.168C616.036 311.359 615.556 310.997 615.229 311.685C614.902 312.373 614.379 313.557 615.465 313.669L615.348 314.037C614.17 313.535 613.102 316.727 613.761 317.723L612.482 316.485C615.749 309.733 618.893 302.79 621.926 296.039L621.922 296.032Z" fill="#10A795"/>
<path d="M629.652 279.65L629.393 279.149C629.666 278.532 629.608 277.74 630.378 277.371C630.088 278.381 630.323 278.26 629.652 279.65Z" fill="#10A795"/>
<path d="M629.652 279.65C628.774 281.469 629.965 281.354 629.873 281.604C629.718 282.03 628.956 281.178 628.933 281.926C629.853 282.085 629.477 282.885 629.592 283.619C629.174 284.196 628.144 283.646 627.941 283.727C627.897 283.745 628.047 284.37 627.9 284.653C626.56 287.225 625.833 289.149 624.77 291.708C624.302 292.84 622.631 293.766 623.501 295.692L622.045 295.646C624.459 290.277 626.865 284.894 629.274 279.523L629.654 279.644L629.652 279.65ZM628.753 283.13L628.632 283.51C628.919 283.462 628.96 283.335 628.753 283.13Z" fill="#10A795"/>
<path d="M508.514 308.9C503.909 307.312 499.416 305.513 494.877 303.718L495.689 303.14L508.514 308.9Z" fill="#10A795"/>
<path d="M637.003 263.147C637.586 263.764 636.908 264.62 636.644 265.208C635.399 267.963 633.88 270.598 632.66 273.374C632.389 273.985 633.043 274.599 631.85 274.067C632.789 270.701 635.362 266.328 637.003 263.147Z" fill="#10A795"/>
<path d="M525.138 315.87C523.577 316.47 522.052 314.988 520.765 314.47C518.821 313.686 519.699 313.953 518.919 313.477C518.139 313 515.688 313.17 516.377 311.823C519.398 312.97 522.236 314.489 525.138 315.87Z" fill="#10A795"/>
<path d="M668.015 431.331C665.438 433.807 665.125 436.998 664.728 440.334C663.622 440.343 664.197 438.358 664.315 437.85C664.55 436.834 666.373 431.29 666.879 430.976C667.029 430.884 667.756 431.369 668.013 431.337L668.015 431.331Z" fill="#10A795"/>
<path d="M659.37 350.681C658.147 350.538 658.874 349.908 658.96 349.161C659.472 344.449 659.701 339.531 660.093 335.218C660.211 333.911 659.392 331.843 661.128 330.716C660.405 337.321 659.585 344.034 659.377 350.677L659.37 350.681Z" fill="#10A795"/>
<path d="M662.856 318.705C661.445 319.093 662.205 318.739 662.268 317.903C662.451 315.279 662.863 312.652 663.298 310.052C663.403 309.445 663.255 308.358 664.107 308.211C663.71 311.705 663.254 315.206 662.857 318.7L662.856 318.705Z" fill="#10A795"/>
<path d="M671.947 366.412C672.799 367.28 671.164 366.581 670.876 366.489C667.29 365.347 665.343 365.329 662.679 362.622C665.517 364.484 668.761 365.346 671.941 366.41L671.947 366.412Z" fill="#10A795"/>
<path d="M550.857 399.45C552.07 399.602 551.414 400.268 551.199 401.004C550.835 402.265 549.229 406.489 548.054 406.933C548.262 405.167 549.787 403.903 550.352 402.409C550.734 401.389 550.616 400.445 550.857 399.45Z" fill="#10A795"/>
<path d="M515.997 311.702C515.928 311.68 515.535 311.999 514.556 311.668C513.224 311.212 511.162 310.219 510.033 309.384C510.154 309.422 510.62 309.216 511.061 309.362C512.454 309.825 514.736 310.882 515.997 311.702Z" fill="#10A795"/>
<path d="M585.218 458.556C586.034 458.321 586.863 457.71 587.742 457.597C589.421 457.384 596.998 459.056 597.61 460.418C597.754 460.743 597.113 460.646 597.111 460.671C593.272 458.471 589.542 457.619 585.223 458.557L585.218 458.556Z" fill="#10A795"/>
<path d="M489.368 301.963C488.334 301.906 486.029 301.539 485.841 302.506L484.567 301.27C486.12 301.352 487.634 300.897 489.374 301.964L489.368 301.963Z" fill="#10A795"/>
<path d="M484.182 301.147C484.069 302.297 483.384 301.66 482.745 301.716C481.287 301.854 479.837 302.045 478.389 302.231C480.811 301.138 481.575 301.109 484.182 301.147Z" fill="#10A795"/>
<path d="M477.888 302.49C476.168 303.888 475.615 305.506 474.292 307.209C474.83 304.229 475.368 303.912 477.888 302.49Z" fill="#10A795"/>
<path d="M631.729 274.446C631.523 275.211 632.155 277.385 630.622 276.605C630.801 275.825 630.984 274.894 631.729 274.446Z" fill="#10A795"/>
<path d="M551.099 398.69L551.082 397.429C551.117 397.44 551.398 397.175 551.574 397.161C551.869 397.965 551.125 398.609 551.099 398.69Z" fill="#10A795"/>
<path d="M644.044 310.321C644.97 312.81 643.679 316.584 641.206 317.679C636.584 319.726 631.667 314.183 634.275 309.897C634.417 309.67 634.888 309.845 635.161 309.545C635.46 309.222 635.501 308.658 636.017 308.252C638.545 306.248 642.95 307.367 644.05 310.323L644.044 310.321Z" fill="#98D5CE"/>
<path d="M622.979 350.924C626.625 348.497 632.475 352.682 631.225 357.064C629.617 362.728 621.217 361.986 620.553 356.289C620.365 354.65 621.661 351.798 622.973 350.922L622.979 350.924Z" fill="#98D5CE"/>
<path d="M628.567 435.198C636.48 436.394 633.135 448.466 625.399 444.943C619.878 442.429 622.615 434.297 628.567 435.198Z" fill="#96D5CD"/>
<path d="M655.06 390.896C657.652 389.408 662.591 391.597 662.762 394.822C663.045 400.003 658.941 402.037 654.429 399.763C650.993 398.028 651.963 392.674 655.052 390.9L655.06 390.896Z" fill="#98D5CE"/>
<path d="M580.794 378.705C580.027 379.063 577.707 379.161 576.882 378.885C575.21 378.34 572.529 375.273 573.128 373.333C574.485 368.895 579 366.904 582.571 370.521C584.864 372.837 583.548 377.426 580.8 378.707L580.794 378.705Z" fill="#96D5CD"/>
<path d="M558.239 433.436C559.16 433.672 560.731 434.433 561.428 435.111C564.833 438.434 560.152 446.479 554.358 442.573C549.739 439.459 553.231 432.138 558.239 433.436Z" fill="#98D5CE"/>
<path d="M581.315 421.829C581.377 421.951 581.912 424.391 581.926 424.529C582.456 431.343 572.425 432.934 571.598 424.782C571.387 422.718 572.325 423.676 572.587 423.252C573.282 422.123 573.194 420.948 574.948 420.238C576.413 419.64 580.683 420.588 581.322 421.825L581.315 421.829Z" fill="#98D5CE"/>
<path d="M564.564 359.971C565.306 361.545 564.38 364.649 563.188 365.842C562.189 366.848 561.192 366.854 560.066 366.965C559.484 367.02 559.544 367.768 557.714 366.843C554.057 364.987 553.134 360.901 556.32 358.086C558.535 356.129 563.382 357.451 564.559 359.969L564.564 359.971Z" fill="#98D5CE"/>
<path d="M641.503 461.544C642.78 465.279 638.408 469.568 634.505 467.887C627.893 465.038 632.592 455.902 638.84 458.698C639.534 459.008 641.285 460.897 641.509 461.546L641.503 461.544Z" fill="#98D5CE"/>
<path d="M649.423 421.146C649.26 421.279 648.612 421.104 648.372 421.3C647.296 422.149 649.59 422.709 645.355 423.306C645.002 423.359 644.832 423.932 644.606 423.866C644.473 423.824 642.297 422.693 642.191 422.609C641.668 422.182 641.875 421.512 641.551 421.054C641.333 420.744 640.599 421.277 640.579 419.311C640.555 416.977 641.527 415.042 644.084 414.798C645.673 414.645 645.927 415.639 646.755 415.788C647.013 415.832 647.24 415.061 647.401 415.132C649.203 415.864 650.657 420.119 649.424 421.141L649.423 421.146Z" fill="#94D4CC"/>
<path d="M599.308 389.695C599.317 389.787 599.92 389.922 599.862 390.106C599.832 390.198 598.97 391.75 598.908 391.825C598.626 392.154 598.228 391.97 597.995 392.162C596.888 393.071 596.485 393.799 594.528 393.194C591.804 392.352 590.405 389.737 591.329 386.995C592.55 383.363 597.773 383.506 599.465 386.873C600.435 388.805 599.262 389.243 599.31 389.69L599.308 389.695Z" fill="#94D4CC"/>
<path d="M578.698 396.45C578.958 396.628 579.471 396.45 579.762 396.732C581.158 398.122 581.527 400.167 580.624 401.985C580.264 402.719 579.412 403.025 578.842 403.541C578.515 403.83 578.561 404.402 578.515 404.426C578.204 404.587 575.62 404.398 575.131 404.223C571.613 402.943 571.522 399.249 573.607 396.566C574.212 395.782 577.839 395.562 578.656 395.746C578.834 395.784 578.63 396.403 578.696 396.456L578.698 396.45Z" fill="#96D5CD"/>
<path d="M651.167 265.657C651.569 265.709 654.41 266.664 654.651 266.881C657.633 269.562 654.877 274.929 651.029 274.648C645.068 274.213 646.633 265.062 651.167 265.657Z" fill="#96D5CD"/>
<path d="M648.405 288.713C648.471 288.766 649.371 289.921 649.403 290.001C649.554 290.341 649.904 291.93 649.861 292.246C649.831 292.458 648.206 295.586 648.046 295.694C647.474 296.076 643.499 296.35 642.757 295.974C640.903 293.335 639.631 291.694 642.192 288.851C643.986 286.861 646.444 287.207 648.405 288.713Z" fill="#96D5CD"/>
<path d="M604.181 361.763C604.273 361.831 604.202 362.176 604.287 362.266C604.688 362.679 605.662 362.686 605.621 364.01C605.539 366.774 603.722 369.372 600.81 369.199C593.961 368.785 596.85 356.352 604.179 361.769L604.181 361.763Z" fill="#96D5CD"/>
<path d="M623.839 375.071C624.407 376.514 623.701 378.889 622.572 379.962C620.705 381.745 619.367 381.464 617.076 380.316C614.785 379.168 615.327 376.037 616.349 374.061C617.865 371.132 622.874 372.608 623.839 375.071Z" fill="#98D5CE"/>
<path d="M605.093 440.495C604.981 440.548 602.816 440.994 602.694 440.98C602.162 440.937 601.059 440.002 600.095 440.279C599.621 439.081 598.335 438.481 598.26 436.726C598.169 434.605 600.369 431.939 602.618 432.282C603.072 432.35 606.042 433.556 606.296 433.834C607.742 435.385 606.773 439.718 605.099 440.497L605.093 440.495Z" fill="#96D5CD"/>
<path d="M500.159 476.797C500.234 479.408 502.045 479.573 500.031 482.095C497.92 484.739 492.767 484.892 493.128 480.733L492.14 481.249C491.785 476.234 496.002 473.387 500.159 476.797Z" fill="#96D5CD"/>
<path d="M600.315 408.207C600.43 408.301 601.456 410.575 601.459 410.944C601.468 418.2 590.509 416.237 593.219 409.859C594.566 406.687 597.706 406.045 600.32 408.209L600.315 408.207Z" fill="#94D4CC"/>
<path d="M615.263 392.832C618.98 393.268 620.196 396.915 617.935 399.872C615.345 403.263 609.5 400.513 610.576 396.38C611.117 394.282 613.021 392.568 615.263 392.832Z" fill="#96D5CD"/>
<path d="M540.175 448.478C540.247 448.552 540.114 449.029 540.318 449.265C540.869 449.904 541.64 450.308 541.894 451.245L540.96 451.569C543.343 451.472 540.621 455.437 539.54 455.904C534.348 458.149 530.375 450.84 535.062 448.149C535.885 447.675 539.726 448.037 540.183 448.474L540.175 448.478Z" fill="#94D4CC"/>
<path d="M519.873 464.697C522.95 468.689 516.429 473.992 513.016 469.658C509.604 465.324 515.772 459.376 519.873 464.697Z" fill="#96D5CD"/>
<path d="M545.113 349.696C545.651 351.529 545.519 351.626 544.563 353.471L543.932 352.846C542.607 355.55 539.296 354.938 537.496 352.824C535.577 350.57 537.1 346.585 539.759 346.279C540.194 346.227 540.491 346.689 540.779 346.68C540.863 346.675 541.013 346.165 541.296 346.172C541.917 346.193 544.621 347.777 544.934 348.365C545.126 348.718 544.983 349.268 545.107 349.695L545.113 349.696Z" fill="#94D4CC"/>
<path d="M648.825 483.184C648.89 483.237 649.826 484.378 649.845 484.46C650.012 485.23 649.362 485.974 649.334 486.32C649.317 486.575 649.916 486.683 649.882 486.97C649.384 491.377 641.442 491.928 641.316 486.251C641.228 482.33 645.821 480.769 648.826 483.178L648.825 483.184Z" fill="#96D5CD"/>
<path d="M629.498 330.365C629.815 330.066 631.551 329.573 632.113 329.619C641.331 330.419 635.284 342.094 629.816 336.889C629.344 336.441 628.09 334.545 628.039 334.009C627.983 333.446 628.844 332.934 629.058 332.381C629.299 331.766 629 330.834 629.498 330.365Z" fill="#96D5CD"/>
<path d="M524.882 341.19C522.808 342.247 521.54 340.556 519.484 340.402C519.641 339.152 518.215 338.076 518.41 336.946C518.475 336.581 520.32 333.478 520.505 333.334C522.009 332.158 527.263 334.295 527.484 336.724C527.627 338.266 526.245 340.495 524.882 341.19Z" fill="#94D4CC"/>
<path d="M639.83 397.977C639.876 398.214 640.778 398.089 640.099 399.103C637.727 402.627 631.434 400.787 631.891 396.488C632.504 390.723 640.318 391.373 640.262 396.942C640.258 397.353 639.785 397.741 639.834 397.985L639.83 397.977Z" fill="#96D5CD"/>
<path d="M645.952 366.506C646.123 366.427 645.952 365.491 646.574 365.867C646.764 367.221 648.247 369.71 647.866 371.085C647.793 371.353 647.098 370.986 647.025 371.217C646.921 371.545 647.282 372.002 646.759 372.609C646.324 373.117 644.38 373.627 643.719 374.17L643.769 373.356C643.172 372.982 643.394 373.997 642.93 373.919C642.743 373.891 640.309 372.773 640.156 372.617C638.889 371.338 639.295 367.695 640.648 366.376C641.276 365.758 643.759 365.148 644.566 365.284C645.498 365.442 645.752 366.594 645.952 366.506Z" fill="#96D5CD"/>
<path d="M615.62 417.744C615.575 417.585 615.15 417.449 615.174 417.133C615.231 416.555 615.686 415.128 615.974 414.623C616.074 414.446 619.183 412.888 619.582 412.85C621.334 412.705 623.838 414.46 624.1 416.382C624.806 421.61 617.207 423.171 615.62 417.744Z" fill="#96D5CD"/>
<path d="M508.116 323.065C507.103 324.492 507.646 325.991 505.822 326.899C505.46 327.082 503.121 327.637 502.742 327.573C502.313 327.506 499.531 326.188 499.375 325.999C499.274 325.878 498.989 323.131 499.069 322.82C499.965 319.212 504.551 318.112 506.921 320.985C507.377 321.542 507.254 322.625 508.119 323.053L508.116 323.065Z" fill="#96D5CD"/>
<path d="M621.175 301.659C621.382 301.864 621.342 301.991 621.054 302.039L621.175 301.659Z" fill="#10A795"/>
<path d="M628.753 283.13C628.96 283.335 628.92 283.462 628.632 283.51L628.753 283.13Z" fill="#2AB4A3"/>
</g>
<g clip-path="url(#clip3_527_28724)">
<path d="M113.632 179.054C112.328 178.59 112.641 182.155 113.237 183.003C113.224 183.135 113.249 183.266 113.237 183.398C112.014 182.946 112.19 185.438 112.842 186.16C112.823 186.424 112.861 186.687 112.842 186.951C111.563 186.48 111.832 189.707 112.447 190.504C112.428 190.768 112.459 191.031 112.447 191.295C111.249 191.075 111.688 191.897 111.657 192.657C111.575 194.791 111.387 197.597 112.052 199.587C112.039 200.114 112.058 200.642 112.052 201.169C110.854 200.949 111.293 201.771 111.262 202.531C111.099 206.825 111.506 212.694 111.657 217.182C111.682 217.941 111.256 218.764 112.447 218.544C112.466 218.939 112.428 219.335 112.447 219.73C111.813 220.779 111.951 222.957 112.02 224.3C112.058 224.965 112.447 225.694 112.447 225.851V231.776C112.447 231.908 112.817 232.435 112.854 232.944C112.955 234.306 112.227 237.451 113.632 237.105C114.955 255.353 117.036 284.579 124.484 301.076C125.832 304.057 126.196 303.442 127.337 300.793C131.299 291.629 133.205 272.163 132.553 262.189C132.139 255.774 130.29 249.377 129.4 243.031C130.152 242.353 130.058 241.123 129.005 241.449C128.992 241.186 129.023 240.922 129.005 240.658C129.005 240.608 129.456 240.57 129.431 239.679C129.418 239.252 129.092 236.453 128.992 236.315C128.936 236.233 128.434 236.333 128.215 236.315C128.208 236.051 128.227 235.787 128.215 235.524C128.001 231.243 127.795 226.736 127.418 222.279C127.356 221.526 127.863 220.691 126.635 220.91C126.603 220.389 126.66 219.856 126.635 219.329C127.287 218.921 127.03 217.828 127.036 217.163C127.092 212.719 127.18 208.149 127.03 203.711C127.005 202.952 127.431 202.129 126.24 202.349C126.24 201.953 126.24 201.558 126.24 201.163C126.892 200.755 126.635 199.662 126.641 198.997C126.679 196.103 126.672 193.191 126.641 190.297C126.635 189.631 126.892 188.539 126.24 188.131C126.378 184.993 126.265 183.806 127.82 181.019L128.215 180.228C128.798 179.425 129.036 179.243 129.795 178.646C132.961 177.63 135.368 177.24 138.472 178.646C138.616 178.747 138.729 178.923 138.867 179.042L139.262 179.437C139.381 179.575 139.55 179.688 139.656 179.833L140.841 184.572C140.854 184.968 140.835 185.363 140.841 185.758C140.885 188.583 140.747 191.439 140.841 194.27C140.866 195.03 140.44 195.852 141.631 195.632C141.656 196.423 141.606 197.214 141.631 198.005C140.979 198.413 141.236 199.505 141.23 200.171C141.124 208.808 141.506 218.061 142.434 226.641C142.515 227.388 141.957 228.236 143.211 228.016C143.224 228.148 143.192 228.28 143.211 228.412C142.54 229.108 142.415 231.205 143.606 230.784C143.882 232.724 144.653 239.56 145.537 240.822C145.794 241.186 146.54 241.167 146.904 241.073C147.268 240.978 149.493 235.699 149.819 234.833C157.813 213.78 156.691 190.083 161.086 168.314C161.813 164.711 162.628 159.746 166.847 158.685C173.173 157.091 176.057 161.227 176.734 167.009C173.813 191.602 172.289 216.667 163.725 240.075C158.985 253.037 152.478 262.817 148.998 276.67C141.901 304.924 136.616 335.292 133.738 364.274C132.541 364.054 132.979 364.877 132.948 365.636C132.854 367.921 132.948 370.426 132.948 372.566C132.948 373.225 132.948 373.884 132.948 374.543C132.29 376.144 132.284 379.176 132.948 380.864C132.942 381.392 132.954 381.919 132.948 382.446C131.751 382.227 132.189 383.049 132.158 383.808C131.807 392.622 131.863 402.665 132.158 411.491C132.183 412.25 131.757 413.072 132.948 412.853C132.973 414.428 132.91 416.016 132.948 417.592L132.559 417.787L132.948 417.981C132.973 419.029 132.923 420.09 132.948 421.139C132.296 421.547 132.553 422.639 132.547 423.304C132.515 425.928 132.465 428.602 132.553 431.226C132.578 431.985 132.152 432.808 133.343 432.588C133.456 433.95 133.82 440.73 134.528 441.276C135.067 441.69 135.562 440.717 135.788 440.372C137.801 437.258 139.807 430.096 141.437 426.28C145.092 417.711 155.029 398.258 154.634 389.74C154.164 379.584 151.048 369.327 150.697 358.738V342.147C150.992 329.926 151.976 316.543 153.907 304.484C154.873 298.452 156.145 288.754 164.609 290.499C170.603 291.735 170.246 300.153 170.039 304.842C169.23 323.485 165.28 342.166 166.478 360.903C166.728 364.801 167.487 368.706 168.057 372.56C168.791 372.623 169.217 372.654 169.825 372.158C170.584 371.537 173.092 366.54 173.65 365.322C175.662 360.916 177.625 355.367 179.211 350.747C181.449 344.225 184.277 337.533 183.336 330.603C181.211 315.017 176.327 300.567 175.167 284.284C174.17 270.318 174.07 248.687 176.39 234.965C177.305 229.548 179.807 225.486 185.988 226.459C192.089 227.42 191.48 239.685 191.336 244.205C190.264 243.502 190.596 243.822 190.546 244.789C190.477 246.258 190.264 248.417 190.941 249.729C190.853 250.934 190.628 252.089 190.546 253.282C190.44 254.87 189.756 257.864 189.756 259.402V273.62C189.756 275.729 189.687 278.083 189.756 280.349C189.781 281.108 189.355 281.937 190.546 281.711C190.546 281.974 190.546 282.238 190.546 282.502C190.521 286.136 190.289 288.233 190.935 292.206C191.054 292.947 190.49 293.788 191.731 293.562C192.339 297.874 193.167 302.193 194.891 306.198C195.593 306.731 196.672 304.465 196.866 304.039C200.972 295.156 201.919 279.89 202.772 270.067C202.904 268.573 203.129 266.539 203.556 265.127C203.574 265.566 203.28 266.413 203.944 266.307C203.737 264.712 204.433 262.597 203.556 261.172C203.556 260.645 203.574 260.117 203.556 259.59C204.12 259.038 204.12 254.28 203.951 254.06C203.9 253.997 203.386 254.098 203.161 254.06C201.593 233.609 196.063 213.447 196.603 192.714C196.703 188.853 197.324 183.53 201.505 181.904C210.91 178.264 211.16 192.004 211.838 197.785C213.01 207.841 212.947 219.366 215.261 229.115C216.239 233.245 217.035 232.787 218.446 229.278C222.301 219.686 224.283 208.934 228.007 199.355C230.038 194.12 232.602 189.217 239.154 192.155C244.872 194.716 242.74 201.589 241.624 206.272C237.53 223.471 230.866 238.913 225.242 255.435C218.772 274.436 215.781 294.453 209.48 313.505C204.715 327.917 199.104 343.126 193.7 357.344C179.292 395.233 156.39 428.979 143.888 467.815C141.211 476.126 137.964 487.676 137.669 496.339C137.638 497.324 137.318 499.754 138.66 499.728C139.261 499.716 144.741 495.987 145.7 495.303C152.076 490.765 161.989 483.314 163.913 475.624C167.399 461.733 166.572 445.249 169.744 430.912C170.923 425.589 172.565 420.184 179.255 421.157C184.026 421.854 184.866 428.025 184.609 431.973C183.995 441.313 180.854 451.652 180.665 461.212C180.64 462.574 181.142 463.447 182.565 462.894C187.926 456.039 192.847 450.453 195.662 442.048C196.377 439.92 196.07 440.773 196.057 438.89C196.057 438.627 196.051 438.363 196.057 438.099C197.255 438.319 196.816 437.497 196.847 436.737C197.029 432.519 197.788 428.012 196.847 423.882C196.86 423.618 196.835 423.354 196.847 423.091C198.045 423.31 197.606 422.488 197.637 421.729C197.882 415.521 198.101 408.942 198.038 402.747C198.032 402.081 198.289 400.989 197.637 400.581C198.91 385.315 201.813 367.758 204.853 352.712C205.731 348.361 207.662 336.447 210.847 333.83C215.875 329.706 222.772 334.2 222.113 340.364C219.016 361.217 213.7 381.863 212.233 402.954C211.035 402.734 211.474 403.556 211.443 404.316C211.386 405.804 211.154 407.944 211.838 409.269C211.787 410.963 211.813 412.702 211.838 414.403C211.179 415.59 211.167 418.27 211.838 419.538C211.856 419.795 211.781 420.122 211.838 420.329L212.233 420.724C213.643 421.873 215.273 418.408 215.988 417.178C226.088 399.708 227.743 366.264 231.167 345.687C231.555 343.365 232.151 340.841 232.345 338.381C232.414 337.527 232.627 336.058 231.957 335.418C231.994 334.897 231.925 334.363 231.957 333.836C233.154 334.056 232.715 333.234 232.746 332.474C232.859 329.593 232.784 326.643 232.753 323.761C232.746 323.096 233.004 322.004 232.351 321.596C232.383 320.943 232.32 320.278 232.351 319.618C233.549 319.838 233.11 319.016 233.141 318.256C233.411 311.427 233.781 305.313 234.345 298.502C234.395 297.874 234.533 296.707 233.931 296.318C235.53 282.301 238.452 266.018 242.414 252.478C243.881 247.456 246.044 240.564 252.621 241.041C255.956 241.286 258.834 246.383 258.408 249.528C255.743 263.275 251.875 276.79 249.775 290.656C248.859 296.682 247.467 305.187 248.126 311.132C248.502 314.559 249.536 312.921 250.665 311.289C255.868 303.712 259.53 294.817 264.383 287.109C267.06 282.853 269.768 278.497 275.561 280.895C283.486 284.178 277.787 294.623 275.16 299.877C264.997 320.19 251.724 333.215 245.48 356.258C242.471 367.362 240.245 379.201 239.85 390.701C240.552 391.423 243.599 387.976 244.176 387.336C255.706 374.474 260.658 357.507 268.571 342.649C270.828 338.418 274.633 332.38 280.357 335.336C287.16 338.852 282.69 347.715 280.658 352.781C272.364 373.47 261.147 392.891 245.574 408.886C236.402 418.308 228.496 426.562 220.985 437.578C219.794 439.33 212.96 449.775 214.207 451.131C228.326 446.611 240.627 437.12 251.148 426.901C254.834 423.317 262.922 412.972 266.972 411.346C269.31 410.405 270.953 410.857 272.959 412.256C279.216 416.625 275.21 423.185 271.737 427.962C261.016 442.688 243.699 455.205 227.373 462.926C215.374 468.6 202.176 471.757 191.938 480.37C182.095 488.649 159.819 509.169 154.967 520.368C152.365 526.369 154.333 527.63 159.869 529.432C168.095 532.112 176.647 531.44 184.797 533.694C192.051 535.696 215.85 547.497 221.499 552.243C225.963 555.99 231.493 565.105 225.612 569.775C221.938 572.694 217.135 573.416 212.628 573.956C211.831 573.34 208.609 573.07 209.079 574.351C208.816 574.364 208.552 574.338 208.289 574.351C205.994 573.648 203.035 573.924 200.59 573.949C199.925 573.956 198.835 573.698 198.427 574.351C186.991 573.924 174.459 570.522 163.105 571.175C157.098 571.52 151.381 573.516 145.569 574.746C143.663 573.943 141.042 575.217 139.011 575.487C137.111 575.738 135.042 575.807 133.124 575.933C132.365 575.983 131.544 575.512 131.763 576.724C131.5 576.743 131.237 576.705 130.973 576.724C130.566 576.071 129.475 576.328 128.81 576.322C125.92 576.284 123.011 576.291 120.121 576.322C119.456 576.328 118.365 576.071 117.958 576.724C105.757 575.814 94.0018 571.727 81.8577 571.978C64.4346 572.342 46.8925 576.824 29.4068 574.74C22.5228 573.918 10.0277 570.717 12.4289 561.307C14.084 554.823 24.8112 551.182 30.1152 548.207C43.0305 540.95 51.2686 532.031 66.886 530.122C74.0709 529.243 94.3215 530.361 90.3717 518.051C86.4219 505.742 65.1619 491.273 55.6322 482.535C49.952 477.325 46.4662 472.009 39.2123 468.569C32.0212 465.154 24.2219 462.969 17.1122 459.103C-0.661896 449.423 -18.2354 429.789 -29.8842 413.349C-31.9469 410.442 -37.4327 403.035 -36.9813 399.708C-36.2227 394.109 -31.1632 392.006 -26.2855 394.743C-20.8247 397.806 -10.3044 413.499 -5.30762 419.161C1.46348 426.832 10.2095 435.865 19.0871 440.943C20.4539 441.728 25.9523 444.659 27.1184 444.766C27.5071 444.803 27.9773 444.496 28.0275 444.22C28.1905 443.385 23.388 434.208 22.573 432.714C18.5981 425.369 13.0809 415.866 8.2283 409.156C2.99951 401.918 -5.62109 396.495 -11.8279 389.74C-20.6178 380.168 -30.2792 364.381 -34.6051 352.121C-38.0283 342.43 -28.1726 337.383 -22.1413 345.166C-18.3796 350.019 -16.0975 357.087 -13.0693 362.542C-10.2794 367.563 -6.07877 373.891 -1.95969 377.883C-1.10703 378.711 3.46973 382.785 4.35373 382.019C0.786367 366.308 -3.8092 350.226 -11.3577 335.945C-15.0003 329.047 -19.5833 322.688 -23.0692 315.683C-26.3983 308.998 -33.439 292.514 -33.5205 285.439C-33.5895 279.194 -25.8278 274.687 -21.5081 279.765C-17.9909 283.902 -13.69 299.469 -10.969 305.545C-9.31385 309.249 -7.03174 313.806 -4.88129 317.221C-4.51766 317.804 -2.4926 321.037 -2.30451 321.169C-2.07881 321.326 -1.35154 320.987 -1.16972 320.805C-0.549041 320.177 -0.480076 318.627 -1.16972 318.043V315.281C-0.636815 313.285 -0.536503 309.996 -0.749667 307.93C-0.818632 307.227 -1.16346 306.662 -1.16972 306.593C-1.9158 299.306 -2.46125 291.986 -3.14463 284.68C-3.70889 278.691 -8.27937 262.766 2.04027 262.992C6.69227 263.093 7.84586 266.031 9.08723 269.866C8.34115 270.249 8.83018 271.197 8.9493 271.774C9.6891 275.22 10.2283 278.698 11.0559 282.113C11.0559 282.376 11.0559 282.64 11.0559 282.903C11.0433 283.676 10.6045 285.213 11.4508 286.061C11.4508 286.324 11.4508 286.588 11.4508 286.852C11.4508 288.063 11.0684 290.059 11.8458 291.196C11.8584 291.327 11.8333 291.459 11.8458 291.591L12.2408 291.986C12.2596 292.382 12.222 292.777 12.2408 293.173C11.595 293.568 11.6076 295.169 12.2408 295.546C12.2471 295.941 12.2408 296.337 12.2408 296.732C12.2283 298.232 11.8834 300.442 12.6358 301.867C12.6546 302.262 12.6107 302.658 12.6358 303.053C11.9211 303.681 12.128 303.988 13.0308 303.844C13.0496 304.108 13.0182 304.371 13.0308 304.635C12.3787 305.043 12.6358 306.135 12.6295 306.801C12.4477 321.282 11.1562 339.517 13.7831 353.44C13.9085 354.118 13.6765 354.921 14.6044 355.185C14.6232 355.448 14.5856 355.712 14.6044 355.976C14.6044 356.032 14.2157 356.289 14.222 356.591C14.2345 357.03 14.5104 359.786 14.6044 359.924C14.6546 359.999 15.2188 359.88 15.3944 359.924C17.9461 374.813 21.9586 391.002 27.2187 405.151C27.5196 405.954 28.7861 410.43 29.9836 409.294C30.2281 409.061 30.6983 403.494 30.7735 402.577C31.971 402.797 31.5321 401.974 31.5635 401.215C31.8394 394.229 31.4945 387.204 31.1685 380.243C31.1309 379.483 31.576 378.661 30.3786 378.881C28.9052 361.926 25.714 345.091 24.0463 328.149C24.4225 321.884 32.7798 318.972 36.391 324.088C39.5571 328.563 42.4662 351.569 43.3377 358.21C45.0743 371.486 46.7546 386.69 46.1715 400.035C45.7452 409.827 42.322 423.744 44.4411 432.933C45.7264 438.514 51.4442 448.155 54.8987 452.876C55.5006 453.698 58.441 457.54 58.9488 457.904C59.5381 458.331 60.0648 458.331 60.7482 458.268C59.6008 450.189 58.4159 442.104 57.1369 434.044C55.9896 426.838 52.4473 413.317 53.2498 406.72C53.952 400.97 61.1682 398.604 65.1118 402.765C68.0208 405.835 70.071 418.829 70.8985 423.436C73.3311 437.007 76.096 470.276 84.0395 480.181C88.0457 485.178 97.3183 492.824 102.604 496.747C103.375 497.318 108.365 501.065 108.879 500.532C108.56 491.38 105.224 482.083 102.183 473.471C96.5535 457.54 89.5943 442.067 84.0207 426.091C79.7887 413.945 76.4596 401.472 72.2026 389.345C62.4033 361.462 51.1683 333.937 41.4192 306.028C37.8017 295.671 35.7578 281.108 30.5478 272.283C26.5855 265.566 20.8677 259.013 16.4853 252.397C11.8584 245.41 -0.210487 225.719 -0.411112 217.954C-0.592929 210.993 6.36625 207.389 11.8145 212.449C17.0245 217.289 23.5698 234.557 28.2469 241.807C28.993 242.968 33.2312 250.055 33.181 245.197C33.1434 241.518 32.1967 237.105 31.9647 233.345C31.0933 218.87 29.9083 201.872 30.761 187.522C31.0118 183.317 31.2438 179.619 35.4318 177.586C43.8016 173.512 45.5634 182.093 46.159 188.338C47.3753 201.194 46.5978 215.179 47.3502 228.217C47.6699 233.735 48.5288 239.296 48.9176 244.814C50.0147 260.205 50.1589 283.65 55.6197 297.743C55.9081 298.49 56.9739 301.653 58.0021 300.906C60.3908 293.135 60.3908 284.718 60.7544 276.607C61.9519 276.827 61.513 276.005 61.5444 275.245C61.7325 270.481 61.6008 265.397 61.5507 260.607C61.5444 259.942 61.8014 258.849 61.1494 258.441C61.1494 257.914 61.1494 257.387 61.1494 256.86V233.163C61.2936 227.771 60.9112 217.973 68.0835 217.006C76.1524 215.92 76.7167 225.468 76.9236 231.186V253.696C76.8671 254.889 76.5913 255.949 76.5286 256.853C76.3029 260.193 76.0897 263.469 76.1273 266.928C76.1336 267.594 75.8765 268.686 76.5286 269.094C76.2778 279.991 75.306 290.838 73.701 301.609C72.6227 308.841 70.6603 316.248 69.8703 323.447C68.8233 333.039 71.8891 342.116 74.8421 351.149C76.8483 357.294 78.9173 363.697 82.6414 369.013C83.8012 369.308 84.2965 365.241 84.4094 364.469C86.3529 350.602 85.3623 331.959 84.4094 317.873C84.0019 311.816 81.6821 300.737 83.1053 295.232C84.4031 290.216 91.2745 287.643 95.2682 291.208C98.2838 293.901 99.682 307.34 100.196 311.753C99.0487 312.707 100.196 314.766 100.196 315.507V321.828C100.196 323.648 100.516 326.442 100.591 328.557C100.616 329.317 100.19 330.139 101.381 329.919C101.4 330.836 101.381 331.765 101.381 332.681C100.723 333.736 100.71 336.284 101.381 337.42C101.381 337.684 101.381 337.948 101.381 338.211C100.184 337.992 100.622 338.814 100.591 339.573C100.296 347.043 99.4437 355.122 99.4061 362.303C99.4061 362.567 99.4061 362.83 99.4061 363.094C98.7666 363.508 98.986 364.732 99.0111 365.467C99.0174 365.73 99.0111 365.994 99.0111 366.258C98.2086 367.199 98.5911 368.907 98.6161 369.81C98.6224 370.074 98.6161 370.338 98.6161 370.601C97.9516 371.223 97.9578 373.156 98.6161 373.759C98.6099 374.022 98.6224 374.286 98.6161 374.55C97.4249 374.33 97.8513 375.152 97.8262 375.912C97.5252 384.141 96.0958 394.003 97.4249 402.025C97.5503 402.765 96.9798 403.607 98.2211 403.381C99.5503 413.801 102.353 426.035 105.707 435.971C106.472 438.231 111.513 451.966 113.406 451.953C114.271 451.313 114.234 450.497 114.39 449.593C115.588 449.813 115.149 448.99 115.18 448.231C115.469 440.918 115.425 432.613 115.18 425.288C115.155 424.528 115.581 423.706 114.39 423.926C114.378 421.823 114.397 419.707 114.39 417.605V401.805C114.654 379.866 116.76 357.94 117.168 336.065C117.412 322.989 108.309 304.848 104.422 291.917C99.0111 273.902 98.7603 258.354 96.635 240.081C94.8732 224.953 89.6319 220.107 82.7668 207.76C77.237 197.817 69.5443 180.8 69.8515 169.419C69.9894 164.41 75.2433 161.968 79.7072 163.035C82.5285 163.713 83.9078 167.693 84.8232 170.16C87.5692 177.561 89.3498 185.558 92.6287 192.751C93.5127 194.691 96.2713 200.598 96.9986 195.406C97.9014 188.954 97.5754 181.214 98.2211 174.516C98.66 170.009 99.544 159.131 101.306 155.49C104.133 149.634 113.801 151.9 114.691 156.84C115.726 162.539 114.058 172.953 113.6 179.061L113.632 179.054Z" fill="#6EC8BC"/>
<path d="M14.6234 355.197C13.6955 354.934 13.9275 354.13 13.8021 353.452C11.1752 339.53 12.4667 321.294 12.6485 306.813C12.6548 306.148 12.3977 305.055 13.0497 304.647C13.7394 317.152 12.4416 329.398 13.0309 341.588C13.2504 346.133 14.2786 350.684 14.6234 355.197Z" fill="#59C3B5"/>
<path d="M190.553 281.736C189.361 281.955 189.788 281.133 189.763 280.374C189.694 278.101 189.763 275.747 189.763 273.645V259.427C189.763 257.889 190.446 254.895 190.553 253.307C190.515 262.779 190.603 272.27 190.553 281.742V281.736Z" fill="#59C3B5"/>
<path d="M143.218 228.022C141.964 228.242 142.522 227.388 142.44 226.648C141.512 218.067 141.13 208.814 141.236 200.177C141.243 199.512 140.986 198.419 141.638 198.011C141.951 208.049 142.07 218.073 143.218 228.029V228.022Z" fill="#59C3B5"/>
<path d="M98.6414 374.55C98.284 384.612 96.9486 393.162 98.2464 403.381C97.0051 403.607 97.5756 402.766 97.4502 402.025C96.1211 394.003 97.5442 384.141 97.8514 375.912C97.8765 375.152 97.4502 374.33 98.6414 374.55Z" fill="#59C3B5"/>
<path d="M132.961 382.446C132.929 384.97 132.566 387.776 132.566 390.148V408.314C132.566 409.4 132.942 411.34 132.961 412.859C131.77 413.079 132.196 412.257 132.171 411.497C131.876 402.671 131.82 392.628 132.171 383.815C132.202 383.055 131.763 382.233 132.961 382.453V382.446Z" fill="#59C3B5"/>
<path d="M101.406 338.211C101.268 345.468 100.974 353.201 100.121 360.42C100.046 361.029 99.8952 361.864 99.4375 362.303C99.4688 355.128 100.328 347.043 100.622 339.574C100.654 338.814 100.215 337.992 101.412 338.211H101.406Z" fill="#59C3B5"/>
<path d="M233.944 296.349C234.552 296.738 234.414 297.906 234.358 298.534C233.794 305.344 233.424 311.458 233.154 318.288C233.123 319.047 233.562 319.87 232.364 319.65C232.471 317.277 232.759 314.082 232.759 311.948V306.022C232.759 303.436 233.618 299.161 233.944 296.349Z" fill="#59C3B5"/>
<path d="M197.65 400.612C198.302 401.02 198.045 402.113 198.051 402.778C198.114 408.974 197.894 415.552 197.65 421.76C197.618 422.52 198.057 423.342 196.86 423.122C196.948 420.856 197.255 417.824 197.255 415.816V404.755C197.255 403.964 197.556 401.724 197.65 400.606V400.612Z" fill="#59C3B5"/>
<path d="M30.4038 378.894C31.6013 378.674 31.1624 379.496 31.1938 380.256C31.5135 387.217 31.8646 394.241 31.5887 401.228C31.5574 401.987 31.9963 402.809 30.7988 402.59C30.8803 401.68 31.1938 399.759 31.1938 399.232V388.567C31.1938 385.874 30.6546 381.8 30.4038 378.894Z" fill="#59C3B5"/>
<path d="M114.422 423.913C115.613 423.693 115.187 424.516 115.212 425.275C115.456 432.601 115.5 440.905 115.212 448.218C115.18 448.978 115.619 449.8 114.422 449.58C115.776 441.816 114.472 431.873 114.422 423.907V423.913Z" fill="#59C3B5"/>
<path d="M101.406 329.919C100.215 330.139 100.641 329.317 100.616 328.557C100.547 326.442 100.221 323.648 100.221 321.828V315.507C100.221 314.766 99.074 312.707 100.221 311.753C100.403 313.322 101.011 316.053 101.011 317.478V323.404C101.011 325.174 101.362 327.86 101.406 329.919Z" fill="#59C3B5"/>
<path d="M126.252 202.355C127.444 202.136 127.017 202.958 127.042 203.717C127.193 208.155 127.105 212.725 127.049 217.169C127.042 217.835 127.299 218.927 126.647 219.335C126.346 213.654 126.284 208.042 126.252 202.355Z" fill="#59C3B5"/>
<path d="M113.632 237.105C112.227 237.451 112.955 234.306 112.854 232.944C112.817 232.435 112.447 231.908 112.447 231.776V225.85C112.447 225.694 112.058 224.965 112.02 224.3C111.945 222.957 111.807 220.779 112.447 219.73C112.716 225.499 113.212 231.343 113.632 237.105Z" fill="#59C3B5"/>
<path d="M112.052 201.169C111.952 206.994 112.196 212.737 112.447 218.544C111.256 218.764 111.682 217.941 111.657 217.182C111.506 212.694 111.099 206.824 111.262 202.531C111.293 201.771 110.854 200.949 112.052 201.169Z" fill="#59C3B5"/>
<path d="M126.647 220.917C127.876 220.697 127.368 221.532 127.431 222.285C127.801 226.742 128.014 231.249 128.227 235.53C127.431 230.703 126.948 225.781 126.647 220.917Z" fill="#59C3B5"/>
<path d="M61.1683 256.853C61.2624 248.969 60.9551 241.035 61.1683 233.157V256.853Z" fill="#59C3B5"/>
<path d="M196.866 423.913C197.813 428.043 197.048 432.55 196.866 436.769C196.835 437.528 197.267 438.351 196.076 438.131C196.22 433.41 196.678 428.633 196.866 423.913Z" fill="#59C3B5"/>
<path d="M76.9487 253.696V231.186C77.2058 238.285 77.2747 246.615 76.9487 253.696Z" fill="#59C3B5"/>
<path d="M61.1683 258.435C61.8204 258.843 61.5633 259.935 61.5696 260.601C61.6197 265.39 61.7514 270.475 61.5633 275.239C61.532 275.998 61.9708 276.821 60.7733 276.601C60.8235 275.421 60.7357 274.228 60.7733 273.048L61.1683 272.653C61.3125 267.932 61.1182 263.162 61.1683 258.435Z" fill="#59C3B5"/>
<path d="M11.0747 282.131C10.2471 278.717 9.70792 275.239 8.96812 271.793C8.84273 271.216 8.3537 270.268 9.10605 269.885C10.4728 274.103 11.0183 277.832 11.081 282.125L11.0747 282.131Z" fill="#59C3B5"/>
<path d="M191.738 293.587C190.496 293.813 191.06 292.972 190.941 292.231C190.296 288.258 190.528 286.168 190.553 282.527C191.054 286.199 191.217 289.909 191.738 293.587Z" fill="#59C3B5"/>
<path d="M141.638 195.639C140.446 195.858 140.873 195.036 140.848 194.276C140.754 191.445 140.892 188.596 140.848 185.765C142.008 188.928 141.525 192.349 141.638 195.639Z" fill="#59C3B5"/>
<path d="M150.71 358.75C150.534 353.371 150.578 347.552 150.71 342.16V358.75Z" fill="#59C3B5"/>
<path d="M231.179 345.719C230.815 342.361 231.731 338.814 231.969 335.449C232.64 336.09 232.427 337.559 232.358 338.412C232.17 340.873 231.568 343.396 231.179 345.719Z" fill="#59C3B5"/>
<path d="M232.364 321.627C233.016 322.035 232.759 323.127 232.765 323.793C232.797 326.674 232.872 329.624 232.759 332.505C232.728 333.265 233.167 334.087 231.969 333.868C231.994 333.478 231.95 333.077 231.969 332.681L232.364 332.091L231.969 331.89C232.138 328.463 232.214 325.042 232.364 321.621V321.627Z" fill="#59C3B5"/>
<path d="M114.422 417.598C114.403 412.344 114.359 407.059 114.422 401.799V417.598Z" fill="#59C3B5"/>
<path d="M138.484 178.659C135.381 177.253 132.973 177.642 129.807 178.659C132.835 176.28 135.412 176.468 138.484 178.659Z" fill="#59C3B5"/>
<path d="M112.447 191.295C112.284 194.026 112.121 196.856 112.052 199.587C111.387 197.597 111.575 194.791 111.657 192.657C111.688 191.898 111.249 191.075 112.447 191.295Z" fill="#59C3B5"/>
<path d="M126.252 201.169C126.246 196.894 126.064 192.381 126.252 188.137C126.904 188.545 126.647 189.638 126.653 190.303C126.685 193.197 126.691 196.109 126.653 199.003C126.647 199.669 126.904 200.761 126.252 201.169Z" fill="#59C3B5"/>
<path d="M76.5537 261.593V261.988C76.5537 264.348 76.6101 266.74 76.5537 269.1C75.9017 268.692 76.1587 267.6 76.1525 266.934C76.1148 263.476 76.328 260.199 76.5537 256.86C76.5537 258.435 76.5537 260.023 76.5537 261.599V261.593Z" fill="#59C3B5"/>
<path d="M132.961 431.421L133.356 431.816C133.374 432.08 133.337 432.343 133.356 432.607C132.164 432.827 132.591 432.004 132.566 431.245C132.478 428.621 132.528 425.947 132.559 423.323C132.566 422.658 132.309 421.565 132.961 421.157C133.048 424.541 132.76 428.069 132.961 431.427V431.421Z" fill="#59C3B5"/>
<path d="M133.751 364.28L132.961 372.572C132.961 370.432 132.867 367.927 132.961 365.642C132.992 364.883 132.553 364.061 133.751 364.28Z" fill="#59C3B5"/>
<path d="M212.245 402.985C212.095 405.113 211.919 407.159 211.85 409.306C211.167 407.976 211.399 405.841 211.455 404.354C211.487 403.594 211.048 402.772 212.245 402.991V402.985Z" fill="#59C3B5"/>
<path d="M140.848 184.578L139.663 179.839C140.628 181.176 141.111 182.275 141.186 184.001C141.199 184.308 140.848 184.528 140.848 184.578Z" fill="#59C3B5"/>
<path d="M191.342 244.218C191.286 246.007 191.079 247.934 190.948 249.748C190.27 248.436 190.484 246.276 190.553 244.808C190.603 243.841 190.264 243.514 191.342 244.224V244.218Z" fill="#59C3B5"/>
<path d="M12.6485 301.879C11.8961 300.454 12.2409 298.245 12.2535 296.745C13.3193 298.245 12.5858 300.467 12.6485 301.879Z" fill="#59C3B5"/>
<path d="M128.227 236.321C128.447 236.346 128.948 236.245 129.005 236.321C129.105 236.459 129.431 239.258 129.444 239.685C129.469 240.577 129.011 240.608 129.017 240.665C128.798 239.315 128.265 237.652 128.227 236.321Z" fill="#59C3B5"/>
<path d="M15.4132 359.937C15.2439 359.893 14.6797 360.012 14.6232 359.937C14.5292 359.799 14.2533 357.043 14.2408 356.603C14.2345 356.296 14.6232 356.038 14.6232 355.988C15.2126 357.225 15.1875 358.625 15.4132 359.937Z" fill="#59C3B5"/>
<path d="M132.961 380.865C132.296 379.182 132.302 376.144 132.961 374.543C132.961 376.646 132.986 378.762 132.961 380.865Z" fill="#59C3B5"/>
<path d="M203.173 254.091C203.393 254.129 203.913 254.022 203.963 254.091C204.132 254.317 204.132 259.069 203.568 259.622C203.512 257.688 203.317 255.956 203.173 254.091Z" fill="#59C3B5"/>
<path d="M112.842 186.951C112.748 188.188 112.522 189.362 112.447 190.504C111.832 189.707 111.563 186.48 112.842 186.951Z" fill="#59C3B5"/>
<path d="M11.8585 291.214C11.0874 290.078 11.4636 288.082 11.4636 286.871C12.5294 288.063 11.752 290.097 11.8585 291.214Z" fill="#59C3B5"/>
<path d="M113.632 179.054C113.532 180.385 113.331 181.672 113.237 183.003C112.641 182.155 112.328 178.59 113.632 179.054Z" fill="#59C3B5"/>
<path d="M98.6412 369.81C98.6161 368.9 98.2337 367.199 99.0362 366.258C99.0362 367.274 99.6443 368.762 98.6412 369.81Z" fill="#59C3B5"/>
<path d="M211.85 419.569C211.179 418.301 211.192 415.621 211.85 414.435C211.875 416.104 211.719 417.937 211.85 419.569Z" fill="#59C3B5"/>
<path d="M203.568 261.197C204.452 262.622 203.75 264.731 203.957 266.332C203.292 266.438 203.587 265.591 203.568 265.152C203.506 263.846 203.581 262.509 203.568 261.203V261.197Z" fill="#59C3B5"/>
<path d="M101.406 337.42C100.735 336.284 100.748 333.736 101.406 332.681C101.412 334.257 101.425 335.845 101.406 337.42Z" fill="#59C3B5"/>
<path d="M11.4697 286.08C10.6234 285.232 11.0622 283.694 11.0748 282.922C12.0277 283.851 11.4823 285.239 11.4697 286.08Z" fill="#59C3B5"/>
<path d="M113.237 183.398C113.168 184.384 112.911 185.237 112.842 186.16C112.19 185.438 112.014 182.94 113.237 183.398Z" fill="#59C3B5"/>
<path d="M98.6413 373.759C97.983 373.15 97.9768 371.223 98.6413 370.601C98.6539 371.756 98.6852 372.56 98.6413 373.759Z" fill="#59C3B5"/>
<path d="M195.681 442.079L196.076 438.922C196.089 440.811 196.396 439.958 195.681 442.079Z" fill="#59C3B5"/>
<path d="M143.613 230.791C142.422 231.218 142.553 229.115 143.218 228.418C143.318 229.215 143.5 229.994 143.613 230.791Z" fill="#59C3B5"/>
<path d="M12.2536 295.558C11.6203 295.182 11.6078 293.587 12.2536 293.186C12.2912 294.14 12.241 294.818 12.2536 295.558Z" fill="#59C3B5"/>
<path d="M99.0362 365.467C99.0111 364.739 98.7917 363.515 99.4312 363.094C99.4437 363.69 99.9703 364.701 99.0362 365.467Z" fill="#59C3B5"/>
<path d="M129.017 241.455C130.07 241.123 130.164 242.353 129.412 243.037C129.343 242.523 129.042 241.932 129.017 241.455Z" fill="#59C3B5"/>
<path d="M13.0435 303.85C12.1469 303.995 11.9338 303.687 12.6485 303.059C12.6485 303.103 12.9996 303.153 13.0435 303.85Z" fill="#59C3B5"/>
<path d="M231.969 332.681C231.982 332.417 231.957 332.154 231.969 331.89L232.364 332.091L231.969 332.681Z" fill="#6EC8BC"/>
<path d="M127.832 181.026C127.964 180.793 127.97 180.592 128.227 180.235L127.832 181.026Z" fill="#59C3B5"/>
<path d="M12.2534 292.005L11.8584 291.61C11.8584 291.61 12.2408 291.729 12.2534 292.005Z" fill="#59C3B5"/>
<path d="M60.7734 273.048C60.786 272.766 61.1684 272.684 61.1684 272.653L60.7734 273.048Z" fill="#6EC8BC"/>
<path d="M132.961 417.994L132.572 417.799L132.961 417.604C132.961 417.736 132.961 417.868 132.961 418V417.994Z" fill="#59C3B5"/>
<path d="M212.245 420.756L211.85 420.36C211.85 420.36 212.158 420.687 212.245 420.756Z" fill="#59C3B5"/>
<path d="M139.274 179.45L138.879 179.054C139.017 179.18 139.149 179.312 139.274 179.45Z" fill="#59C3B5"/>
<path d="M133.356 431.816L132.961 431.421C132.961 431.421 133.337 431.546 133.356 431.816Z" fill="#6EC8BC"/>
</g>
<g clip-path="url(#clip4_527_28724)">
<path d="M38.4249 537.054C39.1806 533.54 36.6617 534.466 34.5169 533.762C14.3128 527.132 4.93204 527.476 18.0834 504.086C58.2474 432.699 163.695 386.073 241.466 373.624C255.983 354.636 302.162 299.014 325.74 297.038C336.014 296.173 332.037 310.781 331.205 317.465C326.541 316.485 329.839 321.538 327.289 323.46C326.06 324.386 317.993 326.193 314.68 328.015C303.849 333.987 287.255 353.005 279.806 363.142C277.34 366.503 268.593 375.813 276.516 377.069C282.866 378.072 290.423 363.502 294.919 358.464C304.933 347.233 318.054 334.156 332.525 329.378C332.716 329.707 334.167 330.144 334.869 331.599C337.494 337.019 336.227 343.42 336.479 349.223C330.121 349.53 316.26 361.129 311.405 365.738C309.07 367.95 297.643 377.26 304.383 379.442C312.879 382.199 320.038 370.668 325.312 366.45C331.777 361.282 338.716 357.469 345.715 353.189C350.226 356.435 353.012 359.215 353.63 365.095C349.867 365.661 328.709 380.2 331.205 383.6C333.212 383.707 335.037 385.169 337.113 384.978C338.113 384.886 353.165 374.634 353.737 373.807C356.248 370.163 352.737 366.511 358.912 365.102C365.896 366.603 365.889 375.622 369.461 379.657C367.263 383.301 361.82 383.577 362.874 388.913H381.33C385.2 391.754 406.274 397.572 410.38 396.325C414.487 395.077 432.569 377.858 438.149 373.823C445.995 368.157 456.46 361.228 465.26 357.362C470.443 355.08 476.977 351.206 482.297 354.452C491.296 359.942 479.717 372.651 477.595 378.34C464.199 381.196 453.185 388.898 441.866 396.08C437.584 398.79 430.149 399.977 431.439 407.434C435.317 411.415 455.04 396.562 459.574 393.982C463.444 391.777 467.978 390.651 471.351 388.86C472.908 388.033 471.596 385.805 473.634 386.28L479.671 404.831C472.275 407.304 464.337 408.261 457.131 411.377C451.88 413.643 447.59 416.215 455.521 419.661C463.192 422.991 475.672 413.75 484.197 414.049C485.823 415.458 487.678 416.851 489.472 418.015L490.785 420.648C486.991 421.031 473.763 424.898 472.336 427.952L480.961 433.878C482.587 437.73 483.289 436.864 485.51 437.86C503.028 445.677 541.886 473.27 557.373 474.901C573.12 476.554 583.272 464.588 593.011 453.754C617.177 426.873 654.272 366.986 689.337 357.247C701.351 353.917 706.267 357.278 703.023 369.65C696.848 393.216 680.697 426.414 670.37 449.329C658.15 476.44 640.174 492.541 652.761 523.403C660.6 542.628 670.782 563.453 679.552 582.517C683.681 591.49 701.161 621.571 700.451 628.875C698.291 651.017 662.882 625.308 655.005 619.053C628.695 598.151 610.2 569.042 587.088 545.629C572.792 531.151 564.243 528.938 543.535 533.096C552.595 526.733 561.281 519.766 571.036 514.399C574.379 508.458 558.35 507.065 554.725 506.659C526.88 503.543 498.188 503.979 470.352 501.33C405.045 495.113 351.119 476.286 284.775 489.83C261.876 494.501 240.145 503.328 217.781 509.285C215.224 495.886 209.408 480.107 202.515 468.378C199.012 462.413 183.907 439.36 175.541 445.08C170.023 448.846 183.014 456.487 184.845 458.692C199.226 476.026 204.599 492.793 208.553 514.575C185.906 521.588 189.532 547.581 182.434 565.765C171.435 593.932 145.605 606.221 116.234 604.536C98.8006 603.533 59.5678 584.301 43.8137 574.662C34.12 568.736 4.78702 552.903 15.9386 539.336C18.5719 536.135 24.1897 537.284 27.8763 537.069C27.0444 541.786 31.6698 538.578 34.4864 540.415C39.4859 543.677 37.5624 542.329 43.4397 544.603C56.9421 549.817 70.2309 554.855 80.6573 565.497C84.2448 567.335 89.1069 566.048 89.7557 561.73C89.0687 557.825 67.193 544.618 62.6439 542.551C53.0189 538.164 48.8208 537.59 38.4325 537.069L38.4249 537.054ZM97.4267 465.943C73.3298 469.863 74.5129 509.56 97.1901 513.151C131.255 518.557 131.713 460.354 97.4267 465.943Z" fill="#4FBEA9"/>
<path d="M217.789 509.277C240.145 503.328 261.883 494.501 284.782 489.823C351.127 476.286 405.052 495.113 470.359 501.322C498.188 503.971 526.888 503.527 554.732 506.651C558.358 507.057 574.387 508.443 571.044 514.392C561.296 519.759 552.603 526.726 543.543 533.088C534.276 539.596 522.758 546.264 514.08 553.14C512.217 554.617 510.538 555.391 510.576 558.224C503.737 558.599 504.684 560.214 500.028 563.514C497.28 565.459 494.387 568.598 492.113 570.129C488.83 572.349 484.869 574.539 481.564 576.744C478.946 578.49 476.259 580.342 473.649 582.034C469.703 584.599 465.718 587.524 461.78 589.974C459.665 591.291 457.337 592.646 455.185 593.94C450.323 596.872 444.255 600.662 439.362 603.196C437.133 604.352 434.485 606.366 432.767 607.162C428.111 609.337 416.754 613.479 411.663 615.102C366.873 629.381 320.336 630.468 273.829 630.95C271.6 630.973 267.967 630.108 266.593 632.298C265.501 631.54 264.265 630.284 263.021 629.986C261.838 629.702 253.426 628.332 252.747 628.332H232.963C227.956 628.332 218.369 626.326 212.522 625.683C182.281 622.391 152.459 616.863 123.142 608.839C120.981 608.249 115.364 607.913 116.249 604.513C145.613 606.198 171.45 593.909 182.449 565.742C189.547 547.558 185.929 521.565 208.568 514.552C212.988 538.861 214.125 551.899 203.538 574.991C201.057 580.396 187.906 597.845 190.715 601.91C195.279 608.51 207.507 586.659 209.255 583.374C222.178 559.004 222.941 536.181 217.804 509.269L217.789 509.277ZM312.466 505.702C290.239 506.697 246.954 517.776 230.948 533.724C214.01 550.598 248.083 562.94 261.036 565.765C293.85 572.931 317.389 556.049 335.701 530.324C351.424 508.236 331.09 504.859 312.459 505.702H312.466Z" fill="#AFDDD2"/>
<path d="M331.205 317.465C330.381 324.103 328.602 322.641 332.525 329.371C318.054 334.148 304.933 347.225 294.918 358.457C290.423 363.494 282.866 378.064 276.516 377.061C268.593 375.813 277.332 366.496 279.805 363.135C287.255 352.998 303.849 333.98 314.68 328.008C317.993 326.186 326.053 324.379 327.289 323.452C329.839 321.538 326.541 316.477 331.205 317.457V317.465Z" fill="#1CAE99"/>
<path d="M336.479 349.208C340.708 349.009 342.677 350.999 345.707 353.174C338.708 357.454 331.77 361.266 325.305 366.434C320.031 370.653 312.863 382.183 304.376 379.427C297.643 377.245 309.07 367.935 311.398 365.722C316.26 361.113 330.114 349.506 336.472 349.208H336.479Z" fill="#1CAE99"/>
<path d="M484.19 414.033C475.664 413.735 463.184 422.976 455.513 419.645C447.591 416.2 451.873 413.628 457.124 411.361C464.329 408.245 472.267 407.296 479.664 404.815L473.626 386.264C471.588 385.79 472.909 388.01 471.344 388.844C467.963 390.636 463.436 391.769 459.566 393.966C455.04 396.539 435.309 411.392 431.432 407.418C430.142 399.954 437.584 398.775 441.858 396.064C453.178 388.883 464.2 381.18 477.588 378.325C477.29 379.136 477.946 381.341 477.534 382.834C476.969 384.863 474.985 386.739 474.969 388.24C474.962 389.135 480.259 399.793 481.289 401.73C483.801 406.446 489.609 408.59 484.182 414.041L484.19 414.033Z" fill="#1CAE99"/>
<path d="M489.464 417.999C491.731 419.469 497.463 421.659 497.173 425.035C495.67 431.62 487.915 430.969 483.541 433.878C482.045 434.874 485.304 436.543 485.503 437.837C483.281 436.841 482.579 437.707 480.953 433.855L472.328 427.93C473.756 424.867 486.983 421.008 490.777 420.625L489.464 417.992V417.999Z" fill="#1CAE99"/>
<path d="M353.623 365.087C354.798 364.911 357.828 364.857 358.897 365.087C352.722 366.488 356.233 370.148 353.722 373.792C353.157 374.619 338.097 384.871 337.097 384.963C335.029 385.154 333.197 383.699 331.19 383.584C328.694 380.185 349.852 365.653 353.615 365.079L353.623 365.087Z" fill="#1CAE99"/>
<path d="M381.322 388.898H362.866C361.813 383.562 367.255 383.278 369.453 379.642C369.957 380.216 379.826 387.803 381.322 388.898Z" fill="#1CAE99"/>
<path d="M217.789 509.277C222.926 536.189 222.162 559.012 209.24 583.382C207.5 586.674 195.264 608.517 190.7 601.918C187.891 597.86 201.042 580.411 203.523 574.998C214.11 551.907 212.973 538.869 208.553 514.56C204.599 492.778 199.218 476.011 184.846 458.677C183.014 456.472 170.023 448.831 175.541 445.064C183.914 439.345 199.012 462.398 202.516 468.362C209.408 480.092 215.232 495.871 217.781 509.27L217.789 509.277Z" fill="#1CAE99"/>
<path d="M97.4267 465.943C131.713 460.361 131.255 518.556 97.1901 513.151C74.5129 509.553 73.3299 469.863 97.4267 465.943ZM102.823 476.516C81.6878 477.167 86.4278 502.999 101.09 504.063C119.157 505.372 119.295 476.011 102.823 476.516Z" fill="#FDFAF1"/>
<path d="M102.823 476.516C119.287 476.011 119.15 505.372 101.09 504.063C86.4278 502.999 81.6954 477.167 102.823 476.516Z" fill="#1CAE99"/>
</g>
</g>
<defs>
<clipPath id="clip0_527_28724">
<rect width="669" height="498" fill="white"/>
</clipPath>
<clipPath id="clip1_527_28724">
<rect width="370" height="415" fill="white" transform="translate(445 134)"/>
</clipPath>
<clipPath id="clip2_527_28724">
<rect width="325.843" height="309.325" fill="white" transform="translate(509.904 195) rotate(17.6726)"/>
</clipPath>
<clipPath id="clip3_527_28724">
<rect width="321" height="425" fill="white" transform="translate(-37 152)"/>
</clipPath>
<clipPath id="clip4_527_28724">
<rect width="692" height="392" fill="white" transform="translate(12 297)"/>
</clipPath>
</defs>
</svg>
