<svg width="669" height="516" viewBox="0 0 669 516" fill="none" xmlns="http://www.w3.org/2000/svg">
<g clip-path="url(#clip0_504_11360)">
<rect width="669" height="516" fill="#D9D9D9" fill-opacity="0.6"/>
<g clip-path="url(#clip1_504_11360)">
<path d="M87.8094 235.312C119.454 192.875 173.14 175.642 218.111 151.779C249.183 135.289 260.813 117.118 285.453 94.839C333.183 51.7074 385.099 41.0068 446.265 63.383C488.247 78.7393 518.098 106.929 561.398 120.811C637.978 145.356 760.42 173.119 752.646 277.871C750.401 308.145 729.117 338.382 720.977 367.985C712.336 399.453 719.488 423.987 722.38 455.187C728.556 521.95 728.019 602.887 661.568 640.388C595.813 677.499 526.409 647.091 458.42 638.718C412.973 633.112 379.802 654.294 337.857 666.006C276.666 683.093 215.036 682.362 170.516 631.284C128.888 583.533 131.597 513.09 123.372 454.48C117.99 416.126 92.0564 391.714 76.9601 357.845C58.7029 316.883 60.6189 271.814 87.8216 235.324L87.8094 235.312ZM375.274 72.5968C363.9 74.0593 356.017 85.6983 364.022 95.6677C372.028 105.637 394.569 105.576 400.158 93.3521C406.663 79.1658 386.795 71.1099 375.274 72.5968ZM457.822 125.783C481.425 151.511 424.579 173.631 449.914 198.628C468.061 216.519 495.789 212.924 515.291 199.347C528.154 190.389 540.126 174.106 556.247 171.608C574.712 168.756 602.586 185.441 618.232 177.129C631.302 170.182 611.3 159.969 605.112 157.215C581.436 146.636 554.197 144.564 530.119 134.875C504.649 124.625 482.267 106.003 456.443 95.6921C449.206 92.8036 428.472 84.7477 424.932 96.0333C420.393 110.524 449.792 117.032 457.822 125.783ZM351.464 101.262C348.365 97.7518 342.104 96.6549 337.54 96.984C325.604 97.8493 297.474 118.385 287.918 126.709C275.006 137.958 265.365 153.181 250.537 162.102C228.741 175.216 185.173 185.014 169.308 204.368C165.72 208.756 163.389 213.411 170.113 215.776C183.733 220.565 206.335 206.416 220.186 202.893C247.975 195.825 261.826 211.863 286.588 217.933C300.671 221.382 324.664 221.833 338.479 217.25C354.821 211.827 371.015 192.327 357.884 176.154C345.545 160.944 316.939 147.842 335.77 125.491C341.811 118.336 361.069 112.194 351.452 101.274L351.464 101.262ZM386.783 122.444C353.075 124.357 365.841 156.435 387.71 166.794C406.285 175.581 439.602 168.183 426.922 142.346C420.283 128.818 401.196 121.627 386.783 122.444ZM646.886 186.148C637.502 187.744 632.034 196.3 634.402 205.587C637.428 217.47 661.836 231.753 673.674 230.925C685.512 230.096 689.503 217.238 684.072 207.451C677.946 196.397 659.969 183.93 646.886 186.148ZM579.032 193.546C548.608 196.995 538.015 238.968 577.983 242.32C593.421 243.612 612.215 235.446 613.545 218.225C615.132 197.628 596.179 191.62 579.02 193.558L579.032 193.546ZM399.853 213.155C377.02 215.654 358.225 238.03 366.89 261.113C382.585 302.88 466.084 269.303 438.808 229.328C430.034 216.47 415.035 211.486 399.853 213.155ZM229.669 227.049C198.378 230.218 184.978 277.054 223.737 275.043C260.655 273.13 273.725 222.588 229.669 227.049ZM496.362 231.924C488.54 232.984 477.715 239.626 477.678 248.462C477.605 271.107 521.417 268.316 519.501 244.343C518.549 232.436 505.991 230.62 496.35 231.936L496.362 231.924ZM143.765 234.398C131.097 235.629 114.439 246.768 114.414 260.711C114.377 279.248 134.331 285.805 149.415 279.248C172.53 269.206 175.202 231.351 143.765 234.398ZM707.418 239.188C702.354 240.687 702.354 252.07 703.122 256.262C703.818 260.016 710.005 273.459 713.825 274.19C724.162 276.165 723.027 257.822 720.977 251.509C719.378 246.549 713.642 237.347 707.418 239.2V239.188ZM309.007 244.989C285.722 248.182 294.63 274.982 317.83 273.41C323.7 273.008 334.013 268.876 335.831 262.795C340.164 248.304 319.636 243.539 309.007 244.989ZM652.659 253.996C636.489 255.446 629.093 271.582 611.409 273.276C586.684 275.641 562.532 265.805 536.013 273.154C518.452 278.017 516.951 295.165 526.152 308.778C551.073 345.597 606.552 342.574 626.457 394.091C632.571 409.898 631.351 441.549 652.61 445.583C676.274 450.08 677.091 417.527 676.591 402.037C675.993 383.817 673.894 365.682 674.882 347.291C676.078 325.183 683.23 302.477 681.497 280.296C680.289 264.903 668.597 252.557 652.659 253.996ZM439.577 323.745C449.609 334.275 473.199 336.566 479.533 321.331C489.04 298.48 450.72 280.528 436.966 300.881C431.693 308.669 433.292 317.151 439.577 323.745ZM272.224 294.872C248.023 296.92 220.516 310.923 196.095 305.866C181.011 302.733 174.543 291.192 156.591 298.699C142.52 304.586 142.434 322.416 145.461 335.189C147.938 345.682 153.87 354.725 157.641 364.695C167.209 390.02 168.563 417.296 174.446 443.499C178.021 459.391 182.952 481 204.663 471.701C230.987 460.427 229.656 413.103 239.505 389.655C250.513 363.439 266 355.81 285.087 337.943C304.772 319.516 305.175 292.069 272.224 294.86V294.872ZM375.128 332.678C387.405 318.346 381.096 293.312 358.75 298.76C344.508 302.234 332.975 320.101 341.591 333.775C349.597 346.486 366.573 342.66 375.128 332.678ZM520.941 348.79C491.762 351.276 485.318 378.064 502.696 399.21C531.437 434.188 580.838 416.613 559.726 371.678C553.099 357.589 536.562 347.449 520.953 348.79H520.941ZM351.269 457.563C331.987 479.891 291.409 501.792 305.529 538.098C321.906 580.206 400.72 553.467 434.757 551.968C463.338 550.712 493.763 557.806 521.417 555.173C554.405 552.029 573.565 518.062 553.355 489.982C540.944 472.737 520.636 468.13 503.38 458.185C469.099 438.441 473.395 388.728 444.593 364.926C421.491 345.828 393.727 352.202 383.439 380.611C372.516 410.776 374.188 431.043 351.269 457.563ZM309.824 364.28C276.141 368.826 255.346 431.104 295.912 436.576C325.043 440.501 348.609 411.239 342.543 383.476C338.858 366.62 325.763 362.123 309.824 364.28ZM620.636 484.705C633.181 471.981 627.982 450.921 616.047 439.611C591.029 415.906 550.341 459.562 580.009 484.595C591.395 494.199 609.677 495.82 620.636 484.705ZM281.865 517.343C312.192 481.792 247.926 441.037 229.669 477.063C213.877 508.227 256.542 547.032 281.865 517.343ZM674.736 469.629C657.589 472.091 671.197 519.768 686.818 504.631C696.52 495.223 688.612 467.642 674.736 469.629ZM179.376 538.659C191.128 548.543 209.178 522.23 193.789 510.786C177.85 498.928 167.929 529.043 179.376 538.659ZM635.488 513.772C612.666 515.783 604.319 558.89 628.068 568.981C657.614 581.522 676.322 542.571 657.333 523.412C652.488 518.525 642.554 513.151 635.488 513.772ZM250.818 600.73C262.607 588.299 252.893 566.398 239.896 558.695C215.341 544.143 196.034 564.18 205.956 589.322C212.876 606.885 237.076 615.221 250.818 600.73Z" fill="#09B098"/>
<path d="M351.269 457.564C374.176 431.044 372.516 410.776 383.439 380.612C393.727 352.203 421.491 345.829 444.593 364.926C473.407 388.741 469.111 438.441 503.38 458.185C520.636 468.13 540.944 472.737 553.355 489.982C573.565 518.062 554.405 552.029 521.417 555.173C493.763 557.806 463.338 550.713 434.757 551.968C400.72 553.467 321.919 580.206 305.529 538.099C291.409 501.792 331.987 479.891 351.269 457.564ZM418.623 399.405C396.192 403.207 387.979 443.914 416.561 451.738C458.713 463.267 455.894 393.104 418.623 399.405ZM474.261 485.205C452.77 488.581 456.48 519.391 478.947 520.183C509.091 521.243 500.561 481.061 474.261 485.205ZM380.193 489.3C366.951 491.091 357.42 501.89 360.984 515.418C366.829 537.587 408.189 533.467 410.666 510.738C412.57 493.285 394.557 487.35 380.193 489.288V489.3Z" fill="#A0D8CD"/>
<path d="M652.659 253.996C668.597 252.57 680.288 264.916 681.497 280.296C683.242 302.477 676.09 325.183 674.882 347.291C673.881 365.67 675.98 383.817 676.591 402.037C677.103 417.54 676.273 450.092 652.61 445.583C631.35 441.537 632.559 409.898 626.457 394.091C606.552 342.587 551.073 345.597 526.152 308.778C516.938 295.165 518.451 278.017 536.013 273.154C562.532 265.805 586.684 275.653 611.409 273.276C629.093 271.582 636.488 255.446 652.659 253.996ZM579.007 291.57C566.987 293.3 564.912 303.136 570.367 312.849C573.918 319.174 583.145 326.67 589.857 329.339C608.871 336.883 628.104 328.291 615.058 306.621C607.809 294.58 592.517 289.632 579.007 291.57Z" fill="#A0D8CD"/>
<path d="M272.224 294.873C305.187 292.082 304.784 319.528 285.087 337.955C266.012 355.822 250.513 363.464 239.505 389.667C229.656 413.116 230.987 460.428 204.663 471.713C182.952 481.012 178.021 459.404 174.446 443.511C168.551 417.308 167.196 390.02 157.641 364.707C153.87 354.725 147.938 345.682 145.461 335.201C142.447 322.428 142.52 304.598 156.591 298.712C174.543 291.204 180.999 302.758 196.095 305.878C220.516 310.936 248.023 296.944 272.224 294.885V294.873ZM198.219 339.844C184.917 353.129 189.701 382.635 212.278 374.725C221.712 371.422 232.073 360.368 234.99 350.838C241.885 328.278 210.313 327.779 198.219 339.844Z" fill="#A0D8CD"/>
<path d="M351.464 101.262C361.081 112.182 341.823 118.324 335.782 125.479C316.939 147.83 345.558 160.932 357.896 176.142C371.027 192.315 354.833 211.827 338.491 217.238C324.689 221.821 300.683 221.37 286.6 217.921C261.838 211.851 247.999 195.813 220.198 202.881C206.347 206.404 183.745 220.553 170.125 215.763C163.401 213.399 165.732 208.743 169.32 204.356C185.173 185.002 228.753 175.204 250.549 162.09C265.377 153.169 275.018 137.946 287.93 126.697C297.474 118.373 325.616 97.8494 337.552 96.9719C342.116 96.6429 348.377 97.7276 351.476 101.25L351.464 101.262ZM288.54 165.722C276.593 167.598 262.07 184.454 274.896 193.668C283.342 199.725 301.745 200.285 308.25 191.133C319.136 175.849 304.699 163.187 288.54 165.722Z" fill="#A0D8CD"/>
<path d="M457.822 125.783C449.792 117.033 420.393 110.525 424.933 96.0336C428.472 84.7479 449.206 92.8039 456.443 95.6923C482.267 106.003 504.637 124.625 530.119 134.875C554.197 144.564 581.437 146.636 605.112 157.215C611.287 159.981 631.302 170.182 618.232 177.129C602.586 185.441 574.712 168.756 556.247 171.608C540.126 174.095 528.154 190.377 515.291 199.347C495.801 212.924 468.061 216.519 449.914 198.628C424.566 173.631 481.425 151.499 457.822 125.783ZM500.512 156.727C487.954 157.093 470.478 169 480.204 182.272C489.931 195.545 512.203 186.745 517.744 174.009C523.358 161.103 511.483 156.398 500.512 156.727Z" fill="#A0D8CD"/>
<path d="M399.853 213.155C415.035 211.485 430.046 216.47 438.808 229.328C466.084 269.303 382.584 302.879 366.89 261.113C358.213 238.03 377.019 215.654 399.853 213.155Z" fill="#A0D8CD"/>
<path d="M309.824 364.28C325.751 362.123 338.858 366.62 342.543 383.476C348.609 411.227 325.055 440.501 295.912 436.576C255.346 431.104 276.141 368.826 309.824 364.28Z" fill="#A0D8CD"/>
<path d="M520.941 348.79C536.55 347.461 553.098 357.601 559.713 371.678C580.838 416.613 531.436 434.188 502.684 399.209C485.305 378.052 491.749 351.276 520.929 348.79H520.941Z" fill="#A0D8CD"/>
<path d="M281.865 517.343C256.542 547.032 213.876 508.227 229.668 477.064C247.925 441.037 312.192 481.792 281.865 517.343Z" fill="#A0D8CD"/>
<path d="M620.635 484.705C609.676 495.82 591.382 494.199 580.008 484.595C550.353 459.574 591.029 415.906 616.047 439.611C627.982 450.921 633.181 471.981 620.635 484.705Z" fill="#A0D8CD"/>
<path d="M579.032 193.546C596.179 191.608 615.144 197.616 613.557 218.213C612.227 235.434 593.433 243.612 577.995 242.308C538.027 238.956 548.62 196.983 579.044 193.534L579.032 193.546Z" fill="#A0D8CD"/>
<path d="M386.783 122.444C401.196 121.627 420.283 128.818 426.922 142.346C439.602 168.183 406.285 175.581 387.71 166.794C365.841 156.434 353.075 124.357 386.783 122.444Z" fill="#A0D8CD"/>
<path d="M635.488 513.772C642.554 513.151 652.488 518.526 657.333 523.413C676.322 542.571 657.626 581.523 628.068 568.982C604.319 558.903 612.666 515.783 635.488 513.772Z" fill="#A0D8CD"/>
<path d="M229.668 227.049C273.725 222.588 260.642 273.142 223.737 275.043C184.977 277.042 198.39 230.206 229.668 227.049Z" fill="#A0D8CD"/>
<path d="M143.765 234.398C175.19 231.351 172.53 269.206 149.415 279.248C134.331 285.805 114.378 279.248 114.414 260.711C114.451 246.756 131.097 235.617 143.765 234.398Z" fill="#A0D8CD"/>
<path d="M646.886 186.148C659.981 183.93 677.946 196.398 684.072 207.452C689.503 217.238 686.037 230.047 673.674 230.925C661.312 231.802 637.428 217.482 634.402 205.587C632.034 196.3 637.514 187.744 646.886 186.148Z" fill="#A0D8CD"/>
<path d="M439.577 323.745C433.292 317.151 431.705 308.681 436.965 300.881C450.719 280.528 489.04 298.48 479.533 321.332C473.199 336.554 449.609 334.275 439.577 323.745Z" fill="#A0D8CD"/>
<path d="M375.128 332.678C366.573 342.66 349.597 346.486 341.591 333.775C332.975 320.1 344.508 302.246 358.75 298.76C381.096 293.3 387.405 318.345 375.128 332.678Z" fill="#A0D8CD"/>
<path d="M496.362 231.924C506.003 230.62 518.561 232.424 519.513 244.331C521.417 268.304 477.605 271.107 477.69 248.45C477.714 239.614 488.552 232.972 496.374 231.912L496.362 231.924Z" fill="#A0D8CD"/>
<path d="M375.274 72.5968C386.795 71.1221 406.663 79.1658 400.158 93.3521C394.569 105.564 372.077 105.698 364.022 95.6677C355.968 85.6374 363.9 74.0593 375.274 72.5968Z" fill="#A0D8CD"/>
<path d="M309.007 244.989C319.624 243.539 340.151 248.304 335.831 262.795C334.013 268.889 323.7 273.02 317.83 273.41C294.63 274.983 285.722 248.182 309.007 244.989Z" fill="#A0D8CD"/>
<path d="M674.736 469.629C688.612 467.643 696.52 495.223 686.818 504.632C671.197 519.769 657.589 472.091 674.736 469.629Z" fill="#A0D8CD"/>
<path d="M179.376 538.659C167.928 529.043 177.85 498.928 193.789 510.786C209.178 522.23 191.128 548.531 179.376 538.659Z" fill="#A0D8CD"/>
<path d="M418.623 399.405C455.894 393.092 458.713 463.267 416.56 451.738C387.966 443.913 396.192 403.207 418.623 399.405Z" fill="#09B098"/>
<path d="M380.192 489.3C394.557 487.35 412.557 493.285 410.666 510.75C408.188 533.48 366.829 537.599 360.983 515.43C357.42 501.902 366.951 491.104 380.192 489.312V489.3Z" fill="#09B098"/>
<path d="M474.261 485.205C500.56 481.061 509.091 521.243 478.947 520.183C456.48 519.391 452.77 488.581 474.261 485.205Z" fill="#09B098"/>
<path d="M579.008 291.57C592.517 289.62 607.809 294.58 615.058 306.621C628.104 328.291 608.871 336.883 589.857 329.339C583.145 326.67 573.918 319.175 570.367 312.849C564.912 303.136 566.999 293.301 579.008 291.57Z" fill="#09B098"/>
<path d="M198.219 339.844C210.313 327.767 241.885 328.278 234.989 350.838C232.073 360.368 221.711 371.422 212.278 374.725C189.7 382.635 184.916 353.129 198.219 339.844Z" fill="#09B098"/>
<path d="M288.54 165.722C304.711 163.187 319.136 175.837 308.25 191.133C301.745 200.273 283.341 199.725 274.896 193.668C262.07 184.454 276.593 167.598 288.54 165.722Z" fill="#09B098"/>
<path d="M500.512 156.727C511.483 156.398 523.358 161.102 517.744 174.009C512.203 186.745 489.528 194.996 480.204 182.272C470.88 169.548 487.954 157.105 500.512 156.727Z" fill="#09B098"/>
</g>
</g>
<defs>
<clipPath id="clip0_504_11360">
<rect width="669" height="516" fill="white"/>
</clipPath>
<clipPath id="clip1_504_11360">
<rect width="688" height="624" fill="white" transform="translate(65 52)"/>
</clipPath>
</defs>
</svg>
