<svg width="669" height="516" viewBox="0 0 669 516" fill="none" xmlns="http://www.w3.org/2000/svg">
<g clip-path="url(#clip0_504_7106)">
<rect width="669" height="516" fill="#D9D9D9" fill-opacity="0.6"/>
<g clip-path="url(#clip1_504_7106)">
<path d="M581.37 58.4901C560.75 80.7601 542.72 105.81 522.15 128.13C510.74 140.5 503.66 146.23 486.56 148.72C430.96 156.81 382.81 162.89 328.29 178.54C265.91 196.44 155.82 236.56 108.12 279.6C102.28 284.87 99.7001 288.52 101.63 297.01C102.51 300.91 105.03 301.08 106.25 302.77C113.13 312.28 120.99 319.47 130.79 326.48C137.47 331.25 174.01 353.99 179.53 354.07C180.39 358.83 186.41 360.72 190.52 361.4C190.75 361.44 191.08 362.34 191.74 361.4H194.18C193.57 364.21 195.56 364.04 197.36 364.87C228.93 379.42 266.16 389.19 300.44 394.38C301.59 394.55 302.94 394.22 304.1 394.38C304.93 394.5 306.23 395.41 307.76 395.6C311.53 396.06 318.87 398.04 321.81 398.04H343.8C350.87 398.04 361.84 400.02 370.06 400.48C369.66 402.98 370.52 404.83 371.43 407.04C379.86 427.47 396.35 454.19 410.37 471.32C418.14 480.81 438.9 502.17 451.6 504.04C459.08 505.14 467.8 500.56 468.92 492.62C471.13 476.88 467.89 456.13 469 439.57C469 439.43 470.02 439.27 470.22 437.13C470.3 436.33 470.12 435.48 470.22 434.69C471.55 423.64 472.73 415.13 478.77 405.38L482.43 404.16C483.53 405.06 488.25 406.34 490.88 408.54C531.16 442.32 599.22 499.25 650.71 510.08C698.66 520.17 674.03 488.4 660.04 469C642.11 444.13 620.37 421.04 607.01 393.17C609.27 391.67 613.57 391.22 616.33 390.89C654.46 386.25 698 382.35 735.26 374.85C750.23 381.06 764.21 389.79 778.78 396.68C791.44 402.67 820.09 415.8 821.98 391.95C822.53 384.99 820.98 375.66 819.54 368.74C818.38 363.17 816.64 358.14 814.65 352.86C827.34 349.13 840.22 343 852.51 339.42C853.67 339.08 856.15 338.47 857.4 338.2C877.65 333.74 893.25 350.07 910.1 359.39C916.38 362.86 923.78 367.21 930.68 368.73C935.71 370.9 936.2 372.36 942.93 370.59C964.23 364.98 933.2 332.82 944.08 320.45C946.7 317.47 955.96 314.24 959.98 313.15C983.93 306.64 996.64 306.95 1013.7 325.4C1028.4 341.31 1041.79 359.17 1056.48 374.83C1073.12 392.57 1090.67 411.4 1113.49 422.25C1132.15 431.11 1149.71 430.27 1143.58 404.37C1136.4 374 1102.21 338.28 1112.66 306.43C1119.78 284.74 1152.52 252.21 1166.88 231.79C1174.73 220.64 1180.94 207.98 1189.61 197.72C1200.68 184.64 1199.38 183.54 1206.71 169.63C1216.38 151.27 1226.88 132.98 1232.92 112.18C1236.09 101.26 1241.91 83.0601 1224.46 84.0801C1207.53 85.0601 1166.91 116.99 1151.75 128.11C1109.85 158.82 1070.15 193.26 1027.56 223.16C1016.61 230.84 999.3 244.94 985.28 241.66C984.42 241.46 984.44 239.65 983.47 239.36C967.51 234.61 945.6 230.33 942.99 210.45C941.08 195.89 948.93 160.75 924.06 163.63C912.33 164.99 897.34 177.65 887.92 184.29L857.02 204.08C843.21 210.8 823.62 203.98 809.55 199.76C781.51 191.37 752.26 180.23 724.26 170.85C723.89 170.73 723.4 170.97 723.04 170.85L699.83 158.64C666.59 132.56 668.19 112.87 671.74 73.1401C673.39 54.7101 680.54 22.1201 670.34 5.53006C665.66 -2.08994 656.43 -0.36994 648.86 2.02006C622.28 10.4101 599.34 39.0601 581.35 58.4801L581.37 58.4901Z" fill="#FEFCF3"/>
<path d="M581.37 58.49C582.97 65.39 591.91 67.71 597.95 69.39C613.37 73.69 625.15 72.61 640.66 73.1C650.85 73.42 661.17 76.03 671.76 73.15C668.21 112.87 666.61 132.56 699.85 158.65C699.98 158.75 699.46 160.17 700.12 160.78C703.62 164.04 718.07 169.2 723.06 170.86C723.43 170.98 723.92 170.74 724.28 170.86C727.32 173.68 733.78 176.18 737.71 177.58C750.81 182.22 764.54 185.66 777.74 190.07C796.97 196.5 830.87 212.04 850.41 208.44C859.16 206.83 879.91 189.95 887.94 184.29C897.36 177.65 912.35 164.98 924.08 163.63C948.95 160.75 941.09 195.89 943.01 210.45C945.62 230.33 967.53 234.61 983.49 239.36C984.46 239.65 984.43 241.46 985.3 241.66C999.32 244.93 1016.63 230.84 1027.58 223.16C1070.17 193.27 1109.87 158.82 1151.77 128.11C1150.62 134.34 1154.49 136.97 1159.24 139.57C1172.15 146.65 1187.8 145.04 1201.85 143.98C1202.26 151.63 1200.63 159.23 1203.23 166.48C1203.89 168.33 1204.17 170.23 1206.73 169.63C1199.4 183.54 1200.7 184.64 1189.63 197.72C1186.12 183.15 1178.28 189.49 1172.16 198.03C1164.57 208.61 1158.49 221.11 1150.33 232.31C1128.36 262.47 1093.8 289.7 1095.59 329.63C1095.72 332.49 1097.2 335.16 1096.71 338.07C1078.65 343.42 1065.9 359.24 1056.5 374.82C1041.81 359.15 1028.42 341.29 1013.72 325.39C996.67 306.93 983.95 306.63 960 313.14C955.98 314.23 946.72 317.47 944.1 320.44C933.22 332.8 964.25 364.96 942.95 370.58C936.22 372.35 935.73 370.9 930.7 368.72C920.62 364.37 910.55 358.09 900.99 352.63C888.55 345.53 872.48 329.22 857.41 338.19C856.17 338.46 853.68 339.07 852.52 339.41C851.74 337.42 850.21 336.55 848.49 335.51C806.13 309.75 687.11 319.63 637.12 326.15C624.91 327.74 583.32 332.75 575.3 338.83C566.65 345.39 584.72 349.74 588.65 352.29C599.38 359.26 598.48 371.98 602.1 382.81C603.35 386.57 605.36 389.68 607.03 393.15C620.39 421.02 642.12 444.11 660.06 468.98C674.05 488.39 698.68 520.15 650.73 510.06C599.24 499.23 531.18 442.3 490.9 408.52C488.28 406.32 483.55 405.04 482.45 404.14C476.39 399.19 452.55 374.49 449.22 368.36C443.52 357.86 450.53 357.54 450.58 352.27C450.72 339.4 437.96 344.94 429.93 341.85C437.64 323.15 442.77 305.64 440.97 285.01C440.6 280.74 436.06 261.37 432.79 260.22C418.34 255.15 429.1 278.75 429.78 285.2C430.74 294.25 429.7 303.49 427.9 312.33C426.78 317.8 419.46 334.84 421.91 338.27C423.49 340.48 428.44 337.54 427.49 341.84C420.81 341.36 413.05 340.86 406.73 340.62C408.69 333.7 411.24 327.29 412.48 320.11C414.84 306.43 416.02 289.31 412.17 275.95C410.57 270.4 403.95 251.93 396.3 259.97C392.51 263.96 399.1 271.54 400.66 276.47C404.52 288.6 403.8 306.2 401.3 318.71C400.18 324.31 395.75 331.7 396.96 337.34C397.18 338.36 400.26 338.16 399.4 340.63C393.32 340.42 387.16 340.84 381.08 340.63C379.05 340.56 377 340.7 374.97 340.63C371.32 340.5 367.62 340.77 363.98 340.63C295.89 337.98 226.05 315.94 158.01 306.6C140.89 304.25 123.55 302.47 106.27 302.77C105.05 301.09 102.53 300.91 101.65 297.01C99.7201 288.52 102.3 284.87 108.14 279.6C155.84 236.56 265.93 196.44 328.31 178.54C382.84 162.89 430.99 156.81 486.58 148.72C503.68 146.23 510.76 140.5 522.17 128.13C542.74 105.82 560.77 80.77 581.39 58.49H581.37ZM447.32 340.33C454.31 347.29 459.69 332.32 461.34 327.47C467.19 310.26 468.29 287.07 463.82 269.47C461.63 260.85 453.59 260.38 452.11 266.98C451.35 270.35 455.76 288.25 455.63 294.86C455.52 301.02 453.57 310.82 452.06 316.97C450.69 322.53 443.37 336.39 447.32 340.33ZM247.01 310.97C255.61 314.67 269.59 304.36 272.03 295.73C278.41 273.2 249.64 258.17 236.94 275.3C232.31 281.55 232.09 290.25 234.22 297.54C236.19 304.29 240.26 305.9 245.79 308.93C246.53 309.33 246.67 310.83 247 310.97H247.01Z" fill="#3BB0A4"/>
<path d="M852.52 339.41C840.22 342.98 827.35 349.12 814.66 352.85C789.96 360.1 759.88 369.88 735.27 374.84C698.02 382.33 654.47 386.23 616.34 390.88C613.58 391.22 609.28 391.67 607.02 393.16C605.36 389.69 603.35 386.58 602.09 382.82C598.47 371.98 599.37 359.27 588.64 352.3C584.71 349.75 566.64 345.4 575.29 338.84C583.31 332.76 624.9 327.75 637.11 326.16C687.11 319.63 806.12 309.75 848.48 335.52C850.2 336.56 851.73 337.43 852.51 339.42L852.52 339.41Z" fill="#B1DED7"/>
<path d="M363.97 340.63C366.25 342.69 372.69 342.69 374.96 340.63C376.99 340.7 379.04 340.56 381.07 340.63L385.95 343.06C381.78 345.3 376.54 342.36 373.15 343.01C371.85 343.26 373.03 345.99 372.42 346.56C371.81 347.13 366.23 346.65 364.6 347.97C361.4 345.25 369.08 345.51 366.41 343.07C365.93 342.64 359.43 344.58 357.21 344.42C354.89 344.26 355.96 341.86 353.63 341.7C352.33 341.61 344.75 342.73 344.43 343.07C342.17 345.5 352.62 346.72 349.32 351.62C353.51 351.63 356.24 347.79 355.44 354.05C357.45 354.58 356.01 351.9 357.42 351.57C363.82 350.03 366.37 355.95 366.41 361.38C360.89 362.15 362.4 356.44 358.49 355.27C356.8 357.27 361.91 362.22 356.65 361.38V355.29C354.8 354.77 350.42 357.26 349.36 356.48C348.22 355.64 349.79 349.51 343.21 351.62C346.9 360.94 336.34 357.97 331 355.28C330.6 357.28 331.53 365.64 330.98 366.26C330.52 366.78 327.78 364.9 326.79 365.12C324.03 365.73 325.95 375.57 324.89 378.48L329.76 377.27C330.29 378.94 328.73 380.56 328.63 381.63C328.56 382.35 332.34 381.48 330.99 384.59C324.58 385.24 327.11 384.24 326.09 381.86C324.47 378.07 323.1 383.57 321.95 384.66C320.8 385.75 313.78 393 313.19 393.15C307.43 394.61 311.63 386.38 306.58 387.05L307.8 395.59C306.27 395.4 304.97 394.49 304.14 394.37C303.32 392.88 300.82 392.35 300.48 394.37C266.21 389.18 228.97 379.41 197.4 364.86C195.59 364.03 193.61 364.2 194.22 361.39C211.48 361.39 228.92 360.88 246.18 361.34C250.51 361.45 268.24 365.24 269.78 360.61C272.59 352.16 264.47 352.14 258.33 351.63C237.07 349.87 213.75 349.97 192.41 351.63C188.27 351.95 183.51 354.11 179.57 354.05C174.04 353.96 137.5 331.23 130.83 326.46C121.03 319.45 113.18 312.27 106.29 302.75C123.58 302.45 140.91 304.23 158.03 306.58C226.07 315.92 295.91 337.96 364 340.61L363.97 340.63Z" fill="#B8E1DA"/>
<path d="M399.39 340.63C401.83 340.71 404.28 340.54 406.72 340.63C413.04 340.88 420.81 341.38 427.48 341.85C428.29 341.91 429.11 341.81 429.92 341.85C437.96 344.93 450.72 339.39 450.57 352.27C450.51 357.55 443.5 357.87 449.21 368.36C452.54 374.49 476.38 399.19 482.44 404.14L478.78 405.36L478.19 402.94C472.09 406.19 464.79 403.07 458.67 402.87C429 401.9 399.7 402.13 370.07 400.48C361.85 400.02 350.88 398.04 343.81 398.04H321.82C318.88 398.04 311.54 396.06 307.77 395.6L306.55 387.06C311.61 386.39 307.41 394.63 313.16 393.16C313.75 393.01 320.73 385.78 321.92 384.67C323.11 383.56 324.44 378.08 326.06 381.87C327.08 384.25 324.55 385.25 330.96 384.6C332.31 381.49 328.54 382.36 328.6 381.64C328.7 380.57 330.26 378.95 329.73 377.28L324.86 378.49C325.92 375.58 324.01 365.74 326.76 365.13C327.74 364.91 330.49 366.79 330.95 366.27C331.5 365.65 330.57 357.28 330.97 355.29C336.31 357.98 346.87 360.94 343.18 351.63C349.77 349.52 348.19 355.65 349.33 356.49C350.39 357.27 354.77 354.77 356.6 355.3V361.39C361.87 362.23 356.76 357.28 358.45 355.28C362.36 356.45 360.85 362.16 366.37 361.39C366.32 355.95 363.77 350.04 357.38 351.58C355.97 351.92 357.41 354.59 355.4 354.06C356.2 347.8 353.48 351.64 349.28 351.63C352.59 346.73 342.14 345.51 344.39 343.08C344.71 342.74 352.29 341.62 353.59 341.71C355.91 341.87 354.84 344.27 357.17 344.43C359.5 344.59 365.89 342.64 366.37 343.08C369.04 345.51 361.36 345.26 364.56 347.98C366.2 346.66 371.77 347.16 372.38 346.57C372.99 345.98 371.81 343.27 373.11 343.02C376.51 342.36 381.74 345.31 385.91 343.07L381.03 340.64C387.11 340.85 393.27 340.43 399.35 340.64L399.39 340.63ZM355.41 345.52H352.98C352.58 347.32 353.52 348.06 354.81 349.17L355.41 345.52ZM349.3 360.18H346.87V363.83H349.3V360.18ZM341.98 362.62C336.18 362.68 331.47 362.75 332.21 369.94H337.11C337.57 370.39 336.08 381.49 335.66 382.59C335.01 384.29 332.89 384.22 332.49 384.88C331.65 386.27 332.61 389.04 332.2 389.46C331.95 389.72 328.52 389.31 327.03 389.77C325.14 390.35 318.67 392.58 321.23 395.59C321.45 395.85 326.16 394.36 327.88 394.31C333.94 394.11 340.16 394.08 346.12 395.31C352.59 392.46 352.78 384.67 349.41 379.32C348.29 377.55 338.19 375.63 342.92 373.63C344.33 373.03 347.27 374.54 345.73 369.39C345.32 368.02 338.37 369.39 341.99 362.63L341.98 362.62ZM351.75 365.07C350.67 363.8 345.6 368.92 346.88 369.94C349.73 372.22 352.71 366.21 351.75 365.07ZM334.04 376.05V377.27C334.83 376.86 334.83 376.46 334.04 376.05Z" fill="#B1DED7"/>
<path d="M370.07 400.48C399.7 402.13 429.01 401.9 458.67 402.87C464.79 403.07 472.09 406.19 478.19 402.94L478.78 405.36C472.74 415.12 471.56 423.63 470.23 434.67C466.53 433.99 467.88 436.54 467.79 438.89C467.17 454.66 469.79 475.33 467.68 490.14C464.58 511.98 440.16 498.81 429.91 490.26C423.11 484.59 417.65 476.1 410.38 471.31C396.36 454.18 379.87 427.46 371.44 407.03C370.53 404.82 369.67 402.97 370.07 400.47V400.48Z" fill="#3BB0A4"/>
<path d="M671.76 73.1499C661.17 76.0299 650.85 73.4199 640.66 73.0999C625.16 72.6099 613.37 73.6999 597.95 69.3899C591.91 67.6999 582.97 65.3899 581.37 58.4899C599.36 39.0599 622.3 10.4199 648.88 2.02995C656.44 -0.360052 665.67 -2.08005 670.36 5.53995C680.56 22.1299 673.41 54.7199 671.76 73.1499Z" fill="#116057"/>
<path d="M194.19 361.4H190.53C186.42 360.72 180.4 358.83 179.54 354.07C183.48 354.13 188.24 351.97 192.38 351.65C213.72 349.99 237.04 349.89 258.3 351.65C264.44 352.16 272.56 352.17 269.75 360.63C268.21 365.26 250.48 361.47 246.15 361.36C228.89 360.9 211.45 361.41 194.19 361.41V361.4Z" fill="#3BB0A4"/>
<path d="M470.23 434.68C470.13 435.47 470.31 436.32 470.23 437.12L469.01 439.56C467.9 456.11 471.15 476.87 468.93 492.61C467.81 500.55 459.09 505.13 451.61 504.03C438.9 502.17 418.15 480.8 410.38 471.31C417.64 476.09 423.11 484.59 429.91 490.26C440.16 498.81 464.58 511.98 467.68 490.14C469.78 475.33 467.16 454.66 467.79 438.89C467.88 436.54 466.53 433.99 470.23 434.67V434.68Z" fill="#1D8179"/>
<path d="M304.12 394.37C302.96 394.21 301.61 394.54 300.46 394.37C300.8 392.35 303.3 392.88 304.12 394.37Z" fill="#B1DED7"/>
<path d="M469.01 439.57L470.23 437.13C470.03 439.27 469.02 439.44 469.01 439.57Z" fill="#3BB0A4"/>
<path d="M190.53 361.4H191.75C191.09 362.34 190.76 361.44 190.53 361.4Z" fill="#B8E1DA"/>
<path d="M406.72 340.63C404.29 340.54 401.83 340.71 399.39 340.63C400.25 338.17 397.17 338.36 396.95 337.34C395.74 331.7 400.17 324.31 401.29 318.71C403.79 306.2 404.51 288.6 400.65 276.47C399.08 271.54 392.49 263.96 396.29 259.97C403.94 251.93 410.57 270.41 412.16 275.95C416.01 289.32 414.82 306.44 412.47 320.11C411.23 327.29 408.69 333.7 406.72 340.62V340.63Z" fill="#1D8179"/>
<path d="M429.92 341.85C429.11 341.81 428.28 341.91 427.48 341.85C428.43 337.54 423.48 340.49 421.9 338.28C419.45 334.85 426.77 317.81 427.89 312.34C429.7 303.5 430.73 294.26 429.77 285.21C429.09 278.76 418.32 255.15 432.78 260.23C436.05 261.38 440.59 280.75 440.96 285.02C442.76 305.65 437.63 323.16 429.92 341.86V341.85Z" fill="#1D8179"/>
<path d="M447.32 340.33C443.37 336.39 450.69 322.53 452.06 316.97C453.57 310.82 455.52 301.02 455.63 294.86C455.75 288.24 451.35 270.35 452.11 266.98C453.6 260.38 461.64 260.86 463.82 269.47C468.29 287.07 467.19 310.26 461.34 327.47C459.69 332.32 454.31 347.29 447.32 340.33Z" fill="#1D8179"/>
<path d="M247.01 310.97C246.68 310.83 246.53 309.33 245.8 308.93C240.27 305.91 236.2 304.29 234.23 297.54C232.1 290.25 232.32 281.54 236.95 275.3C249.64 258.17 278.42 273.2 272.04 295.73C269.59 304.36 255.62 314.67 247.02 310.97H247.01ZM251.32 274.89C235.47 276.59 236.61 300.6 249.84 302.7C271.88 306.2 269.4 272.95 251.32 274.89Z" fill="#FEFCF3"/>
<path d="M374.96 340.63C372.68 342.69 366.24 342.69 363.97 340.63C367.62 340.77 371.31 340.5 374.96 340.63Z" fill="#B1DED7"/>
<path d="M341.98 362.62C338.37 369.39 345.31 368.01 345.72 369.38C347.26 374.53 344.32 373.02 342.91 373.62C338.19 375.62 348.29 377.54 349.4 379.31C352.77 384.66 352.59 392.45 346.11 395.3C340.15 394.07 333.93 394.1 327.87 394.3C326.15 394.36 321.44 395.84 321.22 395.58C318.66 392.57 325.13 390.34 327.02 389.76C328.51 389.31 331.94 389.71 332.19 389.45C332.6 389.03 331.64 386.25 332.48 384.87C332.88 384.21 335.01 384.28 335.65 382.58C336.07 381.47 337.56 370.38 337.1 369.93H332.2C331.46 362.74 336.18 362.67 341.97 362.61L341.98 362.62ZM341.98 382.17C340.04 380.23 336.39 383.88 338.33 385.82C340.27 387.76 343.92 384.11 341.98 382.17Z" fill="#B8E1DA"/>
<path d="M351.75 365.07C352.71 366.21 349.73 372.22 346.88 369.94C345.6 368.92 350.68 363.79 351.75 365.07Z" fill="#B8E1DA"/>
<path d="M349.3 360.18H346.87V363.83H349.3V360.18Z" fill="#B8E1DA"/>
<path d="M355.41 345.52L354.81 349.17C353.52 348.06 352.58 347.32 352.98 345.52H355.41Z" fill="#B8E1DA"/>
<path d="M334.04 376.05C334.83 376.46 334.83 376.86 334.04 377.27V376.05Z" fill="#B8E1DA"/>
<path d="M251.32 274.89C269.4 272.95 271.88 306.2 249.84 302.7C236.61 300.6 235.47 276.59 251.32 274.89Z" fill="#116057"/>
<path d="M341.98 382.17C343.92 384.11 340.27 387.76 338.33 385.82C336.39 383.88 340.04 380.23 341.98 382.17Z" fill="#B1DED7"/>
</g>
</g>
<defs>
<clipPath id="clip0_504_7106">
<rect width="669" height="516" fill="white"/>
</clipPath>
<clipPath id="clip1_504_7106">
<rect width="1135.48" height="512" fill="white" transform="translate(101)"/>
</clipPath>
</defs>
</svg>
