<svg width="669" height="516" viewBox="0 0 669 516" fill="none" xmlns="http://www.w3.org/2000/svg">
<g clip-path="url(#clip0_504_11439)">
<rect width="669" height="516" fill="#D9D9D9" fill-opacity="0.6"/>
<g clip-path="url(#clip1_504_11439)">
<path d="M439.795 183.536C440.07 183.579 440.375 183.492 440.65 183.536C447.825 184.507 460.639 192.202 467.858 192.956C470.83 193.26 472.859 192.129 475.468 192.115C497.067 191.927 517.708 193.666 538.77 198.173C617.683 215.071 718.674 291.372 777.192 346.181C777.801 346.761 778.337 347.341 778.917 347.906C779.207 348.181 779.482 348.486 779.772 348.761C780.12 349.094 781.366 349.181 782.062 349.877C785.454 353.181 788.774 357.761 792.673 360.804C794.325 362.311 795.558 363.76 796.978 365.108C797.587 365.688 798.123 366.282 798.703 366.833C798.993 367.108 799.268 367.413 799.558 367.688C800.167 368.253 800.703 368.862 801.283 369.412C801.573 369.688 801.849 369.992 802.138 370.267C802.428 370.543 802.704 370.847 802.994 371.123C803.284 371.398 803.559 371.702 803.849 371.978C804.139 372.253 804.429 372.557 804.704 372.833C804.98 373.108 805.284 373.412 805.559 373.688C807.27 375.412 808.995 377.137 810.72 378.847C811.01 379.137 811.285 379.427 811.575 379.702C811.865 379.977 812.14 380.282 812.43 380.557C812.72 380.832 812.996 381.137 813.286 381.412C814.706 382.774 816.446 383.861 817.591 385.716C853.351 415.99 888.111 493.929 900.215 538.884C910.362 576.564 914.261 616.098 910.55 655.053C910.492 655.619 910.608 656.213 910.55 656.778C907.999 681.734 902.375 706.588 893.33 729.92C865.078 802.874 799.08 855.437 721.181 865.886C698.655 868.9 677.318 868.654 654.908 865.031C562.325 850.06 493.327 789.671 430.677 724.775C413.529 707.008 397.497 688.385 379.479 671.415L368.927 663.691C344.139 643.894 313.525 631.054 283.07 647.329C282.852 647.445 282.432 647.213 282.215 647.329C281.664 648.575 280.823 649.286 279.634 649.909C279.402 650.025 278.982 649.778 278.779 649.909L276.199 652.488C274.952 653.952 273.691 654.865 272.749 655.937C272.329 656.416 271.72 657.648 271.024 658.517C270.778 658.836 270.401 659.068 270.169 659.372C252.02 690.864 261.037 719.79 285.665 743.702C285.954 743.977 286.23 744.282 286.52 744.557C305.03 759.542 327.107 768.832 348.488 778.976C348.749 779.063 349.097 778.889 349.343 778.976C359.389 782.541 369.854 785.657 379.465 790.164C379.726 790.237 380.059 790.092 380.32 790.164C387.727 792.367 395.25 794.729 402.701 797.048C440.781 808.917 494.559 823.873 521.477 854.698C524.565 857.046 526.753 860.379 529.218 863.306C529.478 863.61 529.826 863.857 530.073 864.161C538.045 873.741 544.815 883.247 548.178 895.537C555.672 922.927 536.61 915.855 521.013 907.203C506.692 899.276 496.11 892.247 480.165 886.523C479.411 886.247 478.831 885.798 478.44 885.668C478.179 885.581 477.831 885.755 477.585 885.668C475.57 884.987 473.569 884.552 471.555 883.943C415.341 866.857 350.735 873.248 297.696 852.104C297.377 851.973 297.101 851.35 296.841 851.249C294.608 851.089 292.405 850.379 290.361 849.553C262.327 838.235 231.292 822.873 209.056 802.207C208.751 801.932 208.491 801.627 208.201 801.352C206.737 800.28 205.171 799.222 203.895 797.903C203.62 797.613 203.316 797.338 203.04 797.048C200.692 795.454 198.46 793.599 196.503 791.555C149.233 742.094 136.738 673.574 151.393 607.736C166.048 541.898 209.969 491.973 277.054 476.93C279.127 476.466 282.07 475.292 283.94 475.205C284.49 475.176 285.114 475.147 285.665 475.205C286.578 475.249 287.549 474.452 288.245 474.35C288.781 474.263 289.419 474.437 289.97 474.35C315.96 470.249 341.559 471.35 367.434 475.205C421.589 483.263 471.613 508.436 515.403 540.246C556.136 569.839 593.882 608.273 640.557 628.518C642.369 629.301 649.168 632.417 650.356 632.547C651.835 632.721 651.893 631.257 652.328 630.953C652.821 627.46 654.067 622.721 654.125 619.33C654.154 617.185 653.27 615.751 653.197 614.606C653.125 613.461 653.313 612.287 653.197 611.157C652.545 605.055 651.342 598.998 649.748 593.085C643.341 569.216 629.12 548.811 612.32 531.116C546.453 461.728 453.609 455.583 373.739 410.802C343.791 394.006 318.337 372.485 283.969 364.587C249.6 356.688 178.412 351.355 154.799 328.501C147.726 321.661 135.375 301.821 146.189 294.01C154.118 288.3 165.424 295.56 173.759 297.908C172.904 295.908 178.47 287.807 179.775 289.314V298.778C185.109 300.198 190.371 302.024 196.14 303.082C196.097 300.43 197.112 296.908 198.503 294.72C198.938 294.039 199.155 292.328 200.431 293.618C200.808 293.995 202.055 302.415 203.026 303.951C209.839 304.98 216.695 306.589 223.682 306.531L258.109 309.98C258.601 309.879 259.268 310.038 259.834 309.98C261.993 309.777 261.979 309.98 263.283 309.98C269.56 309.951 276.416 309.748 282.649 309.11C287.433 308.632 306.668 306.502 308.046 301.372C273.213 285.445 234.22 280.923 198.489 266.764C185.327 261.547 166.41 253.33 155.698 244.577C155.379 244.316 155.133 243.983 154.843 243.722L153.118 241.997C152.828 241.707 152.538 241.417 152.263 241.142C152.161 241.041 151.233 241.417 150.755 240.954C145.189 235.548 146.189 220.433 151.668 214.723L159.148 208.433C159.438 208.158 159.713 207.854 160.003 207.578C168.947 198.854 187.211 199.26 198.735 198.115C199.3 198.057 199.895 198.173 200.46 198.115C210.781 197.086 221.189 196.144 231.451 194.666C265.124 189.854 296.928 178.579 331.296 174.869C358.026 171.985 385.93 172.087 412.384 176.84C421.632 178.507 430.735 180.927 439.751 183.478L439.795 183.536Z" fill="#FDF6E7"/>
<path d="M331.354 174.928C296.985 178.638 265.182 189.912 231.509 194.724C232.002 197.448 230.161 196.173 228.552 196.463C221.623 197.68 213.23 198.506 206.157 199.072C204.562 199.202 201.634 199.55 200.532 198.173C199.967 198.231 199.373 198.115 198.807 198.173C199.286 200.782 197.488 199.825 195.836 199.898C183.065 200.376 171.556 201.434 160.075 207.636C159.786 207.926 159.51 208.216 159.22 208.491C155.451 212.057 153.422 215.259 151.001 219.636C150.624 220.332 149.102 220.274 148.885 221.129C147.522 226.23 149.16 236.737 152.349 241.186C152.639 241.476 152.915 241.766 153.205 242.041C153.741 242.577 154.495 243.389 154.929 243.765C155.234 244.026 155.48 244.374 155.785 244.62C175.644 256.171 197.517 265.547 219.434 272.619C243.482 280.387 269.777 284.358 293.477 293.256C295.666 294.082 306.393 298.676 307.596 299.618C308.306 300.169 308.35 300.589 308.118 301.415C313.003 303.647 330.702 310.98 332.079 315.792C333.195 319.661 328.151 320.444 325.092 320.168C320.468 319.748 311.321 315.792 305.581 314.719C291.52 312.111 277.489 311.864 263.356 310.893C262.211 310.821 261.051 310.966 259.906 310.893C258.761 310.821 257.601 310.966 256.456 310.893C246.599 310.299 236.583 309.357 226.755 308.285C225.131 308.111 223.276 309.328 223.754 306.589C216.767 306.633 209.911 305.038 203.098 304.009C200.822 303.662 198.72 303.604 196.213 303.154C190.458 302.096 185.182 300.27 179.862 298.85C178.311 298.444 176.006 298.604 173.832 297.995C165.497 295.647 154.176 288.372 146.261 294.097C135.433 301.894 147.798 321.733 154.872 328.588C178.485 351.428 251.165 357.109 284.041 364.674C316.917 372.239 343.864 394.107 373.811 410.889C453.681 455.67 546.525 461.815 612.392 531.203C629.193 548.898 643.413 569.303 649.82 593.172C652.429 592.781 652.675 598.983 652.994 600.752C653.531 603.824 655.111 608.592 653.27 611.244C653.386 612.374 653.197 613.548 653.27 614.693L654.98 612.113C654.719 617.765 655.545 625.026 654.139 630.475C653.864 631.576 652.617 630.881 652.4 631.04C651.965 631.359 651.893 632.808 650.429 632.634C649.24 632.489 642.442 629.388 640.63 628.605C593.954 608.36 556.208 569.927 515.476 540.334C471.685 508.523 421.661 483.35 367.506 475.293C366.607 476.901 364.418 476.061 363.027 475.916C344.487 473.945 326.411 472.641 307.639 473.539C302.146 473.8 295.202 476.437 290.027 474.438C289.477 474.525 288.853 474.351 288.302 474.438C288.723 477.93 286.52 475.38 285.722 475.293C285.186 475.235 284.548 475.264 283.997 475.293C284.751 477.8 278.315 478.684 277.112 477.017C210.027 492.06 166.149 541.783 151.451 607.824C152.523 610.577 151.48 615.649 150.972 618.577C138.869 689.212 154.654 745.586 203.084 797.135C203.359 797.425 203.663 797.7 203.939 797.99C206.403 797.932 207.012 800.222 208.244 801.439C208.534 801.729 208.809 802.019 209.099 802.294C216.927 806.57 223.479 813.106 230.842 818.047C251.281 831.771 274.14 842.278 296.898 851.35C297.174 851.452 297.449 852.09 297.754 852.205C298.522 850.553 300.508 851.843 301.638 852.176C357.113 868.886 414.384 864.915 467.307 881.03C468.829 881.494 472.149 881.741 471.612 884.045C473.627 884.653 475.628 885.088 477.642 885.769L478.077 884.929L478.498 885.769C478.875 885.9 479.469 886.364 480.223 886.624C481.034 884.827 482.875 886.32 483.991 886.726C501.053 892.986 513.316 903.493 528.435 910.276C532.943 912.305 543.713 916.493 547.351 911.986C552.99 905.015 541.394 880.378 536.9 873.422C534.958 870.422 531.261 867.814 530.16 864.248C529.899 863.944 529.551 863.698 529.304 863.393C525.811 861.422 524.071 857.669 521.564 854.785C494.631 823.96 440.867 809.004 402.788 797.135C402.02 798.802 400.034 797.497 398.903 797.164C395.41 796.106 391.815 795.077 388.336 793.947C385.959 793.179 381.987 792.15 380.407 790.251C380.146 790.179 379.812 790.324 379.552 790.251C370.651 787.614 361.055 785.324 352.372 781.701C350.981 781.121 349.995 780.513 349.415 779.063C349.155 778.976 348.807 779.15 348.56 779.063C327.977 771.919 302.508 759.499 286.592 744.644C286.302 744.369 286.027 744.065 285.737 743.789C264.965 728.5 255.673 703.052 261.181 677.502C262.906 669.517 265.443 665.677 270.256 659.459C270.488 659.155 270.864 658.909 271.111 658.604C271.111 657.329 271.618 656.43 272.836 656.025C273.764 654.952 275.039 654.054 276.286 652.576C277.228 651.46 275.72 651.865 278.866 649.996C279.069 649.866 279.504 650.112 279.721 649.996C279.228 647.953 280.91 648.155 282.301 647.416C282.519 647.3 282.939 647.532 283.157 647.416C282.678 645.271 284.287 645.663 285.432 645.011C317.554 626.519 355.982 649.329 379.552 671.517C397.569 688.487 413.601 707.11 430.75 724.877C493.399 789.773 562.398 850.162 654.98 865.132C655.835 863.799 658.358 864.118 659.735 864.219C680.753 865.756 695.22 867.596 716.774 865.364C718.151 865.219 720.355 864.379 721.253 865.988C799.152 855.553 865.136 802.975 893.402 730.022L910.622 656.822C910.68 656.257 910.564 655.662 910.622 655.097C908.332 650.837 910.506 645.402 910.666 640.938C911.942 604.838 906.491 577.709 899.983 543.087C899.751 541.826 898.664 539.739 900.287 538.928C888.183 493.973 853.423 416.034 817.663 385.76C817.619 385.731 817.88 386.992 816.793 386.224C816.068 385.716 813.372 382.47 813.372 381.456C813.082 381.18 812.807 380.876 812.517 380.601L811.662 379.746C811.372 379.456 811.096 379.166 810.807 378.891C808.067 378.615 806.617 375.978 805.646 373.731C805.356 373.442 805.066 373.152 804.791 372.876L803.936 372.021C803.646 371.731 803.37 371.442 803.08 371.166L802.225 370.311C801.935 370.036 801.66 369.732 801.37 369.456L799.645 367.732C799.355 367.456 799.08 367.152 798.79 366.877L797.065 365.152C795.644 363.819 794.412 362.355 792.76 360.848C789.527 357.906 785.295 354.935 781.816 351.66C780.83 350.747 780.134 350.312 779.859 348.79C779.569 348.515 779.293 348.211 779.003 347.935L777.279 346.211C718.76 291.401 617.77 215.1 538.857 198.202C538.031 199.854 535.958 198.695 534.697 198.506C514.475 195.362 499.299 194.304 479.063 193.941C463.379 193.666 457.479 190.768 443.1 185.884C441.694 185.405 440.288 185.739 440.722 183.565C440.447 183.521 440.143 183.608 439.867 183.565C405.267 177.536 381.074 173.594 344.719 174.928C340.675 175.072 335.398 177.319 331.412 174.957L331.354 174.928ZM482.194 197.492C485.006 197.985 494.675 202.564 498.038 204.042C606.594 251.446 746.316 341.414 814.401 439.352C861.135 506.581 891.184 602.23 820.243 665.01C748.621 728.399 644.152 694.849 574.646 646.344C488.311 586.085 388.858 486.452 271.937 518.697C184.413 542.841 149.566 660.648 192.618 735.703C226.827 795.353 292.506 812.569 355.431 826.786C404.063 837.771 482.788 844.655 520.709 877.538C523.187 879.683 539.364 894.479 528.014 894.421C525.709 894.421 517.447 885.856 514.606 883.653C470.873 849.713 398.816 845.496 345.763 833.018C282.925 818.25 223.783 800.773 187.588 743.326C136.042 661.561 177.528 532.972 274.532 509.233C351.938 490.292 429.648 529.291 491.37 572.144C557.179 617.838 610.494 675.575 694.277 688.531C781.395 701.994 861.802 651.17 852.93 556.594C846.451 487.553 798.935 427.048 750.969 380.586C672.433 304.488 574.733 250.852 476.802 203.781C474.236 198.985 477.266 196.651 482.194 197.506V197.492ZM294.333 212.796C294.637 213.056 294.898 213.39 295.188 213.651C306.494 219.621 310.64 236.099 304.653 247.215C284.258 285.141 231.176 253.736 252.151 219.679C249.962 217.477 252.397 218.158 253.876 217.1C254.818 216.419 255.18 215.709 255.601 215.375C257.992 210.129 268.226 205.781 273.677 207.636C274.242 207.578 274.836 207.636 275.401 207.636C279.823 205.245 288.071 207.912 292.086 210.346C293.448 211.173 293.68 212.245 294.347 212.81L294.333 212.796ZM180.934 221.578C184.703 222.187 188.023 224.752 185.776 228.592C183.268 232.882 179.34 230.78 177.238 232.114C175.296 233.36 176.499 243.664 168.657 239.896C160.815 236.128 169.324 219.694 180.92 221.578H180.934ZM513.562 270.185C504.3 278.764 483.89 262.344 497.516 253.707C510.431 245.519 521.941 262.417 513.562 270.185ZM567.413 273.243C571.544 273.953 578.386 278.677 579.198 282.967C582.503 300.502 554.889 298.879 551.859 283.575C550.366 276.011 561.194 272.17 567.413 273.243ZM453.797 292.068C462.277 293.271 455.087 312.024 453.116 316.893C434.359 363.384 376.203 372.963 332.354 361.08C327.063 359.645 318.265 358.08 325.759 352.138C358.446 357.964 393.366 360.572 421.98 340.849C437.78 329.95 445.912 312.995 449.724 294.59C450.753 293.126 451.855 291.807 453.783 292.068H453.797ZM499.429 317.11C508.344 318.922 517.128 334.516 512.113 342.298C507.097 350.08 493.08 345.283 488.166 338.704C480.397 328.298 485.789 314.342 499.444 317.11H499.429ZM574.646 350.182C562.89 361.587 538.871 340.399 545.249 325.516C553.309 306.734 589.272 335.965 574.646 350.182ZM639.716 324.864C646.805 326.096 657.56 333.342 659.082 340.776C662.605 357.891 645.239 357.196 634.889 350.341C622.235 341.95 621.336 321.69 639.702 324.878L639.716 324.864ZM694.799 365.282C708.439 367.905 710.744 395.107 694.103 389.238C680.014 384.267 679.898 362.413 694.799 365.282ZM374.565 387.673C376.71 386.441 392.438 389.064 396.294 389.238C419.153 390.223 442.592 386.484 463.886 378.427C467.655 377.007 472.946 372.413 476.787 374.152C488.166 379.296 463.741 388.383 460.422 389.586C436.751 398.209 409.441 401.02 384.538 396.687C381.653 396.18 372.579 394.962 372.666 391.368C372.666 390.847 374.29 387.832 374.58 387.673H374.565ZM622.583 413.86C617.219 408.571 613.146 401.078 615.842 393.513C622.641 374.456 656.908 404.687 645.051 417.556C639.224 423.874 627.743 418.932 622.597 413.86H622.583ZM433.968 420.353C435.751 417.237 448.565 418.788 452.319 418.498C475.164 416.701 498.646 408.773 515.969 393.499C518.752 391.05 519.375 385.977 525.231 389.209C531.711 392.789 515.287 405.092 512.388 407.136C496.545 418.28 474.265 425.99 454.899 427.106C451.145 427.323 429.141 428.787 433.968 420.353ZM565.688 416.092C574.936 417.672 581.633 431.091 572.312 436.932C557.701 446.076 541.93 412.02 565.688 416.092ZM741.272 423.831C752.854 425.845 765.842 448.627 752.738 453.801C736.822 460.076 722.776 432.874 731.545 424.874C733.647 422.961 738.489 423.353 741.286 423.831H741.272ZM692.219 453.076C709.628 455.859 715.658 489.379 694.741 484.118C677.767 479.858 673.52 450.076 692.219 453.076ZM634.556 476.322C643.529 477.988 656.27 498.524 644.949 505.233C626.265 516.32 610.725 471.872 634.556 476.322ZM798.935 479.742C808.342 481.539 811.517 497.871 809.719 505.625C809.241 507.683 807.893 509.016 805.849 509.494C796.34 511.74 788.179 502.944 787.86 493.901C787.599 486.553 789.556 477.93 798.935 479.742ZM720.688 519.436C725.805 514.508 735.111 518.421 739.358 522.972C750.042 534.377 749.389 567.695 728.951 556.623C718.485 550.956 711.788 527.986 720.688 519.45V519.436ZM285.925 536.551C299.942 538.087 295.014 550.507 285.345 554.449C274.082 559.057 257.282 552.579 270.705 541.536C274.706 538.247 280.779 535.986 285.925 536.551ZM358.258 537.421C366.52 538.826 373.652 546.913 365.723 553.942C355.909 562.637 332.76 555.55 336.891 543.189C338.732 537.696 353.315 536.58 358.258 537.421ZM803.24 544.275C821.939 547.898 818.199 598.099 797.92 586.622C786.686 580.26 786.382 541.015 803.24 544.275ZM421.936 563.217C432.33 564.68 453.71 581.709 440.969 591.303C430.025 599.534 400.744 573.564 415.08 564.565C417.472 563.072 419.182 562.84 421.936 563.231V563.217ZM230.335 597.143C218.898 607.911 204.982 598.346 216.028 584.129C219.681 579.419 227.958 572.419 233.669 577.622C239.743 583.158 235.177 592.563 230.321 597.128L230.335 597.143ZM701.641 580.419C717.34 581.752 713.035 610.78 701.873 611.273C685.783 611.997 684.058 578.926 701.641 580.419ZM273.981 587.419C281.055 580.071 305.712 578.549 303.769 592.65C302.494 601.911 288.592 604.592 281.055 603.418C274.068 602.331 268.56 593.056 273.981 587.419ZM371.13 594.201C380.291 595.172 397.178 605.635 389.872 615.939C383.32 625.185 364.578 619.606 359.026 611.49C352.025 601.244 360.475 593.056 371.115 594.201H371.13ZM771.408 613.954C781.337 616.084 778.09 629.272 773.249 635.228C765.624 644.605 746.751 647.692 748.78 631.402C749.839 622.939 762.479 612.026 771.408 613.939V613.954ZM501.937 622.606C512.779 623.432 535.059 641.648 521.158 649.952C510.881 656.097 493.906 643.619 491.805 633.62C490.442 627.098 495.588 622.113 501.937 622.606ZM882.835 647.967C869.252 659.3 863.193 620.722 881.327 626.345C888.43 628.548 887.734 643.88 882.835 647.967ZM245.033 632.127C252.861 638.446 239.38 663.082 230.248 649.909C223.377 639.996 237.322 625.924 245.033 632.127ZM461.074 670.357C453.087 678.415 431.895 667.676 429.662 657.068C423.821 629.301 467.336 645.982 463.524 664.619C463.306 665.691 461.726 669.705 461.074 670.357ZM201.634 662.169C210.056 664.068 213.027 688.879 204.765 693.328C188.487 702.095 180.137 657.329 201.634 662.169ZM603.101 707.356C595.041 715.341 566.92 702.632 572.805 689.545C578.343 677.227 614.741 695.82 603.101 707.356ZM855.772 694.878C865.976 695.936 865.063 708.385 861.99 715.356C858.917 722.326 847.872 731.848 840.29 727.573C826.911 720.037 842.958 693.559 855.772 694.893V694.878ZM532.493 724.544C527.217 730.196 516.664 725.384 511.692 721.341C501.864 713.356 497.965 697.588 515.911 699.922C524.869 701.095 540.48 715.979 532.493 724.529V724.544ZM241.526 721.674C256.369 735.819 242.816 752.572 228.929 737.282C217.202 724.37 227.392 708.211 241.526 721.674ZM673.259 720.732C691.944 723.442 692.871 743.992 671.882 742.775C666.635 742.471 654.734 738.63 653.429 732.79C650.747 720.703 664.605 719.472 673.259 720.718V720.732ZM776.568 723.297C781.917 724.254 784.57 729.413 783.048 734.529C780.482 743.152 748.911 747.181 752.419 731.457C754.013 724.341 770.698 722.24 776.568 723.297ZM610.783 761.252C619.176 769.643 613.32 780.136 602.072 780.788C591.417 781.397 568.732 770.658 575.632 757.774C581.372 747.036 603.985 754.456 610.783 761.267V761.252ZM812.676 768.875C815.518 769.151 820.91 771.527 821.78 774.455C826.592 790.686 786.657 805.062 786.599 787.193C786.556 776.31 803.066 767.948 812.676 768.875ZM292.811 769.774C305.523 771.354 319.671 790.744 301.551 792.686C294.449 793.454 282.649 789.918 279.968 782.628C276.793 774.006 284.722 768.759 292.811 769.774ZM714.586 774.948C722.805 776.063 730.154 780.092 727.965 789.599C725.24 801.396 685.986 805.975 687.044 786.556C687.696 774.629 705.671 773.745 714.586 774.948ZM360.838 800.744C364.708 801.367 374.797 806.99 374.435 811.251C373.942 816.859 361.606 816.497 357.678 815.96C344.69 814.178 342.632 797.831 360.838 800.758V800.744ZM425.401 817.076C438.577 819.757 432.17 837.554 416.819 828.25C407.905 822.844 418.153 815.613 425.401 817.076Z" fill="#26B4AD"/>
<path d="M308.104 301.43C306.727 306.56 287.491 308.69 282.708 309.168C276.475 309.806 269.618 309.994 263.342 310.038V310.893C277.475 311.878 291.506 312.11 305.567 314.719C311.322 315.791 320.454 319.748 325.078 320.168C328.137 320.443 333.166 319.661 332.065 315.791C330.688 310.98 312.989 303.647 308.104 301.415V301.43Z" fill="#0F8B89"/>
<path d="M155.756 244.635C166.468 253.388 185.385 261.605 198.547 266.822C234.278 280.981 273.271 285.503 308.103 301.43C308.321 300.604 308.292 300.183 307.582 299.633C306.378 298.705 295.652 294.097 293.463 293.271C269.777 284.372 243.483 280.401 219.42 272.634C197.503 265.547 175.629 256.171 155.77 244.635H155.756Z" fill="#04958C"/>
<path d="M440.665 183.536C440.231 185.695 441.651 185.377 443.043 185.855C457.422 190.724 463.307 193.623 479.006 193.913C499.227 194.275 514.418 195.318 534.64 198.478C535.901 198.68 537.974 199.825 538.8 198.173C517.752 193.666 497.096 191.927 475.498 192.116C472.889 192.144 470.859 193.275 467.888 192.956C460.669 192.202 447.855 184.507 440.68 183.536H440.665Z" fill="#04958C"/>
<path d="M290.042 474.394C295.217 476.394 302.16 473.756 307.654 473.495C326.426 472.597 344.487 473.887 363.041 475.872C364.418 476.017 366.622 476.857 367.521 475.249C341.646 471.394 316.047 470.278 290.057 474.394H290.042Z" fill="#04958C"/>
<path d="M331.354 174.928C335.341 177.276 340.602 175.044 344.661 174.899C381.001 173.566 405.209 177.522 439.81 183.536C430.793 180.986 421.69 178.565 412.442 176.899C385.988 172.145 358.084 172.044 331.354 174.928Z" fill="#04958C"/>
<path d="M223.755 306.589C223.277 309.328 225.132 308.111 226.755 308.284C236.583 309.357 246.6 310.299 256.457 310.893C256.703 309.995 257.486 310.183 258.182 310.038L223.755 306.589Z" fill="#04958C"/>
<path d="M203.099 304.009C202.127 302.473 200.881 294.053 200.504 293.676C199.228 292.387 199.011 294.097 198.576 294.778C197.184 296.966 196.17 300.488 196.213 303.14C198.721 303.604 200.823 303.662 203.099 303.995V304.009Z" fill="#71D2CA"/>
<path d="M160.062 207.636C171.542 201.419 183.051 200.376 195.822 199.897C197.474 199.839 199.272 200.781 198.794 198.173C187.27 199.318 169.005 198.912 160.062 207.636Z" fill="#04958C"/>
<path d="M173.832 297.981C176.007 298.589 178.311 298.43 179.862 298.836V289.372C178.543 287.865 172.977 295.966 173.832 297.966V297.981Z" fill="#71D2CA"/>
<path d="M200.518 198.173C201.62 199.55 204.548 199.202 206.142 199.071C213.216 198.521 221.623 197.695 228.538 196.463C230.147 196.173 231.988 197.448 231.495 194.724C221.232 196.187 210.824 197.129 200.503 198.173H200.518Z" fill="#04958C"/>
<path d="M159.206 208.491L151.726 214.781C146.233 220.476 145.247 235.592 150.813 241.012C151.292 241.475 152.219 241.099 152.321 241.2C149.132 236.751 147.494 226.259 148.856 221.143C149.088 220.288 150.596 220.331 150.973 219.65C153.393 215.274 155.437 212.071 159.192 208.506L159.206 208.491Z" fill="#04958C"/>
<path d="M277.126 476.974C278.33 478.64 284.78 477.771 284.012 475.249C282.142 475.336 279.199 476.51 277.126 476.974Z" fill="#04958C"/>
<path d="M259.907 310.038V310.893C261.052 310.966 262.211 310.821 263.356 310.893V310.038C262.066 310.038 262.081 309.836 259.907 310.038Z" fill="#04958C"/>
<path d="M258.181 310.039C257.486 310.183 256.703 309.995 256.456 310.894C257.601 310.966 258.761 310.821 259.906 310.894V310.039C259.341 310.097 258.674 309.937 258.181 310.039Z" fill="#0F8B89"/>
<path d="M285.737 475.249C286.534 475.336 288.738 477.872 288.317 474.394C287.622 474.509 286.65 475.292 285.737 475.249Z" fill="#04958C"/>
<path d="M154.901 243.78C154.481 243.403 153.727 242.592 153.176 242.056L154.901 243.78Z" fill="#04958C"/>
<path d="M482.195 197.492C477.266 196.637 474.237 198.97 476.802 203.767C574.734 250.838 672.433 304.473 750.97 380.572C798.921 427.048 846.452 487.553 852.931 556.58C861.802 651.156 781.396 701.994 694.278 688.516C610.494 675.56 557.165 617.824 491.37 572.13C429.663 529.276 351.938 490.278 274.532 509.219C177.529 532.972 136.042 661.546 187.588 743.311C223.798 800.744 282.94 818.236 345.763 833.004C398.817 845.467 470.874 849.699 514.606 883.639C517.448 885.842 525.725 894.392 528.015 894.407C539.365 894.465 523.188 879.668 520.709 877.524C482.789 844.641 404.064 837.757 355.432 826.772C292.507 812.555 226.828 795.353 192.618 735.688C149.567 660.633 184.414 542.812 271.938 518.682C388.858 486.437 488.312 586.057 574.647 646.33C644.138 694.835 748.607 728.384 820.244 664.996C891.185 602.215 861.135 506.567 814.402 439.338C746.317 341.414 606.595 251.447 498.053 204.043C494.69 202.564 485.007 197.985 482.209 197.492H482.195Z" fill="#0F8B89"/>
<path d="M275.402 207.636C274.837 207.636 274.243 207.578 273.677 207.636C266.386 208.332 261.182 211.013 255.602 215.375C255.181 215.708 254.819 216.418 253.877 217.1C253.775 218.302 252.601 218.969 252.152 219.679C231.177 253.736 284.259 285.14 304.654 247.214C308.496 233.258 305.611 223.041 295.189 213.65C294.884 213.375 294.638 213.042 294.334 212.795C287.622 209.853 282.984 207.448 275.402 207.636ZM266.227 226.853C275.518 217.505 295.348 228.983 286.593 242.49C276.837 257.547 253.471 239.693 266.227 226.853Z" fill="#FAF6E8"/>
<path d="M453.798 292.068C451.87 291.792 450.769 293.126 449.74 294.589C445.927 313.009 437.795 329.965 421.995 340.848C393.381 360.572 358.462 357.964 325.774 352.138C318.266 358.065 327.079 359.645 332.37 361.079C376.233 372.977 434.374 363.398 453.132 316.893C455.103 312.023 462.278 293.256 453.813 292.068H453.798Z" fill="#0F8B89"/>
<path d="M374.566 387.672C374.276 387.832 372.667 390.846 372.652 391.368C372.566 394.962 381.654 396.194 384.524 396.687C409.427 401.02 436.737 398.194 460.408 389.585C463.742 388.368 488.152 379.296 476.774 374.151C472.918 372.412 467.641 377.006 463.873 378.426C442.579 386.47 419.154 390.223 396.28 389.238C392.424 389.064 376.697 386.441 374.551 387.672H374.566Z" fill="#0F8B89"/>
<path d="M433.968 420.353C429.156 428.773 451.145 427.309 454.9 427.106C474.266 425.99 496.545 418.266 512.389 407.136C515.288 405.093 531.711 392.803 525.232 389.209C519.39 385.977 518.752 391.05 515.969 393.499C498.647 408.774 475.164 416.701 452.319 418.498C448.565 418.788 435.737 417.251 433.968 420.353Z" fill="#0F8B89"/>
<path d="M574.647 350.182C589.287 335.965 553.309 306.734 545.25 325.516C538.872 340.399 562.891 361.587 574.647 350.182Z" fill="#71D2CA"/>
<path d="M639.717 324.864C621.351 321.675 622.236 341.935 634.905 350.326C645.255 357.196 662.62 357.877 659.098 340.761C657.561 333.327 646.82 326.081 639.732 324.849L639.717 324.864Z" fill="#71D2CA"/>
<path d="M622.583 413.86C627.744 418.932 639.21 423.888 645.037 417.555C656.894 404.701 622.627 374.456 615.828 393.513C613.132 401.078 617.205 408.57 622.569 413.86H622.583Z" fill="#71D2CA"/>
<path d="M499.43 317.11C485.775 314.342 480.397 328.298 488.152 338.703C493.066 345.283 506.837 350.456 512.099 342.297C517.361 334.138 508.33 318.907 499.415 317.11H499.43Z" fill="#71D2CA"/>
<path d="M634.556 476.322C610.726 471.873 626.279 516.335 644.95 505.234C656.271 498.509 643.515 477.989 634.556 476.322Z" fill="#71D2CA"/>
<path d="M567.414 273.242C561.195 272.17 550.353 275.996 551.86 283.575C554.89 298.879 582.504 300.502 579.199 282.966C578.387 278.677 571.545 273.952 567.414 273.242Z" fill="#71D2CA"/>
<path d="M565.689 416.092C541.916 412.02 557.702 446.062 572.313 436.932C581.634 431.091 574.951 417.686 565.689 416.092Z" fill="#71D2CA"/>
<path d="M513.562 270.184C521.941 262.416 510.431 245.533 497.516 253.707C483.89 262.344 504.3 278.764 513.562 270.184Z" fill="#71D2CA"/>
<path d="M180.935 221.578C169.324 219.694 161.004 236.215 168.672 239.896C176.34 243.577 175.296 233.36 177.253 232.114C179.34 230.78 183.283 232.882 185.791 228.592C188.038 224.737 184.718 222.187 180.95 221.578H180.935Z" fill="#0F8B89"/>
<path d="M275.402 207.636C282.983 207.448 287.622 209.854 294.333 212.796C293.666 212.23 293.449 211.158 292.072 210.332C288.056 207.912 279.809 205.245 275.387 207.622L275.402 207.636Z" fill="#04958C"/>
<path d="M295.202 213.65C305.625 223.041 308.509 233.258 304.668 247.214C310.64 236.099 306.494 219.621 295.202 213.65Z" fill="#04958C"/>
<path d="M273.677 207.636C268.226 205.781 257.993 210.143 255.601 215.375C261.182 210.998 266.386 208.317 273.677 207.636Z" fill="#04958C"/>
<path d="M253.891 217.1C252.412 218.158 249.977 217.476 252.166 219.679C252.601 218.969 253.775 218.302 253.891 217.1Z" fill="#04958C"/>
<path d="M266.227 226.853C253.485 239.693 276.837 257.548 286.593 242.49C295.334 228.998 275.504 217.506 266.227 226.853Z" fill="#0F8B89"/>
</g>
</g>
<defs>
<clipPath id="clip0_504_11439">
<rect width="669" height="516" fill="white"/>
</clipPath>
<clipPath id="clip1_504_11439">
<rect width="770" height="742" fill="white" transform="matrix(-1 0 0 1 912 173)"/>
</clipPath>
</defs>
</svg>
