<svg width="669" height="516" viewBox="0 0 669 516" fill="none" xmlns="http://www.w3.org/2000/svg">
<g clip-path="url(#clip0_504_11362)">
<rect width="669" height="516" fill="#D9D9D9" fill-opacity="0.6"/>
<g clip-path="url(#clip1_504_11362)">
<path d="M946.537 501.554C957.307 498.851 955.627 491.523 946.589 488.82C930.607 484.022 906.799 486.62 889.934 482.688C858.818 476 826.3 474.77 795.15 470.665C793.661 470.474 778.77 466.178 778.042 465.692C776.605 464.722 776.155 464.151 775.809 462.418C774.631 456.251 776.432 446.671 774.683 439.845C802.37 439.152 830.231 440.763 857.9 439.897C866.454 439.62 875.683 439.325 884.289 438.736C887.873 438.493 898.799 437.419 901.673 436.536C904.288 435.739 907.197 427.649 902.054 426.419C868.445 422.538 834.369 425.154 800.552 424.461C794.578 421.706 774.458 425.881 771.618 420.338C768.952 415.14 769.454 400.346 765.922 394.005V392.498C793.713 386.088 821.815 380.735 849.624 374.273C869.969 369.543 893.708 365.177 913.24 358.56C918.469 356.792 927.196 354.818 926.832 347.801C926.417 339.919 915.075 342.431 909.95 343.124L758.805 375.936C756.866 368.521 744.641 354.177 743.862 347.749C743.568 345.289 744.243 346.571 745.421 346.051C781.661 329.923 818.82 312.789 854.403 295.292C862.056 291.532 900.686 272.995 903.041 267.867C904.167 265.39 903.041 261.613 900.911 260.106C894.176 255.325 879.129 265.858 871.995 267.711L734.46 331.811C731.69 331.742 718.409 315.076 718.495 312.494C718.513 311.888 718.599 311.368 719.015 310.901C749.299 289.072 782.839 269.704 811.565 245.831C815.617 242.47 828.793 233.028 824.378 227.571C821.123 223.569 815.184 227.831 811.824 229.546C791.479 239.906 769.956 257.871 750.373 270.553C735.672 280.081 720.175 288.431 705.838 298.566L690.999 282.766C696.263 277.759 701.076 272.268 706.392 267.313C743.724 232.526 786.423 201.117 822.646 165.412C828.499 159.643 838.317 151.795 834.248 142.717C828.257 138.525 816.223 149.664 811.617 153.285C773.991 182.892 739.724 216.692 703.102 247.511C693.925 255.238 684.229 262.41 675.519 270.691C674.74 271.28 673.978 271.263 673.06 271.038C668.454 269.912 654.827 255.567 649.131 253.02C658.342 243.18 664.749 231.14 672.454 220.156C694.825 188.245 725.456 153.233 744.312 120.109C747.377 114.721 755.602 96.6693 742.702 100.844C738.356 102.265 724.054 121.045 720.296 125.826C690.497 163.731 664.472 204.79 635.746 243.492C632.629 245.311 608.076 230.187 602.864 229.304L688.644 65.5031C690.791 61.3972 692.748 52.6832 686.705 51.2972C679.519 49.6514 667.71 71.913 664.351 77.578C640.802 117.302 620.855 160.717 598.639 201.394C596.821 204.72 587.592 222.045 585.584 222.53C582.917 222.079 552.754 216.016 553.308 214.439C553.966 213.642 554.728 212.707 554.97 211.702C568.736 154.567 588.648 98.9215 600.336 41.2318C596.371 25.2589 585.895 35.8613 583.627 46.3945L535.612 211.616C532.357 211.304 517.933 211.356 517.154 208.792C516.496 206.661 521.69 181.367 522.279 176.794C525.656 151.275 531.629 118.186 532.391 93.2391C532.547 87.9553 531.283 74.2518 523.578 81.1122C519.855 84.4384 513.812 120.144 512.652 127.489C508.496 153.978 506.47 181.004 502.609 207.562C501.501 210.472 485.398 209.398 483.874 207.839C481.692 205.621 483.008 186.201 482.835 181.315C481.554 146.269 481.19 110.65 480.549 75.6031C480.169 54.8487 482.385 30.8373 479.407 10.62C477.918 0.554581 468.36 -5.64749 466.368 7.31103C461.26 40.8161 464.135 85.1314 464.031 119.589C463.944 148.954 464.135 178.318 464.135 207.683C463.702 209.311 446.958 211.13 444.239 210.559C444.447 209.693 444.967 209.017 444.915 208.047C444.568 201.169 442.837 190.965 441.867 183.724C436.655 144.623 431.911 104.552 422.422 66.5079C420.379 62.5753 418.128 61.4665 414.959 65.018C411.358 69.0719 412.016 77.9765 412.293 83.2604C414.059 118.671 422.44 156.143 426.457 191.433C427.236 198.293 427.877 205.24 427.738 212.153C423.704 212.586 411.115 216.934 409.193 213.105C406.942 208.618 404.293 196.561 402.683 190.982C388.536 142.197 380.294 90.294 365.213 42.2193C363.395 36.3984 359.014 21.9673 355.516 17.7575C353.629 15.4707 349.871 14.2927 347.239 16.0251C343.118 18.745 346.962 34.1289 347.828 38.6679C353.352 67.8245 361.905 99.7184 368.97 128.84C376.035 157.962 384.294 186.686 391.134 215.825C391.393 217.159 390.545 217.592 389.61 218.199C385.731 220.745 365.195 227.294 360.97 227.051C358.217 226.878 355.499 221.248 353.871 218.892C322.652 173.658 296.004 121.945 263.365 77.9938C259.746 73.1257 249.772 59.3183 244.214 58.5387C234.24 57.1528 237.686 67.2875 241.357 72.4674L341.82 233.15L306.566 248.689C285.736 225.492 263.313 203.698 242.084 180.848C222.916 160.197 204.285 135.753 184.321 116.298C181.775 113.82 171.975 105.037 169.291 104.777C160.027 103.876 164.685 113.231 167.282 117.909C174.122 130.209 192.164 150.149 201.913 161.514C218.38 180.674 236.855 201.048 254.187 219.429C266.828 232.82 280.593 245.207 293.303 258.547C289.199 259.465 280.108 268.733 276.836 267.4C275.191 266.724 265.754 258.322 263.555 256.364C244.595 239.542 226.587 220.953 206.172 205.76C203.125 203.49 188.58 191.571 185.515 196.44C185.117 198.553 185.048 201.1 185.619 203.179C186.745 207.284 207.679 227.051 212.302 231.573C228.803 247.719 246.396 262.947 263.07 278.937C264.092 280.219 263.174 280.739 262.516 281.709C260.075 285.313 252.456 288.882 249.772 293.23C235.539 281.016 220.925 269.097 206.138 257.542C179.161 236.458 150.919 213.712 122.903 194.239C117.051 190.168 93.5714 172.428 87.2167 176.898C82.5935 185.612 96.0821 191.519 100.497 197.929L235.851 304.421V306.829L215.99 333.873L214.674 334.028C170.001 316.791 125.985 294.547 81.0005 278.071C73.9532 275.49 47.8765 265.615 42.1451 268.456C34.1975 272.389 46.0238 282.679 50.9067 283.944C101.536 305.53 151.854 328.017 202.969 348.39C204.77 350.4 190.329 377.755 189.221 382.554C187.645 384.459 179.039 383.749 176.13 383.506C131.301 379.782 85.2774 366.633 39.5305 363.653C35.0113 363.358 17.9558 360.933 14.7871 362.891C13.1421 363.913 12.1205 370.046 13.1248 372.367C15.0468 376.785 35.5134 378.413 40.6387 380.198L179.109 401.472C180.425 401.87 180.909 402.615 180.927 403.966C180.961 406.218 176.65 418.034 175.784 422.018C174.399 428.376 173.256 434.821 173.083 441.352L171.438 442.998C159.075 444.54 146.539 444.366 134.141 445.371C97.5712 448.334 54.3697 449.875 18.5964 455.402C14.0598 456.112 1.92187 457.914 0.519336 462.661C-1.09098 468.049 1.29852 470.127 6.33725 470.716C30.0591 473.454 59.4257 467.927 83.4766 466.299C113.38 464.272 143.318 462.384 173.256 460.772C172.927 471.236 175.819 481.665 178.762 491.627C162.018 495.074 145.396 499.475 128.946 504.083C109.467 509.523 86.7146 515.274 68.0314 522.481C48.1189 530.173 51.859 539.909 72.1524 535.422L183.628 508.362L195.264 529.671C195.194 530.728 178.606 538.125 176.217 539.234C135.855 557.875 90.091 573.259 51.3395 593.944C45.6948 596.958 33.4875 601.965 36.0329 609.639C37.9549 615.391 43.565 613.849 47.9284 612.567C55.7376 610.28 66.2133 605.534 74.0918 602.381C117.986 584.762 160.754 564.059 204.874 546.943C211.471 551.967 217.167 559.85 222.414 566.571L222.691 569.118C176.823 607.37 126.28 640.598 81.849 680.669C71.1828 695.55 89.7274 694.441 97.6058 686.524L238.967 581.02L253.651 592.471C224.786 621.662 192.095 647.268 165.984 679.006C166.486 692.952 178.035 682.332 183.697 677.897C207.938 658.909 233.859 634.344 256.993 613.468C261.235 609.639 264.94 605.17 269.113 601.254L270.533 600.925L288.905 610.713C275.433 627.466 262.066 644.444 248.127 660.815C230.777 681.171 212.094 700.557 194.71 720.896C189.55 726.942 153.673 768.832 153.517 772.123C153.309 776.212 156.547 779.399 160.581 779.382C166.278 779.365 182.485 762.162 187.022 757.294C220.284 721.779 251.729 681.639 283.935 644.842C291.277 636.44 298.93 628.211 306.514 620.017C310.756 622.823 333.058 630.151 334.669 632.715C335.673 634.309 335.136 635.574 334.669 637.168C333.266 642.122 326.409 653.903 323.622 659.204C297.008 709.825 262.101 765.176 240.578 817.495C238.448 822.658 232.509 836.379 243.036 835.235C247.746 834.733 258.863 814.949 261.823 810.081C294.688 755.769 319.068 694.736 353.854 641.256C354.512 640.286 355.62 639.749 356.763 639.68C363.429 639.333 379.394 646.748 386.995 647.683L334.582 823.334C331.725 829.068 336.417 838.215 342.893 835.01C346.235 833.347 354.408 811.155 356.14 806.339C370.13 767.463 380.277 725.573 393.558 686.16C397.523 674.363 401.661 662.79 406.873 651.495L436.534 656.987C435.236 676.667 432.673 696.33 431.028 715.958C427.755 755.232 423.773 794.593 421.089 833.867C420.414 843.776 416.171 877.368 420.206 884.367C422.734 888.767 427.496 887.191 429.781 883.345C431.495 880.452 432.396 873.678 433.036 870.074C439.062 836.483 440.17 798.872 443.46 764.778C446.404 734.218 447.633 699.552 451.945 669.668C452.274 667.364 453.832 658.754 455.875 658.251C456.931 657.991 476.879 661.179 477.294 662.184C477.64 666.775 479.112 671.799 479.476 676.303C482.87 719.752 482.35 763.998 486.108 807.43C486.627 813.39 487.631 831.147 492.289 834.317C499.544 839.272 501.276 824.113 501.57 819.609C502.107 811.172 500.462 803.151 500.375 795.355C499.856 753.396 498.678 712.112 493.951 670.621C493.622 667.797 495.51 664.696 492.705 661.404L515.838 660.278C521.967 701.111 526.885 742.256 533.638 782.986C537.136 804.034 540.616 828.358 546.105 848.766C551.04 867.095 560.84 866.731 559.871 847.102C559.49 839.411 557.498 828.825 556.425 820.804C549.707 770.616 535.508 713.723 532.305 664.193C532.166 662.166 532.443 660.105 532.339 658.078C538.313 658.528 544.148 657.073 549.932 655.878C563.23 693.731 574.987 732.174 588.493 769.975C596.596 792.652 609.756 835.98 621.322 855.054C626.171 863.058 634.482 863.959 633.547 852.767C631.66 829.848 612.959 788.962 604.994 765.575C592.285 728.172 579.558 690.769 567.593 653.106C571.541 652.101 595.488 645.778 597.15 647.233C605.6 663.726 615.712 679.751 625.028 695.914C651.659 742.187 675.519 790.279 706.305 833.901C710.305 837.747 718.132 834.473 717.179 828.635C716.452 824.148 709.405 811.674 706.929 806.824C684.679 763.375 657.875 721.571 634.568 678.642L613.825 639.333C623.885 637.965 632.993 633.114 642.481 629.926C691.761 677.602 736.763 729.731 787.964 775.346C792.293 780.422 800.933 778.273 799.808 771.326C799.167 767.428 791.323 758.489 788.432 755.042C760.45 721.606 722.859 686.074 692.055 654.18C683.848 645.691 667.121 632.005 661.165 623.36C660.524 622.425 659.624 622.269 660.074 620.606C667.779 617.453 675.554 613.763 682.843 609.761C686.41 607.786 691.605 601.878 695.258 603.489C698.635 604.979 710.132 613.97 713.959 616.829C754.771 647.406 793.02 683.562 834.213 713.637C840.862 718.487 854.749 730.147 863.164 727.34C866.419 726.249 864.913 720.601 863.718 718.28C862.852 716.599 851.009 706.083 848.463 703.797C807.859 667.312 761.125 633.841 719.049 598.517C717.37 597.114 709.717 591.293 710.773 589.751C715.5 589.613 725.092 576.429 727.638 576.689C736.347 579.703 744.486 583.861 752.658 588.053C780.016 602.121 816.482 627.154 844.602 636.042C848.879 637.393 857.173 641.273 858.195 634.119C858.991 628.627 846.109 621.818 841.763 619.046C809.539 598.448 773.16 582.319 739.914 563.314C738.581 561.998 739.81 561.461 740.468 560.508C745.923 552.66 752 545.349 756.381 536.756C760.035 534.071 770.978 538.454 775.497 539.857C817.002 552.643 861.381 573.744 903.509 582.614C911.664 584.329 930.538 589.717 927.525 575.649L764.744 518.098L774.718 483.97C812.223 489.201 849.883 495.681 887.596 499.371C904.097 500.982 929.637 504.204 945.429 502.68C945.931 502.628 946.416 502.091 946.537 501.571V501.554Z" fill="#FAF6EA"/>
<path d="M945.429 502.662C929.637 504.187 904.097 500.965 887.596 499.353C849.883 495.663 812.223 489.184 774.718 483.952L764.744 518.081L927.525 575.632C930.52 589.699 911.647 584.329 903.509 582.596C861.398 573.709 817.002 552.608 775.497 539.84C770.978 538.454 760.052 534.054 756.381 536.739C752 545.332 745.923 552.66 740.468 560.491C739.811 561.443 738.564 561.98 739.914 563.297C773.16 582.302 809.539 598.431 841.763 619.029C846.109 621.801 858.991 628.609 858.195 634.101C857.156 641.256 848.879 637.375 844.602 636.024C816.482 627.154 780.016 602.103 752.658 588.036C744.486 583.826 736.347 579.668 727.638 576.671C725.11 576.411 715.5 589.595 710.773 589.734C709.717 591.276 717.387 597.097 719.049 598.5C761.126 633.824 807.859 667.277 848.464 703.779C851.009 706.066 862.853 716.582 863.718 718.262C864.913 720.584 866.419 726.249 863.164 727.323C854.749 730.129 840.879 718.47 834.213 713.619C793.02 683.562 754.753 647.389 713.959 616.812C710.149 613.953 698.635 604.962 695.258 603.472C691.588 601.861 686.41 607.768 682.843 609.743C675.554 613.763 667.779 617.435 660.074 620.588C659.624 622.251 660.507 622.407 661.165 623.343C667.121 631.988 683.848 645.656 692.055 654.163C722.859 686.056 760.45 721.588 788.432 755.024C791.323 758.472 799.167 767.411 799.808 771.309C800.933 778.256 792.293 780.422 787.964 775.328C736.763 729.714 691.743 677.585 642.482 629.909C632.993 633.114 623.885 637.964 613.825 639.316L634.569 678.624C657.892 721.554 684.679 763.357 706.929 806.806C709.405 811.657 716.452 824.113 717.179 828.617C718.132 834.438 710.305 837.73 706.306 833.884C675.519 790.244 651.641 742.152 625.028 695.897C615.712 679.716 605.6 663.691 597.15 647.216C595.488 645.76 571.541 652.084 567.593 653.089C579.558 690.751 592.267 728.154 604.994 765.557C612.942 788.962 631.66 829.83 633.547 852.75C634.465 863.942 626.171 863.041 621.322 855.037C609.756 835.963 596.596 792.635 588.493 769.958C574.987 732.156 563.212 693.731 549.932 655.86C544.148 657.056 538.296 658.511 532.339 658.061C532.426 660.07 532.166 662.149 532.305 664.176C535.508 713.706 549.707 770.616 556.425 820.787C557.498 828.808 559.49 839.393 559.871 847.085C560.84 866.713 551.04 867.06 546.105 848.748C540.599 828.34 537.118 804.017 533.638 782.968C526.885 742.239 521.968 701.077 515.838 660.261L492.705 661.387C495.51 664.678 493.64 667.779 493.952 670.603C498.679 712.077 499.856 753.378 500.375 795.338C500.479 803.134 502.107 811.155 501.57 819.592C501.293 824.096 499.544 839.237 492.289 834.3C487.614 831.112 486.61 813.372 486.108 807.413C482.35 763.981 482.87 719.735 479.476 676.286C479.13 671.781 477.658 666.775 477.294 662.166C476.879 661.162 456.932 657.974 455.875 658.234C453.832 658.736 452.274 667.346 451.945 669.65C447.633 699.535 446.421 734.2 443.46 764.76C440.17 798.854 439.062 836.465 433.037 870.057C432.396 873.66 431.495 880.434 429.781 883.327C427.496 887.173 422.734 888.733 420.206 884.349C416.171 877.351 420.414 843.759 421.089 833.849C423.773 794.575 427.738 755.215 431.028 715.941C432.673 696.312 435.236 676.649 436.534 656.969L406.873 651.477C401.661 662.773 397.523 674.345 393.558 686.143C380.294 725.556 370.13 767.446 356.14 806.321C354.408 811.137 346.235 833.33 342.893 834.993C336.418 838.215 331.725 829.068 334.582 823.316L386.995 647.666C379.394 646.731 363.429 639.316 356.763 639.662C355.62 639.714 354.495 640.269 353.854 641.239C319.068 694.736 294.688 755.752 261.824 810.063C258.88 814.931 247.764 834.716 243.037 835.218C232.526 836.361 238.465 822.641 240.578 817.478C262.083 765.159 297.008 709.808 323.622 659.187C326.409 653.868 333.266 642.105 334.669 637.15C335.119 635.556 335.656 634.292 334.669 632.698C333.058 630.134 310.774 622.806 306.514 619.999C298.93 628.194 291.294 636.423 283.935 644.825C251.746 681.621 220.284 721.762 187.022 757.276C182.468 762.127 166.261 779.347 160.581 779.365C156.547 779.365 153.292 776.194 153.517 772.106C153.69 768.814 189.55 726.924 194.71 720.878C212.077 700.54 230.777 681.154 248.127 660.798C262.083 644.426 275.433 627.449 288.905 610.696L270.533 600.908L269.113 601.237C264.94 605.152 261.235 609.622 256.993 613.451C233.859 634.326 207.939 658.892 183.697 677.879C178.035 682.314 166.486 692.934 165.984 678.988C192.095 647.25 224.786 621.645 253.651 592.454L238.967 581.002L97.6059 686.507C89.7275 694.424 71.1828 695.55 81.849 680.651C126.297 640.58 176.823 607.335 222.691 569.101L222.414 566.554C217.185 559.832 211.488 551.95 204.874 546.926C160.755 564.042 117.986 584.744 74.0918 602.363C66.2307 605.516 55.755 610.263 47.9285 612.55C43.5651 613.832 37.9549 615.374 36.0329 609.622C33.4876 601.965 45.6775 596.941 51.3396 593.926C90.0738 573.241 135.855 557.857 176.217 539.216C178.624 538.108 195.195 530.728 195.264 529.653L183.628 508.345L72.1525 535.405C51.859 539.892 48.119 530.156 68.0315 522.464C86.7146 515.257 109.467 509.505 128.946 504.066C145.396 499.475 162.019 495.057 178.762 491.609C175.819 481.648 172.927 471.219 173.256 460.755C143.335 462.366 113.397 464.254 83.4767 466.281C59.4258 467.91 30.0592 473.436 6.33731 470.699C1.29858 470.11 -1.07361 468.048 0.51939 462.643C1.93924 457.879 14.0599 456.077 18.5965 455.384C54.3698 449.841 97.5713 448.316 134.141 445.354C146.539 444.349 159.075 444.54 171.438 442.98L173.083 441.335C173.256 434.803 174.399 428.341 175.784 422.001C176.65 418.016 180.961 406.201 180.927 403.949C180.909 402.58 180.425 401.853 179.109 401.454L40.6388 380.18C35.5135 378.396 15.0296 376.767 13.1249 372.35C12.1206 370.028 13.1422 363.895 14.7871 362.873C17.9558 360.916 35.0113 363.341 39.5306 363.635C85.2601 366.615 131.301 379.764 176.13 383.489C179.039 383.732 187.645 384.442 189.221 382.536C190.346 377.737 204.787 350.4 202.969 348.373C151.855 328.017 101.536 305.513 50.9067 283.927C46.0238 282.679 34.1802 272.371 42.1452 268.439C47.8765 265.615 73.9533 275.49 81.0006 278.054C125.986 294.529 170.001 316.756 214.674 334.011L215.99 333.855L235.851 306.812V304.404L100.498 197.912C96.0995 191.519 82.5936 185.612 87.2167 176.88C93.5714 172.411 117.051 190.151 122.903 194.222C150.919 213.694 179.161 236.441 206.138 257.525C220.925 269.08 235.522 280.999 249.772 293.213C252.456 288.864 260.075 285.295 262.516 281.692C263.174 280.722 264.092 280.185 263.07 278.92C246.396 262.912 228.786 247.702 212.302 231.556C207.679 227.034 186.745 207.25 185.619 203.161C185.048 201.082 185.117 198.553 185.515 196.422C188.58 191.554 203.108 203.456 206.172 205.743C226.587 220.936 244.595 239.507 263.555 256.347C265.771 258.304 275.191 266.724 276.836 267.382C280.108 268.716 289.199 259.448 293.303 258.529C280.593 245.19 266.828 232.803 254.188 219.411C236.838 201.03 218.362 180.657 201.913 161.496C192.164 150.149 174.122 130.192 167.282 117.891C164.685 113.214 160.027 103.841 169.291 104.76C171.975 105.02 181.775 113.803 184.321 116.28C204.285 135.735 222.916 160.18 242.084 180.83C263.313 203.681 285.736 225.457 306.566 248.672L341.82 233.132L241.357 72.45C237.686 67.27 234.24 57.1354 244.214 58.5213C249.772 59.3009 259.763 73.1083 263.365 77.9764C296.021 121.928 322.652 173.641 353.871 218.874C355.499 221.23 358.217 226.861 360.971 227.034C365.195 227.294 385.731 220.745 389.61 218.181C390.545 217.558 391.393 217.142 391.134 215.808C384.311 186.669 376.035 157.91 368.97 128.823C361.906 99.7356 353.352 67.8071 347.828 38.6504C346.963 34.1115 343.119 18.7276 347.24 16.0077C349.871 14.2753 353.612 15.4533 355.516 17.7401C359.014 21.9672 363.377 36.3983 365.213 42.2019C380.294 90.2766 388.536 142.18 402.683 190.965C404.311 196.561 406.943 208.618 409.193 213.088C411.115 216.917 423.704 212.568 427.738 212.135C427.859 205.205 427.236 198.258 426.457 191.415C422.44 156.143 414.042 118.671 412.293 83.243C412.033 77.9591 411.358 69.0544 414.959 65.0006C418.111 61.4491 420.379 62.5579 422.422 66.4905C431.911 104.534 436.655 144.605 441.867 183.706C442.837 190.948 444.551 201.169 444.915 208.029C444.967 208.982 444.447 209.675 444.239 210.541C446.958 211.113 463.702 209.294 464.135 207.666C464.135 178.301 463.927 148.936 464.031 119.572C464.135 85.114 461.26 40.7813 466.368 7.29361C468.342 -5.66491 477.918 0.519836 479.407 10.6025C482.385 30.8199 480.169 54.8313 480.55 75.5857C481.19 110.65 481.571 146.268 482.835 181.298C483.008 186.183 481.692 205.604 483.874 207.821C485.398 209.381 501.501 210.437 502.609 207.544C506.488 181.004 508.496 153.96 512.652 127.472C513.812 120.126 519.838 84.4037 523.578 81.0948C531.283 74.2344 532.564 87.9378 532.391 93.2217C531.629 118.169 525.638 151.258 522.279 176.776C521.673 181.333 516.496 206.626 517.154 208.774C517.933 211.356 532.357 211.286 535.612 211.598L583.627 46.377C585.895 35.8266 596.371 25.2242 600.336 41.2144C588.649 98.9041 568.719 154.549 554.97 211.685C554.728 212.69 553.966 213.625 553.308 214.422C552.771 215.998 582.917 222.062 585.584 222.512C587.61 222.01 596.839 204.703 598.639 201.377C620.855 160.682 640.802 117.285 664.351 77.5606C667.71 71.8956 679.519 49.634 686.705 51.2798C692.748 52.6657 690.791 61.3798 688.644 65.4857L602.864 229.286C608.076 230.17 632.629 245.294 635.746 243.475C664.489 204.772 690.497 163.714 720.296 125.809C724.054 121.027 738.356 102.248 742.702 100.827C755.602 96.6346 747.395 114.686 744.312 120.092C725.456 153.215 694.843 188.21 672.454 220.139C664.749 231.123 658.342 243.163 649.131 253.003C654.827 255.567 668.472 269.911 673.06 271.02C673.978 271.245 674.723 271.263 675.519 270.674C684.246 262.393 693.925 255.221 703.102 247.494C739.724 216.674 773.991 182.875 811.617 153.267C816.205 149.647 828.239 138.507 834.248 142.7C838.317 151.76 828.482 159.625 822.647 165.394C786.423 201.117 743.706 232.508 706.392 267.295C701.094 272.233 696.263 277.742 690.999 282.749L705.838 298.548C720.158 288.414 735.655 280.063 750.373 270.535C769.956 257.836 791.496 239.889 811.825 229.529C815.184 227.814 821.123 223.552 824.378 227.554C828.811 232.994 815.617 242.435 811.565 245.813C782.856 269.686 749.317 289.055 719.015 310.883C718.599 311.334 718.513 311.871 718.495 312.477C718.409 315.058 731.672 331.724 734.46 331.794L871.995 267.694C879.129 265.84 894.193 255.307 900.911 260.089C903.024 261.596 904.184 265.373 903.041 267.85C900.704 272.978 862.056 291.515 854.403 295.274C818.82 312.772 781.661 329.905 745.421 346.034C744.243 346.554 743.568 345.272 743.862 347.732C744.624 354.159 756.849 368.504 758.805 375.918L909.95 343.106C915.075 342.413 926.417 339.901 926.832 347.784C927.213 354.8 918.486 356.758 913.24 358.542C893.708 365.16 869.969 369.526 849.624 374.255C821.815 380.717 793.713 386.053 765.922 392.48V393.988C769.454 400.345 768.952 415.123 771.619 420.32C774.458 425.847 794.579 421.689 800.552 424.443C834.369 425.136 868.445 422.521 902.054 426.401C907.214 427.631 904.288 435.704 901.673 436.518C898.816 437.402 887.873 438.476 884.289 438.719C875.7 439.29 866.454 439.602 857.9 439.879C830.231 440.763 802.37 439.134 774.683 439.827C776.432 446.653 774.631 456.216 775.809 462.401C776.138 464.151 776.605 464.705 778.042 465.675C778.787 466.177 793.678 470.457 795.15 470.647C826.3 474.753 858.818 475.983 889.934 482.67C906.799 486.603 930.624 484.004 946.589 488.803C955.627 491.505 957.307 498.834 946.537 501.536C946.052 501.657 945.637 502.177 945.429 502.645V502.662ZM513.31 232.907C496.029 235.817 499.094 251.929 512.808 257.126C518.487 259.292 534.59 259.829 537.915 254.198C540.789 249.313 538.521 240.512 534.002 237.013C530.106 233.998 518.141 232.075 513.31 232.89V232.907ZM435.184 238.399C427.6 238.849 410.059 244.705 412.743 254.701C415.964 266.724 432.032 266.343 441.348 262.306C454.94 256.399 447.599 237.671 435.184 238.416V238.399ZM342.634 256.017C324.366 257.854 305.631 271.921 319.258 290.978C330.807 307.159 360.78 304.698 368.433 286.317C374.823 270.986 357.819 254.493 342.634 256V256.017ZM588.233 258.252C571.437 261.076 577.792 280.011 585.376 289.228C595.332 301.338 624.63 312.252 638.464 303.001C653.581 292.883 633.911 270.656 623.435 264.385C613.773 258.616 599.332 256.381 588.233 258.252ZM472.134 302.81C472.481 303.347 474.056 303.936 474.87 304.958C476.186 306.587 478.749 312.581 481.104 311.992C482.437 311.663 496.081 292.554 495.977 289.522C495.579 277.759 482.974 273.22 473.398 280.011C464.394 286.404 466.957 294.858 472.134 302.793V302.81ZM467.217 320.689C472.152 317.57 458.144 299.363 454.646 296.591C444.915 288.829 435.686 288.396 426.058 296.591C420.812 301.078 418.076 307.522 420.189 314.539C422.838 323.339 447.547 317.952 454.663 318.627C457.59 318.904 465.329 321.901 467.217 320.706V320.689ZM516.583 290.181C509.275 291.844 494.99 309.22 493.155 316.392C492.774 317.865 492.064 319.216 493.726 320.325C495.389 321.434 515.561 318.419 519.647 319.701C551.282 319.303 545.499 283.598 516.583 290.181ZM463.944 331.932C452.308 324.777 418.076 329.888 413.869 343.903C411.877 350.521 413.782 357.693 419.912 361.089C431.444 367.481 445.815 362.735 453.486 352.704C455.356 350.261 464.897 333.318 463.927 331.932H463.944ZM495.995 331.828C499.319 340.196 503.631 347.177 510.869 352.756C519.682 359.564 541.88 368.382 546.226 352.756C549.101 342.431 523.803 331.257 515.249 330.702C508.998 330.304 502.488 332.816 495.995 331.811V331.828ZM691.795 332.071C684.748 333.093 677.337 339.555 676.731 346.866C675.19 365.541 693.683 398.526 713.63 401.177C734.98 404.001 735.672 390.436 732.486 373.493C729.525 357.728 710.149 329.42 691.795 332.071ZM363.499 333.197C341.335 337.06 335.985 376.49 366.009 362.146C378.199 356.325 385.125 329.42 363.499 333.197ZM277.58 334.288C256.681 337.597 226.5 376.23 243.798 394.005C266.62 417.427 326.721 376.525 303.657 345.133C296.8 335.813 289.234 332.435 277.58 334.271V334.288ZM478.004 336.367C476.048 336.904 469.364 345.428 468.221 347.593C463.234 357.035 462.957 374.48 473.883 379.834C478.939 382.311 479.718 381.999 484.22 379.037C495.614 371.553 492.185 357.26 486.973 346.918C485.709 344.406 480.723 335.64 478.004 336.384V336.367ZM605.843 343.106C598.795 344.596 592.164 353.31 590.986 360.188C587.575 380.232 618.656 394.507 628.993 376.178C637.495 361.106 621.998 339.693 605.843 343.106ZM371.29 403.724C342.374 405.595 323.708 448.853 350.633 468.984C367.827 481.839 391.757 476.607 405.124 460.824C424.327 438.13 398.752 401.957 371.29 403.741V403.724ZM528.755 404.763C525.223 405.352 515.89 412.091 513.777 415.227C506.626 425.812 512.479 445.544 526.366 447.467C546.486 450.257 555.334 437.662 551.888 418.623C550.468 410.74 535.889 403.585 528.738 404.763H528.755ZM633.391 432.378C621.34 434.405 609.877 446.081 604.821 456.684C600.215 466.316 602.397 489.392 608.526 498.608C628.3 528.337 667.71 512.589 677.493 483.121C686.757 455.229 662.429 427.475 633.391 432.378ZM248.958 450.049C228.44 452.872 215.367 475.117 225.358 494.035C226.795 496.737 238.708 511.151 240.941 512.606C245.599 515.621 255.33 516.626 260.715 515.829C284.333 512.364 294.515 482.843 280.507 464.185C271.866 452.665 263.607 448.039 248.941 450.049H248.958ZM728.123 452.214C722.253 453.427 715.015 462.21 714.167 468.014C712.158 481.561 732.296 500.965 744.416 489.444C751.827 482.41 747.464 448.23 728.123 452.214ZM474.801 474.32C463.027 475.446 448.811 484.056 443.616 494.918C439.859 502.784 440.534 506.82 442.335 515.014C447.789 539.996 467.165 549.542 490.454 538.471C523.63 522.724 511.492 470.838 474.801 474.32ZM344.781 528.267C337.179 529.567 324.747 539.65 323.293 547.549C319.206 569.846 347.084 593.736 366.546 578.698C377.178 570.487 375.966 559.347 372.295 547.601C368.052 534.002 359.88 525.704 344.781 528.267ZM595.852 557.043C577.636 536.479 547.369 559.468 545.568 582.579C542.936 616.309 585.999 617.054 598.293 591.241C603.159 581.002 603.695 565.913 595.852 557.043ZM670.809 558.013C668.368 558.585 662.481 563.99 661.355 566.173C654.585 579.339 673.805 596.508 685.441 583.653C691.172 577.312 689.06 571.751 685.233 565.151C681.406 558.55 678.965 556.125 670.809 557.996V558.013ZM443.945 587.811C434.907 588.92 426.439 598.881 429.625 608.167C431.738 614.369 442.664 620.952 449.001 620.519C474.714 618.769 465.762 585.126 443.945 587.811Z" fill="#1EAAA8"/>
<path d="M633.391 432.378C662.429 427.475 686.757 455.228 677.493 483.12C667.71 512.589 628.3 528.337 608.526 498.608C602.397 489.392 600.215 466.316 604.821 456.684C609.894 446.081 621.357 434.405 633.391 432.378Z" fill="#79CDCE"/>
<path d="M371.291 403.724C398.753 401.939 424.327 438.13 405.125 460.807C391.757 476.607 367.828 481.821 350.634 468.967C323.708 448.853 342.357 405.595 371.291 403.706V403.724Z" fill="#79CDCE"/>
<path d="M474.801 474.32C511.492 470.837 523.63 522.723 490.454 538.471C467.147 549.541 447.789 539.996 442.335 515.014C440.534 506.802 439.859 502.766 443.616 494.918C448.811 484.056 463.026 475.446 474.801 474.32Z" fill="#79CDCE"/>
<path d="M277.58 334.288C289.234 332.452 296.8 335.813 303.657 345.15C326.721 376.525 266.62 417.444 243.798 394.022C226.483 376.247 256.664 337.614 277.58 334.305V334.288Z" fill="#79CDCE"/>
<path d="M248.958 450.048C263.624 448.039 271.884 452.664 280.524 464.185C294.532 482.843 284.351 512.346 260.733 515.828C255.348 516.625 245.616 515.603 240.959 512.606C238.708 511.151 226.795 496.737 225.375 494.035C215.367 475.134 228.44 452.872 248.976 450.048H248.958Z" fill="#79CDCE"/>
<path d="M588.233 258.252C599.332 256.381 613.773 258.616 623.435 264.385C633.911 270.639 653.581 292.883 638.465 303.001C624.647 312.252 595.35 301.355 585.376 289.228C577.792 280.012 571.42 261.076 588.233 258.252Z" fill="#79CDCE"/>
<path d="M342.634 256.017C357.819 254.493 374.823 270.985 368.434 286.335C360.78 304.698 330.808 307.158 319.258 290.995C305.631 271.938 324.384 257.854 342.634 256.035V256.017Z" fill="#79CDCE"/>
<path d="M528.755 404.763C535.906 403.585 550.486 410.74 551.906 418.622C555.351 437.662 546.486 450.256 526.383 447.467C512.496 445.544 506.644 425.812 513.795 415.227C515.907 412.091 525.24 405.352 528.773 404.763H528.755Z" fill="#79CDCE"/>
<path d="M605.843 343.106C621.998 339.693 637.495 361.106 628.993 376.178C618.656 394.507 587.575 380.232 590.986 360.188C592.146 353.31 598.778 344.596 605.843 343.106Z" fill="#79CDCE"/>
<path d="M463.944 331.932C464.914 333.318 455.356 350.261 453.503 352.704C445.832 362.734 431.443 367.499 419.929 361.089C413.799 357.693 411.895 350.521 413.886 343.903C418.093 329.888 452.326 324.777 463.962 331.932H463.944Z" fill="#79CDCE"/>
<path d="M516.582 290.181C545.481 283.58 551.282 319.285 519.647 319.701C515.561 318.419 495.441 321.485 493.726 320.325C492.012 319.164 492.774 317.882 493.155 316.392C494.99 309.22 509.275 291.861 516.582 290.181Z" fill="#79CDCE"/>
<path d="M467.217 320.688C465.33 321.884 457.607 318.887 454.663 318.609C447.547 317.934 422.838 323.322 420.189 314.521C418.076 307.505 420.812 301.06 426.059 296.573C435.686 288.361 444.915 288.812 454.646 296.573C458.144 299.362 472.152 317.553 467.217 320.671V320.688Z" fill="#79CDCE"/>
<path d="M495.995 331.828C502.471 332.833 508.998 330.321 515.249 330.72C523.786 331.274 549.083 342.448 546.226 352.773C541.88 368.382 519.682 359.582 510.868 352.773C503.631 347.178 499.336 340.213 495.995 331.846V331.828Z" fill="#79CDCE"/>
<path d="M478.004 336.367C480.723 335.622 485.71 344.388 486.974 346.9C492.186 357.243 495.614 371.535 484.221 379.019C479.719 381.982 478.939 382.294 473.883 379.816C462.958 374.48 463.235 357.017 468.221 347.576C469.364 345.41 476.048 336.887 478.004 336.35V336.367Z" fill="#79CDCE"/>
<path d="M513.31 232.907C518.158 232.092 530.123 234.015 534.002 237.03C538.504 240.512 540.789 249.33 537.915 254.216C534.591 259.846 518.505 259.309 512.808 257.143C499.094 251.946 496.03 235.834 513.31 232.924V232.907Z" fill="#79CDCE"/>
<path d="M363.499 333.197C385.125 329.42 378.199 356.342 366.009 362.145C335.985 376.472 341.335 337.06 363.499 333.197Z" fill="#79CDCE"/>
<path d="M435.184 238.399C447.599 237.654 454.94 256.381 441.348 262.289C432.032 266.343 415.964 266.706 412.743 254.683C410.059 244.687 427.599 238.849 435.184 238.381V238.399Z" fill="#79CDCE"/>
<path d="M472.135 302.81C466.957 294.858 464.412 286.421 473.399 280.029C482.974 273.22 495.579 277.759 495.978 289.54C496.082 292.554 482.437 311.663 481.104 312.009C478.766 312.598 476.186 306.621 474.87 304.975C474.057 303.953 472.481 303.364 472.135 302.827V302.81Z" fill="#79CDCE"/>
</g>
</g>
<defs>
<clipPath id="clip0_504_11362">
<rect width="669" height="516" fill="white"/>
</clipPath>
<clipPath id="clip1_504_11362">
<rect width="954" height="887" fill="white"/>
</clipPath>
</defs>
</svg>
