<svg width="669" height="516" viewBox="0 0 669 516" fill="none" xmlns="http://www.w3.org/2000/svg">
<g clip-path="url(#clip0_504_11355)">
<rect width="669" height="516" fill="#D9D9D9" fill-opacity="0.6"/>
<g clip-path="url(#clip1_504_11355)">
<path d="M429.7 666.747C431.763 636.952 410.675 620.604 403.188 594.596C401.8 589.759 400.688 583.985 399.913 578.998C394.975 547.365 392.213 519.07 392.175 487.15C392.15 470.027 390.1 450.218 392.063 433.77C397.525 387.865 434.488 370.418 477.238 369.568C478.663 369.543 486.025 369.83 486.338 370.793C487.55 374.405 481.988 374.105 478.963 376.017C454.225 391.689 482.913 428.746 504.013 405.775C507.113 402.4 507.75 397.226 509.838 395.089C510.675 394.227 517.925 390.902 518.988 390.827C524.5 390.465 534.975 400.676 538.188 404.975C541.4 409.274 544.438 415.248 546.838 419.91C549.975 425.997 552.463 432.621 555.488 438.77C551.088 437.157 546.963 435.195 542.288 434.295C535.763 433.033 528.575 433.733 522.425 432.146C508.825 428.621 505.538 420.298 489.988 430.271C472.813 441.282 466.175 477.301 489.438 483.988C509.925 489.887 517.275 459.342 537.163 468.503C540.938 470.24 545.438 474.214 547.513 477.814L551.575 485.15C551.538 485.4 551.6 485.675 551.575 485.937C551.488 487.162 550.613 487.437 551.1 489.887C553.163 500.148 561.363 504.485 557.075 517.383C555.688 521.557 553.013 523.594 551.438 527.069C545.35 540.517 558.675 551.477 550 563.363C548.575 565.313 545.888 566.875 544.5 568.475C530.55 563.501 519.613 551.077 504.025 550.353C462.638 548.428 472.05 611.868 510.45 596.92C519.163 593.533 525.888 587.622 536.638 589.696C536.688 597.708 539.925 604.219 537.2 612.668C532.625 626.866 512.513 622.979 503.613 632.152C497.95 622.866 492.3 613.718 480.325 612.58C464.675 611.093 454.575 629.528 465.45 640.826C473.287 648.962 488.588 647.288 494.963 658.886C494.863 659.111 495.063 659.461 494.963 659.673C490.55 668.722 473.138 672.509 464.1 669.697C461.2 668.797 458.525 665.747 455.213 665.222C449 664.235 443.288 665.51 439.738 670.872C436.425 675.883 435.163 687.881 426.563 684.819C427.438 678.933 429.313 672.521 429.713 666.735L429.7 666.747ZM436.575 398.088C425.613 399.813 409.175 417.098 405.188 427.234C394.788 453.667 423.525 468.478 445.412 459.592C469.237 449.918 471.475 392.577 436.575 398.088ZM418.975 495.648C409.225 505.409 403.788 519.42 411.3 532.255C436.288 574.986 507.1 540.604 477.213 496.223C464.275 477.026 434.088 480.538 418.975 495.648ZM512.038 502.622C506.038 503.847 500.513 511.146 499.738 517.058C497.1 537.33 523.2 545.791 532.838 530.506C542 515.983 527.938 499.373 512.025 502.622H512.038ZM460.1 578.973C449.2 566.75 421.938 569.45 415.638 584.672C406.138 607.644 443.138 620.079 458.825 601.907C464.325 595.533 466.013 585.585 460.113 578.973H460.1Z" fill="#6FC8BD"/>
<path d="M413.2 654.162C410.35 655.211 408.938 658.423 406.5 660.436C404.063 662.448 398.813 664.448 397.1 666.76C394.413 670.397 393.013 679.283 390.25 684.282C379.638 703.567 363.063 693.981 351.85 681.307C350.138 679.37 349.163 676.933 347.938 675.396C359.425 671.834 357.225 659.048 364.038 651.8C367.238 648.4 371.638 647.338 375.063 644.738C395.863 628.916 382.375 590.484 354.463 605.282C340.05 612.918 342.275 625.516 340.775 638.764C339.95 645.975 335.425 652.212 329.85 656.536C324.1 654.599 316.413 655.386 310.013 653.174C293.613 647.513 295.288 633.152 292.113 619.592C306.95 624.279 322.088 612.381 322.038 597.195C321.988 580.685 304.038 575.074 291.1 582.81C283.325 587.459 280.563 597.608 281.113 606.232C280 605.907 278.075 606.444 276.363 605.882C259.7 600.295 257.288 592.459 256.738 575.936C256.7 574.799 257.525 573.624 257.525 573.224C275.375 567.025 280.313 548.203 268.55 533.505C262.363 525.756 255.75 524.044 247.3 519.77C248.45 507.872 244.588 497.373 255.15 487.912C257.638 485.688 262.438 484.338 263.813 482.826C292.725 488.575 309.063 451.343 282.688 435.658C283.25 432.533 283.588 429.334 284.263 426.222L295.475 400.488C301.725 399.488 308.4 396.301 314.625 395.651C327.738 394.289 345.375 396.689 357.988 400.838C384.413 409.524 386.863 447.256 379.2 469.653C373.638 485.9 352.025 499.21 365.7 517.333C370.075 523.132 377.163 525.344 381.375 530.743C390.05 541.854 388.75 568.562 390.5 582.935C392.813 601.957 396.363 611.243 403.113 628.491C405.838 635.452 409.7 648.463 413.2 654.174V654.162ZM357.875 425.684C345.938 413.311 314.725 410.737 307.688 429.584C303.363 441.182 305.463 459.479 315.763 467.39C342.15 487.675 382.213 450.893 357.875 425.684ZM300.575 490.862C278.438 493.999 273.375 527.069 285.85 542.916C308.65 571.862 348.275 529.043 330.2 504.072C323.8 495.224 311.525 489.312 300.575 490.862ZM359.55 543.541C326.3 544.816 325.063 592.159 360.038 588.047C390.45 584.472 390.2 542.366 359.55 543.541Z" fill="#6FC8BD"/>
<path d="M474.525 125.906C478.4 127.668 481.125 132.405 481.325 136.629C481.762 146.028 465.6 172.511 461.025 182.759C454.55 197.27 450 212.492 445.412 227.69C445.1 228.727 443.925 230.552 445.437 231.24C443.825 233.452 441.712 241.288 441.475 244.175C440.075 260.897 453.325 266.684 465.087 255.611C466.962 259.023 468.812 262.46 470.587 265.834C467.475 267.122 465.537 269.696 462.462 271.471C451.05 278.057 430.825 284.281 422.225 294.13C418.725 298.142 418.75 302.516 413.187 304.741C407.625 306.965 399.125 306.153 393.787 303.703C388.45 301.254 385.925 294.755 381.325 291.005C370.6 282.269 361.175 285.956 349.175 283.844C344.75 283.069 340 280.369 335.35 279.982C338.275 273.82 344.612 262.31 346.362 256.398L353.012 261.935C369.275 268.484 374.6 252.949 373.012 239.576C372.587 235.951 370.65 232.427 369.95 228.877C364.787 202.706 357.737 177.035 348.112 152.052C348.15 143.603 354.1 135.667 362.087 132.967C367.275 131.217 372.425 130.792 377.812 132.18C383.2 133.567 385.95 136.154 387.825 141.428C391.5 151.814 394.325 168.737 396.462 179.96C398.725 191.883 399.575 208.568 402.7 219.316C404.587 225.803 410.7 223.328 412.475 219.091C415.575 211.718 415.4 199.194 419.287 191.308C425.925 173.011 430.587 153.801 437.7 135.817C440.612 128.43 447.762 123.669 455.662 122.731C459.825 122.244 470.662 124.119 474.537 125.881L474.525 125.906Z" fill="#6FC8BD"/>
<path d="M296.837 395.539C306.75 395.664 311.337 385.253 316.875 379.017C324.7 370.218 331.162 364.344 343.887 366.956C348.212 367.843 351.487 370.905 355.587 372.543C371.475 378.929 399.725 377.742 414.775 369.206C419.137 366.731 421.85 363.369 425.838 360.619C444.025 348.059 469.363 340.473 484.275 361.794C486 364.256 489.025 371.93 489.475 372.318C490.537 373.205 496.55 375.355 498.625 376.529C502.9 378.954 507.25 381.391 511.075 384.528C511.862 384.341 511.4 382.903 511.463 382.179C512.688 383.516 515.45 387.69 517.725 386.54C525.6 379.529 533.812 372.93 542.125 366.456C546 374.905 551.412 382.791 559.425 387.678C558.662 388.303 557.887 390.24 556.65 390.802L538.2 404.975C534.987 400.688 524.512 390.465 519 390.827C517.937 390.902 510.687 394.239 509.85 395.089C507.762 397.214 507.125 402.4 504.025 405.775C482.925 428.734 454.237 391.69 478.975 376.017C482 374.105 487.55 374.405 486.35 370.793C486.025 369.843 478.675 369.543 477.25 369.568C434.512 370.418 397.537 387.865 392.075 433.771C390.125 450.218 392.162 470.04 392.187 487.15C392.237 519.07 394.987 547.366 399.925 578.998C400.7 583.985 401.812 589.759 403.2 594.596C410.687 620.604 431.762 636.952 429.712 666.747C424.612 663.473 416.462 659.498 413.2 654.174C409.712 648.463 405.85 635.44 403.112 628.491C396.35 611.243 392.812 601.957 390.5 582.935C388.75 568.562 390.05 541.854 381.375 530.743C377.162 525.344 370.075 523.132 365.7 517.333C352.025 499.211 373.637 485.9 379.2 469.653C386.862 447.256 384.412 409.524 357.987 400.838C345.375 396.689 327.737 394.289 314.625 395.652C308.4 396.301 301.725 399.488 295.475 400.488L284.262 426.222C276.8 422.947 269.987 417.961 263.037 413.649C264.925 409.474 268.725 407.4 271.225 403.363C273.875 399.101 274.812 394.027 277.975 390.065C281.262 391.977 285.725 393.689 289.225 395.727C293.425 398.176 294.9 402.438 296.85 395.577L296.837 395.539Z" fill="#09938C"/>
<path d="M470.588 265.834C474.65 273.546 477.237 278.957 480.812 287.056C473.887 287.231 466.763 291.43 461.225 295.38C441.05 309.765 439.85 321.238 428.537 340.523C417.225 359.807 388.862 367.794 369.212 354.996C353.125 344.522 360.775 329.862 349.538 318.851C340.075 309.578 329.125 313.239 318.062 316.914C323.237 304.278 329.6 292.105 335.362 279.97C340 280.37 344.763 283.057 349.188 283.832C361.188 285.931 370.613 282.244 381.338 290.993C385.938 294.742 388.462 301.241 393.8 303.691C399.137 306.141 407.775 306.903 413.2 304.728C418.625 302.554 418.738 298.117 422.238 294.117C430.838 284.269 451.063 278.045 462.475 271.458C465.55 269.684 467.488 267.109 470.6 265.822L470.588 265.834Z" fill="#09938C"/>
<path d="M480.812 287.056C484.037 294.38 487.275 301.628 490.25 309.065C483.825 311.477 478.55 313.027 475.175 319.538C472.725 324.25 471.975 332.274 473.325 337.398C475.825 346.884 500.125 358.032 507.175 367.218C509.825 370.68 510.125 373.992 512.262 377.454C511.212 378.917 511.625 380.566 511.475 382.166C511.412 382.891 511.875 384.328 511.087 384.516C507.262 381.391 502.925 378.942 498.637 376.517C496.562 375.342 490.537 373.205 489.487 372.305C489.037 371.93 486.012 364.244 484.287 361.782C469.387 340.46 444.037 348.046 425.85 360.607C421.862 363.356 419.15 366.718 414.787 369.193C399.737 377.729 371.487 378.917 355.6 372.53C351.5 370.88 348.225 367.831 343.9 366.943C331.162 364.331 324.7 370.205 316.887 379.004C311.35 385.241 306.762 395.639 296.85 395.526C297.45 393.427 297.875 390.115 298.425 387.665C299.15 384.416 298.937 380.004 300.45 377.504C301.837 375.217 306.212 373.242 308.287 371.193C310.362 369.143 317.25 361.319 318.25 359.132C322.112 350.683 317.212 342.272 311.012 336.561C313.3 329.699 315.287 323.738 318.087 316.914C329.162 313.227 340.1 309.577 349.562 318.851C360.8 329.849 353.15 344.522 369.237 354.995C388.887 367.793 416.825 360.532 428.562 340.522C440.3 320.513 441.062 309.752 461.25 295.379C466.787 291.442 473.912 287.231 480.837 287.056H480.812Z" fill="#6FC8BD"/>
<path d="M599.525 403.4C594.813 410.799 594.85 423.222 600.313 430.134C596.263 430.721 586.525 434.958 582.038 436.62C574.5 439.42 567.45 443.682 559.425 445.069C561.25 451.243 564.425 453.643 563.163 460.992C561.563 470.328 552.988 474.202 551.563 485.15L547.5 477.814C545.425 474.227 540.925 470.24 537.15 468.503C517.263 459.342 509.913 489.875 489.425 483.988C466.163 477.289 472.8 441.282 489.975 430.271C505.538 420.298 508.813 428.622 522.413 432.146C528.563 433.733 535.75 433.046 542.275 434.296C546.95 435.196 551.075 437.158 555.475 438.77C552.45 432.621 549.963 425.997 546.825 419.91C561.163 415.624 575.138 409.812 589.463 405.55C592.788 404.563 596.175 404.225 599.5 403.4H599.525Z" fill="#09938C"/>
<path d="M237.088 228.89C248.525 243.325 258.625 258.923 263.825 276.845C251.65 280.644 239.3 284.494 230.825 294.555C222.35 304.615 219.275 318.476 219.8 331.874C197.525 326.912 175.088 312.164 160.05 295.717C161.125 290.568 164.175 285.593 168.438 282.494C181.788 272.795 192.4 286.918 205.088 281.407C214.463 277.332 208.038 268.084 207.313 260.647C205.313 240.05 218.113 230.802 237.088 228.902V228.89Z" fill="#6FC8BD"/>
<path d="M237.088 228.89C218.1 230.79 205.313 240.038 207.313 260.635C208.038 268.071 214.463 277.32 205.088 281.394C192.4 286.906 181.788 272.783 168.438 282.482C164.175 285.581 161.125 290.568 160.05 295.705C151.775 286.656 147.7 281.644 141.963 270.546C153.55 269.846 166.413 264.872 173.738 255.536C178.925 248.924 179.4 244.238 178.913 235.951C181.138 236.001 183.138 236.551 183.65 233.977C184.25 230.94 182.113 226.715 180.488 224.153C194.75 224.853 211.413 224.878 218.225 210.005C225.925 217.279 229.838 219.716 237.1 228.877L237.088 228.89Z" fill="#09938C"/>
<path d="M581.45 211.592C581.012 214.567 580.862 223.078 585.025 223.428C587.537 223.64 597.8 214.604 600.312 212.38C602.312 226.465 613.587 237.313 628.612 232.814C622.95 245.625 616.737 259.985 606.6 269.758C608.125 261.747 600.262 245.475 592.237 242.85C584.687 240.375 576.362 244.375 570.837 249.324C569.325 250.674 568.437 252.936 566.525 254.436C561.025 258.773 562.225 253.686 560.375 250.336C557.075 244.35 549.7 237.926 542.975 236.301L531.912 234.389C534.15 220.716 536.05 213.442 541.35 200.582C550.325 209.368 556.95 216.354 570.75 214.642C574.575 214.167 577.65 211.867 581.45 211.58V211.592Z" fill="#09938C"/>
<path d="M531.913 234.389L542.975 236.301C549.713 237.926 557.075 244.35 560.375 250.336C562.225 253.686 561.013 258.772 566.525 254.436C568.438 252.936 569.338 250.674 570.838 249.324C576.363 244.375 584.688 240.375 592.238 242.85C600.263 245.474 608.125 261.747 606.6 269.758C605.763 274.208 585.125 290.08 580.438 293.542C579.4 294.304 578.038 294.529 577.513 294.917C571.213 270.321 553.95 267.096 531.913 275.27C529.05 258.26 529.138 251.311 531.913 234.389Z" fill="#6FC8BD"/>
<path d="M552.35 324C549.687 329.699 544.862 334.073 541.037 339.023C531.225 351.671 522.287 364.994 512.262 377.454C510.125 373.992 509.825 370.668 507.175 367.218C500.125 358.032 475.812 346.884 473.325 337.398C471.975 332.274 472.725 324.25 475.175 319.538C478.562 313.027 483.825 311.477 490.25 309.065C495.15 321.288 500.387 333.298 504.012 346.022C510.037 332.786 518.55 320.938 525.637 308.277C529.075 318.713 540.725 330.061 552.375 324H552.35Z" fill="#09938C"/>
<path d="M220.575 434.845C222.087 435.07 223.875 434.683 225.575 434.945C244.162 437.82 262.487 442.357 281.1 445.069C281.562 441.919 282.112 438.757 282.675 435.633C309.062 451.318 292.725 488.55 263.8 482.801C264.95 481.526 268.875 474.952 270.075 472.952C270.512 472.215 271.412 472.415 270.1 471.377L218.2 460.779C223.862 454.517 226.475 441.557 220.562 434.833L220.575 434.845Z" fill="#09938C"/>
<path d="M162.388 419.911C153.088 428.372 144.638 441.245 130.938 440.745C121.163 453.268 113.05 469.74 102.25 481.239C97.0626 486.75 88.4126 491.337 90.2501 479.451C93.3001 459.692 108.338 445.919 116.95 429.909C119.213 425.697 119.138 421.398 121.363 417.023C125.663 408.575 135.138 401.838 141.95 395.552C141.9 406.625 154.288 414.174 162.388 419.923V419.911Z" fill="#09938C"/>
<path d="M581.45 211.592C577.65 211.88 574.575 214.179 570.75 214.654C556.95 216.367 550.337 209.368 541.35 200.594C546.362 188.421 551.437 177.385 560.237 167.212C566 160.55 578.375 146.477 585.225 159.475C591.275 170.961 586.25 193.145 583.575 205.481C583.137 207.468 581.675 209.993 581.437 211.605L581.45 211.592Z" fill="#6FC8BD"/>
<path d="M655.35 492.224C664.462 489.737 674.975 484.3 678.15 474.927C682.737 481.076 692.837 495.249 694.475 502.223C698.1 517.645 704.725 526.906 709.625 541.317C711.125 545.716 717.125 565.475 712.75 568.075C711.425 568.862 709.4 568.562 707.975 568.112C702.962 566.488 691.9 546.091 689.012 540.692C685.25 533.643 679.775 518.333 675.675 513.146C674.212 511.296 670.225 509.971 667.987 508.259C662.287 503.897 659.55 497.623 655.337 492.212L655.35 492.224Z" fill="#09938C"/>
<path d="M177.325 529.181C174.838 533.868 173.4 539.317 169.788 544.054C166.913 547.816 160.688 550.903 159.075 553.777C151.075 568.087 149.55 593.483 139.45 608.056C136.325 612.568 129.438 615.743 128.563 608.206C126.588 591.021 140.6 564.638 143.325 547.466C144.2 541.966 142.113 537.217 142.925 532.118C143.775 526.756 149.4 516.17 152.163 511.096C158 519.92 167.675 525.344 177.325 529.181Z" fill="#09938C"/>
<path d="M269.312 310.64C261.812 308.153 252.325 320.376 249.262 326.362C248.337 328.162 248.5 331.987 246.512 332.649C243.262 333.749 233.3 333.711 229.575 333.461C226.675 333.274 222.662 332.499 219.775 331.862C219.262 318.476 222.025 304.966 230.8 294.542C239.575 284.119 251.625 280.632 263.8 276.833C267.025 287.943 268.425 299.117 269.3 310.64H269.312Z" fill="#09938C"/>
<path d="M178.9 235.964C179.375 244.25 178.9 248.937 173.725 255.548C166.4 264.884 153.538 269.846 141.95 270.559C135.025 257.161 130.938 245.975 134.45 230.44C140.788 202.444 154.925 226.078 166.563 232.189C170.075 234.039 174.913 235.889 178.9 235.976V235.964Z" fill="#6FC8BD"/>
<path d="M360.513 221.816C360.438 222.491 357.163 228.915 356.45 229.939C350.775 238.126 341.163 237.888 332.2 237.538C330.313 236.501 327.487 235.864 325.362 234.551C300.7 219.329 320.813 185.184 343.75 193.37C351.8 196.245 355.175 201.219 357.963 209.03C358.938 211.767 360.788 219.266 360.513 221.816Z" fill="#09938C"/>
<path d="M656.925 390.827C665.962 388.777 675.725 383.103 678.15 373.53C693.312 387.953 720.825 418.373 728.35 437.707C734 452.23 723.962 450.343 715.512 443.469C706.5 436.133 687.2 407.137 680.462 404.625C668.15 400.038 667.2 399.226 656.912 390.827H656.925Z" fill="#09938C"/>
<path d="M281.113 329.512L304.313 357.807C305.763 352.696 306.85 347.371 308.425 342.285C309.1 340.098 310.513 338.023 310.988 336.598C317.188 342.31 322.088 350.721 318.225 359.17C317.225 361.357 310.3 369.218 308.263 371.23C306.225 373.242 301.8 375.255 300.425 377.542C298.913 380.041 299.125 384.466 298.4 387.703C290.163 379.816 282.563 370.405 274.438 362.532C269.7 357.945 264.025 353.546 259.088 349.184C267.025 343.31 275.925 338.26 281.1 329.537L281.113 329.512Z" fill="#09938C"/>
<path d="M475.3 235.176C468.113 233.077 459.65 226.565 458.788 218.666C457.55 207.381 466.25 192.17 478.25 190.571C503.55 187.221 513.35 224.391 484.738 233.214C481.8 234.127 477.65 234.127 475.3 235.176Z" fill="#09938C"/>
<path d="M317.275 8.77355C316.05 10.5733 317.4 12.8979 317.212 15.3475C316.337 26.6333 305.387 36.5943 300.762 46.5052C297.162 41.3935 291.712 34.8695 287.025 30.7702C279.6 24.2837 264.325 17.4472 268.5 5.1991C268.962 3.83681 270.537 1.3247 271.862 0.699793C278.712 -2.46222 309.275 5.78651 317.275 8.77355Z" fill="#6FC8BD"/>
<path d="M609.75 504.022C602.137 506.222 596.825 514.183 595.8 521.907C595.45 524.569 595.987 526.769 595.587 529.181C584.912 525.319 572.45 521.407 561.537 518.02C560.012 517.545 558.7 517.12 557.062 517.395C561.35 504.497 553.15 500.173 551.087 489.9C550.6 487.45 551.462 487.175 551.562 485.95C571.3 490.949 590.662 497.048 609.737 504.035L609.75 504.022Z" fill="#09938C"/>
<path d="M218.213 210.018C211.4 224.891 194.738 224.866 180.475 224.166C176.325 217.617 163.138 204.019 165.688 195.62C166.888 191.708 181.113 190.946 184.788 191.158C194.275 191.708 208.413 198.07 215.05 204.919C216.2 206.106 217.813 209.643 218.2 210.018H218.213Z" fill="#6FC8BD"/>
<path d="M568.075 55.9415C562.65 48.9926 557.875 40.9813 557.037 31.9952L559.425 21.3469C572.487 19.9096 590.575 18.1473 602.962 24.5839C608 27.2085 609.412 32.5826 604.975 36.6195C599.887 41.2438 583.85 46.9054 576.712 50.8048C573.85 52.3671 570.875 54.2293 568.075 55.929V55.9415Z" fill="#6FC8BD"/>
<path d="M480.025 67.7396C480.275 83.5121 491.738 93.3731 505.188 99.1847C500.6 101.309 495.325 102.647 490.988 105.034C483.888 108.946 477.725 118.607 474.525 125.906C470.65 124.143 459.813 122.269 455.65 122.756C456.05 118.682 457.463 114.42 458.788 110.558C463.9 95.6353 470.313 79.4877 480.025 67.7271V67.7396Z" fill="#09938C"/>
<path d="M577.512 294.917C575.45 296.405 573.375 298.754 570.85 300.441C567.4 302.741 563.325 305.441 559.425 306.703C554.462 303.953 550.037 300.454 544.762 298.167C543.137 297.467 537.075 295.03 535.837 294.905C534.137 288.381 533.012 281.832 531.912 275.258C553.95 267.084 571.212 270.309 577.512 294.905V294.917Z" fill="#09938C"/>
<path d="M628.613 232.814C613.588 237.301 602.313 226.453 600.312 212.38C607.1 206.393 611.137 200.757 619.725 196.02C624.087 193.62 635.675 188.059 637.25 196.282C639.712 209.218 633.625 221.516 628.625 232.814H628.613Z" fill="#6FC8BD"/>
<path d="M166.325 374.317C166.15 375.905 166.825 376.917 167.55 378.192C169.888 382.354 175.763 390.54 179.188 393.689C181.025 395.389 184.763 396.277 185.2 398.689C177.625 405.725 170.088 412.924 162.4 419.91C154.3 414.161 141.9 406.612 141.963 395.539C149.988 388.128 157.725 381.091 166.338 374.317H166.325Z" fill="#6FC8BD"/>
<path d="M193.837 497.736C188.412 508.259 182.8 518.882 177.325 529.181C167.675 525.344 158 519.932 152.162 511.096C157.425 501.448 164.4 491.337 170.25 482.013C177.387 488.362 183.7 496.373 193.837 497.736Z" fill="#6FC8BD"/>
<path d="M678.15 474.939C674.975 484.3 664.463 489.75 655.35 492.237C647.875 482.601 640.563 472.977 633.338 463.154C642.225 461.042 649.475 454.13 655.35 447.431C662.875 456.592 671.062 465.441 678.15 474.939Z" fill="#6FC8BD"/>
<path d="M678.15 373.53C675.725 383.091 665.95 388.778 656.925 390.827C648.413 383.866 640.725 376.005 632.55 368.818L645.9 355.833L649.85 348.384C660 356.995 668.488 364.344 678.15 373.542V373.53Z" fill="#6FC8BD"/>
<path d="M524.838 30.7954C522.3 46.418 530.613 64.4902 543.713 73.2389C540.35 75.876 536.988 79.138 533.488 81.8875C524.5 76.5009 515.288 73.1264 508.788 64.5277C504.775 59.216 502.038 52.9795 500.463 46.518C508.75 39.694 514.963 35.4197 524.838 30.7954Z" fill="#6FC8BD"/>
<path d="M655.35 447.419C649.475 454.105 642.225 461.029 633.338 463.141C627.275 454.893 621.65 446.369 615.4 438.233C614.413 436.945 612.475 432.859 612.113 432.484C619.375 430.096 626.225 423.248 628.625 415.974C637.888 426.41 646.488 436.62 655.363 447.419H655.35Z" fill="#09938C"/>
<path d="M210.35 465.503C205.05 473.102 198.5 488.7 193.838 497.736C183.7 496.373 177.388 488.362 170.25 482.013C177.55 470.365 184.1 460.154 192.263 448.993C193.138 458.267 202.525 462.741 210.35 465.503Z" fill="#09938C"/>
<path d="M363.662 50.4422C364.012 52.2044 362.937 52.8668 362.15 54.0416C351.5 69.8892 339.087 78.2004 320.425 82.6747C318 78.9128 316.2 75.6133 314.137 71.6639C332.125 63.9276 345.612 50.1672 350.3 30.7827C358.325 39.2939 358.625 39.6314 363.662 50.4297V50.4422Z" fill="#6FC8BD"/>
<path d="M374.675 87.3867C375.038 89.9738 376.25 95.073 376.25 97.2102V112.145C376.25 112.433 377.012 113.445 377.062 114.47C377.35 120.369 376.825 126.306 377.825 132.192C372.437 130.805 367.287 131.23 362.1 132.98C357.787 122.306 348.663 113.77 340.875 105.471C346.188 102.572 352.9 101.497 358.2 98.8225C364.175 95.8104 368.538 90.0238 374.675 87.3992V87.3867Z" fill="#09938C"/>
<path d="M630.975 526.819L625.487 533.518C620.737 536.942 612.137 542.642 607.387 537.042C602.637 531.443 602.75 531.768 595.6 529.181C596 526.781 595.462 524.569 595.812 521.907C596.825 514.171 602.15 506.222 609.762 504.022C613.375 505.347 617.137 505.722 620.525 507.797C627.575 512.121 628.962 519.445 630.987 526.819H630.975Z" fill="#6FC8BD"/>
<path d="M228.438 361.732C225.75 369.28 224.6 380.616 216.65 384.528C210.8 381.141 208.412 383.166 203.287 382.166C200.25 381.579 196.05 374.855 195.05 371.918C193.225 366.556 194.35 361.644 193.062 356.22C205.35 350.446 210.638 351.771 222.7 357.645C225.138 358.832 226.95 360.919 228.45 361.719L228.438 361.732Z" fill="#6FC8BD"/>
<path d="M269.312 310.64C275.325 312.639 279.713 323.65 281.1 329.512C275.913 338.235 267.025 343.285 259.088 349.159C255.338 345.847 251.538 343.822 249.338 338.86C248.363 336.661 248.813 332.849 246.5 332.649C248.488 331.974 248.325 328.162 249.25 326.362C252.313 320.388 261.8 308.152 269.3 310.64H269.312Z" fill="#6FC8BD"/>
<path d="M623.9 327.15C623.313 329.512 624.75 331.911 624.75 334.611C624.75 339.46 618.388 352.183 613.675 353.083C611.038 353.596 606.925 352.371 604.238 353.871C596.688 348.384 592.738 341.11 589.3 332.649C597.625 327.387 605.488 318.938 616.675 322.175C619.638 323.025 621.55 325.612 623.888 327.15H623.9Z" fill="#6FC8BD"/>
<path d="M203.275 382.178C197.888 386.578 193.413 391.989 188.35 396.739C187.313 397.714 185.8 398.113 185.188 398.688C184.763 396.289 181.013 395.389 179.175 393.689C175.75 390.54 169.888 382.353 167.538 378.192C166.813 376.904 166.138 375.892 166.313 374.317C175.15 367.356 182.75 361.082 193.05 356.232C194.338 361.657 193.213 366.568 195.038 371.93C196.038 374.855 200.238 381.579 203.275 382.178Z" fill="#09938C"/>
<path d="M255.162 375.892C251.925 384.816 248.437 393.227 241.8 400.263C233.575 395.264 224.687 389.202 216.637 384.541C224.6 380.629 225.75 369.293 228.425 361.744C237.275 366.506 246.412 370.943 255.162 375.892Z" fill="#09938C"/>
<path d="M369.95 66.1648C372.025 73.4137 373.6 79.8627 374.662 87.3866C368.525 90.0112 364.162 95.7978 358.187 98.8098C352.887 101.484 346.175 102.572 340.862 105.459C336.587 100.897 332.35 96.7226 328.287 92.0984C338.587 88.6114 348.137 85.4744 356.6 78.3505C361.075 74.5885 364.687 68.7519 369.962 66.1523L369.95 66.1648Z" fill="#6FC8BD"/>
<path d="M564.937 349.946L579.875 371.168C573.537 375.917 565.837 382.479 559.437 387.678C551.425 382.791 546.025 374.905 542.137 366.456C549.587 360.645 557.412 355.433 564.937 349.946Z" fill="#6FC8BD"/>
<path d="M604.25 353.87C601.9 355.183 596.475 360.319 593.487 362.369C589.325 365.244 583.662 368.318 579.875 371.155L564.938 349.934C573.488 343.71 580.062 338.485 589.312 332.636C592.75 341.097 596.712 348.384 604.25 353.858V353.87Z" fill="#09938C"/>
<path d="M628.612 415.974C626.212 423.247 619.362 430.096 612.1 432.484C609.9 430.259 603.35 429.684 600.312 430.121C594.85 423.222 594.812 410.799 599.525 403.388C599.75 403.338 600.625 402.238 601.612 401.976C611.375 399.376 616.462 401.426 623.125 408.475C625.175 410.649 626.862 413.999 628.612 415.961V415.974Z" fill="#6FC8BD"/>
<path d="M533.488 81.8876C527.813 86.3619 525.95 88.2866 519.338 92.111C512.563 87.3868 504.825 83.5249 499.275 77.1883C494.35 71.5642 491.388 64.6653 489.463 57.5289C493.763 53.0546 495.213 50.8549 500.475 46.5181C502.05 52.9796 504.788 59.2161 508.8 64.5278C515.3 73.1265 524.512 76.5009 533.5 81.8876H533.488Z" fill="#09938C"/>
<path d="M220.575 434.845C226.487 441.557 223.887 454.53 218.212 460.791C214.3 461.229 212.55 462.366 210.35 465.503C202.525 462.754 193.15 458.267 192.262 448.993C194.725 445.631 196.712 441.057 199.712 437.97C205.475 432.033 210.725 432.321 218.475 433.421C219.575 433.571 220.437 434.82 220.562 434.845H220.575Z" fill="#6FC8BD"/>
<path d="M649.85 348.371L645.9 355.82L632.55 368.805C630.688 367.168 627.85 365.781 625.888 364.069C621.775 360.469 618.313 356.12 613.675 353.083C618.375 352.171 624.738 339.448 624.75 334.611C624.75 331.899 623.313 329.512 623.9 327.149C633.825 333.661 640.938 340.81 649.85 348.371Z" fill="#09938C"/>
<path d="M340.862 22.1465C339.8 29.8453 337.55 38.1315 332.987 44.5306C327.862 51.7169 318.35 60.1032 309.412 61.4529C307.875 58.5159 306.387 55.6663 304.7 52.8043C313 45.7429 325.15 31.845 326.512 20.7592C326.887 17.6847 325.862 15.36 326.712 12.7104C332.962 15.8225 335.575 18.1096 340.862 22.1465Z" fill="#6FC8BD"/>
<path d="M535.85 294.917C537.087 295.03 543.163 297.467 544.775 298.179C550.05 300.466 554.462 303.966 559.437 306.715C558.425 308.453 560.263 309.777 560.2 311.74C560.1 315.064 555.388 322.425 552.363 324C540.713 330.062 529.075 318.713 525.625 308.278C527.25 305.366 531.312 294.48 535.85 294.917Z" fill="#6FC8BD"/>
<path d="M277.963 390.04C274.8 394.002 273.863 399.076 271.213 403.338C268.7 407.375 264.913 409.449 263.025 413.624C255.925 409.224 248.913 404.588 241.8 400.263C248.438 393.239 251.925 384.816 255.163 375.892C262.963 380.304 270.288 385.553 277.963 390.04Z" fill="#6FC8BD"/>
<path d="M519.338 92.1108C514.575 94.8729 510.038 96.9475 505.188 99.1847C491.75 93.3731 480.288 83.5121 480.025 67.7395C483.4 63.6527 485.8 61.328 489.463 57.5161C491.4 64.6525 494.363 71.564 499.275 77.1756C504.825 83.5121 512.55 87.374 519.338 92.0983V92.1108Z" fill="#6FC8BD"/>
<path d="M369.95 66.165C364.675 68.7646 361.062 74.5887 356.587 78.3631C348.125 85.487 338.562 88.624 328.275 92.111C325.125 88.5365 323.5 87.4742 320.412 82.6749C339.075 78.2006 351.5 69.8894 362.137 54.0418C362.925 52.867 364 52.2171 363.65 50.4424C366.525 56.5914 367.937 59.141 369.937 66.165H369.95Z" fill="#09938C"/>
<path d="M350.3 30.7952C345.6 50.1797 332.113 63.94 314.138 71.6764C312.35 68.2519 310.975 64.4275 309.425 61.4529C318.35 60.1156 327.863 51.7294 333 44.5305C337.563 38.1315 339.813 29.8453 340.875 22.1465C346.15 26.1709 345.988 26.2084 350.313 30.7952H350.3Z" fill="#09938C"/>
<path d="M549.212 22.9341C546.237 33.395 547.262 46.4055 554.725 54.7667C556.5 56.7539 559.637 57.3788 560.225 60.6658C557.1 62.8029 553.837 65.4275 550.787 67.7397C542.875 59.9534 536.3 50.1174 534.287 39.0441L535.062 26.871C540.7 24.9213 543.137 24.1464 549.212 22.9466V22.9341Z" fill="#6FC8BD"/>
<path d="M535.063 26.8584L534.288 39.0315C536.3 50.1048 542.875 59.9408 550.788 67.7271C548.513 69.4518 545.888 71.5265 543.713 73.2263C530.613 64.4651 522.313 46.4054 524.838 30.7828C528.763 28.9456 531.125 28.2207 535.063 26.8584Z" fill="#09938C"/>
<path d="M369.95 228.89C370.65 232.439 372.575 235.964 373.013 239.588C374.6 252.949 369.275 268.484 353.013 261.947L346.363 256.411C347.125 253.849 347.613 251.011 346.363 248.549C351.15 246.262 355.488 250.912 360.45 248.087C367.275 244.2 366.838 234.014 366.013 227.328C366.638 227.815 369.013 228.477 369.938 228.902L369.95 228.89Z" fill="#09938C"/>
<path d="M465.875 244.612C463.913 248.499 462.975 251.761 465.087 255.623C453.325 266.696 440.075 260.91 441.475 244.187C441.712 241.3 443.825 233.464 445.437 231.252C446.75 229.452 450.3 227.89 451.725 226.54C452.562 229.352 450.125 232.752 450.137 235.589C450.137 237.126 451.562 241.438 452.487 242.675C455.462 246.649 461.8 243.537 465.875 244.625V244.612Z" fill="#09938C"/>
<path d="M326.713 12.7105C325.85 15.3601 326.888 17.6973 326.513 20.7593C325.15 31.8326 313.013 45.7304 304.7 52.8044C303.563 50.8797 302.025 48.305 300.775 46.5178C305.4 36.6069 316.35 26.6459 317.225 15.3601C317.413 12.9105 316.063 10.5859 317.288 8.78613C320.788 10.0859 323.325 11.0233 326.725 12.7105H326.713Z" fill="#09938C"/>
<path d="M366.025 227.315C366.85 234.001 367.275 244.2 360.462 248.074C355.5 250.899 351.162 246.249 346.375 248.537C343.475 242.812 337.35 240.363 332.225 237.526C341.187 237.876 350.787 238.113 356.475 229.927C357.187 228.902 360.462 222.478 360.537 221.803C362.85 222.741 364.45 226.065 366.037 227.302L366.025 227.315Z" fill="#6FC8BD"/>
<path d="M559.425 21.3594L557.038 32.0077C557.875 40.9939 562.638 48.9926 568.075 55.954C565.7 57.4038 562.338 59.216 560.213 60.6658C559.625 57.3788 556.488 56.7414 554.713 54.7667C547.25 46.4055 546.225 33.4075 549.2 22.9341C553.2 22.1343 555.313 21.8093 559.425 21.3594Z" fill="#09938C"/>
<path d="M475.3 235.176C472.837 236.276 467.112 242.138 465.862 244.613C461.787 243.525 455.462 246.637 452.475 242.663C451.55 241.425 450.137 237.126 450.125 235.576C450.1 232.739 452.55 229.34 451.712 226.528C454.087 224.278 456.437 221.054 458.787 218.667C459.65 226.565 468.112 233.077 475.3 235.176Z" fill="#6FC8BD"/>
<path d="M418.975 495.649C434.075 480.538 464.275 477.026 477.212 496.224C507.1 540.604 436.288 574.986 411.3 532.255C403.788 519.42 409.225 505.41 418.975 495.649Z" fill="#09938C"/>
<path d="M436.575 398.089C471.475 392.577 469.238 449.918 445.413 459.592C423.525 468.478 394.788 453.668 405.188 427.234C409.175 417.098 425.613 399.813 436.575 398.089Z" fill="#09938C"/>
<path d="M512.038 502.623C527.95 499.373 542.013 515.971 532.85 530.506C523.213 545.791 497.113 537.33 499.75 517.058C500.513 511.147 506.038 503.86 512.05 502.623H512.038Z" fill="#09938C"/>
<path d="M357.875 425.685C382.213 450.893 342.15 487.675 315.763 467.391C305.463 459.479 303.363 441.17 307.688 429.584C314.725 410.737 345.925 413.311 357.875 425.685Z" fill="#09938C"/>
<path d="M300.575 490.862C311.525 489.312 323.787 495.224 330.2 504.072C348.275 529.031 308.65 571.862 285.85 542.916C273.375 527.081 278.437 494.011 300.575 490.862Z" fill="#09938C"/>
</g>
</g>
<defs>
<clipPath id="clip0_504_11355">
<rect width="669" height="516" fill="white"/>
</clipPath>
<clipPath id="clip1_504_11355">
<rect width="640" height="731" fill="white" transform="translate(90)"/>
</clipPath>
</defs>
</svg>
