<svg width="669" height="516" viewBox="0 0 669 516" fill="none" xmlns="http://www.w3.org/2000/svg">
<g clip-path="url(#clip0_504_11399)">
<rect width="669" height="516" fill="#D9D9D9" fill-opacity="0.6"/>
<g clip-path="url(#clip1_504_11399)">
<path d="M419.152 506.146C420.815 508.858 426.162 513.846 425.983 517.248C425.779 521.161 414.853 533.887 412.845 539.233C405.591 558.571 425.715 567.101 441.284 570.094C479.97 577.537 484.78 552.854 499.185 524.372C499.696 523.374 500.758 522.888 500.861 522.683C517.197 526.686 534.289 535.46 548.45 544.643C591.959 572.882 626.884 625.293 636.607 676.311C642.786 708.745 641.046 727.136 611.686 744.837C556.855 777.898 437.727 779.254 373.865 777.54C323.512 776.184 214.426 767.948 175.919 734.234C156.679 717.391 159.723 695.278 164.508 672.231C178.542 604.511 237.07 541.842 302.403 520.739C302.749 521.392 304.015 522.044 304.348 522.683C317.512 547.584 319.341 565.439 353.46 562.548C363.912 561.666 385.046 555.616 386.978 543.543C388.73 532.582 375.937 516.084 370.5 506.159H419.139L419.152 506.146ZM284.672 553.033C275.5 553.621 245.475 574.455 241.598 582.973C238.515 589.739 243.492 597.272 250.541 597.285C255.747 597.285 265.892 584.316 270.28 580.53C275.32 576.195 292.041 566.948 292.374 560.937C292.591 557.1 288.6 552.764 284.659 553.02L284.672 553.033ZM522.609 569.992C526.421 574.481 534.084 579.597 538.344 583.919C542.182 587.82 554.514 603.948 558.544 604.101C571.925 604.651 570.39 592.578 564.083 584.444C559.363 578.356 534.532 557.918 527.611 557.611C520.152 557.279 518.157 564.71 522.621 569.979L522.609 569.992ZM312.868 574.404C305.742 575.773 279.171 603.922 277.534 611.11C275.244 621.188 285.76 626.649 293.179 619.935C297.887 615.676 304.668 603.807 309.247 598.065C312.702 593.742 321.721 587.181 321.938 581.477C322.117 576.629 317.409 573.522 312.868 574.404ZM497.662 586.106C486.161 589.483 503.483 609.78 506.541 614.755C510.455 621.111 516.992 640.001 526.869 635.755C531.973 633.556 533.815 628.146 532.306 623.03C531.065 618.796 516.174 598.423 512.502 594.202C508.46 589.56 504.417 584.137 497.65 586.119L497.662 586.106ZM350.812 588.012C349.66 588.204 347.204 589.56 346.258 590.353C341.012 594.765 327.836 625.281 327.784 632.213C327.708 641.587 338.505 647.419 345.081 639.758L358.59 597.834C360.458 592.693 356.146 587.13 350.799 588.012H350.812ZM397.493 590.928C392.875 591.849 392.095 596.479 391.225 600.29C389.293 608.731 387.041 633.99 390.739 641.037C394.82 648.813 407.625 648.302 409.928 639.413C411.732 632.43 409.033 604.165 407.011 596.568C405.847 592.22 401.971 590.033 397.493 590.928ZM450.994 595.775C447.296 596.44 445.301 600.367 445.377 603.833C445.493 609.153 451.237 635.563 453.245 640.794C457.467 651.806 471.309 649.594 472.652 640.769C473.445 635.538 466.972 615.689 464.644 609.959C462.315 604.229 458.708 594.407 451.006 595.775H450.994ZM195.684 665.363C198.755 669.302 206.558 670.121 209.846 665.99C213.991 660.797 219.582 644.324 222.908 637.226C225.492 631.714 236.711 617.786 227.475 613.629C219.095 609.844 214.272 618.195 210.55 623.899C205.676 631.369 193.765 651.218 193.765 659.493C193.765 661.066 194.738 664.135 195.684 665.35V665.363ZM579.384 622.045C573.576 622.953 572.911 630.128 574.088 634.745C580.881 644.657 583.273 662.549 589.554 671.796C595.516 680.583 607.208 675.85 606.978 665.146C606.85 658.764 592.535 630.716 587.878 625.805C586.011 623.836 582.16 621.597 579.384 622.032V622.045ZM265.188 642.547C263.973 642.866 261.517 644.746 260.583 645.718C255.543 650.975 242.302 685.992 242.072 693.423C241.688 705.023 254.762 708.182 259.048 700.598C262.553 694.382 265.905 677.833 268.336 670.018C270.05 664.519 275.999 652.535 274.975 647.893C273.952 643.25 269.576 641.383 265.176 642.559L265.188 642.547ZM543.372 659.147C536.911 653.315 528.672 657.804 529.159 666.962C529.453 672.41 538.421 706.264 541.005 710.638C545.111 717.621 555.576 718.414 558.506 711.124C561.883 702.696 553.823 681.785 550.267 673.19C549.09 670.351 545.099 660.708 543.384 659.16L543.372 659.147ZM326.492 666.808C325.341 667.026 322.168 668.675 321.337 669.507C316.898 673.983 310.36 707.863 311.256 714.692C312.983 727.993 329.601 727.354 331.52 714.692L336.407 673.97C335.383 669.392 331.328 665.875 326.492 666.808ZM396.521 669.686C393.169 670.287 390.879 673.932 390.201 677.053C387.911 687.604 385.877 709.129 387.054 719.616C387.899 727.098 392.44 731.536 400.193 730.845C413.651 729.63 408.546 710.203 409.429 701.148C407.114 692.86 411.924 666.898 396.534 669.686H396.521ZM467.522 672.64C462.686 673.715 461.01 679.316 460.985 683.639C460.946 691.991 462.661 706.149 464.017 714.641C465.514 724.054 467.778 732.354 479.752 729.617C486.724 728.019 486.545 720.409 486.264 714.756C485.918 707.76 480.827 683.499 477.718 677.59C475.658 673.676 471.987 671.643 467.522 672.627V672.64Z" fill="#1B9A8F"/>
<path d="M182.751 77.2377L189.07 88.889C193.97 84.3359 198.78 79.3224 201.415 73.0428C204.051 66.7759 203.181 56.0455 212.955 59.1917C226.362 63.5018 212.507 89.1448 207.044 96.179C205.356 98.3532 196.682 106.359 196.503 107.101C195.966 109.416 199.33 115.35 199.752 118.075C211.739 108.137 226.016 94.6187 233.487 80.7932C236.532 75.153 235.534 68.2339 243.3 69.628C247.918 70.4593 250.835 75.1275 250.848 79.6422C250.899 91.319 232.758 115.734 224.609 124.405C222.051 127.13 209.027 138.218 208.49 139.446C208.132 140.239 211.33 147.951 212.481 148.207C227.36 138.448 242.34 126.477 254.263 113.215C258.715 108.265 270.779 90.0784 274.63 87.8658C283.086 83.0058 288.664 91.6387 286.092 100.297C281.755 114.864 250.771 149.204 238.72 159.922C235.854 162.467 223.048 171.074 222.115 172.558C220.426 175.244 226.132 182.534 225.569 186.153C227.859 188.187 259.854 161.687 263.513 158.451C268.476 154.039 274.016 148.667 278.634 143.935C286.386 135.993 295.175 123.638 303.375 117.103C306.42 118.561 307.495 115.261 307.891 115.171C311.576 114.276 311.115 116.796 311.32 116.885C311.563 116.988 314.787 115.568 315.695 118.356C316.719 121.464 315.107 127.488 314.07 130.736C312.062 137.016 306.152 144.945 302.211 150.496C284.621 175.308 261.773 195.822 237.453 213.881C239.436 217.283 239.922 221.439 241.854 224.829C242.263 225.545 241.675 226.619 243.428 225.967C247.585 224.419 259.009 215.914 263.397 212.845C283.278 198.93 301.93 182.534 319.443 165.779C324.394 161.047 338.428 144.306 343.213 142.861C351.298 140.418 355.686 144.856 353.306 152.952C351.477 159.167 334.59 180.372 329.601 186.626C311.832 208.906 290.595 228.563 267.107 244.755C263.014 247.581 258.472 250.676 253.777 252.364L257.692 263.964L259.879 263.837C281.96 251.354 303.721 237.209 323.703 221.593C340.59 208.381 355.942 193.648 371.114 178.531C380.568 174.515 386.184 181.728 383.664 191.09C380.632 202.37 354.036 229.011 344.748 237.772C322.399 258.836 297.798 277.879 271.713 294.135C269.551 297.537 275.64 302.845 275.167 306.797C319.405 284.709 359.191 253.899 394.449 219.38C407.728 214.738 412.883 225.673 407.267 237.055C397.314 257.237 362.696 287.305 344.684 301.898C327.209 316.056 308.429 328.628 289.853 341.29L297.017 355.307C310.143 347.454 323.563 340.011 336.164 331.314C342.701 326.799 369.374 304.533 374.121 304.06C381.886 303.279 386.325 311.465 383.575 318.409C364.449 346.866 339.388 368.608 311.371 387.972L318.023 402.027C319.866 403.332 336.356 392.793 339.247 390.798C350.338 383.15 360.125 373.238 370.5 364.669C380.197 361.497 386.351 368.621 383.869 378.034C383.293 380.221 373.391 394.571 371.281 397.538C360.957 412.029 348.982 424.319 334.578 434.768L342.765 451.676L376.909 422.618C385.174 419.216 393.208 425.496 391.839 434.615C390.867 441.061 371.92 466.051 366.624 471.666C363.579 474.889 359.933 477.255 356.965 480.529C361.622 488.97 365.856 497.705 370.487 506.159C375.924 516.084 388.705 532.582 386.965 543.543C385.046 555.616 363.899 561.666 353.447 562.548C319.328 565.439 317.486 547.584 304.335 522.683L306.267 517.823C300.663 520.113 303.209 518.335 302.365 515.624C302.083 514.715 300.446 514.92 300.42 514.345C300.331 512.784 302.288 509.446 301.393 507.131L298.975 510.047C297.235 509.357 298.783 507.502 297.964 507.08C294.945 505.52 288.216 503.947 287.128 508.193L274.156 507.144C276.126 510.047 273.709 508.564 272.212 510.06C267.849 510.086 256.643 510.917 253.381 510.086C252.293 509.804 253.176 508.103 252.268 508.103L250.822 510.047C251.73 506.722 246.524 508.078 246.92 511.032C246.28 510.994 245.615 511.07 244.976 511.032C237.031 510.597 228.447 509.523 220.208 509.05C217.253 508.883 212.481 508.436 209.948 510.06C197.603 508.564 184.9 506.402 172.99 502.757C167.719 501.146 157.612 497.987 154.504 493.523C156.18 492.871 153.954 490.684 153.941 489.149C153.826 475.899 173.399 482.985 180.409 483.65C186.652 484.251 194.379 484.724 200.648 484.801C205.855 484.852 214.733 485.607 218.712 482.818C240.153 482.46 260.046 480.683 280.975 476.002C281.794 475.17 275.474 460.232 273.504 459.593C227.04 466.282 177.211 464.466 131.719 452.597C125.067 450.858 112.76 448.351 108.782 442.954C108.756 436.175 107.336 431.673 115.344 430.548C123.852 429.358 139.037 432.799 148.363 433.195C149.809 433.259 150.487 432.262 150.615 432.262C156.96 432.479 163.919 432.223 170.073 434.206C169.599 434.206 164.098 433.541 165.698 435.178C178.017 435.152 190.35 435.178 202.669 435.178C203.411 435.178 207.722 435.587 205.087 434.206C207.978 434.052 213.019 432.543 216.281 432.274C228.562 431.264 246.498 431.136 258.063 427.363C259.048 427.043 259.892 427.069 260.506 425.956C258.626 423.462 255.363 410.558 253.163 410.059C239.846 412.579 226.362 413.295 212.878 413.781C205.97 411.555 197.731 413.397 190.503 412.822C190.26 414.497 192.32 413.666 193.42 413.781H172.516C150.346 412.272 103.357 404.956 84.7436 393.561C76.9655 388.803 78.1936 378.699 86.4067 375.847C108.897 380.963 131.988 382.613 154.951 384.633C168.614 384.685 182.264 384.48 195.863 383.623C198.23 383.47 199.049 384.352 197.309 381.679C212.021 380.733 226.822 379.607 241.086 375.834C239.372 371.013 238.259 366.268 237.197 361.254C236.865 359.694 237.031 358.428 234.856 358.389C202.234 363.339 168.397 363.953 135.672 359.182C127.165 357.942 118.978 355.473 110.752 353.913C109.652 353.708 107.374 353.069 106.85 354.45C99.0717 352.481 75.5199 346.636 70.3387 341.827C64.2493 336.174 66.8718 327.541 74.7395 325.687C78.7309 324.74 91.4983 328.398 96.7562 329.037C117.289 331.544 137.694 332.644 158.406 332.081C156.742 334.818 157.241 333.872 159.646 333.77C181.51 332.849 202.989 329.779 224.558 326.249C224.532 325.61 224.596 324.945 224.558 324.305C224.277 320.187 220.758 315.186 220.592 310.761C211.829 311.426 203.168 312.961 194.392 313.601C189.838 311.951 183.249 312.437 178.324 312.629C175.932 312.718 175.152 311.938 176.879 314.573C171.454 314.764 164.444 315.25 159.365 313.601C160.504 313.562 163.446 314.342 163.254 312.641C158.674 313.178 152.853 311.401 148.67 313.601C135.788 313.025 120.385 310.646 107.809 307.769L109.255 305.825C104.189 305.326 99.1229 304.047 94.1848 302.909C93.8778 302.832 93.5196 302.985 93.2126 302.909C86.2532 297.166 68.1511 298.381 69.1106 286.141C69.8142 277.125 82.7991 281.921 87.9674 282.381C103.997 283.788 119.924 285.451 136.018 285.4C137.169 285.4 138.743 284.44 139.907 284.428C140.918 286.039 143.604 285.4 145.242 285.412C153.032 285.515 160.568 285.694 168.115 284.428C174.435 283.366 175.599 284.709 180.307 284.543C182.073 284.479 181.599 282.688 182.392 282.509C184.337 282.062 186.87 282.765 189.032 282.484C196.324 281.563 203.667 280.642 210.921 279.555C209.59 277.406 208.72 269.451 207.07 268.338C205.701 267.418 196.286 268.824 193.407 268.863C186.038 267.149 177.25 267.789 169.561 267.878C167.911 267.891 165.237 267.251 164.226 268.863C141.557 268.006 97.5494 262.43 77.1318 253.311C72.1298 251.073 68.3814 246.341 70.2876 240.598C71.0296 238.36 78.1169 234.306 79.9079 234.83C80.394 234.971 80.087 235.904 83.4771 236.761C91.4343 238.769 102.053 238.258 109.741 238.705C110.061 238.718 110.394 238.692 110.713 238.705C116.329 241.481 122.79 240.15 128.7 240.662C147.02 242.222 176.853 245.292 194.379 241.621C203.526 239.716 196.951 232.72 195.735 226.005C162.039 227.131 126.206 222.961 94.1848 212.448C93.7755 208.126 85.895 209.903 83.4259 206.898C81.2895 204.301 80.9185 198.444 82.6712 195.579C85.4216 191.115 100.927 196.231 106.172 195.029C120.564 197.792 134.918 199.748 149.642 199.8C153.685 199.8 158.572 198.904 162.742 198.789C169.382 198.597 176.085 199.019 182.725 198.828C182.52 198.853 181.689 199.761 180.371 199.838C176.226 200.106 171.825 199.672 167.629 199.787C166.798 199.812 164.124 199.39 165.698 200.759C170.572 200.605 175.471 200.951 180.333 200.759C182.2 200.682 184.235 201.756 183.697 198.815C184.618 198.674 185.693 198.943 186.614 198.815L188.06 199.787L188.559 198.815L185.629 185.207C166.567 185.13 147.634 181.574 129.199 176.945C122.892 175.359 97.7285 168.938 94.6965 164.756C90.9482 159.577 93.7371 151.366 100.53 151.097C126.09 157.466 152.431 160.638 178.823 159.909L175.817 148.347C160.12 148.296 144.346 145.073 129.685 139.523C122.496 136.798 102.423 130.007 108.73 119.494C113.528 111.501 122.943 118.829 129.186 120.569C134.687 122.103 168.397 129.15 171.045 126.848C169.804 124.597 169.74 116.565 168.947 115.35C168.41 114.519 152.994 111.884 149.694 110.772C141.979 108.15 121.037 99.3764 127.229 88.3902C131.707 80.4607 146.546 90.9864 153.749 93.0839C157.753 94.2606 162.09 94.8872 166.184 95.7313V81.1513C168.371 81.1769 180.627 78.3248 182.725 77.2633L182.751 77.2377ZM304.348 511.019C302.979 510.316 301.751 511.633 302.416 511.966C303.785 512.669 305.013 511.352 304.348 511.019Z" fill="#55C3B9"/>
<path d="M419.152 506.146C410.965 492.781 403.276 479.097 394.615 466C391.57 459.58 395.856 451.612 403.097 451.625C412.244 451.625 433.698 476.858 439.403 484.443C440.337 485.683 441.399 487.052 441.54 488.65C442.563 489.354 450.725 475.989 450.137 473.789C449.817 472.599 441.182 462.035 439.544 459.989C432.303 450.934 423.617 440.741 415.749 432.236C408.188 424.063 396.509 415.149 389.933 407.194C384.534 400.659 383.997 388.867 393.579 386.718C400.564 385.158 416.721 396.655 422.76 400.914C437.702 411.427 454.102 427.325 466.358 440.971C467.087 441.777 467.74 442.8 467.791 443.913L474.482 432.632C475.096 431.481 475.723 430.215 475.582 428.872C475.428 427.299 457.339 407.846 454.653 404.994C443.216 392.831 429.31 378.699 416.133 368.608C408.777 362.981 393.08 355.396 387.963 350.089C382.308 344.231 381.707 332.183 390.892 330.482C397.749 329.216 416.107 339.819 422.709 343.553C448.205 357.993 470.465 377.087 490.652 398.177C492.597 398.574 491.842 397.742 492.315 396.95C493.594 394.788 497.995 385.976 497.893 384.045C497.79 382.254 492.213 377.266 490.678 375.796C468.648 354.859 447.079 332.785 423.502 313.6C416.619 308.011 397.404 296.04 393.336 290.272C388.167 282.944 391.673 270.487 401.063 270.819C405.361 270.973 419.37 280.245 423.937 283.021C456.597 302.832 485.049 328.372 514.485 352.48C513.769 349.232 521.637 338.681 520.856 336.903C496.626 318.153 476.273 295.273 454.192 274.183C447.501 267.788 422.721 248.591 420.559 241.672C418.167 234.011 422.274 227.655 430.346 227.911C434.657 228.051 438.175 230.916 441.834 233.039C469.121 248.873 492.75 273.198 516.954 293.137C519.168 294.966 534.711 307.628 535.888 306.771C535.888 303.676 542.604 295.183 541.325 293.15C505.325 269.835 478.268 236.185 447.911 206.552C443.446 197.702 448.717 191.461 458.35 193.213C464.068 194.249 487.467 214.251 493.569 219.265C506.554 229.919 518.605 241.647 532.101 251.738C534.596 253.605 554.233 267.903 555.359 266.893C554.821 263.146 560.463 258.273 558.826 255.229C541.913 243.412 525.973 228.64 512.055 213.407C503.867 204.442 488.132 186.946 482.157 177.162C475.735 166.649 483.641 158.783 494.413 162.966C519.999 185.27 544.127 209.532 572.86 227.987L576.697 216.4C566.988 211.796 557.482 202.869 549.999 194.939C541.67 186.127 519.679 159.909 515.585 149.601C511.581 139.522 520.971 133.025 530.003 139.062C540.135 145.828 553.721 164.245 563.61 173.568C566.22 176.036 588.006 195.003 589.388 193.955C589.247 191.652 593.354 187.355 592.177 185.36C592.036 185.13 590.168 184.567 589.388 183.8C581.098 175.806 571.99 166.636 565.248 157.325C561.909 152.721 551.764 137.949 550.267 133.409C547.018 123.561 553.555 116.425 563.099 121.553C575.316 137.489 587.252 153.604 602.539 166.713C603.115 166.713 607.183 157.786 607.004 156.648C606.863 155.816 604.765 155.535 603.959 154.652C597.716 147.784 584.693 131.286 583.785 122.193C583.132 115.619 588.211 110.976 594.736 112.281C598.65 113.074 602.821 125.543 605.546 129.675C608.271 133.806 611.737 137.092 615.192 140.456L621.511 126.848C625.08 128.958 634.854 131.58 639.025 131.708L638.053 148.232C638.82 149.025 647.11 146.403 648.735 145.789C653.545 143.986 663.869 136.056 666.888 135.877C671.097 135.622 675.178 140.597 674.832 144.587C674.065 153.437 652.688 163.234 644.846 165.255C642.07 165.971 633.805 166.547 633.306 166.854C632.628 167.276 630.658 175.755 630.262 177.418H645.345C648.351 177.418 659.992 174.323 663.549 173.248C669.203 171.547 679.489 165.344 684.235 165.677C692.973 166.291 696.03 177.597 687.984 183.083C676.79 190.706 652.982 197.625 639.485 198.789C636.517 199.045 624.735 198.213 623.584 198.942C622.893 199.377 621.652 206.156 620.526 207.55L626.36 208.535C625.886 208.535 620.385 207.87 621.985 209.507H651.178L650.679 208.535C665.442 207.563 680.551 202.357 695.045 200.861C709.949 199.326 712.93 212.793 702.606 218.14C687.561 225.928 657.984 230.52 640.957 231.875C637.349 230.2 631.784 230.737 627.805 230.903C625.413 231.006 624.633 230.213 626.36 232.847C623.046 232.835 614.513 231.108 612.697 232.323C612.236 232.63 609.243 240.918 608.949 242.197C608.488 244.192 609.14 243.296 610.33 243.514C634.355 247.798 665.737 247.696 689.941 244.384C697.246 243.386 710.256 237.298 714.759 244.166C720.426 252.825 711.894 258.797 704.192 261.061C703.719 259.066 701.058 260.856 700.303 262.033C699.996 262.097 699.651 261.982 699.331 262.033C697.31 262.391 694.866 261.637 693.497 263.977C693.177 264.015 692.832 263.926 692.525 263.977C687.561 264.834 681.344 265.563 676.956 267.865C676.636 267.903 676.304 267.827 675.984 267.865C665.161 269.234 654.274 269.95 643.336 270.717C641.532 270.845 639.703 270.487 639.012 272.725C625.695 272.994 612.595 271.843 599.559 269.144C598.075 269.387 593.75 281.473 594.262 283.417C594.556 284.517 595.964 284.862 596.923 285.118C613.925 289.467 633.268 289.249 650.679 289.262C653.583 289.262 656.526 289.326 659.43 289.262C672.926 288.993 686.282 288.341 699.791 287.305C704.499 286.947 716.921 282.893 719.544 287.996C726.132 300.772 706.047 303.177 697.809 305.773L698.333 306.771C697.489 307.014 696.632 307.423 695.416 307.743C694.431 305.837 692.18 307.09 690.76 307.461C661.937 314.79 631.682 316.03 602.654 313.524C598.996 313.204 585.205 310.365 583.132 310.825C581.316 311.234 576.007 327.029 577.81 328.065C588.825 329.805 599.686 331.288 610.778 332.056C611.098 332.081 611.43 332.03 611.75 332.056C646.368 338.502 681.753 334.473 716.819 334C717.126 334.076 717.51 333.897 717.791 334C726.976 349.628 711.561 349.36 700.623 352.353C698.602 352.903 697.425 351.534 699.305 354.424C698.359 354.527 697.297 354.284 696.389 354.424C669.383 358.568 639.076 361.395 611.2 360.256C596.552 359.655 582.109 356.663 567.563 355.499C566.988 355.588 567.167 356.074 567 356.368C566.872 356.599 567.116 357.034 567 357.34C564.595 356.842 564.941 358.466 564.339 359.975C563.623 361.766 559.644 373.02 560.22 373.826C583.823 379.019 608.002 381.078 632.181 381.653C632.5 381.653 632.833 381.653 633.153 381.653C637.093 383.278 644.577 383.29 648.722 381.653C649.694 381.653 650.666 381.653 651.639 381.653C658.163 383.495 666.504 382.996 673.041 381.653C679.195 381.935 679.706 380.387 682.47 379.735C685.08 379.121 689.02 380.067 692 379.697C698.998 378.84 711.702 374.504 712.994 386.015C714.209 396.847 701.774 399.444 693.472 401.119C692.448 399.098 689.544 400.62 688.61 402.091C688.303 402.155 687.945 402.027 687.638 402.091C658.125 407.872 628.701 410.123 598.637 408.882C593.495 408.678 586.996 405.877 581.597 408.895C576.595 408.435 552.225 404.457 550.139 405.148C547.862 405.902 544.549 418.027 543.576 420.943C543.832 422.49 548.361 422.222 549.487 422.516C548.617 425.79 553.043 424.383 555.32 424.46C555.64 424.46 555.973 424.447 556.293 424.46C569.994 428.182 584.13 428.744 598.126 429.32C598.446 429.333 598.778 429.307 599.098 429.32L606.876 431.264C627.498 432.428 649.656 433.067 670.636 432.236C672.517 432.159 674.538 433.233 674.001 430.292C677.532 429.946 681.805 431.174 684.709 428.348C685.783 428.488 686.129 429.115 686.653 429.32L690.542 432.236C695.493 438.694 693.28 444.143 686.653 447.801L630.223 457.521C628.279 457.585 626.334 457.469 624.39 457.521C607.784 457.917 590.015 458.211 573.269 457.559C560.374 457.06 546.928 454.183 534.43 453.594C532.651 453.505 530.822 453.607 529.056 453.671C528.839 454.272 529.184 455.116 529.044 455.577C528.199 458.262 523.159 470.31 523.21 471.141C523.3 472.817 527.419 473.751 528.903 473.891C531.091 474.096 531.807 473.073 531.96 473.098C532.6 473.162 533.265 473.034 533.905 473.098C533.253 475.72 536.847 475.631 538.395 475.886C548.284 477.498 559.888 478.495 569.892 478.943C584.808 479.595 602.13 479.455 617.11 478.981C625.029 478.738 639.485 474.799 646.125 479.071C654.581 484.506 649.976 495.045 641.865 497.91C627.281 503.051 603.089 504.906 587.392 506.185L525.628 504.228L527.074 506.185C520.946 505.737 514.895 504.317 508.741 504.394C507.679 505.059 502.127 520.138 500.81 522.709C500.707 522.913 499.645 523.399 499.134 524.397C484.716 552.879 479.906 577.563 441.233 570.119C425.664 567.127 405.54 558.596 412.794 539.258C414.802 533.912 425.728 521.187 425.932 517.273C426.111 513.858 420.764 508.883 419.101 506.172L419.152 506.146Z" fill="#55C3B9"/>
<path d="M639.012 131.695C634.855 131.567 625.081 128.945 621.499 126.835C607.388 118.496 610.241 99.5294 625.413 94.2857C630.415 92.5591 629.84 93.8509 633.703 93.8125C639.614 93.7358 640.778 92.1882 646.739 96.2681C661.937 106.679 659.238 132.322 639.025 131.708L639.012 131.695Z" fill="#1B9A8F"/>
<path d="M182.751 77.2376C180.653 78.2992 168.397 81.1512 166.209 81.1256C165.736 81.1256 159.544 79.7827 158.598 79.4886C136.12 72.6206 146.611 40.2248 173.514 43.192C190.925 45.1104 198.448 69.2826 182.751 77.2376Z" fill="#1B9A8F"/>
<path d="M696.414 354.424C654.056 364.093 609.665 364.733 567.026 356.368C567.192 356.074 567.013 355.588 567.589 355.499C582.134 356.662 596.578 359.655 611.226 360.256C639.101 361.395 669.408 358.568 696.414 354.424Z" fill="#4DB1A5"/>
<path d="M237.223 361.229C235.598 360.231 233.743 360.09 231.876 360.18C220.477 360.691 207.71 363.646 195.863 364.132C166.069 365.347 135.634 361.715 106.863 354.412C107.387 353.03 109.677 353.67 110.765 353.875C119.003 355.435 127.178 357.903 135.685 359.144C168.41 363.914 202.247 363.3 234.869 358.351C237.044 358.389 236.878 359.655 237.21 361.216L237.223 361.229Z" fill="#4DB1A5"/>
<path d="M695.442 307.73C657.933 317.68 620.987 318.793 582.659 312.667C582.467 317.962 577.939 321.837 578.693 327.183L610.804 332.043C599.712 331.276 588.838 329.792 577.836 328.053C576.032 327.017 581.342 311.222 583.158 310.812C585.231 310.352 599.009 313.191 602.68 313.511C631.707 316.018 661.963 314.777 690.785 307.449C692.205 307.091 694.457 305.837 695.442 307.73Z" fill="#4DB1A5"/>
<path d="M687.651 402.078C653.928 412.323 616.547 412.131 581.61 408.882C587.021 405.864 593.507 408.652 598.65 408.869C628.714 410.097 658.137 407.846 687.651 402.078Z" fill="#4DB1A5"/>
<path d="M197.335 381.653C199.087 384.326 198.269 383.457 195.889 383.597C182.29 384.441 168.64 384.659 154.977 384.608C132.014 382.587 108.923 380.937 86.4326 375.821C91.5754 374.044 107.592 378.75 114.283 379.581C141.916 383.022 169.651 383.431 197.335 381.653Z" fill="#4DB1A5"/>
<path d="M716.845 334C681.779 334.473 646.394 338.502 611.776 332.056C634.88 333.603 659.698 334.716 683.327 334.051C692.423 333.795 703.617 331.646 712.521 332.005C714.337 332.081 716.179 331.813 716.845 334Z" fill="#4DB1A5"/>
<path d="M624.415 457.521L602.565 459.503C585.665 459.605 568.766 459.004 551.943 457.508C544.536 456.843 536.553 454.387 529.082 455.564C529.223 455.103 528.877 454.259 529.095 453.658C530.86 453.594 532.69 453.492 534.468 453.582C546.967 454.183 560.399 457.047 573.307 457.546C590.041 458.186 607.823 457.904 624.428 457.508L624.415 457.521Z" fill="#4DB1A5"/>
<path d="M567.026 357.34C565.107 362.52 563.227 367.751 561.193 372.892L632.206 381.653C608.015 381.078 583.836 379.018 560.246 373.826C559.683 373.02 563.649 361.765 564.365 359.975C564.967 358.466 564.621 356.829 567.026 357.34Z" fill="#4DB1A5"/>
<path d="M194.418 241.595C176.892 245.253 147.058 242.196 128.739 240.636C122.816 240.137 116.368 241.455 110.752 238.679C132.833 239.933 155.323 242.388 177.429 241.634C182.584 241.455 189.262 238.909 194.418 241.595Z" fill="#4DB1A5"/>
<path d="M93.2385 302.87C84.6032 300.773 62.3179 296.642 69.1365 283.11C69.2901 282.803 72.322 279.747 72.629 279.619C77.5415 277.611 99.4943 281.87 106.39 282.432C115.102 283.149 123.954 283.123 132.692 283.417C134.56 283.481 136.594 282.42 136.057 285.361C119.95 285.412 104.036 283.737 88.0062 282.343C82.8378 281.895 69.8529 277.086 69.1493 286.103C68.2027 298.33 86.3047 297.115 93.2513 302.87H93.2385Z" fill="#4DB1A5"/>
<path d="M684.734 428.335C681.83 431.161 677.557 429.934 674.026 430.279C673.387 430.343 672.721 430.228 672.082 430.279L670.137 431.251C649.4 432.351 627.741 430.432 606.902 431.251L599.124 429.307C605.571 429.576 614.104 430.279 620.04 430.279H663.818C664.176 430.279 665.429 429.32 666.696 429.269C671.775 429.064 680.436 427.785 684.734 428.335Z" fill="#4DB1A5"/>
<path d="M224.584 324.267C224.622 324.906 224.571 325.571 224.584 326.211C203.002 329.753 181.536 332.81 159.673 333.731C157.267 333.833 156.768 334.78 158.432 332.043C180.717 331.442 202.759 328.641 224.584 324.267Z" fill="#4DB1A5"/>
<path d="M218.737 482.805C214.759 485.594 205.88 484.839 200.674 484.788C194.405 484.724 186.678 484.238 180.435 483.637C173.425 482.959 153.852 475.886 153.967 489.136C153.967 490.671 156.193 492.858 154.53 493.51C151.331 488.919 152.342 483.803 157.05 480.989C162.627 477.664 180.64 482.409 188.047 482.844C197.719 483.407 208.938 482.972 218.737 482.805Z" fill="#4DB1A5"/>
<path d="M686.679 447.788C674.615 454.425 644.462 457.047 630.249 457.508L686.679 447.788Z" fill="#4DB1A5"/>
<path d="M587.456 506.146C566.463 507.86 548.131 507.681 527.138 506.146L525.692 504.189L587.456 506.146Z" fill="#4DB1A5"/>
<path d="M272.25 510.035C273.747 508.538 276.152 510.035 274.195 507.119L287.167 508.167C288.254 503.934 294.996 505.494 298.003 507.055C298.809 507.477 297.274 509.344 299.013 510.022L301.431 507.106C302.327 509.421 300.369 512.759 300.459 514.319C300.497 514.894 302.122 514.703 302.404 515.598C303.248 518.309 300.702 520.087 306.305 517.798L304.374 522.658C304.041 522.018 302.775 521.366 302.429 520.714C300.293 516.672 298.642 512.196 296.493 508.154C291.133 510.047 285.619 509.855 280.054 510.022C277.47 510.098 274.86 510.009 272.276 510.022L272.25 510.035Z" fill="#55C3B9"/>
<path d="M698.359 306.758L697.834 305.76C706.073 303.177 726.158 300.772 719.569 287.983C716.934 282.88 704.525 286.934 699.817 287.292C686.295 288.328 672.939 288.98 659.455 289.249L706.648 284.389C711.689 284.721 717.868 282.534 720.618 287.906C727.539 301.463 706.917 304.302 698.371 306.745L698.359 306.758Z" fill="#4DB1A5"/>
<path d="M650.692 289.262C633.281 289.262 613.938 289.466 596.936 285.118C595.964 284.875 594.556 284.53 594.275 283.417L650.705 289.249L650.692 289.262Z" fill="#4DB1A5"/>
<path d="M94.2236 212.422C91.5243 211.54 85.4604 209.66 83.5415 208.023C78.2835 203.521 78.9744 194.261 86.164 192.202C106.275 193.622 126.142 197.113 146.317 197.83C148.184 197.893 150.218 196.845 149.668 199.774C134.944 199.735 120.59 197.778 106.198 195.003C100.953 196.205 85.4476 191.077 82.6971 195.553C80.9445 198.405 81.3155 204.263 83.4519 206.872C85.9209 209.877 93.8014 208.099 94.2108 212.422H94.2236Z" fill="#4DB1A5"/>
<path d="M245.014 511.006C233.82 513.36 221.321 511.416 209.987 510.034C212.52 508.41 217.292 508.858 220.247 509.024C228.485 509.497 237.07 510.572 245.014 511.006Z" fill="#4DB1A5"/>
<path d="M675.984 267.865C673.093 270.001 668.308 270.155 664.662 270.641C656.129 271.779 647.596 272.546 639.025 272.725C639.703 270.487 641.532 270.845 643.349 270.717C654.287 269.95 665.174 269.221 675.997 267.865H675.984Z" fill="#4DB1A5"/>
<path d="M246.959 511.006C246.562 508.065 251.769 506.696 250.86 510.022L252.306 508.078C253.214 508.078 252.319 509.779 253.419 510.06C256.681 510.891 267.888 510.06 272.25 510.034C274.834 510.022 277.444 510.111 280.028 510.034C278.173 511.978 274.4 510.725 271.713 510.968C270.472 511.083 269.154 511.978 268.835 511.978H254.238C252.242 511.978 248.865 511.109 246.946 511.006H246.959Z" fill="#4DB1A5"/>
<path d="M533.943 473.073C545.099 474.275 554.86 476.539 566.578 476.961C568.446 477.025 570.48 475.976 569.93 478.905C559.913 478.47 548.323 477.46 538.434 475.848C536.873 475.592 533.291 475.682 533.943 473.06V473.073Z" fill="#4DB1A5"/>
<path d="M598.151 429.307C584.156 428.731 570.02 428.169 556.318 424.447C570.314 425.214 584.271 427.555 598.151 429.307Z" fill="#4DB1A5"/>
<path d="M150.64 432.223C150.512 432.223 149.834 433.221 148.389 433.157C139.063 432.76 123.877 429.32 115.37 430.509C107.374 431.635 108.782 436.137 108.807 442.915C108.398 442.352 107.221 442.57 106.863 440.485C105.059 430.151 115.895 428.079 123.877 429.307L150.64 432.21V432.223Z" fill="#4DB1A5"/>
<path d="M170.099 434.167C181.625 434.001 193.715 434.768 205.126 434.167C207.748 435.548 203.45 435.139 202.708 435.139C190.388 435.152 178.056 435.126 165.736 435.139C164.137 433.502 169.638 434.167 170.112 434.167H170.099Z" fill="#4DB1A5"/>
<path d="M626.373 208.535C634.317 208.419 642.876 209.046 650.692 208.535L651.191 209.507H621.998C620.398 207.869 625.899 208.535 626.373 208.535Z" fill="#4DB1A5"/>
<path d="M193.446 268.837C183.851 268.952 173.834 269.195 164.265 268.837C165.276 267.226 167.962 267.865 169.6 267.852C177.288 267.776 186.09 267.136 193.446 268.837Z" fill="#4DB1A5"/>
<path d="M168.154 284.389C160.606 285.655 153.071 285.476 145.28 285.374C143.63 285.348 140.956 286 139.945 284.389C149.335 284.287 158.764 284.466 168.154 284.389Z" fill="#4DB1A5"/>
<path d="M673.067 381.653C666.53 382.996 658.188 383.495 651.664 381.653C659.046 381.589 665.928 381.321 673.067 381.653Z" fill="#4DB1A5"/>
<path d="M194.418 313.575C190.58 313.856 186.601 313.383 182.738 313.575L181.766 314.547C180.154 314.611 178.516 314.483 176.904 314.547C175.177 311.912 175.958 312.692 178.35 312.603C183.275 312.411 189.864 311.925 194.418 313.575Z" fill="#4DB1A5"/>
<path d="M212.904 413.742C210.959 413.806 209.015 413.717 207.07 413.742C205.446 413.768 203.821 413.742 202.209 413.742C201.237 413.742 200.264 413.742 199.292 413.742H197.348C196.068 413.704 194.725 413.87 193.459 413.742C192.358 413.627 190.299 414.458 190.542 412.783C197.757 413.358 206.008 411.517 212.917 413.742H212.904Z" fill="#4DB1A5"/>
<path d="M303.375 117.102C304.859 115.913 304.028 114.506 307.725 114.122C318.151 113.035 321.145 124.341 314.07 130.723C315.107 127.475 316.719 121.464 315.695 118.343C314.774 115.568 311.563 116.974 311.32 116.872C311.115 116.783 311.589 114.263 307.891 115.158C307.495 115.261 306.407 118.548 303.375 117.09V117.102Z" fill="#4DB1A5"/>
<path d="M94.2236 302.87C99.1617 304.008 104.228 305.287 109.294 305.786L107.848 307.73C103.652 306.771 97.8952 305.134 94.2236 302.87Z" fill="#4DB1A5"/>
<path d="M109.78 238.679C102.091 238.232 91.4601 238.743 83.5156 236.735L88.7352 235.866L109.78 238.679Z" fill="#4DB1A5"/>
<path d="M183.723 198.802C184.26 201.743 182.239 200.669 180.359 200.746C175.497 200.938 170.598 200.605 165.723 200.746C164.15 199.364 166.811 199.787 167.655 199.774C171.864 199.646 176.265 200.081 180.397 199.825C181.702 199.735 182.533 198.827 182.751 198.815C183.071 198.776 183.403 198.866 183.723 198.815V198.802Z" fill="#4DB1A5"/>
<path d="M648.747 381.653C644.602 383.29 637.131 383.278 633.178 381.653C637.963 381.743 643.579 381.653 648.747 381.653Z" fill="#4DB1A5"/>
<path d="M640.957 231.875C638.078 232.106 635.097 231.76 632.206 231.875L629.289 232.847C628.317 232.86 627.345 232.847 626.373 232.847C624.645 230.213 625.426 230.993 627.818 230.903C631.784 230.737 637.362 230.2 640.969 231.875H640.957Z" fill="#4DB1A5"/>
<path d="M148.696 313.575C152.879 311.375 158.7 313.153 163.28 312.616C163.485 314.317 160.542 313.537 159.391 313.575C155.898 313.703 152.176 313.728 148.683 313.575H148.696Z" fill="#4DB1A5"/>
<path d="M531.999 473.073C531.845 473.06 531.129 474.07 528.941 473.865C527.457 473.725 523.325 472.791 523.249 471.116L531.999 473.06V473.073Z" fill="#4DB1A5"/>
<path d="M555.346 424.447C553.069 424.37 548.643 425.777 549.513 422.503C551.521 423.027 553.504 423.462 555.346 424.447Z" fill="#4DB1A5"/>
<path d="M207.07 413.742C206.431 415.277 202.849 415.277 202.209 413.742C203.834 413.742 205.458 413.768 207.07 413.742Z" fill="#55C3B9"/>
<path d="M632.206 231.875C632.053 231.875 631.516 232.809 629.29 232.848L632.206 231.875Z" fill="#55C3B9"/>
<path d="M188.584 198.802L188.085 199.774L186.64 198.802C187.254 198.712 187.957 198.866 188.584 198.802Z" fill="#4DB1A5"/>
<path d="M199.279 413.742C199.1 413.742 198.832 414.407 198.499 414.407C197.706 414.407 197.412 413.755 197.335 413.742H199.279Z" fill="#55C3B9"/>
<path d="M181.778 314.547L182.751 313.575C182.687 313.575 182.482 314.521 181.778 314.547Z" fill="#55C3B9"/>
<path d="M304.348 511.019C305.013 511.352 303.772 512.669 302.416 511.966C301.751 511.633 302.992 510.316 304.348 511.019Z" fill="#55C3B9"/>
<path d="M674.039 430.279C674.577 433.221 672.555 432.146 670.675 432.223C649.681 433.054 627.524 432.415 606.915 431.251C627.754 430.433 649.413 432.351 670.15 431.251C671.058 431.2 671.89 430.292 672.095 430.279C672.734 430.228 673.4 430.343 674.039 430.279Z" fill="#55C3B9"/>
</g>
</g>
<defs>
<clipPath id="clip0_504_11399">
<rect width="669" height="516" fill="white"/>
</clipPath>
<clipPath id="clip1_504_11399">
<rect width="655" height="735" fill="white" transform="translate(67 43)"/>
</clipPath>
</defs>
</svg>
