<svg width="669" height="516" viewBox="0 0 669 516" fill="none" xmlns="http://www.w3.org/2000/svg">
<g clip-path="url(#clip0_504_11396)">
<rect width="669" height="516" fill="#D9D9D9" fill-opacity="0.6"/>
<g clip-path="url(#clip1_504_11396)">
<path d="M471.789 588.55C479.072 580.589 485.091 580.52 494.536 566.365C530.569 512.288 538.734 448.364 590.422 404.549C596.96 399.011 616.404 383.749 618.947 401.538C620.78 414.395 600.386 443.484 592.1 453.711C581.565 466.725 554.112 490.224 549.424 504.293C548.386 507.408 548.992 512.201 548.075 515.628C553.887 515.974 559.457 513.568 564.474 510.851C580.267 502.268 610.609 477.436 617.892 460.841C622.147 451.168 631.229 426.145 634.135 416.039C638.304 401.486 637.127 382.97 642.179 368.122C643.355 364.661 651.918 347.859 654.045 346.094C660.117 341.058 673.056 346.353 676.032 352.894C680.166 361.962 668.126 376.377 666.725 385.894C682.743 389.909 687.829 366.444 693.209 356.424C699.454 344.813 718.067 304.009 736.247 312.955C753.702 321.538 716.268 356.321 717.617 368.088L725.367 366.53C734.898 357.238 745.883 349.347 757.559 342.685C770.62 341.837 767.661 357.567 763.112 365.302C754.567 379.872 714.953 388.317 699.419 396.468C677.519 407.923 651.018 434.763 642.248 458.055C641.175 460.893 641.054 463.489 641.314 466.465C652.8 468.507 660.93 457.363 669.579 451.496C676.014 447.118 684.542 442.792 690.372 438.379C702.343 429.294 736.818 393.335 749.187 392.401C760.552 391.536 763.475 399.219 758.943 408.65C755.501 415.831 734.016 431.873 726.647 437.393C722.218 440.716 714.278 441.512 714.192 447.828C718.845 447.637 721.648 450.943 726.405 450.856C740.624 450.614 749.221 431.821 764.98 441.979C779.338 451.237 764.98 467.434 753.632 469.493C737.112 472.487 712.237 469.753 694.697 471.57C666.812 474.46 614.086 503.757 593.051 522.498C590.975 524.349 588.225 525.976 588.778 529.229C591.788 529.108 595.006 529.662 597.998 529.143C622.026 525.024 647.628 523.605 670.773 513.759C686.86 506.923 707.515 490.951 725.367 488.598C728.74 488.148 747.543 490.761 749.377 492.335C753.667 496.021 751.228 505.193 747.284 508.913C738.756 516.977 693.192 520.854 688.781 530.112C687.276 533.261 691.029 532.534 692.517 533.071C700.128 535.839 707.515 536.237 713.414 542.727C717.34 547.053 718.984 553.023 712.877 556.328C699.817 563.371 673.437 549.787 658.923 548.074C622.839 543.834 582.101 555.463 546.016 558.543C529.462 577.094 495.626 592.945 480.992 612.17C480.334 613.036 472.187 630.635 471.841 631.88C470.907 635.22 473.657 634.805 475.941 634.286C488.395 631.448 499.293 619.698 509.205 613.278C541.899 592.132 574.628 578.634 612.148 567.023C621.905 564.012 655.429 555.498 660.861 566.521C665.999 576.955 641.469 584.154 633.754 586.923C610.055 595.402 585.319 602.186 561.118 607.239C559.751 607.515 559.855 609.904 558.783 610.63C555.998 612.517 549.528 611.842 555.029 616.393C563.263 623.211 587.671 620.771 599.054 624.907C606.682 635.047 586.114 644.842 578.295 646.763C548.819 653.944 521.678 626.949 490.575 648.874C481.753 655.086 447.502 686.356 443.212 694.748C435.03 710.807 430.705 733.044 423.82 749.968C409.653 784.819 391.368 820.363 376.077 854.817C373.759 860.043 374.07 865.355 371.302 870.408C365.611 880.808 336.948 891.485 327.641 882.868C314.217 870.443 336.204 850.3 342.691 840.09C360.473 812.091 382.2 776.773 392.216 745.486C401.592 716.189 409.843 687.878 375.661 671.993C364.02 674.537 352.187 672.72 340.459 673.36C331.585 673.844 299.496 682.67 297.23 670.799C296.902 669.034 296.729 662.614 297.507 661.731C298.13 661.004 313.128 655.605 315.428 655.103C317.729 654.602 344.04 654.134 339.594 647.939C339.248 647.472 330.599 641.9 329.838 641.554C311.467 633.23 277.199 629.492 256.51 623.349C240.855 618.694 232.171 612.084 228.469 595.298C226.082 584.483 238.467 582.32 246.373 585.988C258.741 591.734 264.156 607.36 279.88 610.267C283.097 610.855 293.252 608.813 291.954 604.902C289.135 596.458 269.207 583.618 268.376 577.44C266.802 565.742 272.459 560.845 283.738 563.908C301.728 568.788 304.132 595.852 316.432 606.65C317.591 607.671 320.428 607.585 321.777 608.848C327.883 614.61 343.296 630.444 349.852 633.403C360.612 638.249 355.284 628.731 352.136 622.64C346.479 611.738 335.771 590.211 329.163 581.195C323.455 573.425 314.494 571.21 312.833 560.153C311.173 549.095 328.558 548.731 336.636 553.369C350.855 561.52 352.43 573.927 359.626 586.335C361.58 589.709 364.936 591.872 366.476 594.745C382.062 623.886 386.94 657.007 415.898 676.717V638.56C415.898 638.006 417.454 636.587 417.524 635.013C417.697 631.292 401.246 602.895 397.648 597.461C394.811 593.17 389.31 588.861 387.148 585.556C379.242 573.512 372.53 553.369 360.352 546.603C349.818 540.737 340.286 540.702 328.523 540.996C302.8 541.619 277.735 546.222 253.154 553.767C240.37 557.695 215.547 570.38 204.649 571.418C196.328 572.197 190.378 569.67 182.611 568.407C178.753 567.784 175.778 571.556 170.865 566.59C161.818 557.436 176.297 542.813 186.157 542.709C190.516 542.657 195.412 545.478 199.944 545.963C213.973 547.451 217.294 542.381 228.988 539.768C234.229 538.591 242.031 541.637 244.695 535.995C229.49 535.753 215.322 530.094 201.016 526.253C189.513 523.172 141.025 513.395 141.717 498.115C142.357 484.029 159.638 481.728 170.554 485.5C173.581 486.538 178.476 492.422 183.32 494.775C189.703 497.89 201.777 502.355 208.731 504.968C221.342 509.709 236.426 516.752 249.763 513.914L218.367 497.025C193.509 484.168 210.669 459.872 232.724 472.556C240.18 476.848 251.822 492.405 259.468 496.956C266.681 501.247 291.262 509.242 300.258 511.751C308.267 513.984 327.935 520.975 332 512.184C335.667 504.224 323.507 497.821 317.798 494.204C282.924 472.193 240.958 453.158 198.266 458.141C180.639 460.201 157.545 469.684 138.673 469.874C131.477 469.943 119.195 467.14 117.586 458.747C112.379 431.492 147.218 447.274 162.493 446.08C164.517 445.924 171.436 445.249 170.087 441.858C167.976 436.528 159.846 438.154 155.279 436.32C152.062 435.022 147.824 430.108 143.343 427.91C135.49 424.068 128.346 424.224 120.976 421.455C108.729 416.835 94.3888 394.166 112.448 389.096C119.99 386.985 131.65 398.406 139.209 401.52C145.817 404.255 152.927 404.635 158.929 407.231C166.575 410.536 174.861 421.542 181.556 425.661C193.82 433.205 222.224 443.519 234.489 433.344C223.418 425.989 213.575 408.425 202.418 402.714C195.948 399.409 189.53 399.946 183.683 397.713C165.71 390.878 153.307 387.417 135.265 381.724C122.879 377.813 99.3015 368.001 102.311 352.012C105.685 334.084 130.058 354.469 137.496 359.055C140.714 361.045 140.178 365.129 148.066 362.966C151.56 359.747 130.958 337.857 133.103 328.547C136.735 312.765 168.91 330.052 176.089 339.189C180.189 344.398 181.642 350.351 186.192 356.199C194.097 366.34 206.569 373.66 215.703 382.641C226.826 393.595 260.194 432.773 271.767 436.787C276.68 438.483 289.688 441.962 288.771 433.465C287.526 421.888 257.686 390.619 249.071 379.786C242.481 371.497 241.823 368.382 234.904 362.516C223.574 352.929 221.411 344.83 213.592 336.42C211.222 333.876 187.766 315.257 185.448 314.564C171.557 310.446 154.535 315.222 136.216 307.868C129.141 305.03 109.387 292.587 115.77 284.004C126.72 269.278 145.402 291.393 158.237 294.318C163.375 295.495 168.322 295.287 173.495 295.131C174.083 280.682 147.72 271.805 143.88 262.893C143.205 261.353 139.607 245.225 139.866 243.84C140.576 240.12 144.727 235.742 148.671 236.157C161.247 237.437 174.169 263.273 184.496 271.424C187.766 274.002 191.243 273.812 193.336 275.317C203.092 282.395 204.926 316.139 226.047 315.482C226.013 307.158 217.848 302.001 214.457 295.72C206.586 281.201 201.276 265.09 191.554 250.814C187.818 245.328 172.82 230.083 172.093 226.068C171.609 223.369 176.02 209.871 177.127 208.919C182.334 204.437 200.567 218.056 204.095 223.023C209.095 230.031 210.738 237.472 214.129 245.207C226.929 274.331 243.934 300.323 254.123 330.675C255.368 334.396 254.451 338.67 255.714 342.65C259.381 354.296 266.439 372.172 278.617 376.532C277.475 368.728 280.676 361.339 280.434 353.638C279.915 337.303 266.923 327.11 262.132 312.488C259.9 305.653 260.056 297.571 256.371 289.421C252.254 280.301 232.378 253.046 231.548 246.47C231.341 244.861 234.368 237.68 235.665 237.368C242.014 235.863 253.275 243.2 256.631 248.443C266.699 264.139 300.119 336.905 302.212 353.777C303.146 361.374 301.693 369.697 302.368 377.363C304.236 398.388 323.299 461.845 336.204 477.471C349.108 493.097 370.039 507.408 381.093 524.142C387.961 534.542 387.511 550.929 398.132 559.668C399.81 558.353 399.101 554.148 398.962 552.071C397.44 528.727 399.118 505.02 378.689 487.559C370.126 480.239 352.412 479.167 353.727 465.79C355.336 449.541 383.671 453.798 392.112 460.564C393.79 461.914 404.792 477.367 406.401 480.188C426.848 516.026 419.928 540.391 424.789 577.094C426 586.196 432.418 602.393 435.462 612.205C436.258 614.749 437.348 621.965 441.326 620.719C436.69 608.986 443.627 598.379 445.98 587.234C452.242 557.591 453.747 533.832 451.481 502.909C448.92 467.919 436.362 452.967 401.315 447.949C382.788 445.301 372.721 446.945 354.523 437.116C342.397 430.558 323.714 402.299 319.372 389.165C316.778 381.309 317.193 361.166 329.942 364.973C336.844 367.032 349.402 390.982 354.921 397.713C359.418 403.199 375.229 418.289 381.18 420.625C384.778 422.027 383.982 417.025 383.584 414.828C380.989 400.309 365.438 369.316 355.734 357.878C339.317 338.531 335.27 349.035 318.663 340.695C312.418 337.562 299.877 326.107 302.506 318.285C305.136 310.463 332.277 324.238 339.611 320.586C338.037 303.991 325.358 285.718 312.332 275.802C284.343 254.5 249.366 228.231 218.194 212.276C207.036 206.549 186.088 200.371 176.972 194.158C171.35 190.334 166.108 178.48 169.983 172.095C177.923 158.995 193.578 176.283 203.992 178.134C204.787 171.42 198.681 164.723 197.557 159.999C193.405 142.469 214.284 135.288 227.137 146.519C237.43 155.5 238.225 179.467 246.252 188.932C247.636 190.576 250.109 189.469 251.545 191.113C256.873 197.187 255.697 211.03 269.484 220.306C276.057 224.736 281.765 223.023 288.719 225.636C289.602 224.39 285.018 197.931 284.066 195.543C277.233 178.255 252.514 162.318 241.529 148.232C233.589 138.039 228.158 120.544 244.626 116.201C259.122 112.376 262.063 132.9 268.74 143.058C271.629 147.436 279.275 157.126 278.237 145.567C277.285 134.803 260.782 114.332 275.209 107.825C288.27 101.924 292.318 115.63 295.103 125.165C305.897 162.127 302.437 200.769 317.193 237.039C318.248 239.652 320.791 244.982 322.244 247.215C323.316 248.859 322.054 250.243 326.032 249.395C328.817 230.671 331.118 211.861 333.28 193.034C339.283 140.946 327.001 152.281 307.056 114.92C300.517 102.669 297.057 89.6554 303.25 76.5038C307.177 68.163 315.947 72.6622 321.517 76.7115C336.602 87.6308 326.482 119.783 340.459 132.346C345.666 132.467 343.158 94.8814 350.613 88.2883C357.533 82.1625 368.621 91.905 370.039 99.3979C372.167 110.681 366.822 113.83 364.539 122.552C356.823 151.935 363.345 180.799 359.937 211.221C358.034 228.249 350.354 247.716 349.714 263.741C349.091 279.419 361.304 332.371 369.192 346.145C373.499 353.673 382.391 360.128 386.819 367.517C398.357 386.794 399.205 408.287 418.596 425.609C423.578 430.056 440.842 434.676 442.901 428.049C443.61 425.747 436.846 395.689 435.237 392.003C430.186 380.495 408.131 361.114 399.014 350.247C382.183 330.191 369.278 308.681 365.455 282.032C364.193 273.258 370.316 263.637 378.671 268.863C383.186 271.683 389.033 295.114 394.171 302.538C395.676 304.718 405.951 315.741 407.456 316.399C413.147 318.856 409.047 297.45 407.802 293.989C404.29 284.229 396.143 277.169 390.832 268.569C385.971 260.678 366.978 233.44 378.619 226.484C387.58 221.136 395.901 230.567 400.398 236.97C414.185 256.594 430.895 280.422 434.147 304.943C435.912 318.25 434.286 336.074 439.285 348.966C439.96 350.697 456.013 372.777 457.466 373.175C458.815 373.833 461.687 371.185 461.687 370.632V312.972C461.687 312.038 458.434 296.948 457.864 294.751C450.65 266.146 430.74 255.348 414.254 233.25C404.256 219.856 375.333 176.715 375.748 161.695C376.146 147.92 389.76 151.225 397.336 158.597C414.237 175.054 415.482 197.187 426.692 214.007C431.829 221.707 439.389 227.383 445.599 234.098C449.63 234.842 447.623 232.263 448.159 229.927C450.892 217.779 447.519 198.554 444.232 186.267C440.115 170.901 427.021 158.84 417.645 146.726C406.055 131.758 393.6 114.176 381.007 100.28C378.395 97.4079 360.127 78.7707 358.726 78.044C355.007 76.1231 352.845 78.1132 350.873 77.594C343.227 75.604 341.238 45.1477 342.985 38.5893C343.452 36.8415 350.112 33.7267 352.239 33.8997C359.626 34.4708 372.184 55.7728 371.666 63.4215L388.756 72.9737C394.655 57.7456 377.097 42.8635 376.769 28.0507C376.665 23.2746 381.422 4.44712 384.518 1.76489C390.832 -3.738 401.851 4.55095 403.304 10.0711C405.034 16.6642 403.27 23.3265 404.065 29.7293C405.865 44.0749 409.93 58.109 412.3 72.3507C416.901 100.073 411.884 100.454 431.241 122.915C433.871 125.961 439.095 134.44 442.191 135.72C445.668 137.157 444.561 133.367 444.717 131.515C446.153 113.017 437.746 109.279 434.891 97.2175C432.002 85.0177 431.086 69.4089 428.335 56.292C425.516 42.777 417.991 31.4078 421.329 16.5258C423.267 7.89075 432.124 4.79321 440.115 7.19856C455.822 11.94 437.884 47.605 448.955 52.6061C451.93 53.9558 451.55 50.6333 452.294 49.2663C456.255 42.0329 461.393 25.7838 470.907 25.3685C472.308 25.2993 477.878 26.6663 478.362 27.4277C479.279 28.8813 478.812 44.992 478.155 47.9338C475.491 59.7183 461.687 76.3654 461.911 89.119C461.963 91.8358 469.609 118.52 471.132 118.866C472.844 119.246 475.352 118.831 476.909 117.897C477.791 117.36 489.848 103.274 490.125 102.305C490.765 100.142 492.288 76.0539 492.218 72.2123C492.149 67.4362 489.451 61.6391 488.984 56.6554C488.188 48.1588 490.281 17.2526 504.068 21.0769C516.229 24.4513 512.803 48.1761 512.561 58.6281C512.44 63.6638 507.251 78.0613 515.277 79.5149C519.031 80.1897 533.043 67.4016 535.551 63.8714C542.418 54.1981 541.882 40.5966 555.392 42.7597C571.255 45.3035 563.54 70.6202 555.634 79.6533C547.729 88.6863 534.34 92.5626 526.59 98.9307C520.968 103.551 513.046 115.63 507.476 121.34C496.093 133.004 469.869 154.029 470.249 171.887C470.561 186.181 474.747 199.765 473.588 216.326C472.965 225.168 463.918 254.638 471.823 258.757C479.729 262.875 496.768 240.639 498.861 233.146L506.697 137.486C508.289 132.138 516.021 127.933 520.173 132.294C520.795 132.952 527.092 147.436 527.369 148.837C528.614 154.877 526.02 185.42 537.679 166.869C544.823 155.5 543.439 135.132 546.795 121.721C549.096 112.515 552.659 98.7404 564.249 98.3077C584.436 97.5463 569.335 131.36 567.173 142.106C565.27 151.589 566.014 162.093 562.865 171.714C556.309 191.753 522.906 197.758 522.664 222.209C539.218 220.115 556.378 212.882 566.463 199.056C584.177 174.777 574.351 162.387 580.7 138.68C581.426 135.963 588.744 120.44 590.439 119.593C598.431 115.612 609.623 118.45 613.342 127.258C619.846 142.642 606.302 149.01 605.731 162.854C620.002 164.879 629.481 139.528 643.926 154.323C662.764 173.618 620.296 187.098 610.003 195.127C597.912 204.576 597.047 213.021 589.505 222.088C581.53 231.675 548.542 239.445 535.759 244.636C522.975 249.828 507.268 265.298 496.422 274.816C475.698 293.037 485.697 335.693 483.483 361.927C481.147 389.719 466.15 432.755 468.416 458.747C470.37 481.105 484.382 458.678 490.108 449.939C509.638 420.071 522.335 395.793 519.273 358.691C518.201 345.644 517.82 339.864 517.682 326.47C517.474 306.881 507.406 289.421 517.491 268.759C520.64 262.304 529.791 255.573 535.81 261.612C542.591 268.413 530.361 311.138 539.478 324.636C543.681 330.848 553.784 310.74 554.51 307.487C557.33 294.976 555.012 279.349 556.638 267.236C557.243 262.789 566.844 237.714 569.542 236.053C585.907 226.068 584.661 250.26 583.52 260.21C581.011 282.187 569.664 312.972 559.406 332.734C556.465 338.393 542.003 358.691 541.571 360.785C540.758 364.765 542.816 375.39 547.435 376.256C552.694 377.259 555.237 369.887 557.485 368.122C568.868 359.159 581.79 351.406 586.322 335.832C587.048 333.34 585.284 331.454 585.405 330.052C585.492 328.858 588.398 329.187 588.726 327.872C590.837 319.323 590.992 309.442 593.674 298.869C601.406 268.344 597.237 237.161 612.598 208.262C614.155 205.337 621.472 198.865 625.105 198.71C651.537 197.55 622.77 239.081 627.752 244.238C630.312 244.671 631.73 244.065 633.789 242.663C637.629 240.05 659.788 206.445 662.02 201.374C665.151 194.245 662.262 182.893 675.703 186.942C678.938 187.911 684.664 196.045 685.286 199.402C692.188 236.243 636.66 257.303 620.538 283.693C613.411 295.356 609.969 312.176 609.104 325.657L637.992 304.545C653.647 288.296 663.006 272.168 672.779 252.856C674.976 248.53 696.08 228.82 700.18 227.608C705.024 226.189 711.718 229.183 714.365 233.198C721.025 243.252 693.936 267.253 688.435 275.3C686.428 278.225 676.914 293.955 682.865 295.149C688.452 296.256 723.36 266.077 736.991 266.267C757.3 266.561 749.118 279.972 738.462 288.054C707.567 311.484 661.57 319.721 630.71 344.294C602.859 366.478 564.647 396.866 540.395 422.286C519.446 444.246 524.22 453.469 512.215 473.802C509.448 478.492 503.324 482.264 499.899 486.919C479.193 514.883 486.06 544.648 475.024 575.311C474.505 576.748 471.374 576.8 470.837 581.61C470.595 583.86 472.014 588.255 471.789 588.515C471.564 588.774 464.818 588.307 468.416 591.889C472.014 595.471 471.564 588.757 471.789 588.515V588.55Z" fill="#76CABB"/>
</g>
</g>
<defs>
<clipPath id="clip0_504_11396">
<rect width="669" height="516" fill="white"/>
</clipPath>
<clipPath id="clip1_504_11396">
<rect width="669" height="886" fill="white" transform="translate(102)"/>
</clipPath>
</defs>
</svg>
