<svg width="669" height="516" viewBox="0 0 669 516" fill="none" xmlns="http://www.w3.org/2000/svg">
<g clip-path="url(#clip0_504_11326)">
<rect width="669" height="516" fill="#D9D9D9" fill-opacity="0.6"/>
<g clip-path="url(#clip1_504_11326)">
<path d="M88.4865 154.946C88.2027 162.005 88.5729 169.201 88.6223 176.272C93.5709 177.781 96.977 181.317 101.617 183.431C115.871 189.922 131.05 187.387 144.119 179.351C150.437 175.456 154.942 168.842 162.186 166.975C165.37 191.343 165.962 216.861 169.973 241.167C170.898 246.805 175.045 252.109 175.057 257.994C192.347 257.672 209.155 262.259 225.617 267.031C233.799 247.596 237.576 226.739 244.413 206.859C246.091 202 248.621 197.426 250.447 192.728C256.038 197.29 258.95 203.373 264.614 208.157C280.485 221.559 300.353 221.25 319 214.191C311.472 237.829 303.747 257.264 291.406 278.838C289.987 281.311 282.607 291.684 282.286 292.895C281.966 294.107 282.422 295.479 283.496 295.714C284.569 295.949 301.55 288.519 304.154 287.319C322.085 279.073 334.92 270.814 354.813 265.956C359.762 264.744 390.145 258.76 392.7 259.7C392.823 259.749 393.526 261.332 394.415 261.814C399.499 264.559 415.555 264.719 422.725 266.116C433.486 268.206 442.766 272.076 452.873 275.401C468.855 280.668 472.52 279.778 488.686 276.872C503.693 283.709 517.095 291.82 530.225 301.797C550.217 316.979 569.111 335.462 586.833 353.253C615.377 381.899 638.664 415.082 665.629 445.149C693.223 475.909 725.753 502.131 750.879 534.869C754.001 538.937 757.42 543.437 759.468 548.148C767.761 567.15 769.711 605.241 753.039 620.263C731.948 639.265 695.864 626.877 672.058 621.128C668.307 620.226 663.272 613.76 659.606 610.842C644.119 598.516 622.954 589.663 603.11 588.464C580.218 587.08 557.264 595.82 534.063 591.53C498.374 584.941 477.888 553.068 442.742 545.65C384.184 533.312 356.344 581.899 335.278 626.259C317.285 639.018 296.293 649.131 273.574 642.999C246.955 635.803 241.611 604.166 218.953 595.561C203.947 589.861 186.004 598.479 170.158 592.087C162.26 588.897 151.931 576.991 153.609 567.892C174.946 533.509 173.453 484.378 155.485 448.833C148.006 434.047 128.137 431.29 114.155 424.132C82.674 408.022 61.8798 379.859 73.0482 343.387C80.8229 317.98 96.1502 295.603 114.921 277.169C106.652 255.917 95.817 235.221 91.2879 212.67C87.8942 195.769 87.4375 176.952 87.6103 159.669C87.6227 158.222 87.0673 155.848 88.4865 154.958V154.946ZM83.6119 353.859C84.6115 354.947 88.3508 356.504 89.881 356.653C106.183 358.297 117.018 320.305 104.554 315.273C92.09 310.241 81.9212 326.017 80.7735 336.513C80.2675 341.174 80.3416 350.286 83.6119 353.859ZM232.146 371.835C247.202 355.837 236.194 321.949 213.264 331.889C204.268 335.784 197.394 348.406 197.246 357.976C196.95 377.608 219.163 385.62 232.146 371.835ZM620.289 437.743C565.199 389.205 524.635 320.428 440.495 331.172C395.772 336.884 363.341 370.537 315.977 367.026C311.497 366.692 302.464 363.453 299.675 363.613C297.194 363.762 293.911 368.695 293.504 371.056C291.233 384.149 312.423 393.298 322.974 394.348C362.255 398.292 397.303 367.471 436.213 362.068C525.092 349.717 547.589 419.743 606.664 462.977C617.956 471.248 653.214 494.578 666.258 493.02C679.302 491.462 675.575 482.214 668.183 476.033C652.362 462.804 636.184 451.751 620.289 437.743Z" fill="#8FD2CA"/>
<path d="M392.7 259.675C392.959 257.215 392.317 255.039 391.416 252.801C386.147 239.844 377.051 228.89 375.669 213.634C374.953 205.647 376.879 191.121 387.603 192.221C400.77 193.568 402.609 216.663 406.262 225.898C407.78 229.756 412.47 238.732 413.272 230.04C415.036 210.889 405.596 192.468 410.051 170.152C412.001 160.385 420.898 145.24 432.054 153.684C443.21 162.129 436.954 194.187 439.027 207.663C439.335 209.641 440.594 211.829 441.976 213.276C456.292 201.839 454.737 149.926 471.582 144.227C485.354 139.566 490.562 156.775 490.426 167.321C490.192 186.089 477.863 202.89 474.494 219.247C473.964 221.843 474.062 224.402 474.124 227.023C476.728 227.32 478.443 225.738 480.146 224.056C489.291 215.056 501.336 176.853 510.061 174.183C514.676 172.773 519.489 172.427 522.994 175.914C533.73 186.62 526.424 206.253 519.501 217.12C514.417 225.095 502.619 235.233 499.077 242.156C497.967 244.307 497.954 246.149 498.115 248.486C501.039 251.392 516.058 240.091 518.699 237.767C525.129 232.08 529.781 222.981 538.555 220.743C550.847 217.615 553.537 227.345 550.859 237.359C544.319 261.838 510.641 272.854 488.699 276.81C472.532 279.728 468.879 280.606 452.886 275.339C442.779 272.013 433.498 268.144 422.737 266.054C415.567 264.657 399.512 264.509 394.427 261.752C393.539 261.27 392.848 259.687 392.712 259.638L392.7 259.675Z" fill="#1C9991"/>
<path d="M319 214.178C300.341 221.237 280.472 221.547 264.614 208.145C258.962 203.36 256.038 197.277 250.447 192.715C260.887 165.887 271.377 144.437 287.79 120.675C293.887 111.847 306.573 92.239 317.236 90.0754C326.195 88.258 331.6 96.9617 332.637 104.8C333.883 114.27 333.377 134.299 332.748 144.251C331.242 168.051 326.244 191.442 319 214.178Z" fill="#1C9991"/>
<path d="M162.186 166.963C154.942 168.842 150.45 175.444 144.119 179.339C131.05 187.387 115.871 189.909 101.617 183.418C96.9893 181.317 93.5709 177.768 88.6223 176.26C88.5729 169.188 88.1903 162.005 88.4865 154.933C89.4491 131.221 96.1131 101.091 106.331 79.6658C112.798 66.1157 123.806 54.3087 135.122 71.7286C149.277 93.5251 158.792 140.963 162.186 166.951V166.963Z" fill="#1C9991"/>
<path d="M620.289 437.744C636.184 451.751 652.362 462.804 668.183 476.033C675.575 482.214 678.648 491.524 666.258 493.02C653.214 494.59 617.956 471.248 606.664 462.977C547.589 419.743 525.092 349.717 436.213 362.068C397.303 367.471 362.242 398.292 322.974 394.349C312.423 393.285 291.233 384.149 293.504 371.056C293.911 368.695 297.194 363.749 299.675 363.613C302.464 363.453 311.497 366.692 315.977 367.026C363.341 370.537 395.772 336.884 440.495 331.172C524.635 320.428 565.199 389.218 620.289 437.744Z" fill="#1C9991"/>
<path d="M232.146 371.835C219.163 385.62 196.95 377.608 197.246 357.975C197.394 348.406 204.256 335.783 213.264 331.889C236.194 321.961 247.214 355.836 232.146 371.835Z" fill="#1C9991"/>
<path d="M83.6119 353.858C80.3416 350.285 80.2675 341.174 80.7735 336.513C81.9212 326.016 92.3122 310.34 104.554 315.273C116.796 320.205 106.196 358.297 89.881 356.652C88.3508 356.504 84.6115 354.946 83.6119 353.858Z" fill="#1C9991"/>
</g>
</g>
<defs>
<clipPath id="clip0_504_11326">
<rect width="669" height="516" fill="white"/>
</clipPath>
<clipPath id="clip1_504_11326">
<rect width="718" height="633" fill="white" transform="translate(70 63)"/>
</clipPath>
</defs>
</svg>
