<svg width="669" height="516" viewBox="0 0 669 516" fill="none" xmlns="http://www.w3.org/2000/svg">
<g clip-path="url(#clip0_504_7963)">
<rect width="669" height="516" fill="#D9D9D9" fill-opacity="0.6"/>
<g clip-path="url(#clip1_504_7963)">
<path d="M488.452 18.2329C478.577 20.2648 471.618 22.1649 462.139 25.6077C405.694 46.1142 370.278 89.3284 346.165 142.833C336.873 163.434 324.723 210.128 312.14 224.633C293.614 245.987 274.391 253.173 277.927 288.316C279.883 307.769 296.096 314.204 278.943 336.723C263.181 357.399 233.182 363.287 208.448 361.5C198.461 360.766 189.696 357.643 181.082 353.072C180.819 352.15 169.533 342.819 167.389 339.902C132.01 291.966 200.812 220.212 153.678 159.878C140.737 143.304 116.173 129.476 94.7505 133.013C95.3523 129.927 93.1141 130.868 91.1016 130.887C84.9324 130.943 78.7067 132.034 72.6504 133.013C33.284 139.372 -7.26737 174.628 -13.6623 215.133C-16.5212 233.25 -15.2234 250.671 -1.02292 263.558C5.22153 269.24 22.9204 279.644 27.9047 267.754C32.4 256.974 21.0208 251.969 17.5035 244.5C9.66037 227.813 25.8358 200.872 39.0582 190.469C59.6348 174.289 100.243 170.037 112.111 198.295C125.202 229.431 98.042 274.056 95.8225 309.369C92.343 364.68 129.772 411.224 185.276 416.247C185.577 417.263 181.721 418.203 181.063 418.335C171.095 420.461 158.606 421.59 148.43 421.496C138.988 421.402 130.299 420.273 121.064 418.335C114.669 416.999 109.384 415.25 103.177 413.067C75.4152 403.322 53.4844 388.177 22.6383 385.713C-46.5585 380.201 -97.0596 430.827 -91.6051 499.985C-89.3293 528.694 -71.0849 543.951 -54.176 563.63C-43.9065 575.577 -28.5399 595.989 -43.662 609.967C-48.1384 614.106 -60.364 617.681 -60.9471 623.212C-61.5302 628.743 -59.4612 632.938 -53.9315 633.954C-29.2734 638.413 -7.3426 614.671 -5.23604 591.549C-4.12633 579.226 -6.2329 573.338 -10.4836 562.614C-10.6341 562.219 -11.4053 561.88 -11.5369 561.561C-11.6686 561.26 -11.4053 560.808 -11.5369 560.507C-12.609 558.08 -13.1357 555.973 -14.6968 553.132C-22.6904 538.571 -33.6934 526.079 -42.0633 511.009C-42.7592 506.306 -44.6024 502.092 -45.2231 497.313C-48.082 475.603 -37.6809 455.51 -17.5181 446.593C24.8389 427.855 63.2272 463.355 100.826 477.051C131.634 488.264 167.634 488.452 199.213 480.174C206.285 478.312 213.207 475.64 220.034 473.101C221.633 474.775 209.596 486.326 207.959 487.888C139.741 552.7 17.6728 568.992 13.723 688.945C13.2528 703.055 14.0992 713.29 17.9361 726.854C37.9673 797.743 126.876 838.981 187.308 789.389C217.1 764.951 226.166 708.492 183.771 694.157C174.668 691.071 151.101 689.228 153.772 704.128C155.352 712.951 173.408 712.763 178.449 726.854C186.461 749.28 159.32 767.623 140.06 769.993C136.882 770.388 132.894 769.899 129.528 769.993C122.531 768.319 115.383 766.945 108.8 763.879C60.7257 741.472 63.7351 677.639 94.2614 641.517C127.985 601.614 193.27 584.005 237.244 552.888C266.304 532.325 284.83 509.015 310.579 487.267C314.924 483.598 322.993 476.731 328.485 477.804C313.212 513.286 301.137 551.571 299.031 590.477C296.04 645.712 321.394 696.358 305.331 752.083C302.303 762.618 297.357 773.285 291.639 782.617C291.15 783.426 290.868 784.272 290.586 784.724C290.04 785.589 289.1 786.963 288.479 787.884C269.388 816.293 249.696 828.935 242.153 865.809C241.589 868.556 241.42 870.494 241.1 873.184C241.044 873.635 240.197 875.197 240.047 877.398C239.633 883.588 239.614 892.279 240.047 898.45C241.363 917.301 252.705 936.961 268.128 947.76C275.952 953.234 288.874 958.916 297.94 954.25C305.125 950.563 304.41 945.314 300.065 939.2C299.407 938.278 298.034 938.541 297.94 938.447C290.849 930.564 283.664 923.434 280.354 912.353C279.376 909.08 279.526 905.486 277.946 902.664C278.153 898.488 277.796 894.217 277.946 890.022C285.676 852.753 311.294 838.699 334.278 812.116C400.409 735.659 351.093 650.228 370.052 563.592C375.77 537.423 384.102 513.38 396.929 489.901C397.418 489.468 398.378 489.75 399.111 490.559C399.957 491.5 402.045 495.394 403.023 496.937C412.653 512.138 419.594 529.503 429.525 545.193C461.951 596.459 517.304 642.42 499.775 710.186C488.283 754.66 444.891 776.032 435.863 820.507C433.7 831.155 433.945 837.533 434.81 847.88C436.822 871.604 443.236 888.479 463.23 902.627C471.769 908.666 476.414 910.566 486.383 913.162C498.834 916.398 515.198 917.997 526.765 908.797C535.229 902.062 532.765 888.517 521.555 886.936C506.151 884.754 497.687 888.535 485.856 874.219C452.716 834.127 511.248 794.206 532.69 766.249C549.298 744.576 561.599 716.413 563.254 688.889C563.667 681.834 563.63 672.804 563.254 665.73C562.878 658.656 561.392 652.56 560.094 645.731C557.724 633.202 555.411 623.889 550.614 612.037C534.138 571.325 502.257 541.524 483.242 502.543L506.038 520.265C538.295 544.045 570.834 560.451 610.388 568.559C651.673 577.044 719.497 575.595 749.609 607.258C777.051 636.118 767.421 684.712 736.199 706.611C733.471 708.53 721.246 714.362 721.133 715.228C716.638 716.3 712.086 717.128 707.44 717.335C692.318 717.993 675.391 713.591 668.77 698.615C663.917 687.61 663.278 675.362 673.717 667.291C679.641 662.72 700.444 661.647 692.111 648.929C684.569 637.416 662.544 644.377 653.723 651.507C617.686 680.611 641.497 737.427 681.127 751.518C746.807 774.884 812.242 717.071 816.906 652.034C817.339 646.108 817.32 638.977 816.906 633.089C813.709 588.388 784.142 551.684 743.929 533.924C704.205 516.39 658.5 515.713 616.896 503.578C611.836 502.111 604.877 500.079 600.062 498.31C599.253 498.009 597.579 496.881 595.849 496.203C590.583 494.134 585.636 491.105 580.05 489.882C577.774 488.358 573.053 485.103 571.285 483.373C570.326 482.432 568.99 482.432 569.536 480.4C600.89 488.64 634.482 483.41 663.598 469.714C697.829 453.61 718.707 423.622 730.876 388.554C740.6 360.522 741.428 324.269 769.227 306.866C794.317 291.176 836.655 300.526 841.132 332.979C841.658 336.836 840.756 341.614 841.132 345.622C839.834 349.667 835.79 358.038 833.157 361.35C828.116 367.652 813.728 373.616 822.154 384.076C831.634 395.853 854.9 377.642 860.937 368.066C879.501 338.698 871.338 296.726 845.345 274.526C805.734 240.7 742.707 252.985 712.255 293.057C677.083 339.357 693.221 395.063 623.949 414.083C621.203 414.836 624.664 415.174 617.949 415.099C617.253 415.099 616.538 415.08 615.843 415.099C613.454 415.174 612.852 416.153 612.683 416.153C610.933 416.115 609.165 416.247 607.416 416.153C607.247 416.153 606.513 415.25 604.256 415.099C603.56 415.062 602.846 415.156 602.15 415.099C589.905 414.083 576.382 412.334 565.304 407.724C561.674 406.219 554.865 403.247 551.611 401.403C533.009 390.849 503.292 366.805 514.182 342.386C521.179 326.696 554.978 319.716 570.213 313.131C645.146 280.791 689.271 210.147 671.102 127.613C660.889 81.2198 631.698 46.4529 588.457 27.602C583.642 25.5137 578.696 23.971 573.711 22.3342C570.533 21.2807 567.523 20.039 564.232 19.1736C557.047 17.2735 551.385 16.2952 544.238 16.013C543.881 16.013 543.542 16.013 543.185 16.013C542.282 14.2445 539.592 15.0911 537.919 14.9594C536.752 14.8654 535.925 14.9594 535.812 14.9594C534.138 14.8089 532.464 13.9811 530.546 13.9059C529.492 13.8683 528.439 13.9059 527.386 13.9059C526.69 13.9059 525.975 13.9059 525.279 13.9059C512.17 13.9059 501.204 15.4862 488.433 18.1201L488.452 18.2329Z" fill="#FFFDF3"/>
<path d="M525.298 14C524.715 17.1983 526.916 16.0318 528.928 16.1071C533.668 16.2952 538.464 15.9378 543.185 16.1071C543.542 16.1071 543.881 16.1071 544.238 16.1071C547.191 17.5181 551.291 18.3271 554.545 18.9667C557.16 19.4747 562.05 21.055 564.232 19.2677C567.523 20.1331 570.533 21.3748 573.711 22.4284C571.059 23.4819 574.859 23.9522 575.592 24.2156C579.053 25.5514 585.072 29.4081 588.457 27.6773C631.698 46.5282 660.889 81.2951 671.102 127.689C689.271 210.223 645.146 280.866 570.213 313.206C554.978 319.791 521.198 326.752 514.182 342.461C503.292 366.881 533.01 390.924 551.611 401.478L559.041 407.216L565.304 407.8C576.382 412.39 589.887 414.159 602.15 415.175C601.567 418.373 603.767 417.206 605.78 417.282C609.241 417.413 612.908 417.413 616.369 417.282C618.965 417.169 619.811 418.015 617.93 415.175C624.645 415.25 621.184 414.911 623.93 414.159C693.202 395.12 677.065 339.413 712.237 293.133C742.669 253.06 805.715 240.775 845.326 274.602C871.32 296.801 879.483 338.755 860.919 368.141C854.881 377.698 831.615 395.91 822.135 384.151C813.709 373.691 828.098 367.727 833.138 361.425C835.771 358.133 839.815 349.742 841.113 345.697C842.58 341.144 841.828 338.473 842.43 333.845C842.768 331.192 844.085 330.609 841.113 333.055C836.637 300.602 794.299 291.233 769.208 306.942C741.409 324.344 740.6 360.578 730.857 388.629C718.688 423.697 697.81 453.685 663.579 469.789C634.482 483.486 600.89 488.716 569.517 480.475C568.99 482.507 570.307 482.507 571.266 483.448C573.034 485.179 577.755 488.415 580.031 489.957C583.699 492.422 586.633 494.473 591.034 496.335C592.558 496.975 594.57 498.555 595.83 496.279C597.561 496.956 599.235 498.085 600.043 498.386C597.448 499.251 601.134 500.116 601.774 500.323C605.253 501.527 610.576 501.565 609.523 505.742C611.253 506.306 610.031 503.635 611.178 503.54C612.908 503.39 615.09 505.723 616.877 503.635C658.482 515.788 704.187 516.446 743.91 533.98C784.123 551.74 813.69 588.426 816.888 633.145C815.12 638.488 815.12 646.823 816.888 652.09C812.242 717.109 746.807 774.922 681.108 751.575C641.479 737.484 617.667 680.649 653.704 651.563C662.526 644.433 684.55 637.472 692.093 648.986C700.406 661.704 679.623 662.776 673.698 667.348C663.24 675.419 663.88 687.666 668.751 698.672C675.353 713.647 692.3 718.05 707.422 717.391L709.509 720.533C709.434 719.78 709.284 718.689 710.224 718.426C713.346 717.579 718.65 717.749 722.168 716.3C722.036 715.848 721.095 715.359 721.095 715.265C721.208 714.4 733.434 708.568 736.161 706.649C767.383 684.731 776.995 636.155 749.572 607.296C719.478 575.633 651.635 577.082 610.35 568.597C570.796 560.47 538.257 544.083 506 520.303L483.204 502.581C502.22 541.562 534.082 571.362 550.577 612.074L558.853 646.446L560.056 645.769C561.354 652.598 562.84 658.731 563.216 665.767C560.489 666.558 561.937 667.912 561.975 669.53C562.106 675.118 562.276 680.649 562.088 686.236C562.031 688.042 559.473 689.303 563.216 688.945C561.58 716.469 549.279 744.633 532.652 766.306C511.21 794.262 452.678 834.184 485.819 874.275C497.649 888.592 506.113 884.811 521.517 886.993C532.727 888.573 535.191 902.119 526.727 908.854C515.16 918.054 498.797 916.455 486.345 913.219L463.192 902.683C443.198 888.517 436.785 871.641 434.772 847.937C437.274 847.203 436.39 845.829 436.39 844.08C436.39 840.336 435.656 836.592 435.788 832.604C435.901 828.822 438.553 823.931 435.826 820.544C444.854 776.051 488.245 754.679 499.737 710.223C517.267 642.477 461.913 596.497 429.487 545.231C419.556 529.54 412.635 512.176 402.986 496.975C402.008 495.413 399.92 491.538 399.074 490.597C398.34 489.788 397.381 489.506 396.892 489.938C384.083 513.417 375.751 537.461 370.014 563.63C351.055 650.265 400.371 735.696 334.24 812.154C311.256 838.718 285.639 852.79 277.909 890.059C276.761 895.647 275.689 899.993 276.874 905.844C278.642 906.126 277.852 903.868 277.909 902.683C279.488 905.505 279.338 909.098 280.316 912.372C283.626 923.453 290.83 930.583 297.902 938.466L297.94 944.279C304.391 942.774 297.545 946.349 302.115 947.384L297.902 954.269C288.836 958.916 275.896 953.253 268.09 947.779C252.667 936.98 241.326 917.339 240.009 898.469C242.323 890.172 240.103 881.462 242.398 872.921C242.887 871.114 243.019 869.91 245.257 870.042C245.708 868.255 243.733 869.421 243.282 868.895C242.041 867.484 246.31 863.909 242.116 865.847C249.639 828.973 269.332 816.33 288.441 787.922C291.093 788.468 290.736 787.076 290.548 784.762C290.83 784.31 291.112 783.463 291.601 782.654C294.723 783.463 293.162 780.434 293.934 779.72C294.535 779.155 296.285 779.926 296.905 778.817C297.526 777.707 297.451 774.79 298.259 772.984C300.987 766.814 307.081 759.157 305.275 752.12C321.338 696.395 295.984 645.75 298.974 590.514C301.081 551.59 313.175 513.305 328.428 477.842C322.936 476.769 314.867 483.636 310.523 487.305C284.774 509.072 266.247 532.362 237.188 552.925C193.213 584.043 127.929 601.652 94.205 641.555C63.6787 677.657 60.6881 741.51 108.744 763.916C115.327 766.983 122.474 768.356 129.471 770.031C128.813 770.031 125.07 769.523 126.838 771.084C130.355 771.084 133.854 771.084 137.371 771.084C138.161 771.084 142.844 771.536 139.985 770.031C159.245 767.66 186.386 749.317 178.373 726.892C173.333 712.801 155.277 712.97 153.697 704.165C151.026 689.265 174.593 691.109 183.696 694.194C226.091 708.53 217.025 764.97 187.232 789.427C126.8 839 37.8921 797.78 17.861 726.892C19.817 725.876 18.7638 723.186 18.4628 721.568C16.5255 711.333 14.4378 702.397 14.7951 691.673C14.8516 689.867 17.3907 688.607 13.6666 688.983C17.6164 569.03 139.684 552.737 207.903 487.925C209.539 486.364 221.577 474.813 219.978 473.138C213.151 475.678 206.229 478.35 199.157 480.212C167.577 488.49 131.578 488.302 100.769 477.089C63.152 463.393 24.7825 427.892 -17.5744 446.63C-37.7373 455.548 -48.1384 475.659 -45.2795 497.351L-47.4049 495.789C-46.8594 503.014 -45.2795 505.365 -42.1385 511.047C-33.7686 526.098 -22.7656 538.608 -14.772 553.17L-15.8064 553.678C-12.3833 556.951 -16.7657 559.661 -11.6121 560.526C-11.4805 560.827 -11.7438 561.278 -11.6121 561.579L-10.5588 562.633C-6.30809 573.357 -4.20153 579.264 -5.31124 591.568C-7.4178 614.708 -29.3298 638.432 -54.0067 633.973C-59.5364 632.976 -61.5865 628.536 -61.0223 623.231C-60.458 617.925 -48.2136 614.125 -43.7372 609.986C-28.6151 596.008 -43.9817 575.595 -54.2512 563.649C-71.1601 543.97 -89.4045 528.713 -91.6803 500.004C-97.1348 430.846 -46.6337 380.219 22.5631 385.732C53.4092 388.196 75.3588 403.341 103.101 413.086C102.462 415.927 106.506 416.19 108.368 416.774C111.603 417.79 118.036 420.235 121.007 418.354C130.242 420.292 138.951 421.421 148.374 421.515C159.17 425.748 170.662 420.649 181.609 419.464L181.007 418.354C181.646 418.222 185.502 417.263 185.22 416.266C129.697 411.261 92.2677 364.717 95.7661 309.387C97.9856 274.056 125.145 229.45 112.054 198.314C100.186 170.075 59.5784 174.308 39.0018 190.487C25.7794 200.891 9.58517 227.832 17.4472 244.519C20.9456 251.969 32.3436 256.992 27.8483 267.772C22.8828 279.681 5.16515 269.259 -1.0793 263.577L-2.30186 258.441C-6.72188 257.594 -10.6341 246.871 -11.7438 242.13C-12.6654 238.198 -13.7563 231.406 -13.6246 227.418C-13.5682 226.026 -12.9663 217.654 -12.5902 217.296C-12.0071 216.751 -9.52436 217.917 -9.48675 216.713L-13.6999 215.133C-7.30494 174.609 33.2652 139.372 72.6128 133.013H94.7129C116.136 129.476 140.7 143.304 153.64 159.878C200.775 220.231 131.973 291.966 167.352 339.903C169.496 342.8 180.762 352.15 181.044 353.072C181.044 353.128 180.066 353.561 180.066 353.956C188.549 359.863 195.207 361.18 205.42 362.911C207.395 363.25 208.825 364.905 208.411 361.5C233.144 363.306 263.144 357.418 278.905 336.723C296.059 314.204 279.846 307.769 277.89 288.317C274.354 253.173 293.576 245.987 312.103 224.634C324.686 210.129 336.836 163.453 346.127 142.833C370.24 89.3472 405.657 46.1143 462.101 25.6078L468.421 29.8032C468.872 28.0912 466.596 29.2764 466.295 28.11C466.145 27.4703 466.22 24.7424 466.352 24.6107C467.067 23.8017 484.878 20.1896 487.38 21.3936L491.048 19.3053L488.414 18.2518C501.242 15.5991 512.188 14.0376 525.298 14ZM543.73 18.233V19.2865C544.408 18.9291 544.408 18.5904 543.73 18.233ZM502.615 51.4761C496.859 43.1982 487.925 45.136 480.007 49.2561C474.101 52.3227 476.189 52.0781 473.593 56.4992C471.148 60.6569 468.157 63.0462 469.531 69.0853C469.719 69.9131 471.167 69.9131 471.581 70.5904C473.33 73.4312 472.578 74.6917 476.433 76.1403C482.96 78.6048 492.327 75.0491 497.405 70.8161C502.972 66.1881 505.831 60.0549 504.214 52.6425C504.044 51.8335 502.859 51.8147 502.615 51.4573V51.4761ZM573.166 53.5643C568.313 48.9551 565.53 46.4529 558.345 45.738C546.589 44.5716 541.154 49.7641 536.79 59.5282C536.433 60.3371 534.947 60.2619 534.778 61.0897C534.608 61.9174 535.473 63.1967 535.304 64.0057C534.495 67.5238 532.577 67.9565 534.307 72.942C539.404 87.7293 566.451 84.7568 574.088 73.751C576.213 70.6844 576.439 66.0752 580.05 65.586C579.975 63.8364 577.83 64.9652 577.304 62.5195C576.006 56.4992 579.203 59.2836 573.185 53.5643H573.166ZM451.343 78.4919C451.192 78.2097 447.054 74.5223 446.64 74.259C444.44 72.9044 437.782 71.2865 435.449 72.0202C434.697 72.2459 434.829 73.6946 433.982 73.9579C428.264 75.6323 424.616 76.3096 420.008 80.9C415.098 85.7915 411.619 91.586 412.559 98.8667C412.823 100.88 414.703 100.278 414.647 100.842C414.553 101.82 413.142 103.175 413.819 104.435C414.308 105.339 422.979 109.289 424.597 109.515C425.895 109.703 431.575 108.951 432.891 108.537C434.622 107.991 443.368 102.761 444.271 101.764C447.111 98.6033 448.145 93.3921 449.575 89.5918C449.857 88.8581 451.399 88.8204 451.568 88.0303C451.888 86.6005 451.907 79.4702 451.343 78.4919ZM509.348 92.1316C503.499 92.1316 486.421 92.3009 482.433 96.4963C482.019 96.929 482.189 98.3964 481.718 98.8479C478.991 101.557 474.628 105.15 473.236 108.819C471.299 113.936 470.283 126.033 477.919 124.566L475.831 126.127C479.744 132.712 488.979 133.126 496.239 132.825C498.458 132.185 496.728 129.927 496.878 129.815C499.248 128.178 498.891 131.734 499.022 131.846C501.054 133.351 501.11 130.304 501.392 130.153C509.762 125.789 515.442 122.064 518.621 112.074C522.608 99.5252 515.762 100.127 509.367 92.0939L509.348 92.1316ZM574.088 103.062C573.711 102.893 573.787 101.576 573.26 101.557C568.765 101.482 556.558 104.229 555.824 109.816L553.737 107.728C548.094 115.31 543.768 119.749 550.088 128.742C555.937 137.039 566.639 136.474 573.824 130.473C575.874 128.761 575.141 125.544 577.906 127.745C582.062 115.705 588.965 109.553 574.088 103.081V103.062ZM438.873 128.893C438.195 128.084 433.249 127.745 431.706 128.253C431.142 128.441 421.794 133.859 421.381 134.292C421.004 134.687 417.111 143.022 416.979 144.15C416.829 145.467 417.807 146.615 417.826 147.255C417.826 147.819 415.851 147.612 415.794 148.289C415.776 148.59 416.791 153.67 416.998 154.234C418.014 157.019 421.926 157 422.152 157.226C422.509 157.545 421.061 159.747 421.55 160.386C422.791 162.042 427.023 160.217 426.384 163.509L427.437 159.314C429.167 158.862 427.926 161.139 429.148 161.44C431.556 162.042 440.941 158.336 442.898 156.887C443.293 156.586 448.239 149.493 448.408 149.042C449.913 144.94 449.593 139.202 447.825 135.195C447.035 133.389 442.409 127.388 441.073 129.401C440.396 130.398 440.847 133.182 439.042 132.994C438.873 131.865 439.493 129.589 438.91 128.912L438.873 128.893ZM514.445 154.404C504.12 148.835 488.433 155.551 488.452 168.288C488.452 171.655 489.148 179.049 492.665 179.858L490.559 181.419C492.778 181.156 494.546 183.169 496.408 183.47C500.884 184.185 507.599 182.943 511.869 181.344C512.753 181.006 512.696 179.783 512.922 179.67C513.373 179.444 514.351 180.347 514.558 180.178C514.916 179.877 519.655 172.728 519.787 172.276C520.238 170.715 520.314 167.723 520.107 166.105C519.844 164.111 518.019 164.713 518.057 164.13C518.188 162.249 519.58 161.496 518.282 158.542C518.17 158.279 514.671 154.554 514.427 154.422L514.445 154.404ZM374.773 316.217C376.221 319.904 378.779 325.68 383.199 325.699C383.538 326.037 383.895 326.432 384.252 326.752C385.249 327.636 385.795 329.179 387.469 330.364C389.895 332.095 401.105 338.266 403.193 334.108C425.048 335.876 437.876 321.089 443.198 301.467C444.816 295.503 444.365 293.81 442.615 287.827C440.264 279.756 438.177 275.636 431.612 270.933C396.064 245.46 359.82 277.875 374.773 316.217ZM221.088 473.101C228.799 473.42 261.526 454.306 255.357 445.671C252.63 441.852 246.461 450.261 242.548 450.374L220.542 468.83L221.107 473.082L221.088 473.101ZM531.975 458.972C531.712 458.84 530.546 455.322 527.875 459.386C525.373 463.205 536.79 471.125 539.705 472.894C548.715 478.35 558.157 480.363 568.464 481.51C568.671 480.005 567.994 478.726 567.072 477.635C564.458 474.568 537.843 461.963 531.994 458.972H531.975ZM-55.7747 469.94C-62.4894 468.322 -69.1476 463.412 -72.3451 472.818C-73.436 476.054 -71.7432 482.187 -74.7149 481.51V482.545C-71.3482 482.018 -74.3952 485.517 -72.0065 488.791C-71.3858 489.637 -66.3827 493.287 -65.3107 493.664C-58.0129 496.241 -57.9941 488.546 -53.6869 484.953C-53.4424 479.309 -54.1007 475.659 -57.8813 471.483L-55.7935 469.921L-55.7747 469.94ZM-56.6587 512.834C-56.8656 512.74 -56.7904 511.028 -57.2606 511.047C-65.668 511.273 -68.5833 520.134 -66.0254 527.076C-65.4235 528.694 -63.7683 529.691 -62.8655 531.347C-62.3953 532.193 -63.0912 533.604 -62.8279 533.962C-60.0442 537.781 -51.618 540.415 -47.7058 536.313C-46.2011 534.733 -48.1196 532.645 -45.2419 533.115C-44.7152 531.083 -47.5741 533.115 -47.3296 531.046C-41.7247 532.287 -46.4644 516.691 -47.593 515.487C-47.8187 515.242 -53.0663 512.345 -53.386 512.27C-54.665 511.988 -55.9816 513.154 -56.6587 512.853V512.834ZM-25.6245 563.292C-20.4145 554.261 -27.637 546.717 -37.1354 548.956C-37.9065 549.144 -37.9253 550.574 -38.6965 550.95C-40.0883 551.627 -42.2513 551.289 -43.2294 552.775C-44.3767 554.487 -44.6212 559.905 -44.0005 561.899C-43.8877 562.276 -39.0539 567.017 -38.6965 567.148C-34.0508 568.954 -28.1449 567.675 -25.6245 563.31V563.292ZM54.4437 718.746C53.2963 717.711 45.0958 714.833 44.3999 715.359C44.0237 715.641 43.9297 717.297 43.2337 717.918C42.0112 719.047 39.5473 721.079 39.0582 722.358C38.6632 723.393 36.7448 731.031 36.8576 731.576C37.0645 732.668 39.0394 731.934 40.0175 732.122C40.5065 733.89 37.8545 732.63 37.8357 733.74C37.7981 736.656 43.2714 745.78 46.2619 746.439C52.5252 747.812 57.6787 738.744 58.8637 733.533C59.3527 731.332 57.1333 732.385 56.8888 732.084C54.9327 729.601 59.0894 730.749 58.9577 728.961C55.4405 729.469 58.243 727.362 57.5283 724.709C57.1521 723.317 55.4217 719.649 54.4248 718.746H54.4437ZM78.5563 755.695C77.1644 754.867 70.5814 752.008 69.6974 752.365C69.547 752.421 69.5093 753.55 69.1144 753.738C64.8072 755.921 61.7414 759.514 62.569 764.725C64.7508 778.61 83.202 789.766 90.575 774.734L88.4496 774.188C87.9794 772.439 90.4057 773.699 90.6314 772.495C91.5906 767.34 85.9104 765.478 87.3775 760.511L85.2898 762.599C84.9888 760.869 80.0233 756.542 78.5375 755.657L78.5563 755.695ZM104.531 793.942C106.412 796.219 119.747 799.53 122.55 799.191C126.876 798.664 132.236 792.155 131.446 787.64C130.318 781.168 114.349 776.258 109.007 777.311C108.594 777.387 108.217 782.542 103.196 781.601C105.058 784.442 103.948 783.689 101.089 783.689C100.675 785.608 102.857 784.348 103.177 784.743C104.775 786.624 102.105 786.643 101.07 787.358C103.402 788.825 103.177 792.287 104.531 793.924V793.942Z" fill="#8ACFBA"/>
<path d="M181.082 418.335L181.684 419.445C170.737 420.63 159.264 425.729 148.449 421.496C158.624 421.609 171.113 420.461 181.082 418.335Z" fill="#64C4AE"/>
<path d="M181.082 353.053C189.715 357.625 198.461 360.748 208.449 361.481C208.862 364.905 207.433 363.231 205.458 362.892C195.245 361.161 188.587 359.845 180.104 353.937C180.104 353.542 181.101 353.109 181.082 353.053Z" fill="#64C4AE"/>
<path d="M488.452 18.2329L491.085 19.2865L487.417 21.3747C484.916 20.1707 467.104 23.7828 466.389 24.5918C466.277 24.7235 466.183 27.4702 466.333 28.0911C466.615 29.2575 468.91 28.0911 468.458 29.7843L462.139 25.5889C471.618 22.1461 478.577 20.2648 488.452 18.2141V18.2329Z" fill="#64C4AE"/>
<path d="M72.6504 132.994C78.7256 132.016 84.9512 130.925 91.1016 130.868C93.1141 130.868 95.3524 129.89 94.7505 132.994H72.6504Z" fill="#64C4AE"/>
<path d="M616.877 503.635C615.09 505.723 612.908 503.39 611.178 503.541C610.012 503.635 611.234 506.306 609.523 505.742C610.576 501.565 605.234 501.509 601.774 500.324C601.134 500.098 597.448 499.251 600.043 498.386C604.858 500.135 611.836 502.167 616.877 503.653V503.635Z" fill="#64C4AE"/>
<path d="M564.25 19.2866C562.069 21.0739 557.16 19.4747 554.564 18.9856C551.31 18.3459 547.21 17.537 544.257 16.126C551.404 16.4082 557.065 17.3865 564.25 19.2866Z" fill="#64C4AE"/>
<path d="M565.304 407.819L559.041 407.235L551.611 401.497C554.846 403.341 561.655 406.314 565.304 407.819Z" fill="#64C4AE"/>
<path d="M527.405 14C527.555 15.5803 530.414 15.5803 530.564 14C532.483 14.0753 534.157 14.903 535.831 15.0535H537.937C539.611 15.1852 542.301 14.3386 543.204 16.1071C538.483 15.9378 533.687 16.2952 528.947 16.1071C526.916 16.0318 524.715 17.1983 525.317 14C526.013 14 526.727 14 527.423 14H527.405Z" fill="#64C4AE"/>
<path d="M121.083 418.335C118.111 420.216 111.697 417.771 108.443 416.755C106.581 416.172 102.537 415.908 103.177 413.067C109.384 415.25 114.669 416.981 121.064 418.335H121.083Z" fill="#64C4AE"/>
<path d="M604.257 415.174L607.416 416.228C609.166 416.322 610.934 416.19 612.683 416.228L615.843 415.174C616.539 415.156 617.253 415.174 617.949 415.174C619.83 418.015 618.984 417.169 616.388 417.282C612.927 417.413 609.26 417.413 605.799 417.282C603.768 417.206 601.567 418.373 602.169 415.174C602.865 415.231 603.579 415.137 604.275 415.174H604.257Z" fill="#64C4AE"/>
<path d="M588.457 27.6962C585.072 29.4082 579.053 25.5515 575.592 24.2345C574.859 23.9523 571.059 23.5008 573.711 22.4473C578.677 24.084 583.642 25.6079 588.457 27.715V27.6962Z" fill="#64C4AE"/>
<path d="M595.831 496.26C594.57 498.536 592.558 496.956 591.034 496.316C586.633 494.454 583.699 492.422 580.031 489.938C585.599 491.161 590.545 494.19 595.831 496.26Z" fill="#64C4AE"/>
<path d="M607.416 416.228L604.256 415.175C606.513 415.325 607.247 416.228 607.416 416.228Z" fill="#8ACFBA"/>
<path d="M615.824 415.175L612.664 416.228C612.833 416.228 613.435 415.25 615.824 415.175Z" fill="#8ACFBA"/>
<path d="M530.565 14.0001C530.414 15.5804 527.555 15.5804 527.405 14.0001C528.458 14.0001 529.511 13.9625 530.565 14.0001Z" fill="#8ACFBA"/>
<path d="M537.938 15.0723H535.831C535.944 15.0723 536.772 14.9783 537.938 15.0723Z" fill="#8ACFBA"/>
<path d="M431.612 270.933C434.772 275.975 440.208 281.901 441.637 287.752C442.484 291.195 441.901 293.979 442.126 297.272C442.183 298.156 442.164 299.097 443.18 299.379C443.293 300.037 443.104 300.809 443.18 301.486C437.857 321.108 425.029 335.895 403.174 334.127C396.29 333.562 389.65 330.891 384.234 326.752C383.876 326.432 383.519 326.056 383.18 325.699C380.171 322.632 377.707 319.358 374.754 316.217C359.801 277.875 396.045 245.479 431.594 270.933H431.612ZM393.036 312.68C413.425 331.738 441.261 297.554 417.243 282.691C397.343 270.369 376.71 297.422 393.036 312.68Z" fill="#FFFDF3"/>
<path d="M509.348 92.1316C515.762 100.146 522.59 99.544 518.602 112.111C515.424 122.101 509.743 125.845 501.374 130.191C501.11 130.341 501.035 133.389 499.004 131.884C498.853 131.771 499.229 128.215 496.859 129.852C496.709 129.965 498.421 132.204 496.22 132.862C488.96 133.163 479.725 132.731 475.813 126.165L477.9 124.603C470.264 126.071 471.299 113.974 473.217 108.857C474.59 105.188 478.954 101.595 481.7 98.8856C482.17 98.4152 481.982 96.9666 482.415 96.5339C486.421 92.3385 503.48 92.1692 509.33 92.1692L509.348 92.1316Z" fill="#64C4AE"/>
<path d="M573.166 53.5643C579.185 59.2836 575.987 56.4992 577.285 62.5194C577.812 64.984 579.956 63.8364 580.031 65.586C576.42 66.0563 576.194 70.6844 574.069 73.751C566.452 84.7567 539.386 87.7292 534.289 72.942C532.558 67.9377 534.477 67.5238 535.286 64.0057C535.474 63.1967 534.609 61.9362 534.759 61.0896C534.91 60.243 536.395 60.3183 536.772 59.5281C541.135 49.764 546.571 44.5527 558.326 45.738C565.511 46.4529 568.276 48.9551 573.147 53.5643H573.166Z" fill="#64C4AE"/>
<path d="M451.343 78.4919C451.907 79.4702 451.888 86.6004 451.568 88.0302C451.399 88.8016 449.857 88.8392 449.575 89.5917C448.145 93.392 447.111 98.6033 444.27 101.764C443.368 102.761 434.622 107.991 432.891 108.537C431.575 108.951 425.895 109.703 424.597 109.515C422.96 109.27 414.29 105.338 413.819 104.435C413.142 103.194 414.572 101.82 414.647 100.842C414.703 100.278 412.823 100.899 412.559 98.8667C411.6 91.5859 415.098 85.7914 420.007 80.9C424.616 76.3095 428.246 75.6323 433.982 73.9579C434.847 73.7133 434.716 72.2647 435.449 72.0201C437.782 71.2864 444.421 72.9043 446.64 74.2589C447.054 74.5035 451.192 78.2097 451.343 78.4919Z" fill="#64C4AE"/>
<path d="M574.088 103.062C588.965 109.534 582.062 115.686 577.906 127.726C575.141 125.525 575.874 128.742 573.824 130.454C566.639 136.456 555.937 137.039 550.088 128.723C543.768 119.731 548.094 115.291 553.737 107.709L555.824 109.797C556.558 104.21 568.765 101.444 573.26 101.538C573.787 101.538 573.693 102.874 574.088 103.043V103.062Z" fill="#64C4AE"/>
<path d="M438.872 128.893C439.437 129.589 438.835 131.865 439.004 132.975C440.81 133.163 440.377 130.379 441.035 129.382C442.371 127.369 446.998 133.389 447.788 135.176C449.574 139.184 449.875 144.922 448.371 149.023C448.201 149.474 443.255 156.586 442.86 156.868C440.904 158.336 431.518 162.023 429.111 161.421C427.888 161.12 429.111 158.844 427.399 159.295L426.346 163.49C426.985 160.198 422.753 162.042 421.512 160.367C421.023 159.709 422.471 157.527 422.114 157.207C421.888 157 417.976 157 416.96 154.215C416.753 153.651 415.738 148.571 415.757 148.27C415.813 147.593 417.788 147.8 417.788 147.236C417.788 146.596 416.791 145.448 416.942 144.132C417.073 142.984 420.948 134.668 421.343 134.273C421.757 133.841 431.104 128.422 431.669 128.234C433.23 127.726 438.176 128.065 438.835 128.874L438.872 128.893Z" fill="#64C4AE"/>
<path d="M502.615 51.4761C502.879 51.8524 504.045 51.8524 504.214 52.6614C505.831 60.0738 502.954 66.2069 497.405 70.835C492.308 75.068 482.941 78.6049 476.434 76.1591C472.578 74.7105 473.33 73.45 471.581 70.6092C471.167 69.9131 469.719 69.9319 469.531 69.1042C468.158 63.0651 471.148 60.657 473.593 56.5181C476.208 52.097 474.101 52.3415 480.007 49.275C487.944 45.1549 496.879 43.2171 502.615 51.4949V51.4761Z" fill="#64C4AE"/>
<path d="M514.445 154.404C514.69 154.535 518.188 158.279 518.301 158.524C519.599 161.477 518.188 162.23 518.075 164.111C518.038 164.695 519.862 164.074 520.126 166.087C520.333 167.723 520.257 170.696 519.806 172.257C519.674 172.709 514.934 179.858 514.577 180.159C514.37 180.328 513.392 179.444 512.941 179.651C512.696 179.764 512.771 180.987 511.887 181.325C507.618 182.925 500.903 184.147 496.427 183.451C494.565 183.15 492.797 181.137 490.577 181.401L492.684 179.839C489.167 179.03 488.471 171.637 488.471 168.269C488.433 155.551 504.138 148.816 514.464 154.385L514.445 154.404Z" fill="#64C4AE"/>
<path d="M221.088 473.101L220.524 468.849L242.53 450.393C246.461 450.28 252.611 441.871 255.338 445.69C261.508 454.306 228.781 473.421 221.069 473.12L221.088 473.101Z" fill="#64C4AE"/>
<path d="M531.975 458.972C537.825 461.963 564.457 474.568 567.053 477.635C567.975 478.726 568.671 480.005 568.445 481.51C558.138 480.363 548.696 478.368 539.687 472.894C536.771 471.125 525.373 463.205 527.856 459.386C530.508 455.322 531.693 458.84 531.956 458.972H531.975Z" fill="#64C4AE"/>
<path d="M403.193 334.108C401.086 338.247 389.895 332.076 387.469 330.364C385.795 329.179 385.249 327.636 384.252 326.752C389.669 330.891 396.309 333.562 403.193 334.127V334.108Z" fill="#64C4AE"/>
<path d="M431.612 270.933C438.195 275.636 440.264 279.757 442.615 287.827C444.364 293.81 444.816 295.503 443.198 301.467C443.123 300.79 443.311 300.018 443.198 299.36C443.067 298.476 443.217 297.554 442.145 297.253C441.901 293.979 442.502 291.176 441.656 287.733C440.208 281.882 434.772 275.956 431.631 270.914L431.612 270.933Z" fill="#64C4AE"/>
<path d="M374.773 316.217C377.707 319.34 380.171 322.632 383.199 325.698C378.779 325.68 376.221 319.923 374.773 316.217Z" fill="#64C4AE"/>
<path d="M543.73 18.2329C544.408 18.5904 544.408 18.929 543.73 19.2865V18.2329Z" fill="#64C4AE"/>
<path d="M393.036 312.68C376.71 297.403 397.343 270.369 417.243 282.691C441.261 297.554 413.443 331.756 393.036 312.68Z" fill="#64C4AE"/>
<path d="M443.198 299.36C442.183 299.078 442.201 298.137 442.145 297.253C443.217 297.554 443.067 298.476 443.198 299.36Z" fill="#8ACFBA"/>
</g>
</g>
<defs>
<clipPath id="clip0_504_7963">
<rect width="669" height="516" fill="white"/>
</clipPath>
<clipPath id="clip1_504_7963">
<rect width="963" height="942" fill="white" transform="translate(-92 14)"/>
</clipPath>
</defs>
</svg>
