<svg width="30" height="30" viewBox="0 0 30 30" fill="none" xmlns="http://www.w3.org/2000/svg">
<rect width="30" height="30" rx="15" fill="#EAE7E7"/>
<path d="M12.0234 25.4979C11.6513 25.4979 11.3572 25.3908 11.1412 25.1767C10.9271 24.9626 10.8211 24.6707 10.8271 24.2971L10.9971 14.2222C10.9971 14.0437 10.9651 13.8968 10.9031 13.7813C10.8411 13.6659 10.7391 13.5756 10.599 13.5105C10.2149 13.3321 9.90083 13.1347 9.65476 12.9185C9.40869 12.7022 9.23464 12.423 9.12861 12.0829C9.02458 11.7428 8.98256 11.2957 9.00657 10.7435L9.24464 5.30406C9.25664 5.09622 9.31666 4.93457 9.42669 4.81491C9.53672 4.69524 9.68477 4.63646 9.87082 4.63646C10.0569 4.63646 10.1909 4.69734 10.2909 4.8191C10.389 4.94087 10.439 5.10882 10.439 5.32085L10.379 10.6113C10.373 10.9556 10.529 11.1277 10.8451 11.1277C10.9911 11.1277 11.1112 11.0836 11.2012 10.9955C11.2912 10.9073 11.3372 10.7855 11.3372 10.6302L11.4313 5.1529C11.4313 4.95136 11.4853 4.79391 11.5913 4.67635C11.6993 4.56088 11.8434 4.5021 12.0234 4.5021C12.2035 4.5021 12.3575 4.56088 12.4636 4.67635C12.5716 4.79181 12.6276 4.95136 12.6336 5.1529L12.7176 10.6302C12.7176 10.7855 12.7636 10.9052 12.8537 10.9955C12.9437 11.0836 13.0617 11.1277 13.2098 11.1277C13.3458 11.1277 13.4578 11.0815 13.5439 10.9892C13.6319 10.8968 13.6759 10.7708 13.6759 10.6113L13.6079 5.32085C13.6079 5.10672 13.6579 4.94087 13.7599 4.8191C13.862 4.69734 14.002 4.63646 14.1841 4.63646C14.5802 4.63646 14.7862 4.85899 14.8022 5.30406L15.0483 10.7456C15.0643 11.2978 15.0223 11.7428 14.9163 12.085C14.8122 12.4251 14.6362 12.7043 14.3901 12.9206C14.144 13.1368 13.8299 13.3341 13.4458 13.5126C13.3098 13.5777 13.2098 13.6679 13.1458 13.7834C13.0797 13.8989 13.0477 14.0458 13.0477 14.2243L13.2258 24.2992C13.2258 24.6728 13.1177 24.9668 12.9037 25.1788C12.6896 25.3929 12.3955 25.5 12.0214 25.5L12.0234 25.4979ZM18.7674 17.6295C18.7734 17.4573 18.7414 17.3083 18.6733 17.1802C18.6053 17.0521 18.4953 16.9325 18.3432 16.8191L17.8851 16.4979C17.653 16.3321 17.483 16.1347 17.373 15.9059C17.2629 15.677 17.2069 15.4041 17.2069 15.0829V14.6022C17.2069 13.7183 17.2629 12.824 17.377 11.9171C17.489 11.0101 17.651 10.1326 17.8591 9.28446C18.0672 8.43632 18.3132 7.65535 18.5953 6.94157C18.8774 6.22778 19.1915 5.61477 19.5356 5.10462C19.6816 4.89048 19.8157 4.73723 19.9377 4.64276C20.0597 4.54829 20.2018 4.5 20.3658 4.5C20.5299 4.5 20.6839 4.55878 20.8099 4.67425C20.936 4.78971 21 4.96396 21 5.19489V24.339C21 24.7064 20.892 24.992 20.6739 25.1935C20.4558 25.395 20.1618 25.4958 19.7877 25.4958C19.4135 25.4958 19.1195 25.3887 18.9014 25.1746C18.6833 24.9605 18.5813 24.6561 18.5913 24.2593L18.7614 17.6253L18.7674 17.6295Z" fill="#34C759"/>
</svg>
