<svg width="669" height="516" viewBox="0 0 669 516" fill="none" xmlns="http://www.w3.org/2000/svg">
<g clip-path="url(#clip0_504_11395)">
<rect width="669" height="516" fill="#D9D9D9" fill-opacity="0.6"/>
<g clip-path="url(#clip1_504_11395)">
<path d="M685.815 410.995C683.869 409.576 685.486 412.02 685.89 412.413C688.835 415.275 693.131 418.415 692.942 423.278C692.841 425.899 690.465 428.875 687.9 429.47C675.655 432.282 674.062 413.261 667.921 406.562C664.534 402.865 659.05 400.573 654.21 399.813C653.894 406.638 659.707 411.4 662.247 416.718C667.744 428.179 659.037 431.75 651.24 423.265C641.371 412.54 644.126 401.269 628.141 394.976C620.344 391.911 610.689 390.923 602.867 394.216C607.378 397.407 612.471 399.003 616.932 402.485C618.625 403.802 628.28 412.426 628.937 413.565C631.439 417.896 628.179 421.239 623.895 422.012C614.341 423.734 606.797 413.869 599.177 409.855C575.521 397.407 541.389 404.486 520.678 419.96C499.625 435.701 493.282 461.015 468.88 473.159C436.113 489.482 361.607 481.478 338.911 450.01C333.49 442.501 331.405 433.966 327.273 425.899C311.983 396.077 264.721 344.322 234.317 387.2C231.474 391.215 230.122 397.875 226.862 401.345C222.515 405.967 214.528 406.968 212.683 399.851C210.409 391.05 219.899 384.44 221.996 376.728C212.43 375.993 201.449 382.439 197.127 390.936C193.589 397.901 192.401 411.856 182.14 413.236C171.879 414.616 179.941 398.673 178.855 397.61C174.52 396.774 170.451 400.079 166.509 400.535C153.935 401.978 155.022 389.239 164.322 384.921C171.437 381.616 183.985 382.16 186.285 373.017C176.188 371.371 162.541 371.359 154.643 378.944C149.525 383.87 145.405 394.026 137.381 395.216C130.317 396.255 126.172 390.202 128.839 383.642C129.913 380.97 138.114 376.538 137.204 375.259C135.966 373.549 122.04 372.752 120.852 366.66C119.247 358.366 126.905 356.441 133.514 357.695C137.217 358.404 141.286 361.304 145.077 361.76C146.96 361.988 153.619 361.494 155.072 360.721C156.526 359.949 155.186 359.493 154.681 358.847C152.469 355.998 148.211 354.896 147.642 350.958C147.111 347.273 148.388 344.538 152.052 343.537C159.912 341.41 166.344 348.793 172.41 352.25C174.28 353.313 184.465 359.126 183.176 354.149C182.33 350.869 175.645 345.969 179.802 341.878C184.743 337.016 196.622 351.781 200.084 354.339C207.856 360.101 214.427 360.899 223.5 357.328C223.791 355.998 223.108 355.859 222.262 355.213C219.659 353.212 213.871 350.945 210.623 348.983C197.772 341.22 174.912 325.112 159.356 327.67C151.433 328.975 135.763 346.513 128.611 339.485C123.973 334.926 133.805 329.924 134.222 326.037C127.373 327.265 102.832 334.85 105.536 320.781C107.483 310.651 120.764 315.197 128.283 313.361C127.537 310.36 123.961 309.321 122.015 306.611C119.525 303.154 117.099 295.493 122.874 294.151C136.585 290.959 145.14 313.893 160.279 311.132C161.391 310.081 151.863 295.518 150.485 293.745C136.522 275.738 124.719 287.021 108.91 283.222C104.513 282.171 98.7632 278.068 101.935 273.155C105.688 267.317 111.223 270.116 116.72 269.343C126.21 268.014 116.745 263.265 113.776 260.466C108.936 255.895 96.1726 241.864 107.659 237.153C118.312 232.784 127.171 254.97 136.484 256.705C137.242 255.92 130.431 241.94 129.584 239.394C127.663 233.531 124.656 222.502 131.745 218.791C143.636 212.561 143.8 233.721 144.887 239.724C145.165 241.243 147.086 249.449 147.655 250.006C148.969 251.298 148.906 249.487 149.196 248.943C151.307 244.928 154.82 238.521 160.481 239.698C169.2 241.509 160.633 257.288 159.71 261.733C157.094 274.408 162.869 289.262 173.295 296.962C186.828 306.94 177.717 290.01 177.439 284.552C176.972 275.333 186.298 273.56 189.861 282.602C193.147 290.947 193.513 299.786 198.088 308.65C204.065 320.262 224.991 333.407 237.641 336.104C240.85 336.788 243.984 337.548 247.32 337.206C245.804 328.848 239.498 321.326 231.348 318.54C223.412 315.83 207.452 317.527 209.423 304.826C210.863 295.569 222.552 304.75 227.228 304.395C223.905 299.431 215.16 294.581 213.441 288.781C210.712 279.638 219.242 275.219 226.508 280.905C229.477 283.222 236.415 292.352 239.119 295.847C241.432 298.836 243.201 302.128 245.463 305.142C245.791 300.748 245.21 285.831 253.298 288.313C260.892 290.643 259.237 308.853 259.982 315.21C261.259 326.049 270.913 335.648 279.304 341.676C280.719 333.47 264.431 314.716 272.619 308.511C278.647 303.952 284.055 311.778 286.14 316.565C291.334 328.493 291.397 343.069 301.14 352.592C302.871 354.276 316.519 364.799 317.985 363.292C314.775 348.527 308.71 333.394 300.887 320.427C285.142 294.34 251.187 269.875 220.202 267.849C209.815 267.165 187.384 271.699 179.891 263.898C176.075 259.922 177.705 252.032 183.492 250.488C190.657 248.575 199.061 257.212 207.767 254.679C208.778 254.388 209.714 254.894 209.385 253.349C203.357 249.88 198.909 243.333 192.78 240.167C185.615 236.457 176.416 236.115 168.821 233.607C164.651 232.227 154.845 228.377 159.887 223.11C164.032 218.791 170.931 221.223 172.966 219.83C176.315 217.538 167.823 209.674 165.738 208.357C160.481 205.014 145.001 203.076 143.346 196.491C141.753 190.172 148.198 188.298 153.152 188.919C156.045 189.286 158.636 191.008 161.277 191.971C162.098 192.274 163.21 192.692 163.236 191.464C163.299 188.805 153.733 178.902 154.807 171.823C155.856 164.896 165.422 165.327 169.605 169.443C173.509 173.305 176.441 190.008 178.513 191.084C179.878 191.793 179.613 189.982 179.815 189.438C181.053 186.044 183.164 177.775 188.016 178.535C196.458 179.864 191.769 199.429 192.288 205.609C192.932 213.384 197.026 219.247 202.308 224.642C203.901 226.263 207.54 230.404 209.221 227.086C214.149 217.398 198.871 198.885 211.091 192.439C214.718 190.527 217.991 191.109 220.429 194.554C224.562 200.379 222.274 213.929 222.742 221.311C223.69 236.165 229.97 247.233 243.593 253.704C247.422 241.902 235.126 230.391 236.162 219.032C236.819 211.877 246.714 212.992 250.303 218.297C253.5 223.021 253.234 233.278 254.966 239.711C258.681 253.527 267.994 266.114 281.124 272.395C282.021 272.826 282.653 273.357 283.777 273.091C278.268 241.636 263.546 210.94 237.603 191.527C223.146 180.713 214.086 181.435 198.378 176.42C193.147 174.748 188.042 170.076 193.387 164.998C196.546 161.997 206.314 163.389 206.403 161.655C206.655 156.817 190.266 150.663 186.727 147.839C173.724 137.455 182.785 125.146 194.524 134.808C197.747 137.455 199.389 141.621 203.8 142.647C205.796 142.242 204.09 129.882 212.923 133.517C220.556 136.657 216.853 153.677 220.657 160.794C222.35 163.959 233.117 173.837 236.238 169.911C238.209 167.442 232.498 157.083 231.36 153.791C226.381 139.405 224.549 123.285 214.225 111.318C210.168 106.607 198.985 101.871 202.789 94.6532C204.861 90.7022 209.916 90.6009 213.719 91.7026C221.655 94.02 224.006 106.24 229.439 108.038C233.104 109.254 232.611 105.442 232.472 102.732C232.118 96.0335 225.055 75.5949 236.579 74.8351C251.162 73.8601 242.961 104.771 245.842 106.861C246.727 107.506 247.51 106.316 247.876 105.556C250.101 100.972 254.17 87.777 261.461 89.2966C268.752 90.8162 266.2 98.2116 263.811 102.884C258.453 113.344 248.331 118.739 246.764 132.035C246.36 135.505 249.582 153.12 253.563 152.296C259.641 151.043 258.403 122.107 272.063 124.918C288.428 128.287 269.056 153.601 266.086 161.085C259.565 177.534 264.721 185.879 274.97 198.796C276.044 200.151 282.451 207.078 283.411 207.483C284.498 207.952 284.434 207.204 284.7 206.571C286.229 202.937 286.469 191.844 285.938 187.792C285.117 181.523 268.55 158.463 282.703 157.564C293.798 156.855 291.321 176.015 297.147 181.815C301.077 183.651 303.187 167.188 303.187 164.63C303.187 153.12 296.755 149.308 293.849 140.38C290.184 129.148 300.407 125.26 307.459 134.188C309.582 136.885 314.358 148.827 315.066 149.308C316.797 150.486 318.832 147.396 319.312 145.8C321.713 137.797 319.375 128.679 315.622 121.537C312.715 116.016 303.983 105.822 302.72 100.896C301.759 97.1352 303.541 92.0699 307.977 91.8926C315.774 91.576 316.696 103.872 321.713 107.595C321.789 102.34 325.516 90.3857 330.761 88.7141C347.113 83.4842 334.981 111.66 333.831 118.625C333.136 122.854 332.644 127.147 332.884 131.453C335.184 127.818 344.156 125.843 346.076 123.817C347.997 121.791 346.177 114.129 352.711 109.963C358.524 106.253 363.755 112.622 363.338 118.321C362.706 127.097 347.669 137.164 341.78 143.736C337.863 148.092 318.314 174.141 317.416 178.218C317.126 179.522 317.214 180.839 317.252 182.144C324.986 182.384 329.143 174.039 334.703 170.937C346.329 164.441 352.496 176.179 343.941 184.676C333.301 195.25 317.201 192.553 308.166 206.976C301.797 217.158 297.387 233.202 304.224 244.004C305.626 244.004 312.539 233.443 313.322 231.518C315.559 226.022 314.674 216.385 321.675 214.549C327.197 213.106 331.696 216.411 331.86 222.134C332.075 230.074 318.01 242.117 315.218 251.298C313.41 257.212 312.88 267.988 313.6 274.117C314.409 281.044 318.933 288.262 319.476 295.442C321.637 297.456 323.014 286.894 323.09 286.033C323.735 278.815 320.297 257.946 331.064 257.478C339.354 257.123 338.532 267.684 338.052 273.446C336.953 286.78 331.19 301.28 333.048 315.007C333.806 320.579 341.413 337.776 344.345 343.195C344.787 344.019 345.204 345.209 346.228 345.399C349.514 342.942 338.911 314.007 353.861 318.008C364.614 320.883 360.255 347.653 361.114 356.201C361.973 364.748 371.931 377.792 379.197 381.312C380.145 381.768 383.443 383.123 384.126 382.654C387.158 362.798 380.575 334.318 366.687 319.312C359.484 311.525 341.616 304.332 343.322 291.428C343.953 286.641 347.808 284.552 352.395 285.932C355.655 286.907 362.529 298.95 365.941 302.166C366.75 302.926 371.072 306.725 370.756 304.066C369.378 292.644 359.269 276.523 352.155 267.532C346.948 260.947 330.129 247.119 337.395 237.799C341.186 232.924 346.367 235.684 349.514 239.61C351.485 242.066 357.854 255.122 359.004 255.793C359.522 256.097 361 256.287 361.101 255.528C361.771 250.703 358.675 237.824 356.767 233.076C352.369 222.122 339.846 218.943 337.622 206.787C335.057 192.857 347.277 191.54 352.534 202.266C353.532 202.266 357.298 188.273 357.412 186.272C357.942 176.914 350.613 166.163 352.496 158.248C354.581 149.473 362.593 157.488 364.463 162.756C365.044 164.39 365.651 173.596 367.976 170.012C369.303 167.948 371.565 163.377 372.386 161.034C374.408 155.323 373.258 145.737 380.271 145.015C388.258 144.192 389.825 156.298 387.879 162.022C393.376 163.377 400.389 156.095 404.407 162.224C410.006 170.772 396.13 175.28 390.153 176.597C387.057 177.281 378.351 177.61 376.303 179.117C373.839 180.915 368.949 192.021 370.036 195.567C372.399 198.011 378.085 184.55 383.835 188.07C392.731 193.503 379.121 202.962 376.392 206.799C371.249 214.055 371.388 222.73 374.875 230.606C382.938 228.175 380.069 214.79 386.855 211.32C393.641 207.85 398.114 213.751 397.47 220.45C396.737 228.01 386.122 240.522 383.203 249.398C379.804 259.744 380.777 273.864 383.772 284.273C384.176 285.679 386.4 291.833 387.146 292.454C387.234 292.53 388.713 292.732 388.624 292.086C389.635 285.223 388.725 269.596 399.062 271.952C409.917 274.421 401.337 294.72 400.124 301.381C398.822 308.511 399.012 316.311 401.438 323.225C402.183 325.353 406.505 334.876 407.579 336.446C408.388 337.624 408.856 336.927 409.311 335.927C410.195 319.034 418.775 296.924 415.957 280.335C414.049 269.077 394.298 264.734 392.491 256.895C390.419 247.892 400.92 249.335 406.467 251.463C407.036 250.867 403.207 242.269 402.929 240.484C402.285 236.305 401.88 225.566 406.998 224.047C418.283 220.691 417.727 238.888 419.344 245.663C420.342 249.867 422.68 253.742 422.844 258.174C424.424 259.871 427.469 252.577 427.722 251.513C430.907 238.065 428.253 227.098 420.481 216.183C416.109 210.041 403.232 199.379 401.615 193.351C398.873 183.094 410.979 177.61 417.954 187.412C419.774 189.957 424.133 203.633 428.822 200.455C431.564 198.593 428.556 183.195 427.823 179.763C424.942 166.479 419.433 155.931 408.211 147.991C399.846 142.077 374.939 133.124 377.479 119.929C378.54 114.383 388.232 114.674 392.289 116.979C394.665 118.334 396.206 121.778 398.279 123.652C401.741 126.78 413.923 132.605 410.359 123.462C406.025 112.331 396.813 107.24 390.09 99.0473C385.566 93.5388 379.791 78.6088 390.646 77.1779C400.654 75.8609 400.604 95.1977 409.462 98.2875C412.407 99.3133 409.942 90.335 409.69 89.094C406.467 73.6448 403.409 72.2265 396.206 60.1077C386.135 43.1516 404.193 38.6815 413.493 50.9902C415.515 53.6748 417.246 57.803 418.384 60.9942C420.368 66.5027 420.924 72.3785 423.211 77.7604C427.495 77.6717 426.686 50.9269 438.274 55.9795C444.011 58.4742 442.04 66.5407 440.308 71.0615C436.062 82.0785 427.027 88.6381 425.827 102.023C425.094 110.166 428.999 124.842 433.105 131.985C433.813 133.213 436.113 135.897 437.731 134.872C445.009 130.237 431.804 97.4644 446.273 97.5024C452.301 97.5151 451.593 104.847 451.846 108.735C452.124 112.939 454.158 109.317 454.967 107.38C457.406 101.479 455.586 95.9828 456.382 90.1577C457.709 80.3563 468.223 79.1533 472.09 88.4608C479.103 105.341 462.334 120.233 454.714 133.213C450.001 141.229 444.542 154.753 449.268 163.529C450.19 163.744 461.563 152.195 463.042 150.511C465.569 147.624 470.295 142.039 471.041 138.392C472.128 133.048 468.387 123.449 474.895 121.373C480.544 119.562 479.457 124.83 483.109 127.008C483.855 124.095 485.636 121.715 486.47 118.815C488.227 112.686 487.203 99.7058 495.468 98.7054C500.472 98.0976 504.768 103.467 505.375 108.064C506.765 118.675 498.576 126.273 493.547 134.454C499.815 132.099 513.21 131.149 506.815 141.419C502.228 148.776 495.202 148.789 488.429 152.069C468.501 161.731 453.653 185.246 451.909 207.154C451.644 210.484 451.429 229.479 452.288 231.353C453.653 234.342 455.991 230.809 457.254 228.909C461.298 222.793 461.298 216.36 463.598 209.914C465.455 204.722 469.676 197.656 475.982 200.911C485.219 205.66 472.823 221.767 472.734 229.137C485.219 228.238 484.891 235.722 476.475 242.206C473.012 244.865 468.817 245.713 465.367 248.208C451.783 258.035 443.253 287.528 442.987 303.673C444.58 304.028 444.668 302.85 445.338 301.938C448.914 297.05 458.328 280.272 465.177 289.997C467.932 293.91 466.289 297.62 464.116 301.369C458.063 311.854 444.643 320.123 441.092 333.457C437.187 348.083 440.789 362.748 445.224 376.728C446.766 377.931 459.301 359.062 460.224 357.112C467.389 341.98 456.622 337.244 458.644 324.226C459.693 317.489 467.528 315.21 470.637 321.794L474.2 330.507C479.444 319.123 483.753 306.662 480.544 293.986C478.231 284.856 470.7 281.639 467.907 273.104C465.771 266.545 466.808 254.603 475.666 260.859C479.116 263.29 479.368 268.216 482.389 270.888C483.918 262.898 480.367 242.548 491.133 240.471C498.728 239.002 499.271 248.867 498.791 254.147C497.603 266.899 491.942 270.837 497.073 286.388C497.313 287.11 496.946 288.629 498.374 288.034C501.95 286.54 507.447 271.154 508.623 266.988C511.478 256.87 511.099 247.676 505.312 238.609C499.537 229.542 483.791 226.757 486.129 214.638C487.481 207.686 498.5 218.285 497.957 210.256C497.414 202.228 491.108 201.734 485.421 198.163C479.735 194.592 471.685 187.716 474.769 180.143C478.484 171.013 489.175 181.371 493.534 184.423C493.812 179.434 491.639 168.898 497.452 166.353C505.438 162.858 508.458 172.938 509.077 178.927C509.911 186.943 507.056 197.669 510.114 205.47C511.845 209.889 514.739 204.254 515.535 201.607C517.847 193.908 512.894 177.167 524.343 178.509C540.442 180.409 524.81 206.951 522.536 214.587C519.718 224.097 519.793 233.012 525.354 241.611C525.821 242.332 525.278 242.953 527.009 242.573C528.551 238.141 531.23 232.746 531.495 228.01C531.874 221.565 527.615 215.17 529.827 208.483C531.47 203.545 536.095 204.621 538.331 208.483C539.09 209.788 540.075 215.486 541.882 214.233C548.668 205.394 549.376 195.314 545.446 184.968C540.24 171.253 525.72 168.898 520.172 158.109C516.761 151.486 520.855 144.192 528.475 146.813C532.481 148.194 539.911 158.463 543.373 161.705C559.131 176.458 552.573 144.205 547.051 139.38C541.668 134.669 512.818 136.024 519.389 121.981C522.851 114.56 533.984 122.069 538.925 123.298C536.032 114.851 519.755 108.216 524.001 97.5277C525.657 93.3742 529.663 92.8423 533.517 94.0707C544.713 97.6164 548.656 114.066 554.671 122.804C555.138 123.475 557.324 126.375 558.26 125.539C558.626 121.449 560.054 116.662 559.687 112.584C558.98 104.898 548.175 85.0797 557.236 79.4066C568.28 72.4924 566.107 95.4256 569.885 96.388C572.855 97.1478 575.787 88.1822 577.278 86.0801C584.026 76.608 595.993 78.4315 588.626 91.5C587.349 93.7541 575.686 105.176 583.167 105.48C587.248 105.645 597.497 99.8071 595.424 110.242C593.996 117.46 576.419 118.182 571.844 130.592C566.17 145.977 575.976 157.78 573.664 173.419C573.285 176.015 568.419 188.678 573.373 187.31C573.954 187.146 579.894 181.27 580.563 180.333C586.793 171.684 582.661 156.488 585.252 146.269C586.705 140.52 590.205 134.011 597.168 136.125C602.564 137.772 598.406 148.181 597.876 151.448C597.143 155.981 597.282 160.667 598.798 165.036C599.101 165.909 600.378 168.455 601.389 168.771C603.208 163.731 607.972 159.907 608.769 154.171C609.843 146.433 602.438 121.803 613.735 120.334C627.243 118.574 620.116 145.863 622.972 153.12C625.626 155.374 632.462 142.103 634.244 140.19C637.087 137.164 643.393 133.213 646.679 137.924C653.048 147.054 638.452 160.3 631.894 165.428C631.085 167.315 636.734 167.277 637.846 167.644C643.987 169.645 643.431 173.33 638.515 176.534C630.971 181.473 625.133 179.991 617.147 181.967C612.282 183.17 600.403 187.551 596.018 189.856C594.426 190.692 592.922 191.616 591.722 192.996C591.722 193.946 601.174 195.592 602.488 195.592C607.088 195.592 621.519 190.35 621.494 199.708C621.468 210.446 598.95 208.977 592.088 209.775C585.984 210.497 577.72 212.295 572.413 215.398C563.807 220.425 546.76 248.297 541.263 257.984C540.783 258.833 538.42 262.999 538.887 263.429C548.352 264.164 556.137 246.587 563.213 244.954C571.162 243.13 575.167 249.652 571.907 256.642C566.6 268.001 549.212 271.787 539.671 278.018C530.724 283.855 519.996 295.29 514.941 304.674C512.729 308.789 496.39 343.854 497.97 345.424C500.118 345.032 502.506 343.677 504.288 342.448C508.521 339.51 519.086 329.367 522.081 325.239C528.058 316.97 530.724 296.873 537.75 291.744C540.063 290.048 543.828 289.44 545.193 292.53C548.201 299.317 538.774 312.12 537.712 319.325C536.802 325.505 543.146 319.73 545.231 317.869C551.183 312.55 554.191 306.459 555.808 298.646C557.16 292.112 556.541 272.572 567.497 274.624C575.837 276.181 568.104 292.466 569.392 297.722C576.381 292.124 582.092 285.907 585.037 277.245C587.981 268.583 588.032 262.872 586.275 253.59C584.86 246.081 578.643 233.734 585.479 227.757C594.78 219.627 599.026 236.457 597.661 243.307C598.975 243.599 599.139 242.928 599.771 242.079C602.463 238.483 603.638 232.949 607.783 229.239C614.24 223.451 619.522 229.53 618.309 236.811C616.464 247.892 601.742 258.845 604.358 272.395C605.647 273.775 617.298 264.784 618.84 263.442C623.099 259.719 631.616 250.234 633.157 244.979C637.542 230.011 628.141 214.992 633.966 200.316C635.508 196.441 639.248 191.35 644 192.781C650.861 194.845 645.958 208.775 646.754 213.878C646.666 214.524 648.132 214.321 648.233 214.245C648.562 213.967 651.695 208.23 652.1 207.306C655.297 199.834 653.818 181.435 664.256 180.662C675.099 179.864 671.358 193.034 669.096 198.986C664.345 211.523 654.779 222.198 652.277 235.849C651.733 238.787 653.882 238.407 655.727 237.026C659.897 233.886 668.629 224.148 672.041 219.83C678.877 211.155 681.644 201.721 687.369 192.705C690.098 188.412 691.804 184.74 697.706 185.145C705.035 185.652 702.533 193.819 700.448 198.365C699.197 201.088 690.263 212.346 692.133 214.258C701.8 215.334 707.524 202.595 716.383 202.392C722.853 202.24 725.165 208.078 723.004 213.536C719.125 223.337 695.33 228.175 686.017 233.113C681.746 235.38 670.423 242.535 682.2 243.282C688.14 243.662 693.675 238.559 699.235 241.813C705.111 245.245 701.863 251.931 697.301 254.856C690.389 259.301 680.242 256.882 672.382 257.465C652.075 258.997 636.607 278.853 619.977 288.807C619.75 289.858 621.405 289.82 622.113 289.845C632.639 290.314 642.445 287.376 651.152 281.639C656.902 277.866 668.831 264.354 675.427 271.61C684.791 281.918 661.944 293.403 654.197 295.505C652.049 298.405 670.549 302.116 662.753 308.916C655.663 315.096 635.988 306.89 626.953 306.016C612.446 304.61 592.315 312.842 580.627 321.288C579.78 321.896 572.817 326.632 573.853 327.544C579.679 327.86 585.454 327.164 591.115 325.834C596.776 324.504 607.758 318.692 612.193 318.553C615.125 318.464 619.472 320.933 620.382 323.77C623.136 332.343 607.972 337.826 601.376 337.978C602.64 341.802 607.442 341.423 606.582 346.513C605.192 354.732 587.387 345.487 582.648 344.424C550.677 337.282 522.447 360.088 503.934 383.832C502.974 385.073 498.235 390.467 499.461 391.632C516.47 390.518 534.983 380.805 546.305 368.129C549.212 364.888 554.772 355.403 558.765 354.516C567.004 352.668 567.156 360.038 564.843 365.825C563.744 368.573 558.449 374.41 558.323 375.715C557.792 381.401 570.745 372.486 572.286 371.055C576.204 367.395 585.138 349.654 591.368 355.821C596.776 361.177 587.678 371.093 588.739 372.245C597.686 370.308 611.308 364.368 617.741 357.708C626.991 348.134 628.735 337.041 634.244 326.543C641.725 312.272 657.395 319.794 648.789 335.901C648.094 337.193 641.447 344.69 642.294 345.411C646.274 345.905 649.421 343.119 652.643 341.258C666.43 333.267 676.008 325.353 679.155 308.941C680.924 299.735 680.305 278.182 692.095 275.675C697.478 274.535 699.311 280.575 698.514 285.058C697.289 291.985 691.463 299.039 693.637 307.396C694.483 308.346 699.917 302.204 700.625 301.356C710.924 288.908 706.501 282.88 706.994 268.989C707.613 251.095 726.239 249.234 724.129 271.977C723.737 276.181 721.69 280.386 722.651 285.02C730.397 284.02 732.495 268.533 740.228 268.115C743.615 267.925 747.128 270.242 747.76 273.636C750.995 291.162 721.425 302.154 712.238 312.981C711.935 314.602 712.958 314.121 714.083 314.083C718.948 313.905 729.449 308.384 732.975 314.551C735.489 318.945 731.206 322.314 727.276 323.567C721.968 325.264 714.5 325.011 708.51 326.379C701.674 327.936 693.536 331.254 688.077 335.724C687.04 336.573 681.746 342.132 681.746 342.79C681.771 345.513 698.818 345.614 701.37 345.323C704.365 344.968 709.344 343.208 712.225 342.03C718.544 339.447 730.536 329.164 736.45 335.673C745.864 346.045 720.401 351.642 720.439 353.972C722.398 355.491 725.431 357.201 727.819 357.746C733.114 358.949 741.125 356.555 744.133 362.266C747.798 369.218 738.345 373.942 732.608 374.41C722.486 375.221 714.5 363.064 704.062 364.039C705.503 367.965 710.962 371.346 711.48 375.664C711.884 379.121 710.368 381.844 706.64 381.983C700.309 382.224 695.052 374.069 690.68 370.371C671.055 353.795 654.134 365.002 634.143 373.739C633.878 375.056 634.472 375.234 635.419 375.803C641.131 379.21 651.733 380.818 658.317 380.425C662.993 380.147 681.303 375.183 682.504 382.325C683.578 388.695 675.882 388.34 671.699 388.631C670.992 388.682 669.096 388.315 669.854 389.733C670.196 390.379 681.72 395.761 683.072 395.938C685.928 396.318 689.694 395.026 693.283 395.343C698.375 395.799 704.656 399.37 704.062 405.334C703.847 407.5 700.208 410.995 698.489 410.995H685.84H685.815Z" fill="#76CABB"/>
<path d="M163.981 607.048C146.656 598.323 132.832 578.973 128.649 560.092C125.123 544.212 130.001 520.823 136.332 505.919C155.919 459.824 210.333 418.744 254.473 397.685C259.755 395.165 282.349 384.528 286.696 386.023C290.917 387.479 302.025 400.611 305.31 404.676C318.68 421.214 321.877 433.409 331.241 450.998C351.99 489.963 439.095 496.763 474.2 477.717C497.148 465.269 501.672 444.54 519.212 428.9C526.491 422.404 548.15 409.361 557.779 410.273C562.341 410.703 581.638 420.15 587.008 422.784C648.473 452.809 720.919 506.691 707.537 584.836C702.432 614.658 677.626 649.634 646.009 654.003C645.655 654.054 645.339 654.383 645.263 654.75C644.796 654.826 644.227 654.661 643.772 654.75C645.883 650.28 646.514 646.798 645.921 641.783C645.503 638.225 641.927 627.651 637.757 633.45C635.381 636.756 639.008 645.037 639.147 649.153C639.21 650.938 638.01 653.395 638.553 655.485C637.024 655.915 632.841 662.918 631.034 664.729C608.516 687.257 562.177 693.69 531.811 691.258C526.213 690.815 520.198 688.599 515.067 688.282C517.822 684.357 522.637 667.198 514.056 668.844C512.868 669.072 510.859 685.864 511.352 688.282C510.265 688.561 504.756 693.208 502.822 694.272C458.139 718.776 362.681 713.571 319.931 685.927C318.175 684.787 314.333 680.457 312.741 680.089C312.741 677.848 311.427 675.961 311.237 673.745C310.972 670.491 314.055 662.031 308.748 662.411C305.209 662.665 304.236 670.643 304.729 673.568C305.159 676.113 307.56 677.861 306.776 680.077C299.889 679.899 293.179 681.115 286.292 680.849C252.451 679.57 204.823 656.004 181.786 631.26C177.616 626.777 169.908 617.457 169.162 611.48C168.884 609.213 168.998 605.275 169.162 602.919C169.327 600.564 173.231 586.634 167.671 589.446C163.375 591.624 163.236 602.831 163.943 607.01L163.981 607.048ZM278.356 426.089C274.338 422.062 251.364 429.47 255.85 438.588C257.67 442.273 267.274 438.854 270.256 437.372C273.238 435.891 282.438 430.179 278.356 426.089ZM556.958 443.995C550.918 450.403 571.97 460.837 578.744 458.026C581.713 456.798 581.89 455.202 580.462 452.479C577.771 447.376 561.672 438.993 556.958 444.008V443.995ZM218.104 443.97C213.985 444.565 204.343 450.162 204.305 454.759C204.229 462.344 228.884 455.721 224.435 446.211C223.26 443.704 220.493 443.615 218.104 443.957V443.97ZM293.963 455.164C288.68 456.089 278.521 462.281 277.939 468.207C276.764 480.187 308.47 465.763 301.216 456.481C299.523 454.316 296.401 454.734 293.963 455.164ZM255.256 464.889C249.178 457.342 226.824 472.994 227.165 481.428C227.392 487.215 233.357 487.392 237.628 485.911C243.075 484.024 260.829 471.804 255.256 464.889ZM535.703 467.815C534.035 468.309 532.064 471.284 532.329 473.07C533.062 477.958 549.098 489.19 553.748 490.419C562.152 492.622 565.235 486.987 560.117 480.313C555.669 474.526 543.298 465.561 535.703 467.815ZM611.612 467.777C604.068 469.081 612.168 478.351 615.567 480.643C619.763 483.467 634.636 488.937 631.729 479.351C630.668 475.831 615.327 467.131 611.612 467.764V467.777ZM189.823 490.925C183.707 491.533 169.832 504.855 170.148 511.148C170.287 513.896 173.206 516.885 176.049 516.695C182.292 516.29 194.499 506.02 195.788 499.916C196.748 495.383 195.333 490.381 189.811 490.925H189.823ZM325.946 493.179C320.487 494.205 314.952 501.828 312.374 506.412C310.251 510.161 305.058 520.405 310.706 523.014C318.731 526.724 330.154 513.529 333.25 507.198C337.054 499.422 337.092 491.09 325.959 493.179H325.946ZM590.016 493.901C584.456 495.205 586.477 502.753 588.6 506.184C591.368 510.642 604.017 519.886 609.16 521.355C616.553 523.47 621.393 520.279 617.88 512.617C614.367 504.956 598.457 491.926 590.016 493.901ZM504.263 521.76C511.289 527.953 522.245 529.814 519.06 516.986C517.746 511.693 508.016 498.852 502.683 497.637C494.217 495.699 492.763 500.6 494.634 507.932C495.468 511.199 501.622 519.43 504.276 521.76H504.263ZM273.858 501.36C268.184 502.664 258.441 514.504 256.798 520.038C255.32 525.04 256.406 531.334 262.75 529.776C269.839 528.029 282.842 514.365 282.299 506.792C281.958 502.018 278.217 500.347 273.858 501.347V501.36ZM386.211 510.313C374.901 512.668 369.833 534.259 372.614 543.718C375.457 553.368 386.312 550.62 391.19 543.642C396.876 535.525 402.108 506.995 386.198 510.313H386.211ZM444.971 510.287C443.215 510.68 439.588 513.934 439.247 515.745C437.718 523.748 441.812 546.796 451.113 549.303C456.344 550.709 460.426 547.505 461.374 542.389C462.941 533.917 457.229 507.565 444.971 510.275V510.287ZM648.776 513.276C641.586 515.429 651.809 527.991 655.019 530.574C658.709 533.55 670.069 539.793 668.768 530.232C667.934 524.065 655.853 511.161 648.776 513.276ZM551.347 519.987C545.787 521.216 546.874 528.067 548.681 532.03C551.688 538.653 561.621 552.19 569.241 553.241C573.108 553.773 576.216 549.999 576.141 546.327C575.938 537.02 561.874 517.657 551.36 519.975L551.347 519.987ZM222.565 522.242C214.452 523.558 197.924 542.857 202.612 550.823C205.48 555.685 212.987 552.253 216.398 549.632C220.644 546.378 229.92 534.348 230.21 529.13C230.45 524.736 226.963 521.532 222.553 522.242H222.565ZM328.928 548.328C322.686 549.62 315.521 563.828 314.586 569.741C313.701 575.339 313.158 586.748 321.877 585.305C328.271 584.241 336.94 566.93 337.875 561.029C338.937 554.381 337.344 546.593 328.928 548.328ZM495.544 549.822C485.245 552.165 493.85 572.565 497.388 578.213C501.243 584.368 510.417 591.814 515.851 582.848C519.49 576.858 513.589 564.904 510.051 559.548C506.714 554.508 502.279 548.277 495.531 549.809L495.544 549.822ZM607.151 555.052C601.894 556.445 603.057 561.84 604.118 565.917C605.925 572.831 615.883 591.776 624.994 587.85C634.623 583.696 623.756 566.259 619.219 561.219C616.098 557.762 612.37 553.672 607.151 555.052ZM251.251 597.145C258.833 606.896 272.152 587.103 275.425 581.189C277.889 576.757 281.718 569.412 278.862 564.613C274.098 556.635 263.773 566.474 259.97 570.919C255.774 575.833 246.739 591.345 251.251 597.145ZM417.436 563.967C414.706 564.79 411.56 571.375 411.143 574.06C409.968 581.48 409.437 604.439 421.012 603.388C430.742 602.501 430.288 581.417 429.567 574.63C428.973 569.032 423.716 562.08 417.449 563.98L417.436 563.967ZM571.44 615.063C578.504 608.542 564.098 584.836 558.26 579.821C552.889 575.212 546.381 576.466 546.406 584.228C546.432 593.726 555.227 616.811 566.802 616.634C567.712 616.621 570.82 615.633 571.44 615.063ZM368.38 591.548C359.636 592.839 355.946 613.556 356.666 620.838C357.197 626.144 360.444 632.539 366.611 629.322C371.249 626.904 376.139 612.505 376.657 607.339C377.226 601.653 376.657 590.319 368.393 591.548H368.38ZM464.306 596.778C452.844 599.374 460.856 627.018 466.012 633.526C473.682 643.214 480.468 631.956 480.177 623.067C479.925 615.418 474.845 594.41 464.318 596.79L464.306 596.778Z" fill="#00A69A"/>
<path d="M386.211 510.313C402.12 506.995 396.889 535.525 391.202 543.642C386.324 550.62 375.457 553.368 372.626 543.718C369.834 534.246 374.901 512.668 386.223 510.313H386.211Z" fill="#76CABB"/>
<path d="M444.971 510.287C457.216 507.577 462.928 533.917 461.374 542.401C460.426 547.505 456.344 550.721 451.113 549.316C441.812 546.821 437.718 523.761 439.247 515.758C439.588 513.934 443.228 510.68 444.971 510.3V510.287Z" fill="#76CABB"/>
<path d="M590.016 493.901C598.47 491.925 614.468 505.146 617.88 512.617C621.292 520.089 616.553 523.47 609.161 521.355C604.017 519.886 591.368 510.642 588.601 506.184C586.478 502.753 584.456 495.205 590.016 493.901Z" fill="#76CABB"/>
<path d="M325.946 493.179C337.079 491.09 337.054 499.422 333.238 507.198C330.142 513.529 318.718 526.712 310.694 523.014C305.045 520.405 310.251 510.161 312.362 506.412C314.94 501.828 320.487 494.205 325.934 493.179H325.946Z" fill="#76CABB"/>
<path d="M504.263 521.76C501.622 519.43 495.455 511.199 494.621 507.932C492.751 500.6 494.204 495.699 502.671 497.637C508.003 498.852 517.734 511.706 519.048 516.986C522.245 529.801 511.289 527.952 504.25 521.76H504.263Z" fill="#76CABB"/>
<path d="M273.858 501.36C278.23 500.347 281.958 502.031 282.299 506.805C282.842 514.378 269.839 528.041 262.75 529.789C256.406 531.347 255.32 525.053 256.798 520.051C258.441 514.504 268.171 502.677 273.858 501.373V501.36Z" fill="#76CABB"/>
<path d="M255.256 464.889C260.829 471.803 243.075 484.036 237.628 485.91C233.357 487.392 227.392 487.215 227.165 481.428C226.824 472.994 249.178 457.329 255.256 464.889Z" fill="#76CABB"/>
<path d="M535.703 467.815C543.298 465.561 555.669 474.526 560.117 480.313C565.248 486.987 562.164 492.61 553.748 490.419C549.098 489.203 533.062 477.958 532.329 473.07C532.064 471.285 534.035 468.309 535.703 467.815Z" fill="#76CABB"/>
<path d="M189.824 490.925C195.333 490.381 196.761 495.383 195.801 499.916C194.512 506.02 182.292 516.302 176.062 516.695C173.219 516.872 170.3 513.896 170.161 511.148C169.845 504.855 183.72 491.52 189.836 490.925H189.824Z" fill="#76CABB"/>
<path d="M648.777 513.276C655.853 511.161 667.934 524.065 668.768 530.232C670.069 539.793 658.709 533.55 655.019 530.574C651.809 527.991 641.599 515.416 648.777 513.276Z" fill="#76CABB"/>
<path d="M293.963 455.164C296.402 454.733 299.51 454.316 301.216 456.481C308.47 465.763 276.777 480.187 277.939 468.207C278.521 462.281 288.693 456.076 293.963 455.164Z" fill="#76CABB"/>
<path d="M556.958 443.995C561.672 438.993 577.771 447.364 580.462 452.467C581.903 455.202 581.713 456.785 578.744 458.014C571.958 460.825 550.918 450.39 556.958 443.983V443.995Z" fill="#76CABB"/>
<path d="M278.356 426.089C282.438 430.167 273.277 435.878 270.256 437.372C267.236 438.866 257.658 442.285 255.85 438.588C251.364 429.47 274.338 422.062 278.356 426.089Z" fill="#76CABB"/>
<path d="M611.612 467.777C615.34 467.131 630.668 475.843 631.73 479.364C634.636 488.95 619.75 483.479 615.567 480.655C612.168 478.363 604.068 469.081 611.612 467.789V467.777Z" fill="#76CABB"/>
<path d="M218.104 443.97C220.493 443.628 223.26 443.717 224.435 446.224C228.884 455.734 204.229 462.344 204.305 454.772C204.356 450.175 213.985 444.578 218.104 443.982V443.97Z" fill="#76CABB"/>
</g>
</g>
<defs>
<clipPath id="clip0_504_11395">
<rect width="669" height="516" fill="white"/>
</clipPath>
<clipPath id="clip1_504_11395">
<rect width="647" height="666" fill="white" transform="translate(101 44)"/>
</clipPath>
</defs>
</svg>
