<svg width="669" height="516" viewBox="0 0 669 516" fill="none" xmlns="http://www.w3.org/2000/svg">
<g clip-path="url(#clip0_504_7976)">
<rect width="669" height="516" fill="#D9D9D9" fill-opacity="0.6"/>
<g clip-path="url(#clip1_504_7976)">
<path d="M524.583 54.113C507.466 56.6171 485.666 68.7718 470.69 77.6711C449.873 90.0376 438.211 99.9578 421.288 116.947C408.971 129.295 400.606 139.176 389.85 152.853C381.234 163.813 373.312 176.796 363.983 187.044C344.072 208.945 337.461 194.402 316.085 202.011C287.134 212.316 273.93 249.628 282.354 277.655C286.767 292.352 296.983 294.606 281.505 309.997C260.862 330.511 218.688 344.342 189.949 342.512C181.295 341.953 172.467 339.199 164.467 336.001C160.767 334.518 156.892 330.376 152.883 330.165C139.179 318.569 128.905 304.931 123.682 287.517C119.036 272.049 117.88 251.901 119.19 235.894C120.867 215.341 124.742 197.735 123.682 176.411C122.564 154.143 117.841 132.82 104.599 114.694C93.8824 99.9964 62.946 75.4751 43.9601 78.7883C34.3611 76.5153 22.1022 76.7272 12.2719 77.9793C-3.16734 79.9248 -15.8696 85.1449 -29.0344 92.2528C-64.9631 111.689 -82.7732 145.36 -69.7625 186.273C-66.4472 196.675 -59.0071 213.857 -45.3411 211.199C-32.8702 208.772 -42.8546 190.723 -43.6256 183.731C-45.9386 162.85 -33.8146 142.393 -15.5419 132.666C-6.02005 127.58 3.96442 125.461 14.7777 125.924C27.0559 126.463 45.7334 133.532 54.0795 142.759C65.7023 155.627 65.5288 175.159 64.1796 191.012C62.4255 211.719 58.4742 232.137 56.3154 252.729C53.347 281.276 53.2506 296.455 64.1796 323.423C75.2242 350.66 88.0806 365.839 112.463 381.788C129.136 392.71 147.081 401.571 167.494 403.112C184.109 404.364 201.63 402.534 217.493 397.507C218.765 397.121 218.765 397.738 219.131 398.624C207.007 408.814 193.65 417.713 178.712 423.318C168.168 427.267 162.154 426.824 152.517 428.943C151.63 429.136 152.266 430.927 150.127 431.254C144.499 432.141 145.077 429.136 144.248 428.943C138.311 427.537 127.845 428.481 120.308 426.67C103.944 422.721 89.0251 412.473 75.3976 403.112C53.8096 388.26 36.2115 372.061 11.3853 361.582C-11.2436 352.047 -30.9427 350.506 -54.863 357.094C-81.2504 364.356 -97.1909 378.629 -109.893 401.975C-123.058 426.246 -126.065 443.178 -119.993 470.454C-115.849 489.081 -108.679 501.043 -92.5071 512.003C-76.8557 522.598 -39.8863 533.115 -47.3071 558.253C-49.3696 565.245 -56.9254 570.715 -63.8258 572.122C-70.0709 573.393 -80.3831 567.98 -85.2211 575.338C-92.5456 586.453 -78.4748 595.063 -68.8952 596.142C-22.2882 601.439 -1.14347 548.968 -27.4346 514.315C-40.8115 496.689 -69.0108 489.196 -71.69 464.848C-72.7887 454.832 -71.2853 436.609 -66.081 427.806C-62.6501 422.008 -46.7289 409.854 -40.2525 407.6C-27.5695 403.208 -10.222 408.814 0.167231 416.576C15.4716 427.999 29.8315 442.966 45.078 454.736C61.7124 467.564 75.6097 477.331 95.6171 485.036C124.665 496.246 150.879 496.246 180.967 489.524C216.51 481.588 234.474 466.871 260.688 443.505C267.704 437.264 275.28 431.659 281.467 424.436C282.334 424.281 282.141 425.456 282.026 426.111C280.31 437.9 260.804 468.431 252.824 478.294C245.519 487.309 229.617 503.123 220.249 509.711C204.733 520.633 179.849 531.285 161.846 537.757C143.843 544.229 124.742 549.912 106.816 555.71C76.2457 565.592 55.6407 569.309 27.0944 587.127C8.82172 598.53 -8.06321 613.074 -18.9536 632.009C-31.2896 653.467 -35.7807 678.297 -32.4268 702.702C-29.6319 722.986 -22.558 729.054 -15.5805 745.35C-2.64693 775.534 -13.3253 818.933 -54.0534 810.168C-66.0617 807.587 -78.2821 792.447 -85.7608 792.466C-104.458 792.524 -97.2487 813.173 -89.6544 822.188C-60.3756 856.995 -2.7433 852.738 23.5478 816.429C43.8059 788.421 41.5314 765.46 32.7227 734.139C29.2147 721.715 24.1839 710.407 23.7406 697.097C23.2973 683.787 28.0004 667.047 36.0959 656.703C43.4782 647.265 61.0377 635.765 72.0245 630.892C87.7722 623.899 111.249 617.369 128.173 612.939C148.045 607.738 167.976 604.252 187.694 598.357C217.994 589.285 232.123 581.483 256.197 562.452C273.275 548.949 284.551 538.894 298.872 522.058C316.721 501.101 329.423 479.276 342.492 455.102C343.32 453.561 343.841 452 343.802 450.228C345.749 449.958 344.862 452.771 344.92 454.138C345.633 472.534 345.152 492.625 342.665 510.828C340.583 526.046 336.227 543.825 330.31 557.964C322.6 576.379 307.045 599.609 293.244 614.075C280.966 626.943 264.736 639.81 249.451 648.864C222.967 664.563 196.753 673.751 170.848 692.628C150.705 707.306 138.292 720.039 124.799 740.881C109.707 764.188 100.956 784.722 97.853 812.711C97.5061 815.754 96.9278 818.143 96.7351 821.687C96.2532 830.49 96.446 839.794 96.7351 848.616C96.7351 848.982 96.7351 849.367 96.7351 849.733C96.7929 851.236 96.6773 852.738 96.7351 854.222C96.8315 857.284 97.7759 860.174 97.853 862.081C98.5277 878.82 99.7613 892.477 96.2147 909.255C90.6635 935.548 69.5766 956.371 41.2809 952.865C30.8145 951.575 22.6805 942.386 12.1177 949.783C-1.10492 959.068 16.2619 974.247 25.2248 979.004C89.4684 1013.18 161.75 943.292 150.647 876.682C150.532 875.969 149.568 874.987 149.529 874.428V853.104C150.628 843.897 152.074 834.131 154.02 825.058C158.165 805.719 166.935 785.185 179.849 770.064C189.467 758.795 209.667 742.884 222.524 735.275C245.365 721.753 270.576 712.642 293.263 698.234C315.95 683.825 327.418 671.825 344.92 651.098C367.472 624.362 375.567 610.647 388.713 578.151C396.616 558.58 400.972 545.616 405.559 524.293C410.147 502.969 413.674 480.316 415.659 458.627C416.045 454.408 415.409 449.978 415.679 445.74C430.289 460.938 440.524 479.681 452.937 496.593C456.002 500.773 459.761 504.549 462.845 508.594C476.954 527.124 487.632 541.321 505.52 556.846C529.96 578.054 559.143 596.046 591.987 599.494C598.522 603.385 623.502 603.385 631.848 602.845C649.157 601.728 666.813 596.508 682.946 590.517C705.44 582.138 725.139 570.504 746.554 560.371C753.088 557.289 765.463 550.682 771.669 548.987C772.787 548.679 783.928 546.733 784.583 546.733H801.43C802.162 546.733 814.421 550.663 815.462 551.222C825.389 556.5 843.893 577.419 846.899 588.264C849.906 599.108 847.555 617.658 842.408 627.54C827.393 656.395 779.013 649.692 769.105 685.019C766.291 695.017 766.021 713.547 778.647 716.591C791.272 719.634 791.137 701.258 794.664 693.745C800.37 681.61 821.861 683.998 832.848 682.515C859.794 678.875 874.713 667.124 886.201 643.258C898.499 617.735 898.422 597.471 891.81 570.311C884.467 540.126 867.948 517.108 840.153 502.969C816.541 490.949 793.353 488.772 767.159 491.739C731.596 495.784 707.098 516.26 675.082 527.644C655.768 534.521 634.913 538.277 614.443 535.503C593.896 532.73 570.457 521.923 553.804 509.692C541.853 500.908 524.274 482.435 515.62 470.415C512.42 465.966 507.601 457.49 504.922 452.482C503.65 450.113 500.932 446.164 501.568 443.486C514.772 454.061 528.804 463.269 544.05 470.666C545.573 471.398 547.424 471.186 548.175 471.532C572.153 482.551 589.289 488.503 616.679 489.485C651.778 490.757 680.691 483.456 709.893 464.791C733.042 449.978 749.522 434.259 762.668 409.796C775.813 385.333 778.338 364.163 784.005 336.849C786.877 323.018 790.154 304.025 797.478 291.967C817.698 258.701 869.663 260.762 871.649 302.6C872.439 319.223 861.375 322.344 858.657 332.341C855.515 343.899 865.828 348.926 875.793 344.958C887.223 340.412 894.374 325.753 896.88 314.427C915.731 229.402 805.574 194.864 754.823 265.038C742.313 282.336 739.133 294.124 733.485 314.408C728.474 332.418 725.582 351.527 716.639 368.266C709.546 381.538 693.567 398.624 680.71 406.425C663.382 416.923 637.997 423.164 617.816 423.261C601.182 423.338 580.307 418.618 565.041 412.03C544.474 403.17 503.573 374.507 497.077 352.586C493.762 341.356 497.193 332.438 508.103 327.66C523.773 320.784 553.302 326.813 571.768 325.638C589.674 324.482 602.203 319.223 617.816 312.173C638.324 302.908 649.986 295.376 666.1 279.62C678.359 267.638 704.033 235.239 704.284 217.902C719.492 177.817 716.793 129.564 691.716 94.102C655.691 43.2103 580.152 33.5213 524.583 54.113Z" fill="#FFFDF2"/>
<path d="M389.831 152.853L407.525 148.653C487.864 130.315 592.489 213.761 580.75 297.071C579.285 307.415 574.119 315.795 571.749 325.676C553.283 326.871 523.754 320.822 508.083 327.699C497.174 332.495 493.743 341.414 497.058 352.625C503.534 374.545 544.455 403.227 565.022 412.069C569.089 433.45 562.747 455.641 548.175 471.552C547.424 471.205 545.573 471.417 544.05 470.685C528.804 463.288 514.772 454.08 501.568 443.505C500.932 446.183 503.65 450.132 504.922 452.501C507.582 457.509 512.42 465.985 515.62 470.434C493.588 475.886 473.041 487.694 462.845 508.594C459.761 504.548 456.021 500.792 452.937 496.593C440.524 479.68 430.309 460.938 415.679 445.74C415.409 449.978 416.045 454.408 415.659 458.626C413.674 480.316 410.205 502.738 405.559 524.292C396.076 518.109 385.513 513.39 374.353 511.155C367.144 509.711 354.963 508.632 347.715 509.133C346.501 509.21 344.631 511.425 342.684 510.828C345.171 492.625 345.653 472.553 344.939 454.138C344.882 452.79 345.788 449.958 343.822 450.228C343.86 452 343.34 453.541 342.511 455.101C329.442 479.276 316.721 501.081 298.891 522.058C295.615 507.688 288.252 495.245 275.665 487.462C269.459 483.629 260.207 478.544 252.843 478.294C260.843 468.45 280.33 437.9 282.045 426.111C282.141 425.437 282.354 424.262 281.486 424.435C275.299 431.659 267.724 437.264 260.708 443.505C242.782 439.884 232.104 429.001 224.374 413.051C222.042 408.236 221.04 403.035 219.151 398.624C218.765 397.738 218.784 397.102 217.512 397.506C201.649 402.534 184.109 404.364 167.513 403.112C165.547 388.414 168.573 371.618 176.707 358.981C180.524 353.048 187.058 348.965 189.968 342.493C218.707 344.322 260.881 330.492 281.525 309.977C297.002 294.606 286.787 292.333 282.373 277.635C273.93 249.608 287.153 212.297 316.104 201.991C337.48 194.383 344.091 208.926 364.002 187.024C373.312 176.777 381.254 163.775 389.87 152.833L389.831 152.853ZM425.509 238.436C403.324 241.46 391.219 266.29 393.223 286.959C396.481 320.61 436.322 335.616 460.031 309.977C485.801 282.124 465.697 232.946 425.49 238.436H425.509Z" fill="#2BB69F"/>
<path d="M470.69 77.671C478.38 78.8075 485.878 76.3227 493.762 76.496C581.136 78.4993 673.077 174.446 667.179 262.264C666.832 267.561 663.556 274.785 666.061 279.677C649.928 295.434 638.286 302.947 617.777 312.231C643.895 233.756 580.634 149.752 508.835 123.15C479.71 112.363 451.762 111.303 421.269 116.967C438.211 99.9771 449.873 90.0569 470.67 77.6903L470.69 77.671Z" fill="#2BB69F"/>
<path d="M421.288 116.947C451.781 111.303 479.749 112.363 508.854 123.131C580.673 149.732 643.914 233.736 617.797 312.212C602.203 319.262 589.655 324.521 571.749 325.676C574.1 315.795 579.285 307.435 580.75 297.072C592.489 213.761 487.864 130.296 407.526 148.654L389.831 152.853C400.587 139.176 408.971 129.295 421.269 116.947H421.288Z" fill="#80CCB8"/>
<path d="M524.583 54.1128C573.541 46.9471 642.064 95.8933 669.897 133.898C684.45 153.777 704.592 193.246 704.245 217.96C704.014 235.316 678.32 267.696 666.062 279.677C663.536 274.804 666.813 267.561 667.179 262.264C673.078 174.446 581.136 78.4992 493.762 76.4959C485.859 76.3225 478.381 78.8074 470.69 77.6709C485.667 68.7716 507.486 56.5977 524.583 54.1128Z" fill="#80CCB8"/>
<path d="M704.264 217.96C704.611 193.246 684.469 153.758 669.916 133.898C642.083 95.9125 573.561 46.9663 524.602 54.1127C580.172 33.5211 655.691 43.2101 691.716 94.1596C716.793 129.622 719.472 177.875 704.284 217.96H704.264Z" fill="#2BB69F"/>
<path d="M614.424 535.542C610.087 553.225 606.463 570.446 597.384 586.414C595.881 589.072 590.619 594.755 589.79 596.835C589.212 598.299 590.927 598.916 591.968 599.532C559.124 596.084 529.941 578.112 505.5 556.885C516.815 536.794 532.794 519.708 553.784 509.749C570.438 521.981 593.876 532.787 614.424 535.561V535.542Z" fill="#2BB69F"/>
<path d="M680.691 406.483C701.296 417.751 709.083 442.33 709.893 464.848C680.71 483.514 651.798 490.814 616.679 489.543C628.783 469.279 628.128 444.179 617.797 423.337C637.958 423.241 663.363 417 680.691 406.502V406.483Z" fill="#2BB69F"/>
<path d="M178.712 423.318C179.714 426.092 179.637 431.274 183.203 431.196V432.294L180.987 432.834C189.217 451.364 185.535 470.608 180.987 489.543C150.917 496.265 124.684 496.265 95.6367 485.055C101.207 476.618 107.645 468.335 111.577 458.896C112.714 456.142 119.885 435.627 119.114 434.625C118.728 434.124 116.531 435.396 116.993 433.45C121.08 434.105 117.379 428.269 121.465 428.924L120.347 426.689C127.884 428.5 138.35 427.537 144.287 428.962C145.116 429.155 144.537 432.16 150.166 431.274C152.305 430.927 151.669 429.155 152.556 428.962C162.193 426.843 168.207 427.286 178.751 423.337L178.712 423.318Z" fill="#2BB69F"/>
<path d="M220.269 509.73C232.663 517.377 244.71 530.784 250.029 544.518C252.188 550.104 252.208 558.06 256.217 562.471C232.142 581.502 218.014 589.304 187.713 598.376C189.063 596.816 189.776 595.506 190.007 593.387C191.915 576.051 177.073 546.964 161.885 537.776C179.868 531.285 204.772 520.652 220.288 509.73H220.269Z" fill="#2BB69F"/>
<path d="M123.701 287.536C128.924 304.95 139.179 318.588 152.903 330.184C149.51 330.01 138.581 334.807 135.285 336.714C119.615 345.806 113.331 364.548 112.464 381.807C88.0807 365.858 75.205 350.698 64.1797 323.442C71.3885 314.62 73.239 304.931 82.9921 297.669C95.3088 288.48 108.493 285.129 123.701 287.536Z" fill="#2BB69F"/>
<path d="M617.797 423.318C628.128 444.16 628.764 469.279 616.679 489.524C589.308 488.541 572.153 482.589 548.175 471.571C562.747 455.66 569.089 433.47 565.022 412.088C580.288 418.657 601.162 423.376 617.797 423.318Z" fill="#80CCB8"/>
<path d="M515.601 470.454C524.255 482.473 541.815 500.946 553.784 509.73C532.775 519.689 516.815 536.755 505.501 556.865C487.613 541.34 476.954 527.143 462.826 508.613C473.022 487.713 493.569 475.905 515.601 470.454Z" fill="#80CCB8"/>
<path d="M119.21 235.913C117.899 251.92 119.056 272.069 123.701 287.536C108.493 285.148 95.3281 288.48 82.9921 297.669C73.239 304.931 71.3693 314.62 64.1797 323.442C53.2508 296.474 53.3471 281.295 56.3155 252.748C72.9305 234.218 95.0775 227.11 119.21 235.913Z" fill="#80CCB8"/>
<path d="M219.151 398.624C221.021 403.035 222.042 408.236 224.374 413.051C232.104 429.001 242.801 439.884 260.708 443.506C234.475 466.871 216.53 481.588 180.986 489.524C185.555 470.589 189.236 451.345 180.986 432.815L183.203 432.275V431.177C179.637 431.255 179.714 426.073 178.712 423.299C193.669 417.694 207.008 408.794 219.132 398.604L219.151 398.624Z" fill="#80CCB8"/>
<path d="M75.3979 403.112C73.9137 407.311 73.7017 412.242 72.3717 416.364C69.5383 425.09 61.8668 437.842 55.641 444.526C52.5184 447.878 47.025 450.71 45.0783 454.735C29.8317 442.966 15.4526 427.999 0.16748 416.576C2.75033 416.962 4.36943 412.782 5.25608 411.01C12.8312 396.043 14.8743 377.782 11.3855 361.582C36.1925 372.041 53.7906 388.26 75.3979 403.112Z" fill="#2BB69F"/>
<path d="M123.701 176.43C124.761 197.754 120.887 215.36 119.21 235.913C95.0968 227.091 72.9498 234.218 56.3154 252.748C58.455 232.157 62.4063 211.738 64.1796 191.031C69.0369 189.047 69.9814 183.962 74.3954 180.475C86.7121 170.709 110.285 168.34 123.701 176.449V176.43Z" fill="#2BB69F"/>
<path d="M252.843 478.313C260.206 478.582 269.458 483.648 275.665 487.482C288.232 495.264 295.595 507.707 298.891 522.077C284.57 538.913 273.294 548.968 256.216 562.471C252.207 558.06 252.188 550.104 250.029 544.518C244.709 530.784 232.662 517.377 220.269 509.73C229.636 503.142 245.519 487.308 252.843 478.313Z" fill="#80CCB8"/>
<path d="M405.559 524.331C400.972 545.655 396.616 558.638 388.713 578.189C373.255 569.714 356.871 560.14 338.598 558.137C335.842 557.829 333.085 558.002 330.329 558.002C336.247 543.863 340.603 526.084 342.684 510.866C344.631 511.464 346.501 509.268 347.715 509.171C354.963 508.67 367.125 509.749 374.353 511.194C385.533 513.428 396.076 518.148 405.559 524.331Z" fill="#80CCB8"/>
<path d="M152.884 330.184C156.893 330.396 160.767 334.518 164.468 336.02C172.467 339.237 181.295 341.992 189.949 342.531C187.039 349.003 180.505 353.087 176.688 359.02C168.554 371.656 165.528 388.453 167.494 403.15C147.082 401.609 129.156 392.749 112.464 381.827C113.312 364.567 119.615 345.825 135.285 336.733C138.582 334.826 149.491 330.03 152.903 330.203L152.884 330.184Z" fill="#80CCB8"/>
<path d="M120.328 426.689L121.446 428.924C117.359 428.269 121.06 434.105 116.974 433.45C116.511 435.415 118.728 434.144 119.094 434.625C119.884 435.627 112.695 456.142 111.558 458.896C107.626 468.335 101.188 476.618 95.6172 485.055C75.629 477.35 61.7125 467.584 45.0781 454.755C47.0056 450.729 52.5183 447.878 55.6408 444.546C61.8667 437.861 69.5381 425.11 72.3716 416.384C73.7015 412.281 73.9136 407.33 75.3977 403.131C89.0445 412.512 103.944 422.76 120.309 426.689H120.328Z" fill="#80CCB8"/>
<path d="M104.6 114.713C117.841 132.858 122.583 154.182 123.682 176.43C110.266 168.321 86.693 170.69 74.3763 180.456C69.9816 183.942 69.0371 189.028 64.1605 191.012C65.5098 175.139 65.6833 155.607 54.0604 142.759C53.8677 139.138 56.2192 136.595 58.0889 133.879C64.5268 124.537 78.1349 114.559 89.5843 113.653C94.9235 113.23 99.6651 116.023 104.6 114.694V114.713Z" fill="#80CCB8"/>
<path d="M104.6 114.713C99.6652 116.061 94.9236 113.249 89.5844 113.673C78.1351 114.578 64.5462 124.537 58.089 133.898C56.2193 136.614 53.8678 139.138 54.0606 142.778C45.7145 133.552 27.0177 126.482 14.7588 125.943C13.583 111.207 17.4573 95.6814 29.4656 86.2043C32.1256 84.1046 41.0306 79.3275 43.9605 78.8074C62.9463 75.4943 93.8827 100.035 104.6 114.713Z" fill="#2BB69F"/>
<path d="M11.4045 361.601C14.874 377.801 12.8501 396.062 5.27504 411.029C4.36911 412.801 2.76928 416.981 0.186428 416.596C-10.2221 408.833 -27.5503 403.227 -40.2333 407.619C-41.5633 394.116 -46.9024 382.116 -50.6611 369.21C-51.4514 366.474 -51.8754 363.624 -52.4344 360.831C-52.8584 358.769 -51.4321 356.458 -54.8438 357.113C-30.9235 350.544 -11.2244 352.066 11.4045 361.601Z" fill="#80CCB8"/>
<path d="M43.9601 78.7881C41.011 79.3082 32.1059 84.0853 29.4652 86.1849C17.4569 95.6621 13.6019 111.188 14.7584 125.924C3.94511 125.442 -6.03935 127.58 -15.5612 132.665C-16.4479 132.242 -21.922 130.681 -22.2689 130.373C-22.4038 130.258 -21.1124 128.408 -21.6907 127.099C-23.7145 122.456 -31.8101 115.252 -30.8656 107.605L-29.0344 92.2526C-15.8696 85.1254 -3.16738 79.9246 12.2719 77.979C22.1022 76.7462 34.3611 76.5344 43.9601 78.7881Z" fill="#80CCB8"/>
<path d="M425.509 238.436C465.717 232.946 485.802 282.143 460.05 309.977C436.342 335.597 396.5 320.61 393.243 286.959C391.238 266.29 403.343 241.48 425.529 238.436H425.509ZM442.298 262.033C420.941 254.886 411.516 269.179 414.6 289.135C416.932 304.199 442.336 306.703 448.447 295.049C451.357 289.482 451.723 273.147 448.1 268.023C446.577 265.885 443.242 265.211 442.317 262.033H442.298Z" fill="#FFFDF2"/>
<path d="M442.298 262.033C443.223 265.211 446.557 265.885 448.08 268.024C451.704 273.147 451.357 289.482 448.427 295.049C442.317 306.722 416.912 304.199 414.58 289.135C411.496 269.16 420.922 254.886 442.278 262.033H442.298Z" fill="#2BB69F"/>
</g>
</g>
<defs>
<clipPath id="clip0_504_7976">
<rect width="669" height="516" fill="white"/>
</clipPath>
<clipPath id="clip1_504_7976">
<rect width="1022" height="944" fill="white" transform="translate(-123 44)"/>
</clipPath>
</defs>
</svg>
