<svg width="669" height="516" viewBox="0 0 669 516" fill="none" xmlns="http://www.w3.org/2000/svg">
<g clip-path="url(#clip0_504_11364)">
<rect width="669" height="516" fill="#D9D9D9" fill-opacity="0.6"/>
<g clip-path="url(#clip1_504_11364)">
<path d="M609.486 180.768C608.207 184.824 606.977 197.003 606.265 202.072C605.626 206.683 606.012 214.891 604.588 218.681C603.08 222.724 602.778 217.305 602.187 215.917C597.216 204.233 588.927 189.7 578.189 182.579C567.524 175.493 546.373 170.146 540.956 185.789C535.828 200.587 549.824 214.408 560.067 223.147L586.213 241.446C568.055 241.771 536.625 232.586 522.653 248.084C515.547 255.966 514.775 269.449 523.136 276.727C540.884 292.177 576.874 276.28 594.127 265.574C593.259 270.306 588.481 273.565 585.875 277.258C577.851 288.616 571.505 300.493 572.941 314.99C575.064 336.511 602.404 347.519 614.626 327.628C623.494 313.191 620.719 294.893 620.285 278.851C624.508 283.076 626.269 289.847 629.273 295.195C638.527 311.671 656.287 334.52 677.896 323.608C697.466 313.723 683.627 289.027 671.791 278.417C664.419 271.814 656.516 269.388 649.362 264.295C646.273 262.086 651.268 263.884 651.425 263.884H678.005C680.454 263.884 688.827 261.036 691.445 259.877C693.87 258.803 700.349 255.073 701.676 253.081C745.365 293.275 775.914 350.139 791.333 407.304C806.113 462.115 809.551 533.45 785.469 585.799C752.519 657.413 677.643 683.424 605.493 698.283C480.196 724.089 319.825 721.011 197.629 682.121C87.8841 647.189 48.5274 569.601 61.3286 456.37C68.6883 391.311 94.6044 326.276 136.82 276.341C140.331 278.175 142.153 280.119 146.135 281.555C163.545 287.844 184.261 279.612 201.611 276.341L183.066 288.109C169.734 297.802 152.011 318.527 160.577 336.089C162.833 340.7 167.213 342.981 172.22 343.548C194.323 346.071 206.666 322.715 213.652 305.406C215.703 300.312 216.499 293.831 219.889 289.63C221.385 305.877 221.904 323.958 232.377 337.392C246.722 355.8 271.263 347.882 273.049 324.936C274.593 305.02 258.896 288.254 246.481 274.675L281.989 283.607C298.036 287.337 322.624 282.666 323.674 262.484C324.241 251.488 312.55 242.677 302.463 241.518C286.791 239.707 274.4 245.018 259.777 248.905C274.762 237.221 298.325 215.579 295.417 194.552C293.921 183.725 284.245 180.502 274.52 181.818C256.399 184.268 241.727 214.758 234.838 229.798L233.197 221.071C232.341 212.597 231.834 199.417 229.035 191.571C239.7 180.14 254.866 170.75 269.513 165.173C285.186 159.198 310.571 151.823 327.028 148.746C334.195 147.406 345.802 145.571 352.812 146.694C355.056 147.056 363.574 152.548 367.555 153.96C371.537 155.372 375.313 156.422 379.379 157.074C377.171 159.307 373.648 158.003 370.765 158.426C355.948 160.586 332.132 169.832 334.605 188.59C336.656 204.209 360.738 201.722 370.813 195.868L395.172 180.768C395.655 181.263 389.357 191.293 388.645 192.935C382.962 206.055 380.875 229.508 401.362 228.989C426.916 228.349 424.237 193.611 419.267 176.604C423.815 182.289 426.554 189.471 430.885 195.301C440.019 207.6 464.402 222.93 477.011 207.371C490.367 190.895 465.73 172.138 452.808 165.077L442.528 160.828C453.64 158.293 470.495 156.06 478.676 147.538C480.039 146.114 483.743 140.948 484.057 139.21C511.131 144.243 539.943 151.968 565.678 161.854C580.542 167.575 594.393 175.614 609.498 180.756L609.486 180.768ZM448.332 326.215C448.428 326.107 449.743 325.998 450.383 325.395C464.668 311.743 480.461 296.148 478.217 274.277C476.745 259.973 462.858 252.381 449.623 256.449C426.349 263.595 419.858 289.787 417.577 311.248L408.299 285.225C382.323 233.708 327.318 275.749 368.858 315.956L388.5 335.353C367.76 328.569 331.444 318.611 315.892 339.589C308.629 349.378 309.63 363.923 319.608 371.455C330.78 379.892 348.927 377.562 361.776 374.69C372.092 372.384 381.527 367.52 391.83 365.287C376.182 377.116 357.939 395.873 356.214 416.489C354.296 439.423 372.381 450.407 392.373 439.374C406.381 431.649 412.872 415.415 415.683 400.363C416.286 397.153 417.686 379.397 418.41 378.564C419.411 377.406 419.882 378.757 420.268 379.614C422.657 384.962 423.562 393.121 425.661 399.156C430.354 412.639 439.247 427.751 453.085 433.219C476.83 442.597 490.439 425.566 483.622 402.669C478.434 385.227 463.244 373.929 449.972 362.788C469.832 367.061 495.036 373.579 512.205 358.962C526.538 346.759 518.418 326.433 501.648 321.46C483.948 316.209 465.211 321.399 448.73 327.881C447.994 327.978 448.223 326.324 448.308 326.227L448.332 326.215ZM720.812 460.848C736.424 461.898 775.467 459.991 777.337 438.855C779.183 418.022 755.065 413.291 739.042 416.32C728.594 418.3 720.438 424.214 710.858 428.004C723.515 410.744 737.281 390.297 732.069 367.701C728.763 353.386 718.616 344.695 703.74 350.247C685.654 356.995 683.47 381.437 682.565 398.034C682.408 400.991 683.217 417.612 682.589 418.42C681.31 420.086 681.154 417.817 680.852 417.238C671.345 398.432 656.336 364.575 630.637 366.868C622.191 367.616 615.157 374.086 613.842 382.475C611.441 397.744 623.168 412.446 634.015 421.728C642.81 429.247 653.404 434.051 662.658 440.859C643.028 438.686 617.28 435.452 601.173 449.586C592.8 456.937 587.54 470.866 593.838 481.041C596.721 485.7 604.781 488.935 610.114 489.684C631.952 492.749 653.464 474.62 670.946 464.131C672.02 465.386 663.731 473.232 662.67 474.535C651.678 488.175 639.963 508.236 643.076 526.498C646.768 548.08 672.805 551.061 683.929 532.376C693.834 515.731 691.349 495.091 691.723 476.599C694.039 476.141 693.062 477.215 693.653 478.374C699.01 488.875 701.604 498.688 708.831 508.936C718.254 522.31 742.312 543.384 757.78 526.486C773.247 509.588 751.916 480.233 736.521 470.431L720.8 460.823L720.812 460.848ZM127.446 359.602C118.107 361.642 118.035 381.521 131.186 380.073C144.337 378.625 141.671 356.5 127.446 359.602ZM206.606 441.716C205.652 424.938 209.549 400.834 198.98 386.603C191.415 376.416 176.937 371.624 167.575 382.33C157.199 394.183 161.639 417.322 166.344 430.889C168.793 437.974 173.137 444.408 175.019 451.698C160.046 437.757 128.978 407.992 108.576 428.028C99.9734 436.478 102.073 449.743 108.709 458.627C120.726 474.716 141.393 475.284 159.696 476.587C161.12 476.684 162.447 476.503 163.388 477.879C144.53 484.071 115.706 491.542 108.395 512.605C103.074 527.91 112.642 541.163 128.785 541.139C157.114 541.091 165.656 519.437 179.531 500.643C179.857 500.209 180.412 497.614 181.667 499.074C182.005 499.473 180.074 507.451 179.978 509.419C179.121 526.872 180.412 550.132 193.684 563.095C200.887 570.12 212.614 571.098 220.999 565.413C236.696 554.779 230.422 530.312 224.45 515.695C220.903 507.053 215.449 499.231 211.588 490.758C230.567 497.505 248.001 510.155 269.308 508.187C288.227 506.449 299.495 487.861 286.694 471.711C272.602 453.919 241.45 462.067 222.387 464.155L240.074 454.861C257.665 446.134 282.87 410.032 262.178 394.014C243.054 379.216 221.385 406.048 215.015 422.319L206.593 441.728L206.606 441.716ZM553.661 401.16C543.031 402.029 539.894 416.779 548.907 422.126C559.102 428.185 570.226 418.867 564.652 408.04C562.686 404.238 557.98 400.81 553.661 401.16ZM494.023 552.244C507.982 538.46 527.105 521.32 531.702 501.44C534.537 489.177 532.016 475.887 518.756 471.409C500.719 465.302 487.109 480.51 479.219 494.657C472.148 507.342 468.42 522.261 465.754 536.456C464.402 536.311 464.053 533.282 463.811 532.183C459.697 513.148 455.486 486.461 435.579 477.324C409.023 465.12 396.536 490.239 404.716 513.184C410.109 528.284 425.166 539.872 435.024 551.846C435.796 552.787 437.039 553.185 436.677 554.755C429.993 552.666 423.888 549.395 417.179 547.259C400.747 542.045 375.011 537.953 361.474 551.399C343.606 569.167 359.544 587.417 379.198 591.895C391.094 594.611 403.316 593.802 415.261 591.895C422.488 590.748 429.498 588.443 436.689 587.163C422.657 598.003 404.969 609.699 397.489 626.476C389.26 644.92 396.741 669.338 420.28 665.898C446.836 662.011 458.37 623.628 462.448 601.286C464.342 600.984 464.077 601.455 464.511 602.927C466.574 609.844 466.586 618.945 468.505 626.392C472.402 641.528 480.184 657.075 495.108 663.774C510.757 670.799 526.683 662.192 528.107 644.956C530.23 619.198 510.805 600.899 493.19 585.51C513.834 591.654 541.415 603.603 561.419 590.193C575.028 581.068 573.773 563.119 561.226 553.584C549.764 544.869 525.006 546.136 511.264 548.333C505.388 549.275 499.922 552.063 494.01 552.256L494.023 552.244ZM322.359 484.397C309.992 496.069 327.438 512.062 337.887 502.007C348.685 491.627 333.23 474.137 322.359 484.397ZM286.96 568.237C284.921 568.587 283.087 569.855 281.434 571.025C264.711 582.951 280.939 612.209 299.592 599.161C314.589 588.66 300.256 565.932 286.96 568.237ZM705.658 571.532C697.2 572.776 695.801 586.246 702.231 590.374C710.846 595.914 719.231 588.974 717.289 579.45C716.312 574.671 710.436 570.832 705.658 571.532ZM148.222 584.025C137.472 586.246 135.843 604.412 147.667 608.299C167.647 614.877 172.28 579.052 148.222 584.025ZM615.085 589.855C608.075 591.05 601.68 602.674 601.958 609.204C602.766 628.009 629.852 627.394 634.027 612.125C637.731 598.582 629.503 587.381 615.085 589.855ZM226.815 645.885C235.767 655.216 251.126 642.795 243.006 630.098C235.309 618.051 215.401 633.984 226.815 645.885ZM329.333 644.678C316.025 646.851 320.766 671.692 335.112 664.619C345.102 659.694 342.11 642.59 329.333 644.678Z" fill="#25AFA5"/>
<path d="M651.027 208.192C650.979 208.264 649.832 207.902 649.41 208.807L636.911 234.782C637.405 235.289 643.16 230.86 644.367 230.208C651.244 226.466 663.249 222.278 670.959 221.493C686.667 219.888 706.599 226.695 703.969 245.791C703.788 247.142 702.34 252.103 701.701 253.069C700.373 255.061 693.894 258.79 691.469 259.865C688.851 261.023 680.478 263.872 678.029 263.872H651.449C651.292 263.872 646.297 262.073 649.386 264.282C656.541 269.388 664.443 271.802 671.815 278.405C683.651 289.014 697.49 313.71 677.92 323.596C656.311 334.507 638.551 311.658 629.297 295.182C626.293 289.823 624.532 283.064 620.309 278.839C620.743 294.881 623.518 313.179 614.65 327.615C602.416 347.507 575.089 336.499 572.965 314.978C571.529 300.469 577.888 288.604 585.899 277.246C588.505 273.552 593.271 270.293 594.152 265.562C576.898 276.268 540.908 292.165 523.16 276.715C514.799 269.436 515.571 255.954 522.677 248.072C536.649 232.574 568.091 241.759 586.237 241.433L560.092 223.135C549.848 214.396 535.853 200.575 540.98 185.777C546.398 170.134 567.548 175.481 578.213 182.566C588.951 189.7 597.24 204.22 602.211 215.905C602.802 217.293 603.092 222.712 604.612 218.669C606.036 214.879 605.65 206.671 606.289 202.06C606.989 197.002 608.22 184.823 609.511 180.756C609.704 180.128 616.339 171.196 617.281 170.243C632.181 155.312 648.807 165.33 651.509 184.039C651.968 187.201 651.908 206.803 651.051 208.18L651.027 208.192ZM607.604 229.17C602.79 229.991 596.673 235.036 594.622 239.454C583.727 262.882 617.075 285.007 632.35 265.562C644.632 249.907 625.738 226.092 607.604 229.182V229.17Z" fill="#73CAC4"/>
<path d="M229.023 191.571C231.81 199.404 232.329 212.597 233.185 221.071L234.826 229.797C241.715 214.758 256.387 184.268 274.508 181.818C284.233 180.502 293.909 183.725 295.405 194.552C298.301 215.579 274.75 237.233 259.765 248.905C274.4 245.018 286.791 239.719 302.451 241.518C312.538 242.676 324.229 251.488 323.662 262.484C322.612 282.653 298.023 287.325 281.977 283.607L246.469 274.675C258.884 288.254 274.581 305.02 273.036 324.936C271.251 347.881 246.71 355.812 232.365 337.392C221.892 323.958 221.373 305.865 219.877 289.63C216.487 293.83 215.703 300.312 213.64 305.406C206.654 322.715 194.299 346.071 172.208 343.548C167.201 342.981 162.821 340.699 160.565 336.089C151.998 318.526 169.722 297.802 183.054 288.109L201.598 276.341C184.249 279.612 163.545 287.832 146.123 281.555C142.141 280.119 140.307 278.163 136.808 276.341C125.877 259.237 144.18 240.794 160.903 238.947C166.561 238.319 180.991 239.586 186.819 240.854C193.515 242.314 199.74 245.791 205.749 248.917L195.638 230.365C194.577 225.525 190.728 218.258 189.968 214.009C186.686 195.614 201.056 167.237 221.952 183.266C222.93 184.015 228.805 190.979 229.023 191.571ZM215.196 246.72C207.173 254.614 202.503 269.581 211.552 278.453C226.622 293.215 256.025 265.489 244.985 246.672C238.132 234.988 223.316 238.729 215.196 246.72Z" fill="#73CAC4"/>
<path d="M352.799 146.694C347.081 137.846 343.244 127.683 352.872 119.753C363.007 111.412 375.784 113.935 385.955 120.585L399.311 132.559C397.163 121.793 400.107 107.429 409.349 100.645C429.546 85.8109 439.56 120.187 430.873 134.225L444.181 125.522C453.532 121.563 461.664 122.094 471.183 125.088C477.879 127.188 485.541 130.845 484.045 139.234C483.731 140.972 480.027 146.138 478.664 147.563C470.483 156.084 453.628 158.317 442.516 160.852L452.796 165.101C465.718 172.162 490.355 190.919 476.999 207.395C464.39 222.954 440.007 207.625 430.873 195.325C426.542 189.483 423.815 182.313 419.255 176.628C424.225 193.635 426.904 228.373 401.35 229.013C380.851 229.532 382.95 206.067 388.633 192.959C389.345 191.318 395.643 181.287 395.16 180.792L370.801 195.892C360.726 201.746 336.656 204.233 334.593 188.614C332.12 169.857 355.936 160.611 370.752 158.45C373.636 158.028 377.171 159.331 379.367 157.098C375.301 156.434 371.428 155.372 367.543 153.984C363.658 152.596 355.044 147.08 352.799 146.718V146.694ZM409.964 140.236C388.006 141.358 391.83 175.988 414.609 173.224C434.433 170.81 432.381 139.089 409.964 140.236ZM395.583 179.102V179.935C396.126 179.658 396.126 179.38 395.583 179.102Z" fill="#73CAC4"/>
<path d="M189.98 214.01C190.74 218.271 194.589 225.525 195.65 230.365L205.761 248.917C199.753 245.791 193.539 242.315 186.831 240.854C181.003 239.587 166.573 238.319 160.915 238.947L189.992 214.01H189.98Z" fill="#25AFA5"/>
<path d="M651.027 208.191C658.157 211.668 665.059 216.218 670.958 221.493C663.249 222.278 651.244 226.466 644.367 230.208C643.148 230.872 637.405 235.301 636.911 234.782L649.41 208.807C649.844 207.902 650.991 208.264 651.027 208.191Z" fill="#25AFA5"/>
<path d="M494.022 552.244C499.934 552.051 505.4 549.274 511.276 548.321C525.018 546.112 549.776 544.857 561.238 553.572C573.785 563.107 575.028 581.068 561.431 590.181C541.415 603.591 513.846 591.641 493.202 585.497C510.817 600.875 530.242 619.186 528.119 644.944C526.695 662.18 510.781 670.786 495.12 663.761C480.208 657.074 472.414 641.516 468.517 626.38C466.598 618.92 466.586 609.831 464.523 602.915C464.089 601.442 464.354 600.972 462.46 601.273C458.382 623.616 446.848 661.999 420.292 665.886C396.753 669.338 389.273 644.908 397.501 626.464C404.981 609.686 422.669 598.002 436.701 587.151C429.51 588.431 422.512 590.736 415.273 591.883C403.328 593.79 391.106 594.586 379.21 591.883C359.568 587.393 343.618 569.154 361.486 551.387C375.011 537.94 400.759 542.032 417.191 547.247C423.9 549.371 430.005 552.654 436.689 554.742C437.051 553.173 435.808 552.775 435.036 551.833C425.179 539.872 410.121 528.272 404.728 513.172C396.536 490.239 409.035 465.108 435.591 477.311C455.486 486.461 459.709 513.148 463.823 532.171C464.065 533.269 464.415 536.299 465.766 536.444C468.432 522.249 472.16 507.318 479.231 494.644C487.121 480.498 500.719 465.289 518.768 471.397C532.028 475.887 534.549 489.176 531.714 501.428C527.117 521.308 507.982 538.447 494.035 552.232L494.022 552.244ZM467.274 544.133C447.004 545.581 431.042 569.384 444.664 587.091C462.014 609.65 494.939 584.544 487.145 558.726C484.563 550.18 476.335 543.493 467.286 544.145L467.274 544.133Z" fill="#73CAC4"/>
<path d="M448.332 326.215C448.247 326.324 448.018 327.966 448.754 327.869C465.235 321.387 483.96 316.197 501.672 321.448C518.43 326.421 526.562 346.747 512.229 358.95C495.06 373.567 469.856 367.049 449.997 362.776C463.268 373.917 478.446 385.215 483.646 402.657C490.463 425.554 476.854 442.597 453.109 433.207C439.271 427.739 430.379 412.627 425.685 399.144C423.586 393.121 422.681 384.962 420.292 379.602C419.906 378.733 419.435 377.393 418.434 378.552C417.71 379.385 416.311 397.141 415.707 400.351C412.896 415.403 406.405 431.625 392.397 439.362C372.393 450.395 354.32 439.411 356.238 416.477C357.963 395.849 376.194 377.104 391.854 365.275C381.563 367.508 372.116 372.372 361.8 374.678C348.951 377.55 330.805 379.88 319.632 371.443C309.654 363.911 308.653 349.366 315.916 339.577C331.48 318.599 367.784 328.557 388.524 335.341L368.882 315.944C327.33 275.749 382.347 233.696 408.323 285.212L417.602 311.236C419.882 289.775 426.373 263.595 449.647 256.437C462.882 252.369 476.781 259.961 478.241 274.265C480.485 296.148 464.692 311.731 450.407 325.383C449.767 325.998 448.452 326.095 448.356 326.203L448.332 326.215ZM419.882 323.101C408.878 324.574 394.666 335.365 392.868 346.771C388.512 374.472 425.553 379.989 438.704 359.385C448.368 344.236 439.717 320.458 419.882 323.113V323.101ZM447.089 327.869V328.702C447.632 328.424 447.632 328.147 447.089 327.869Z" fill="#73CAC4"/>
<path d="M720.812 460.848L736.533 470.456C751.928 480.257 773.501 509.346 757.792 526.51C742.083 543.674 718.266 522.334 708.843 508.96C701.616 498.712 699.022 488.899 693.665 478.398C693.074 477.239 694.051 476.177 691.735 476.624C691.361 495.115 693.846 515.768 683.941 532.4C672.817 551.085 646.78 548.104 643.088 526.522C639.963 508.26 651.69 488.187 662.682 474.559C663.744 473.244 672.032 465.41 670.959 464.155C653.476 474.632 631.964 492.774 610.126 489.708C604.793 488.959 596.721 485.712 593.85 481.065C587.552 470.89 592.8 456.961 601.186 449.61C617.281 435.476 643.04 438.711 662.67 440.883C653.416 434.076 642.823 429.272 634.027 421.752C623.168 412.47 611.453 397.768 613.854 382.499C615.169 374.11 622.203 367.641 630.649 366.892C656.348 364.611 671.357 398.456 680.864 417.262C681.154 417.841 681.31 420.11 682.601 418.445C683.229 417.636 682.408 401.015 682.577 398.058C683.494 381.461 685.666 357.019 703.752 350.271C718.628 344.719 728.775 353.398 732.081 367.725C737.305 390.321 723.539 410.768 710.87 428.028C720.438 424.238 728.606 418.324 739.055 416.344C755.077 413.315 779.195 418.046 777.349 438.88C775.479 460.015 736.436 461.91 720.824 460.872L720.812 460.848ZM685.738 424.444C668.135 425.976 662.513 450.793 673.432 462.936C692.169 483.757 716.287 457.613 705.453 436.719C701.749 429.573 694.196 423.707 685.738 424.444Z" fill="#73CAC4"/>
<path d="M206.606 441.716L215.027 422.307C221.397 406.049 243.067 379.204 262.19 394.002C282.882 410.02 257.677 446.122 240.086 454.849L222.399 464.143C241.462 462.067 272.614 453.907 286.706 471.699C299.508 487.861 288.239 506.437 269.32 508.175C248.013 510.131 230.579 497.493 211.601 490.746C215.461 499.231 220.915 507.041 224.462 515.683C230.446 530.288 236.708 554.767 221.011 565.401C212.638 571.074 200.899 570.108 193.696 563.083C180.424 550.132 179.133 526.86 179.99 509.407C180.086 507.427 182.029 499.461 181.679 499.062C180.424 497.602 179.857 500.197 179.543 500.631C165.668 519.425 157.126 541.079 128.797 541.127C112.654 541.152 103.098 527.898 108.407 512.593C115.718 491.53 144.542 484.059 163.4 477.867C162.459 476.491 161.132 476.672 159.708 476.575C141.393 475.272 120.738 474.692 108.721 458.615C102.085 449.731 99.9855 436.466 108.588 428.016C128.99 407.98 160.058 437.757 175.031 451.686C173.149 444.384 168.805 437.95 166.356 430.877C161.651 417.31 157.211 394.171 167.587 382.318C176.949 371.624 191.428 376.404 198.992 386.591C209.562 400.822 205.677 424.926 206.618 441.704L206.606 441.716ZM180.352 492.049C187.76 497.529 196.447 496.419 204.036 491.929C227.816 477.867 210.418 435.259 183.054 452.652C170.157 460.848 167.888 482.828 180.352 492.049Z" fill="#73CAC4"/>
<path d="M322.359 484.397C333.23 474.149 348.685 491.627 337.887 502.007C327.438 512.062 309.992 496.057 322.359 484.397Z" fill="#73CAC4"/>
<path d="M553.661 401.16C557.98 400.81 562.686 404.226 564.652 408.04C570.226 418.867 559.114 428.185 548.907 422.126C539.894 416.779 543.031 402.029 553.661 401.16Z" fill="#73CAC4"/>
<path d="M127.446 359.602C141.671 356.488 144.289 378.612 131.186 380.073C118.083 381.534 118.095 361.654 127.446 359.602Z" fill="#73CAC4"/>
<path d="M607.604 229.17C625.726 226.092 644.632 249.907 632.35 265.55C617.087 285.007 583.739 262.87 594.622 239.442C596.673 235.024 602.79 229.979 607.604 229.158V229.17Z" fill="#F6F3E3"/>
<path d="M215.196 246.72C223.316 238.73 238.132 234.976 244.985 246.672C256.025 265.49 226.622 293.215 211.552 278.453C202.503 269.582 207.173 254.614 215.196 246.72Z" fill="#F6F3E3"/>
<path d="M409.964 140.236C432.394 139.089 434.433 170.81 414.609 173.224C391.83 175.988 388.006 141.358 409.964 140.236Z" fill="#F6F3E3"/>
<path d="M395.583 179.102C396.126 179.38 396.126 179.657 395.583 179.935V179.102Z" fill="#25AFA5"/>
<path d="M419.882 323.101C439.717 320.458 448.368 344.236 438.704 359.372C425.553 379.988 388.512 374.46 392.868 346.759C394.666 335.352 408.866 324.561 419.882 323.089V323.101Z" fill="#F6F3E3"/>
<path d="M447.089 327.869C447.632 328.146 447.632 328.424 447.089 328.702V327.869Z" fill="#25AFA5"/>
<path d="M685.738 424.443C694.196 423.707 701.737 429.573 705.453 436.719C716.287 457.601 692.181 483.757 673.432 462.936C662.501 450.793 668.135 425.976 685.738 424.443Z" fill="#F6F3E3"/>
<path d="M180.352 492.049C167.888 482.828 170.169 460.848 183.054 452.652C210.418 435.258 227.816 477.867 204.036 491.929C196.447 496.419 187.76 497.529 180.352 492.049Z" fill="#F6F3E3"/>
</g>
</g>
<defs>
<clipPath id="clip0_504_11364">
<rect width="669" height="516" fill="white"/>
</clipPath>
<clipPath id="clip1_504_11364">
<rect width="744" height="618" fill="white" transform="translate(59 97)"/>
</clipPath>
</defs>
</svg>
