<svg width="669" height="516" viewBox="0 0 669 516" fill="none" xmlns="http://www.w3.org/2000/svg">
<g clip-path="url(#clip0_504_7304)">
<rect width="669" height="516" fill="#D9D9D9" fill-opacity="0.6"/>
<g clip-path="url(#clip1_504_7304)">
<path d="M498.646 301.271C474.648 310.281 449.286 312.417 424.322 316.712C376.552 324.934 332.601 333.066 283.824 336.011C266.011 337.085 248.007 337.1 230.157 336.992C224.351 340.785 228.645 341.961 233.65 342.576C243.44 343.762 266.522 341.314 277.753 340.741C357.933 336.642 425.044 325.695 501.864 303.929C553.139 289.407 596.704 272.7 646.659 255.127C648.022 255.15 651.014 256.091 651.971 255.528C652.775 255.056 652.645 253.783 653.011 253.335C661.374 250.444 671.521 246.655 679.371 243.705C679.947 243.488 680.491 243.162 681.078 242.949C683.13 243.324 685.251 243.135 687.221 242.502C697.392 239.205 707.994 234.681 717.959 231.722C718.527 231.556 719.072 231.144 719.666 230.966C726.307 233.006 730.818 228.82 737.335 227.96C740.916 227.489 741.299 231.603 744.599 225.03C744.986 224.998 745.442 225.538 745.83 225.506C751.377 225.022 773.2 223.834 776.076 227.936C779.231 232.424 770.002 245.272 767.09 249.314C753.844 267.707 738.006 284.402 725.985 304.094C724.912 305.845 722.466 308.513 724.294 310.58C709.474 333.382 696.186 357.269 682.972 380.938C671.416 401.645 663.349 426.723 653.878 448.943C648.537 461.469 644.738 471.805 637.625 483.701C634.691 481.775 634.49 484.324 633.162 486.18C628.325 492.931 623.337 499.601 618.55 506.361C617.398 507.985 614.707 510.205 616.641 512.388C610.85 518.749 606.649 521.521 599.879 526.421C598.568 527.373 597.532 526.919 598.029 529.298C599.553 536.565 622.972 554.507 629.646 559.207C636.321 563.908 654.834 570.264 651.79 581.062C650.256 586.505 635.044 583.953 630.995 582.861C621.823 580.38 613.674 575.389 604.86 572.232C622.465 601.146 643.399 627.798 663.452 655.009C660.779 658.683 668.384 660.698 669.143 664.229C669.605 666.39 669.177 668.776 666.426 667.489C654.287 661.836 645.903 652.402 636.012 644.176C634.681 643.072 631.934 640.414 630.209 642.16C628.819 641.012 627.136 640.18 625.759 639.027L626.887 632.387C620.287 635.348 621.121 630.525 617.693 627.797C598.908 612.845 581.01 597.292 564.555 579.832C563.59 578.805 559.658 574.275 558.076 576.097C543.307 561.377 530.065 544.536 512.456 533.008C523.271 534.676 536.132 538.014 546.268 539.055C548.145 539.244 550.153 540.374 551.49 538.189C536.535 527.31 518.067 523.447 501.36 515.966C431.978 484.915 378.385 446.315 315.105 406.515C281.795 385.567 247.3 362.801 210.325 349.818C194.531 344.276 177.281 343.918 161.293 339.351C171.851 318.119 141.922 301.297 129.915 322.645C126.865 328.07 125.688 331.839 127.936 337.789L2.75259 324.818L-1.13679 327.561C-4.32039 323.009 -7.15891 318.117 -1.58668 313.848C2.28147 310.883 44.2461 308.866 54.8481 305.285C72.6711 299.272 74.7339 286.187 88.7532 278.115C97.3425 273.167 105.632 272.938 115.138 272C115.01 273.859 119.237 273.626 120.446 273.632C131.185 273.695 141.939 272.135 152.694 273.737C152.741 273.144 151.86 272.15 151.909 272.051C153.183 269.724 160.836 271.918 163.186 272.161C199.866 275.918 236.492 281.423 271.447 294.172C291.214 301.388 308.661 315.03 328.185 323.127C334.762 325.86 340.916 327.551 347.734 329.273C349.47 326.609 348.087 327.137 347.201 325.905C336.599 311.166 282.299 291.803 263.458 285.352C230.165 273.963 205.936 271.831 171.721 268.382C179.623 261.829 185.654 252.956 192.238 244.875C210.075 223.003 229.022 198.01 244.547 173.465C245.648 171.725 248.065 169.046 246.256 166.986C259.873 147.354 272.488 126.959 286.237 107.43C289.562 109.562 289.143 106.484 290.55 104.616C304.187 86.5986 317.164 70.2886 331.625 51.6359C332.717 50.2245 331.53 48.662 331.622 48.5365C331.874 48.2159 331.849 47.6702 332.097 47.3052C334.609 48.9614 335.34 47.0138 336.856 45.4766C343.982 38.2379 350.061 29.7694 357.492 22.7982C359.909 20.5371 366.932 18.3398 366.265 13.7942C373.08 8.80447 380.593 2.98 385.314 14.0438C402.027 86.8758 416.157 158.013 450.156 225.225C459.877 244.438 482.956 288.769 498.647 301.24L498.646 301.271ZM375.017 41.5942C371.219 32.9986 355.823 39.22 361.117 49.2722C366.411 59.3245 378.254 48.9225 375.017 41.5942ZM337.454 70.9635C325.571 76.2794 339.623 96.2961 346.854 81.6799C349.917 75.4982 342.912 68.5157 337.454 70.9635ZM385.809 93.9799C383.561 85.8114 370.039 86.2924 370.595 96.1228C371.151 105.953 389.029 105.654 385.809 93.9799ZM726.771 257.423C732.717 270.868 752.501 249.812 734.227 246.528C728.464 245.491 724.999 253.437 726.771 257.423ZM338.03 107.859C331.513 107.357 328.1 117.917 333.889 121.578C346.936 129.822 350.638 108.826 338.03 107.859ZM387.364 141.137C379.869 139.003 374.72 150.339 380.69 154.95C392.037 163.706 396.896 143.853 387.364 141.137ZM702.06 268.365C698.735 260.874 684.294 262.822 688.255 273.968C691.975 284.431 705.976 277.21 702.06 268.365ZM311.11 130.126C306.867 120.49 292.35 128.433 297.845 137.523C303.221 146.418 314.449 137.718 311.11 130.126ZM348.065 158.569C341.175 156.702 335.326 167.628 341.44 172.337C352.467 180.841 359.266 161.598 348.065 158.569ZM657.677 288.025C654.711 281.327 641.319 281.472 643.335 292.853C645.338 304.153 662.123 298.051 657.677 288.025ZM397.756 187.536C392.449 187.342 388.926 197.215 393.998 201.125C405.471 209.972 413.215 188.115 397.756 187.536ZM691.427 306.666C686.014 306.248 681.56 316.727 687.33 320.328C699.545 327.95 706.246 307.823 691.427 306.666ZM305.379 185.242C316.311 180.363 302.538 160.068 296.241 172.847C292.571 180.296 299.213 187.995 305.379 185.242ZM610.458 296.568C600.767 294.433 596.77 311.638 609.315 312.603C616.339 313.15 619.439 298.546 610.458 296.568ZM362.663 220.111C372.573 215.77 361.511 198.752 353.223 206.946C346.889 213.215 355.712 223.151 362.663 220.111ZM419.223 231.181C407.94 229.171 407.937 246.526 418.039 247.265C426.69 247.904 427.929 232.732 419.223 231.181ZM646.834 345.413C651.073 343.512 654.794 333.211 647.989 330.54C634.15 325.099 634.498 350.929 646.834 345.413ZM264.892 194.369C259.362 192.866 253.419 200.068 256.805 205.706C264.571 218.654 278.731 198.116 264.892 194.369ZM312.903 217.027C305.796 215.612 302.157 225.644 307.035 230.444C316.801 240.047 326.656 219.776 312.903 217.027ZM566.36 319.265C562.201 309.854 547.594 317.366 551.135 326.517C554.676 335.667 570.221 328.003 566.36 319.265ZM369.315 243.08C362.643 242.508 357.95 252.412 364.197 257.248C375.639 266.094 381.717 244.139 369.315 243.08ZM446.408 274.236C437.876 273.567 436.407 289.723 446.278 290.394C455.199 290.999 457.601 275.118 446.408 274.236ZM598.189 342.77C593.55 342.597 587.395 352.623 595.421 356.988C607.508 363.553 610.979 343.239 598.189 342.77ZM404.218 273.561C396.786 272.985 394.073 288.532 404.129 289.639C414.186 290.746 415.718 274.454 404.218 273.561ZM649.143 372.354C639.413 370.429 638.853 386.979 646.331 389.127C654.859 391.584 660.855 374.669 649.143 372.354ZM513.836 334.356C508.344 321.986 489.998 339.096 503.809 345.276C511.542 348.735 516.004 339.234 513.836 334.356ZM335.201 280.256C347.251 274.897 330.438 255.755 325.154 270.298C322.56 277.432 329.922 282.602 335.201 280.256ZM270.226 242.985C262.625 242.708 261.061 259.749 273.103 258.739C282.123 257.978 281.135 243.382 270.226 242.985ZM549.667 377.255C554.711 376.491 557.559 366.453 551.938 362.91C537.694 353.936 535.872 379.334 549.667 377.255ZM598.883 387.022C591.574 390.266 593.378 405.885 604.014 402.049C614.042 398.429 607.715 383.111 598.883 387.022ZM367.521 298.966C358.182 298.222 358.024 314.509 367.578 315.529C377.131 316.55 378.869 299.865 367.521 298.966ZM453.158 344.775C446.28 343.265 439.992 353.025 446.788 358.437C458.657 367.898 464.73 347.314 453.158 344.775ZM494.256 377.616C485.496 376.677 482.585 392.126 492.89 393.255C502.988 394.367 503.964 378.654 494.256 377.616ZM546.64 405.051C537.286 409.232 544.138 425.685 553.558 419.504C562.187 413.842 553.585 401.945 546.64 405.051ZM617.872 446.025C625.104 442.815 622.607 427.325 612.747 431.01C601.212 435.314 609.178 449.882 617.872 446.025ZM384.853 365.949C387.819 372.647 401.211 372.502 399.195 361.121C397.18 349.741 380.406 355.923 384.853 365.949ZM438.667 385.906C429.239 383.809 427.272 398.089 435.15 400.896C445.419 404.561 449.489 388.306 438.667 385.906ZM572.456 461.031C579.777 457.812 575.768 443.239 566.374 446.161C557.54 448.913 563.228 465.078 572.456 461.031ZM343.53 364.751C338.113 364.342 333.646 374.827 339.426 378.431C352.218 386.416 357.084 365.794 343.53 364.751ZM489.868 434.806C494.33 444.848 510.104 436.479 503.082 427.431C495.992 418.283 487.137 428.638 489.868 434.806ZM444.603 429.213C434.949 427.092 429.877 443.057 443.954 444.023C452.695 444.623 452.519 430.951 444.603 429.213ZM585.863 486.715C581.86 488.503 579.105 496.691 584.06 499.794C599.893 509.704 598.56 481.039 585.863 486.715ZM523.901 471.286C516.283 475.355 520.445 488.561 529.959 486.104C541.399 483.158 532.378 466.767 523.901 471.286Z" fill="#3DBDA7"/>
<path d="M161.295 339.373C177.283 343.94 194.546 344.293 210.326 349.841C247.302 362.824 281.8 385.58 315.107 406.537C378.387 446.337 431.98 484.937 501.362 515.988C518.072 523.46 536.537 527.333 551.492 538.211C550.155 540.396 548.147 539.267 546.27 539.077C536.134 538.036 523.273 534.698 512.458 533.03C403.025 516.109 290.754 503.097 190.961 451.307C138.578 424.12 90.1173 389.303 44.5126 352.309C44.6712 352.37 46.3637 351.652 47.9913 352.184C56.2728 354.889 102.28 371.328 107.612 364.543C111.093 360.11 104.893 359.344 103.174 357.994C102.95 357.823 103.309 355.645 102.195 355.226C100.089 354.434 89.3789 354.714 85.5095 353.853C69.3727 350.225 54.5143 344.176 39.0187 338.889C36.6132 338.067 34.5645 335.71 33.8138 339.708C23.0716 335.603 12.0821 331.777 2.74951 324.881L127.933 337.852C133.711 353.172 154.174 353.732 161.29 339.414L161.295 339.373Z" fill="#C0E4DD"/>
<path d="M501.864 303.929C425.044 325.695 357.934 336.642 277.753 340.741C266.522 341.314 243.44 343.762 233.65 342.576C228.642 341.971 224.347 340.794 230.157 336.992C248.011 337.091 266.011 337.086 283.825 336.011C332.601 333.066 376.552 324.934 424.322 316.712C449.286 312.417 474.648 310.281 498.646 301.271C499.735 302.142 501.057 302.717 501.864 303.929Z" fill="#C0E4DD"/>
<path d="M171.714 268.401C205.925 271.859 230.154 273.991 263.45 285.37C282.295 291.812 336.592 311.184 347.194 325.923C348.08 327.155 349.459 326.637 347.726 329.291C340.909 327.57 334.755 325.879 328.178 323.146C308.644 315.045 291.207 301.407 271.439 294.191C236.498 281.436 199.872 275.931 163.179 272.18C164.581 269.966 167.697 268.865 169.251 267.45L169.434 268.753C170.199 268.909 171.115 268.341 171.714 268.401Z" fill="#C0E4DD"/>
<path d="M44.5069 352.296C30.5011 347.509 7.42998 339.853 -1.13844 327.593L2.75094 324.85C12.0835 331.745 23.073 335.571 33.8152 339.677C36.2779 340.628 38.7299 341.607 41.2034 342.53C43.9137 343.534 47.7907 346.125 50.2985 344.628C67.3764 351.009 84.7915 357.488 103.162 357.969C104.877 359.328 111.082 360.084 107.601 364.517C102.268 371.302 56.2577 354.873 47.9798 352.158C46.3616 351.63 44.6691 352.348 44.5011 352.283L44.5069 352.296Z" fill="#0EA591"/>
<path d="M246.262 166.999C248.08 169.063 245.654 171.738 244.553 173.478C229.027 198.023 210.081 223.016 192.243 244.888C185.647 252.975 179.628 261.842 171.727 268.395C171.128 268.336 170.221 268.907 169.447 268.748L169.264 267.444C197.798 241.47 224.048 199.037 246.265 166.99L246.262 166.999Z" fill="#0EA591"/>
<path d="M331.624 48.5588C331.533 48.6843 332.723 50.2375 331.628 51.6582C317.176 70.3145 304.193 86.6115 290.553 104.638C289.145 106.506 289.551 109.59 286.239 107.453C300.513 87.1736 315.02 67.0161 331.621 48.5681L331.624 48.5588Z" fill="#0EA591"/>
<path d="M653.874 448.952C663.346 426.732 671.412 401.654 682.968 380.947C683.528 385.408 680.318 392.444 678.312 396.944C677.403 398.994 675.309 400.779 675.121 401.264L660.379 439.437C659.825 440.873 655.426 447.461 653.874 448.952Z" fill="#0EA591"/>
<path d="M637.621 483.711C632.061 493.001 623.925 504.406 616.637 512.397C614.704 510.214 617.407 507.988 618.547 506.37C623.33 499.62 628.312 492.936 633.158 486.189C634.486 484.333 634.692 481.775 637.621 483.711Z" fill="#0EA591"/>
<path d="M151.902 272.07C151.853 272.169 152.734 273.163 152.687 273.756C141.923 272.15 131.178 273.714 120.439 273.651C119.23 273.645 115.002 273.878 115.131 272.019C126.933 270.853 140.257 269.995 151.902 272.07Z" fill="#0EA591"/>
<path d="M366.267 13.8165C366.934 18.3621 359.901 20.5558 357.494 22.8205C350.067 29.7824 343.978 38.2473 336.858 45.4989C335.355 47.0304 334.612 48.9837 332.1 47.3275C337.111 39.8188 358.507 19.5028 366.263 13.8259L366.267 13.8165Z" fill="#0EA591"/>
<path d="M679.37 243.705C671.511 246.651 661.374 250.444 653.011 253.335C652.645 253.783 652.775 255.056 651.971 255.528C651.014 256.091 648.022 255.15 646.659 255.127C648.967 254.314 651.885 253.726 653.011 253.335C656.375 249.232 655.658 252.31 658.441 251.294C664.818 248.965 671.91 244.008 679.37 243.705Z" fill="#0EA591"/>
<path d="M161.295 339.373C154.17 353.688 133.713 353.141 127.938 337.811C125.691 331.862 126.858 328.089 129.917 322.667C141.924 301.319 171.863 318.145 161.295 339.373ZM147.142 320.036C136.248 318.348 127.304 338.509 144.112 340.927C157.517 342.856 162.746 322.46 147.142 320.036Z" fill="#FEFDF4"/>
<path d="M453.158 344.775C464.727 347.324 458.657 367.898 446.788 358.437C439.995 353.016 446.284 343.256 453.158 344.775Z" fill="#C0E4DD"/>
<path d="M649.143 372.354C660.851 374.678 654.858 391.584 646.331 389.127C638.853 386.979 639.416 370.42 649.143 372.354Z" fill="#C0E4DD"/>
<path d="M367.521 298.966C378.878 299.869 376.806 316.531 367.578 315.529C358.349 314.527 358.173 298.218 367.521 298.966Z" fill="#C0E4DD"/>
<path d="M566.36 319.265C570.221 328.003 554.746 335.876 551.135 326.517C547.525 317.157 562.201 309.855 566.36 319.265Z" fill="#C0E4DD"/>
<path d="M369.315 243.08C381.716 244.139 375.642 266.084 364.197 257.248C357.946 252.421 362.64 242.517 369.315 243.08Z" fill="#C0E4DD"/>
<path d="M549.667 377.255C535.862 379.331 537.695 353.936 551.938 362.91C557.559 366.453 554.721 376.494 549.667 377.255Z" fill="#C0E4DD"/>
<path d="M312.903 217.027C326.66 219.767 316.801 240.047 307.035 230.444C302.157 225.644 305.796 215.612 312.903 217.027Z" fill="#C0E4DD"/>
<path d="M419.223 231.181C427.929 232.732 426.694 247.895 418.04 247.265C407.938 246.526 407.931 229.168 419.223 231.181Z" fill="#C0E4DD"/>
<path d="M610.458 296.568C619.439 298.546 616.339 313.15 609.315 312.603C596.773 311.629 600.77 294.424 610.458 296.568Z" fill="#C0E4DD"/>
<path d="M348.065 158.569C359.262 161.607 352.463 180.85 341.44 172.337C335.329 167.619 341.166 156.698 348.065 158.569Z" fill="#C0E4DD"/>
<path d="M305.379 185.242C299.213 187.996 292.58 180.299 296.241 172.848C302.538 160.068 316.302 180.359 305.379 185.242Z" fill="#C0E4DD"/>
<path d="M617.872 446.025C609.182 449.873 601.212 435.314 612.747 431.01C622.603 427.334 625.11 442.828 617.872 446.025Z" fill="#C0E4DD"/>
<path d="M375.017 41.5942C378.254 48.9225 366.383 59.2598 361.117 49.2722C355.852 39.2846 371.215 33.0079 375.017 41.5942Z" fill="#C0E4DD"/>
<path d="M513.836 334.356C516.004 339.234 511.536 348.722 503.809 345.276C490.004 339.109 508.344 321.986 513.836 334.356Z" fill="#C0E4DD"/>
<path d="M404.218 273.561C415.718 274.454 413.94 290.716 404.129 289.639C394.319 288.562 396.786 272.985 404.218 273.561Z" fill="#C0E4DD"/>
<path d="M523.901 471.286C532.378 466.767 541.399 483.158 529.959 486.104C520.449 488.552 516.278 475.342 523.901 471.286Z" fill="#C0E4DD"/>
<path d="M546.64 405.051C553.585 401.945 562.187 413.842 553.557 419.504C544.138 425.685 537.285 409.232 546.64 405.051Z" fill="#C0E4DD"/>
<path d="M598.883 387.022C607.706 383.108 614.032 398.425 604.014 402.049C593.387 405.889 591.574 390.266 598.883 387.022Z" fill="#C0E4DD"/>
<path d="M270.226 242.985C281.135 243.382 282.123 257.978 273.103 258.739C261.061 259.749 262.625 242.708 270.226 242.985Z" fill="#C0E4DD"/>
<path d="M446.407 274.236C457.601 275.118 455.212 290.993 446.277 290.394C436.406 289.723 437.875 273.567 446.407 274.236Z" fill="#C0E4DD"/>
<path d="M362.664 220.111C355.721 223.154 346.889 213.215 353.223 206.946C361.498 198.758 372.569 215.779 362.664 220.111Z" fill="#C0E4DD"/>
<path d="M438.666 385.906C449.489 388.306 445.419 404.561 435.15 400.896C427.266 398.076 429.23 383.805 438.666 385.906Z" fill="#C0E4DD"/>
<path d="M397.755 187.536C413.212 188.124 405.471 209.973 393.998 201.125C388.926 197.215 392.444 187.329 397.755 187.536Z" fill="#C0E4DD"/>
<path d="M338.03 107.859C350.638 108.826 346.945 129.826 333.889 121.578C328.1 117.917 331.513 107.357 338.03 107.859Z" fill="#C0E4DD"/>
<path d="M343.53 364.751C357.088 365.785 352.222 386.406 339.426 378.431C333.646 374.827 338.113 364.342 343.53 364.751Z" fill="#C0E4DD"/>
<path d="M384.853 365.949C380.406 355.923 397.192 349.821 399.195 361.121C401.199 372.422 387.819 372.647 384.853 365.949Z" fill="#C0E4DD"/>
<path d="M494.256 377.616C503.964 378.654 502.988 394.367 492.891 393.255C482.576 392.122 485.487 376.674 494.256 377.616Z" fill="#C0E4DD"/>
<path d="M387.364 141.137C396.895 143.853 392.037 163.706 380.689 154.95C374.719 150.339 379.869 139.003 387.364 141.137Z" fill="#C0E4DD"/>
<path d="M657.676 288.025C662.123 298.051 645.338 304.153 643.334 292.853C641.319 281.472 654.711 281.327 657.676 288.025Z" fill="#C0E4DD"/>
<path d="M385.809 93.98C389.016 105.66 371.152 106.2 370.595 96.1229C370.038 86.0456 383.57 85.8151 385.809 93.98Z" fill="#C0E4DD"/>
<path d="M337.454 70.9636C342.921 68.5193 349.917 75.4982 346.854 81.6799C339.613 96.2925 325.57 76.2794 337.454 70.9636Z" fill="#C0E4DD"/>
<path d="M646.834 345.413C634.511 350.923 634.16 325.103 647.989 330.54C654.794 333.211 651.073 343.512 646.834 345.413Z" fill="#C0E4DD"/>
<path d="M264.892 194.369C278.731 198.116 264.568 218.663 256.805 205.706C253.422 200.059 259.362 192.866 264.892 194.369Z" fill="#C0E4DD"/>
<path d="M598.189 342.77C610.979 343.24 607.508 363.553 595.421 356.988C587.395 352.623 593.55 342.597 598.189 342.77Z" fill="#C0E4DD"/>
<path d="M444.603 429.213C452.509 430.948 452.695 444.623 443.954 444.024C429.877 443.057 434.949 427.092 444.603 429.213Z" fill="#C0E4DD"/>
<path d="M489.868 434.806C487.127 428.634 495.982 418.279 503.082 427.431C510.104 436.479 494.33 444.848 489.868 434.806Z" fill="#C0E4DD"/>
<path d="M335.201 280.256C329.922 282.602 322.569 277.436 325.154 270.298C330.442 255.746 347.251 274.898 335.201 280.256Z" fill="#C0E4DD"/>
<path d="M585.863 486.715C598.56 481.039 599.893 509.704 584.06 499.794C579.105 496.691 581.86 488.503 585.863 486.715Z" fill="#C0E4DD"/>
<path d="M572.456 461.031C563.237 465.081 557.553 448.907 566.374 446.161C575.759 443.235 579.773 457.821 572.456 461.031Z" fill="#C0E4DD"/>
<path d="M311.111 130.126C314.459 137.722 303.231 146.421 297.845 137.523C292.35 128.433 306.858 120.486 311.111 130.126Z" fill="#C0E4DD"/>
<path d="M103.162 357.969C84.7824 357.484 67.3766 351.009 50.2987 344.628C47.592 343.615 43.7114 341.033 41.2036 342.53C38.7301 341.607 36.2782 340.628 33.8155 339.677C34.5662 335.679 36.6149 338.035 39.0203 338.857C54.5123 344.154 69.3743 350.194 85.5112 353.821C89.3769 354.692 100.091 354.403 102.197 355.195C103.307 355.623 102.952 357.791 103.175 357.963L103.162 357.969Z" fill="#FEFDF4"/>
<path d="M50.2986 344.628C47.7909 346.125 43.9139 343.534 41.2036 342.53C43.7113 341.033 47.5919 343.615 50.2986 344.628Z" fill="#C0E4DD"/>
<path d="M147.141 320.036C162.755 322.464 157.526 342.86 144.111 340.927C127.304 338.509 136.239 318.344 147.141 320.036Z" fill="#0EA591"/>
</g>
</g>
<defs>
<clipPath id="clip0_504_7304">
<rect width="669" height="516" fill="white"/>
</clipPath>
<clipPath id="clip1_504_7304">
<rect width="754.2" height="512" fill="white" transform="translate(149.457 -81) rotate(21.1166)"/>
</clipPath>
</defs>
</svg>
