<svg width="669" height="516" viewBox="0 0 669 516" fill="none" xmlns="http://www.w3.org/2000/svg">
<g clip-path="url(#clip0_504_11358)">
<rect width="669" height="516" fill="#D9D9D9" fill-opacity="0.6"/>
<g clip-path="url(#clip1_504_11358)">
<path d="M359.267 51.0831C359.313 51.3349 359.244 51.621 359.267 51.8843C360.044 60.7544 355.805 56.1991 350.88 56.0503C349.943 56.0275 340.458 57.1148 340.07 57.5039C339.75 57.8244 340.344 60.411 340.07 60.7086C339.75 61.052 334.973 60.3195 334.459 60.7086C334.276 60.8459 334.642 62.1507 334.459 62.3109C334.344 62.4139 332.459 62.3338 331.499 62.9175C328.619 64.6687 325.843 68.2396 323.694 69.5558C322.015 70.5745 319.923 70.3684 318.484 71.5473C316.712 73.0123 316.141 77.3272 314.096 79.1699C311.582 81.4361 307.022 81.0584 305.354 82.2601C304.542 82.8324 304.977 84.5263 304.451 85.4877C302.405 89.1845 299.126 87.4563 295.869 88.1316C294.155 88.4864 291.995 90.1459 290.487 91.1531C288.339 92.5952 287.882 91.7254 286.487 95.159C286.396 95.3879 286.579 95.7313 286.487 95.9602C284.362 95.4909 284.979 97.0818 284.465 98.295C281.197 106.089 283.848 108.767 284.122 116.356C284.305 121.46 283.014 135.115 284.042 138.72C284.396 139.99 289.744 140.425 290.487 137.61C290.715 136.763 290.327 135.378 290.487 134.405L292.075 136.808C293.149 126.531 291.961 116.779 292.178 106.467C296.223 104.578 301.183 104.441 305.114 103.01C308.496 101.774 312.267 96.7842 315.501 97.6884C316.827 98.0546 317.901 100.744 319.238 99.9431C319.306 99.8973 319.158 98.7643 319.809 98.3637C322.152 96.933 325.534 96.8872 327.271 93.5681C331.385 92.0916 331.933 93.7512 334.687 93.4079C336.71 93.1561 338.721 90.558 340.527 90.352C341.921 90.1917 343.269 91.1073 344.355 90.9471C347.417 90.5007 365.815 72.8406 362.101 91.2104C358.513 108.951 326.403 123.028 312.164 131.704C308.039 134.222 296.852 143.481 292.498 143.927C291.698 144.008 290.27 142.966 289.778 143.287C289.538 143.447 288.613 146.32 287.642 147.201C286.67 148.082 285.013 148.116 284.476 148.803C284.213 149.147 284.785 150.703 284.305 151.79C283.059 154.617 280.854 157.021 279.3 159.676C283.254 160.031 286.625 159.836 288.864 163.751C289.013 164.998 288.099 165.193 287.299 165.674C283.151 166.177 277.277 164.598 273.7 166.475C273.049 166.818 271.906 167.951 271.438 168.592L267.313 176.089C277.631 171.831 283.174 181.995 270.706 183.906C264.273 184.89 259.816 182.441 255.314 189.32L263.37 194.069C265.713 204.817 252.514 195.397 249.486 196.233C247.784 196.702 235.339 209.418 232.06 211.684C229.763 213.275 219.627 217.509 219.318 218.15C218.667 219.535 220.255 219.398 220.918 219.695C227.512 222.637 232.574 225.933 238.105 230.546C239.133 228.371 238.687 223.461 241.453 222.648C247.201 220.977 245.521 233.006 247.441 236.406C248.858 238.924 253.726 241.567 255.291 245.768C255.485 246.306 255.154 247.45 255.291 248.171C257.759 250.483 258.754 237.722 259.154 236.451C259.554 235.181 261.279 235.433 260.891 233.762C261.85 233.865 261.885 234.094 262.49 234.563C265.027 240.583 261.153 248.652 263.29 253.791C264.616 256.984 270.067 263.623 272.603 266.083C273.872 267.01 276.774 273.511 278.066 272.996C279.06 272.607 280.705 269.78 282.476 269.402C276.169 266.518 270.775 259.399 282.042 261.024C283.448 261.23 284.511 262.318 285.47 262.478C289.047 263.039 294.601 250.506 298.452 248.572C297.229 246.878 294.795 246.317 293.755 244.486C287.767 233.956 303.411 242.334 305.879 241.659C307.822 241.133 315.078 231.999 318.404 230.969C308.131 219.627 319.226 213.275 324.06 226.551C329.431 224.342 334.516 220.073 340.847 220.142C338.504 216.216 338.287 207.998 344.469 211.306C351.6 215.129 347.132 217.109 358.444 216.937C361.29 221.149 361.027 226.345 364.924 230.076C367.403 232.446 374.511 235.742 377.962 235.341C382.144 234.849 390.006 229.973 390.429 225.269C390.486 224.617 389.904 218.002 389.641 217.727C389.286 217.361 386.807 217.727 386.018 218.517C384.178 220.371 385.653 226.002 380.088 227.799C369.974 231.049 367.952 216.388 362.455 216.136C362.021 214.82 361.358 213.938 360.421 212.931C353.371 205.457 347.04 191.242 350.663 180.701C351.108 179.396 355.748 170.595 356.502 169.725C359.496 166.257 369.312 163.499 373.163 165.765C374.557 166.578 381.036 173.926 381.802 175.528C382.99 178.023 383.584 183.494 384.041 186.504C384.156 191.437 383.881 196.416 384.041 201.36C384.099 202.905 383.23 204.576 385.641 204.13C385.641 204.668 385.675 205.206 385.641 205.732C383.219 206.636 384.133 209.669 384.053 211.741L384.841 212.142C386.978 212.199 385.493 205.881 391.412 208.342C395.731 210.139 396.291 210.574 401.971 209.681C406.564 208.96 407.159 208.25 409.993 205.732C414.358 201.841 414.575 207.14 417.397 207.964C425.545 210.368 426.436 204.542 431.738 201.841C438.343 198.487 437.258 204.633 435.224 208.937H447.622C448.879 208.937 453.153 211.833 453.622 211.34C454.696 207.06 453.359 203.317 453.633 198.934C454.056 192.353 457.015 175.345 461.266 170.538C467.54 163.442 483.069 165.811 487.08 174.235C490.349 181.102 491.137 187.637 488.623 194.733C485.263 204.233 479.938 210.379 473.619 217.75C469.425 222.637 467.243 228.634 459.335 226.036C458.135 225.636 456.455 224.468 456.021 223.358C455.644 222.408 456.73 220.176 454.719 219.444C451.713 218.333 451.77 220.302 451.222 222.557C450.97 223.587 450.056 223.312 450.765 225.761C454.479 238.637 476.716 234.918 477.619 221.756C480.293 216.594 488.383 220.794 492.051 219.81C493.697 219.364 495.571 216.731 497.571 215.69C500.382 214.236 507.832 211.741 506.289 217.177C505.65 219.421 501.033 220.84 501.627 222.133C505.89 225.292 511.946 228.428 517.34 228.657C520.048 228.772 532.903 224.937 530.035 231.347C529.612 233.659 523.385 234.208 524.013 235.753C524.436 236.795 530.595 240.892 532.046 242.151C532.709 242.735 535.383 246.58 535.726 246.615C537.269 246.775 539.143 245.115 541.2 244.932C543.634 244.715 550.01 245.23 548.433 248.961C547.919 251.342 542.034 251.719 542.445 253.345C542.891 255.107 547.69 259.971 549.141 261.86C551.221 264.573 551.176 268.304 555.586 268.224C561.883 268.109 563.46 260.807 566.865 256.263C569.745 252.418 575.927 246.901 577.927 243.319C580.818 238.134 578.041 228.302 584.383 224.171L587.434 229.103L588.371 236.165C590.485 233.109 595.262 232.835 597.124 229.71C599.17 226.276 599.021 216.685 602.369 214.911C606.929 212.496 607.272 223.106 605.58 225.75L621.567 217.338L609.774 211.546C603.089 211.111 593.742 201.978 588.188 201.062C584.097 200.387 576.144 204.725 572.007 201.314C567.585 197.663 579.858 195.603 581.583 194.115C578.155 194.035 575.424 190.235 572.75 189.32C570.419 188.518 551.176 193.909 551.164 186.916C551.164 183.162 560.546 182.155 563.185 182.109C559.289 180.999 559.654 178.435 557.643 176.444C556.112 174.91 549.393 169.164 547.736 168.661C545.919 168.111 544.765 168.947 543.188 168.558C518.151 162.503 482.567 149.272 461.083 135.378C458.707 133.844 455.221 133.398 453.279 131.177C451.165 128.751 449.999 124.425 453.164 122.376C456.33 120.327 471.802 125.398 477.184 125.661C482.567 125.924 480.544 124.882 482.384 123.635C486.486 120.877 488.349 130.582 493.891 128.751C494.919 128.408 495.274 125.386 498.69 125.855C502.107 126.325 502.313 132.368 509.032 130.273C510.906 129.689 510.86 127.389 514.746 128.03C518.631 128.671 516.917 131.91 517.968 133.672C518.437 134.451 525.053 133.718 526.584 133.444C529.567 132.894 540.948 131.67 541.588 131.246C540.868 138.731 541.394 147.075 543.714 154.343C544.685 157.353 545.725 157.032 548.776 156.872C548.102 150.543 545.576 143.618 545.519 137.255C545.496 134.039 547.107 131.372 547.187 128.843C547.302 125.134 542.045 116.047 539.131 114.078C538.514 113.666 529.715 110.427 529.19 110.438C526.767 110.507 526.059 114.33 520.619 111.789C515.18 109.248 517.888 103.285 512.323 103.228C510.003 103.205 511.626 107.291 507.615 107.291C503.901 107.291 504.93 103.8 503.433 103.205C499.582 101.694 496.576 104.063 493.982 103.926C492.417 103.846 491.228 101.797 489.16 101.591C484.486 101.122 478.224 103.754 473.791 104.624C472.282 104.922 470.934 104.109 469.014 104.498C462.66 105.792 444.777 119.503 447.999 102.736C463.495 84.3432 484.692 69.7389 509.306 67.221C523.659 65.756 557.643 76.9838 569.882 84.8811C572.727 86.7238 576.018 89.8484 578.806 91.9543C579.641 89.8369 581.286 82.9468 583.709 82.489C589.365 81.4246 584.669 94.6211 585.994 97.5396C586.474 98.5811 595.856 105.277 597.593 106.375C597.856 106.547 597.684 107.623 599.193 107.177C598.941 102.69 599.193 98.7986 600.587 94.5295C600.815 93.8428 600.415 92.1489 601.981 92.7669C602.872 93.1103 603.786 94.5638 603.981 95.5825C604.803 100.046 603.889 110.793 604.929 113.861C605.283 114.891 611.214 118.656 612.791 119.206C614.379 120.533 615.911 121.987 617.579 123.211C618.139 120.293 615.956 114.387 619.602 113.597C628.149 111.743 624.275 127.16 626.538 131.475C627.463 133.249 635.977 136.477 635.188 140.837C638.411 138.205 638.365 132.722 642.787 131.406C649.175 137.198 638.525 145.278 643.427 151.813C644.136 152.752 646.33 153.496 647.541 155.304C648.889 157.33 648.821 159.974 650.763 161.588C652.889 160.374 658.808 156.22 659.894 160.626C660.774 164.22 653.597 167.184 652.923 169.451C652.066 172.358 654.523 177.485 653.575 180.884C655.3 182.819 663.882 167.665 666.784 172.049C668.876 175.207 663.848 182.166 661.597 184.524C659.345 186.882 653.22 189.514 653.517 192.467C653.677 194.035 657.814 197.526 658.763 200.113C661.962 208.845 660.351 217.04 658.363 225.75C660.499 225.017 669.63 222.179 669.436 225.99C669.15 231.667 658.751 232.171 655.506 236.119C654.237 237.665 654.18 239.496 653.129 240.949C650.992 243.879 647.484 245.447 645.564 248.595C648.924 248.423 659.151 246.844 655.551 252.99C655.117 253.722 649.061 257.156 647.987 257.431C644.89 258.209 638.696 257.831 635.977 259.823C635.097 260.464 635.12 262.18 634.377 263.027C632.389 265.282 629.989 267.193 627.989 269.425C627.989 270.627 639.473 272.79 636.697 276.968C635.074 279.406 623.007 276.659 620.036 276.636C617.933 279.371 608.209 283.045 607.192 285.472C606.38 287.406 613.728 286.525 614.425 288.619C620.23 293.85 609.42 293.392 605.992 293.06C603.638 292.831 600.072 291.068 598.164 291.583C597.41 291.789 588.142 299.252 585.503 300.591C582.429 302.147 579.584 302.434 576.795 303.487L575.995 304.288C575.755 304.379 575.424 304.196 575.195 304.288C572.384 303.361 574.224 297.318 572.67 296.379C571.916 295.921 570.008 296.596 569.642 296.23C569.276 295.864 570.213 291.675 567.196 292.27C568.968 295.875 566.579 305.444 571.996 305.879C570.156 309.896 569.105 314.257 568.808 318.697C570.887 316.363 577.401 316.134 577.447 319.773C577.481 322.497 569.813 324.832 568.431 327.545C568.202 331.161 565.619 334.297 564.854 337.582C564.591 338.692 564.865 339.059 565.985 338.715C567.756 338.177 570.647 335.991 572.819 335.133C584.234 330.6 595.067 326.251 606.22 321.33C610.266 319.544 619.476 317.255 622.344 315.046C625.441 312.654 625.292 303.406 629.806 301.667C634.811 299.732 635.063 306.634 633.588 309.884L643.941 305.444C647.404 302.525 652.089 288.997 656.511 288.447C663.711 287.555 656.74 299.252 655.174 301.861C660.842 299.572 665.047 296.814 670.978 294.857C672.338 294.41 674.304 294.948 675.161 294.662C678.052 301.449 683.171 307.504 688.759 312.288C687.41 316.546 688.21 318.159 683.685 321.627C679.857 324.557 674.704 325.198 671.172 328.712C674.738 328.151 685.639 331.871 680.737 335.888C676.909 339.024 668.51 334.812 664.35 334.675C660.831 334.561 646.284 338.498 644.787 341.531C646.947 343.614 650.706 343.579 652.786 344.335C652.043 345.159 652.935 346.944 652.443 347.551C650.181 350.367 636.262 345.479 632.377 345.548C630.503 345.582 628.172 346.532 626.355 347.15C625.064 347.585 623.532 347.013 623.99 349.142C622.733 349.543 619.682 349.336 620.001 351.133C623.327 352.724 624.869 353.903 624.789 357.955C619.156 360.255 610.46 353.525 606.175 354.098C603.752 354.418 600.701 357.451 598.587 358.55C596.827 359.466 589.388 363.826 588.851 364.009C580.601 366.848 567.928 367.752 559.026 370.19C557.86 370.51 550.707 372.971 550.136 373.303C548.959 373.99 546.707 380.628 545.61 382.791C543.462 387.037 537.36 397.304 536.377 401.195C535.326 405.361 537.954 404.629 540.411 402.809C546.056 398.631 545.942 390.414 548.022 384.393C574.601 381.75 600.381 371.415 626.881 366.848C638.925 364.776 658.968 360.919 670.441 363.105C672.212 363.449 673.938 364.948 675.663 365.142C677.972 365.406 679.663 364.33 682.394 364.673C687.033 365.257 689.879 369.709 692.416 369.961C694.564 370.167 702.654 367.168 706.071 366.859C709.294 366.562 713.259 365.738 714.196 369.583C711.328 373.257 706.128 373.486 701.946 374.757C698.141 375.912 705.02 377.881 706.631 378.911C707.819 379.678 712.927 383.89 713.476 384.039C717.91 385.195 739.141 385.034 739.918 389.681C740.067 390.54 738.227 392.394 737.964 392.394H723.966C729.497 396.525 735.828 402.294 739.164 408.417C739.359 408.761 738.799 410.203 739.267 410.695C739.861 411.313 751.449 413.053 753.78 414.838C753.985 414.998 756.739 418.89 755.551 418.844C751.597 418.249 748.032 415.937 743.964 416.44C742.798 421.11 747.449 421.568 747.849 422.174C748.249 422.781 747.655 424.257 748.123 425.059C748.397 425.528 749.86 425.654 750.374 426.398C753.883 431.491 753.7 433.917 759.996 436.836C762.441 437.969 765.732 438.324 768.178 438.896C768.521 438.976 773.526 442.993 773.583 443.337C773.869 444.79 773.206 445.912 771.617 446.038C768.852 446.255 763.447 440.269 761.219 443.737C757.996 448.762 762.819 448.281 763.676 450.307C764.361 451.932 764.43 461.352 763.87 462.016C763.344 462.634 759.253 461.798 759.95 464.499C759.699 464.556 759.402 464.442 759.15 464.499C754.134 465.598 756.282 465.644 753.185 466.914C748.432 468.86 745.301 467.006 741.655 464.591C741.21 464.293 740.158 464.625 739.998 464.476C739.713 464.19 741.621 455.995 738.387 458.616C738.09 458.857 738.147 460.528 735.61 459.738C735.13 459.589 734.456 455.686 733.176 455.698C729.668 455.744 730.822 464.099 730 465.312C727.509 468.94 726.286 463.389 726.309 460.882C726.377 453.374 729.965 452.07 724.789 444.825C724.286 444.127 722.983 442.776 722.081 441.597C719.681 438.461 715.487 436.847 715.978 431.64C715.076 432.395 711.579 432.922 711.293 433.345C711.008 433.769 711.522 444.436 707.979 441.666C705.283 439.56 707.397 429.007 705.591 425.23C704.574 423.102 701.569 419.702 699.992 417.219C699.135 415.857 699.912 415.364 697.592 414.014C697.364 413.877 696.495 414.071 695.992 414.014C695.878 414.003 695.295 411.851 695.192 414.403C695.09 416.807 695.547 420.126 694.244 422.277C693.547 423.422 692.084 424.383 691.204 423.639C689.81 422.449 690.987 410.695 689.959 407.65C688.93 404.606 679.869 397.475 676.795 395.598C676.018 394.751 674.109 393.641 673.595 392.394C672.235 389.075 674.235 383.455 674.384 379.964C674.555 375.947 675.606 368.256 672.281 366.07C665.847 364.879 667.402 384.817 666.442 388.708C666.579 390.723 667.596 392.039 669.584 392.382C668.281 398.803 653.975 397.567 651.186 400.405C649.815 401.802 651.712 401.756 652.318 402.065C653.403 402.626 665.825 407.822 659.448 409.882C654.089 411.61 643.976 405.876 638.799 404.366L620.79 408.417C623.224 411.599 632.011 413.224 630.389 418.02C621.738 420.16 609.054 409.264 602.106 409.264C600.05 409.264 587.183 411.45 589.594 414.804C589.891 415.216 598.118 416.807 597.593 420.423C595.513 422.896 591.548 421.637 588.611 421.007C584.76 420.16 576.555 415.811 574.03 415.731C564.922 415.456 552.924 417.779 544.433 417.253C540.228 416.99 529.064 412.766 526.481 416.097C525.887 416.864 522.07 424.841 522.402 425.219C525.487 425.539 528.538 426.478 531.612 426.821C536.8 427.405 544.388 426.638 549.05 427.645C549.599 427.76 549.439 430.083 552.284 429.236C552.844 429.065 552.764 427.622 553.244 427.611C554.009 427.577 555.986 428.355 557.586 428.435C558.169 430.346 559.7 429.923 561.151 430.072C572.521 431.216 583.846 432.613 595.17 434.055C595.536 435.417 593.685 434.455 593.536 435.245C593.01 438.164 596.621 438.862 596.781 437.557C596.873 436.824 596.576 435.039 596.759 434.833C597.147 434.421 601.547 435.714 602.358 434.043C610.723 435.451 620.584 437.202 628.926 439.068C634.114 440.224 648.672 444.47 651.986 448.018C653.255 449.369 653.209 450.799 653.757 451.44C654.854 452.711 659.997 455.847 662.351 458.456C664.133 460.436 668.213 467.177 669.573 468.047C672.338 469.81 688.039 471.904 686.999 477.593C686.611 479.744 683.72 479.779 682.028 479.653C679.286 479.447 676.886 477.501 674.326 477.707C678.372 482.102 680.074 491.682 683.582 495.676C686.234 498.698 702.346 503.253 700.677 508.861C699.569 512.615 690.164 507.076 689.525 507.751C690.29 510.395 689.982 513.325 690.507 515.969C690.736 517.125 692.724 524.736 692.941 525.159C693.993 527.162 702.586 532.461 705.123 535.769C706.711 537.829 709.054 540.931 707.157 543.46C704.837 546.574 700.483 540.496 697.501 540.599C697.718 546.253 704.277 561.693 697.501 564.623C689.742 565.012 682.051 569.384 674.304 567.026C671.63 562.906 668.419 559.003 667.093 554.219L661.494 562.654C652.729 562.952 660.979 548.874 661.505 543.804C661.916 539.912 660.191 537.795 659.265 534.396C658.888 532.988 661.037 531.466 658.328 531.786C657.7 528.879 662.888 531.328 660.351 527.757C659.448 526.487 655.917 527.151 655.517 524.587C654.043 525.285 651.895 532.175 651.118 534.201C651.026 534.43 651.209 534.773 651.118 535.002C649.472 536.227 648.878 538.505 646.318 538.207C645.587 537.406 647.404 527.963 647.918 526.201C648.718 523.408 651.803 518.521 651.838 516.999C651.849 516.175 647.301 502.383 646.73 501.353C646.524 500.987 645.736 500.334 645.53 500.563C644.787 504.581 642.81 510.727 637.634 509.262C634.251 507.11 641.233 492.563 641.325 489.61C641.382 487.859 638.765 483.51 638.399 480.877C638.194 479.39 638.011 474.571 638.331 473.335C638.891 471.183 644.696 467.486 646.067 465.861C646.535 465.3 646.535 464.099 647.118 463.355C648.604 461.466 657.654 450.742 648.684 453.66C646.57 454.347 638.468 463.172 637.177 465.369C635.268 468.608 635.942 469.398 637.531 472.545C632.011 472.11 624.881 473.77 619.933 470.943C619.819 470.874 620.139 469.833 619.83 469.512C619.453 469.135 610.883 469.547 609.146 469.329C606.232 468.963 598.484 466.365 596.439 466.983C595.147 467.372 593.959 471.389 597.536 470.142C600.164 473.175 603.889 477.272 601.101 481.392C593.308 481.244 589.914 468.288 583.354 467.12C579.241 466.388 573.881 466.903 569.55 466.136C571.447 468.791 574.521 470.668 574.293 474.445C566.145 480.294 561.837 466.617 556.181 463.904C551.907 461.855 545.805 462.691 541.371 461.913C534.286 460.676 519.031 456.201 512.86 452.825C509.158 450.799 503.593 446.931 501.17 443.669C499.445 443.383 496.211 447.526 494.325 448.853C488.372 453.042 481.892 453.065 493.845 459.063C505.501 464.9 518.094 468.78 530.218 473.095C536.423 475.304 541.44 479.973 545.782 481.53C549.77 482.961 556.363 482.171 558.74 486.966C560.649 490.823 557.723 490.205 555.164 491.35C559.449 495.081 575.995 512.261 575.961 517.033C575.927 522.287 567.059 516.209 565.562 514.195C564.488 519.586 566.431 524.644 567.174 529.875C567.345 531.065 566.442 532.507 566.785 533.469C567.128 534.43 572.133 538.505 573.424 540.359C581.846 552.537 573.264 554.036 565.562 544.639C566.808 548.576 564.351 552.628 563.985 555.489C563.928 555.901 565.117 555.844 565.539 556.439C568.008 559.942 571.527 564.806 571.95 569.064C573.001 579.444 568.225 576.217 564.614 570.014C563.631 568.32 563.951 564.932 561.551 565.47C561.551 566.866 561.654 568.285 561.346 569.67C559.426 578.002 557.746 587.285 551.198 593.145C549.484 594.678 542.605 599.039 540.24 600.595C528.881 608.069 515.351 614.295 502.37 618.336C499.193 617.054 482.784 623.063 483.309 617.283C483.424 616.001 485.058 613.792 486.086 612.842C491.217 608.104 501.993 604.258 507.969 599.909C508.255 599.703 508.472 599.325 508.769 599.108C511.832 597.185 515.283 595.456 517.568 592.698C517.694 592.538 517.442 592.069 517.568 591.897C519.248 591.531 519.762 590.569 520.768 589.493C524.527 585.476 528.184 583.21 531.795 579.319L532.755 565.47L526.093 567.118C523.727 564.588 525.133 562.322 527.133 560.228C528.573 558.728 533.978 556.05 534.206 555.695C535.417 553.841 535.109 543.609 536.754 540.633C535.715 539.58 529.978 546.699 526.321 544.273C521.453 541.034 535.932 531.706 536.937 530.001C537.943 528.295 541.417 512.306 540.651 511.105C535.189 508.426 530.229 511.62 525.624 508.094C525.03 507.648 524.813 506.389 524.664 506.32C524.493 506.229 522.539 507.053 520.745 506.687C518.768 506.286 511.043 501.639 510.369 502.2C511.74 504.546 514.54 512.032 512.574 514C507.661 518.922 503.707 502.406 502.176 500.781C500.336 498.847 492.097 496.477 489.96 493.387C487.926 492.586 488.932 498.652 488.703 500.117C488.44 501.811 487.252 506.835 484.761 505.805C479.87 503.791 483.035 491.121 479.641 486.898C478.007 484.86 473.219 482.548 471.574 479.779C470.225 479.779 468.58 491.155 464.843 485.696C461.643 481.015 467.174 472.065 463.22 468.105C460.786 465.667 449.496 468.242 445.577 466.949C446.868 468.734 450.079 475.624 446.045 475.716C439.143 475.876 438.778 467.887 434.412 466.491C430.824 465.346 426.471 467.99 422.38 466.136C421.58 466.903 426.516 471.149 424.425 474.193C422.025 477.684 414.701 470.542 413.398 468.299C412.918 467.475 412.952 465.644 412.701 465.426C411.695 464.545 402.165 466.388 399.994 464.534C399.879 477.764 390.475 476.505 391.983 463.732C387.218 464.144 375.951 459.761 372.888 464.225C372.58 464.671 368.558 473.461 368.363 474.102C367.392 477.352 369.997 488.019 365.187 488.592C360.958 489.084 361.267 485.295 360.787 482.159C360.49 481.85 355.073 487.149 354.399 487.768C354.239 487.916 353.108 487.31 352.537 488.729C351.222 491.957 350.617 505.451 348.023 506.641C344.046 508.449 346.309 498.24 345.189 495.802C343.452 492.002 342.641 496.352 342.401 496.592C340.458 498.515 334.562 500.518 332.779 502.578C330.528 505.199 325.157 523.214 319.946 519.471C317.009 517.068 323.386 507.476 322.392 506.195C313.581 511.963 302.885 513.165 293.572 517.869C295.583 520.97 295.938 530.47 298.006 532.622C298.977 533.629 301.48 533.949 302.954 534.876C306.028 536.811 313.524 541.721 314.061 545.406C314.895 551.037 302.908 544.468 301.194 543.048C300.006 542.671 303.468 556.348 303.902 556.989C304.131 557.321 309.685 558.98 311.444 560.01C322.872 566.694 316.347 573.539 307.193 566.271C308.553 573.653 310.999 581.688 316.107 587.376C320.575 592.343 339.212 604.143 345.577 606.719C347.623 607.543 350.023 607.451 352.514 608.584C359.153 611.606 363.027 619.457 353.108 620.671C343.189 621.884 323.317 615.532 313.97 611.148C305.125 607.005 289.641 598.982 285.425 590.066L277.586 569.476L273.255 577.533C268.855 580.726 267.701 574.031 268.044 570.746C268.467 566.683 272.603 561.258 272.775 558.591C272.958 555.65 269.701 549.492 271.186 545.429C269.347 544.971 269.872 545.772 269.358 546.436C267.553 548.76 265.084 555.18 261.565 553.052C258.891 551.438 261.599 543.758 262.742 541.377C263.724 539.329 267.735 535.689 267.85 535.3C269.187 530.962 267.553 522.985 268.775 518.189C266.17 520.226 264.353 524.862 261.519 526.521C260.113 527.345 258.434 527.838 256.8 527.792C255.851 518.281 263.107 513.256 268.81 507.385C272.752 503.333 275.323 499.007 280.785 496.146L275.986 495.745C274.889 488.248 281.985 489.667 286.19 487.939C288.853 486.84 292.944 483.041 296.498 481.45C304.177 478.016 312.621 475.498 320.529 471.881C326.265 469.26 347.44 459.395 348.651 453.5C349.108 451.268 340.789 446.072 339.59 446.061C338.938 446.061 339.224 447.778 337.853 448.338C332.516 450.536 326.78 452.825 321.34 455.045C311.067 459.246 303.845 460.562 293.561 463.263C290.327 464.11 287.779 466.182 284.191 466.697C280.362 467.246 276.809 466.433 272.958 467.452C268.238 468.7 269.324 470.6 266.833 473.335C264.741 475.624 256.765 485.078 253.966 480.534C252.309 477.844 258.914 471.962 260.011 469.318C259.291 468.791 243.784 470.485 242.23 471.126C238.288 472.728 231.066 485.513 225.58 481.77C222.906 479.95 227.386 474.239 228.826 472.522L199.229 473.312C199.332 473.163 199.949 470.016 199.926 469.673C199.869 468.471 188.568 451.864 187.482 451.68C186.465 451.497 185.014 451.532 184.374 452.436C181.471 456.499 192.11 467.509 194.419 470.909C199.561 477.593 190.716 486.188 190.59 492.288C190.579 492.895 194.601 501.159 195.173 503.402C195.813 505.954 196.304 508.3 196.018 510.967C188.191 512.776 192.727 502.303 186.431 502.154C185.985 507.156 181.14 513.05 181.003 517.914C180.98 518.716 184.123 525.343 184.603 527.609C185.242 530.665 185.711 533.56 184.831 536.605C183.711 536.914 182.146 536.65 181.22 535.815C179.609 534.339 178.992 529.188 176.843 527.803C176.718 532.152 170.901 539.249 170.627 542.751C170.353 546.253 178.112 555.947 174.878 560.674C171.93 564.989 166.822 554.78 166.045 552.628C164.696 553.28 163.405 559.186 162.32 560.915C161.028 562.986 158.526 564.051 157.634 565.435C149.967 564.634 143.362 559.312 136.037 559.026C131.215 554.23 135.134 550.476 135.991 545.761C136.391 543.518 137.774 533.457 134.449 535.391C134.837 535.712 135.066 536.147 135.237 536.593C131.889 537.692 130.015 540.92 126.038 540.679C122.062 540.439 126.004 532.736 127.638 530.996C130.415 528.044 138.78 524.873 140.402 522.95C143.328 519.482 144.047 508.861 146.436 504.569C145.796 504.066 130.815 511.105 133.18 503.722C135.066 497.805 148.984 497.153 150.847 494.944C151.612 494.04 152.229 490.251 153.201 488.489C155.589 484.151 160.72 479.012 160.445 474.125C157.84 476.654 143.328 478.6 148.378 472.477C152.983 466.891 161.154 467.876 166.719 465.186C172.947 462.164 173.655 454.816 179.46 451.509C180.523 450.902 182.226 451.12 183.208 450.467C184.397 449.678 184.545 447.446 185.585 446.439C186.225 445.82 194.956 442.73 196.613 442.272C210.645 438.358 227.729 436.069 242.413 434.078C243.235 435.451 245.395 434.925 246.709 434.787C264.444 432.91 281.848 430.198 299.606 428.481C303.48 428.103 319.352 428.881 321.203 425.288C323.054 421.694 319.912 422.003 318.689 420.938C316.884 419.359 317.009 418.283 314.381 417.264C314.176 417.184 313.856 417.31 313.581 417.264C309.228 416.509 302.234 419.267 297.172 419.656C292.11 420.046 284.785 419.966 279.551 419.702C273.723 419.405 261.725 416.372 257.142 416.818C254.583 417.07 249.246 421.659 244.732 422.415C243.144 422.678 242.321 422.781 240.79 422.06C240.333 418.581 243.955 417.779 245.589 415.662C239.979 416.612 230.197 411.015 225.832 411.05C223.318 411.073 213.068 419.885 208.028 418.043C205.983 413.098 213.479 412.263 214.393 407.662C207.948 408.268 199.104 402.248 193.379 403.004C191.573 403.244 189.151 405.579 187.059 406.3C183.688 407.467 173.187 409.241 176.386 402.843C177.483 400.646 182.683 400.108 183.997 398.048C177.095 397.166 171.884 392.451 165.611 390.025C165.782 389.899 168.056 386.66 168.079 386.442C168.696 381.326 167.61 373.772 167.21 368.393C167.176 367.866 167.233 367.317 167.21 366.791L166.41 365.989C165.633 351.683 175.632 360.942 180.614 361.846C186.008 362.819 192.613 361.858 199.207 363.174C223.592 368.027 248.423 376.279 272.466 382.722C278.625 384.371 284.876 385.778 291.173 386.82C291.264 389.796 299.332 403.805 301.56 406.449C304.428 409.836 308.37 409.012 306.736 404.48C305.925 402.225 300.051 392.691 298.383 390.402C296.258 387.472 293.515 385.916 291.961 383.615C290.978 382.162 290.738 380.033 289.927 378.842C287.927 375.947 268.707 372.719 263.999 371.174C259.919 369.835 251.543 364.044 249.795 363.712C247.658 363.3 245.829 364.593 244.527 364.284C243.007 363.918 242.287 361.114 240.733 360.038C236.962 357.417 228.86 356.227 224.186 353.354C219.044 350.195 217.456 349.325 211.685 346.67C209.834 345.811 207.103 343.236 205.777 342.904C203.515 342.343 184.625 351.259 189.208 341.176C190.305 338.761 196.693 338.154 195.184 336.369C193.676 334.583 183.757 332.5 180.877 331.058C177.403 329.307 176.249 325.713 171.987 324.672C167.999 323.688 151.464 331.631 152.035 323.916C152.332 319.899 159.074 320.185 161.588 318.331C158.937 315.481 153.338 313.97 150.778 311.544C148.813 309.69 148.915 307.252 148.001 305.913L163.199 286.685C164.445 286.673 165.553 285.369 168.193 286.067C169.644 286.444 178.032 292.774 178.386 292.293C177.735 289.661 175.724 275.972 181.837 280.23C185.128 282.519 186.305 295.589 188.556 297.947C190.99 300.511 199.389 303.029 202.383 305.913C202.989 305.123 199.389 298.691 203.766 297.272C208.897 295.601 208.634 303.075 210.862 306.645C214.405 312.311 221.901 315.756 227.98 317.931C228.163 314.932 226.575 308.66 231.42 310.056C235.694 311.292 236.871 319.979 239.236 323.092C249.989 327.693 262.353 337.697 273.186 341.153C273.598 341.279 274.489 341.371 274.363 340.764C272.661 339.356 272.192 332.592 271.026 331.699C270.341 331.184 254.914 330.223 264.479 325.233C265.964 324.454 268.592 324.454 268.741 324.294C269.632 323.39 268.067 317.553 267.975 315.916C267.815 313.043 270.318 312.757 267.187 309.907C273.632 308.626 270.512 303.349 271.232 298.336C271.484 296.608 275.529 288.962 272.375 288.276C268.478 287.429 266.09 302.96 265.953 305.879C265.896 307.115 267.621 308.694 264.787 308.305C260.811 306.108 256.148 304.757 252.057 302.239C247.326 299.32 237.716 289.901 233.648 288.642C229.58 287.383 212.599 289.386 211.285 287.417C210.451 286.181 211.834 283.389 213.205 282.668L221.604 279.886C216.999 276.853 213.65 270.925 208.862 268.613C205.434 266.953 192.75 265.374 191.596 263.474C188.853 258.987 195.504 259.079 198.007 258.621C199.024 258.438 199.446 259.193 199.207 257.454C195.676 254.936 194.544 250.449 191.242 247.794C188.168 245.333 178.729 241.327 177.232 237.802C174.649 231.713 179.529 232.217 184.008 232.617C182.42 229.985 178.912 228.199 177.986 225.04C177.129 222.11 178.318 218.642 177.209 216.205C175.826 213.16 163.394 206.236 167.599 202.573C170.387 200.147 175.175 204.759 178.42 204.977C176.398 202.23 178.078 196.519 177.506 194.356C177.129 192.948 166.913 184.822 174.215 183.563C179.038 182.727 179.232 185.337 183.208 186.561C184.854 183.654 184.443 180.575 185.174 177.703C185.7 175.665 187.939 169.943 187.814 168.649C187.448 164.952 181.014 158.291 183.323 153.026C187.642 149.089 190.75 159.951 192.796 158.52C193.104 158.303 195.915 152.42 195.927 151.733C196.007 147.384 186.282 127.355 196.441 128.808C198.429 130.662 198.487 133.352 199.195 135.733C200.452 139.99 202.52 131.555 203.32 130.205C205.023 127.355 207.8 125.306 209.057 121.529C210.314 117.752 210.359 98.089 216.816 102.026C218.564 103.091 218.096 110.141 219.993 108.058C220.244 107.772 222.209 102.415 222.987 101.065C224.198 98.9588 226.62 98.9703 226.38 94.9644C226.266 93.0759 221.787 79.9253 228.003 82.8209L232.791 88.8297C231.294 85.3618 235.042 84.1486 235.214 83.4733C236.185 79.6849 231.774 68.995 238.356 70.8262C241.384 71.6732 242.367 77.0182 242.79 76.8121C247.109 72.8063 253.2 67.1523 258.342 64.3596C263.199 61.7158 289.287 50.1903 293.572 49.5837C306.725 47.7182 320.792 41.5606 334.79 42.3503C343.063 42.8081 353.816 44.5478 359.153 51.1861L359.267 51.0831ZM254.434 105.62C251.315 103.388 243.898 114.868 247.726 115.967C250.366 116.733 256.994 108.573 254.434 105.62ZM234.117 108.756C233.442 108.893 229.843 119.171 232.517 119.961C236.676 121.197 239.922 107.611 234.117 108.756ZM583.983 122.364C586.154 120.751 579.058 111.308 576.555 110.152C575.013 109.443 573.264 109.935 572.921 111.686C572.601 113.288 581.206 124.436 583.983 122.364ZM272.089 126.37C275.894 126.038 275.62 122.719 274.477 119.972L272.089 126.37ZM236.311 134.611C233.42 137.438 232.14 147.487 237.762 142.863C243.315 138.296 240.699 130.33 236.311 134.611ZM222.381 145.484C222.701 145.289 225.535 139.029 225.569 138.663C225.66 137.644 223.501 135.378 222.781 135.263C221.707 135.08 220.93 136.591 220.004 137.163C219.227 137.644 217.776 137.541 217.696 137.621C217.433 137.896 218.404 139.555 218.347 140.402C218.256 141.799 217.136 143.607 218.027 144.877C218.644 145.759 221.547 146.011 222.369 145.495L222.381 145.484ZM580.566 137.85C578.749 136.362 575.595 136.19 576.35 139.235C576.647 140.437 579.298 145.038 580.349 145.667C587.902 150.131 583.937 140.608 580.566 137.861V137.85ZM604.415 139.201C600.438 140.379 607.249 152.077 611.237 149.261C614.208 147.155 606.335 138.64 604.415 139.201ZM231.088 157.731C228.94 158.04 224.701 164.094 224.849 166.017C225.466 174.017 240.653 156.346 231.088 157.731ZM601.581 168.031C602.826 167.127 601.912 164.014 600.815 162.812C599.958 161.874 594.222 158.772 593.605 159.23C593.49 159.321 592.816 161.748 592.839 162.068C592.942 163.957 600.164 169.05 601.581 168.031ZM625.281 161.702C623.338 162.354 622.104 169.725 624.401 170.435C628.206 171.614 631.486 159.608 625.281 161.702ZM205.789 164.918C204.269 165.868 204.646 172.106 208.348 171.156C212.759 170.023 209.16 162.801 205.789 164.918ZM371.072 183.414C368.5 183.791 364.364 187.191 363.598 189.629C362.478 193.211 365.644 203.088 369.095 205.045C381.722 212.187 383.207 181.628 371.072 183.414ZM467.026 184.204C459.495 185.749 458.935 212.931 471.528 206.385C480.681 201.635 478.373 181.857 467.026 184.204ZM606.403 193.68C606.186 193.451 603.272 193.806 602.392 193.68V196.873C604.312 197.434 608.026 195.351 606.403 193.68ZM627.989 197.686H623.19V201.681L627.989 197.686ZM423.762 234.815C424.254 235.272 424.494 236.314 424.825 236.52C428.299 238.729 427.556 230.076 421.648 232.125C421.26 233.956 422.837 233.945 423.762 234.815ZM218.496 244.131C218.747 238.66 215.033 235.948 209.708 236.932C208.68 237.836 216.05 245.402 218.496 244.131ZM616.79 236.932C615.442 235.559 605.786 242.105 605.18 243.319C603.935 245.791 604.815 247.748 607.763 246.718C609.923 245.962 619.156 239.324 616.779 236.921L616.79 236.932ZM376.854 242.54C376.591 242.266 373.791 243.032 373.117 243.238C371.791 243.639 370.877 242.62 371.266 244.944C375.231 243.25 378.316 247.279 380.853 249.751C382.122 245.447 377.814 245.859 377.014 244.726C376.579 244.108 377.014 242.701 376.854 242.54ZM231.294 249.739C232.037 249.041 227.306 242.735 225.718 246.134C227.043 246.432 229.786 251.17 231.294 249.739ZM492.04 252.143C497.948 252.2 493.228 243.422 491.24 244.944C489.572 246.226 492.131 250.426 492.04 252.143ZM578.395 255.359C577.207 255.245 571.207 255.874 572.807 257.74L576.384 260.155C577.732 258.964 578.578 257.202 578.384 255.359H578.395ZM213.491 256.275C212.919 256.435 211.319 257.923 211.331 258.163C211.354 258.816 220.69 266.45 222.507 262.158C222.895 260.281 215.936 255.588 213.491 256.286V256.275ZM615.991 259.353C617.396 257.282 613.591 254.363 612.002 258.175C611.168 260.166 615.648 259.868 615.991 259.353ZM243.19 268.864C243.601 268.601 244.07 266.598 243.727 265.797C243.418 265.076 237.076 257.385 236.322 257.122C235.568 256.858 233.648 256.652 233.008 257.064C229.454 259.331 239.407 271.268 243.19 268.864ZM327.282 267.365C330.859 269.277 337.83 258.838 335.304 257.328C334.447 256.813 331.362 256.607 330.596 257.087C329.831 257.568 326.105 265.671 327.271 267.365H327.282ZM478.43 258.564C477.047 259.17 474.293 256.286 473.631 256.961C471.974 258.644 477.904 264.08 478.43 258.564ZM598.176 259.502C597.079 259.662 593.468 261.768 592.405 262.57C589.982 264.389 583.994 271.062 590.634 269.631C594.073 268.887 605.352 258.461 598.176 259.502ZM439.098 264.847C440.48 261.734 430.847 259.285 437.246 266.564C437.086 265.603 439.052 264.962 439.098 264.847ZM498.416 262.57C498.153 262.283 495.514 263.222 495.354 263.497C493.068 267.434 499.467 268.224 498.416 262.57ZM514.94 262.695C513.843 262.901 512.517 264.458 513.18 265.763C513.511 266.415 518.151 270.501 519.339 271.657C523.396 275.583 523.967 269.139 522.493 266.965C521.682 265.763 516.14 262.467 514.94 262.695ZM500.77 276.121C501.376 269.975 495.571 268.201 490.429 268.967C491.434 271.714 493.8 272.779 495.696 274.53C497.708 276.396 495.639 277.815 500.782 276.121H500.77ZM562.328 273.866C561.026 273.076 557.906 274.072 558.409 276.178L563.197 276.979C563.471 276.693 562.466 273.958 562.317 273.866H562.328ZM442.434 276.178C437.623 276.43 436.824 278.696 441.634 280.172L442.434 276.178ZM311.81 277.895C310.896 278.147 304.154 285.586 303.64 286.616C303.057 287.784 304.302 290.29 305.365 290.542C307.868 291.137 315.787 281.008 314.107 278.559C313.421 277.666 312.861 277.609 311.81 277.906V277.895ZM335.03 287.486C330.494 288.665 324.746 300.774 334.733 294.468C339.384 291.538 339.144 286.41 335.03 287.486ZM522.379 304.986C525.03 302.685 517.888 285.449 514.529 290.725C512.517 293.884 518.711 308.156 522.379 304.986ZM258.502 295.406L252.103 294.605C253.063 297.077 255.943 297.146 258.091 297.81L258.502 295.395V295.406ZM382.442 295.429C381.082 294.342 377.471 297.649 378.465 298.611C379.048 299.172 381.653 296.39 383.253 297.81C382.796 297.34 382.533 295.509 382.43 295.429H382.442ZM493.868 309.575C495.491 311.006 497.776 310.594 498.313 308.465C498.85 306.336 495.159 296.585 491.24 297.821C489.274 299.172 492.257 308.156 493.868 309.575ZM535.212 328.254C535.897 325.301 538.434 313.433 536.069 311.773C531.006 308.225 530.641 320.849 531.224 323.825C531.384 324.615 534.195 329.456 535.2 328.254H535.212ZM280.888 321.833C281.905 320.746 279.003 317.29 277.7 317.026C276.66 318.72 279.711 323.092 280.888 321.833ZM300.143 319.384C299.926 319.19 300.109 318.274 300.074 317.839C296.715 320.483 302.177 320.677 302.485 321.055C303.88 322.772 300.143 322.326 300.897 323.836C301.88 325.816 306.485 326.137 304.668 322.039C304.565 321.822 303.594 321.753 303.285 321.284C302.714 320.426 302.6 318.709 302.485 318.629C302.325 318.514 300.6 319.796 300.154 319.396L300.143 319.384ZM311.342 333.794C312.061 334.297 314.164 333.759 314.953 333.13C317.032 331.482 316.084 319.762 312.439 319.407C307.102 318.892 310.53 333.221 311.342 333.782V333.794ZM651.975 321.044C649.484 320.723 646.433 321.147 646.387 324.237C646.73 324.557 652.843 323.253 651.975 321.044ZM510.609 329.239C509.318 330.623 506.632 344.575 509.249 345.056C512.997 345.743 515.328 334.538 515.26 331.802C515.191 329.067 512.666 327.041 510.609 329.239ZM335.979 339.574C334.447 338.624 331.408 340.169 331.316 342.24C331.065 348.352 339.144 354.189 339.258 348.741C339.27 347.94 336.39 339.837 335.979 339.585V339.574ZM552.81 364.284C557.975 365.657 568.91 351.534 564.854 348.615C563.357 347.54 561.906 348.444 560.774 349.451C559.723 350.389 552.193 363.7 552.81 364.284ZM280.888 363.483C279.54 360.736 278.42 352.575 277.277 350.687C275.414 347.585 272.043 349.886 271.426 352.862C270.466 357.52 275.574 364.456 280.877 363.483H280.888ZM342.458 354.681C340.264 352.621 339.921 359.282 340.927 360.232C341.087 360.381 343.943 360.393 344.058 360.29C344.275 360.095 342.663 354.887 342.458 354.681ZM511.226 373.898C516.745 375.214 525.773 358.962 517.26 360.267C514.334 360.713 510.54 370.762 511.226 373.898ZM327.123 368.473C326.288 367.992 324.014 368.141 323.237 368.668C321.055 370.133 326.403 384.771 330.779 383.478C334.436 382.391 328.105 369.045 327.123 368.484V368.473ZM494.108 374.745C492.211 375.146 483.492 388.697 487.64 389.922C490.737 390.826 497.742 380.491 496.679 376.885C496.416 375.993 495.102 374.528 494.108 374.745ZM354.148 378.774C349.737 380.25 358.89 400.749 361.518 391.753C362.227 389.349 358.022 377.481 354.148 378.774ZM504.015 379.518H499.627C498.873 382.471 503.524 384.336 504.015 379.518ZM205.583 381.727C203.743 383.238 199.641 378.717 198.075 381.074C196.51 383.432 199.389 385.778 201.275 386.763C203.994 388.17 215.513 390.391 213.639 384.806C212.588 381.681 205.137 384.588 206.508 380.319C205.183 379.987 206.017 381.383 205.594 381.727H205.583ZM623.19 389.12C627.909 390.757 635.474 389.922 637.577 384.737C637.188 382.871 628.629 384.107 626.949 384.496C624.858 384.977 622.721 386.74 623.19 389.12ZM251.886 392.531C251.075 391.856 237.43 389.384 236.893 389.933C235.042 396.159 249.189 398.7 252.126 396.777C253.371 395.953 252.754 393.264 251.886 392.531ZM593.433 390.963C588.565 391.593 584.554 394.397 591.159 395.988C603.352 398.918 609.1 388.96 593.433 390.963ZM260.296 394.168C259.896 394.648 257.942 398.38 259.702 398.746C264.89 399.81 263.587 390.185 260.296 394.168ZM696.769 393.138C694.85 394.855 705.603 401.619 706.94 401.825C709.934 402.305 710.162 400.016 708.425 397.888C707.111 396.285 698.266 391.81 696.781 393.138H696.769ZM498.965 402.065C496.999 402.592 490.406 411.118 494.131 412.297C499.296 413.934 505.055 400.428 498.965 402.065ZM349.383 408.658C348.674 408.097 345.429 405.316 344.88 405.956C343.441 409.836 349.108 419.187 353.177 417.905C357.005 416.692 351.017 412.217 352.845 410.34C349.84 411.095 350.525 409.55 349.383 408.658ZM727.463 416.063C726.023 414.415 721.258 408.234 720.938 413.762C720.789 416.417 726.96 424.429 729.863 423.514C733.828 422.255 728.434 417.184 727.463 416.074V416.063ZM506.449 441.162C509.649 443.394 521.511 431.594 520.448 429.168C519.922 427.966 517.362 426.02 516.014 427.13C515.203 429.82 503.033 438.782 506.461 441.162H506.449ZM323.763 428.435C316.884 430.713 332.63 448.739 336.893 445.637C340.321 443.142 332.87 437.958 331.259 435.978C329.408 433.688 327.591 427.153 323.751 428.424L323.763 428.435ZM289.687 442.799C287.162 442.627 276.569 444.104 277.746 447.926C278.923 451.749 292.395 448.487 289.687 442.799ZM546.148 442.89C540.114 444.779 553.632 453.157 556.809 447.194C557.415 444.527 548.09 442.284 546.148 442.89ZM580.006 448.407C579.035 453.477 591.913 455.686 592.793 452.779C594.039 448.659 582.646 446.851 580.006 448.407ZM242.127 452.745C245.909 457.357 256.137 456.041 256.114 452.012C256.091 447.217 244.298 451.188 240.893 450.009C240.322 452.447 241.453 451.932 242.127 452.745ZM371.037 459.83C369.54 458.273 354.639 453.661 353.679 456.831C352.342 461.26 368.009 465.289 371.3 463.24C372.557 462.462 371.814 460.619 371.037 459.83ZM466.466 466.788C468.031 469.135 484.212 466.445 482.372 460.905C481.447 458.113 467.906 461.935 466.969 463.813C466.649 464.442 466.157 466.342 466.466 466.788ZM175.849 479.767C172.867 480.58 168.822 489.198 168.982 492.117C169.096 494.223 171.667 495.871 173.335 494.085C174.238 493.112 179.026 481.69 178.158 480.431C177.529 479.527 176.866 479.504 175.861 479.779L175.849 479.767ZM665.562 496.455C668.304 494.486 659.837 481.301 657.586 483.647C655.906 486.955 661.882 499.098 665.562 496.455ZM298.475 506.08C297.835 505.496 293.115 506.984 293.687 509.273C294.955 510.498 299.652 507.156 298.475 506.08ZM161.337 511.734C157.326 512.444 152.961 524.507 157.417 525.262C159.737 525.652 165.519 513.451 161.337 511.734ZM678.372 530.104C679.114 527.357 676.006 514.16 672.395 514.893C669.321 515.511 673.001 531.58 678.372 530.104ZM162.514 541.32C160.674 544.571 157.452 539.191 156.926 542.51C157.989 544.697 163.542 545.418 162.514 541.32ZM548.81 587.777C548.947 582.626 540.731 587.101 542.422 588.578L548.81 587.777Z" fill="#35BDB4"/>
<path d="M160.126 365.898C160.926 371.037 160.091 378.248 160.994 383.856C161.348 386.076 163.348 388.606 163.371 389.464C163.394 390.002 162.285 390.231 161.725 390.735C159.2 393.047 153.212 396.595 151.932 399.754C150.652 402.912 152.687 418.352 146.253 416.281C143.659 415.445 144.07 409.837 144.116 407.559C141.762 408.498 138.094 414.358 136.129 414.77C136.071 414.77 135.74 414.003 135.397 413.98C130.792 420.95 134.357 428.79 132.129 436.401C131.626 436.882 131.523 438.164 130.129 438.05C126.438 437.992 127.501 430.381 127.33 427.978C127.272 427.096 127.775 425.322 126.141 425.998C125.17 426.398 114.234 439.824 113.903 440.98C112.874 444.562 115.868 457.758 110.132 457.758C105.549 457.758 106.841 451.154 106.144 448.43C100.464 453.913 96.579 462.176 88.9456 465.244C87.9286 461.226 73.2561 456.717 69.7479 454.027C69.6908 453.604 68.4681 452.539 68.3881 451.143C68.1253 446.485 74.2274 437.866 76.9471 434.009C75.473 432.865 65.6913 440.178 64.24 435.886C61.9432 429.076 76.7757 426.169 80.5466 423.583C82.0665 422.541 90.854 411.107 91.3339 409.551C91.711 408.303 91.2196 408.269 90.1455 408.349C87.8943 408.509 78.3298 411.325 80.5238 405.991C83.0035 399.96 96.3733 401.585 100.373 398.002C101.436 397.052 101.264 395.668 101.973 394.981C105.504 391.57 109.766 388.617 112.943 384.726C110.017 383.81 106.829 384.634 103.824 384.268C101.253 383.948 97.6417 383.146 98.5216 380.01C98.7844 379.083 99.9957 379.656 100.156 379.518L127.352 376.314C127.615 376.279 127.89 376.336 128.152 376.314L136.151 369.904C137.306 369.298 139.694 369.469 140.151 367.512C135.957 366.448 124.45 364.96 124.336 359.214C124.233 354.052 135.854 358.081 138.54 359.111C141.225 360.141 146.024 363.758 147.944 364.17C151.247 364.857 159.223 359.901 160.148 365.91L160.126 365.898ZM144.916 382.723C141.922 380.766 130.861 386.683 132.472 389.911C134.083 393.138 140.585 389.407 142.082 387.484C143.031 386.271 142.836 385.023 143.339 384.096C143.842 383.169 145.19 383.97 144.905 382.723H144.916ZM120.93 401.951C116.931 400.394 106.966 409.906 109.286 413.19C112.234 417.368 122.542 403.485 120.93 401.951Z" fill="#35BDB4"/>
<path d="M106.532 193.669C110.52 199.277 107.789 200.078 109.549 205.469C111.332 210.963 115.822 217.189 118.416 222.225C120.188 225.67 121.776 229.367 123.341 232.915L127.284 224.468C132.403 220.508 132.46 226.712 132.118 230.912C131.866 234.128 129.375 238.695 129.729 241.27C129.992 243.193 133.329 246.558 134.54 248.526C135.054 249.373 137.808 256.069 138.517 255.348C139.008 252.532 139.945 243.582 143.59 243.479C150.001 243.307 144.322 261.952 145.076 265.145C145.533 267.091 150.847 272.333 152.447 274.645C153.829 276.647 157.395 284.213 158.514 284.98C153.464 289.97 145.864 295.567 144.116 302.605C143.705 302.399 142.036 302.628 140.471 301.873C137.774 300.557 133.935 295.452 131.546 294.777C128.369 293.861 114.783 295.773 115.285 290.244C115.64 286.296 121.102 287.578 123.73 287.406C124.918 287.326 126.038 288.013 125.707 286.216C122.816 283.892 120.462 278.811 117.217 277.094C113.971 275.377 100.521 274.29 99.4015 270.856C97.2761 264.309 107.503 267.732 110.12 267.4C110.943 267.297 111.857 267.583 111.309 266.198C111.092 265.637 105.001 256.549 104.544 256.149C102.338 254.157 87.003 251.422 90.0769 246.546C92.4538 242.769 99.4701 247.634 100.921 246.558C100.064 242.563 97.6075 236.143 94.465 233.407C91.3225 230.672 81.1866 228.486 80.3295 223.598C79.1297 216.731 91.6082 224.651 92.111 224.136C89.757 217.841 85.2432 210.196 86.8659 203.249C87.3687 201.086 88.6828 200.628 88.9114 200.101C95.5506 200.685 100.121 194.356 106.509 193.692L106.532 193.669Z" fill="#35BDB4"/>
<path d="M68.9479 459.612C73.8501 462.176 78.8324 464.397 83.8718 466.697C85.0488 467.235 88.5341 468.345 88.1456 470.028C86.1229 483.567 83.5518 492.14 84.1575 506.47C84.5231 515.328 87.7913 528.181 87.3685 536.09C86.8771 545.143 81.5521 545.796 76.6041 538.871C72.6846 533.389 67.3823 511.895 66.6396 504.799C65.7368 496.283 63.5542 466.251 67.3595 460.196C67.9651 459.235 68.8565 459.727 68.9593 459.624L68.9479 459.612Z" fill="#32BDB3"/>
<path d="M104.132 188.862C98.9671 188.484 94.7505 194.138 89.734 193.669C87.1057 193.429 86.0544 189.835 85.803 187.592C84.7974 178.63 94.7048 141.673 100.121 134.771C103.035 131.052 110.554 125.627 110.6 133.97C110.669 145.37 106.658 159.07 105.732 170.836C105.344 175.757 106.201 181.159 105.686 186.023C105.549 187.294 104.201 188.301 104.121 188.85L104.132 188.862Z" fill="#32BDB3"/>
<path d="M362.467 216.102C367.963 216.354 369.986 231.015 380.099 227.765C385.676 225.968 384.202 220.337 386.03 218.483C386.807 217.693 389.287 217.327 389.652 217.693C389.915 217.968 390.509 224.583 390.441 225.235C390.018 229.939 382.156 234.815 377.974 235.307C374.523 235.708 367.415 232.411 364.935 230.042C361.039 226.311 361.301 221.115 358.456 216.903C359.862 216.88 361.507 216.056 362.456 216.102H362.467Z" fill="#CDEAE3"/>
<path d="M473.631 217.704C475.813 215.026 477.744 220.016 477.63 221.71C476.727 234.872 454.49 238.592 450.776 225.716C450.068 223.266 450.982 223.541 451.233 222.511C452.216 224.823 454.033 224.422 456.033 223.312C456.478 224.422 458.147 225.601 459.347 225.99C467.254 228.588 469.437 222.591 473.631 217.704Z" fill="#CDEAE3"/>
<path d="M290.487 105.552C291.104 115.189 292.11 124.826 290.487 134.394C290.327 135.367 290.715 136.752 290.487 137.599C282.568 140.929 285.482 136.992 285.676 132.38C286.076 123.086 283.779 114.159 284.088 105.552C285.905 105.277 288.933 105.781 290.487 105.552Z" fill="#CDEAE3"/>
<path d="M673.572 392.325C672.304 392.188 670.773 392.531 669.573 392.325C667.584 391.982 666.556 390.677 666.43 388.651C667.39 384.76 665.836 364.822 672.269 366.013C675.595 368.199 674.543 375.878 674.372 379.907C674.224 383.398 672.212 389.018 673.584 392.337L673.572 392.325Z" fill="#CDEAE3"/>
<path d="M160.125 365.898L165.725 365.097V369.503L167.325 368.301C167.725 373.681 168.81 381.235 168.193 386.351C168.17 386.568 165.896 389.796 165.725 389.933C165.108 390.391 162.685 390.562 161.725 390.734C162.285 390.219 163.394 390.002 163.371 389.464C163.337 388.617 161.348 386.076 160.994 383.856C160.091 378.247 160.925 371.037 160.125 365.898Z" fill="#CDEAE3"/>
<path d="M194.51 470.829C192.202 467.429 181.552 456.419 184.466 452.356C185.105 451.463 186.557 451.429 187.574 451.601C188.659 451.784 199.961 468.391 200.018 469.593C200.029 469.924 199.424 473.072 199.321 473.232C199.161 473.45 196.624 473.186 197.573 477.501L196.921 478.039C197.298 473.347 196.556 473.827 194.521 470.829H194.51Z" fill="#A1D9D4"/>
<path d="M163.325 286.594L148.127 305.822C147.898 305.478 144.699 302.903 144.127 302.617C145.876 295.578 153.475 289.993 158.526 284.991C158.731 285.129 163.074 286.594 163.325 286.594Z" fill="#A1D9D4"/>
<path d="M291.287 386.729C291.276 386.225 292.441 384.543 292.087 383.524C293.641 385.824 296.372 387.392 298.509 390.311C300.166 392.6 306.039 402.134 306.862 404.389C308.496 408.921 304.554 409.745 301.686 406.357C299.457 403.713 291.378 389.704 291.298 386.729H291.287Z" fill="#A1D9D4"/>
<path d="M637.588 472.431C636 469.283 635.325 468.505 637.234 465.255C638.525 463.057 646.627 454.233 648.741 453.546C657.711 450.628 648.661 461.352 647.175 463.24C646.581 463.996 646.593 465.186 646.124 465.747C644.753 467.383 638.948 471.069 638.388 473.221C638.194 472.912 637.714 472.671 637.588 472.419V472.431Z" fill="#A1D9D4"/>
<path d="M547.21 128.786C547.13 131.315 545.519 133.982 545.542 137.198C545.599 143.562 548.124 150.486 548.799 156.815C545.748 156.975 544.696 157.296 543.736 154.286C541.405 147.018 540.891 138.674 541.611 131.189C541.679 131.143 541.268 129.816 542.148 129.587C543.599 129.209 545.713 130.022 547.21 128.786Z" fill="#CDEAE3"/>
<path d="M88.9456 465.22C89.5169 467.498 88.3399 468.711 88.1457 470.027C88.5342 468.345 85.0375 467.235 83.8719 466.697C78.8325 464.396 73.8503 462.187 68.948 459.612C69.8965 458.628 69.9536 455.377 69.7479 454.004C73.256 456.694 87.9286 461.203 88.9456 465.22Z" fill="#A1D9D4"/>
<path d="M314.473 417.162C317.089 418.18 316.975 419.256 318.781 420.836C320.003 421.9 323.214 421.454 321.295 425.185C319.375 428.916 303.56 428.012 299.697 428.378C281.939 430.095 264.536 432.808 246.801 434.685C245.487 434.822 243.327 435.337 242.504 433.975C259.028 431.732 275.814 429.317 292.498 427.566C297.092 427.085 318.358 426.742 320.415 425.231C323.054 423.297 315.021 419.668 314.484 417.15L314.473 417.162Z" fill="#32BDB3"/>
<path d="M545.611 382.723C545.222 384.726 546.136 384.508 548.01 384.325C545.942 390.345 546.056 398.563 540.4 402.74C537.943 404.56 535.315 405.293 536.366 401.127C537.349 397.235 543.451 386.98 545.599 382.723H545.611Z" fill="#A1D9D4"/>
<path d="M267.29 309.828C267.107 309.667 265.222 308.408 264.89 308.225C267.724 308.614 265.999 307.035 266.056 305.799C266.193 302.88 268.57 287.349 272.478 288.196C275.643 288.883 271.586 296.528 271.335 298.256C270.615 303.269 273.735 308.534 267.29 309.828Z" fill="#CDEAE3"/>
<path d="M104.132 188.862C103.778 191.3 105.652 192.421 106.532 193.669C100.144 194.333 95.5733 200.662 88.9341 200.078C89.8254 198.098 91.2309 195.729 89.734 193.669C94.7505 194.138 98.9672 188.484 104.132 188.862Z" fill="#A1D9D4"/>
<path d="M313.673 417.162C303.571 420.778 290.441 421.854 279.688 421.156C273.678 420.767 262.49 417.505 257.314 417.974C255.348 418.146 242.173 427.874 240.893 421.969C242.424 422.69 243.247 422.587 244.835 422.323C249.349 421.568 254.686 416.978 257.245 416.727C261.828 416.269 273.815 419.302 279.654 419.611C284.888 419.886 292.098 419.966 297.275 419.565C302.451 419.165 309.331 416.418 313.684 417.173L313.673 417.162Z" fill="#32BDB3"/>
<path d="M293.687 49.4811C311.033 43.3464 328.871 38.2761 347.314 42.6368C351.817 43.7012 358.41 46.1047 359.279 51.0834C353.942 44.4452 343.201 42.7055 334.916 42.2477C320.918 41.4694 306.851 47.6155 293.698 49.4811H293.687Z" fill="#32BDB3"/>
<path d="M602.392 433.986C601.57 435.657 597.182 434.364 596.793 434.776C596.599 434.982 596.907 436.756 596.816 437.5C596.656 438.805 593.045 438.106 593.571 435.188C593.719 434.387 595.559 435.348 595.205 433.998C583.88 432.555 572.556 431.159 561.186 430.015C559.735 429.866 558.203 430.289 557.621 428.378C571.802 429.042 588.291 431.617 602.404 433.986H602.392Z" fill="#32BDB3"/>
<path d="M286.487 95.949C285.253 99.0622 284.202 102.221 284.088 105.563C283.791 114.17 286.076 123.097 285.676 132.391C285.482 137.003 282.556 140.929 290.487 137.61C289.744 140.414 284.396 139.979 284.042 138.72C283.014 135.115 284.316 121.449 284.122 116.356C283.848 108.768 281.185 106.09 284.465 98.2953C284.979 97.0821 284.362 95.4798 286.487 95.9605V95.949Z" fill="#32BDB3"/>
<path d="M572.007 305.822C566.591 305.387 568.979 295.818 567.208 292.213C570.225 291.618 569.276 295.807 569.653 296.173C570.031 296.539 571.927 295.864 572.682 296.322C574.236 297.26 572.396 303.304 575.207 304.231C574.807 304.379 574.739 306.05 572.007 305.833V305.822Z" fill="#A1D9D4"/>
<path d="M630.389 417.963C629.463 420.698 628.732 419.783 625.544 419.199C613.842 417.081 603.329 406.082 591.205 413.556C590.977 414.048 600.553 416.853 597.604 420.366C598.13 416.749 589.902 415.159 589.605 414.747C587.194 411.393 600.061 409.207 602.118 409.207C609.066 409.207 621.75 420.103 630.4 417.963H630.389Z" fill="#32BDB3"/>
<path d="M327.271 93.5456C325.534 96.8647 322.152 96.9105 319.809 98.3411C319.158 98.7417 319.306 99.8748 319.238 99.9206C317.912 100.722 316.827 98.0436 315.501 97.6659C312.267 96.7617 308.496 101.752 305.114 102.988C301.183 104.43 296.224 104.556 292.178 106.444C291.95 116.757 293.15 126.508 292.075 136.786L290.487 134.382C292.11 124.826 291.104 115.177 290.487 105.54C293.892 105.048 302.154 102.873 305.32 101.569C307.616 100.63 312.164 96.384 312.827 96.2352C316.918 95.331 316.541 98.5243 318.015 98.3526C320.095 98.1237 324.563 94.4841 327.283 93.5112L327.271 93.5456Z" fill="#32BDB3"/>
<path d="M359.267 51.8844C362.261 51.3007 360.753 56.3938 360.147 57.1721C357.965 59.919 346.286 55.5926 342.081 59.0949C341.418 59.6443 341.19 61.3611 340.081 61.9448C338.447 62.8032 336.242 61.384 334.482 62.2996C334.653 62.1394 334.299 60.8346 334.482 60.6973C334.996 60.3081 339.773 61.0521 340.093 60.6973C340.367 60.3997 339.773 57.813 340.093 57.4926C340.481 57.1034 349.966 56.0161 350.903 56.039C355.828 56.1878 360.067 60.7545 359.29 51.8729L359.267 51.8844Z" fill="#32BDB3"/>
<path d="M652.786 344.267C654.295 344.816 653.403 347.632 653.586 349.074C646.65 351.18 638.536 346.785 632.389 346.83C630.64 346.842 626.012 348.433 624.001 349.074C623.544 346.945 625.075 347.517 626.366 347.082C628.183 346.476 630.515 345.514 632.389 345.48C636.274 345.411 650.192 350.298 652.455 347.483C652.946 346.876 652.055 345.091 652.798 344.267H652.786Z" fill="#32BDB3"/>
<path d="M127.33 376.313L100.133 379.518C100.51 379.186 100.761 378.282 101.413 378.019C108.338 375.238 120.016 377.298 127.33 376.313Z" fill="#32BDB3"/>
<path d="M597.593 470.028C594.005 471.275 595.205 467.258 596.496 466.869C598.541 466.251 606.289 468.86 609.203 469.215C610.94 469.432 619.51 469.02 619.887 469.398C620.196 469.707 619.876 470.76 619.99 470.829C616.711 469.719 612.78 471.023 610.117 470.783C606.118 470.417 601.364 468.46 597.216 468.402C596.324 468.391 595.81 468.151 596.016 469.215C596.564 469.215 597.284 469.65 597.604 470.028H597.593Z" fill="#32BDB3"/>
<path d="M263.29 253.746C261.153 248.607 265.027 240.538 262.49 234.518C267.027 238.008 263.999 248.71 263.29 253.746Z" fill="#32BDB3"/>
<path d="M612.791 119.171C611.214 118.633 605.272 114.868 604.929 113.826C603.889 110.759 604.804 100.012 603.981 95.5482C603.798 94.541 602.872 93.0875 601.981 92.7327C600.415 92.1146 600.815 93.8085 600.587 94.4952C599.181 98.7643 598.941 102.656 599.193 107.142C597.684 107.589 597.867 106.513 597.593 106.341C596.142 98.1234 603.684 82.6951 605.489 99.6342C605.923 103.686 604.758 109.706 606.312 113.231C607.032 114.856 611.146 117.786 612.791 119.16V119.171Z" fill="#32BDB3"/>
<path d="M136.128 414.758C130.358 421.122 138.402 430.312 132.129 436.39C134.357 428.778 130.792 420.938 135.397 413.968C135.74 414.003 136.071 414.769 136.128 414.758Z" fill="#32BDB3"/>
<path d="M385.653 204.084C383.242 204.531 384.11 202.86 384.053 201.315C383.893 196.37 384.167 191.391 384.053 186.458C384.899 192.021 385.756 198.259 385.653 204.084Z" fill="#32BDB3"/>
<path d="M196.91 478.039C196.567 482.205 192.407 487.413 192.133 491.304C191.939 494.006 195.458 499.019 196.224 502.349C197.058 505.966 197.938 515.557 191.87 511.711C189.699 510.338 189.551 505.119 187.311 503.677C186.488 508.186 182.671 513.085 182.546 517.789C182.489 520.227 190.362 535.014 184.9 536.513C185.78 533.48 185.323 530.585 184.671 527.517C184.191 525.251 181.049 518.636 181.072 517.823C181.209 512.959 186.054 507.065 186.5 502.063C192.796 502.212 188.259 512.684 196.087 510.876C196.373 508.209 195.881 505.863 195.241 503.311C194.67 501.067 190.648 492.804 190.659 492.197C190.785 486.097 199.629 477.501 194.487 470.817C196.521 473.816 197.264 473.335 196.887 478.028L196.91 478.039Z" fill="#32BDB3"/>
<path d="M354.468 487.653C350.4 492.907 354.525 507.5 345.749 507.614C343.703 504.192 344.252 501.319 344.069 497.657C343.966 495.688 344.64 495.036 342.469 496.466C342.709 496.226 343.509 491.877 345.257 495.677C346.377 498.114 344.115 508.335 348.091 506.515C350.685 505.336 351.291 491.831 352.605 488.603C353.177 487.184 354.308 487.791 354.468 487.642V487.653Z" fill="#32BDB3"/>
<path d="M260.89 233.728C261.279 235.399 259.542 235.147 259.154 236.417C258.765 237.688 257.771 250.449 255.291 248.137C255.154 247.416 255.485 246.272 255.291 245.734C257.851 246.18 256.674 244.44 256.857 242.93C257.131 240.618 257.634 233.384 260.89 233.716V233.728Z" fill="#32BDB3"/>
<path d="M287.287 165.639C283.082 168.134 278.203 166.074 273.689 166.441C277.266 164.564 283.139 166.143 287.287 165.639Z" fill="#32BDB3"/>
<path d="M384.853 212.096L384.064 211.695C384.144 209.624 383.23 206.602 385.653 205.687C385.539 207.827 384.533 209.887 384.853 212.096Z" fill="#32BDB3"/>
<path d="M290.487 91.1421C290.419 93.4312 288.327 94.3697 286.488 95.1479C287.882 91.7144 288.339 92.5842 290.487 91.1421Z" fill="#32BDB3"/>
<path d="M136.128 369.904L128.129 376.313C129.021 373.086 133.363 371.346 136.128 369.904Z" fill="#32BDB3"/>
<path d="M167.325 366.699C167.325 366.699 166.559 366.47 166.525 365.898L167.325 366.699Z" fill="#CDEAE3"/>
<path d="M576.007 304.219L576.807 303.418C576.601 303.498 576.338 304.093 576.007 304.219Z" fill="#A1D9D4"/>
<path d="M467.026 184.204C478.384 181.869 480.681 201.647 471.528 206.385C458.924 212.92 459.495 185.749 467.026 184.204Z" fill="#1F6857"/>
<path d="M371.071 183.414C383.207 181.628 381.733 212.187 369.094 205.045C365.643 203.1 362.478 193.222 363.598 189.629C364.364 187.191 368.5 183.792 371.071 183.414Z" fill="#1F6857"/>
<path d="M323.763 428.435C327.591 427.165 329.408 433.7 331.27 435.989C332.882 437.969 340.332 443.154 336.904 445.649C332.642 448.751 316.895 430.724 323.774 428.447L323.763 428.435Z" fill="#A1D9D4"/>
<path d="M371.037 459.83C371.814 460.631 372.546 462.462 371.3 463.241C368.02 465.289 352.342 461.261 353.679 456.831C354.639 453.649 369.54 458.273 371.037 459.83Z" fill="#A1D9D4"/>
<path d="M506.449 441.163C503.021 438.771 515.191 429.809 516.003 427.131C517.351 426.02 519.911 427.966 520.436 429.168C521.499 431.606 509.638 443.394 506.438 441.163H506.449Z" fill="#A1D9D4"/>
<path d="M552.81 364.284C552.204 363.7 559.723 350.389 560.774 349.451C561.906 348.444 563.357 347.54 564.854 348.615C568.91 351.534 557.963 365.669 552.81 364.284Z" fill="#CDEAE3"/>
<path d="M466.466 466.789C466.157 466.331 466.649 464.442 466.969 463.813C467.906 461.947 481.447 458.125 482.373 460.906C484.212 466.445 468.043 469.135 466.466 466.789Z" fill="#A1D9D4"/>
<path d="M327.123 368.473C328.106 369.034 334.425 382.391 330.779 383.466C326.403 384.76 321.055 370.121 323.238 368.656C324.015 368.13 326.3 367.992 327.123 368.462V368.473Z" fill="#A1D9D4"/>
<path d="M205.583 381.727C206.006 381.384 205.183 379.976 206.497 380.319C205.126 384.6 212.576 381.681 213.628 384.806C215.513 390.391 203.994 388.171 201.263 386.763C199.378 385.79 196.567 383.329 198.064 381.075C199.561 378.82 203.732 383.238 205.571 381.727H205.583Z" fill="#A1D9D4"/>
<path d="M494.108 374.745C495.103 374.539 496.417 375.993 496.679 376.886C497.742 380.491 490.737 390.826 487.641 389.922C483.481 388.709 492.2 375.146 494.108 374.745Z" fill="#A1D9D4"/>
<path d="M251.886 392.531C252.754 393.264 253.371 395.954 252.126 396.778C249.189 398.712 235.042 396.16 236.893 389.933C237.43 389.384 251.075 391.845 251.886 392.531Z" fill="#A1D9D4"/>
<path d="M280.888 363.483C275.586 364.456 270.478 357.52 271.438 352.862C272.055 349.886 275.414 347.585 277.288 350.687C278.431 352.576 279.551 360.736 280.899 363.483H280.888Z" fill="#CDEAE3"/>
<path d="M510.609 329.239C512.654 327.041 515.191 329.159 515.26 331.803C515.328 334.446 512.997 345.743 509.249 345.056C506.644 344.576 509.318 330.612 510.609 329.239Z" fill="#A1D9D4"/>
<path d="M354.148 378.774C358.022 377.481 362.227 389.338 361.518 391.753C358.879 400.76 349.725 380.25 354.148 378.774Z" fill="#A1D9D4"/>
<path d="M522.379 304.986C518.722 308.156 512.529 293.873 514.529 290.725C517.888 285.449 525.019 302.697 522.379 304.986Z" fill="#A1D9D4"/>
<path d="M511.226 373.898C510.529 370.774 514.334 360.713 517.26 360.267C525.773 358.962 516.757 375.215 511.226 373.898Z" fill="#A1D9D4"/>
<path d="M175.849 479.767C176.855 479.493 177.518 479.516 178.146 480.42C179.015 481.679 174.238 493.101 173.324 494.074C171.656 495.871 169.084 494.211 168.97 492.105C168.81 489.187 172.867 480.58 175.838 479.756L175.849 479.767Z" fill="#A1D9D4"/>
<path d="M535.212 328.255C534.206 329.456 531.384 324.626 531.235 323.825C530.652 320.849 531.018 308.225 536.08 311.773C538.446 313.421 535.909 325.29 535.223 328.255H535.212Z" fill="#A1D9D4"/>
<path d="M311.342 333.794C310.53 333.233 307.102 318.904 312.439 319.419C316.084 319.762 317.021 331.494 314.953 333.142C314.153 333.771 312.061 334.309 311.342 333.806V333.794Z" fill="#A1D9D4"/>
<path d="M243.19 268.865C239.408 271.268 229.454 259.331 233.008 257.065C233.648 256.653 235.522 256.847 236.322 257.122C237.122 257.397 243.418 265.077 243.727 265.798C244.07 266.599 243.59 268.613 243.19 268.865Z" fill="#A1D9D4"/>
<path d="M242.127 452.745C241.453 451.932 240.322 452.447 240.893 450.009C244.298 451.188 256.091 447.217 256.114 452.012C256.137 456.041 245.898 457.357 242.127 452.745Z" fill="#A1D9D4"/>
<path d="M593.433 390.963C609.089 388.949 603.341 398.918 591.159 395.988C584.566 394.409 588.565 391.593 593.433 390.963Z" fill="#A1D9D4"/>
<path d="M583.983 122.365C581.206 124.436 572.601 113.289 572.921 111.686C573.264 109.935 575.012 109.443 576.555 110.153C579.058 111.309 586.143 120.751 583.983 122.365Z" fill="#A1D9D4"/>
<path d="M311.81 277.895C312.861 277.609 313.421 277.655 314.107 278.548C315.787 280.997 307.868 291.138 305.365 290.531C304.303 290.279 303.057 287.773 303.64 286.605C304.165 285.575 310.896 278.147 311.81 277.884V277.895Z" fill="#A1D9D4"/>
<path d="M623.19 389.121C622.721 386.729 624.858 384.977 626.949 384.497C628.629 384.108 637.177 382.872 637.577 384.737C635.474 389.922 627.898 390.757 623.19 389.121Z" fill="#A1D9D4"/>
<path d="M493.868 309.576C492.268 308.156 489.286 299.16 491.24 297.821C495.148 296.585 498.828 306.382 498.313 308.465C497.799 310.548 495.491 311.018 493.868 309.576Z" fill="#A1D9D4"/>
<path d="M598.175 259.503C605.363 258.461 594.073 268.899 590.633 269.632C583.994 271.062 589.982 264.39 592.405 262.57C593.467 261.769 597.078 259.663 598.175 259.503Z" fill="#A1D9D4"/>
<path d="M665.562 496.455C661.882 499.11 655.906 486.955 657.586 483.647C659.837 481.29 668.304 494.475 665.562 496.455Z" fill="#A1D9D4"/>
<path d="M161.337 511.734C165.519 513.451 159.737 525.652 157.417 525.263C152.949 524.507 157.326 512.444 161.337 511.734Z" fill="#A1D9D4"/>
<path d="M616.791 236.932C619.156 239.336 609.923 245.974 607.775 246.729C604.815 247.76 603.947 245.802 605.192 243.33C605.798 242.117 615.442 235.57 616.802 236.944L616.791 236.932Z" fill="#A1D9D4"/>
<path d="M349.382 408.658C350.525 409.55 349.84 411.096 352.845 410.34C351.028 412.217 357.004 416.692 353.176 417.906C349.108 419.187 343.429 409.837 344.88 405.957C345.429 405.316 348.674 408.097 349.382 408.658Z" fill="#A1D9D4"/>
<path d="M289.687 442.799C292.384 448.476 278.923 451.761 277.746 447.927C276.569 444.092 287.162 442.627 289.687 442.799Z" fill="#A1D9D4"/>
<path d="M335.979 339.574C336.39 339.826 339.281 347.929 339.258 348.73C339.144 354.178 331.065 348.341 331.316 342.229C331.408 340.158 334.447 338.624 335.979 339.562V339.574Z" fill="#A1D9D4"/>
<path d="M327.283 267.365C326.117 265.671 329.82 257.58 330.608 257.088C331.396 256.595 334.459 256.813 335.316 257.328C337.83 258.839 330.871 269.277 327.294 267.365H327.283Z" fill="#A1D9D4"/>
<path d="M580.006 448.407C582.657 446.851 594.039 448.659 592.793 452.779C591.914 455.698 579.035 453.478 580.006 448.407Z" fill="#A1D9D4"/>
<path d="M231.089 157.731C240.642 156.357 225.466 174.018 224.849 166.017C224.701 164.083 228.94 158.04 231.089 157.731Z" fill="#A1D9D4"/>
<path d="M514.94 262.696C516.14 262.467 521.682 265.763 522.493 266.965C523.967 269.14 523.408 275.583 519.339 271.658C518.151 270.502 513.512 266.416 513.18 265.763C512.517 264.459 513.843 262.902 514.94 262.696Z" fill="#A1D9D4"/>
<path d="M222.381 145.484C221.558 145.999 218.656 145.747 218.038 144.866C217.147 143.596 218.267 141.799 218.358 140.391C218.416 139.556 217.444 137.885 217.707 137.61C217.787 137.53 219.238 137.633 220.015 137.152C220.941 136.58 221.729 135.069 222.792 135.252C223.512 135.367 225.672 137.633 225.58 138.651C225.546 139.029 222.712 145.278 222.392 145.473L222.381 145.484Z" fill="#A1D9D4"/>
<path d="M498.965 402.065C505.044 400.428 499.296 413.934 494.131 412.297C490.417 411.118 497.01 402.592 498.965 402.065Z" fill="#A1D9D4"/>
<path d="M546.148 442.891C548.09 442.284 557.426 444.516 556.809 447.194C553.633 453.157 540.114 444.791 546.148 442.891Z" fill="#A1D9D4"/>
<path d="M604.415 139.201C606.335 138.629 614.208 147.144 611.237 149.261C607.249 152.088 600.438 140.391 604.415 139.201Z" fill="#A1D9D4"/>
<path d="M254.434 105.62C256.994 108.573 250.366 116.733 247.726 115.967C243.91 114.868 251.326 103.388 254.434 105.62Z" fill="#A1D9D4"/>
<path d="M236.311 134.611C240.699 130.319 243.304 138.297 237.762 142.863C232.14 147.487 233.431 137.438 236.311 134.611Z" fill="#A1D9D4"/>
<path d="M335.03 287.486C339.144 286.422 339.395 291.538 334.733 294.468C324.734 300.763 330.493 288.665 335.03 287.486Z" fill="#A1D9D4"/>
<path d="M580.566 137.85C583.937 140.609 587.903 150.131 580.349 145.656C579.298 145.038 576.647 140.437 576.35 139.224C575.596 136.179 578.749 136.351 580.566 137.839V137.85Z" fill="#A1D9D4"/>
<path d="M601.581 168.031C600.164 169.05 592.953 163.957 592.839 162.068C592.816 161.748 593.49 159.321 593.605 159.23C594.222 158.772 599.958 161.874 600.815 162.812C601.912 164.014 602.826 167.127 601.581 168.031Z" fill="#A1D9D4"/>
<path d="M234.117 108.756C239.933 107.623 236.676 121.197 232.517 119.961C229.843 119.171 233.442 108.882 234.117 108.756Z" fill="#A1D9D4"/>
<path d="M500.77 276.121C495.639 277.815 497.708 276.396 495.685 274.53C493.788 272.779 491.423 271.726 490.417 268.968C495.559 268.201 501.364 269.975 500.759 276.121H500.77Z" fill="#A1D9D4"/>
<path d="M213.491 256.275C215.925 255.588 222.895 260.281 222.507 262.147C220.69 266.439 211.354 258.816 211.331 258.152C211.331 257.923 212.931 256.424 213.491 256.264V256.275Z" fill="#A1D9D4"/>
<path d="M625.281 161.702C631.486 159.608 628.206 171.614 624.401 170.435C622.104 169.726 623.338 162.355 625.281 161.702Z" fill="#A1D9D4"/>
<path d="M218.496 244.131C216.039 245.402 208.68 237.836 209.708 236.932C215.033 235.948 218.747 238.66 218.496 244.131Z" fill="#A1D9D4"/>
<path d="M205.789 164.918C209.16 162.801 212.759 170.023 208.348 171.156C204.646 172.106 204.269 165.868 205.789 164.918Z" fill="#A1D9D4"/>
<path d="M492.04 252.143C492.131 250.415 489.572 246.215 491.24 244.944C493.228 243.422 497.948 252.212 492.04 252.143Z" fill="#A1D9D4"/>
<path d="M376.854 242.541C377.002 242.701 376.579 244.109 377.014 244.727C377.814 245.848 382.122 245.448 380.853 249.751C378.328 247.279 375.231 243.25 371.266 244.944C370.866 242.621 371.791 243.639 373.117 243.239C373.803 243.033 376.591 242.266 376.854 242.541Z" fill="#A1D9D4"/>
<path d="M456.033 223.312C454.033 224.423 452.216 224.823 451.233 222.511C451.782 220.257 451.725 218.288 454.73 219.398C456.741 220.131 455.656 222.362 456.033 223.312Z" fill="#A1D9D4"/>
<path d="M300.143 319.384C300.589 319.785 302.314 318.503 302.474 318.617C302.588 318.697 302.703 320.414 303.274 321.273C303.582 321.742 304.554 321.811 304.657 322.028C306.474 326.114 301.868 325.794 300.886 323.825C300.143 322.314 303.868 322.761 302.474 321.044C302.166 320.666 296.715 320.472 300.063 317.828C300.109 318.274 299.926 319.178 300.131 319.373L300.143 319.384Z" fill="#A1D9D4"/>
<path d="M578.395 255.359C578.589 257.202 577.732 258.964 576.395 260.155L572.819 257.74C571.219 255.874 577.218 255.245 578.407 255.359H578.395Z" fill="#A1D9D4"/>
<path d="M423.762 234.815C422.837 233.945 421.26 233.956 421.648 232.125C427.556 230.077 428.299 238.741 424.825 236.52C424.494 236.303 424.254 235.273 423.762 234.815Z" fill="#A1D9D4"/>
<path d="M260.296 394.168C263.599 390.174 264.89 399.811 259.702 398.746C257.942 398.38 259.896 394.649 260.296 394.168Z" fill="#A1D9D4"/>
<path d="M342.458 354.682C342.675 354.876 344.275 360.084 344.058 360.29C343.943 360.393 341.075 360.381 340.927 360.233C339.921 359.294 340.275 352.622 342.458 354.682Z" fill="#A1D9D4"/>
<path d="M439.097 264.847C439.052 264.962 437.086 265.603 437.246 266.564C430.858 259.285 440.48 261.734 439.097 264.847Z" fill="#A1D9D4"/>
<path d="M231.294 249.74C229.786 251.171 227.043 246.432 225.718 246.135C227.306 242.735 232.037 249.042 231.294 249.74Z" fill="#A1D9D4"/>
<path d="M478.43 258.564C477.916 264.081 471.985 258.633 473.631 256.962C474.294 256.298 477.048 259.171 478.43 258.564Z" fill="#A1D9D4"/>
<path d="M627.989 197.686L623.189 201.681V197.675L627.989 197.686Z" fill="#CDEAE3"/>
<path d="M651.975 321.044C652.843 323.253 646.73 324.558 646.387 324.237C646.432 321.136 649.495 320.724 651.975 321.044Z" fill="#A1D9D4"/>
<path d="M606.403 193.68C608.026 195.351 604.312 197.435 602.404 196.874V193.68C603.272 193.806 606.186 193.452 606.403 193.68Z" fill="#A1D9D4"/>
<path d="M258.502 295.406L258.091 297.821C255.943 297.146 253.063 297.089 252.103 294.617L258.502 295.418V295.406Z" fill="#A1D9D4"/>
<path d="M272.089 126.371L274.477 119.973C275.62 122.72 275.894 126.027 272.089 126.371Z" fill="#A1D9D4"/>
<path d="M615.99 259.354C615.648 259.869 611.168 260.166 612.002 258.175C613.591 254.375 617.384 257.294 615.99 259.354Z" fill="#A1D9D4"/>
<path d="M498.416 262.57C499.468 268.235 493.068 267.445 495.354 263.497C495.514 263.222 498.153 262.272 498.416 262.57Z" fill="#A1D9D4"/>
<path d="M562.329 273.866C562.477 273.958 563.483 276.693 563.208 276.98L558.421 276.178C557.918 274.072 561.037 273.077 562.34 273.866H562.329Z" fill="#CDEAE3"/>
<path d="M504.016 379.518C503.524 384.337 498.862 382.471 499.628 379.518H504.016Z" fill="#A1D9D4"/>
<path d="M442.434 276.178L441.634 280.173C436.824 278.696 437.623 276.419 442.434 276.178Z" fill="#A1D9D4"/>
<path d="M298.475 506.08C299.652 507.156 294.944 510.498 293.687 509.273C293.115 506.984 297.835 505.485 298.475 506.08Z" fill="#A1D9D4"/>
<path d="M280.888 321.833C279.711 323.092 276.66 318.732 277.7 317.026C279.003 317.29 281.905 320.735 280.888 321.833Z" fill="#A1D9D4"/>
<path d="M382.441 295.429C382.544 295.509 382.807 297.329 383.264 297.81C381.653 296.391 379.059 299.172 378.476 298.611C377.471 297.661 381.093 294.342 382.453 295.429H382.441Z" fill="#A1D9D4"/>
<path d="M120.93 401.951C122.542 403.473 112.234 417.356 109.286 413.19C106.966 409.906 116.931 400.394 120.93 401.951Z" fill="#A1D9D4"/>
<path d="M144.916 382.723C145.202 383.97 143.876 383.135 143.35 384.096C142.825 385.058 143.042 386.271 142.093 387.484C140.585 389.407 134.14 393.241 132.483 389.91C130.826 386.58 141.933 380.766 144.927 382.723H144.916Z" fill="#A1D9D4"/>
</g>
</g>
<defs>
<clipPath id="clip0_504_11358">
<rect width="669" height="516" fill="white"/>
</clipPath>
<clipPath id="clip1_504_11358">
<rect width="711" height="586" fill="white" transform="translate(64 41)"/>
</clipPath>
</defs>
</svg>
