<svg width="669" height="516" viewBox="0 0 669 516" fill="none" xmlns="http://www.w3.org/2000/svg">
<g clip-path="url(#clip0_504_7593)">
<rect width="669" height="516" fill="#D9D9D9" fill-opacity="0.6"/>
<g clip-path="url(#clip1_504_7593)">
<path d="M308.255 287.18C315.095 294.006 326.264 300.461 333.476 308.815C350.436 328.471 362.19 366.096 367.688 391.371C371.181 407.441 374.542 424.401 374.316 440.817C373.798 441.122 372.656 443.114 370.863 444.203C367.768 446.089 361.154 446.514 364.315 450.007C407.864 430.351 447.23 399.685 491.881 382.419C571.33 351.7 596.245 389.95 573.309 465.387C558.899 512.787 535.085 542.179 498.788 574.492C471.229 599.022 440.656 589.925 409.657 576.816C408.05 576.139 404.517 572.845 403.521 576.032C398.036 573.336 385.977 566.536 393.68 577.414L411.198 580.641C444.839 602.011 484.709 648.933 462.184 690.782C439.394 733.123 385.844 695.922 365.829 669.798C359.056 660.952 356.359 648.242 348.205 640.566L355.47 661.71C360.663 690.676 348.882 727.598 322.97 688.059C300.153 653.236 295.412 597.84 302.092 557.585C289.9 558.528 277.907 554.756 266.419 550.997C225.752 537.663 203.373 517.33 168.895 496.398C159.146 490.475 129.343 479.916 125.956 469.969C124.801 466.595 126.62 466.529 126.913 465.4C137.604 467.02 148.574 469.411 158.881 472.612C163.463 474.033 176.226 481.391 179.599 480.567C183.491 479.611 185.324 474.126 182.229 470.766C177.156 465.254 153.316 457.989 145.347 457.724C135.984 449.914 115.531 441.069 129.981 426.991C129.051 431.852 132.411 429.514 135.134 430.218C159.478 436.513 174.406 444.044 195.019 457.989C198.565 460.393 208.579 472.957 211.209 462.784C213.48 453.991 181.592 436.102 174.353 432.556C166.052 428.492 157.619 425.291 148.667 422.82C146.024 422.09 142.877 423.79 143.806 419.314C181.445 381.609 214.981 356.215 257.507 324.048C300.1 363.706 356.041 426.951 312.784 486.119C302.557 500.104 291.866 504.394 279.766 514.567C277.482 516.493 273.511 520.464 277.429 523.067C287.642 529.88 317.592 502.521 324.365 494.619C372.842 438.027 338.456 379.577 295.97 334.036C289.249 326.824 281.108 318.284 275.942 310.209C277.084 309.346 278.505 306.371 280.51 304.817C288.931 298.322 297.962 290.327 308.202 287.166L308.255 287.18ZM249.445 352.072C223.467 356.866 225.127 399.871 250.734 403.842C288.439 409.685 288.479 344.86 249.445 352.072ZM377.663 451.827C374.103 457.631 378.991 461.389 385.472 460.486C400.626 458.348 446.42 434.574 464.615 427.402C492.187 416.525 520.184 406.604 548.393 397.48C553.374 395.647 556.083 389.378 551.036 386.204C548.3 384.491 512.68 396.564 506.544 398.662C469.715 411.213 436.671 426.659 401.489 442.663C397.85 444.323 378.327 450.764 377.663 451.853V451.827ZM256.909 498.59C253.788 501.565 242.845 505.204 247.44 511.619C252.567 518.751 268.663 503.517 272.037 499.121C286.221 480.594 290.126 453.965 282.542 431.958C280.856 427.07 279.408 421.346 272.887 424.667C266.366 427.987 274.281 450.897 274.122 458.494C273.803 472.532 267.03 488.934 256.909 498.59ZM550.717 432.064C506.743 436.075 442.581 450.618 399.178 461.841C395.274 462.85 386.574 464.63 383.639 466.263C376.799 470.048 382.324 477.526 388.739 476.145C412.499 470.752 436.167 464.537 460.046 459.716C488.707 453.938 525.669 450.764 552.63 443.194C566.177 439.395 567.066 430.577 550.717 432.064ZM377.384 479.252C376.892 479.744 377.463 484.06 378.154 485.402C380.279 489.572 401.649 490.993 407.373 491.524C415.674 492.294 426.551 492.839 434.971 493.144C470.671 494.406 506.756 492.879 542.35 491.298C545.843 490.169 545.803 485.455 543.386 483.037C538.299 477.964 527.156 482.241 521.14 482.373C491.164 482.998 458.665 483.396 428.795 482.36C420.933 482.081 379.987 476.716 377.397 479.252H377.384ZM371.487 493.291C364.315 497.846 379.721 506.346 383.055 508.165C411.304 523.519 452.622 532.882 484.417 537.411C489.663 538.154 523.464 545.618 515.004 532.935C478.441 522.974 438.889 521.513 403.548 506.107C397.292 503.384 377.424 489.505 371.487 493.291ZM382.909 527.53C378.871 524.555 365.563 512.269 362.469 511.791C356.665 510.888 353.73 515.125 356.306 520.384C357.289 522.376 376.574 536.534 379.987 538.898C399.709 552.565 434.041 571.929 457.257 576.869C463.194 578.131 472.411 581.451 475.652 575.103C476.568 569.671 453.684 565.633 448.81 563.787C427.255 555.619 401.37 541.143 382.895 527.516L382.909 527.53ZM348.205 677.461C350.542 675.177 340.395 653.86 338.961 649.066C335.216 636.542 331.988 617.43 331.258 604.388C330.554 591.784 338.815 565.593 319.013 566.829C318.561 597.96 319.677 635.373 333.29 663.954C336.278 670.236 340.143 680.131 348.218 677.461H348.205ZM431.013 689.6C438.464 685.124 413.349 670.767 409.644 667.487C375.551 637.365 373.545 604.985 351.02 572.473C348.616 569.007 345.19 565.129 340.9 568.741C336.61 572.354 345.721 589.075 347.926 593.989C358.378 617.271 371.062 642.372 388.102 661.364C394.238 668.204 421.796 695.138 431 689.6H431.013ZM389.045 605.889C399.749 618.825 409.445 629.981 422.752 640.553C428.025 644.736 444.746 657.127 450.059 659.359C457.948 662.679 459.09 656.145 455.863 650.46C433.869 636.475 414.359 619.528 397.412 599.819C392.856 594.533 380.465 575.249 376.733 572.872C370.584 568.94 367.011 572.739 368.791 579.127C370.411 584.997 384.436 600.311 389.045 605.875V605.889Z" fill="#7BCBBD"/>
<path d="M574.079 281.03C597.056 266.209 617.124 246.818 641.229 233.709C655.892 225.727 667.154 217.134 679.24 233.497C697.714 258.505 710.61 328.59 695.788 355.87C687.461 371.196 664.099 377.983 647.843 379.391C651.921 382.007 656.622 394.478 658.601 396.271C645.187 424.534 639.263 457.644 633.154 488.39C632.689 490.741 631.188 494.659 634.017 496.146C630.697 497.501 626.938 501.724 623.273 503.052C667.566 523.771 661.523 566.324 636.209 600.51C612.993 631.853 579.352 645.692 551.089 610.59C538.246 594.639 536.002 576.218 526.466 559.152C546.467 544.503 567.412 506.133 575.354 482.812L581.782 471.562C578.01 496.651 573.415 510.769 566.416 534.555C565.712 536.959 563.003 538.247 563.64 542.67C564.131 546.11 572.206 558.674 574.677 562.419C583.283 575.514 594.771 587.946 603.962 600.735C607.614 603.697 613.352 602.582 612.303 597.123L574.796 545.366C571.37 544.237 570.228 539.987 569.497 539.164C572.153 535.246 584.013 533.586 584.863 533.015C597.467 545.751 607.614 562.645 620.205 575.262C626.407 581.478 630.777 577.52 628.665 569.923L591.013 528.406C591.624 527.888 600.788 516.958 601.04 516.187L617.217 426.313C626.035 404.333 642.331 387.851 636.448 362.617C636.142 361.289 637.258 359.456 637.112 359.389L679.213 343.877C683.251 341.805 681.073 338.339 680.037 334.872L630.963 353.254C627.775 348.486 623.791 343.412 618.664 340.955L675.415 307.819C683.291 303.648 679.984 293.767 671.882 298.083L615.57 330.941C611.917 334.925 615.663 337.542 615.596 339.415C614.64 365.007 611.174 382.366 598.716 404.731C597.042 407.733 593.191 415.901 589.472 416.233C589.419 411.731 587.161 399.432 585.581 394.771C584.438 391.384 576.35 378.395 574.106 376.283C582.712 350.624 595.581 328.79 587.931 300.992C591.212 301.563 593.178 300.514 595.86 298.947C605.383 293.355 617.217 281.442 626.5 274.27C636.806 266.315 647.817 259.13 658.402 251.586C658.495 244.162 656.821 242.409 649.822 245.357C640.817 249.155 610.629 272.809 601.744 280.247C596.365 284.749 587.852 291.974 584.863 297.937C579.617 292.598 577.453 285.533 574.106 281.03H574.079ZM667.367 267.43C651.429 278.454 632.915 289.012 617.894 301.045C615.41 303.037 604.812 311.657 604.042 313.33C600.828 320.316 605.237 322.136 611.453 319.187C630.259 310.276 649.782 286.94 669.399 277.258C673.742 274.43 674.074 266.341 667.367 267.43ZM619.182 524.807C614.122 520.291 613.856 513.651 603.285 516.134C599.128 519.8 627.536 545.167 630.87 547.69C635.186 550.944 639.37 550.692 638.679 544.609C638.068 539.204 623.592 528.738 619.182 524.807ZM548.752 554.543C545.87 555.34 546.667 558.594 547.065 560.733C549.004 571.145 572.724 609.209 582.194 613.326C586.71 615.292 588.051 614.203 590.96 610.63C574.358 595.981 564.49 575.953 554.171 556.788C552.949 555.128 550.771 553.986 548.765 554.543H548.752Z" fill="#7BCBBD"/>
<path d="M680.103 414.719C710.982 411.731 744.637 402.407 774.613 400.906C796.792 399.804 802.277 404.094 804.363 426.433C807.404 458.945 799.356 500.675 782.754 528.884C775.449 541.302 764.917 556.27 748.621 554.411C728.899 552.153 691.273 516.28 672.905 504.115C669.252 501.698 657.26 493.702 653.979 493.078C652.704 483.848 667.699 417.056 671.138 414.971C674.047 414.108 677.155 414.998 680.103 414.706V414.719ZM787.575 426.898C789.435 424.016 785.875 420.031 782.329 420.735C758.742 424.932 731.834 421.638 708.658 425.596C701.181 426.871 695.231 428.983 697.01 437.762C698.232 439.01 726.667 433.645 731.595 433.18C739.882 432.383 784.667 431.413 787.575 426.911V426.898ZM781.267 462.12C786.127 459.052 781.001 454.257 776.007 453.248C761.504 450.286 738.767 447.683 723.958 447.059C719.495 446.873 695.456 446.262 693.929 448.533C693.743 450.153 693.796 451.694 694.646 453.168C698.325 459.53 725.419 457.139 733.095 457.75C740.188 458.321 778.318 463.992 781.267 462.12ZM690.861 471.523C692.149 473.289 726.641 480.049 733.162 482.28C741.237 485.043 765.568 498.191 771.545 497.74C775.901 497.408 777.017 491.816 773.842 489.227C759.472 483.901 745.5 476.822 730.838 472.306C724.755 470.434 697.714 463.142 693.305 463.753C692.335 463.886 690.635 471.177 690.874 471.509L690.861 471.523ZM758.051 522.682C742.299 516.772 701.127 482.201 686.97 482.241C684.486 482.241 683.171 482.48 681.684 484.618C681.471 488.709 702.907 498.723 707.635 501.658C715.936 506.824 747.824 529.973 754.478 529.88C756.271 529.854 758.117 528.419 760.003 528.406L758.038 522.695L758.051 522.682Z" fill="#7BCBBD"/>
<path d="M486.502 161.181C479.875 186.216 472.663 220.043 474.204 245.689C474.881 256.938 491.27 276.701 488.163 292.545L466.527 387.054C460.67 389.963 451.307 393.615 446.552 396.271C442.9 390.481 446.393 384.557 446.619 378.66C447.442 356.746 448.518 325.004 442.409 304.379C437.149 286.622 419.817 255.597 400.453 253.366L405.195 249.62C405.447 224.173 403.853 198.873 403.534 173.466C403.534 173.293 405.088 173.081 405.075 170.398H425.05C425.581 180.558 426.989 194.583 428.317 204.783C430.256 219.618 433.842 234.28 437.362 248.77C438.889 247.429 446.353 247.655 446.552 247.243C447.017 246.3 446.353 241.625 446.924 239.141C453.06 212.752 457.802 186.123 463.459 159.653C471.508 157.688 478.507 161.3 486.502 161.194V161.181Z" fill="#7BCBBD"/>
<path d="M538.738 178.088C530.012 194.118 516.611 220.986 510.342 238.039C503.635 256.287 513.145 254.282 523.411 243.431C536.002 230.123 549.442 210.56 560.253 196.522C566.708 196.92 572.684 202.884 577.16 207.28C576.788 207.718 576.775 209.777 575.686 211.118C562.617 227.042 550.066 243.418 537.21 259.501C544.781 261.693 550.027 260.962 556.8 256.832C566.203 251.094 591.624 224.399 601.744 214.956C606.379 218.648 611.559 221.65 614.042 227.255C598.118 242.063 582.552 260.883 566.402 276.422C565.951 276.86 562.498 276.422 561.966 278.812C569.377 307.048 560.931 338.684 547.955 364.011C533.863 362.085 513.689 367.053 500.315 371.688C499.85 368.487 500.501 365.91 501.51 362.909C509.559 338.95 524.128 314.26 521.631 288.122C519.945 270.512 508.124 249.248 488.707 247.11C484.829 246.685 480.818 245.729 480.327 245.676C492.798 220.667 504.645 195.353 517.209 170.385C524.899 171.062 532.177 174.13 538.724 178.061L538.738 178.088Z" fill="#7BCBBD"/>
<path d="M329.77 201.131C335.481 213.004 357.183 252.887 366.652 257.987C395.672 273.633 408.701 292.226 413.867 325.243C418.436 354.462 418.29 386.921 415.82 416.26C410.281 419.606 403.216 422.874 398.913 425.477C397.611 410.416 395.699 395.355 392.312 380.6C385.565 351.275 373.838 310.953 354.301 288.003C351.684 284.935 338.828 271.946 335.906 271.826C337.659 268.666 335.853 264.562 334.658 261.547C328.309 245.596 317.22 227.401 309.795 210.361C315.652 207.12 322.771 201.489 329.77 201.144V201.131Z" fill="#7BCBBD"/>
<path d="M369.72 171.938C373.293 188.42 379.628 208.634 385.472 224.559C387.57 230.296 394.238 248.664 397.252 252.423C398.541 254.03 398.992 253.206 400.44 253.379C419.804 255.61 437.136 286.635 442.395 304.392C448.505 325.018 447.429 356.76 446.606 378.674C446.38 384.571 442.887 390.494 446.539 396.285C437.269 401.464 425.807 410.23 415.806 416.26C418.29 386.921 418.436 354.475 413.854 325.243C408.688 292.226 395.645 273.646 366.639 257.987L371.288 252.755C363.399 230.761 357.156 208.356 351.273 185.764L349.732 182.696C349.506 181.806 349.958 180.518 349.732 179.628C355.921 176.839 365.55 177.543 369.707 171.952L369.72 171.938Z" fill="#32B7A1"/>
<path d="M335.906 271.813C338.828 271.933 351.684 284.922 354.301 287.99C373.838 310.94 385.565 351.261 392.312 380.586C395.699 395.342 397.611 410.403 398.913 425.463C391.555 429.939 382.829 435.863 374.329 440.83C374.555 424.401 371.195 407.441 367.702 391.384C362.203 366.11 350.449 328.484 333.489 308.828C326.277 300.474 315.108 294.019 308.268 287.193C296.727 275.678 284.946 257.934 275.995 244.175L292.902 231.877C296.873 237.773 326.224 272.836 330.634 273.394C332.918 273.686 335.202 271.8 335.933 271.826L335.906 271.813Z" fill="#32B7A1"/>
<path d="M275.981 310.222C281.148 318.297 289.289 326.837 296.009 334.049C338.496 379.577 372.868 438.027 324.405 494.632C317.631 502.534 287.682 529.894 277.469 523.08C273.564 520.477 277.522 516.506 279.806 514.58C291.905 504.407 302.597 500.117 312.823 486.132C356.067 426.964 300.127 363.719 257.547 324.061C263.656 319.44 269.885 314.858 275.981 310.236V310.222Z" fill="#32B7A1"/>
<path d="M480.353 245.689C480.844 245.742 484.855 246.698 488.733 247.123C508.151 249.248 519.971 270.525 521.658 288.136C524.155 314.273 509.585 338.963 501.537 362.922C500.527 365.924 499.876 368.5 500.341 371.701C489.411 375.499 477.006 381.861 466.541 387.067L488.176 292.558C491.297 276.727 474.894 256.951 474.217 245.702C475.12 249.116 479.37 245.596 480.366 245.702L480.353 245.689Z" fill="#32B7A1"/>
<path d="M547.954 364.011C552.961 364.702 570.373 372.843 574.079 376.31C576.336 378.421 584.425 391.41 585.554 394.797C587.121 399.459 589.392 411.771 589.445 416.26C589.618 431.161 584.106 455.984 581.769 471.576L575.34 482.825C567.398 506.147 546.454 544.516 526.452 559.165C526.04 559.471 523.411 558.913 521.99 560.015C515.256 565.195 506.969 573.23 498.801 574.532C535.085 542.219 558.898 512.827 573.322 465.427C596.258 390.003 571.343 351.74 491.894 382.459C447.256 399.725 407.89 430.391 364.328 450.047C361.18 446.541 367.794 446.116 370.876 444.243C372.669 443.154 373.824 441.162 374.329 440.856C382.829 435.889 391.554 429.966 398.912 425.49C403.202 422.874 410.268 419.62 415.819 416.273C425.82 410.243 437.282 401.478 446.552 396.298C451.32 393.642 460.67 389.989 466.527 387.081C476.993 381.875 489.397 375.513 500.328 371.714C513.702 367.079 533.876 362.099 547.968 364.038L547.954 364.011Z" fill="#AFDDD2"/>
<path d="M566.402 276.422C568.102 278.401 572.791 279.29 574.079 281.03C577.426 285.533 579.591 292.585 584.837 297.937C585.886 299 586.351 295.361 587.905 301.005C595.555 328.803 582.685 350.637 574.079 376.296C570.387 372.83 552.962 364.689 547.955 363.998C560.917 338.684 569.377 307.035 561.966 278.799C562.498 276.408 565.951 276.847 566.402 276.408V276.422Z" fill="#4FBEA9"/>
<path d="M680.103 414.719C677.155 414.998 674.047 414.121 671.138 414.985C667.712 417.07 652.704 483.848 653.979 493.091C648.308 492.002 639.383 493.968 634.004 496.159C631.162 494.685 632.676 490.754 633.141 488.403C639.25 457.657 645.187 424.534 658.588 396.285C659.384 397.015 666.875 399.831 670.076 402.474C674.22 405.914 677.394 410.124 680.103 414.719Z" fill="#4FBEA9"/>
<path d="M360.503 101.256C352.495 104.364 343.025 101.203 335.919 107.405C333.609 87.6162 329.518 66.9772 336.73 47.5202C343.038 30.5203 353.69 43.8812 356.997 54.8249C361.698 70.3904 359.374 85.7435 360.503 101.256Z" fill="#7BCBBD"/>
<path d="M595.595 90.4981C588.064 87.8153 581.702 81.6794 575.62 76.6724C585.102 64.9451 593.749 51.5842 607.149 42.8983C625.956 30.6929 634.456 36.5233 622.954 57.1623C615.822 69.9521 603.51 79.8201 595.608 90.4981H595.595Z" fill="#7BCBBD"/>
<path d="M523.371 55.1568L500.328 47.4803C506.756 34.7702 519.639 6.53432 533.053 1.0359C537.423 -0.757065 539.548 -0.571128 541.155 4.39604C543.505 11.6343 531.619 39.817 528.272 48.5162C526.997 51.8232 523.53 54.7716 523.384 55.1568H523.371Z" fill="#7BCBBD"/>
<path d="M523.371 55.1569C518.351 67.96 512.879 82.0248 508.005 95.1067C502.028 89.263 484.869 91.1888 484.962 81.281C489.756 68.6639 494.325 59.3405 500.328 47.4803L523.371 55.1569Z" fill="#32B7A1"/>
<path d="M644.762 135.057L627.854 118.15C634.814 112.16 664.577 83.8443 673.954 89.6615C679.12 92.8622 675.906 99.6489 673.98 103.593C667.698 116.41 653.952 125.693 644.762 135.057Z" fill="#7BCBBD"/>
<path d="M474.204 113.554C479.251 115.347 484.218 117.459 489.238 119.332C493.674 120.979 496.609 117.313 497.26 125.853C493.595 137.168 489.531 149.772 486.502 161.194C478.507 161.3 471.508 157.688 463.459 159.653C466.913 143.477 469.542 129.611 474.217 113.554H474.204Z" fill="#32B7A1"/>
<path d="M575.62 76.6724C581.703 81.6927 588.064 87.8286 595.595 90.4981C588.303 100.339 577.479 114.617 571.011 124.299C568.554 116.184 554.835 117.804 551.036 110.473C559.842 96.9926 565.619 89.0372 575.62 76.6724Z" fill="#32B7A1"/>
<path d="M432.713 56.6975C432.62 57.7069 432.806 58.7561 432.713 59.7655L431.173 62.8334C430.097 74.0693 429.141 85.3982 428.105 96.6341C418.728 95.0005 411.623 93.3802 401.98 95.0935C402.937 80.9357 403.76 67.6678 406.589 53.603C415.899 52.6334 423.868 54.4397 432.713 56.6709V56.6975Z" fill="#32B7A1"/>
<path d="M629.396 188.845C640.485 179.203 650.712 168.605 664.272 161.486C685.416 150.383 688.962 160.211 674.95 176.003C666.278 185.777 652.266 193.149 643.221 201.131C636.023 201.635 633.553 193.374 629.396 188.832V188.845Z" fill="#7BCBBD"/>
<path d="M315.931 165.789C308.202 164.448 301.574 172.709 294.416 170.398C293.167 166.586 290.152 162.203 288.705 156.904C285.026 143.437 278.638 122.546 290.75 112.093C303.035 118.229 303.407 135.375 307.803 147.023C310.18 153.332 313.474 159.547 315.931 165.789Z" fill="#7BCBBD"/>
<path d="M644.762 135.057C635.531 144.446 624.946 154.487 615.57 164.249L597.135 148.882C608.331 136.239 614.759 129.452 627.868 118.15L644.775 135.057H644.762Z" fill="#32B7A1"/>
<path d="M292.888 231.863L275.981 244.162C267.295 230.814 253.403 213.017 256.113 195.858C258.264 182.218 267.694 191.183 272.874 197.332C281.453 207.506 285.849 221.424 292.875 231.877L292.888 231.863Z" fill="#7BCBBD"/>
<path d="M365.112 142.746C356.877 142.122 349.759 142.959 342.069 145.814C339.665 132.878 337.46 120.527 335.919 107.405C343.025 101.216 352.494 104.364 360.503 101.256C361.512 115.268 363.026 128.881 365.112 142.746Z" fill="#32B7A1"/>
<path d="M143.846 419.328C142.93 423.803 146.064 422.103 148.707 422.834C157.645 425.304 166.079 428.505 174.393 432.569C181.631 436.115 213.519 454.005 211.248 462.797C208.619 472.97 198.605 460.406 195.058 458.002C174.433 444.057 159.518 436.527 135.173 430.231C132.451 429.527 129.104 431.865 130.02 427.004C134.602 422.542 141.362 421.811 143.846 419.328Z" fill="#32B7A1"/>
<path d="M535.67 135.057L557.185 147.355C551.607 156.4 543.532 169.296 538.751 178.088C532.217 174.157 524.925 171.075 517.235 170.411C523.531 157.887 528.591 147.382 535.67 135.07V135.057Z" fill="#32B7A1"/>
<path d="M428.105 96.6473C427.095 107.618 425.435 119.518 425.037 130.448C416.988 126.357 409.63 132.945 402.007 128.921C401.914 129.93 402.073 130.979 401.994 131.989C401.396 139.16 401.941 147.674 401.994 155.032C399.444 153.438 400.466 149.201 400.427 146.598C400.214 129.067 400.825 112.518 401.994 95.1067C411.636 93.3934 418.728 95.0137 428.118 96.6473H428.105Z" fill="#7BCBBD"/>
<path d="M315.931 165.789C320.526 177.45 324.325 189.828 329.757 201.131C322.758 201.476 315.639 207.107 309.782 210.348C303.38 195.659 299.449 185.698 294.416 170.398C301.574 172.709 308.201 164.435 315.931 165.789Z" fill="#32B7A1"/>
<path d="M432.713 56.6975C423.868 54.453 415.899 52.66 406.589 53.6295C408.209 45.5545 417.134 10.6117 427.334 10.5453C438.915 10.4656 433.351 49.167 432.713 56.6975Z" fill="#7BCBBD"/>
<path d="M425.037 130.448C424.572 143.039 424.386 157.874 425.037 170.398H405.062C404.996 159.507 403.561 149.135 403.787 137.474C403.84 135.11 405.965 133.144 401.981 131.989C402.06 130.979 401.901 129.93 401.994 128.921C409.617 132.958 416.989 126.357 425.024 130.448H425.037Z" fill="#32B7A1"/>
<path d="M484.962 81.281C484.869 91.1888 502.028 89.263 508.004 95.1067C504.312 105.014 500.501 115.799 497.247 125.839C496.596 117.3 493.674 120.965 489.225 119.318C484.204 117.459 479.237 115.334 474.19 113.541C477.351 102.677 480.937 91.8395 484.948 81.2677L484.962 81.281Z" fill="#7BCBBD"/>
<path d="M365.112 142.746C366.493 151.91 367.808 163.093 369.72 171.938C365.563 177.543 355.934 176.826 349.745 179.615C346.917 168.167 344.234 157.475 342.069 145.814C349.759 142.959 356.877 142.109 365.112 142.746Z" fill="#7BCBBD"/>
<path d="M551.036 110.473C554.834 117.804 568.567 116.184 571.011 124.299C566.761 130.674 561.581 140.21 557.185 147.342L535.669 135.043C540.65 126.384 545.723 118.588 551.036 110.46V110.473Z" fill="#7BCBBD"/>
<path d="M643.221 201.131C633.659 209.577 623.087 218.821 614.029 227.255C611.545 221.663 606.379 218.662 601.73 214.956C611.373 205.965 619.129 197.757 629.382 188.832C633.539 193.361 636.009 201.635 643.208 201.131H643.221Z" fill="#32B7A1"/>
<path d="M615.569 164.249C609.513 170.557 602.939 177.689 597.135 184.224L578.701 170.398C585.155 162.243 590.441 156.453 597.135 148.882L615.569 164.249Z" fill="#7BCBBD"/>
<path d="M597.135 184.224C590.654 191.515 583.269 199.895 577.16 207.266C572.684 202.87 566.708 196.92 560.253 196.509C566.322 188.62 571.874 178.991 578.687 170.385L597.122 184.21L597.135 184.224Z" fill="#32B7A1"/>
<path d="M145.373 457.737C153.355 458.002 177.195 465.267 182.255 470.779C185.35 474.139 183.517 479.637 179.626 480.58C176.252 481.404 163.489 474.046 158.907 472.625C148.601 469.424 137.617 467.034 126.939 465.413C127.191 464.43 126.633 462.784 127.178 461.814C129.555 457.617 140.645 457.577 145.373 457.737Z" fill="#32B7A1"/>
<path d="M405.062 170.398C405.075 173.081 403.521 173.293 403.521 173.466C400.705 168.432 402.02 160.995 401.98 155.032C401.927 147.674 401.383 139.147 401.98 131.989C405.965 133.144 403.827 135.123 403.787 137.474C403.548 149.135 404.995 159.521 405.062 170.398Z" fill="#1CAE99"/>
<path d="M351.273 185.764C351.233 185.592 350.29 184.888 349.732 182.696L351.273 185.764Z" fill="#7BCBBD"/>
<path d="M431.186 62.8466L432.727 59.7787C432.488 62.4615 431.213 62.6873 431.186 62.8466Z" fill="#7BCBBD"/>
<path d="M377.662 451.827C378.326 450.738 397.85 444.296 401.489 442.636C436.671 426.632 469.715 411.199 506.544 398.635C512.666 396.55 548.3 384.464 551.036 386.178C556.083 389.352 553.373 395.621 548.393 397.453C520.183 406.578 492.187 416.499 464.615 427.376C446.419 434.548 400.626 458.334 385.472 460.459C378.99 461.376 374.103 457.604 377.662 451.8V451.827Z" fill="#1CAE99"/>
<path d="M550.717 432.064C567.067 430.577 566.177 439.395 552.63 443.194C525.682 450.764 488.721 453.938 460.046 459.716C436.153 464.537 412.499 470.752 388.739 476.144C382.324 477.526 376.799 470.048 383.639 466.263C386.574 464.63 395.274 462.85 399.178 461.841C442.581 450.618 506.743 436.062 550.717 432.064Z" fill="#1CAE99"/>
<path d="M377.384 479.252C379.974 476.729 420.92 482.094 428.782 482.36C458.665 483.396 491.164 482.998 521.127 482.373C527.143 482.254 538.286 477.977 543.373 483.037C545.79 485.441 545.83 490.156 542.337 491.298C506.73 492.879 470.658 494.406 434.958 493.144C426.538 492.852 415.66 492.294 407.359 491.524C401.635 490.993 380.266 489.572 378.141 485.401C377.45 484.06 376.879 479.73 377.37 479.252H377.384Z" fill="#1CAE99"/>
<path d="M371.487 493.291C377.423 489.519 397.292 503.384 403.547 506.107C438.889 521.513 478.454 522.974 515.004 532.935C523.464 545.605 489.663 538.154 484.417 537.411C452.622 532.869 411.317 523.519 383.055 508.165C379.721 506.359 364.315 497.859 371.487 493.291Z" fill="#1CAE99"/>
<path d="M382.909 527.53C401.383 541.156 427.255 555.633 448.824 563.8C453.698 565.647 476.581 569.684 475.665 575.116C472.411 581.451 463.207 578.144 457.27 576.882C434.055 571.929 399.736 552.578 380 538.911C376.587 536.547 357.289 522.39 356.32 520.397C353.743 515.138 356.678 510.915 362.482 511.805C365.577 512.283 378.885 524.568 382.922 527.543L382.909 527.53Z" fill="#32B7A1"/>
<path d="M249.446 352.071C288.479 344.86 288.426 409.699 250.734 403.842C225.128 399.871 223.481 356.866 249.446 352.071ZM249.406 361.262C239.272 364.277 236.191 388.289 249.778 392.513C275.889 400.628 276.659 353.161 249.406 361.262Z" fill="#FDFAF1"/>
<path d="M256.91 498.59C267.043 488.934 273.817 472.532 274.122 458.494C274.295 450.897 266.313 428.013 272.887 424.666C279.461 421.32 280.856 427.07 282.542 431.958C290.126 453.965 286.221 480.58 272.037 499.121C268.677 503.517 252.567 518.751 247.44 511.619C242.831 505.204 253.788 501.565 256.91 498.59Z" fill="#1CAE99"/>
<path d="M618.638 340.955C623.764 343.399 627.749 348.486 630.936 353.254C632.052 354.927 631.972 358.367 632.822 359.124C633.924 360.093 636.395 359.084 637.072 359.403C637.218 359.469 636.103 361.302 636.408 362.63C642.305 387.864 625.996 404.346 617.177 426.327L601 516.201C600.748 516.958 591.584 527.888 590.973 528.419C590.641 528.698 585.196 532.789 584.824 533.028C583.974 533.586 572.114 535.259 569.457 539.177C568.886 538.54 566.057 541.143 566.389 534.569C573.389 510.769 577.984 496.664 581.756 471.576C584.107 455.984 589.618 431.161 589.432 416.26C593.151 415.914 597.003 407.76 598.676 404.758C611.134 382.379 614.6 365.021 615.556 339.441C616.592 339.932 617.602 340.49 618.624 340.982L618.638 340.955Z" fill="#32B7A1"/>
<path d="M584.837 297.937C587.825 291.987 596.338 284.749 601.717 280.247C610.603 272.809 640.791 249.155 649.796 245.357C656.795 242.409 658.468 244.162 658.375 251.586C647.79 259.13 636.767 266.315 626.474 274.27C617.177 281.442 605.356 293.369 595.834 298.947C593.151 300.527 591.185 301.563 587.905 300.992C586.351 295.334 585.873 298.987 584.837 297.924V297.937Z" fill="#1CAE99"/>
<path d="M667.367 267.43C674.074 266.341 673.742 274.43 669.399 277.258C649.795 286.94 630.259 310.276 611.452 319.187C605.237 322.136 600.827 320.316 604.042 313.33C604.812 311.657 615.41 303.037 617.894 301.045C632.915 289.012 651.429 278.454 667.367 267.43Z" fill="#1CAE99"/>
<path d="M618.637 340.955C617.601 340.464 616.592 339.906 615.569 339.415C615.636 337.542 611.89 334.925 615.543 330.941L671.855 298.083C679.957 293.767 683.264 303.648 675.388 307.819L618.637 340.955Z" fill="#1CAE99"/>
<path d="M630.936 353.254L680.01 334.872C681.046 338.339 683.224 341.805 679.187 343.877L637.085 359.389C636.395 359.071 633.938 360.08 632.835 359.111C631.972 358.354 632.065 354.914 630.949 353.24L630.936 353.254Z" fill="#1CAE99"/>
<path d="M619.182 524.807C623.592 528.738 638.068 539.204 638.679 544.609C639.37 550.692 635.186 550.944 630.87 547.69C627.536 545.18 599.127 519.8 603.285 516.134C613.856 513.651 614.122 520.291 619.182 524.807Z" fill="#1CAE99"/>
<path d="M249.405 361.262C276.659 353.147 275.888 400.628 249.777 392.513C236.191 388.289 239.272 364.277 249.405 361.262Z" fill="#1CAE99"/>
</g>
</g>
<defs>
<clipPath id="clip0_504_7593">
<rect width="669" height="516" fill="white"/>
</clipPath>
<clipPath id="clip1_504_7593">
<rect width="680" height="710" fill="white" transform="translate(125)"/>
</clipPath>
</defs>
</svg>
