<svg width="669" height="516" viewBox="0 0 669 516" fill="none" xmlns="http://www.w3.org/2000/svg">
<g clip-path="url(#clip0_504_7050)">
<rect width="669" height="516" fill="#D9D9D9" fill-opacity="0.6"/>
<g clip-path="url(#clip1_504_7050)">
<path d="M469.32 94.69C469.04 94.62 465.18 94.76 463.8 94.69C463.35 93.7 462.08 94.22 461.35 94.08C460.96 94 460.58 93.56 459.51 93.47C459.11 93.44 458.69 93.49 458.28 93.47C457.47 93.43 456.64 93.47 455.83 93.47C455.22 93.47 454.6 93.46 453.99 93.47C452.59 93.5 451.08 94.08 450.92 94.08C447.56 94.13 444.14 94.08 440.79 94.08H429.13C427.82 94.08 423.73 94.51 422.07 94.69C420.66 94.85 421.12 95.44 419.62 95.92C418.76 95.33 416.19 95.48 415.14 95.57C373.5 98.96 324.34 116.47 291.97 143.18C291.75 143.36 291.57 143.61 291.36 143.79C289.94 144.05 288.64 145.36 287.55 146.28C283.22 149.95 278.97 154.07 274.79 157.9C272.48 160.02 270.61 162.62 268.68 164.37C246.21 184.66 219.71 199.68 205.34 227.45C202.35 233.23 200.13 242.94 196.85 247.5C194.61 250.62 191.74 250.56 191.89 255.79C192.11 263.93 204.13 262.66 207.29 266.21C211.65 271.12 199.33 269.44 197.77 269.6C192.87 270.09 189.37 274.74 190.13 279.68C190.49 282.03 192.41 282.63 193.16 284.64C194.08 287.13 194.04 290.82 194.69 293.55C198.34 308.95 201.54 320.09 209.13 334.03C228.9 370.32 262.46 400.44 299.35 418.72C307.6 422.81 317.42 427.33 326.35 429.77C327.5 430.08 328.58 430.15 329.42 430.38C330.62 431.64 332.7 432.04 334.33 432.53C352.71 437.96 373.8 441.11 392.94 442.04C410.9 442.91 428.93 441.61 446.63 438.98C447.03 438.94 447.45 439 447.86 438.98C450.79 438.85 455.83 437.01 459.29 436.6C463.74 436.07 466.73 435.08 470.25 438.37C473.18 441.11 476.07 450.53 477.28 454.66C487.36 489.11 494.16 525.86 505.86 559.87C508.94 568.82 517.75 589.82 524.54 595.81C532.84 603.13 539.66 592.32 543.08 585.46C550.38 570.83 555.29 551.5 558.76 535.48C565.42 504.73 574.09 457.68 568.58 427.18C568.04 424.17 564.26 414.04 564.42 412.33C564.46 411.89 568.1 410.7 568.74 410.14C574.9 409.44 578.23 410.64 584.08 411.37C585.81 411.59 589.29 412.6 590.52 412.6H600.95C603.16 412.6 605.54 412.72 608.01 412.6C629.57 411.59 654.16 405.19 658.78 380.83C659.58 376.6 659.01 370.65 661.73 367.21C663.59 364.86 669.21 362.85 672.03 360.93C678.58 356.48 684.05 349.54 686.57 342.02C691.15 328.31 686.13 321.31 685.34 308.88C685.33 308.68 685.34 308.47 685.34 308.27C686.18 302.1 692.28 300.05 695.16 296.14C702.82 285.73 703.73 273.88 699.46 261.63C698.45 258.74 696.88 255.31 695.06 252.84C690.95 247.24 685.05 246.88 686.72 238.15C687.65 233.28 691.19 230.28 692.1 222.97C693.13 222.33 693.25 221.31 693.34 220.22C693.94 212.91 691.92 205.97 688.42 199.65C683.32 190.44 679 190.83 673.05 184.64C667.58 178.94 671.87 174.59 672.46 168.35C672.69 165.87 672.69 161.62 672.46 159.14C671.34 147.19 658.99 137.34 649.14 132.14C637.99 126.26 622.78 124.16 610.14 124.75C603.8 125.04 595.38 127.35 589.36 127.17C587.84 127.13 585.92 126.32 584.7 125.39C584.5 125.18 584.31 124.95 584.09 124.78C583.41 123.77 583.36 122.72 583.59 121.56C584.22 118.4 587.55 112.89 588.59 108.72C597.21 74.47 589.26 18.81 583.38 -16.6C581.01 -30.89 575.66 -58.53 569.79 -71.13C565.53 -80.28 558.82 -86.55 550 -77.78C544.23 -72.04 538.34 -60.19 535.3 -52.58C525.92 -29.1 519.33 -4.66003 512.45 19.7C506.88 39.44 500.16 75.7 488.61 91.6C483.54 98.57 476.53 95.01 469.32 94.71V94.69Z" fill="#FFFEF5"/>
<path d="M422.06 94.69C421.77 96.63 422.84 95.85 424.02 95.74C436.44 94.62 451.36 94.05 463.79 94.69C465.17 94.76 469.04 94.62 469.31 94.69C476.96 96.49 477.27 96.14 485.07 96.15C490.94 96.16 495.32 99.34 500.74 101.01C513.46 104.93 527.77 107.02 540.78 110.68C550.33 113.37 559.37 117.1 568.74 120.16C572.89 121.52 580.58 122.01 584.09 124.76C584.32 124.94 584.5 125.17 584.7 125.37C585.52 126.22 585.56 127.89 586.83 127.87C606.63 126.55 626.5 123.08 645.28 131.37C645.96 131.67 648.56 132.88 649.14 132.12C659 137.32 671.34 147.18 672.46 159.12C671.44 161.39 671.42 165.93 672.46 168.33C671.87 174.57 667.58 178.91 673.05 184.62C678.99 190.81 683.32 190.42 688.42 199.63L690.7 206.25C692.35 212.31 692.88 216.72 692.11 222.95C691.2 230.26 687.67 233.26 686.73 238.13C685.06 246.86 690.96 247.22 695.07 252.82C696.89 255.29 698.46 258.72 699.47 261.61C697.64 262.31 698.71 262.68 698.94 263.63C701.16 272.62 701.82 279.62 698.57 288.01C695.6 295.67 694.7 294.62 689.63 299.33C688.74 300.15 684.97 305.81 684.83 306.91C684.72 307.84 685.35 308.18 685.35 308.25C685.35 308.45 685.34 308.66 685.35 308.86C682.13 309.24 684.78 313.18 685.1 314.33C685.52 315.89 686.52 318.25 686.57 318.48C688.02 324.86 687.69 332.65 686.37 339.03C686.18 339.93 685.42 341.4 686.58 342C684.06 349.52 678.59 356.46 672.04 360.91C669.22 362.82 663.6 364.84 661.74 367.19C659.02 370.62 659.59 376.58 658.79 380.81C654.16 405.17 629.57 411.58 608.02 412.58L584.08 411.35C578.23 410.62 574.9 409.42 568.74 410.12C566.51 410.37 564.47 411.33 562.9 411.39C560.42 411.49 556.3 410.19 553.68 410.11C548.79 409.96 539.19 415.42 533.91 417.33C523.98 420.92 512.75 423.87 502.47 426.39C498.28 427.42 478.46 430.67 476.7 432.54C475.99 433.3 476.15 434.8 475.06 435.19C474.5 435.39 470.37 435.95 469.65 435.93C467.92 435.87 466.55 434.7 464.8 434.72C461.43 434.77 455.82 436.61 452.14 436.81L447.85 438.96C447.44 438.98 447.02 438.92 446.62 438.96C406.9 443.01 368.15 441.04 329.4 430.37C328.56 430.14 327.48 430.07 326.33 429.76C326.67 428.25 323.83 427.84 322.8 427.46C315.5 424.79 308.85 422.25 301.76 419.04C301.26 418.81 299.52 417.73 299.33 418.71C262.45 400.43 228.88 370.31 209.11 334.02C210.31 333.68 209.14 332.14 208.82 331.55C204.07 322.84 201.26 314.84 198.71 305.45C196.83 298.53 195.04 291.48 194.38 284.31H203.89C204.95 284.31 211.68 282.29 212.93 281.69C225.48 275.7 221.96 259.38 211.75 252.51C206.81 249.18 202.72 248.14 196.83 247.49C200.11 242.93 202.33 233.22 205.32 227.44C219.69 199.67 246.19 184.65 268.66 164.36C270.6 162.61 272.46 160.01 274.77 157.89C274.88 158.97 276.83 157.23 277.01 157.06C281.36 152.8 286.65 147.71 291.34 143.78C291.56 143.6 291.73 143.35 291.95 143.17C295 142.7 296.9 140.19 299.35 138.6C326.5 121 356.9 105.51 389.85 100.22C394.16 99.53 397.44 98.39 401.58 97.83C407.09 97.08 414.5 97.54 419.61 95.92C421.11 95.44 420.66 94.85 422.06 94.69ZM591.88 135.39C589.58 133.51 587.68 135.04 588.5 137.82C600.5 161.32 610.98 190.33 614.71 216.58C623.25 276.6 617.59 348.03 577.34 396.34C576.01 397.94 572.52 399.4 573.13 401.73C574.13 405.61 578.15 401.12 579.5 399.72C605.35 372.92 620.97 316.88 622.75 280.34C624.67 240.91 617.76 196.81 603.74 160.05C602.06 155.64 594.73 137.72 591.89 135.4L591.88 135.39ZM486.93 165.4C483.66 166.16 482.22 171.26 484.37 173.84C486.92 176.9 494.56 175.71 495.11 171.75C495.92 165.92 492.23 164.18 486.93 165.41V165.4ZM533.94 176.49C529.45 181.93 540.51 187.7 543.26 181.21C545.82 175.16 537.16 172.59 533.94 176.49ZM454.45 183.19C450.06 183.54 447.81 185.41 448.47 190.07C449.51 197.42 464.04 196.29 462.54 187.7C461.92 184.15 457.55 182.94 454.45 183.18V183.19ZM505.4 196.08C505.19 195.93 500.89 194.92 500.42 194.92C497.69 194.94 493.78 196.99 493.29 199.98C491.55 210.68 508.29 210.98 506.6 199.48C506.52 198.93 505.64 196.25 505.39 196.08H505.4ZM550.76 202.22C547.25 203.25 545.4 210.32 549.71 212.22C562.58 217.9 563.44 198.51 550.76 202.22ZM415.3 283.72C415.56 286.79 411.93 287.61 410.1 289.25C399.61 298.65 391.34 303.5 376.4 301.44C369.43 300.48 362.97 297.47 356.53 294.86C351.17 295.66 356.02 299.41 358.64 300.79C371.64 307.62 392.54 306.73 404.82 298.71C420.42 288.52 441.34 255.58 443.99 237.23C446.54 219.56 436.4 206.83 418.13 208.3C390.81 210.51 370.85 232.08 355.12 251.93C354.11 253.2 348.01 260.76 347.46 260.99C346.21 261.52 346.6 260.13 346.55 259.47C346 251.85 347.64 247.64 344.88 239.65C344.05 237.24 341.37 231.97 338.05 234.08C335.88 235.46 339.93 239.01 340.55 240.31C342.64 244.69 343.21 251.63 342.9 256.42C342.42 263.89 337.53 268.84 337.31 275.42C337.26 276.96 337.87 284.43 338.24 285.58C339.26 288.69 343.31 287.87 343.48 284.58C343.56 283 341.74 279.88 341.62 277.28C341.22 268.73 346.99 267.42 351.78 262.23C356.59 257.02 360.26 251.02 364.46 245.45C376.67 229.26 402.99 210.04 424.22 211.88C427.84 212.19 433.3 213.43 434.32 217.42C422.92 220.19 411.25 224.52 401.23 230.67C382.07 242.42 368.1 264.35 349.66 273.61C347.27 274.81 344.69 273.96 345.33 277.56C349.91 277.99 355.04 274.84 358.78 272.29C368.42 265.72 375.54 256.25 383.99 248.4C394.98 238.19 409.04 228.78 423.3 223.88C425.22 223.22 435.18 220.35 436.46 220.48C440.45 220.87 440.98 231.54 440.39 234.53C423.71 236.97 407.66 245.34 393.49 254.22C382.68 261 370.62 272.35 359.25 277.06C355.99 278.41 350.91 277.8 351.46 282.46C367.61 280.7 379.16 267.77 392.26 259.13C406.22 249.92 422.59 241.04 439.22 238.28C437.9 245.77 434.39 252.6 430.84 259.19C423.75 259.94 417.43 261.22 410.67 263.42C394.49 268.7 380.31 278.59 363.75 282.79C361.54 283.35 353.05 283.2 355.23 286.67C356.21 288.23 365.45 285.75 367.41 285.22C386.07 280.13 406.37 264.84 425.39 263.41C426.31 263.34 429.23 262.9 428.78 264.34C425.7 268.19 421.94 277.66 417.55 279.51C414.73 280.69 412.33 280.25 409.73 280.89C394.92 284.55 379.53 291.1 364.04 291.05C362.72 291.05 353.33 288.37 356.92 292.65C359.6 295.84 375.97 293.44 380.33 292.62C392.19 290.4 403.26 285.07 415.28 283.69L415.3 283.72ZM251.05 221.95C234.53 239.13 258.54 265.5 276.33 247.54C294.26 229.44 267.74 204.59 251.05 221.95ZM524.38 223.1C514.8 225.13 514.91 240.82 527.79 238.16C537.86 236.08 535.42 220.76 524.38 223.1ZM470.14 238.7C473.49 241.85 481.46 241.42 483.02 236.36C485.11 229.62 480.19 226.38 473.96 226.68C467.73 226.98 466.48 235.26 470.14 238.7ZM569.16 240.34C562.54 234.29 553.56 247.74 564.75 248.77C570.62 249.31 572.67 243.55 569.16 240.34ZM501.63 256.88C497.34 257.58 495.21 265.04 500.71 266.74C507.8 268.92 512.71 261.33 506.3 258.08C505.55 257.7 502.31 256.77 501.62 256.88H501.63ZM536.96 267.27C536.54 267.57 535.09 272.72 535.16 273.5C535.69 278.97 544.05 279.93 548.08 277.48C552.04 275.08 550.97 267.35 546.3 266.56C544.78 266.3 538 266.5 536.96 267.26V267.27ZM464.84 274.64C460.49 275.91 460.08 284.91 467.78 285.56C471.76 285.9 474.72 284.87 474.72 280.34C474.72 275.28 469.11 273.39 464.84 274.64ZM510.87 289.99C502.76 291.86 507.16 305.54 516.8 300.21C523.72 296.39 518.48 288.24 510.87 289.99Z" fill="#7DCCC1"/>
<path d="M584.08 124.76C580.57 122.01 572.89 121.52 568.73 120.16C559.37 117.1 550.32 113.37 540.77 110.68C527.76 107.02 513.45 104.93 500.73 101.01C495.31 99.3399 490.94 96.1599 485.06 96.1499C477.27 96.1399 476.95 96.49 469.3 94.69C476.51 95 483.53 98.55 488.59 91.58C500.14 75.68 506.86 39.42 512.43 19.68C519.31 -4.68005 525.9 -29.12 535.28 -52.6C538.32 -60.21 544.21 -72.06 549.98 -77.8C558.8 -86.58 565.51 -80.31 569.77 -71.15C575.64 -58.55 580.99 -30.91 583.36 -16.62C589.24 18.78 597.19 74.45 588.57 108.7C587.52 112.86 584.2 118.37 583.57 121.54C583.34 122.7 583.39 123.76 584.07 124.76H584.08Z" fill="#4BAFA1"/>
<path d="M568.74 410.14C568.11 410.7 564.47 411.89 564.42 412.33C564.26 414.04 568.04 424.17 568.58 427.18C574.08 457.69 565.42 504.74 558.76 535.48C555.29 551.5 550.38 570.84 543.08 585.46C539.66 592.32 532.84 603.13 524.54 595.81C517.75 589.82 508.94 568.82 505.86 559.87C494.15 525.86 487.36 489.11 477.28 454.66C476.07 450.53 473.18 441.11 470.25 438.37C466.73 435.08 463.74 436.07 459.29 436.6C455.83 437.01 450.79 438.84 447.86 438.98L452.15 436.83C455.82 436.63 461.43 434.79 464.81 434.74C466.56 434.71 467.94 435.89 469.66 435.95C470.38 435.97 474.51 435.41 475.07 435.21C476.17 434.82 476 433.32 476.71 432.56C478.46 430.69 498.29 427.44 502.48 426.41C512.76 423.89 524 420.94 533.92 417.35C539.2 415.44 548.8 409.98 553.69 410.13C556.31 410.21 560.43 411.51 562.91 411.41C564.48 411.35 566.52 410.39 568.75 410.14H568.74Z" fill="#4BAFA1"/>
<path d="M196.82 247.51C202.72 248.17 206.8 249.21 211.74 252.53C221.95 259.4 225.47 275.72 212.92 281.71C211.67 282.31 204.94 284.33 203.88 284.33H194.37C195.03 291.5 196.82 298.55 198.7 305.47C201.25 314.85 204.06 322.86 208.81 331.57C209.13 332.16 210.3 333.7 209.1 334.04C201.51 320.1 198.31 308.96 194.66 293.56C194.01 290.84 194.06 287.15 193.13 284.65C192.39 282.64 190.47 282.04 190.1 279.69C189.34 274.74 192.84 270.1 197.74 269.61C199.3 269.45 211.62 271.14 207.26 266.22C204.1 262.66 192.08 263.94 191.86 255.8C191.72 250.57 194.58 250.63 196.82 247.51Z" fill="#4BAFA1"/>
<path d="M446.61 438.99C428.9 441.63 410.87 442.92 392.92 442.05C373.78 441.12 352.69 437.97 334.31 432.54C332.68 432.06 330.6 431.66 329.4 430.39C368.15 441.06 406.9 443.03 446.62 438.98L446.61 438.99Z" fill="#4DAC9B"/>
<path d="M419.6 95.92C414.49 97.55 407.07 97.08 401.57 97.83C397.44 98.4 394.16 99.53 389.84 100.22C356.89 105.51 326.5 120.99 299.34 138.6C296.89 140.19 295 142.7 291.94 143.17C324.31 116.46 373.47 98.95 415.11 95.56C416.16 95.47 418.73 95.32 419.59 95.91L419.6 95.92Z" fill="#4DAC9B"/>
<path d="M649.13 132.13C648.56 132.89 645.95 131.68 645.27 131.38C626.49 123.09 606.62 126.56 586.82 127.88C585.55 127.9 585.51 126.22 584.69 125.38C585.91 126.31 587.84 127.12 589.35 127.16C595.37 127.33 603.79 125.03 610.13 124.74C622.76 124.15 637.97 126.25 649.13 132.13Z" fill="#4DAC9B"/>
<path d="M450.9 94.0801C451.88 94.0401 453.44 94.4601 453.97 93.4701C454.58 93.4601 455.2 93.4701 455.81 93.4701C456.06 94.4301 458.07 94.3901 458.26 93.4701C458.67 93.4901 459.08 93.4401 459.49 93.4701L461.33 94.0801C462.06 94.2301 463.34 93.7001 463.78 94.6901C451.35 94.0501 436.43 94.6201 424.01 95.7401C422.83 95.8501 421.75 96.6301 422.05 94.6901C423.71 94.5101 427.8 94.0801 429.11 94.0801H440.77C444.12 94.0801 447.53 94.1301 450.9 94.0801Z" fill="#4DAC9B"/>
<path d="M299.32 418.73C299.51 417.75 301.25 418.83 301.75 419.06C308.83 422.27 315.48 424.81 322.79 427.48C323.83 427.86 326.66 428.26 326.32 429.78C317.38 427.34 307.57 422.82 299.32 418.73Z" fill="#4DAC9B"/>
<path d="M608.02 412.6C605.55 412.72 603.18 412.6 600.96 412.6H590.53C589.3 412.6 585.81 411.59 584.09 411.37L608.03 412.6H608.02Z" fill="#4DAC9B"/>
<path d="M291.34 143.79C286.65 147.72 281.36 152.81 277.01 157.07C276.84 157.24 274.88 158.98 274.77 157.9C278.95 154.06 283.21 149.94 287.53 146.28C288.62 145.36 289.92 144.05 291.34 143.79Z" fill="#4DAC9B"/>
<path d="M453.97 93.46C453.45 94.45 451.88 94.04 450.9 94.07C451.06 94.07 452.57 93.49 453.97 93.46Z" fill="#72C8B4"/>
<path d="M458.27 93.46C458.07 94.38 456.07 94.42 455.82 93.46C456.63 93.46 457.47 93.42 458.27 93.46Z" fill="#72C8B4"/>
<path d="M461.34 94.08L459.5 93.47C460.57 93.56 460.95 94 461.34 94.08Z" fill="#72C8B4"/>
<path d="M415.3 283.72C403.28 285.1 392.21 290.43 380.35 292.65C375.99 293.46 359.62 295.86 356.94 292.68C353.34 288.41 362.74 291.08 364.06 291.08C379.55 291.13 394.93 284.58 409.75 280.92C412.36 280.28 414.76 280.72 417.57 279.54C421.95 277.7 425.72 268.22 428.8 264.37C429.25 262.93 426.33 263.37 425.41 263.44C406.39 264.87 386.1 280.16 367.43 285.25C365.47 285.78 356.22 288.26 355.25 286.7C353.07 283.23 361.56 283.38 363.77 282.82C380.33 278.63 394.5 268.73 410.69 263.45C417.45 261.25 423.77 259.97 430.86 259.22C434.42 252.62 437.93 245.8 439.24 238.31C422.61 241.07 406.24 249.95 392.28 259.16C379.18 267.8 367.63 280.73 351.48 282.49C350.93 277.82 356.01 278.43 359.27 277.09C370.64 272.39 382.7 261.03 393.51 254.25C407.67 245.37 423.72 237 440.41 234.56C441 231.56 440.47 220.9 436.48 220.51C435.2 220.38 425.24 223.25 423.32 223.91C409.06 228.81 395 238.22 384.01 248.43C375.56 256.28 368.45 265.75 358.8 272.32C355.06 274.87 349.93 278.02 345.35 277.59C344.72 273.99 347.29 274.84 349.68 273.64C368.12 264.38 382.09 242.45 401.25 230.7C411.27 224.55 422.94 220.22 434.34 217.45C433.31 213.46 427.86 212.23 424.24 211.91C403.02 210.07 376.7 229.3 364.48 245.48C360.28 251.05 356.61 257.05 351.8 262.26C347.01 267.45 341.24 268.75 341.64 277.31C341.76 279.9 343.59 283.02 343.5 284.61C343.33 287.9 339.28 288.72 338.26 285.61C337.89 284.46 337.28 276.99 337.33 275.45C337.55 268.88 342.44 263.92 342.92 256.45C343.23 251.65 342.66 244.71 340.57 240.34C339.95 239.05 335.91 235.49 338.07 234.11C341.39 232 344.07 237.27 344.9 239.68C347.66 247.66 346.02 251.88 346.57 259.5C346.62 260.16 346.23 261.55 347.48 261.02C348.03 260.79 354.13 253.23 355.14 251.96C370.87 232.11 390.83 210.54 418.15 208.33C436.41 206.85 446.56 219.58 444.01 237.26C441.36 255.6 420.44 288.54 404.84 298.74C392.56 306.76 371.65 307.65 358.66 300.82C356.04 299.44 351.19 295.69 356.55 294.89C362.99 297.5 369.45 300.51 376.42 301.47C391.36 303.53 399.62 298.68 410.12 289.28C411.95 287.64 415.58 286.82 415.32 283.75L415.3 283.72Z" fill="#4BAFA1"/>
<path d="M591.88 135.39C594.72 137.71 602.05 155.63 603.73 160.04C617.75 196.81 624.66 240.9 622.74 280.33C620.96 316.88 605.34 372.92 579.49 399.71C578.14 401.11 574.12 405.6 573.12 401.72C572.52 399.38 576 397.92 577.33 396.33C617.58 348.02 623.24 276.6 614.7 216.57C610.97 190.32 600.49 161.31 588.49 137.81C587.67 135.02 589.57 133.5 591.87 135.38L591.88 135.39Z" fill="#4BAFA1"/>
<path d="M251.05 221.95C267.74 204.59 294.26 229.44 276.33 247.54C258.54 265.5 234.53 239.14 251.05 221.95ZM275.17 228.68C272.98 227.38 273.23 224.95 270.61 223.74C264.2 220.77 258.66 221.39 254.19 227.25C244.52 239.9 261.31 253.82 270.87 244.85C271.19 244.55 274.8 240.26 274.95 239.99C276.75 236.8 277.29 231.88 275.16 228.69L275.17 228.68Z" fill="#FFFEF5"/>
<path d="M524.38 223.1C535.42 220.76 537.86 236.08 527.79 238.16C514.91 240.82 514.8 225.13 524.38 223.1Z" fill="#4BAFA1"/>
<path d="M470.14 238.7C466.48 235.26 468 226.96 473.96 226.68C479.92 226.4 485.1 229.62 483.02 236.36C481.45 241.42 473.49 241.86 470.14 238.7Z" fill="#4BAFA1"/>
<path d="M536.96 267.27C538 266.51 544.78 266.31 546.3 266.57C550.98 267.36 552.04 275.08 548.08 277.49C544.04 279.94 535.69 278.98 535.16 273.51C535.08 272.73 536.54 267.58 536.96 267.28V267.27Z" fill="#4BAFA1"/>
<path d="M505.4 196.08C505.64 196.25 506.53 198.93 506.61 199.48C508.29 210.98 491.56 210.68 493.3 199.98C493.79 196.99 497.7 194.94 500.43 194.92C500.9 194.92 505.2 195.93 505.41 196.08H505.4Z" fill="#4BAFA1"/>
<path d="M454.45 183.19C457.55 182.95 461.92 184.16 462.54 187.71C464.04 196.3 449.5 197.42 448.47 190.08C447.81 185.42 450.07 183.54 454.45 183.2V183.19Z" fill="#4BAFA1"/>
<path d="M510.87 289.99C518.48 288.23 523.71 296.38 516.8 300.21C507.16 305.54 502.76 291.86 510.87 289.99Z" fill="#4BAFA1"/>
<path d="M464.84 274.64C469.11 273.39 474.72 275.28 474.72 280.34C474.72 284.87 471.77 285.9 467.78 285.56C460.08 284.91 460.49 275.91 464.84 274.64Z" fill="#4BAFA1"/>
<path d="M550.76 202.22C563.44 198.51 562.58 217.91 549.71 212.22C545.4 210.31 547.25 203.24 550.76 202.22Z" fill="#4BAFA1"/>
<path d="M486.93 165.4C492.24 164.17 495.93 165.91 495.11 171.74C494.56 175.7 486.92 176.89 484.37 173.83C482.22 171.25 483.66 166.15 486.93 165.39V165.4Z" fill="#4DAC9B"/>
<path d="M501.63 256.88C502.32 256.77 505.56 257.7 506.31 258.08C512.72 261.33 507.81 268.92 500.72 266.74C495.22 265.05 497.34 257.58 501.64 256.88H501.63Z" fill="#4BAFA1"/>
<path d="M569.16 240.34C572.67 243.55 570.62 249.31 564.75 248.77C553.56 247.74 562.55 234.29 569.16 240.34Z" fill="#4BAFA1"/>
<path d="M533.94 176.49C537.16 172.59 545.82 175.17 543.26 181.21C540.51 187.69 529.45 181.92 533.94 176.49Z" fill="#4BAFA1"/>
<path d="M275.17 228.68C277.3 231.87 276.75 236.79 274.96 239.98C274.8 240.26 271.19 244.54 270.88 244.84C261.33 253.82 244.53 239.9 254.2 227.24C258.67 221.38 264.21 220.76 270.62 223.73C273.23 224.94 272.99 227.37 275.18 228.67L275.17 228.68Z" fill="#4BAFA1"/>
</g>
</g>
<defs>
<clipPath id="clip0_504_7050">
<rect width="669" height="516" fill="white"/>
</clipPath>
<clipPath id="clip1_504_7050">
<rect width="512" height="680.26" fill="white" transform="translate(190 -82)"/>
</clipPath>
</defs>
</svg>
