<svg width="669" height="516" viewBox="0 0 669 516" fill="none" xmlns="http://www.w3.org/2000/svg">
<g clip-path="url(#clip0_504_11433)">
<rect width="669" height="516" fill="#D9D9D9" fill-opacity="0.6"/>
<g clip-path="url(#clip1_504_11433)">
<path d="M478.087 438.126C479.638 437.156 479.027 434.574 479.042 432.994C480.029 338.267 455.47 225.031 419.321 137.578C414.764 126.533 401.607 103.473 399.728 93.6173C397.519 81.9622 403.69 75.8764 414.012 83.0886C433.919 97.0122 456.614 158.307 463.584 182.134C484.086 252.19 494.047 324.546 495.895 397.528C495.958 400.172 494.47 402.706 494.924 405.429C497.775 405.867 496.443 404.724 496.741 403.066C500.845 380.272 501.017 355.225 501.424 332.04C502.63 262.922 494.862 193.336 474.798 127.003C471.759 116.943 460.529 90.9734 461.172 82.5723C461.876 73.1699 469.911 73.6393 475.894 78.7394C490.492 91.1924 502.755 133.527 507.376 152.394C524.73 223.326 524.714 295.322 520.078 367.475C519.029 383.839 516.711 400.188 516.429 416.614L519.875 404.646C538.779 315.598 543.556 223.514 528.317 133.339C526.312 121.465 517.259 89.362 521.034 79.7406C523.117 74.4528 527.909 73.5767 532.295 77.0498C545.42 87.4064 553.972 131.555 556.493 148.17C569.76 235.607 556.54 326.58 537.009 411.937C539.656 412.422 538.544 411.311 539.108 409.887C547.018 390.175 553.063 361.17 558.06 340.019C572.861 277.222 584.576 207.025 581.929 142.366C581.271 126.111 577.324 109.168 579.079 92.882C580.05 83.8708 589.4 75.3758 594.992 84.4183C599.315 91.3958 601.962 105.351 603.246 113.595C610.012 157.212 606.582 204.271 599.393 247.7C590.058 304.052 572.532 358.604 558.514 413.798L578.844 361.718C603.324 295.479 623.45 227.863 631.454 157.338C633.255 141.458 632.77 123.201 635.307 107.932C637.844 92.663 648.072 94.337 651.987 107.885C656.577 123.749 655.277 147.278 653.898 163.877C648.025 235.153 621.853 305.945 595.43 371.746C588.774 388.329 581.381 404.818 574.396 421.261C576.338 421.683 576.573 420.322 577.387 419.117C587.756 403.708 599.565 376.502 607.929 358.996C634.759 302.847 658.158 243.57 674.4 183.417C678.645 167.725 681.558 150.767 686.147 135.357C687.306 131.461 690.987 120.229 694.167 118.148C699.46 114.659 702.969 117.272 704.566 122.607C714.261 155.225 686.821 228.239 673.993 260.56C649.497 322.278 618.329 380.084 584.686 437.14L587.709 435.028C633.835 366.567 679.867 295.056 712.993 219.165C722.484 197.434 728.718 173.06 738.585 152.237C741.373 146.339 747.763 135.42 753.841 145.338C761.343 157.572 749.831 192.115 745.054 205.413C723.424 265.66 687.463 323.107 652.238 376.173L612.753 433.417C614.382 433.745 615.071 432.572 616.042 431.57C632.629 414.299 651.893 388.673 666.976 369.399C702.75 323.717 735.265 275.485 763.504 224.765C769.801 213.47 780.561 186.89 789.018 179.24C796.709 172.294 804.524 175.516 803.459 186.186C800.421 217.1 765.885 271.699 747.716 297.7C718.459 339.612 688.356 378.817 654.384 417.537C646.459 426.564 637.484 434.934 630.514 444.602C634.743 445.604 634.023 443.257 636.074 441.317C690.517 389.471 751.35 327.237 794.03 265.535C803.099 252.425 818.855 221.105 830.728 213.423C838.324 208.511 843.712 211.515 842.741 220.76C839.076 255.57 783.208 322.012 758.696 347.95C729.908 378.395 698.756 407.791 668.825 436.655C662.951 442.318 655.652 447.903 650.171 454.443C649.294 455.491 647.9 455.96 648.307 457.713L708.607 410.044C753.418 373.889 793.968 336.358 832.106 293.288C839.091 285.404 862.632 253.379 871.45 252.19C883.181 250.61 876.305 266.943 873.893 272.434C855.6 313.955 798.886 364.315 763.551 393.241C730.034 420.698 694.026 445.432 661.26 473.952C660.351 474.734 658.895 473.952 659.505 476.376L729.391 432.681C769.973 403.144 811.729 374.828 848.457 340.457C856.351 333.073 889.759 296.496 896.651 295.181C905.124 293.57 906.879 300.016 904.764 307.024C902.43 314.768 883.698 338.626 877.464 345.15C824.635 400.266 755.422 442.835 691.222 483.323L660.445 500.672C675.794 495.494 690.815 487.938 705.381 480.632C765.493 450.5 827 415.566 878.827 372.653C885.562 367.084 911.749 340.113 919.565 342.24C934.413 346.277 914.428 369.258 909.729 374.562C876.274 412.343 818.511 448.326 774.249 472.809C697.393 515.316 590.622 553.238 541.269 629.693C535.302 638.939 536.195 643.491 525.466 649.405C517.932 653.566 510.916 655.35 502.38 655.772C501.127 640.488 495.535 626.095 492.371 611.123C480.515 555.006 483.585 495.478 478.071 438.094L478.087 438.126ZM516.429 419.446C517.102 418.132 515.834 416.959 515.505 417.584C514.831 418.898 516.1 420.072 516.429 419.446ZM612.784 434.402C611.422 433.041 607.663 438.923 607.177 439.987C608.289 441.004 613.802 435.419 612.784 434.402ZM630.561 445.619C629.809 444.9 625.001 449.296 625.894 450.281C626.223 450.657 630.921 445.963 630.561 445.619ZM641.791 462.406C643.342 462.985 648.667 459.167 647.383 457.744L641.791 462.406Z" fill="#5DC3B0"/>
<path d="M478.087 438.125C483.6 495.509 480.53 555.037 492.387 611.154C495.551 626.126 501.142 640.519 502.395 655.803C490.633 656.382 467.092 653.378 457.992 645.509C451.617 639.987 445.979 626.861 441.061 619.445C379.727 527.018 264.373 454.646 159.622 421.276C139.746 414.94 114.044 410.685 95.5469 403.05C83.753 398.185 89.6108 389.58 99.4625 387.374C103.738 386.42 114.232 386.076 118.508 386.639C120.294 386.874 119.761 388.501 120.466 388.626C122.173 388.908 123.99 387.625 125.822 387.75C167.892 390.566 242.007 426.063 279.142 447.637L338.722 484.809C301.258 456.226 262.994 426.893 221.504 404.302C185.027 384.449 146.434 368.085 106.495 356.617C100.856 352.753 89.8927 352.346 89.8614 343.273C89.8614 338.47 93.6674 336.749 97.8649 336.264C114.953 334.293 137.914 341.771 153.999 347.45C203.915 365.112 252.97 393.711 295.979 424.249L342.45 458.635C343.484 457.556 336.107 450.813 334.979 449.749C294.351 411.123 229.947 363.814 180.046 338.235C157.492 326.674 132.589 319.415 110.003 308.244C103.801 305.178 94.5601 298.138 102.094 290.973C109.627 283.808 134.969 292.068 143.709 295.134C205.388 316.865 282.181 371.886 329.842 416.567C338.237 424.436 346.428 434.637 355.074 441.833C356.123 442.709 356.593 444.102 358.347 443.695L349.905 432.04C295.619 369.289 234.269 318.492 161.611 278.16C153.341 273.576 127.624 262.672 122.58 257.353C118.101 252.612 118.947 245.745 125.963 244.759C160.029 239.94 231.153 291.505 257.763 312.922C306.583 352.237 348.433 397.512 387.323 446.495C382.546 436.404 376.046 427.033 369.765 417.787C336.248 368.413 287.443 317.944 242.367 278.77C219.233 258.667 200.783 247.027 175.457 230.694C169.771 227.034 150.334 215.832 156.756 207.29C157.273 206.586 167.203 205.413 168.8 205.491C195.99 206.79 249.713 251.001 269.964 269.884C308.494 305.788 338.769 342.803 369.39 385.466C380.291 400.657 390.33 416.489 401.357 431.539C391.192 408.886 378.693 387.093 365.27 366.223C334.822 318.851 294.836 264.753 254.067 225.985C238.592 211.264 220.909 201.94 205.435 188.611C201.143 184.919 189.757 175.36 198.465 170.494C207.173 165.629 230.463 178.52 238.53 183.573C293.614 218.085 355.967 307.165 386.884 364.252L420.997 432.462C414.184 410.262 404.771 388.563 394.684 367.662C366.382 309.011 332.896 248.686 289.605 199.812C273.911 182.087 255.899 166.896 239.971 149.437C236.885 131.884 256.244 140.347 264.733 145.26C319.458 176.924 380.306 282.806 406.212 340.284L435.031 411.921C428.876 390.848 423.002 369.618 415.155 349.092C392.586 290.081 366.774 232.9 331.596 180.303C319.035 161.53 304.453 144.399 291.704 125.782C288.477 114.111 297.483 112.406 306.583 116.521C327.336 125.892 361.84 179.474 373.462 200.141C399.43 246.355 420.606 295.259 437.365 345.588L453.732 404.443C452.322 388.736 449.378 372.199 445.822 356.774C429.565 286.123 403.612 208.026 367.855 145.025C361.151 133.229 352.881 121.981 346.366 110.435C343.844 105.961 339.537 99.9218 342.936 95.2285C349.686 85.8887 363.939 100.61 368.653 105.929C394.747 135.357 414.764 179.646 428.265 216.427C453.842 286.17 470.961 364.127 478.071 438.094L478.087 438.125ZM365.85 453.082C365.834 451.376 359.585 443.46 358.379 444.68C357.251 445.807 364.565 452.378 365.85 453.082ZM343.421 458.682C342.199 459.981 349.467 465.065 350.876 464.768L343.421 458.682Z" fill="#0A9188"/>
<path d="M612.784 434.401C613.802 435.418 608.289 441.019 607.177 439.987C607.663 438.923 611.422 433.04 612.784 434.401Z" fill="#FEFAEF"/>
<path d="M641.791 462.405L647.383 457.743C648.651 459.167 643.342 462.984 641.791 462.405Z" fill="#FEFAEF"/>
<path d="M630.561 445.619C630.921 445.963 626.223 450.657 625.894 450.281C625.001 449.296 629.809 444.9 630.561 445.619Z" fill="#FEFAEF"/>
<path d="M516.429 419.446C516.1 420.088 514.847 418.899 515.505 417.584C515.834 416.943 517.087 418.132 516.429 419.446Z" fill="#FEFAEF"/>
<path d="M365.85 453.081C364.566 452.377 357.251 445.806 358.379 444.68C359.585 443.475 365.834 451.376 365.85 453.081Z" fill="#FEFAEF"/>
<path d="M343.421 458.682L350.877 464.767C349.467 465.08 342.2 459.996 343.421 458.682Z" fill="#FEFAEF"/>
</g>
</g>
<defs>
<clipPath id="clip0_504_11433">
<rect width="669" height="516" fill="white"/>
</clipPath>
<clipPath id="clip1_504_11433">
<rect width="836" height="801" fill="white" transform="translate(89 75)"/>
</clipPath>
</defs>
</svg>
