<svg width="30" height="30" viewBox="0 0 30 30" fill="none" xmlns="http://www.w3.org/2000/svg">
<rect width="30" height="30" rx="15" fill="#EAE7E7"/>
<path d="M13.5276 0.0644264C25.7606 -1.02748 34.0699 11.9764 27.9264 22.6315C22.2599 32.4587 7.69311 32.4497 2.03259 22.6315C-3.41494 13.1853 2.65054 1.03634 13.5276 0.0644264ZM7.25215 5.20599L7.38713 5.77594L24.7347 22.7755C33.5389 10.9295 19.1281 -3.46027 7.25215 5.20599ZM22.7068 24.8303L22.5718 24.2604L5.23032 7.18582C-3.52593 19.0978 10.7498 33.4966 22.7068 24.8333V24.8303Z" fill="#FF5F57"/>
<path d="M19.2661 9.81354C19.2931 8.36166 18.5552 8.75463 17.7333 8.42766C16.6864 8.01069 15.1025 6.39683 13.5576 5.76988C12.2317 5.22993 9.65796 4.27001 8.56006 5.43391C10.6359 5.5509 12.6277 6.04586 14.4456 7.04777C14.8385 7.26375 17.2203 8.85062 17.3493 9.0606C17.7543 9.70855 17.3013 10.4405 18.8162 10.3355L23.5588 14.7661C25.1216 15.4771 26.4085 14.3042 26.0246 12.6333C25.7936 11.6254 24.1347 11.1484 23.2288 11.0164C23.0968 11.1334 24.3717 12.6633 24.5607 12.7683C24.6687 12.8283 24.7107 12.9243 24.8817 12.8283L24.9777 12.5163C25.9136 13.1912 25.1006 14.4331 24.0567 14.1152L19.2661 9.81354Z" fill="#FF5F57"/>
<path d="M19.2661 9.81354L24.0567 14.1152C25.1006 14.4361 25.9136 13.1912 24.9777 12.5163L24.8817 12.8283C24.7107 12.9243 24.6687 12.8283 24.5607 12.7683C24.3747 12.6633 23.0968 11.1334 23.2288 11.0164C24.1347 11.1484 25.7936 11.6254 26.0246 12.6333C26.4085 14.3042 25.1216 15.4771 23.5588 14.7661L18.8162 10.3355C17.3013 10.4435 17.7543 9.70855 17.3493 9.0606C17.2173 8.85062 14.8385 7.26375 14.4456 7.04777C12.6277 6.04586 10.6359 5.5509 8.56006 5.43391C9.65796 4.27001 12.2287 5.22993 13.5576 5.76988C15.1055 6.39683 16.6894 8.01069 17.7333 8.42766C18.5552 8.75463 19.2901 8.36166 19.2661 9.81354Z" fill="#FF5F57"/>
<path d="M11.3947 20.5196L11.4967 20.0067C12.2736 19.5657 13.6115 19.1728 14.2834 18.6598C14.4694 18.5158 14.6254 18.4858 14.5594 18.1888C11.2897 16.08 7.58801 15.2971 3.72434 15.1861C3.69434 17.6399 4.61827 20.2647 6.15713 22.1725C6.77508 22.9404 7.41103 23.7684 8.43094 23.6454C10.5248 23.3964 13.5845 22.0345 15.0604 20.5196H11.3917H11.3947ZM10.2848 18.9808C9.45385 19.0498 9.29487 17.9099 10.0148 17.7089C10.9747 17.4419 11.2777 18.8998 10.2848 18.9808Z" fill="#FF5F57"/>
</svg>
