<svg width="669" height="516" viewBox="0 0 669 516" fill="none" xmlns="http://www.w3.org/2000/svg">
<g clip-path="url(#clip0_504_11400)">
<rect width="669" height="516" fill="#D9D9D9" fill-opacity="0.6"/>
<g clip-path="url(#clip1_504_11400)">
<path d="M467.578 151.011C467.357 148.707 468.842 142.97 466.315 142.151C466.913 149.793 463.987 159.007 470.105 164.966C470.238 165.365 469.972 165.874 470.105 166.229L471.369 167.491C471.569 167.823 472.256 168.266 472.633 168.754C473.098 169.374 472.322 171.633 474.694 172.364C483.561 173.693 493.138 174.291 501.806 176.351C502.205 176.44 502.692 176.241 503.069 176.351C506.195 180.405 511.67 182.487 515.927 185.433C516.592 185.876 518.897 189.177 519.562 186.497C541.575 201.581 567.401 221.096 571.258 249.582C572.056 255.474 570.637 262.518 571.59 267.635C561.681 273.97 557.27 281.834 544.678 284.492C498.658 294.216 473.674 245.351 433.284 234.674C430.912 230.023 428.186 226.966 425.969 221.052C424.462 216.998 422.511 203.198 418.654 202.866C409.498 202.113 405.419 224.064 405.353 230.865H387.596C385.69 223.223 385.468 212.767 383.517 206.41C381.345 199.388 376.047 201.448 372.589 206.344C364.985 217.109 364.874 229.248 362.214 240.987C362.103 241.453 358.556 248.12 358.401 248.585C352.039 231.573 350.975 218.261 359 201.648C361.216 197.062 370.749 185.012 370.726 182.288C370.726 173.782 356.849 153.27 352.66 144.676C342.218 123.278 331.134 81.546 352.66 63.4931C355.652 60.9901 368.377 54.6106 368.51 61.5217C368.62 67.4581 359.443 78.0683 358.578 83.451C358.29 85.2673 359.243 84.7136 359.665 85.068C361.438 86.5521 362.591 86.5299 364.741 86.3527C366.426 91.6468 359.354 93.8397 358.601 96.0548C358.157 97.3395 356.827 105.38 360.928 104.096C361.017 104.494 360.884 104.937 360.928 105.358C361.527 112.446 365.029 105.513 365.583 105.38C375.094 103.254 370.682 107.241 373.608 112.956C372.699 115.57 368.643 119.291 369.019 120.62C369.108 120.952 372.145 126.645 372.433 126.844C373.431 127.553 381.788 121.329 385.113 126.49C389.192 132.825 382.387 137.898 383.052 140.954C383.584 143.347 393.825 156.46 396.175 160.757C397.993 164.08 398.88 166.627 400.232 170.016C400.565 170.836 399.5 172.143 400.875 172.564C403.025 173.228 403.003 171.943 402.759 170.016H404.023C409.964 172.165 418.565 171.545 424.971 171.279C428.097 171.146 429.117 172.165 426.856 168.754C429.981 168.488 433.329 169.839 435.745 167.491C437.94 165.342 437.762 153.647 435.745 151.011C436.477 147.157 439.824 138.762 439.602 136.436C439.203 132.36 429.76 131.873 432.132 124.009C434.171 117.275 446.585 122.148 444.679 113.731C444.258 111.826 433.284 111.516 434.415 103.542C435.368 96.7415 447.25 99.8869 445.876 93.3302C445.543 91.8018 415.062 83.3845 443.327 77.4481C443.748 67.8125 423.863 63.3159 430.536 52.9493C435.257 45.6174 450.753 60.9236 454.122 64.7557C467.733 80.2613 472.788 99.5103 471.28 119.978L467.423 150.989L467.578 151.011ZM495.488 183.971C495.377 183.262 495.709 181.601 495.488 181.446C494.778 180.915 480.569 181.645 482.786 185.256C482.364 185.389 481.832 185.101 481.522 185.256C479.771 186.053 479.859 186.873 478.995 187.781C468.044 199.255 471.524 208.337 481.522 218.216C486.089 222.713 497.705 221.583 502.249 217.02C503.49 215.78 502.981 214.517 503.091 214.407C503.801 213.631 505.53 212.014 505.619 211.881C506.394 210.619 507.414 210.021 508.146 208.071C508.279 207.717 508.035 207.23 508.146 206.809C511.892 207.54 510.717 204.837 510.695 202.423C510.651 196.154 509.564 190.927 504.643 186.497C503.779 185.721 497.882 181.335 496.729 183.993C496.33 183.927 495.887 184.038 495.466 183.993L495.488 183.971Z" fill="#42ACA7"/>
<path d="M405.397 230.887C405.286 241.187 415.927 265.863 423.818 272.707C432.442 280.172 443.77 283.008 446.696 269.008C449.777 254.322 440.068 250.557 433.994 239.658C432.974 237.82 433.617 235.317 433.306 234.697C473.696 245.373 498.68 294.238 544.7 284.514C557.27 281.856 561.681 273.992 571.612 267.657C571.635 267.79 572.654 269.784 572.876 270.182C572.61 271.644 573.275 274.103 572.876 275.255C561.526 308.193 517.412 320.42 486.598 323.433C477.354 324.341 468.11 325.382 458.689 324.695C434.614 321.705 403.801 312.867 385.091 296.808C376.689 289.609 354.721 259.616 358.445 248.63C358.6 248.164 362.147 241.497 362.258 241.032C368.775 252.417 375.492 280.77 394.379 275.011C407.06 271.135 392.894 247.766 390.478 241.364C389.103 237.731 388.549 234.542 387.64 230.887H405.397Z" fill="#AADCD2"/>
<path d="M376.224 519.933C377.643 517.407 381.965 513.752 382.808 510.053C383.739 509.499 385.734 509.455 386.754 509.743C387.707 510.009 397.239 521.727 400.431 524.252C439.447 555.219 526.611 562.639 570.371 539.602C573.519 537.941 576.201 535.682 579.216 533.865C576.667 558.408 568.11 576.395 544.567 586.075C502.182 603.507 437.274 596.751 397.904 573.693C381.943 564.345 371.835 554.443 369.884 535.128C372.234 530.742 373.896 524.097 376.224 519.91V519.933Z" fill="#AADCD2"/>
<path d="M593.182 480.637C592.916 491.181 588.46 501.127 586.842 511.072C578.862 523.499 567.157 531.783 553.28 536.479C514.198 549.681 457.115 544.852 420.604 525.67C405.885 517.939 393.205 508.569 391.454 490.782C393.316 487.083 393.36 482.985 396.53 478.112C405.508 464.223 405.907 473.571 415.151 480.438C455.829 510.696 537.474 512.734 580.923 488.036C584.404 486.064 589.148 479.906 593.204 480.659L593.182 480.637Z" fill="#AADCD2"/>
<path d="M572.876 275.255C577.842 277.315 578.751 290.583 580.79 292.754C581.433 293.44 582.563 292.842 583.029 293.02C590.389 295.811 598.768 295.589 607.126 299.355C605.751 300.662 598.48 304.139 598.192 305.114C597.061 308.902 601.473 307.55 600.763 310.762C596.551 310.829 592.295 310.696 588.083 310.762L594.423 331.03C594.49 331.429 594.335 331.894 594.423 332.293C595.598 338.318 592.384 345.074 599.5 350.036V351.298C597.948 351.498 597.992 351.453 596.973 352.561C595.753 353.89 595.909 353.115 595.975 355.263C596.197 362.772 599.345 371.079 598.414 379.009C599.145 380.116 607.835 381.113 609.963 381.822C612.335 382.597 615.416 383.816 618.609 384.835C629.316 388.29 621.601 390.417 622.355 398.192C614.663 397.815 601.273 388.401 598.879 399.476C596.529 399.476 601.052 388.246 595.709 389.331C595.266 385.344 594.933 381.313 594.379 377.325C594.135 375.509 595.576 373.582 592.539 374.136C564.674 402.024 515.794 414.627 477 412.213C457.603 411.017 430.624 404.084 416.747 389.929C415.772 388.932 415.617 386.895 415.484 386.806C414.02 385.787 411.582 389.088 410.429 389.331C408.323 389.796 405.131 388.999 402.826 389.331C404.067 388.622 405.042 387.847 406.594 388.002C402.892 382.42 411.116 369.573 401.562 372.851C404.267 371.566 409.498 369.462 409.166 366.516C409.21 366.604 410.983 366.294 411.272 366.892C437.496 419.988 541.531 407.739 579.194 373.493C597.726 356.637 586.775 348.241 584.248 327.198C582.32 326.689 582.142 327.708 581.078 328.439C576.379 331.695 571.302 338.052 565.627 342.172C531.067 367.247 468.421 378.965 428.607 361.643C424.284 359.76 410.983 352.362 407.902 350.014C407.703 349.858 408.833 347.311 406.062 347.355C404.111 347.378 396.508 350.346 393.958 351.298C391.919 345.827 391.343 343.59 385.756 341.197C384.271 344.099 379.527 344.587 378.13 346.27C377.909 346.536 375.005 352.229 374.916 352.583C374.273 346.957 382.83 339.381 386.998 336.125C391.165 332.869 396.153 329.347 401.562 329.746C404.267 332.669 412.69 340.754 416.126 343.723C450.664 373.626 546.319 358.896 573.386 323.3C583.096 310.519 576.911 306.908 574.117 292.997C571.413 294.637 570.016 298.912 567.777 301.215C539.048 330.742 480.857 338.761 441.886 331.938C425.082 329.015 410.695 320.885 395.222 314.528C392.008 308.614 386.998 303.275 385.069 296.785C403.779 312.844 434.592 321.683 458.667 324.673C466.78 325.692 473.608 326.29 482.187 325.936C484.625 325.847 487.286 327.243 486.576 323.41C517.39 320.398 561.504 308.171 572.854 275.232L572.876 275.255Z" fill="#42ACA7"/>
<path d="M407.924 435.006C408.39 433.278 409.033 427.829 411.072 428.671C412.158 429.114 422.533 441.718 427.809 444.907C466.869 468.542 542.107 460.324 579.615 436.047C582.142 434.408 595.377 421.849 596.951 423.598C595.576 436.402 596.84 451.442 591.741 463.381C584.825 479.573 560.396 487.016 544.945 492.044C538.516 491.69 532.176 493.839 525.902 494.57C525.082 494.658 524.195 494.481 523.375 494.57C508.589 496.032 498.303 494.835 484.049 494.57C482.786 494.547 481.5 494.57 480.236 494.57C478.973 494.57 477.709 494.57 476.423 494.57C476.49 493.972 476.401 493.573 475.78 493.329C454.965 490.649 412.956 478.045 406.639 455.274C406.084 453.28 407.88 449.005 405.375 447.676C406.661 443.556 406.838 438.971 407.902 435.006H407.924Z" fill="#AADCD2"/>
<path d="M410.473 389.354C411.604 389.11 414.043 385.81 415.528 386.828C415.661 386.917 415.816 388.955 416.791 389.952C430.668 404.106 457.647 411.017 477.044 412.235C515.838 414.65 564.718 402.046 592.583 374.158C595.598 373.604 594.157 375.532 594.423 377.348C594.977 381.335 595.31 385.366 595.753 389.354C596.308 394.426 597.748 399.321 597.017 404.571C563.521 448.297 489.857 461.455 440.112 440.278C422.2 432.658 416.038 424.463 410.518 405.834C410.872 400.385 410.274 394.803 410.518 389.354H410.473Z" fill="#AADCD2"/>
<path d="M407.924 350.058C411.006 352.428 424.306 359.804 428.629 361.687C468.443 379.009 531.09 367.291 565.649 342.217C571.324 338.097 576.401 331.739 581.1 328.483C582.165 327.73 582.364 326.711 584.27 327.243C586.798 348.264 597.749 356.681 579.216 373.538C541.553 407.783 437.519 420.033 411.294 366.937C411.006 366.339 409.254 366.649 409.188 366.561C408.767 365.807 408.767 352.738 407.924 350.08V350.058Z" fill="#AADCD2"/>
<path d="M596.995 404.571C597.793 403.53 598.037 401.758 599.522 402.046C602.071 406.122 598.99 424.994 599.677 425.991C600.143 426.655 606.194 427.475 608.057 428.383C609.919 429.291 615.128 431.949 616.037 432.459C621.402 435.56 623.641 437.709 627.453 442.604C623.774 443.113 617.19 435.471 616.059 436.269C616.525 439.747 610.318 439.857 612.335 442.515C612.468 442.693 614.818 442.36 614.84 443.291C614.862 444.598 612.69 447.765 613.51 448.895C613.909 449.449 624.128 453.148 626.19 453.989C618.631 453.746 611.271 449.914 603.933 447.699C601.628 447.012 600.453 444.686 600.83 448.917C600.763 448.607 599.367 445.927 598.303 446.392L599.566 462.872C599.522 463.293 599.611 463.736 599.566 464.135C595.886 462.894 596.086 468.321 598.303 470.47C598.059 472.485 596.285 474.634 597.615 476.783C605.574 482.165 622.2 493.795 624.416 503.408C626.855 513.996 611.559 505.379 607.192 503.408C607.037 503.342 606.372 501.835 605.064 501.149C603.002 500.085 594.179 498.025 593.47 496.851C591.453 493.573 596.995 481.279 593.248 480.57C589.192 479.817 584.448 485.975 580.967 487.947C537.518 512.645 455.873 510.607 415.195 480.349C405.973 473.482 405.552 464.157 396.574 478.023C389.835 477.824 383.007 478.311 376.268 478.023C375.559 474.191 378.197 475.564 380.635 475.476C382.675 475.409 389.303 475.985 390.035 475.276C390.456 474.878 390.19 472.441 391.475 471.068C394.623 467.657 401.429 469.672 400.365 460.258C405.619 459.372 401.761 455.474 406.705 455.186C413.001 477.957 455.031 490.56 475.847 493.241C476.467 493.484 476.556 493.883 476.49 494.481C476.49 494.681 475.337 495.124 475.204 495.722L480.303 494.481C481.566 494.481 482.852 494.459 484.115 494.481C483.406 498.313 486.044 496.94 488.505 497.006C498.325 497.339 509.276 497.383 519.074 497.006C521.513 496.918 524.173 498.313 523.464 494.481C524.284 494.393 525.17 494.57 525.991 494.481C532.353 498.335 539.225 493.839 545.033 491.956C560.484 486.906 584.913 479.485 591.83 463.293C596.928 451.354 595.665 436.313 597.039 423.51C595.443 421.76 582.209 434.32 579.704 435.959C542.195 460.258 466.957 468.476 427.897 444.819C422.599 441.607 412.247 429.026 411.161 428.583C409.099 427.719 408.478 433.168 408.013 434.918C406.771 435.028 405.441 434.763 404.2 434.918C404.089 434.275 403.557 433.722 402.936 433.655C401.252 429.601 406.195 429.491 406.572 427.896C406.705 427.364 405.463 421.007 405.463 418.46C405.463 417.618 405.463 416.776 405.463 415.934C411.382 413.298 410.141 411.947 410.54 405.789C416.082 424.418 422.245 432.614 440.134 440.234C489.879 461.41 563.565 448.252 597.039 404.527L596.995 404.571Z" fill="#42ACA7"/>
<path d="M401.584 329.768C399.079 327.043 397.106 317.983 395.244 314.55C410.717 320.907 425.104 329.015 441.908 331.961C480.879 338.761 539.07 330.764 567.8 301.237C570.061 298.912 571.435 294.659 574.14 293.02C576.933 306.93 583.118 310.541 573.408 323.322C546.341 358.918 450.708 373.648 416.149 343.745C412.713 340.777 404.289 332.692 401.584 329.768Z" fill="#AADCD2"/>
<path d="M586.842 511.072C586.598 512.556 586.044 517.496 585.822 519.622C585.268 524.673 595.975 532.137 599.522 536.413C605.241 543.324 605.684 545.339 607.125 554.155C606.084 552.516 602.914 548.773 600.808 550.345C600.431 550.611 597.194 558.364 597.128 558.829C596.773 561.288 603.734 563.547 603.335 566.826C596.928 566.294 586.199 550.988 579.859 547.82C578.75 547.333 570.637 568.841 570.77 570.037C570.859 570.923 579.415 581.445 581.145 584.568C584.315 590.261 587.994 597.017 588.105 603.618C588.061 603.507 586.953 603.33 586.265 602.289C585.024 600.428 586.554 596.707 582.984 599.343C580.191 601.425 578.662 607.074 579.194 610.529C579.615 613.232 583.805 614.849 581.765 616.288C579.482 615.114 559.863 596.22 557.669 593.473C557.203 592.897 558.866 590.106 555.895 591.036C527.387 605.966 490.943 607.45 459.509 603.419C433.306 600.074 392.384 586.695 373.63 567.534C370.128 563.946 366.647 553.978 361.549 557.877C357.004 561.354 362.369 563.88 353.391 564.3C348.093 564.544 338.228 563.99 333.085 563.038L334.349 560.513C337.363 560.646 338.605 560.601 341.42 559.339C342.551 558.829 351.795 550.368 352.083 549.725C355.253 542.482 338.494 551.63 335.612 547.842C344.812 545.162 354.344 543.767 363.965 543.833C365.162 543.434 368.953 536.856 369.884 535.15C371.812 554.488 381.943 564.367 397.904 573.714C437.274 596.751 502.182 603.529 544.567 586.097C568.11 576.417 576.667 558.43 579.216 533.887C576.201 535.704 573.519 537.963 570.371 539.624C526.634 562.661 439.447 555.263 400.431 524.274C397.239 521.749 387.729 510.031 386.754 509.765C385.712 509.477 383.739 509.521 382.808 510.075C381.943 513.774 377.62 517.407 376.224 519.954C367.889 520.42 360.063 519.999 352.127 517.429C356.295 514.594 361.371 521.195 359.797 512.999C359.576 511.869 356.871 512.822 356.162 512.113C355.209 511.161 357.78 506.664 350.487 508.591C349.622 508.813 349.578 510.319 349.068 510.629C347.694 511.471 345.876 510.961 345.765 511.094C351.329 505.158 362.613 503.053 370.527 502.234C373.763 501.902 383.34 502.965 384.892 502.012C385.313 501.747 388.261 494.57 389.126 492.886C389.724 491.734 391.298 491.092 391.453 490.826C393.204 508.635 405.907 517.983 420.604 525.714C457.093 544.874 514.197 549.703 553.279 536.523C567.179 531.827 578.883 523.543 586.842 511.116V511.072Z" fill="#42ACA7"/>
<path d="M596.995 352.583C601.539 357.545 597.771 373.206 600.121 376.728C600.808 377.769 619.495 382.642 623.707 384.857C630.446 388.401 645.41 400.34 629.382 400.85C620.67 401.138 610.894 397.195 602.093 396.951V422.934C602.093 425.637 614.84 428.981 616.059 432.437C615.173 431.927 610.03 429.314 608.079 428.361C606.128 427.409 600.165 426.633 599.699 425.969C599.012 424.972 602.093 406.1 599.544 402.024C598.059 401.736 597.815 403.508 597.017 404.549C597.749 399.299 596.308 394.404 595.753 389.331C601.096 388.246 596.574 399.476 598.923 399.476C601.318 388.423 614.685 397.815 622.399 398.192C621.646 390.417 629.338 388.29 618.653 384.835C615.461 383.816 612.402 382.598 610.007 381.822C607.879 381.136 599.189 380.117 598.458 379.009C599.389 371.079 596.241 362.773 596.019 355.263C595.953 353.115 595.798 353.868 597.017 352.561L596.995 352.583Z" fill="#2DA29E"/>
<path d="M626.168 343.723C628.318 344.986 629.116 345.251 628.717 348.153C628.517 349.527 626.921 348.441 626.168 348.796C621.49 348.862 615.948 347.932 612.202 351.321C611.359 351.387 610.495 351.254 609.675 351.321C607.48 348.796 602.692 350.457 599.522 350.058C592.406 345.096 595.62 338.318 594.445 332.315C605.884 334.841 614.707 338.761 624.926 344.188C625.547 344.521 626.101 343.679 626.168 343.723Z" fill="#5EAAA8"/>
<path d="M400.32 460.347C401.384 469.761 394.579 467.745 391.431 471.156C390.167 472.53 390.433 474.966 389.99 475.365C389.259 476.052 382.63 475.476 380.591 475.564C378.152 475.653 375.514 474.28 376.224 478.112C370.926 477.89 365.605 478.998 367.334 471.777C377.798 466.217 388.616 462.34 400.32 460.369V460.347Z" fill="#5EAAA8"/>
<path d="M401.584 372.873C411.138 369.595 402.914 382.442 406.616 388.024C405.064 387.869 404.089 388.645 402.848 389.354C398.303 391.967 384.714 396.863 382.719 389.708C382.187 387.825 383.539 386.762 383.805 385.544C385.579 383.173 389.835 383.55 391.431 382.354C392.739 381.379 392.318 379.186 393.027 378.3C393.36 377.902 401.074 373.028 401.562 372.873H401.584Z" fill="#5EAAA8"/>
<path d="M405.397 418.504C405.397 421.051 406.638 427.409 406.505 427.94C406.106 429.535 401.185 429.668 402.87 433.7C399.655 433.301 389.99 434.962 387.64 437.509C386.931 437.532 385.978 439.193 383.894 438.196C378.906 435.782 378.862 432.747 381.3 428.627C389.746 425.947 396.308 419.368 405.397 418.482V418.504Z" fill="#5EAAA8"/>
<path d="M626.168 454.012C624.106 453.148 613.887 449.471 613.488 448.917C612.667 447.787 614.84 444.62 614.818 443.313C614.818 442.382 612.446 442.715 612.313 442.537C610.295 439.857 616.502 439.769 616.037 436.291C617.168 435.471 623.751 443.135 627.431 442.626C629.67 445.483 633.328 447.278 632.574 452.084C631.821 456.891 629.094 455.252 626.168 454.034V454.012Z" fill="#5EAAA8"/>
<path d="M374.938 352.583C375.027 352.229 377.931 346.558 378.152 346.27C379.549 344.587 384.293 344.1 385.778 341.198C391.365 343.59 391.919 345.849 393.98 351.299C391.963 352.052 372.477 362.618 374.938 352.561V352.583Z" fill="#5EAAA8"/>
<path d="M600.786 310.74C601.495 307.528 597.084 308.88 598.214 305.092C598.502 304.117 605.751 300.639 607.148 299.333C610.251 300.728 618.587 304.449 617.279 308.791C616.348 311.914 603.823 310.674 600.786 310.74Z" fill="#5EAAA8"/>
<path d="M593.182 480.637C596.928 481.324 591.386 493.64 593.403 496.918C594.135 498.092 602.958 500.13 604.997 501.215C606.327 501.902 606.97 503.408 607.125 503.475L593.182 498.402C592.295 506.443 590.145 514.528 586.886 521.926C591.807 525.936 596.95 530.543 599.522 536.435C595.975 532.138 585.268 524.695 585.822 519.645C586.044 517.518 586.598 512.579 586.842 511.095C588.46 501.171 592.916 491.225 593.182 480.659V480.637Z" fill="#2DA29E"/>
<path d="M406.66 455.274C401.717 455.562 405.574 459.461 400.32 460.347C388.594 462.318 377.798 466.195 367.334 471.755C372.965 465.043 381.965 462.141 390.101 459.66C401.074 456.293 401.096 461.521 405.397 447.677C407.902 449.028 406.106 453.281 406.66 455.274Z" fill="#2DA29E"/>
<path d="M345.765 511.072C345.876 510.961 347.716 511.449 349.068 510.607C349.556 510.297 349.6 508.813 350.487 508.569C357.78 506.642 355.209 511.116 356.162 512.091C356.849 512.8 359.576 511.847 359.798 512.977C361.372 521.195 356.295 514.572 352.128 517.407C350.554 516.898 348.758 517.917 346.962 515.613C346.076 514.483 345.123 511.714 345.788 511.072H345.765Z" fill="#5EAAA8"/>
<path d="M594.446 331.03C605.663 332.537 617.855 335.837 626.168 343.701C626.102 343.656 625.547 344.498 624.927 344.166C614.707 338.739 605.884 334.818 594.446 332.293C594.357 331.894 594.512 331.429 594.446 331.03Z" fill="#2DA29E"/>
<path d="M501.828 176.352C493.16 174.292 483.584 173.671 474.716 172.364C472.344 171.634 473.12 169.374 472.655 168.754C481.544 173.406 493.714 169.839 501.828 176.352Z" fill="#2DA29E"/>
<path d="M401.584 372.873C401.097 373.05 393.382 377.901 393.05 378.3C392.34 379.186 392.761 381.379 391.453 382.354C389.857 383.55 385.601 383.173 383.828 385.543C383.828 385.455 382.697 385.189 383.673 383.705C386.111 380.006 392.917 375.952 396.907 373.848C398.569 372.962 400.72 373.294 401.584 372.873Z" fill="#2DA29E"/>
<path d="M583.029 292.998C582.564 292.82 581.433 293.418 580.79 292.732C578.751 290.561 577.842 277.293 572.876 275.233C573.275 274.081 572.61 271.622 572.876 270.16C573.386 271.09 575.403 272.087 576.534 274.745C579.083 280.726 580.081 287.194 583.029 292.998Z" fill="#2DA29E"/>
<path d="M423.153 168.754L423.796 169.994L424.439 168.754C425.282 168.665 426.146 168.82 426.966 168.754C429.227 172.187 428.208 171.168 425.082 171.279C418.653 171.545 410.052 172.165 404.133 170.016C408.323 170.016 412.646 170.26 416.813 170.016C418.897 169.906 420.405 168.754 420.626 168.754C421.469 168.687 422.333 168.82 423.153 168.754Z" fill="#2DA29E"/>
<path d="M435.856 167.491C433.883 161.067 434.681 157.169 435.856 151.011C437.873 153.647 438.051 165.342 435.856 167.491Z" fill="#2DA29E"/>
<path d="M402.87 433.722C403.491 433.81 404.023 434.364 404.134 434.984C398.348 435.715 394.069 437.288 387.641 437.51C389.968 434.962 399.656 433.301 402.87 433.7V433.722Z" fill="#2DA29E"/>
<path d="M373.675 112.978C370.749 107.263 375.16 103.254 365.65 105.402C365.074 105.535 361.593 112.468 360.995 105.38C369.241 101.991 377.643 101.459 373.675 112.978Z" fill="#2DA29E"/>
<path d="M467.578 151.011C468.066 155.972 468.509 160.181 470.105 164.966C463.987 159.007 466.913 149.792 466.315 142.15C468.842 142.992 467.357 148.729 467.578 151.011Z" fill="#2DA29E"/>
<path d="M600.785 448.939C601.051 450.246 600.808 452.483 600.785 454.012C598.857 454.898 599.588 457.423 599.522 459.084C599.478 460.347 599.655 461.654 599.522 462.894L598.258 446.414C599.322 445.971 600.719 448.629 600.785 448.939Z" fill="#2DA29E"/>
<path d="M405.397 415.979C405.397 416.821 405.397 417.662 405.397 418.504C396.308 419.39 389.724 425.969 381.3 428.649C385.18 422.07 398.879 418.881 405.397 415.979Z" fill="#2DA29E"/>
<path d="M626.168 348.795C620.271 351.542 618.188 350.877 612.202 351.32C615.926 347.909 621.491 348.862 626.168 348.795Z" fill="#2DA29E"/>
<path d="M362.258 83.8053C363.034 83.6724 363.965 83.8496 364.785 83.8053C365.45 86.8399 367.512 90.7606 364.83 93.3523C360.285 97.7381 358.423 91.4916 360.995 104.073C356.871 105.358 358.224 97.2951 358.667 96.0325C359.421 93.8174 366.514 91.6245 364.807 86.3304C362.635 86.5298 361.504 86.5298 359.731 85.0457H360.995C361.46 84.7799 361.97 83.8274 362.258 83.7831V83.8053Z" fill="#2DA29E"/>
<path d="M519.584 186.497C518.941 189.199 516.614 185.899 515.949 185.433C511.67 182.487 506.217 180.405 503.091 176.352C509.786 178.168 514.264 182.842 519.584 186.497Z" fill="#2DA29E"/>
<path d="M609.675 351.32C606.394 351.542 602.648 350.922 599.522 351.32V350.058C602.692 350.457 607.48 348.795 609.675 351.32Z" fill="#2DA29E"/>
<path d="M599.522 464.157C599.256 466.195 598.524 468.232 598.258 470.492C596.041 468.343 595.842 462.916 599.522 464.157Z" fill="#2DA29E"/>
<path d="M402.87 170.016C403.092 171.943 403.114 173.228 400.986 172.563C399.611 172.143 400.675 170.836 400.343 170.016H402.87Z" fill="#2DA29E"/>
<path d="M599.522 459.084C599.589 457.423 598.879 454.898 600.786 454.012C600.763 455.673 601.406 458.198 599.522 459.084Z" fill="#42ACA7"/>
<path d="M420.626 168.754C420.405 168.754 418.897 169.906 416.813 170.017L420.626 168.754Z" fill="#42ACA7"/>
<path d="M423.154 168.754C423.575 168.709 423.996 168.798 424.417 168.754L423.774 169.994L423.131 168.754H423.154Z" fill="#42ACA7"/>
<path d="M471.369 167.491L470.105 166.229C470.238 166.583 471.081 166.982 471.369 167.491Z" fill="#2DA29E"/>
<path d="M360.995 85.0678L362.258 83.8052C361.97 83.8495 361.46 84.8241 360.995 85.0678Z" fill="#42ACA7"/>
<path d="M433.306 234.675C433.617 235.295 432.974 237.798 433.994 239.636C440.068 250.535 449.755 254.3 446.696 268.986C443.637 283.672 432.442 280.15 423.818 272.685C415.927 265.841 405.286 241.187 405.397 230.865C405.463 224.064 409.542 202.135 418.698 202.866C422.555 203.176 424.483 216.998 426.013 221.052C428.23 226.966 430.957 230.023 433.329 234.675H433.306ZM416.326 230.975C413.732 231.817 414.308 234.209 414.53 236.225C415.239 242.893 426.833 272.929 435.811 268.344C437.164 267.657 438.25 265.951 438.405 264.423C438.693 261.521 427.787 244.797 425.459 240.611C423.486 237.067 422.732 228.893 416.326 230.975Z" fill="#FEF8EC"/>
<path d="M387.641 230.887C388.55 234.542 389.126 237.731 390.478 241.364C392.894 247.766 407.038 271.135 394.38 275.011C375.515 280.77 368.798 252.417 362.258 241.032C364.896 229.27 365.029 217.131 372.633 206.388C376.091 201.493 381.389 199.433 383.562 206.454C385.513 212.812 385.756 223.267 387.641 230.909V230.887ZM380.458 262.141C383.362 264.932 389.192 267.347 390.168 262.009C384.36 251.531 381.234 239.703 376.268 228.915C375.692 227.675 375.426 225.947 373.675 225.814C368.621 234.121 374.207 256.116 380.436 262.141H380.458Z" fill="#FEF8EC"/>
<path d="M495.488 183.971C495.909 184.016 496.352 183.905 496.751 183.971C507.591 185.854 510.584 197.306 508.168 206.787C508.057 207.207 508.301 207.717 508.168 208.049C506.35 208.603 505.64 209.998 505.64 211.859C505.552 212.014 503.8 213.631 503.113 214.384C496.906 219.147 488.837 218.172 481.544 218.194C471.524 208.315 468.044 199.233 479.017 187.759L481.544 185.234C481.876 185.079 482.408 185.367 482.807 185.234C486.997 183.993 491.143 183.595 495.488 183.971ZM500.231 206.476C506.705 199.765 497.194 186.784 486.909 191.259C478.44 194.958 478.995 213.011 492.007 210.331C492.983 210.131 499.744 206.986 500.231 206.476Z" fill="#FEF8EC"/>
<path d="M503.091 214.406C503.091 214.406 503.513 215.757 502.249 217.02C497.705 221.583 486.089 222.713 481.522 218.216C488.815 218.216 496.884 219.169 503.091 214.406Z" fill="#2DA29E"/>
<path d="M482.785 185.234C480.546 181.623 494.756 180.892 495.488 181.424C495.687 181.579 495.377 183.24 495.488 183.949C491.121 183.572 486.997 183.971 482.808 185.212L482.785 185.234Z" fill="#2DA29E"/>
<path d="M496.751 183.971C497.904 181.313 503.801 185.699 504.665 186.474C509.587 190.905 510.673 196.132 510.717 202.401C510.717 204.815 511.914 207.518 508.168 206.787C510.584 197.306 507.592 185.832 496.751 183.971Z" fill="#2DA29E"/>
<path d="M505.641 211.859C505.641 209.999 506.35 208.603 508.168 208.049C507.414 209.999 506.417 210.575 505.641 211.859Z" fill="#2DA29E"/>
<path d="M478.995 187.781C479.859 186.873 479.793 186.031 481.522 185.256L478.995 187.781Z" fill="#2DA29E"/>
<path d="M486.598 323.433C487.308 327.265 484.648 325.869 482.209 325.958C473.608 326.29 466.78 325.692 458.689 324.695C468.133 325.382 477.377 324.341 486.598 323.433Z" fill="#2DA29E"/>
<path d="M523.397 494.592C524.107 498.424 521.469 497.028 519.008 497.117C509.21 497.494 498.259 497.449 488.438 497.117C486 497.028 483.34 498.402 484.049 494.592C498.325 494.858 508.611 496.054 523.375 494.592H523.397Z" fill="#2DA29E"/>
<path d="M544.967 492.045C539.159 493.949 532.287 498.446 525.924 494.57C532.176 493.839 538.516 491.69 544.967 492.045Z" fill="#2DA29E"/>
<path d="M480.258 494.592L475.16 495.832C475.293 495.234 476.423 494.791 476.445 494.592C477.709 494.592 478.973 494.592 480.258 494.592Z" fill="#2DA29E"/>
<path d="M416.326 230.975C422.732 228.893 423.486 237.067 425.459 240.611C427.787 244.797 438.693 261.521 438.405 264.423C438.25 265.951 437.164 267.657 435.811 268.344C426.833 272.929 415.239 242.915 414.53 236.225C414.308 234.209 413.732 231.817 416.326 230.975Z" fill="#066B55"/>
<path d="M380.458 262.141C374.229 256.138 368.642 234.121 373.697 225.814C375.448 225.947 375.714 227.675 376.29 228.915C381.256 239.703 384.382 251.531 390.19 262.008C389.214 267.347 383.384 264.932 380.48 262.141H380.458Z" fill="#066B55"/>
<path d="M500.232 206.477C499.744 206.986 492.983 210.131 492.007 210.331C478.995 213.011 478.44 194.958 486.909 191.259C497.172 186.785 506.682 199.765 500.232 206.477Z" fill="#066B55"/>
</g>
</g>
<defs>
<clipPath id="clip0_504_11400">
<rect width="669" height="516" fill="white"/>
</clipPath>
<clipPath id="clip1_504_11400">
<rect width="1135" height="1151" fill="white" transform="translate(268 51)"/>
</clipPath>
</defs>
</svg>
