<svg width="669" height="516" viewBox="0 0 669 516" fill="none" xmlns="http://www.w3.org/2000/svg">
<g clip-path="url(#clip0_504_11436)">
<rect width="669" height="516" fill="#D9D9D9" fill-opacity="0.6"/>
<g clip-path="url(#clip1_504_11436)">
<path d="M744.293 131.436C721.836 130.782 697.258 130.94 674.328 131.436C673.951 131.444 673.575 131.429 673.199 131.436C669.415 133.316 661.418 133.346 657.401 131.436C560.194 136.61 456.811 185.246 361.982 208.933C274.714 230.732 188.912 219.648 124.198 294.971C100.44 322.613 83.9722 368.437 86.4247 404.937C86.5677 407.057 88.659 412.622 88.155 413.464C87.0717 415.284 73.4022 420.036 70.0544 423.563C65.5179 428.338 65.563 435.932 73.4097 436C81.7152 436.068 88.8622 432.729 96.5659 430.338C93.9102 441 79.9849 443.858 76.0126 454.333C68.3842 474.44 94.5572 464.048 102.472 458.536C103.766 457.634 110.1 449.49 112.364 451.768C113.154 457.611 107.783 458.724 105.097 461.98C102.065 465.649 91.3824 483.772 96.4981 487.366C97.7771 488.261 104.187 488.073 106.165 487.855C111.236 487.291 118.624 482.756 122.536 479.41C128.08 474.665 129.547 466.687 137.191 467.559C138.673 469.018 123.506 499.217 133.805 504.21C145.993 510.112 153.486 483.411 158.143 477.778C159.128 476.59 161.242 475.906 162.017 476.59C162.649 477.147 158.97 490.411 158.767 493.081C158.338 498.69 161.001 511.864 166.561 514.399C172.918 517.301 178.169 500.209 179.501 495.743C180.426 492.645 181.269 481.17 184.03 481.117C186.039 481.08 186.603 496.532 187.378 499.172C188.747 503.811 197.188 517.301 203.093 515.91C205.794 514.526 205.561 511.722 206.035 509.293C204.034 503.856 204.275 495.382 206.035 490.118C206.389 489.073 209.119 482.486 209.466 482.238C209.812 481.989 213.731 483.253 213.882 483.463C214.28 484.042 213.129 486.659 213.656 488.659C215.657 496.246 227.649 512.24 236.91 509.135C245.712 506.18 223.225 485.426 234.352 478.38C241.311 473.974 249.993 473.966 257.945 474.327L257.358 468.71C265.626 463.724 281.635 446.535 291.242 447.144C294.808 447.369 300.45 452.37 298.02 456.28C296.584 458.596 275.835 467.108 271.471 469.229C269.493 470.191 264.783 471.808 264.715 474.319C273.57 475.733 286.901 482.388 296.704 484.644C327.97 491.832 341.196 488.298 370.792 482.215C371.032 474.094 382.046 474.628 387.395 472.304C403.811 465.191 407.399 437.827 416.021 433.24C417.992 432.195 424.123 430.42 425.605 432.526C425.161 454.784 410.22 475.696 387.726 479.952C399.319 484.132 411.469 487.118 423.837 487.847C431.518 485.96 442.111 485.96 449.792 487.847C461.919 487.065 468.623 483.433 479.132 481.08C481.705 480.11 481.201 476.891 483.15 475.523C485.369 473.966 491.448 473.425 494.991 471.552C503.237 467.176 510.903 455.874 514.92 447.482C518.283 440.459 522.368 425.134 526.686 419.765C530.056 415.577 538.655 415.802 540.694 420.194C542.086 423.194 536.256 438.489 534.631 442.369C531.32 450.257 521.036 469.582 514.649 474.282C505.486 481.019 501.469 477.508 492.012 478.779C490.53 478.974 489.514 479.922 489.289 479.952C501.732 478.448 511.768 484.719 523.887 486.539C553.393 490.975 564.452 484.057 590.851 477.696C589.602 475.756 589.414 475.274 590.482 473.169C591.551 471.064 604.957 466.018 608.809 463.499C627.925 450.979 628.474 432.451 638.916 415.765C643.137 409.02 656.362 404.689 656.197 414.953C655.964 429.729 636.471 460.957 624.705 469.808C624.577 474.583 634.854 472.116 638.247 475.447C638.623 475.477 638.999 475.417 639.375 475.447C642.866 475.748 649.456 473.838 648.403 477.703C650.261 477.854 652.187 477.545 654.045 477.703C653.549 473.959 655.392 475.823 657.438 475.989C673.004 477.245 690.427 476.944 705.955 475.447C715.095 474.568 719.406 471.65 727.396 469.808C725.003 468.65 725.921 467.394 727.659 466.071C730.947 463.574 735.235 462.469 738.613 460.145C745.542 455.37 754.276 445.114 757.579 437.369C761.596 427.954 760.588 410.885 774.551 410.231C780.795 409.937 779.554 418.322 779.351 423.044C778.38 445.798 764.823 462.1 743.194 467.544C750.078 466.83 756.751 468.161 763.507 468.672C767.524 466.123 774.972 467.785 779.305 469.8C779.682 469.823 780.058 469.778 780.434 469.8L783.819 470.928C789.364 471.236 795.172 470.928 800.746 470.928C804.139 469.048 811.79 469.011 815.416 470.928C816.537 470.868 817.688 471.011 818.802 470.928L821.059 469.8C830.388 468.89 838.121 466.665 847.014 465.289C843.982 465.687 843.922 464.326 845.938 462.521C848.541 460.19 855.011 458.092 858.84 455.115C872.63 444.369 877.573 433.646 881.71 417.066C882.824 412.592 881.628 403.771 888.413 402.395C895.455 400.966 897.185 401.553 898.983 408.275C903.52 425.209 889.519 452.784 874.104 460.777C878.31 465.815 887.563 464.146 892.529 465.304C893.401 465.507 893.251 467.454 894.018 467.597C896.125 467.973 898.081 466.326 899.42 466.379C900.089 466.409 899.954 468.575 900.782 468.732C927.331 473.74 972.552 471.033 998.5 462.747C1000.88 461.987 1005.49 456.829 1009.51 459.656C1035.91 447.655 1050.91 428.856 1054.65 399.876L1055.78 396.492C1055.81 396.116 1055.76 395.74 1055.78 395.364C1056.5 383.551 1056.18 368.941 1054.97 357.24C1054.78 355.428 1053.67 352.556 1055.78 351.375C1048.13 298.716 1022.1 255.403 984.687 219.407L983.559 218.279C981.256 216.099 979.421 213.865 976.788 211.512L975.659 210.384C932.484 172.064 886.638 152.265 830.057 141.588C824.362 145.205 816.522 140.43 811.316 139.452C807.216 138.685 804.192 138.52 800.114 138.189C797.963 138.016 795.57 139.467 796.202 135.948C795.465 135.865 794.683 136.031 793.945 135.948C792.117 137.866 787.919 137.256 785.489 137.061C777.425 136.414 768.916 136.114 761.22 133.692C755.134 133.414 749.1 131.579 744.293 131.436ZM603.64 173.892C599.661 169.508 599.6 160.567 605.055 157.499C616.618 150.995 631.664 161.89 626.074 175.125C623.088 182.193 608.365 179.103 603.64 173.884V173.892ZM766.117 189.705C761.205 184.66 760.821 173.298 765.711 168.064C776.334 156.702 801.634 170.049 797.985 185.562C795.172 197.526 773.325 197.104 766.11 189.698L766.117 189.705ZM685.973 171.275C699.289 160.056 719.489 183.592 704.458 191.435C688.027 199.999 673.35 181.9 685.973 171.275ZM549.376 186.961C557.057 188.54 563.602 199.435 564.618 206.722C566.935 223.408 539.37 234.717 528.544 217.934C518.659 202.594 531.042 183.186 549.376 186.961ZM907.575 198.33C914.12 204.188 916.475 223.062 906.198 225.024C890.904 227.95 883.614 217.294 885.321 203.03C886.653 191.969 901.383 192.796 907.567 198.33H907.575ZM838.302 209.474C845.72 211.783 849.301 234.191 833.111 230.454C818.915 227.175 823.624 204.902 838.302 209.474ZM461.822 235.973C449.092 250.907 420.347 233.687 434.648 217.264C440.817 210.181 454.178 210.083 460.934 216.708C465.598 221.28 466.02 231.04 461.814 235.973H461.822ZM663.788 229.927C669.385 241.342 661.418 256.689 646.936 251.854C619.717 242.771 632.74 211.331 653.895 221.22C655.934 222.167 662.99 228.31 663.788 229.927ZM728.931 257.328C716.788 239.199 744.067 219.49 759.444 237.537C772.362 252.704 760.866 274.323 740.117 265.878C737.296 264.728 730.54 259.735 728.931 257.328ZM274.127 244.62C278.934 240.191 284.584 239.718 290.324 242.868C298.306 247.26 295.606 257.449 291.626 263.795C281.154 280.504 259.946 257.689 274.127 244.613V244.62ZM347.41 244.56C356.701 237.093 371.221 245.237 372.958 256.133C376.961 281.203 345.153 269.45 342.813 259.216C341.692 254.306 343.49 247.711 347.41 244.56ZM976.351 260.419C979.022 262.848 982.618 270.39 982.483 274.082C981.926 288.843 958.446 278.857 959.733 263.946C960.417 256.012 971.476 255.975 976.359 260.419H976.351ZM496.383 265.983C501.326 259.735 511.963 259.118 518.05 264.517C530.357 275.428 518.351 299.468 499.987 284.827C494.886 280.759 492.373 271.052 496.383 265.983ZM571.14 269.66C585.81 252.035 605.536 282.053 588.571 289.911C575.413 296.001 565.235 285.489 568.748 272.3C569.237 270.465 570.426 270.525 571.14 269.668V269.66ZM210.857 273.879C217.402 268.435 232.276 273.134 232.035 281.94C231.742 292.866 226.596 300.821 214.724 298.122C205.125 295.934 204.402 279.255 210.857 273.879ZM881.605 305.897C860.819 321.297 844.313 271.247 874.556 275.879C887.225 277.819 890.685 299.167 881.605 305.897ZM419.572 286.158C439.455 288.843 432.685 323.357 414.14 315.372C398.868 308.792 403.803 284.03 419.572 286.158ZM802.168 297.475C812.513 299.821 815.176 317.056 803.191 321.703C783.007 329.523 779.757 300.077 791.365 297.483C794.021 296.889 799.52 296.874 802.168 297.483V297.475ZM690.39 297.46C707.053 299.754 709.468 319.101 695.438 326.786C673.064 339.043 667.105 294.257 690.39 297.46ZM293.296 305.514C302.008 296.43 318.702 303.228 314.947 317.575C310.366 335.095 280.01 319.372 293.296 305.514ZM174.716 308.792C179.742 310.115 182.751 316.537 182.405 321.47C181.615 332.689 156.548 343.427 157.466 327.162C157.94 318.77 164.477 306.1 174.716 308.792ZM954.798 321.402C973.064 341.261 944.077 353.075 933.861 337.284C924.532 322.854 943.062 308.642 954.798 321.402ZM600.255 330.396C621.854 319.733 626.706 356.195 607.154 357.06C592.717 357.699 592.205 334.366 600.255 330.396ZM369.325 353.315C366.007 357.473 355.151 356.564 351.036 353.623C345.002 349.315 345.07 341.885 349.328 336.133C360.282 321.342 378.044 342.367 369.317 353.308L369.325 353.315ZM1007.52 333.584C1013.34 334.765 1021.54 346.096 1021.96 351.954C1023.21 369.129 999.38 368.414 995.31 354.819C992.188 344.382 993.173 330.674 1007.52 333.584ZM495.239 336.953C506.72 339.585 507.352 360.955 490.981 361.594C470.368 362.399 476.605 332.682 495.239 336.953ZM234.653 366.768C229.199 357.94 236.188 345.645 246.698 346.262C259.013 346.984 262.985 356.714 257.441 367.234C252.716 376.197 239.182 374.099 234.653 366.768ZM991.022 426.525C979.413 433.03 965.766 418.66 976.697 408.283C992.677 393.116 1003.07 419.765 991.022 426.525Z" fill="#48C0B5"/>
<path d="M624.682 469.8C636.449 460.957 655.934 429.729 656.174 414.945C656.34 404.681 643.114 409.012 638.894 415.757C628.451 432.443 627.902 450.971 608.786 463.491C604.942 466.011 591.528 471.071 590.46 473.162C589.391 475.252 589.579 475.756 590.828 477.688C598.931 475.733 613.24 472.989 621.297 473.177C620.545 470.251 623.253 470.868 624.682 469.793V469.8Z" fill="#0E9388"/>
<path d="M489.266 479.951C489.492 479.921 490.515 478.973 491.989 478.778C501.438 477.507 505.456 481.026 514.626 474.281C521.014 469.589 531.298 450.256 534.608 442.368C536.233 438.488 542.063 423.194 540.672 420.193C538.633 415.802 530.034 415.576 526.663 419.765C522.338 425.134 518.26 440.451 514.897 447.482C510.88 455.873 503.214 467.175 494.968 471.552C491.425 473.432 485.346 473.973 483.127 475.522C481.179 476.891 481.683 480.109 479.11 481.079C481.51 480.537 486.287 480.357 489.266 479.951Z" fill="#0E9388"/>
<path d="M370.776 482.207C376.336 481.064 382.189 480.997 387.704 479.952C410.198 475.688 425.146 454.784 425.583 432.526C424.1 430.42 417.969 432.188 415.998 433.24C407.377 437.827 403.788 465.191 387.373 472.304C382.024 474.62 371.01 474.094 370.769 482.215L370.776 482.207Z" fill="#0E9388"/>
<path d="M257.937 474.311C260.096 474.409 262.729 473.996 264.708 474.311C264.776 471.792 269.493 470.183 271.464 469.221C275.819 467.093 296.576 458.581 298.013 456.272C300.443 452.362 294.8 447.361 291.234 447.136C281.627 446.527 265.618 463.716 257.35 468.702L257.937 474.319V474.311Z" fill="#0E9388"/>
<path d="M705.925 475.439C690.405 476.936 672.973 477.236 657.408 475.981C655.362 475.815 653.511 473.943 654.015 477.695C670.882 479.109 689.743 480.68 705.925 475.439Z" fill="#35BDB0"/>
<path d="M206.028 509.277C207.269 502.863 207.306 496.502 206.028 490.103C204.267 495.366 204.026 503.841 206.028 509.277Z" fill="#35BDB0"/>
<path d="M423.815 487.847C431.586 488.306 442.021 488.351 449.77 487.847C442.088 485.96 431.496 485.96 423.815 487.847Z" fill="#35BDB0"/>
<path d="M624.682 469.8C623.253 470.875 620.545 470.258 621.297 473.184C625.736 473.289 633.071 475.041 638.224 475.439C634.831 472.108 624.562 474.575 624.682 469.8Z" fill="#35BDB0"/>
<path d="M657.401 131.436C661.418 133.346 669.415 133.316 673.199 131.436C667.963 131.556 662.622 131.158 657.401 131.436Z" fill="#35BDB0"/>
<path d="M639.345 475.439C641.474 476.635 645.965 477.492 648.373 477.695C649.426 473.83 642.836 475.74 639.345 475.439Z" fill="#35BDB0"/>
<path d="M549.376 186.96C531.034 183.185 518.659 202.593 528.544 217.933C539.362 234.724 566.927 223.407 564.618 206.722C563.61 199.435 557.064 188.539 549.376 186.96Z" fill="#8FD3CE"/>
<path d="M663.788 229.927C662.998 228.31 655.933 222.167 653.895 221.219C632.732 211.339 619.717 242.77 646.936 251.854C661.418 256.689 669.385 241.341 663.788 229.927Z" fill="#8FD3CE"/>
<path d="M461.822 235.972C466.027 231.039 465.606 221.279 460.941 216.707C454.186 210.083 440.817 210.188 434.656 217.264C420.354 233.686 449.092 250.906 461.829 235.972H461.822Z" fill="#8FD3CE"/>
<path d="M690.39 297.459C667.098 294.256 673.056 339.042 695.438 326.786C709.476 319.101 707.061 299.753 690.39 297.459Z" fill="#8ED2CD"/>
<path d="M347.41 244.56C343.49 247.711 341.685 254.298 342.813 259.216C345.153 269.45 376.968 281.203 372.959 256.133C371.221 245.237 356.701 237.093 347.41 244.56Z" fill="#8FD3CE"/>
<path d="M419.572 286.158C403.796 284.03 398.86 308.784 414.14 315.371C432.685 323.364 439.455 288.842 419.572 286.158Z" fill="#8FD3CE"/>
<path d="M496.383 265.983C492.373 271.051 494.886 280.759 499.987 284.827C518.351 299.467 530.357 275.427 518.05 264.516C511.963 259.117 501.318 259.734 496.383 265.983Z" fill="#8ED2CD"/>
<path d="M571.14 269.66C570.425 270.525 569.237 270.465 568.748 272.292C565.235 285.481 575.413 296.001 588.571 289.903C605.536 282.045 585.81 252.027 571.14 269.653V269.66Z" fill="#8ED2CD"/>
<path d="M234.653 366.767C239.182 374.099 252.716 376.197 257.441 367.234C262.985 356.714 259.013 346.976 246.697 346.262C236.188 345.645 229.199 357.939 234.653 366.767Z" fill="#8FD3CE"/>
<path d="M274.127 244.62C259.946 257.689 281.153 280.503 291.626 263.803C295.605 257.456 298.306 247.267 290.324 242.876C284.584 239.717 278.934 240.199 274.127 244.628V244.62Z" fill="#8ED2CD"/>
<path d="M600.255 330.395C592.205 334.365 592.709 357.698 607.153 357.059C626.706 356.195 621.854 319.732 600.255 330.395Z" fill="#8ED2CD"/>
<path d="M210.858 273.879C204.403 279.255 205.125 295.941 214.724 298.121C226.596 300.821 231.742 292.858 232.035 281.939C232.276 273.134 217.395 268.434 210.858 273.879Z" fill="#8FD3CE"/>
<path d="M495.24 336.952C476.605 332.681 470.368 362.398 490.982 361.594C507.352 360.955 506.727 339.584 495.24 336.952Z" fill="#8FD3CE"/>
<path d="M174.716 308.792C164.477 306.093 157.939 318.763 157.465 327.162C156.54 343.427 181.615 332.689 182.405 321.47C182.751 316.545 179.742 310.115 174.716 308.792Z" fill="#8FD3CE"/>
<path d="M369.325 353.315C378.044 342.374 360.29 321.342 349.336 336.14C345.078 341.885 345.01 349.322 351.044 353.63C355.151 356.563 366.015 357.48 369.332 353.322L369.325 353.315Z" fill="#8FD3CE"/>
<path d="M603.64 173.892C608.372 179.103 623.095 182.201 626.074 175.132C631.664 161.898 616.618 150.995 605.055 157.507C599.6 160.575 599.661 169.515 603.64 173.899V173.892Z" fill="#8ED2CD"/>
<path d="M293.296 305.514C280.01 319.372 310.366 335.095 314.947 317.575C318.701 303.22 302.008 296.43 293.296 305.514Z" fill="#8FD3CE"/>
</g>
</g>
<defs>
<clipPath id="clip0_504_11436">
<rect width="669" height="516" fill="white"/>
</clipPath>
<clipPath id="clip1_504_11436">
<rect width="991" height="385" fill="white" transform="matrix(-1 0 0 1 1058 131)"/>
</clipPath>
</defs>
</svg>
