<svg width="669" height="516" viewBox="0 0 669 516" fill="none" xmlns="http://www.w3.org/2000/svg">
<g clip-path="url(#clip0_504_11321)">
<rect width="669" height="516" fill="#D9D9D9" fill-opacity="0.6"/>
<g clip-path="url(#clip1_504_11321)">
<path d="M829.15 210.65C822.87 220.75 818.65 231.87 812.11 241.87C753.23 331.92 617.47 348.61 518.76 346.82C513.24 346.72 499.07 342.22 500.15 351.73C525.21 360.38 545.28 373.67 560.17 395.81C568.35 407.98 572.05 420.64 577.21 434.14C581.03 444.12 583.89 454.44 588.21 464.28C591.56 471.92 604.45 492.84 603.61 499.57C601.75 514.38 572.48 503.89 564.03 500.66C536.11 489.99 503.38 466.84 482.75 445.31C462.12 423.78 444.99 395.39 433.12 369.48C432.03 367.1 429.32 357.46 428.81 357.03C428.1 356.43 424.23 357.19 422.81 356.92C421.84 362.78 425.26 367.82 426.68 372.88C427.03 374.12 427.3 376 425.37 375.2C422.05 373.83 413.58 362.69 408.6 360.47C402.43 357.71 391.06 357.38 383.43 355.16C369.78 351.19 359.6 340.13 345.6 340.67C339.34 340.91 333.63 344.27 327.52 345.45C304.86 349.81 276.25 337.37 253.18 333.03C207.18 324.37 160.15 323.98 113.42 324.39C95.85 324.54 72.49 332.2 67.49 308.44C63.59 289.91 65.17 241.84 66.2 221.27C69.71 151.32 115.78 146.07 174.42 143.59C256.71 140.11 344.72 144.05 426.51 152.4C449.1 154.7 471.89 158.27 494.56 160.74C528.16 164.4 529.33 153.87 552.36 135.5C561.2 128.45 582.8 111.28 593.97 112.04C606.05 112.86 599.58 129.46 599.78 136.99C600.81 174.74 639.78 187.77 671.2 191.33C719.34 196.79 751.52 186.99 783.44 150.7C794.62 137.99 799.7 130.28 806.66 114.49C809.47 108.11 820.79 80.6499 821.03 75.5199C838.64 35.9399 886.78 36.2999 921.58 21.1599C927.05 18.7799 932.34 15.6699 937.52 12.7199C944.74 8.5999 954.84 -3.1201 959.19 10.0799C950.64 47.4499 931.37 84.6399 898.16 105.41C883.5 114.58 866.43 120.5 851.85 129.19C848.98 130.9 843.05 134.35 841.49 137.12C836.94 145.2 838.36 163.37 837.16 173.42C835.65 186.13 832.03 198.28 829.16 210.63L829.15 210.65ZM523.24 207.47C525.28 204.24 519.86 198.15 516.75 197.47C506.36 195.22 507.94 207.77 517.92 208.58C519.09 208.67 522.8 208.16 523.24 207.47ZM576.45 208.38C578.51 210.45 586.89 212.23 588.2 207.9C590.91 198.93 576.02 197.15 575.15 203.06C574.95 204.39 575.52 207.44 576.46 208.38H576.45ZM461.14 208.81C452.7 210 459.55 219.43 467.09 219.73C480.48 220.27 469.61 207.61 461.14 208.81ZM540.91 209.89C534.51 216.24 551.72 222.22 553.78 216.11C555.59 210.75 544.16 206.66 540.91 209.89ZM652.08 217.07C650.66 215.82 641.49 211.79 639.6 211.71C632.96 211.44 632.6 217.49 637.2 221.28C645.24 227.9 659.71 223.76 652.08 217.07ZM735.43 217.01C731.37 212.82 714.85 209.88 720.41 219.35C725.98 228.84 742.57 224.39 735.43 217.01ZM687.03 230.05C684.35 239.27 704.99 243.63 702 233.71C700.79 229.71 690.58 227.64 687.03 230.05ZM611.63 243.03C616.74 234.85 590.1 229.38 588.54 235.75C586.45 244.28 609.73 246.08 611.63 243.03ZM525.26 247.08C530.05 239.43 511.18 233.82 509.26 239.78C507.22 246.11 523.26 250.28 525.26 247.08ZM643.51 245.45C637.39 251.53 656.95 262.49 661.1 254.33C663.52 249.58 647.81 241.18 643.51 245.45ZM561.68 255.52C552.22 257.64 563.22 272.36 573.91 267.78C579.71 265.3 576.9 259.7 572.52 257.51C570.94 256.72 563 255.22 561.68 255.52ZM329.1 264.73C302.51 268.49 308.06 311.97 337.76 305.91C361.03 301.16 355.67 260.97 329.1 264.73Z" fill="#22AB98"/>
<path d="M577.22 434.14C572.06 420.65 568.36 407.98 560.18 395.81C545.29 373.67 525.21 360.37 500.16 351.73C499.08 342.22 513.24 346.72 518.77 346.82C617.48 348.61 753.24 331.92 812.12 241.87C818.66 231.87 822.88 220.75 829.16 210.65C824.49 230.76 820.26 247.98 812.07 267.21C772.02 361.21 674.44 416.51 577.23 434.14H577.22Z" fill="#6FC8BA"/>
<path d="M372.02 444.3C375.23 444.54 388.04 445.02 389.71 446.22C393.07 448.62 386.13 474.5 385.34 479.47C383.89 488.57 384.02 498.6 381.94 507.56C378.24 523.53 363.12 513.05 355.74 506.79C335.54 489.64 318.61 460.98 313.09 435.16C334.62 440.53 349.85 442.68 372.01 444.3H372.02Z" fill="#22AB98"/>
<path d="M345.61 340.68C359.61 340.14 369.79 351.2 383.44 355.17C391.06 357.39 402.44 357.72 408.61 360.48C413.58 362.7 422.05 373.84 425.38 375.21C427.31 376.01 427.03 374.13 426.69 372.89C425.28 367.83 421.85 362.79 422.82 356.93C424.24 357.19 428.12 356.44 428.82 357.04C429.32 357.47 432.04 367.12 433.13 369.49C445 395.4 463.05 424.75 482.76 445.32C434.25 450.81 387.39 440.06 341.13 426.96C298.85 414.98 256.06 395.76 223.24 366.06C220.68 363.74 210.31 351.98 208.97 351.84C195.27 350.42 213.69 368.01 216.6 370.67C259.91 410.24 312.44 426.8 367.6 442.14C369.23 442.59 371.03 442.63 372.04 444.31C349.88 442.68 334.65 440.54 313.12 435.17C267.71 423.84 222.36 400.12 190.69 365.09C188.62 362.8 180.88 351.38 179.34 350.97C177.71 350.54 174.04 352.48 173.38 353.87C171.43 357.98 193.3 379.36 197.29 382.87C220.08 402.89 245.38 415.49 272.2 428.84C273.51 429.49 274.88 429.69 272.98 431.12C259.14 427.96 244.63 426.09 231.32 420.97C207.31 411.73 175.58 384.95 158.74 365.55C156.48 362.95 147.31 349.42 145.81 348.97C143.65 348.32 138.1 349.55 138.5 352.21C138.78 354.06 150.87 368.7 153.11 371.18C167.82 387.4 186.05 399.72 203.41 412.81C194.23 410.52 184.74 407.78 176 404.17C158.12 396.78 146.6 386.4 133.81 372.2C130.77 368.82 115.82 348.45 114.33 348C112.38 347.41 109.96 347.93 107.92 347.81C105.42 350.2 120.72 368.11 123.13 370.69C129.68 377.71 137.27 383.67 144.47 389.97C126.03 385.22 107.37 373.78 95.2101 358.99C90.6701 353.46 83.2701 343.31 90.5901 337.08C93.5201 334.59 102.23 333.81 106.35 333.54C122.81 332.48 142.52 333.28 159.26 333.54C196.45 334.11 231.8 337.12 268.44 345.25C291.15 350.29 306.92 358.41 331.25 353.23C336.86 352.03 353.06 348.59 345.63 340.69L345.61 340.68ZM388.17 412.91C356.95 408.35 325.91 400.71 297.18 387.59C278.34 378.99 262.15 366.93 245.36 355.04C243.12 354.69 239.33 360.69 242.01 362.5C276.14 389.45 316.28 407.19 358.81 416.38C362.8 417.24 386.16 422.08 387.38 420.35C388.09 419.34 388.81 413.66 388.18 412.91H388.17Z" fill="#6FC8BA"/>
<path d="M329.1 264.73C355.67 260.97 361.03 301.17 337.76 305.91C308.06 311.97 302.51 268.49 329.1 264.73ZM330.12 273.86C317.56 275.93 317.32 295.11 329.93 296.94C349.56 299.79 347.79 270.94 330.12 273.86Z" fill="#FFFDF4"/>
<path d="M611.63 243.03C609.72 246.08 586.45 244.27 588.54 235.75C590.1 229.38 616.75 234.86 611.63 243.03Z" fill="#6FC8BA"/>
<path d="M561.68 255.52C563 255.22 570.94 256.72 572.52 257.51C576.9 259.7 579.71 265.3 573.91 267.78C563.22 272.35 552.22 257.64 561.68 255.52Z" fill="#6FC8BA"/>
<path d="M652.08 217.07C659.71 223.76 645.24 227.9 637.2 221.28C632.6 217.49 632.95 211.45 639.6 211.71C641.49 211.79 650.65 215.82 652.08 217.07Z" fill="#6FC8BA"/>
<path d="M643.51 245.45C647.81 241.18 663.52 249.58 661.1 254.33C656.95 262.49 637.39 251.53 643.51 245.45Z" fill="#6FC8BA"/>
<path d="M525.26 247.08C523.26 250.27 507.23 246.1 509.26 239.78C511.18 233.82 530.04 239.44 525.26 247.08Z" fill="#6FC8BA"/>
<path d="M461.14 208.81C469.61 207.61 480.48 220.27 467.09 219.73C459.55 219.43 452.7 210 461.14 208.81Z" fill="#6FC8BA"/>
<path d="M576.45 208.38C575.51 207.43 574.95 204.39 575.14 203.06C576.01 197.15 590.91 198.94 588.19 207.9C586.88 212.23 578.51 210.45 576.44 208.38H576.45Z" fill="#6FC8BA"/>
<path d="M523.24 207.47C522.8 208.17 519.08 208.68 517.92 208.58C507.94 207.77 506.36 195.22 516.75 197.47C519.87 198.14 525.28 204.23 523.24 207.47Z" fill="#6FC8BA"/>
<path d="M540.91 209.89C544.16 206.67 555.59 210.75 553.78 216.11C551.71 222.22 534.51 216.24 540.91 209.89Z" fill="#6FC8BA"/>
<path d="M330.12 273.86C347.8 270.94 349.56 299.79 329.93 296.94C317.32 295.11 317.56 275.93 330.12 273.86Z" fill="#22AB98"/>
</g>
</g>
<defs>
<clipPath id="clip0_504_11321">
<rect width="669" height="516" fill="white"/>
</clipPath>
<clipPath id="clip1_504_11321">
<rect width="894.19" height="512" fill="white" transform="translate(65 4)"/>
</clipPath>
</defs>
</svg>
