<svg width="669" height="516" viewBox="0 0 669 516" fill="none" xmlns="http://www.w3.org/2000/svg">
<g clip-path="url(#clip0_504_11361)">
<rect width="669" height="516" fill="#D9D9D9" fill-opacity="0.6"/>
<g clip-path="url(#clip1_504_11361)">
<path d="M379.055 419.031C384.099 427.56 393.642 435.734 401.977 441.005C403.787 443.484 402.912 443.216 401.798 445.006C396.668 453.27 391.473 458.721 388.376 468.66C376.037 508.326 409.616 535.956 422.861 569.664C439.581 612.231 407.652 659.098 360.761 653.03C324.487 648.337 311.534 621.876 288.887 598.312C245.459 553.117 194.405 606.715 223.908 649.064C236.238 666.774 260.763 670.824 276.324 684.658C300.543 706.176 303.839 744.246 269.333 756.961C264.221 758.845 258.113 759.616 256.973 752.752C255.992 746.909 266.147 744.822 270.204 741.674C279.103 734.801 280.76 721.783 276.606 711.896C265.167 684.728 222.647 686.015 204.711 657.334C165.886 595.255 235.744 529.311 294.131 572.221C318.576 590.2 353.056 652.124 388.897 616.701C412.341 593.532 382.548 563.29 370.167 543.391C356.466 521.355 349.95 501.676 352.523 475.678C354.539 455.256 364.17 433.342 379.068 419.024L379.055 419.031Z" fill="#2EA291"/>
<path d="M524.354 376.76C523.23 370.227 522.255 365.255 520.076 358.946C521.093 355.005 518.46 350.778 516.626 347.357C516.307 346.77 516.072 346.157 515.752 345.57C523.525 344.696 531.412 344.123 538.97 341.818C554.425 337.108 566.214 329.566 576.205 317.647C595.338 294.824 605.408 267.423 628.171 245.574C679.235 196.596 765.43 200.023 793.576 271.123C812.58 319.123 771.782 363.728 789.683 403.551C807.463 443.126 866.51 439.289 885.219 402.136C887.74 397.136 889.146 383.868 896.612 384.487C902.644 384.982 901.156 395.864 900.288 399.878C889.807 448.371 825.052 465.606 787.747 435.35C725.936 385.204 796.112 321.563 762.026 267.887C749.013 247.391 721 237.397 697.606 241.251C627.444 252.818 627.063 324.153 577.465 358.2C563.892 367.521 541.145 378.124 524.374 376.767L524.354 376.76Z" fill="#2EA291"/>
<path d="M443.218 303.593C452.124 303.184 467.235 304.981 475.181 307.871C493.627 314.571 506.787 328.753 515.739 345.576C516.059 346.163 516.294 346.776 516.614 347.364C515.998 351.464 518.848 355.44 520.064 358.953C522.249 365.274 523.231 370.227 524.342 376.766C523.77 376.722 522.259 376.475 522.126 376.734C523.115 385.273 520.331 396.45 516.772 404.254C514.571 409.049 506.019 424.338 502.99 428.132C498.258 434.035 483.227 445.168 476.133 447.892C450.795 457.628 424.629 455.382 401.951 441.018C393.629 435.74 384.073 427.573 379.03 419.043C373.301 409.344 368.776 389.436 369.208 378.148C369.3 375.92 370.387 362 370.654 361.19C370.701 361.054 372.37 360.4 372.976 359.424C378.06 351.263 381.105 339.959 386.468 332.438C398.668 315.38 422.612 304.547 443.192 303.605L443.218 303.593ZM452.196 324.866C449.64 327.215 450.119 341.889 452.146 343.453C462.483 351.497 464.73 313.321 452.196 324.866ZM418.503 361.971C419.18 356.013 399.436 346.326 397.518 355.139C395.6 363.952 417.861 367.638 418.503 361.971ZM429.287 357.135C403.712 375.153 432.869 418.415 460.431 401.254C490.234 382.689 459.687 335.724 429.287 357.135ZM412.919 400.567C410.866 401.926 403.627 409.249 402.959 411.257C401.116 416.815 407.137 420.695 411.703 417.299C413.508 415.963 424.402 400.402 419.295 398.193C417.529 397.261 414.461 399.554 412.919 400.567ZM495.551 366.506C492.067 367.385 485.044 371.643 481.258 373.494C480.736 373.749 480.63 375.483 480.999 376.337C482.833 380.486 494.174 379.469 497.718 377.72C506.138 373.571 502.064 364.875 495.558 366.519L495.551 366.506ZM458.479 407.98C455.556 410.8 463.332 426.209 466.78 426.479C469.117 426.663 472.828 424.428 472.845 421.849C472.86 418.704 463.009 403.615 458.473 407.967L458.479 407.98Z" fill="#94D2BE"/>
<path d="M475.194 307.865C467.247 304.975 452.137 303.178 443.231 303.586C443.377 295.98 445.16 288.511 445.28 280.884C446.208 219.534 398.507 166.193 410.463 103.978C423.461 36.3872 498.244 3.80349 555.685 42.0991C582.78 60.1734 599.92 92.1869 633.764 100.38C660.853 106.929 696.43 95.1788 703.544 65.602C704.874 60.0847 703.12 48.4264 711.128 48.166C720.202 47.8694 719.22 68.9178 717.607 74.8809C708.237 109.635 665.682 127.821 632.284 121.996C584.483 113.673 571.631 71.7045 532.124 54.4429C497.924 39.5022 459.064 54.9916 442.735 88.2811C416.399 141.954 467.151 207.16 475.798 260.87C478.37 276.882 477.313 291.92 475.22 307.852L475.194 307.865Z" fill="#2EA291"/>
<path d="M370.693 361.171C351.242 352.085 333.544 350.486 312.736 355.759C286.21 362.47 268.935 370.867 240.637 364.49C199.174 355.138 180.864 321.126 178.478 280.718C176.239 242.86 194.932 196.61 160.712 166.609C114.564 126.172 52.2967 186.141 76.9366 228.765C79.5216 233.226 92.3968 245.171 80.025 245.9C76.3779 246.114 66.9768 237.305 64.6061 234.309C45.3585 209.859 56.5775 173.262 78.373 154.23C118.231 119.415 170.234 129.354 196.104 173.9C221.846 218.249 183.053 307.443 234.717 331.939C268.776 348.081 298.428 322.524 332.901 320.821C351.304 319.925 370.275 323.796 386.507 332.419C381.137 339.927 378.099 351.244 373.015 359.405C372.409 360.381 370.74 361.035 370.693 361.171Z" fill="#2EA291"/>
<path d="M503.009 428.138C506.963 432.851 509.832 438.289 513.896 442.964C531.82 463.614 562.923 465.273 586.363 476.468C633.833 499.166 649.535 545.805 623.897 591.844C610.834 615.306 580.86 646.422 584.042 674.764C587.382 704.421 609.838 726.931 640.372 723.855C666.601 721.202 689.143 699.429 716.976 708.524C723.461 710.641 740.779 724.23 731.806 729.927C724.513 734.56 721.807 726.908 714.634 724.012C694.887 716.041 673.993 733.872 656.36 740.083C613.828 755.04 568.694 727.658 560.142 683.668C548.484 623.766 608.337 594.552 606.222 547.156C604.226 502.484 555.201 501.017 523.826 487.687C504.271 479.379 486.749 466.795 476.171 447.905C483.252 445.187 498.284 434.055 503.029 428.145L503.009 428.138Z" fill="#2EA291"/>
<path d="M520.077 358.946C518.861 355.433 516.011 351.458 516.627 347.357C518.461 350.778 521.093 355.005 520.077 358.946Z" fill="#FEF8EB"/>
<path d="M429.287 357.135C459.674 335.73 490.234 382.689 460.431 401.254C432.882 418.409 403.712 375.153 429.287 357.135ZM435.42 365.181C420.829 376.389 440.687 405.198 458.309 388.643C464.77 382.574 460.805 366.062 452.912 363.017C447.511 360.935 440.098 361.584 435.42 365.181Z" fill="#2EA291"/>
<path d="M412.919 400.567C414.461 399.554 417.523 397.248 419.295 398.193C424.389 400.408 413.495 415.97 411.703 417.299C407.137 420.695 401.116 416.815 402.959 411.257C403.62 409.236 410.866 401.926 412.919 400.567Z" fill="#2EA291"/>
<path d="M418.503 361.971C417.86 367.637 395.681 363.588 397.518 355.139C399.355 346.689 419.18 356.013 418.503 361.971Z" fill="#2EA291"/>
<path d="M495.551 366.506C502.063 364.875 506.137 373.571 497.712 377.707C494.174 379.436 482.826 380.473 480.992 376.324C480.61 375.476 480.717 373.743 481.252 373.481C485.037 371.63 492.047 367.378 495.545 366.493L495.551 366.506Z" fill="#2EA291"/>
<path d="M452.195 324.866C464.716 313.327 462.482 351.497 452.145 343.453C450.132 341.883 449.64 327.215 452.195 324.866Z" fill="#2EA291"/>
<path d="M458.479 407.98C463.002 403.635 472.866 418.717 472.851 421.862C472.828 424.428 469.137 426.669 466.786 426.493C463.332 426.209 455.556 410.8 458.486 407.993L458.479 407.98Z" fill="#2EA291"/>
<path d="M435.42 365.181C440.098 361.584 447.511 360.935 452.912 363.017C460.805 366.062 464.77 382.574 458.308 388.644C440.687 405.198 420.816 376.396 435.42 365.181Z" fill="#94D2BE"/>
</g>
</g>
<defs>
<clipPath id="clip0_504_11361">
<rect width="669" height="516" fill="white"/>
</clipPath>
<clipPath id="clip1_504_11361">
<rect width="743.901" height="807.492" fill="white" transform="translate(-20 198.735) rotate(-26.0541)"/>
</clipPath>
</defs>
</svg>
